<svg xmlns="http://www.w3.org/2000/svg" fill="currentColor" height="20px" viewBox="0 -960 960 960" width="20px">
  <path
    d="M740-560q-1 0-8-6-16-61-60.5-105.5T566-732q-2-1-6-8 0-2 6-8 61-16 105.5-60.5T732-914q1-2 8-6 2 0 8 6 17 61 61 105.5T914-748q2 0 6 8 0 1-6 8-61 16-105.5 60.5T748-566q0 2-8 6Zm44 440L532-372q-30 24-69 38t-83 14q-109 0-184.5-75.5T120-580q0-109 75.5-184.5T380-840q29 0 57 6t53 18l-10 87q-22-15-47-23t-53-8q-75 0-127.5 52.5T200-580q0 75 52.5 127.5T380-400q66 0 115.5-42.5T557-555l72 50q-7 22-17.5 41T588-428l252 252-56 56Z"
    fill="rgba(255,255,255,1)">
  </path>
</svg>