<svg xmlns="http://www.w3.org/2000/svg" version="1.2" viewBox="0 0 350 122" width="350" height="122"><style>tspan{white-space:pre}.a{fill:#004b7f}.b{fill:#007b6c}</style><path class="a" d="m59 90.2c-3.8 0-7.5-0.9-10.8-2.5l3.8-7c2.2 0.9 4.5 1.4 7 1.4 10.5 0 19-9 19-20.1 0-6.3-3.1-11.7-7.5-15.4l4.2-7.4q1.7 1.3 3.2 2.9c5 5.3 7.8 12.4 7.8 19.9 0 15.5-12 28.2-26.7 28.2z"/><path class="b" d="m66.1 44l-0.2 0.1-0.2-0.1q-0.8-0.3-1.6-0.6-0.6-0.2-1.4-0.4h-0.2l-0.1-0.3c-2.3-9 1.7-23.4 9.5-34.1 1.6-2 3.2-3.9 4.8-5.4l0.6-0.6 0.1 0.8c0.4 2.3 0.7 4.7 0.7 7.3 0.2 13.4-4.9 27.4-12 33.3z"/><path class="b" d="m55.4 7.1c5.8 11.9 7.1 26.9 3.2 35.4l-0.1 0.3h-0.3q-0.8 0-1.6 0.1-0.7 0.1-1.4 0.4h-0.3l-0.2-0.2c-5.9-7-8.3-21.7-5.7-35 0.5-2.6 1.2-5 2-7.1l0.3-0.8 0.4 0.7q2 2.7 3.7 6.2z"/><path class="b" d="m50.4 44.8v0.3l-0.2 0.1q-0.8 0.4-1.4 0.9-0.6 0.4-1.2 1l-0.2 0.1-0.2-0.1c-8.2-3.5-16.6-15.6-19.8-28.7-0.6-2.5-1-5-1.2-7.3l-0.1-0.8 0.7 0.3q3 1.6 5.9 3.9c10.2 8 17.6 20.8 17.7 30.3z"/><path class="b" d="m8.2 31.7l-0.4-0.7h0.7c2.2 0 4.5 0.3 6.9 0.8 12.5 2.4 24.5 10.4 28.6 18.9l0.1 0.2-0.2 0.2q-0.4 0.7-0.8 1.5-0.4 0.6-0.6 1.4l-0.1 0.2-0.3 0.1c-8.9 0.6-21.4-6.3-29.8-16.6q-2.4-3-4.1-6z"/><path class="b" d="m6.9 62.1q-3.5-1.5-6.3-3.5l-0.6-0.4 0.7-0.3c1.9-1.1 4.1-1.9 6.5-2.6 12.2-3.7 26.3-2.1 33.5 3.6l0.2 0.2v0.3q-0.2 0.8-0.2 1.7 0 0.7 0 1.5v0.3l-0.2 0.1c-7.7 4.8-21.8 4.4-33.6-0.9z"/><path class="b" d="m12 86.7q-3.7 0.2-7-0.2l-0.8-0.1 0.5-0.6c1.3-1.9 2.9-3.7 4.7-5.4 9.5-9 22.8-14.2 31.7-12.4l0.2 0.1 0.1 0.3q0.2 0.8 0.5 1.6 0.3 0.6 0.7 1.3l0.1 0.3-0.1 0.2c-4.9 7.8-17.8 14.1-30.6 14.9z"/><path class="b" d="m48 78.1l0.2 0.2v0.3c-1.1 9.3-10 20.9-21.2 27.6q-3.2 1.9-6.4 3.1l-0.7 0.2 0.2-0.7q0.6-3.4 2-7c4.7-12.5 14.4-23.4 23.2-25.9l0.2-0.1 0.2 0.2q0.5 0.7 1.2 1.2 0.5 0.5 1.1 0.9z"/><path class="a" d="m97.1 71.7c-0.6 3-0.2 1.5-1.1 4.3 3 2 7.3 5 9.9 7.8 1.4 1.5 2.8 3.1 3.8 4.6q-1.8 3.8-4 7.3c-1.8-0.2-3.9-0.6-5.8-1.1-3.7-0.9-8.3-3.3-11.5-5-1.9 2.3-0.9 1.2-2.9 3.2 1.7 3.3 4.2 8 5.2 11.8 0.6 2 1.1 4 1.4 5.8q-3.3 2.5-6.9 4.5c-1.5-1-3.1-2.3-4.6-3.7-2.8-2.7-5.9-7.1-7.9-10.2-2.7 1.1-1.3 0.7-4 1.4 0.1 3.8 0.1 9.2-0.6 13.1-0.4 1.9-0.9 4-1.5 5.7-2.5 0.4-7.9 0.6-8.1 0.6-0.8-1.6-1.6-3.6-2.3-5.6-1.3-3.7-2-9.1-2.4-12.9-2.9-0.3-1.4 0-4.2-0.7-1.6 3.4-4 8.2-6.3 11.2q-1.8 2.3-3.7 4.1-2.9-1.2-5.8-2.7l12.3-22.4c4 1.9 8.4 2.9 12.9 2.9 8.5 0 16.5-3.5 22.5-9.9 6.1-6.3 9.4-14.8 9.4-23.8 0-9-3.3-17.4-9.4-23.8q-1.7-1.8-3.7-3.4l12.2-22.2q2.7 1.9 5.2 4c-0.4 1.9-0.8 3.7-1.5 5.8-1.2 3.7-4 8.4-5.9 11.5 2 2.3 1 1.1 2.7 3.4 3.3-1.5 8-3.5 11.7-4.3q3-0.5 5.7-0.6 1.9 3.6 3.4 7.5-1.7 2.2-4 4.4c-2.8 2.7-7.3 5.5-10.4 7.3 0.8 3 0.5 1.4 0.9 4.3 3.6 0.3 8.7 0.9 12.2 2 2 0.7 3.8 1.6 5.4 2.4 0 0.6 0 6.1-0.2 8.2-1.6 0.8-3.7 1.4-5.7 2-3.6 1-8.8 1.1-12.4 1.2z"/><path fill-rule="evenodd" d="m243.9 91.3h5.2l3.4 9.9q0.4 1.3 0.6 3.1h0.1q0.1-1.6 0.6-3.1l3.3-9.9h5.2l-7.5 19.9q-1 2.7-2.9 4.1-1.9 1.3-4.5 1.3-1.2 0-2.4-0.2v-3.8q0.9 0.2 1.9 0.2 1.3 0 2.2-0.8 1-0.8 1.5-2.4l0.3-0.8zm-7.4 17.9q-8.3 0-8.3-9 0-4.5 2.3-6.9 2.2-2.4 6.4-2.4 3.1 0.1 5.5 1.2l-1.4 3.8q-1.2-0.5-2.1-0.8-1-0.3-2-0.3-3.7 0-3.7 5.3 0 5.2 3.7 5.2 1.4 0 2.6-0.4 1.2-0.4 2.4-1.1v4.1q-1.2 0.7-2.4 1-1.2 0.3-3 0.3zm-11.7-0.3h-4.8v-10.3q0-1.9-0.7-2.9-0.7-0.9-2.2-0.9-2 0-2.9 1.3-0.9 1.4-0.9 4.5v8.3h-4.8v-17.6h3.7l0.6 2.2h0.3q0.8-1.2 2.2-1.9 1.4-0.7 3.2-0.7 3.1 0 4.7 1.7 1.6 1.7 1.6 4.8zm-27.1 0.3q-4.2 0-6.6-2.3-2.4-2.4-2.4-6.7 0-4.4 2.2-6.8 2.2-2.4 6.1-2.4 3.8 0 5.9 2.1 2 2.1 2 5.9v2.3h-11.3q0 2 1.2 3.2 1.1 1.1 3.2 1.1 1.6 0 3-0.3 1.4-0.3 2.9-1v3.7q-1.2 0.6-2.7 0.9-1.4 0.3-3.5 0.3zm-0.6-14.8q-1.6 0-2.4 1-0.9 0.9-1 2.7h6.7q0-1.8-0.9-2.7-0.9-1-2.4-1zm-15.8-3.1h6.1v2.5l-2.7 0.7q0.7 1.1 0.7 2.6 0 2.8-1.9 4.4-2 1.6-5.5 1.6l-0.9-0.1h-0.7q-0.8 0.5-0.8 1.2 0 1.1 2.7 1.1h3q2.9 0 4.4 1.2 1.5 1.2 1.5 3.7 0 3-2.5 4.7-2.6 1.7-7.4 1.7-3.7 0-5.7-1.3-1.9-1.2-1.9-3.5 0-1.6 1-2.7 1-1.1 2.9-1.5-0.8-0.3-1.3-1.1-0.6-0.7-0.6-1.5 0-1 0.6-1.7 0.6-0.6 1.7-1.3-1.4-0.6-2.2-1.9-0.8-1.3-0.8-3.1 0-2.9 1.9-4.4 1.8-1.6 5.3-1.6 0.8 0 1.8 0.1 1 0.2 1.3 0.2zm-7.5 20.1q0 1 1 1.5 0.9 0.6 2.7 0.6 2.6 0 4-0.7 1.5-0.7 1.5-1.9 0-1-0.9-1.4-0.8-0.4-2.7-0.4h-2.5q-1.3 0-2.2 0.6-0.9 0.7-0.9 1.7zm1.8-14.3q0 1.4 0.6 2.2 0.7 0.9 2 0.9 1.4 0 2-0.9 0.7-0.8 0.7-2.2 0-3.2-2.7-3.2-2.6 0-2.6 3.2zm-11.9 11.8l-1.7-5.5h-8.4l-1.7 5.5h-5.3l8.2-23.1h6l8.1 23.1zm-2.8-9.6q-2.3-7.4-2.6-8.4-0.3-1-0.4-1.5-0.5 2-3 9.9z"/><path fill-rule="evenodd" d="m347 69.8q1.2 0 3-0.5v3.5q-1.8 0.8-4.4 0.8-2.9 0-4.2-1.4-1.3-1.5-1.3-4.4v-8.5h-2.4v-2l2.7-1.6 1.4-3.7h3.1v3.7h4.9v3.6h-4.9v8.5q0 1 0.5 1.5 0.6 0.5 1.6 0.5zm-11.8-7.9v11.4h-4.8v-10.2q0-1.9-0.7-2.9-0.6-1-2.1-0.9-2.1 0-3 1.3-0.9 1.3-0.9 4.5v8.2h-4.8v-17.6h3.7l0.7 2.3h0.2q0.8-1.3 2.2-1.9 1.5-0.7 3.3-0.7 3 0 4.6 1.7 1.6 1.6 1.6 4.8zm-27 11.7q-4.3 0-6.7-2.3-2.4-2.4-2.4-6.6 0-4.5 2.2-6.9 2.2-2.4 6.1-2.4 3.8 0 5.9 2.1 2.1 2.2 2.1 5.9v2.3h-11.4q0.1 2.1 1.2 3.2 1.1 1.2 3.2 1.2 1.6 0 3-0.4 1.4-0.3 3-1v3.7q-1.3 0.6-2.7 0.9-1.5 0.3-3.5 0.3zm-0.7-14.8q-1.6 0-2.4 1-0.9 1-1 2.7h6.7q0-1.7-0.9-2.7-0.9-1-2.4-1zm-22.8 5.7v8.8h-4.8v-10.2q0-1.9-0.6-2.9-0.7-0.9-2-0.9-1.9 0-2.7 1.3-0.9 1.4-0.9 4.5v8.2h-4.8v-17.6h3.7l0.6 2.3h0.3q0.7-1.2 2.1-1.9 1.3-0.7 3-0.7 4 0 5.4 2.6h0.4q0.7-1.2 2.1-1.9 1.4-0.7 3.1-0.7 3 0 4.6 1.5 1.5 1.6 1.5 5v11.4h-4.8v-10.2q0-2-0.6-2.9-0.7-1-2.1-1-1.7 0-2.6 1.3-0.9 1.3-0.9 4zm-20.1 8.8h-4.8v-10.2q0-1.9-0.7-2.9-0.7-1-2.2-0.9-2 0-2.9 1.3-0.9 1.3-0.9 4.5v8.2h-4.8v-17.6h3.7l0.6 2.3h0.3q0.8-1.3 2.2-1.9 1.4-0.7 3.2-0.7 3.1 0 4.7 1.7 1.6 1.6 1.6 4.8zm-19.8-8.9q0 4.3-2.3 6.7-2.2 2.5-6.3 2.5-2.5 0-4.5-1.1-1.9-1.1-3-3.2-1-2.1-1-4.9 0-4.3 2.3-6.7 2.2-2.4 6.3-2.3 2.5-0.1 4.5 1 1.9 1.1 3 3.2 1 2.1 1 4.8zm-12.2 0q0 2.6 0.9 4 0.8 1.3 2.8 1.3 1.9 0 2.7-1.3 0.9-1.3 0.9-4 0-2.6-0.9-3.9-0.8-1.3-2.8-1.3-1.9 0-2.7 1.3-0.9 1.3-0.9 3.9zm-8.1-9.1q0.9 0 1.6 0.2l-0.4 4.5q-0.6-0.2-1.4-0.2-2.3 0-3.6 1.2-1.3 1.2-1.3 3.3v9h-4.8v-17.6h3.6l0.8 2.9h0.2q0.8-1.4 2.2-2.3 1.4-0.9 3.1-1zm-19.2 0.4h4.9v17.6h-4.9zm-0.2-4.6q0-2.3 2.7-2.3 2.6 0 2.6 2.3 0 1.1-0.7 1.8-0.6 0.6-1.9 0.6-2.7 0-2.7-2.4zm-13.7 22.1l-6.7-17.5h5l3.4 10q0.6 1.9 0.7 3.6h0.1q0.1-1.5 0.7-3.6l3.4-10h5l-6.7 17.5zm-8.3 0h-4.8v-10.2q0-1.9-0.6-2.9-0.7-0.9-2.2-0.9-2 0-2.9 1.3-0.9 1.4-0.9 4.5v8.2h-4.8v-17.5h3.6l0.7 2.2h0.3q0.8-1.3 2.2-1.9 1.4-0.7 3.2-0.7 3.1 0 4.7 1.7 1.5 1.6 1.5 4.8zm-20.2 0h-13.3v-23h13.3v4h-8.4v5h7.8v4h-7.8v5.9h8.4z"/><path fill-rule="evenodd" d="m295 37.7h-4.8v-10.2q0-1.9-0.7-2.9-0.7-0.9-2.2-0.9-2 0-2.9 1.3-0.9 1.3-0.9 4.5v8.2h-4.8v-17.5h3.7l0.6 2.2h0.3q0.8-1.3 2.2-1.9 1.4-0.7 3.2-0.7 3.1 0 4.7 1.7 1.6 1.6 1.6 4.8zm-20.6 0h-3.4l-0.9-2.4h-0.2q-1.2 1.5-2.5 2.1-1.2 0.6-3.3 0.6-2.6 0-4-1.5-1.5-1.4-1.5-4.1 0-2.8 2-4.1 2-1.3 5.9-1.5l3.1-0.1v-0.7q0-2.7-2.8-2.7-2.1 0-4.9 1.3l-1.6-3.3q3-1.6 6.7-1.6 3.6 0 5.5 1.6 1.9 1.5 1.9 4.7zm-4.8-6.7v-1.5l-1.9 0.1q-2.1 0-3.1 0.7-1 0.7-1 2.1 0 2.1 2.3 2.1 1.7 0 2.7-1 1-0.9 1-2.5zm-20.5 7q-4.2 0-6.6-2.4-2.4-2.3-2.4-6.6 0-4.4 2.2-6.8 2.2-2.4 6.1-2.4 3.8 0 5.8 2.1 2.1 2.1 2.1 5.8v2.4h-11.4q0.1 2 1.3 3.2 1.1 1.1 3.1 1.1 1.6 0 3.1-0.3 1.4-0.3 2.9-1.1v3.7q-1.2 0.7-2.7 1-1.4 0.3-3.5 0.3zm-0.7-14.8q-1.5 0-2.4 0.9-0.8 1-0.9 2.8h6.7q0-1.8-0.9-2.8-0.9-0.9-2.5-0.9zm-17.8 14.8q-3.1 0-4.8-2.3h-0.3q0.3 2.2 0.3 2.6v7.1h-4.9v-25.3h4l0.6 2.3h0.3q1.6-2.6 5-2.6 3.1 0 4.9 2.4 1.7 2.4 1.7 6.6 0 2.9-0.8 4.9-0.8 2.1-2.4 3.2-1.5 1.1-3.6 1.1zm-1.4-14.4q-1.8 0-2.6 1.1-0.8 1.1-0.8 3.6v0.5q0 2.8 0.8 4.1 0.8 1.2 2.7 1.2 3.2 0 3.2-5.3 0-2.6-0.8-3.9-0.8-1.3-2.5-1.3zm-11.7 5.2q0 4.3-2.3 6.8-2.3 2.4-6.3 2.4-2.6 0-4.5-1.1-2-1.1-3-3.2-1-2.1-1-4.9 0-4.3 2.2-6.7 2.3-2.3 6.4-2.3 2.5 0 4.4 1.1 2 1.1 3 3.1 1.1 2.1 1.1 4.8zm-12.2 0q0 2.7 0.8 4 0.9 1.3 2.8 1.3 2 0 2.8-1.3 0.9-1.3 0.9-4 0-2.6-0.9-3.9-0.9-1.3-2.8-1.3-1.9 0-2.8 1.3-0.8 1.3-0.8 3.9zm-8.2-9q1 0 1.6 0.1l-0.3 4.5q-0.6-0.2-1.4-0.2-2.4 0-3.6 1.2-1.3 1.2-1.3 3.3v9h-4.8v-17.6h3.6l0.7 2.9h0.3q0.8-1.4 2.2-2.3 1.4-0.9 3-0.9zm-14.3 17.9h-3.7l-0.6-2.3h-0.3q-0.7 1.2-2.1 1.9-1.5 0.7-3.3 0.7-3.1 0-4.7-1.7-1.5-1.6-1.6-4.8v-11.4h4.9v10.2q0 2 0.6 2.9 0.7 1 2.2 1 2 0 2.9-1.4 0.9-1.3 0.9-4.4v-8.3h4.8zm-20 0h-13.3v-23h13.3v4h-8.4v5h7.8v4h-7.8v6h8.4z"/></svg>