<svg xmlns="http://www.w3.org/2000/svg" width="359" height="126" viewBox="0 0 359 126" fill="none">
<g clip-path="url(#clip0_1133_25397)">
<path d="M87.7468 64.3412C87.8017 56.7422 84.9364 49.4124 79.7426 43.8652C78.7424 42.805 77.6614 41.8242 76.5092 40.9317L72.2278 48.5395C76.7091 52.3314 79.9011 57.8054 79.9011 64.3412C79.9011 75.7443 71.1799 84.9895 60.4248 84.9895C57.9767 84.9888 55.5532 84.5001 53.2961 83.5521L49.3388 90.8186C52.8052 92.4554 56.5914 93.3031 60.4248 93.3006C75.4888 93.3006 87.7468 80.3118 87.7468 64.3446" fill="#004B7F"/>
<path d="M79.9977 11.5793C79.9832 9.06159 79.7525 6.54974 79.3082 4.07147L79.16 3.28207L78.5947 3.81983C76.8043 5.55009 75.1687 7.43366 73.7066 9.449C65.6335 20.4798 61.5245 35.2094 63.934 44.5029L64.003 44.7752L64.2649 44.8304C64.7515 44.9298 65.2315 45.0588 65.7024 45.2165C66.2364 45.3956 66.7581 45.6098 67.2639 45.8576L67.5018 45.9748L67.7052 45.8059C75.0131 39.7734 80.1838 25.3817 80.0114 11.5793" fill="#007B6C"/>
<path d="M52.9894 1.4482L52.5274 0.810478L52.2448 1.55851C51.3626 3.94268 50.6812 6.39638 50.2075 8.89401C47.5636 22.5585 50.0248 37.7086 56.0676 44.9166L56.2435 45.1303L56.502 45.0579C56.9788 44.9201 57.4634 44.8107 57.9532 44.7304C58.5042 44.6416 59.0604 44.5886 59.6182 44.5719H59.8836L59.9974 44.3237C64.0305 35.499 62.6689 20.1661 56.7571 7.86676C55.6966 5.62197 54.438 3.47624 52.9963 1.4551" fill="#007B6C"/>
<path d="M33.4924 15.4815C31.6043 13.9703 29.5802 12.6374 27.4461 11.5L26.7567 11.1553L26.8187 11.9585C27.0191 14.5003 27.4319 17.021 28.0528 19.4939C31.3793 32.9895 39.9075 45.4233 48.3254 49.0566L48.5736 49.1634L48.7735 48.9773C49.1417 48.6298 49.5308 48.3052 49.9386 48.0052C50.3959 47.6662 50.875 47.3576 51.3726 47.0814L51.6036 46.9538V46.6746C51.5381 36.8675 43.9234 23.7546 33.4889 15.4953" fill="#007B6C"/>
<path d="M12.6027 39.3598C21.2206 49.9046 34.0474 57.0608 43.1168 56.3748L43.3822 56.3542L43.4822 56.0922C43.6714 55.6137 43.8854 55.1454 44.1233 54.6892C44.3906 54.1712 44.6899 53.6704 45.0196 53.1897L45.1575 52.9656L45.0403 52.7174C40.9037 43.9514 28.5905 35.7644 15.7913 33.2411C13.4589 32.7709 11.0868 32.525 8.70747 32.5069H7.9491L8.33862 33.1963C9.57888 35.3733 11.0019 37.441 12.5924 39.377" fill="#007B6C"/>
<path d="M41.4932 65.3753L41.7241 65.234V64.9513C41.6896 64.3929 41.6862 63.8792 41.7034 63.3794C41.7287 62.7881 41.7886 62.1988 41.8827 61.6145L41.9275 61.3422L41.7207 61.1733C34.3438 55.2545 19.8934 53.6723 7.35963 57.4124C5.05707 58.0909 2.82374 58.9854 0.689427 60.084L0 60.4287L0.637719 60.894C2.65863 62.2665 4.79871 63.4548 7.03216 64.4446C19.1523 69.8669 33.6475 70.2668 41.5035 65.3994" fill="#007B6C"/>
<path d="M43.62 74.4137L43.7648 74.1759L43.6304 73.9345C43.3817 73.4803 43.1573 73.0131 42.9582 72.535C42.735 71.9902 42.5428 71.4331 42.3825 70.8666L42.3101 70.6012L42.055 70.546C32.9718 68.6949 19.3522 74.0483 9.66921 83.2763C7.8868 84.9662 6.25902 86.812 4.8053 88.7917L4.34338 89.4294L5.09831 89.5259C7.491 89.813 9.90524 89.8765 12.3097 89.7155C25.4433 88.8951 38.6113 82.4593 43.62 74.4172" fill="#007B6C"/>
<path d="M47.991 79.9843C47.5612 79.6022 47.1571 79.1922 46.7811 78.7571L46.6053 78.5537L46.3502 78.6261C37.429 81.2252 27.4495 92.4146 22.6167 105.228C21.7205 107.571 21.0285 109.987 20.5484 112.449L20.3967 113.239L21.1137 112.97C23.3896 112.101 25.5818 111.027 27.6633 109.761C39.1043 102.866 48.2289 90.922 49.3802 81.3631L49.4147 81.0839L49.1941 80.9288C48.7798 80.6356 48.3817 80.3203 48.0014 79.9843" fill="#007B6C"/>
<path d="M112.173 73.0452C114.176 72.5217 116.135 71.8441 118.033 71.0183C118.257 68.8259 118.24 63.1933 118.223 62.5659C116.447 61.6252 114.604 60.8186 112.708 60.1529C109.064 58.9361 103.828 58.388 100.212 58.0846C99.7566 55.0615 100.063 56.6679 99.2637 53.6033C102.487 51.7178 107.075 48.9118 109.919 46.161C111.396 44.7429 112.764 43.2149 114.011 41.5901C113.012 38.9425 111.834 36.3661 110.484 33.8788C108.527 33.9581 106.58 34.1886 104.658 34.5683C100.905 35.306 96.0406 37.4294 92.7107 38.9668C90.9699 36.5297 91.9523 37.7879 89.8944 35.4852C91.9041 32.2173 94.7204 27.4568 96.0027 23.6133C96.647 21.6846 97.1425 19.7093 97.485 17.7049C95.801 16.2033 94.0307 14.8014 92.1833 13.5063L79.6978 36.3987C81.061 37.4552 82.3413 38.6145 83.5275 39.8665C89.6782 46.5364 93.093 55.2769 93.093 64.3498C93.093 73.4227 89.6782 82.1632 83.5275 88.8331C77.3606 95.3826 69.1564 98.9745 60.4317 98.9745C55.8669 98.9749 51.3585 97.966 47.2292 96.0203L34.6575 119.116C36.5815 120.139 38.5635 121.048 40.5935 121.839C41.9256 120.523 43.1693 119.121 44.3164 117.641C46.7294 114.518 49.1941 109.568 50.8073 106.124C53.6202 106.813 52.1 106.51 55.0749 106.872C55.5161 110.743 56.2469 116.31 57.5878 120.136C58.2371 122.082 59.0133 123.983 59.9112 125.828C60.0836 125.828 65.6989 125.631 68.2636 125.266C68.8714 123.321 69.3595 121.341 69.7252 119.337C70.487 115.369 70.456 109.785 70.356 105.941C73.1413 105.141 71.6694 105.634 74.4547 104.473C76.5609 107.672 79.6702 112.225 82.5451 114.935C84.025 116.312 85.6034 117.579 87.2677 118.727C89.724 117.366 92.0777 115.828 94.3102 114.125C93.9709 112.116 93.5022 110.131 92.9072 108.182C91.8248 104.3 89.3256 99.3847 87.5365 96.041C89.6427 93.9521 88.5707 95.1206 90.5045 92.7076C93.7793 94.4864 98.5432 96.9545 102.28 97.9128C104.236 98.4273 106.228 98.7903 108.24 98.9987C109.79 96.6074 111.172 94.1114 112.377 91.5287C111.176 89.8604 109.864 88.2746 108.45 86.782C105.772 83.8933 101.391 80.8012 98.3261 78.7364C99.2637 75.8408 98.8225 77.4127 99.474 74.3137C103.159 74.2482 108.454 74.0586 112.18 73.0452" fill="#004B7F"/>
<path d="M256.977 112.449L256.687 113.335C256.412 114.266 255.883 115.101 255.16 115.748C254.516 116.277 253.705 116.561 252.871 116.548C252.219 116.554 251.567 116.483 250.931 116.338V120.25C251.753 120.436 252.594 120.528 253.437 120.526C255.065 120.558 256.661 120.065 257.987 119.12C259.285 118.182 260.285 116.77 260.986 114.883L268.635 94.4933H263.361L260 104.673C259.651 105.688 259.42 106.741 259.311 107.81H259.225C259.145 106.744 258.944 105.692 258.625 104.673L255.216 94.5002H249.797L256.977 112.449ZM245.298 112.601C246.154 112.392 246.97 112.043 247.711 111.567V107.337C246.967 107.846 246.155 108.246 245.298 108.527C244.444 108.787 243.554 108.915 242.661 108.906C240.094 108.906 238.812 107.139 238.814 103.604C238.814 99.9593 240.096 98.1369 242.661 98.1369C243.34 98.1383 244.015 98.2393 244.664 98.4368C245.333 98.6333 246.043 98.8918 246.832 99.2021L248.287 95.3861C246.532 94.5473 244.606 94.1272 242.661 94.1589C239.805 94.1589 237.61 94.9701 236.077 96.5926C234.544 98.215 233.777 100.564 233.774 103.639C233.774 109.816 236.588 112.904 242.216 112.904C243.251 112.926 244.286 112.827 245.298 112.611M230.269 100.788C230.269 98.6436 229.724 97.0028 228.635 95.8652C227.545 94.7277 225.95 94.1589 223.85 94.1589C222.717 94.1392 221.593 94.3686 220.558 94.8311C219.622 95.2523 218.832 95.9407 218.286 96.8097H218.011L217.349 94.4967H213.567V112.577H218.5V104.073C218.5 101.94 218.807 100.412 219.42 99.4882C220.034 98.5643 221.031 98.1047 222.413 98.1093C223.426 98.1093 224.164 98.4333 224.626 99.0883C225.088 99.7432 225.315 100.719 225.315 102.022V112.58H230.269V100.788ZM206.139 112.601C207.095 112.398 208.021 112.075 208.896 111.639V107.806C207.923 108.272 206.904 108.636 205.856 108.892C204.838 109.125 203.797 109.24 202.754 109.237C201.354 109.237 200.265 108.844 199.486 108.058C198.707 107.272 198.292 106.177 198.241 104.773H209.899V102.38C209.899 99.811 209.188 97.8002 207.766 96.3478C206.343 94.8954 204.354 94.1681 201.799 94.1658C199.128 94.1658 197.035 94.9919 195.518 96.6443C194.001 98.2966 193.244 100.638 193.246 103.67C193.246 106.613 194.066 108.889 195.704 110.495C197.343 112.101 199.617 112.906 202.526 112.908C203.738 112.933 204.949 112.83 206.139 112.601M204.346 98.6781C204.963 99.3399 205.28 100.284 205.301 101.501H198.362C198.448 100.284 198.789 99.3399 199.379 98.6781C199.691 98.343 200.073 98.0805 200.498 97.909C200.922 97.7375 201.379 97.6611 201.837 97.6853C202.299 97.6628 202.761 97.7398 203.191 97.911C203.621 98.0823 204.009 98.3439 204.329 98.6781M182.557 97.1682C184.345 97.1682 185.24 98.2575 185.242 100.436C185.287 101.261 185.06 102.078 184.598 102.763C184.167 103.335 183.484 103.621 182.56 103.621C181.636 103.621 180.964 103.335 180.516 102.763C180.035 102.086 179.798 101.265 179.844 100.436C179.844 98.2575 180.748 97.1682 182.557 97.1682ZM178.958 113.459C179.63 113.015 180.424 112.792 181.23 112.822H183.787C185.026 112.822 185.945 112.95 186.545 113.208C186.823 113.317 187.059 113.513 187.219 113.766C187.378 114.019 187.453 114.316 187.431 114.614C187.431 115.455 186.93 116.118 185.928 116.603C184.926 117.088 183.542 117.331 181.774 117.331C180.825 117.381 179.88 117.18 179.034 116.748C178.738 116.598 178.49 116.368 178.317 116.085C178.144 115.802 178.053 115.477 178.055 115.145C178.051 114.81 178.134 114.479 178.293 114.184C178.453 113.889 178.685 113.64 178.968 113.459M185.704 94.5002C185.511 94.4588 185.066 94.3933 184.37 94.3002C183.772 94.2149 183.168 94.1688 182.564 94.1623C180.181 94.1623 178.342 94.7012 177.048 95.779C175.754 96.8569 175.113 98.3816 175.125 100.353C175.096 101.477 175.385 102.586 175.959 103.552C176.483 104.431 177.273 105.121 178.213 105.524C177.57 105.879 176.988 106.336 176.49 106.875C176.108 107.335 175.895 107.912 175.889 108.51C175.883 109.108 176.083 109.69 176.455 110.157C176.796 110.621 177.252 110.987 177.779 111.219C176.648 111.434 175.607 111.979 174.787 112.787C174.105 113.531 173.74 114.512 173.77 115.521C173.747 116.258 173.92 116.987 174.271 117.636C174.621 118.284 175.137 118.828 175.766 119.213C177.097 120.091 179.023 120.531 181.547 120.533C184.847 120.533 187.375 119.952 189.13 118.789C189.965 118.275 190.649 117.549 191.113 116.686C191.577 115.823 191.805 114.853 191.774 113.873C191.774 112.225 191.254 110.974 190.213 110.119C189.172 109.264 187.661 108.839 185.68 108.844H182.605C180.796 108.844 179.892 108.487 179.892 107.775C179.907 107.515 179.983 107.262 180.115 107.037C180.247 106.812 180.431 106.622 180.651 106.482L181.378 106.565L182.267 106.613C184.671 106.613 186.549 106.072 187.9 104.99C189.251 103.907 189.93 102.394 189.937 100.45C189.949 99.4882 189.68 98.544 189.162 97.7336L191.988 97.0062V94.5002H185.694H185.704ZM158.568 102.746C160.25 97.3038 161.27 93.8923 161.626 92.5112C161.712 92.8972 161.853 93.4247 162.053 94.0968C162.253 94.769 163.146 97.6474 164.732 102.746H158.568ZM173.046 112.577L164.67 88.84H158.534L150.192 112.577H155.59L157.313 106.951H165.931L167.655 112.577H173.046Z" fill="black"/>
<path d="M353.838 71.8697C353.63 71.671 353.469 71.4283 353.367 71.1592C353.265 70.8902 353.225 70.6018 353.249 70.3151V61.6007H358.309V57.8985H353.249V54.0515H350.094L348.671 57.864L345.954 59.5152V61.5835H348.312V70.2978C348.312 72.2949 348.763 73.7886 349.664 74.7791C350.564 75.7696 352.001 76.2671 353.972 76.2717C355.522 76.3182 357.065 76.0375 358.499 75.4478V71.7973C357.498 72.1376 356.452 72.3281 355.396 72.3627C354.834 72.396 354.279 72.2204 353.838 71.8697M343.366 64.1895C343.366 62.0454 342.822 60.4045 341.735 59.267C340.648 58.1294 339.052 57.5607 336.947 57.5607C335.815 57.5409 334.692 57.7704 333.659 58.2328C332.722 58.6523 331.931 59.3411 331.387 60.2115H331.115L330.453 57.8985H326.685V75.9787H331.614V67.4746C331.614 65.3397 331.921 63.8115 332.535 62.8899C333.148 61.9684 334.146 61.5088 335.527 61.5111C336.54 61.5111 337.278 61.8351 337.743 62.4901C338.209 63.145 338.433 64.1206 338.433 65.4236V75.9821H343.362V64.1929L343.366 64.1895ZM319.236 75.9821C320.192 75.7783 321.118 75.4552 321.993 75.0204V71.2044C321.021 71.6717 320.002 72.0356 318.953 72.2903C317.935 72.5232 316.895 72.6388 315.851 72.635C314.451 72.635 313.363 72.242 312.586 71.4561C311.809 70.6701 311.395 69.5751 311.342 68.1709H322.997V65.7786C322.997 63.2117 322.285 61.2008 320.863 59.7461C319.44 58.2915 317.45 57.5641 314.892 57.5641C312.222 57.5641 310.128 58.3914 308.612 60.046C307.095 61.7007 306.338 64.0424 306.34 67.0713C306.34 70.0152 307.159 72.2903 308.798 73.8966C310.436 75.503 312.711 76.3073 315.623 76.3096C316.828 76.33 318.032 76.2237 319.215 75.9925M317.419 62.073C318.033 62.7348 318.35 63.6793 318.374 64.8962H311.473C311.555 63.6793 311.897 62.7348 312.49 62.073C312.802 61.7375 313.183 61.4748 313.608 61.3032C314.033 61.1317 314.49 61.0555 314.947 61.0802C315.41 61.0561 315.872 61.1323 316.302 61.3037C316.733 61.475 317.121 61.7375 317.44 62.073M291.628 66.9058C291.628 65.0306 291.926 63.6609 292.524 62.7969C293.121 61.9328 294.025 61.5019 295.233 61.5042C296.171 61.5042 296.857 61.8282 297.302 62.4832C297.746 63.1381 297.957 64.1137 297.957 65.4167V75.9753H302.903V64.1895C302.903 61.873 302.378 60.1885 301.328 59.136C300.278 58.0835 298.728 57.5584 296.678 57.5607C295.575 57.5396 294.482 57.7757 293.486 58.2501C292.589 58.6678 291.842 59.3498 291.345 60.2046H290.907C289.949 58.4374 288.116 57.5538 285.409 57.5538C284.318 57.5283 283.236 57.7647 282.255 58.2432C281.38 58.6747 280.649 59.3514 280.152 60.1908H279.88L279.218 57.8985H275.454V75.9787H280.383V67.4746C280.383 65.3512 280.669 63.8264 281.241 62.9003C281.814 61.9741 282.733 61.5145 283.999 61.5214C284.937 61.5214 285.623 61.8454 286.067 62.5004C286.512 63.1554 286.722 64.1309 286.722 65.4339V75.9925H291.628V66.9058ZM270.986 64.1895C270.986 62.0454 270.443 60.4045 269.356 59.267C268.269 58.1294 266.673 57.5607 264.568 57.5607C263.434 57.5413 262.311 57.7707 261.276 58.2328C260.34 58.6541 259.55 59.3425 259.004 60.2115H258.732L258.07 57.8985H254.309V75.9787H259.242V67.4746C259.242 65.3397 259.549 63.8115 260.162 62.8899C260.776 61.9684 261.773 61.5088 263.154 61.5111C264.168 61.5111 264.905 61.8351 265.371 62.4901C265.836 63.145 266.06 64.1206 266.06 65.4236V75.9821H270.99L270.986 64.1895ZM249.69 61.9282C249.021 60.5616 247.955 59.4287 246.632 58.6775C245.228 57.9037 243.644 57.5137 242.041 57.5469C239.248 57.5469 237.082 58.3661 235.543 60.0047C234.003 61.6432 233.232 63.9413 233.23 66.899C233.191 68.6201 233.557 70.3264 234.298 71.8801C234.964 73.2547 236.03 74.3961 237.356 75.1548C238.759 75.9334 240.343 76.3259 241.948 76.2924C244.719 76.2924 246.88 75.4628 248.432 73.8036C249.983 72.1443 250.76 69.8463 250.762 66.9093C250.797 65.1937 250.43 63.4937 249.69 61.9454M239.128 62.8727C239.71 61.9868 240.658 61.5387 241.972 61.5387C243.285 61.5387 244.254 61.9868 244.833 62.883C245.412 63.7793 245.705 65.1202 245.705 66.9093C245.705 68.6984 245.415 70.0634 244.84 70.9735C244.264 71.8835 243.319 72.3523 242.003 72.3523C240.686 72.3523 239.721 71.8973 239.135 70.9735C238.549 70.0496 238.256 68.7018 238.256 66.9162C238.256 65.1306 238.549 63.769 239.128 62.8796M226.79 58.481C225.841 59.0966 225.061 59.9389 224.519 60.932H224.277L223.55 57.8881H219.813V75.9684H224.753V66.7748C224.753 65.3202 225.193 64.1883 226.073 63.3794C226.954 62.5705 228.18 62.166 229.752 62.166C230.241 62.1574 230.73 62.2118 231.206 62.328L231.579 57.702C231.03 57.594 230.472 57.5455 229.914 57.5572C228.811 57.5584 227.732 57.8819 226.811 58.4879M215.284 57.8985H210.355V75.9787H215.284V57.8985ZM212.826 55.6509C213.722 55.6509 214.391 55.4372 214.839 55.0132C215.073 54.7802 215.256 54.5004 215.375 54.1922C215.493 53.8839 215.546 53.5541 215.529 53.2242C215.529 51.6155 214.635 50.8112 212.847 50.8112C211.059 50.8112 210.164 51.6155 210.161 53.2242C210.161 54.8328 211.055 55.6372 212.843 55.6372M201.123 75.9753L208.017 57.895H202.847L199.372 68.1951C198.985 69.3965 198.74 70.639 198.641 71.8973H198.545C198.429 70.6416 198.186 69.401 197.817 68.1951L194.294 57.895H189.124L196.018 75.9753H201.123ZM187.593 64.1895C187.593 62.0454 187.05 60.4045 185.963 59.267C184.876 58.1294 183.281 57.5607 181.178 57.5607C180.045 57.5406 178.921 57.7701 177.886 58.2328C176.949 58.6523 176.158 59.3411 175.614 60.2115H175.339L174.677 57.8985H170.871V75.9787H175.804V67.4746C175.804 65.3397 176.111 63.8115 176.724 62.8899C177.338 61.9684 178.335 61.5088 179.716 61.5111C180.73 61.5111 181.471 61.8351 181.933 62.4901C182.395 63.145 182.622 64.1206 182.622 65.4236V75.9821H187.552L187.593 64.1895ZM166.817 71.8352H158.199V65.7373H166.204V61.6317H158.179V56.4403H166.797V52.3314H153.167V75.9718H166.779L166.817 71.8352Z" fill="black"/>
<path d="M302.152 27.5878C302.152 25.4437 301.608 23.8029 300.521 22.6653C299.434 21.5278 297.838 20.959 295.733 20.959C294.6 20.9396 293.476 21.169 292.441 21.6312C291.505 22.0524 290.715 22.7408 290.169 23.6098H289.904L289.242 21.2968H285.464V39.377H290.397V30.8695C290.397 28.7369 290.704 27.2086 291.317 26.2848C291.931 25.361 292.928 24.9014 294.309 24.906C295.323 24.906 296.061 25.23 296.526 25.8849C296.991 26.5399 297.215 27.5154 297.215 28.8184V39.377H302.145L302.152 27.5878ZM276.116 32.4862C276.137 32.9711 276.056 33.4551 275.878 33.9065C275.7 34.358 275.428 34.7668 275.081 35.106C274.712 35.4429 274.28 35.7034 273.81 35.8726C273.339 36.0418 272.84 36.1163 272.341 36.0919C270.744 36.0919 269.946 35.3967 269.949 34.0064C269.921 33.5849 270.004 33.1635 270.188 32.7835C270.372 32.4034 270.652 32.0777 271 31.8381C271.689 31.3624 272.757 31.1039 274.202 31.0625L276.112 30.997V32.4862H276.116ZM281.014 39.3805V27.3293C281.014 25.1714 280.367 23.5627 279.073 22.5033C277.779 21.4439 275.92 20.9165 273.496 20.9211C271.09 20.8914 268.713 21.4512 266.574 22.5516L268.208 25.8815C270.159 25.0082 271.857 24.5716 273.303 24.5716C275.178 24.5716 276.116 25.4908 276.116 27.3293V28.1221L272.979 28.2221C270.274 28.3186 268.25 28.8219 266.908 29.7319C265.566 30.642 264.895 32.0565 264.895 33.9754C264.895 35.8138 265.394 37.226 266.391 38.2119C267.388 39.1978 268.755 39.693 270.49 39.6976C271.669 39.7428 272.844 39.536 273.937 39.0909C274.95 38.5755 275.828 37.8307 276.502 36.9158H276.629L277.584 39.3736H281.031L281.014 39.3805ZM258.763 39.3805C259.719 39.1766 260.645 38.8535 261.52 38.4187V34.6062C260.548 35.0734 259.529 35.4374 258.48 35.692C257.462 35.9249 256.421 36.0406 255.378 36.0367C253.978 36.0367 252.89 35.6438 252.113 34.8578C251.336 34.0719 250.92 32.9768 250.865 31.5727H262.523V29.1804C262.523 26.6134 261.812 24.6026 260.39 23.1479C258.967 21.6932 256.978 20.9659 254.423 20.9659C251.752 20.9659 249.659 21.7932 248.142 23.4478C246.625 25.1024 245.868 27.4442 245.87 30.4731C245.87 33.4169 246.69 35.692 248.328 37.2984C249.967 38.9048 252.242 39.7091 255.153 39.7114C256.357 39.7282 257.56 39.6219 258.742 39.3943M256.946 25.4713C257.56 26.1331 257.877 27.0776 257.897 28.2945H251.007C251.093 27.0776 251.434 26.1331 252.041 25.4713C252.353 25.1359 252.734 24.8731 253.159 24.7015C253.584 24.53 254.041 24.4538 254.499 24.4785C254.961 24.456 255.423 24.5329 255.852 24.7042C256.282 24.8755 256.671 25.1371 256.991 25.4713M237.363 26.2469C237.907 27.1362 238.18 28.4703 238.18 30.249C238.18 33.8915 237.076 35.7139 234.867 35.7162C233.617 35.7162 232.703 35.2968 232.127 34.458C231.55 33.6192 231.261 32.2288 231.261 30.2869V29.7526C231.282 28.0291 231.573 26.7927 232.133 26.0435C232.694 25.2943 233.584 24.9197 234.802 24.9197C235.309 24.883 235.817 24.9875 236.27 25.2217C236.722 25.456 237.1 25.8108 237.363 26.2469M239.921 38.5842C241.024 37.7583 241.862 36.6286 242.334 35.3335C242.931 33.7268 243.219 32.0214 243.182 30.3076C243.182 27.373 242.577 25.0818 241.368 23.434C240.805 22.6373 240.051 21.9939 239.176 21.5623C238.301 21.1307 237.331 20.9245 236.356 20.9624C234.09 20.9624 232.382 21.8564 231.23 23.6443H231.003L230.313 21.3002H226.311V47.333H231.241V40.0078C231.241 39.77 231.155 38.8944 230.982 37.388H231.241C232.447 38.9323 234.113 39.7034 236.239 39.7011C237.556 39.7273 238.847 39.3364 239.927 38.5842M221.692 25.3403C221.023 23.9737 219.958 22.8408 218.635 22.0896C217.23 21.3149 215.646 20.9249 214.043 20.959C211.251 20.959 209.084 21.7783 207.542 23.4168C206 25.0553 205.229 27.3534 205.229 30.3111C205.191 32.0321 205.557 33.7379 206.297 35.2922C206.964 36.6662 208.03 37.8073 209.355 38.5669C210.758 39.345 212.342 39.7375 213.946 39.7045C216.718 39.7045 218.879 38.8749 220.43 37.2157C221.982 35.5564 222.758 33.2584 222.761 30.3214C222.798 28.606 222.432 26.9058 221.692 25.3575M211.134 26.2848C211.716 25.3989 212.664 24.9508 213.981 24.9508C215.298 24.9508 216.259 25.3989 216.842 26.2951C217.425 27.1914 217.718 28.5323 217.718 30.3214C217.718 32.1105 217.428 33.4755 216.852 34.3856C216.277 35.2956 215.329 35.7644 214.015 35.7644C212.702 35.7644 211.733 35.3094 211.144 34.3856C210.554 33.4617 210.275 32.0898 210.275 30.3042C210.275 28.5185 210.561 27.1604 211.144 26.2676M198.803 21.8897C197.848 22.5069 197.063 23.3545 196.521 24.3544H196.276L195.549 21.3106H191.812V39.3908H196.742V30.1766C196.742 28.7219 197.182 27.5901 198.062 26.7812C198.942 25.9723 200.168 25.5678 201.74 25.5678C202.23 25.5587 202.719 25.6132 203.195 25.7298L203.567 21.1038C203.019 20.9956 202.461 20.9471 201.902 20.959C200.799 20.9567 199.72 21.2805 198.8 21.8897M187.293 39.3736V21.2934H182.353V29.7974C182.353 31.9301 182.047 33.4583 181.433 34.3821C180.819 35.306 179.822 35.7656 178.441 35.761C177.427 35.761 176.69 35.4358 176.228 34.7854C175.766 34.1305 175.538 33.1549 175.538 31.8485V21.2934H170.599V33.0826C170.599 35.2152 171.138 36.8503 172.215 37.9878C173.293 39.1254 174.894 39.6942 177.017 39.6942C178.16 39.7141 179.293 39.4786 180.333 39.0047C181.256 38.5881 182.037 37.9112 182.581 37.0571H182.839L183.501 39.3701H187.293V39.3736ZM166.786 35.237H158.168V29.139H166.173V25.0438H158.179V19.8421H166.797V15.7366H153.167V39.377H166.779L166.786 35.237Z" fill="black"/>
</g>
<defs>
<clipPath id="clip0_1133_25397">
<rect width="358.499" height="125" fill="white" transform="translate(0 0.810478)"/>
</clipPath>
</defs>
</svg>