<svg width="310" height="110" viewBox="0 0 310 110" fill="none" xmlns="http://www.w3.org/2000/svg">
<path d="M33.4879 85.2012L32.0528 80.7738L30.6178 85.2012H25.9214L29.7047 87.8472L28.2957 92.406L32.0528 89.5501L35.8361 92.4322L34.4011 87.9524L38.0278 85.2012H33.4879Z" fill="#F4CF00"/>
<path d="M52.2475 90.1528L50.8128 85.8301L49.3776 90.1528L44.7073 90.2837L48.4905 92.9035L47.0555 97.3309L50.8128 94.5802L54.5957 97.4618L53.161 92.982L56.7615 90.1528H52.2475Z" fill="#F4CF00"/>
<path d="M70.9026 85.2012L69.5984 80.7738L68.0589 85.2012H63.4668L67.1454 87.8472L65.7107 92.3798L69.5722 89.5501L73.4075 92.4322L71.8161 87.9524L75.4428 85.2012H70.9026Z" fill="#F4CF00"/>
<path d="M19.7639 71.421L18.4594 67.0983L16.8939 71.421H12.354L15.9807 74.1455L14.5718 78.5729L18.4333 75.8484L22.2426 78.7562L20.651 74.2502L24.2777 71.421H19.7639Z" fill="#F4CF00"/>
<path d="M13.3976 57.0119L17.207 59.9201L15.6415 55.4141L19.2421 52.5846H14.7283L13.4237 48.2618L11.8582 52.5846L7.31836 52.7155L10.945 55.309L9.53612 59.7368L13.3976 57.0119Z" fill="#F4CF00"/>
<path d="M32.0529 15.8546L30.6179 20.1773H25.9475L29.7047 22.9019L28.2696 27.3818L32.0529 24.5L35.8361 27.3818L34.4011 22.9019L38.0278 20.1773H33.4879L32.0529 15.8546Z" fill="#F4CF00"/>
<path d="M18.4594 29.53L16.8939 33.8528H12.354L15.9807 36.5774L14.5457 41.0311L18.4333 38.1754L22.2426 41.0834L20.651 36.5774L24.3038 33.8528H19.7639L18.4594 29.53Z" fill="#F4CF00"/>
<path d="M50.8128 10.5887L49.3776 14.9114L44.7073 15.0424L48.4905 17.6361L47.0555 22.0636L50.8128 19.3389L54.5957 22.2208L53.161 17.7409L56.7615 14.8852H52.2475L50.8128 10.5887Z" fill="#F4CF00"/>
<path d="M69.5981 15.8546L68.0591 20.1773H63.4932L67.1456 22.9019L65.7109 27.3556L69.5724 24.5L73.4077 27.408L71.8163 22.9019L75.4429 20.1773H70.9028L69.5981 15.8546Z" fill="#F4CF00"/>
<path d="M167.649 66.3647C166.449 66.3647 165.249 66.1291 164.153 65.6311C163.109 65.1598 162.17 64.4785 161.387 63.614C160.605 62.7233 159.978 61.6754 159.587 60.5486C159.144 59.3175 158.935 58.034 158.935 56.7239C158.935 55.4404 159.117 54.1565 159.535 52.9515C159.9 51.8248 160.474 50.8031 161.231 49.8862C161.935 49.0478 162.822 48.3405 163.814 47.8689C164.831 47.3711 165.953 47.1092 167.101 47.1353C168.327 47.1353 169.528 47.4235 170.598 48.0523C171.615 48.6286 172.45 49.4932 172.998 50.5149V40.2452H178.634V59.6579C178.608 60.0773 178.686 60.4701 178.895 60.8371C179.129 61.0989 179.468 61.2299 179.834 61.2561V66.0243C179.39 66.1291 178.947 66.2076 178.503 66.26C178.138 66.2862 177.773 66.3124 177.459 66.3124C176.624 66.3647 175.79 66.1552 175.059 65.7097C174.459 65.3169 174.068 64.6618 174.016 63.9282L173.911 62.9851C173.311 64.0858 172.372 64.9765 171.25 65.5526C170.154 66.1029 168.928 66.3909 167.675 66.3909L167.649 66.3647ZM169.162 61.5969C169.945 61.5969 170.728 61.3608 171.38 60.9157C172.085 60.4701 172.659 59.8154 173.024 59.0295V55.1519C172.685 54.235 172.085 53.4229 171.328 52.8464C170.624 52.2702 169.763 51.9558 168.876 51.9558C168.301 51.9558 167.727 52.0868 167.206 52.3488C166.71 52.6108 166.266 52.9777 165.901 53.4229C165.51 53.8946 165.223 54.4183 165.04 54.9686C164.831 55.5713 164.727 56.1998 164.727 56.8286C164.727 57.4837 164.831 58.1126 165.066 58.741C165.275 59.2913 165.588 59.8154 165.979 60.2606C166.371 60.68 166.84 61.0204 167.388 61.2561C167.936 61.4922 168.536 61.6231 169.162 61.5969Z" fill="#00A390"/>
<path d="M182.808 45.38V40.2714H188.418V45.38H182.808ZM182.808 66.0243V47.502H188.418V66.0243H182.808Z" fill="#00A390"/>
<path d="M196.689 66.0243L190.166 47.5022H195.958L199.976 61.4922L204.047 47.5022H209.291L202.794 66.0243H196.689Z" fill="#00A390"/>
<path d="M219.232 66.3647C217.797 66.3647 216.388 66.129 215.057 65.6049C213.883 65.1335 212.813 64.4261 211.926 63.5354C211.091 62.6708 210.413 61.6492 209.995 60.5224C209.552 59.3698 209.317 58.1644 209.317 56.9333C209.317 55.6498 209.526 54.3659 209.995 53.1347C210.413 51.9818 211.091 50.9077 211.926 50.017C212.813 49.1001 213.857 48.3665 215.031 47.8949C216.361 47.3448 217.797 47.0828 219.232 47.109C220.667 47.109 222.076 47.3448 223.406 47.8949C224.58 48.3665 225.624 49.1001 226.485 49.9908C227.32 50.8553 227.972 51.9032 228.39 53.0296C228.833 54.1826 229.042 55.4137 229.042 56.6714C229.042 57.0119 229.042 57.3261 229.016 57.6407C229.016 57.9288 228.964 58.1906 228.911 58.4791H215.292C215.292 59.5793 215.814 60.6009 216.649 61.3084C217.431 61.9372 218.397 62.2776 219.414 62.2776C220.249 62.2776 221.058 62.0682 221.789 61.6754C222.493 61.3345 223.041 60.758 223.302 60.051L228.077 61.3869C227.32 62.8803 226.146 64.1115 224.711 64.9498C223.041 65.9195 221.136 66.3908 219.232 66.3385V66.3647ZM223.146 54.9947C223.093 53.9469 222.623 52.951 221.867 52.1914C221.136 51.5103 220.171 51.1435 219.154 51.1697C218.136 51.1435 217.171 51.5103 216.44 52.2176C215.709 52.951 215.266 53.9469 215.187 54.9947H223.119H223.146Z" fill="#00A390"/>
<path d="M243.158 52.3225C241.905 52.3225 240.653 52.5583 239.453 53.0038C238.461 53.3442 237.626 54.0255 237.052 54.9162V66.0243H231.443V47.4758H236.609V51.2222C237.183 50.0694 238.018 49.0477 239.061 48.288C239.974 47.6068 241.097 47.2138 242.244 47.1876H242.818C242.818 47.1876 243.053 47.1876 243.184 47.2139V52.2963L243.158 52.3225Z" fill="#00A390"/>
<path d="M252.629 66.3647C251.063 66.3647 249.498 66.1029 247.985 65.6049C246.549 65.1598 245.245 64.4 244.123 63.4045L246.132 59.9464C247.15 60.6795 248.245 61.2822 249.419 61.754C250.385 62.1468 251.428 62.3824 252.498 62.3824C253.098 62.4086 253.672 62.2777 254.194 61.9897C254.585 61.754 254.82 61.3084 254.794 60.8633C254.794 60.3653 254.507 59.8936 254.038 59.6841C253.203 59.2651 252.289 58.9505 251.376 58.741C250.124 58.4006 249.08 58.0597 248.245 57.7193C247.515 57.4575 246.81 57.0905 246.158 56.6191C245.662 56.2783 245.271 55.7808 245.01 55.2305C244.775 54.654 244.645 54.0255 244.671 53.3967C244.645 51.6413 245.427 49.9646 246.784 48.8381C247.489 48.2618 248.271 47.8426 249.132 47.5544C250.072 47.24 251.063 47.0828 252.055 47.109C253.359 47.109 254.69 47.2924 255.942 47.6854C257.247 48.1046 258.421 48.8119 259.438 49.7289L257.273 53.1086C256.386 52.4797 255.446 51.9557 254.455 51.5103C253.698 51.1959 252.89 51.0388 252.055 51.0126C251.507 51.0126 250.985 51.1173 250.515 51.3793C249.863 51.7723 249.68 52.6369 250.072 53.2657C250.202 53.449 250.359 53.6061 250.568 53.7371C251.376 54.1303 252.237 54.3921 253.124 54.5754C254.246 54.8639 255.368 55.2043 256.438 55.6232C257.221 55.9117 257.951 56.3045 258.63 56.8024C259.151 57.1952 259.569 57.7193 259.856 58.2958C260.117 58.9243 260.247 59.6055 260.247 60.3129C260.3 62.0158 259.543 63.6402 258.212 64.688C256.594 65.8406 254.638 66.4171 252.681 66.3123L252.629 66.3647Z" fill="#00A390"/>
<path d="M262.7 45.38V40.2714H268.335V45.38H262.7ZM262.7 66.0243V47.502H268.335V66.0243H262.7Z" fill="#00A390"/>
<path d="M283.808 65.0288C282.947 65.3954 282.06 65.6835 281.147 65.9457C280.181 66.2338 279.164 66.3647 278.146 66.3647C277.468 66.3647 276.815 66.2861 276.163 66.1028C275.563 65.9457 275.015 65.6573 274.519 65.2645C274.024 64.8455 273.658 64.3214 273.424 63.7187C273.136 62.9851 273.006 62.1991 273.032 61.4131V51.7462H270.684V47.4759H273.032V41.5813H278.668V47.4759H282.425V51.7462H278.668V59.4746C278.615 59.9463 278.798 60.4439 279.111 60.7847C279.425 61.0727 279.842 61.2037 280.259 61.2037C280.703 61.2037 281.147 61.1251 281.564 60.9942C281.955 60.8633 282.347 60.7061 282.712 60.5486L283.808 65.055V65.0288Z" fill="#00A390"/>
<path d="M285.921 68.8012C286.339 68.9583 286.782 69.0635 287.226 69.1682C287.591 69.2206 287.956 69.273 288.347 69.273C288.948 69.2992 289.548 69.0373 289.939 68.5656C290.435 67.8058 290.774 66.9412 290.957 66.0243L283.938 47.5022H289.731L294.009 61.2037L297.688 47.5022H302.959L295.94 69.0373C294.975 72.1546 292.053 74.2769 288.817 74.1983C288.347 74.1983 287.852 74.1456 287.382 74.067C286.887 73.9884 286.391 73.8313 285.921 73.648V68.8274V68.8012Z" fill="#00A390"/>
<path d="M160.422 81.7693V73.0192H161.518V81.7693H160.422Z" fill="#666666"/>
<path d="M169.502 81.7692H168.432V78.1802C168.458 77.656 168.354 77.1323 168.119 76.6868C167.91 76.3725 167.545 76.1888 167.18 76.215C166.945 76.215 166.736 76.2678 166.528 76.3464C166.293 76.4249 166.084 76.5558 165.901 76.6868C165.693 76.8439 165.536 77.001 165.379 77.2109C165.223 77.4204 165.119 77.656 165.04 77.8917V81.7692H163.97V75.3505H164.962V76.7391C165.223 76.294 165.614 75.9008 166.058 75.6651C166.528 75.4028 167.075 75.2457 167.623 75.2457C167.936 75.2457 168.249 75.2981 168.536 75.4556C168.771 75.5866 168.98 75.796 169.11 76.0317C169.267 76.294 169.371 76.582 169.424 76.8962C169.475 77.2371 169.528 77.6037 169.528 77.9703V81.7954L169.502 81.7692Z" fill="#666666"/>
<path d="M171.902 81.7693V76.1893H171.041V75.3509H171.902V75.22C171.876 74.5649 172.058 73.8837 172.424 73.3334C172.763 72.8882 173.311 72.6264 173.859 72.6526C174.12 72.6526 174.355 72.6787 174.616 72.7573C174.851 72.8358 175.059 72.9144 175.268 73.0453L175.007 73.8313C175.007 73.8313 174.746 73.6742 174.59 73.6218C174.433 73.5695 174.25 73.5433 174.094 73.5433C173.781 73.5433 173.467 73.6742 173.285 73.9622C173.076 74.3288 172.972 74.722 172.998 75.141V75.3247H174.694V76.1631H172.998V81.7431H171.928L171.902 81.7693Z" fill="#666666"/>
<path d="M178.868 81.9001C177.981 81.9001 177.146 81.5336 176.546 80.9047C176.26 80.5905 176.05 80.2496 175.894 79.8569C175.581 79.0447 175.581 78.1278 175.894 77.3156C176.05 76.9224 176.26 76.582 176.546 76.2674C177.773 74.9839 179.808 74.9315 181.086 76.1364C181.138 76.1888 181.165 76.215 181.217 76.2674C181.504 76.582 181.712 76.9224 181.869 77.3156C182.182 78.1278 182.182 79.0447 181.869 79.8569C181.556 80.6428 180.956 81.2975 180.173 81.6383C179.756 81.8216 179.312 81.9263 178.868 81.9001ZM176.755 78.5991C176.755 78.9138 176.807 79.228 176.912 79.5422C177.016 79.8307 177.173 80.0663 177.355 80.302C177.538 80.5115 177.773 80.6952 178.033 80.7999C178.555 81.0356 179.156 81.0356 179.703 80.7999C179.964 80.669 180.199 80.4853 180.382 80.2758C180.591 80.0402 180.747 79.8045 180.851 79.516C180.956 79.2018 181.008 78.8876 181.008 78.5729C181.008 78.2587 180.956 77.9441 180.851 77.656C180.747 77.368 180.591 77.1057 180.382 76.8962C180.199 76.6867 179.964 76.5034 179.703 76.3725C179.442 76.2412 179.156 76.1888 178.868 76.1888C178.582 76.1888 178.294 76.2412 178.033 76.3725C177.773 76.5034 177.538 76.6867 177.355 76.8962C177.173 77.1319 177.016 77.368 176.912 77.656C176.807 77.9702 176.755 78.2849 176.755 78.6253V78.5991Z" fill="#666666"/>
<path d="M187.348 76.2936C186.852 76.2936 186.356 76.4511 185.913 76.7129C185.496 76.9748 185.209 77.3418 185.026 77.8132V81.7692H183.956V75.3505H184.948V76.8439C185.157 76.4249 185.443 76.0579 185.809 75.7699C186.148 75.508 186.539 75.3505 186.957 75.2981H187.166C187.166 75.2981 187.27 75.2981 187.322 75.2981V76.2936H187.348Z" fill="#666666"/>
<path d="M198.541 81.7692H197.472V78.1802C197.498 77.656 197.393 77.1319 197.158 76.6868C196.95 76.3725 196.585 76.1888 196.193 76.215C195.75 76.215 195.332 76.3725 195.019 76.6868C194.654 77.0272 194.419 77.4466 194.289 77.9179V81.7954H193.219V78.2064C193.271 77.6822 193.141 77.1585 192.906 76.7129C192.697 76.3987 192.332 76.215 191.94 76.2412C191.497 76.2412 191.079 76.3987 190.766 76.7129C190.401 77.0272 190.14 77.4727 190.009 77.9441V81.8216H188.94V75.4028H189.931V76.7915C190.166 76.3464 190.532 75.9532 190.949 75.6913C191.366 75.429 191.862 75.2981 192.358 75.2981C192.827 75.2981 193.271 75.429 193.636 75.7437C193.95 76.0317 194.158 76.4511 194.21 76.8701C194.654 75.9008 195.593 75.2981 196.637 75.2981C196.95 75.2981 197.289 75.3505 197.576 75.508C197.811 75.6389 198.02 75.8484 198.176 76.0841C198.333 76.3464 198.437 76.6344 198.489 76.9486C198.567 77.2894 198.594 77.656 198.594 78.0231V81.874L198.541 81.7692Z" fill="#666666"/>
<path d="M202.377 81.9002C202.09 81.9002 201.803 81.8478 201.542 81.7431C201.281 81.6383 201.046 81.5074 200.864 81.3237C200.681 81.1404 200.524 80.9309 200.42 80.6952C200.315 80.4591 200.263 80.1711 200.263 79.9092C200.263 79.6208 200.315 79.3589 200.446 79.0971C200.576 78.8614 200.785 78.6253 200.994 78.4682C201.255 78.2849 201.542 78.154 201.855 78.0754C202.22 77.9707 202.585 77.9179 202.951 77.9179C203.264 77.9179 203.577 77.9441 203.89 77.9969C204.177 78.0492 204.464 78.1278 204.725 78.2325V77.7084C204.803 76.8701 204.177 76.1103 203.342 76.0317C203.238 76.0317 203.133 76.0317 203.029 76.0317C202.298 76.0579 201.568 76.3202 200.994 76.7915L200.629 76.0841C201.359 75.5604 202.22 75.2719 203.107 75.2457C203.838 75.1934 204.542 75.4556 205.064 75.927C205.56 76.4249 205.821 77.1323 205.769 77.8393V80.4591C205.769 80.7214 205.873 80.8523 206.108 80.8523V81.7954H205.821C205.821 81.7954 205.664 81.8478 205.586 81.8216C205.403 81.8216 205.195 81.7693 205.064 81.6383C204.934 81.5074 204.856 81.3499 204.829 81.1666V80.7214C204.516 81.1142 204.151 81.4027 203.707 81.6121C203.264 81.8216 202.794 81.9264 202.324 81.9264L202.377 81.9002ZM202.664 81.088C203.029 81.088 203.394 81.0095 203.733 80.8785C204.047 80.7738 204.307 80.5643 204.49 80.302C204.621 80.1711 204.725 80.014 204.725 79.8307V78.8876C204.203 78.6777 203.655 78.573 203.107 78.573C202.638 78.573 202.194 78.6777 201.803 78.9138C201.489 79.0971 201.307 79.4375 201.307 79.8045C201.307 80.1449 201.438 80.4853 201.699 80.7214C201.829 80.8262 201.985 80.9309 202.142 80.9833C202.324 81.0618 202.507 81.088 202.69 81.088H202.664Z" fill="#666666"/>
<path d="M211.222 81.455C211.222 81.455 211.065 81.5336 210.961 81.586C210.856 81.6383 210.726 81.6645 210.596 81.7169C210.439 81.7693 210.308 81.7954 210.152 81.8216C209.996 81.8478 209.813 81.874 209.656 81.874C209.291 81.874 208.926 81.7693 208.639 81.5598C208.352 81.3237 208.169 80.9309 208.221 80.5377V76.215H207.36V75.3767H208.221V73.2286H209.291V75.3767H210.726V76.215H209.291V80.1973C209.291 80.4068 209.369 80.5905 209.526 80.7214C209.656 80.8262 209.839 80.8785 210.022 80.8785C210.23 80.8785 210.413 80.8524 210.596 80.7738C210.726 80.7214 210.831 80.6691 210.961 80.6167L211.222 81.4812V81.455Z" fill="#666666"/>
<path d="M212.735 74.1455V72.7834H213.805V74.1455H212.735ZM212.735 81.7692V75.3509H213.805V81.7692H212.735Z" fill="#666666"/>
<path d="M218.893 81.9001C218.005 81.9001 217.171 81.5335 216.544 80.9046C216.257 80.5904 216.049 80.2496 215.892 79.8568C215.579 79.0446 215.579 78.1277 215.892 77.3156C216.049 76.9224 216.257 76.582 216.544 76.2673C216.832 75.9531 217.171 75.7174 217.562 75.5341C217.979 75.3504 218.423 75.2719 218.866 75.2719C219.754 75.2719 220.614 75.6127 221.215 76.2673C221.502 76.582 221.71 76.9224 221.867 77.3156C222.18 78.1277 222.18 79.0446 221.867 79.8568C221.71 80.2496 221.502 80.5904 221.215 80.9046C220.928 81.2189 220.563 81.455 220.197 81.6383C219.78 81.8216 219.336 81.9263 218.893 81.9001ZM216.779 78.5729C216.779 78.8875 216.831 79.2018 216.936 79.516C217.04 79.8044 217.196 80.0401 217.379 80.2758C217.562 80.4853 217.797 80.669 218.058 80.7737C218.58 81.0094 219.179 81.0094 219.701 80.7737C219.962 80.6428 220.197 80.4591 220.38 80.2496C220.588 80.0139 220.745 79.7783 220.849 79.4898C220.954 79.1756 221.006 78.8613 221.006 78.5467C221.006 78.2325 220.954 77.9178 220.849 77.6298C220.745 77.3418 220.588 77.0795 220.38 76.87C220.197 76.6605 219.962 76.4772 219.701 76.3463C219.44 76.2149 219.154 76.1626 218.866 76.1626C218.58 76.1626 218.292 76.2149 218.031 76.3463C217.77 76.4772 217.536 76.6605 217.353 76.87C217.171 77.1057 217.014 77.3418 216.91 77.6298C216.805 77.944 216.727 78.2587 216.753 78.5991L216.779 78.5729Z" fill="#666666"/>
<path d="M229.512 81.7692H228.442V78.1802C228.468 77.656 228.364 77.1323 228.129 76.6868C227.92 76.3725 227.555 76.1888 227.19 76.215C226.955 76.215 226.746 76.2678 226.538 76.3464C226.303 76.4249 226.094 76.5558 225.911 76.6868C225.703 76.8439 225.546 77.001 225.389 77.2109C225.233 77.4204 225.129 77.656 225.05 77.8917V81.7692H223.98V75.3505H224.972V76.7391C225.233 76.294 225.598 75.9008 226.068 75.6651C226.538 75.4028 227.085 75.2457 227.633 75.2457C227.946 75.2457 228.259 75.2981 228.547 75.4556C228.781 75.5866 228.99 75.796 229.146 76.0317C229.303 76.294 229.407 76.582 229.46 76.8962C229.512 77.2371 229.564 77.6037 229.564 77.9703V81.8216L229.512 81.7692Z" fill="#666666"/>
<path d="M240.079 74.853C240.079 74.853 239.844 74.6173 239.688 74.5126C239.505 74.4078 239.322 74.3027 239.139 74.2241C238.931 74.1456 238.696 74.067 238.461 74.0146C238.226 73.9623 237.965 73.9361 237.704 73.9361C237.183 73.8837 236.661 74.0146 236.217 74.3289C235.904 74.5911 235.721 74.9839 235.748 75.3771C235.748 75.5866 235.8 75.7961 235.878 75.9794C235.982 76.1369 236.139 76.294 236.296 76.3726C236.531 76.5035 236.765 76.5821 237.026 76.6606C237.313 76.7392 237.652 76.8177 238.044 76.9225C238.461 77.0014 238.853 77.1324 239.27 77.2633C239.609 77.368 239.922 77.5251 240.209 77.7346C240.47 77.9183 240.653 78.154 240.809 78.4159C240.94 78.7305 241.018 79.0709 241.018 79.4113C241.018 79.7783 240.94 80.1711 240.783 80.512C240.627 80.8262 240.392 81.088 240.105 81.2718C239.792 81.4812 239.453 81.6383 239.113 81.7169C238.696 81.8216 238.279 81.874 237.861 81.874C237.209 81.874 236.556 81.7693 235.956 81.5598C235.356 81.3503 234.808 81.0357 234.312 80.6429L234.835 79.6998C234.991 79.8569 235.147 79.9878 235.33 80.1188C235.565 80.2759 235.8 80.4072 236.035 80.4858C236.322 80.5905 236.609 80.6953 236.896 80.7476C237.209 80.8262 237.522 80.8524 237.861 80.8524C238.357 80.8786 238.878 80.7738 239.296 80.512C239.635 80.3021 239.844 79.9093 239.818 79.5161C239.818 79.3066 239.766 79.0709 239.661 78.8876C239.531 78.7043 239.374 78.5468 239.192 78.4421C238.957 78.3111 238.67 78.2064 238.409 78.1278C238.096 78.0231 237.731 77.9445 237.339 77.8398C236.948 77.7346 236.556 77.6299 236.165 77.499C235.852 77.3942 235.591 77.2371 235.33 77.0538C235.122 76.8963 234.939 76.6606 234.835 76.4249C234.704 76.1369 234.652 75.8484 234.652 75.5342C234.652 75.141 234.73 74.7744 234.887 74.434C235.043 74.1194 235.252 73.8313 235.539 73.6218C235.826 73.3858 236.165 73.2286 236.53 73.1239C236.948 73.0192 237.365 72.9668 237.783 72.9668C238.331 72.9668 238.853 73.0454 239.374 73.2286C239.844 73.3858 240.262 73.648 240.627 73.9623L240.105 74.8792L240.079 74.853Z" fill="#666666"/>
<path d="M242.766 83.4983C242.766 83.4983 242.975 83.5245 243.079 83.5245H243.314C243.314 83.5245 243.497 83.5245 243.575 83.4459C243.68 83.3674 243.758 83.2888 243.81 83.1841C243.914 83.0004 243.993 82.8171 244.071 82.6338C244.175 82.3981 244.279 82.0835 244.436 81.7169L241.722 75.2981H242.845L245.036 80.7476L247.019 75.2981H248.063L244.932 83.4198C244.801 83.7078 244.618 83.9697 244.358 84.1796C244.044 84.4152 243.653 84.52 243.262 84.4938H243.027C243.027 84.4938 242.845 84.4676 242.74 84.4414V83.4459L242.766 83.4983Z" fill="#666666"/>
<path d="M251.767 81.9002C251.246 81.9002 250.75 81.8216 250.254 81.6645C249.784 81.5336 249.341 81.2975 248.976 80.9571L249.445 80.2235C249.784 80.4853 250.176 80.7214 250.567 80.8785C250.958 81.0356 251.35 81.088 251.767 81.088C252.159 81.088 252.55 81.0094 252.889 80.8261C253.15 80.669 253.307 80.3544 253.307 80.0402C253.307 79.9092 253.281 79.7521 253.202 79.647C253.124 79.516 252.994 79.4375 252.863 79.3589C252.681 79.2542 252.498 79.2018 252.289 79.1494C252.054 79.0971 251.793 79.0185 251.481 78.94C251.089 78.8352 250.75 78.7562 250.489 78.6515C250.254 78.5729 250.019 78.4682 249.811 78.3373C249.654 78.2325 249.498 78.0754 249.419 77.8917C249.341 77.6822 249.289 77.4727 249.289 77.2633C249.289 76.6868 249.524 76.1364 249.993 75.7699C250.228 75.5866 250.489 75.4556 250.776 75.3767C251.089 75.2981 251.402 75.2457 251.742 75.2457C252.211 75.2457 252.655 75.3243 253.098 75.4818C253.49 75.6127 253.829 75.8222 254.142 76.0841L253.646 76.7391C253.385 76.5035 253.072 76.3202 252.733 76.215C252.394 76.0841 252.054 76.0317 251.689 76.0317C251.35 76.0317 250.985 76.1103 250.698 76.294C250.411 76.4773 250.254 76.7653 250.28 77.1057C250.28 77.2371 250.28 77.368 250.358 77.4727C250.411 77.5775 250.515 77.6822 250.619 77.7346C250.776 77.8131 250.933 77.8917 251.089 77.9441C251.272 77.9969 251.507 78.0754 251.767 78.1278C252.185 78.2325 252.55 78.3373 252.889 78.4158C253.176 78.4944 253.437 78.6253 253.672 78.7824C254.09 79.0185 254.325 79.4899 254.298 79.9616C254.298 80.5115 254.064 81.0618 253.62 81.4027C253.072 81.7692 252.446 81.9525 251.793 81.9002H251.767Z" fill="#666666"/>
<path d="M259.438 81.455C259.438 81.455 259.282 81.5336 259.177 81.586C259.073 81.6383 258.943 81.6645 258.812 81.7169C258.656 81.7693 258.525 81.7954 258.369 81.8216C258.212 81.8478 258.029 81.874 257.873 81.874C257.508 81.874 257.143 81.7693 256.855 81.5598C256.569 81.3237 256.386 80.9309 256.438 80.5377V76.215H255.577V75.3767H256.438V73.2286H257.508V75.3767H258.943V76.215H257.508V80.1973C257.508 80.4068 257.586 80.5905 257.743 80.7214C257.873 80.8262 258.056 80.8785 258.238 80.8785C258.447 80.8785 258.63 80.8524 258.812 80.7738C258.943 80.7214 259.047 80.6691 259.177 80.6167L259.438 81.4812V81.455Z" fill="#666666"/>
<path d="M263.639 81.9001C263.196 81.9001 262.726 81.8216 262.309 81.6383C261.917 81.4811 261.552 81.2189 261.265 80.9308C260.978 80.6166 260.743 80.2496 260.586 79.8568C260.43 79.4374 260.352 79.0185 260.352 78.5729C260.352 78.1277 260.43 77.7083 260.586 77.2894C260.743 76.8962 260.978 76.5558 261.265 76.2411C261.552 75.9269 261.917 75.6912 262.309 75.5341C262.726 75.3504 263.169 75.2719 263.639 75.2719C264.97 75.2719 266.144 76.0578 266.614 77.3156C266.77 77.7084 266.848 78.1277 266.848 78.5467V78.7824C266.848 78.7824 266.848 78.8875 266.848 78.9661H261.526C261.526 79.2803 261.63 79.5684 261.734 79.8306C261.969 80.3281 262.361 80.7213 262.883 80.957C263.117 81.0618 263.404 81.1141 263.665 81.1141C263.848 81.1141 264.057 81.0879 264.239 81.0356C264.422 80.9832 264.605 80.9046 264.761 80.8261C264.918 80.7475 265.074 80.6166 265.205 80.4853C265.335 80.3543 265.44 80.1972 265.491 80.0401L266.431 80.302C266.326 80.5376 266.17 80.7737 265.987 80.957C265.805 81.1665 265.596 81.3236 265.361 81.455C265.1 81.6121 264.839 81.7168 264.552 81.7954C264.265 81.8739 263.952 81.9001 263.639 81.9001ZM265.831 78.1277C265.831 77.8393 265.726 77.5512 265.596 77.2894C265.491 77.0533 265.309 76.8176 265.126 76.6343C264.735 76.2673 264.187 76.0578 263.639 76.0578C263.352 76.0578 263.091 76.1102 262.83 76.2149C262.569 76.3201 262.361 76.451 262.152 76.6605C261.969 76.8438 261.787 77.0795 261.682 77.3156C261.552 77.5774 261.499 77.8655 261.474 78.1539H265.805L265.831 78.1277Z" fill="#666666"/>
<path d="M278.276 81.7692H277.206V78.1802C277.233 77.656 277.128 77.1319 276.893 76.6868C276.685 76.3725 276.319 76.1888 275.928 76.215C275.484 76.215 275.067 76.3725 274.754 76.6868C274.389 77.0272 274.128 77.4466 273.997 77.9179V81.7954H272.928V78.2064C272.98 77.6822 272.849 77.1585 272.615 76.7129C272.406 76.3987 272.04 76.215 271.649 76.2412C271.206 76.2412 270.788 76.3987 270.475 76.7129C270.11 77.0272 269.849 77.4727 269.718 77.9441V81.8216H268.648V75.4028H269.64V76.7915C269.875 76.3464 270.214 75.9532 270.658 75.6913C271.075 75.429 271.571 75.2981 272.066 75.2981C272.536 75.2981 273.006 75.429 273.345 75.7437C273.658 76.0317 273.867 76.4511 273.919 76.8701C274.363 75.9008 275.302 75.2981 276.372 75.2981C276.685 75.2981 276.998 75.3505 277.285 75.508C277.52 75.6389 277.728 75.8222 277.885 76.0841C278.041 76.3464 278.146 76.6344 278.198 76.9486C278.276 77.2894 278.302 77.656 278.302 78.0231V81.874L278.276 81.7692Z" fill="#666666"/>
<path d="M160.579 94.8683V89.2883H159.718V88.4499H160.579V88.319C160.527 87.6639 160.709 86.9827 161.101 86.4324C161.44 85.9872 161.987 85.7254 162.536 85.7516C162.796 85.7516 163.031 85.7777 163.292 85.8563C163.527 85.9348 163.736 86.0134 163.945 86.1443L163.684 86.9303C163.684 86.9303 163.423 86.7732 163.266 86.7208C163.11 86.6685 162.927 86.6423 162.77 86.6423C162.457 86.6423 162.144 86.7732 161.962 87.0351C161.753 87.4021 161.648 87.7948 161.674 88.2142V88.3975H163.371V89.2359H161.674V94.8159H160.605L160.579 94.8683Z" fill="#666666"/>
<path d="M167.545 94.9995C166.658 94.9995 165.823 94.6325 165.197 94.004C164.909 93.6894 164.701 93.349 164.545 92.9558C164.231 92.1436 164.231 91.2267 164.545 90.4146C164.701 90.0218 164.909 89.6809 165.197 89.3667C166.423 88.0832 168.458 88.0308 169.736 89.2358C169.789 89.2882 169.815 89.3143 169.867 89.3667C170.154 89.6809 170.363 90.0218 170.519 90.4146C170.832 91.2267 170.832 92.1436 170.519 92.9558C170.206 93.7418 169.606 94.3968 168.823 94.7372C168.406 94.921 167.962 95.0257 167.519 94.9995H167.545ZM165.432 91.6985C165.432 92.0127 165.484 92.3273 165.588 92.6416C165.693 92.9296 165.849 93.1657 166.032 93.4014C166.214 93.6108 166.449 93.7941 166.71 93.8989C167.232 94.135 167.832 94.135 168.38 93.8989C168.641 93.768 168.876 93.5847 169.058 93.3752C169.267 93.1657 169.424 92.9034 169.528 92.6154C169.632 92.3012 169.685 91.9865 169.685 91.6723C169.685 91.3576 169.632 91.0434 169.528 90.7554C169.424 90.4669 169.267 90.2051 169.058 89.9956C168.876 89.7861 168.641 89.6024 168.38 89.4715C168.119 89.3405 167.832 89.2882 167.545 89.2882C167.258 89.2882 166.971 89.3405 166.71 89.4715C166.449 89.6024 166.214 89.7861 166.032 89.9956C165.849 90.2313 165.693 90.4669 165.588 90.7554C165.484 91.0696 165.432 91.3838 165.432 91.7247V91.6985Z" fill="#666666"/>
<path d="M176.025 89.3929C175.529 89.3929 175.033 89.55 174.59 89.8123C174.172 90.0742 173.885 90.4408 173.702 90.9125V94.8686H172.633V88.4498H173.624V89.9432C173.833 89.5239 174.12 89.1573 174.485 88.8688C174.825 88.6069 175.216 88.4498 175.633 88.3975H175.842C175.842 88.3975 175.946 88.3975 175.999 88.3975V89.3929H176.025Z" fill="#666666"/>
<path d="M186.774 93.8727V94.8682H180.851V86.118H186.644V87.1135H181.947V89.9428H186.044V90.8601H181.947V93.8727H186.774Z" fill="#666666"/>
<path d="M190.401 94.9995C189.801 95.0257 189.253 94.7896 188.888 94.3183C188.496 93.7156 188.314 93.0082 188.366 92.3008V88.4498H189.435V92.0913C189.435 93.4014 189.879 94.0564 190.792 94.0564C191.236 94.0564 191.679 93.8989 192.045 93.637C192.436 93.349 192.749 92.9296 192.906 92.4845V88.4498H193.976V93.5323C193.976 93.7942 194.08 93.9251 194.315 93.9251V94.8682H193.819C193.636 94.8944 193.454 94.842 193.297 94.7111C193.166 94.5801 193.088 94.423 193.062 94.2397V93.4799C192.775 93.9513 192.384 94.3183 191.914 94.5801C191.444 94.842 190.923 94.9733 190.375 94.9733L190.401 94.9995Z" fill="#666666"/>
<path d="M199.715 89.3929C199.22 89.3929 198.724 89.55 198.281 89.8123C197.863 90.0742 197.576 90.4408 197.393 90.9125V94.8686H196.323V88.4498H197.315V89.9432C197.524 89.5239 197.811 89.1573 198.176 88.8688C198.515 88.6069 198.907 88.4498 199.324 88.3975H199.533C199.533 88.3975 199.637 88.3975 199.69 88.3975V89.3929H199.715Z" fill="#666666"/>
<path d="M203.942 94.9995C203.055 94.9995 202.194 94.6587 201.594 94.004C201.307 93.6894 201.098 93.349 200.942 92.9558C200.629 92.1436 200.629 91.2267 200.942 90.4146C201.098 90.0218 201.333 89.6809 201.594 89.3667C202.82 88.0832 204.829 88.0308 206.134 89.2358C206.186 89.2882 206.212 89.3143 206.264 89.3667C206.551 89.6809 206.786 90.0218 206.917 90.4146C207.23 91.2267 207.23 92.1436 206.917 92.9558C206.76 93.349 206.551 93.6894 206.264 94.004C205.977 94.3183 205.638 94.5539 205.247 94.7372C204.829 94.921 204.386 95.0257 203.942 94.9995ZM201.829 91.6985C201.829 92.0127 201.881 92.3273 201.985 92.6416C202.09 92.9296 202.246 93.1657 202.429 93.4014C202.612 93.6108 202.847 93.7941 203.107 93.8989C203.629 94.135 204.229 94.135 204.777 93.8989C205.038 93.768 205.273 93.5847 205.455 93.3752C205.664 93.1395 205.821 92.9034 205.925 92.6154C206.03 92.3012 206.082 91.9865 206.082 91.6723C206.082 91.3576 206.03 91.0434 205.925 90.7554C205.821 90.4669 205.664 90.2051 205.455 89.9956C205.273 89.7861 205.038 89.6024 204.777 89.4715C204.516 89.3405 204.229 89.2882 203.942 89.2882C203.655 89.2882 203.368 89.3405 203.107 89.4715C202.847 89.6024 202.612 89.7861 202.429 89.9956C202.22 90.2313 202.09 90.4669 201.985 90.7554C201.881 91.0696 201.803 91.3838 201.829 91.7247V91.6985Z" fill="#666666"/>
<path d="M212.448 94.9995C211.952 94.9995 211.456 94.8686 211.039 94.6063C210.648 94.3445 210.309 94.0041 210.074 93.6109V97.5146H209.004V88.476H209.969V89.681C210.23 89.2882 210.57 88.974 210.961 88.7117C211.378 88.476 211.822 88.3451 212.291 88.3451C212.709 88.3451 213.126 88.4237 213.492 88.607C213.857 88.7902 214.17 89.0263 214.457 89.3406C215.005 89.9956 215.318 90.8078 215.318 91.6461C215.318 92.0913 215.24 92.5369 215.109 92.9558C214.979 93.349 214.77 93.7156 214.509 94.0041C214.249 94.2921 213.961 94.554 213.596 94.7111C213.231 94.8948 212.84 94.9733 212.422 94.9733L212.448 94.9995ZM212.109 94.0564C212.396 94.0564 212.709 94.0041 212.97 93.8465C213.231 93.7156 213.439 93.5323 213.622 93.2966C213.805 93.0606 213.961 92.7987 214.04 92.5369C214.144 92.2484 214.196 91.9604 214.196 91.6461C214.196 91.0173 213.961 90.4408 213.57 89.9694C213.387 89.7599 213.126 89.5762 212.865 89.4453C212.605 89.3144 212.291 89.262 212.005 89.262C211.796 89.262 211.587 89.3144 211.405 89.3667C211.196 89.4453 210.987 89.55 210.804 89.681C210.621 89.8123 210.465 89.9694 210.335 90.1265C210.204 90.2836 210.126 90.4931 210.074 90.6769V92.5107C210.152 92.7202 210.282 92.9296 210.413 93.1129C210.674 93.4538 211.039 93.7418 211.456 93.8989C211.666 93.9775 211.874 94.0303 212.109 94.0303V94.0564Z" fill="#666666"/>
<path d="M220.04 94.9996C219.597 94.9996 219.127 94.921 218.71 94.7373C218.319 94.5802 217.953 94.3184 217.666 94.0041C217.379 93.6895 217.144 93.3229 216.988 92.9297C216.831 92.5107 216.753 92.0913 216.753 91.6462C216.753 91.2006 216.831 90.7817 216.988 90.3623C217.484 89.105 218.684 88.2928 220.014 88.319C220.458 88.319 220.928 88.3975 221.345 88.5808C222.102 88.9217 222.702 89.5501 222.989 90.3361C223.146 90.7293 223.224 91.1483 223.224 91.5676V91.8033C223.224 91.8033 223.224 91.9081 223.224 91.9604H217.927C217.927 92.2751 218.031 92.5631 218.136 92.825C218.24 93.0868 218.423 93.2967 218.605 93.5062C218.788 93.6895 219.023 93.8466 219.284 93.9513C219.519 94.0565 219.806 94.1089 220.067 94.1089C220.249 94.1089 220.458 94.0827 220.641 94.0303C220.823 93.978 221.006 93.899 221.163 93.8204C221.319 93.7419 221.476 93.6109 221.606 93.48C221.737 93.3491 221.841 93.192 221.893 93.0344L222.832 93.2967C222.728 93.5324 222.572 93.768 222.389 93.9513C222.206 94.1612 221.997 94.3445 221.762 94.4755C221.502 94.6326 221.241 94.7373 220.954 94.8163C220.667 94.8949 220.353 94.921 220.04 94.921V94.9996ZM222.232 91.2268C222.232 90.9388 222.128 90.6507 221.997 90.3885C221.893 90.1528 221.71 89.9171 221.528 89.7338C220.902 89.1573 220.014 89.0002 219.232 89.3144C218.971 89.4192 218.762 89.5501 218.553 89.76C218.371 89.9433 218.188 90.179 218.084 90.4146C217.953 90.6769 217.901 90.965 217.875 91.253H222.206L222.232 91.2268Z" fill="#666666"/>
<path d="M117.215 50.4624C117.737 49.9384 118.024 49.2311 117.945 48.4975C117.998 47.7902 117.763 47.109 117.293 46.585C116.902 46.1397 116.328 45.9039 115.728 45.9039H109.857V51.0911H115.519C116.145 51.0911 116.745 50.8815 117.215 50.4624ZM116.51 55.6494H109.857V61.1251H116.249C116.954 61.1251 117.632 60.8894 118.102 60.3915C118.598 59.8674 118.859 59.1604 118.832 58.4529C118.832 57.7455 118.624 57.0381 118.154 56.4878C117.763 55.9641 117.137 55.676 116.458 55.676L116.51 55.6494ZM145.785 51.9557C144.663 51.9557 143.593 52.4272 142.862 53.2919C142.471 53.737 142.184 54.2612 142.002 54.8377C141.793 55.4661 141.688 56.1212 141.688 56.8024C141.636 58.0859 142.054 59.3175 142.837 60.3129C143.567 61.1775 144.663 61.6488 145.785 61.6226C146.333 61.6226 146.907 61.5179 147.403 61.256C147.898 61.0204 148.342 60.6795 148.681 60.2606C149.072 59.815 149.359 59.2913 149.542 58.7148C149.751 58.0859 149.855 57.4313 149.855 56.75C149.907 55.4661 149.516 54.235 148.707 53.2395C147.977 52.3749 146.907 51.9033 145.785 51.9295V51.9557ZM112.962 11.4532C88.9321 11.4532 69.468 31.0233 69.468 55.1257C69.468 79.228 88.9321 98.7981 112.962 98.7981C136.992 98.7981 156.456 79.2542 156.456 55.1257C156.456 31.0233 136.992 11.4532 112.962 11.4532ZM81.7831 33.8265L83.2178 29.53L84.653 33.8265H89.1927L85.5399 36.5773L86.975 41.0572L83.1916 38.1754L79.4087 41.0572L80.8438 36.5773L77.2168 33.8265H81.7831ZM87.0012 78.7301L83.2178 75.8484L79.4607 78.5729L80.8958 74.1455L77.2691 71.3948H81.8089L83.244 67.0983L84.6791 71.3948H89.1927L85.5661 74.2503L87.0274 78.7301H87.0012ZM92.1411 59.9197L88.4625 57.0119L84.6006 59.7364L86.0095 55.3352L82.3829 52.7154L86.923 52.5844L88.4883 48.2617L89.7929 52.5582H94.3069L90.706 55.4137L92.1411 59.9197ZM124.077 62.4086C123.633 63.2208 123.007 63.902 122.25 64.3999C121.415 64.9498 120.502 65.3692 119.537 65.6049C118.467 65.8668 117.371 66.0243 116.275 66.0243H104.117V40.9524H117.998C118.807 40.9524 119.615 41.1358 120.346 41.5288C121.024 41.8956 121.65 42.3933 122.146 42.9959C122.642 43.5984 123.033 44.3058 123.294 45.0393C123.555 45.7991 123.712 46.585 123.685 47.3972C123.685 48.5761 123.373 49.755 122.799 50.7768C122.198 51.8509 121.233 52.6892 120.111 53.1872C121.442 53.5537 122.642 54.3397 123.503 55.4399C124.364 56.6453 124.807 58.1121 124.755 59.6055C124.755 60.5748 124.547 61.5441 124.103 62.4086H124.077ZM133.339 66.0243H127.73V47.502H133.339V66.0243ZM133.339 45.3799H127.73V40.2713H133.339V45.3799ZM153.116 63.5092C152.23 64.4261 151.186 65.1336 150.011 65.6049C147.298 66.6527 144.324 66.6527 141.61 65.6049C140.436 65.1336 139.392 64.4261 138.506 63.5092C137.671 62.6185 137.018 61.5964 136.575 60.4439C135.713 58.0859 135.713 55.4923 136.575 53.1348C136.992 51.9819 137.644 50.934 138.506 50.0694C139.392 49.1525 140.436 48.4451 141.61 47.9474C142.941 47.3972 144.376 47.1352 145.811 47.1614C147.246 47.1352 148.655 47.3972 149.986 47.9474C151.16 48.4451 152.203 49.1525 153.09 50.0694C153.925 50.9601 154.604 52.0081 155.021 53.1348C155.465 54.2874 155.7 55.5447 155.7 56.7762C155.7 58.0335 155.491 59.2651 155.047 60.4177C154.63 61.5702 153.978 62.5923 153.143 63.483L153.116 63.5092Z" fill="#00A390"/>
</svg>
