<svg width="336" height="100" viewBox="0 0 336 100" fill="none" xmlns="http://www.w3.org/2000/svg">
<g clip-path="url(#clip0_307_772)">
<path d="M29.6842 84.5857L28.0565 79.5664L26.4287 84.5857H21.1016L25.3929 87.5854L23.7947 92.7532L28.0565 89.5159L32.3478 92.7829L30.7201 87.7042L34.8338 84.5857H29.6842Z" fill="#F4CF00"/>
<path d="M50.9632 90.199L49.3355 85.2985L47.7077 90.199L42.4102 90.3475L46.7015 93.3175L45.0737 98.3368L49.3355 95.2183L53.6268 98.4853L51.9991 93.4066L56.0832 90.199H50.9632Z" fill="#F4CF00"/>
<path d="M72.1241 84.5857L70.6444 79.5664L68.8982 84.5857H63.6895L67.8624 87.5854L66.2346 92.7235L70.6148 89.5159L74.9653 92.7829L73.16 87.7042L77.2737 84.5857H72.1241Z" fill="#F4CF00"/>
<path d="M14.117 68.9635L12.6372 64.063L10.8615 68.9635H5.71191L9.82567 72.0523L8.22752 77.0716L12.6076 73.9828L16.9286 77.2795L15.1232 72.1711L19.237 68.9635H14.117Z" fill="#F4CF00"/>
<path d="M6.89571 52.6285L11.2166 55.9252L9.44091 50.8168L13.5251 47.6092H8.40508L6.92531 42.7086L5.14959 47.6092L0 47.7577L4.11375 50.698L2.5156 55.7173L6.89571 52.6285Z" fill="#F4CF00"/>
<path d="M28.0562 5.9697L26.4284 10.8702H21.1309L25.3926 13.959L23.7648 19.0377L28.0562 15.7707L32.3475 19.0377L30.7198 13.959L34.8335 10.8702H29.6839L28.0562 5.9697Z" fill="#F4CF00"/>
<path d="M12.6372 21.4731L10.8615 26.3736H5.71191L9.82567 29.4624L8.19792 34.5114L12.6076 31.2741L16.9285 34.5708L15.1232 29.4624L19.2666 26.3736H14.117L12.6372 21.4731Z" fill="#F4CF00"/>
<path d="M49.3355 0L47.7077 4.90051L42.4102 5.04901L46.7015 7.98931L45.0737 13.0086L49.3355 9.91981L53.6268 13.1868L51.9991 8.10811L56.0832 4.87081H50.9632L49.3355 0Z" fill="#F4CF00"/>
<path d="M70.6441 5.9697L68.8979 10.8702H63.7188L67.8621 13.959L66.2344 19.008L70.6145 15.7707L74.965 19.0674L73.1597 13.959L77.2734 10.8702H72.1238L70.6441 5.9697Z" fill="#F4CF00"/>
<path d="M181.863 63.2314C180.502 63.2314 179.141 62.9641 177.898 62.3998C176.714 61.8652 175.648 61.093 174.76 60.1129C173.873 59.103 173.162 57.915 172.718 56.6379C172.215 55.242 171.979 53.7867 171.979 52.3017C171.979 50.8464 172.186 49.3911 172.659 48.0249C173.074 46.7478 173.725 45.5895 174.583 44.55C175.382 43.5996 176.388 42.7977 177.513 42.2631C178.667 41.6988 179.94 41.4018 181.242 41.4315C182.633 41.4315 183.994 41.7582 185.208 42.471C186.362 43.1244 187.309 44.1045 187.93 45.2628V33.6204H194.323V55.6281C194.293 56.1033 194.382 56.5488 194.619 56.9646C194.885 57.2616 195.27 57.4101 195.684 57.4398V62.8453C195.181 62.9641 194.678 63.0532 194.175 63.1126C193.761 63.1423 193.346 63.172 192.991 63.172C192.044 63.2314 191.097 62.9938 190.268 62.4889C189.588 62.0434 189.144 61.3009 189.085 60.4693L188.966 59.4001C188.286 60.6475 187.22 61.6573 185.948 62.3107C184.705 62.9344 183.314 63.2611 181.893 63.2611L181.863 63.2314ZM183.58 57.8259C184.468 57.8259 185.356 57.5586 186.095 57.0537C186.895 56.5488 187.546 55.8063 187.96 54.9153V50.5197C187.575 49.4802 186.895 48.5595 186.036 47.9061C185.237 47.2527 184.261 46.8963 183.254 46.8963C182.603 46.8963 181.952 47.0448 181.36 47.3418C180.798 47.6388 180.295 48.0546 179.88 48.5595C179.437 49.0941 179.111 49.6881 178.904 50.3118C178.667 50.9949 178.549 51.7077 178.549 52.4205C178.549 53.163 178.667 53.8758 178.933 54.5886C179.17 55.2123 179.525 55.8063 179.969 56.3112C180.413 56.7864 180.946 57.1725 181.567 57.4398C182.189 57.7071 182.87 57.8556 183.58 57.8259V57.8259Z" fill="#00A390"/>
<path d="M199.059 39.4417V33.6501H205.422V39.4417H199.059ZM199.059 62.8453V41.8474H205.422V62.8453H199.059Z" fill="#00A390"/>
<path d="M214.803 62.8453L207.404 41.8474H213.974L218.532 57.7072L223.149 41.8474H229.098L221.728 62.8453H214.803Z" fill="#00A390"/>
<path d="M240.373 63.2314C238.745 63.2314 237.147 62.9641 235.638 62.3701C234.306 61.8355 233.093 61.0336 232.086 60.0238C231.139 59.0437 230.37 57.8854 229.896 56.6083C229.393 55.3015 229.127 53.9353 229.127 52.5394C229.127 51.0841 229.364 49.6287 229.896 48.2328C230.37 46.926 231.139 45.7083 232.086 44.6985C233.093 43.659 234.277 42.8274 235.608 42.2928C237.118 41.6691 238.745 41.3721 240.373 41.4018C242.001 41.4018 243.599 41.6691 245.108 42.2928C246.44 42.8274 247.624 43.659 248.601 44.6688C249.548 45.6489 250.288 46.8369 250.761 48.114C251.264 49.4209 251.501 50.8168 251.501 52.2424C251.501 52.6285 251.501 52.9849 251.471 53.3413C251.471 53.668 251.412 53.965 251.353 54.2917H235.904C235.904 55.5391 236.496 56.6974 237.443 57.4993C238.331 58.2121 239.426 58.5982 240.58 58.5982C241.527 58.5982 242.445 58.3606 243.274 57.9151C244.073 57.529 244.694 56.8756 244.99 56.0737L250.406 57.5884C249.548 59.2813 248.216 60.6772 246.588 61.6276C244.694 62.7265 242.534 63.2611 240.373 63.2017V63.2314ZM244.813 50.3416C244.753 49.1536 244.221 48.0249 243.362 47.1636C242.534 46.3914 241.439 45.9756 240.284 46.0053C239.13 45.9756 238.035 46.3914 237.206 47.1933C236.378 48.0249 235.875 49.1536 235.786 50.3416H244.783H244.813Z" fill="#00A390"/>
<path d="M267.512 47.3121C266.091 47.3121 264.671 47.5794 263.309 48.0843C262.185 48.4704 261.238 49.2426 260.587 50.2524V62.8453H254.224V41.8176H260.084V46.0647C260.735 44.7579 261.682 43.5996 262.866 42.7383C263.901 41.9661 265.174 41.5206 266.476 41.4909H267.127C267.127 41.4909 267.394 41.4909 267.542 41.5206V47.2824L267.512 47.3121Z" fill="#00A390"/>
<path d="M278.255 63.2314C276.48 63.2314 274.704 62.9344 272.988 62.3701C271.36 61.8652 269.88 61.0039 268.607 59.8753L270.886 55.9549C272.04 56.7865 273.283 57.4696 274.615 58.0042C275.71 58.4497 276.894 58.717 278.108 58.717C278.788 58.7467 279.439 58.5982 280.031 58.2715C280.475 58.0042 280.741 57.4993 280.712 56.9944C280.712 56.4301 280.386 55.8955 279.854 55.6579C278.907 55.1827 277.871 54.8263 276.835 54.5887C275.414 54.2026 274.231 53.8165 273.283 53.4304C272.455 53.1334 271.656 52.7176 270.916 52.183C270.354 51.7969 269.91 51.2326 269.614 50.6089C269.347 49.9555 269.199 49.2427 269.229 48.5299C269.199 46.54 270.087 44.6392 271.626 43.362C272.425 42.7086 273.313 42.2334 274.29 41.9067C275.355 41.5503 276.48 41.3721 277.604 41.4018C279.084 41.4018 280.594 41.6097 282.014 42.0552C283.494 42.5304 284.826 43.3323 285.98 44.3718L283.523 48.2032C282.517 47.4904 281.452 46.8964 280.327 46.3915C279.469 46.0351 278.551 45.8569 277.604 45.8272C276.983 45.8272 276.391 45.946 275.858 46.243C275.118 46.6885 274.911 47.6686 275.355 48.3814C275.503 48.5893 275.681 48.7675 275.917 48.916C276.835 49.3615 277.812 49.6585 278.818 49.8664C280.09 50.1931 281.363 50.5792 282.576 51.0544C283.464 51.3811 284.293 51.8266 285.062 52.3909C285.654 52.8364 286.128 53.4304 286.453 54.0838C286.749 54.7966 286.897 55.5688 286.897 56.3707C286.957 58.3012 286.098 60.1426 284.589 61.3306C282.754 62.6374 280.534 63.2908 278.315 63.172L278.255 63.2314Z" fill="#00A390"/>
<path d="M289.679 39.4417V33.6501H296.071V39.4417H289.679ZM289.679 62.8453V41.8474H296.071V62.8453H289.679Z" fill="#00A390"/>
<path d="M313.622 61.7167C312.645 62.1325 311.639 62.4592 310.603 62.7562C309.508 63.0829 308.354 63.2314 307.2 63.2314C306.43 63.2314 305.69 63.1423 304.95 62.9344C304.27 62.7562 303.648 62.4295 303.086 61.984C302.524 61.5088 302.109 60.9148 301.843 60.2317C301.517 59.4001 301.369 58.5091 301.399 57.6181V46.6587H298.735V41.8176H301.399V35.1351H307.792V41.8176H312.053V46.6587H307.792V55.4203C307.732 55.9549 307.94 56.5192 308.295 56.9053C308.65 57.232 309.123 57.3805 309.597 57.3805C310.1 57.3805 310.603 57.2914 311.077 57.1429C311.521 56.9944 311.964 56.8162 312.379 56.638L313.622 61.7464V61.7167Z" fill="#00A390"/>
<path d="M316.019 65.9935C316.492 66.1717 316.995 66.2905 317.499 66.4093C317.913 66.4687 318.327 66.5281 318.771 66.5281C319.452 66.5578 320.133 66.2608 320.576 65.7262C321.139 64.8649 321.524 63.8848 321.731 62.8453L313.77 41.8474H320.34L325.193 57.3805L329.366 41.8474H335.345L327.383 66.2608C326.288 69.7951 322.974 72.2008 319.304 72.1117C318.771 72.1117 318.209 72.0523 317.676 71.9632C317.114 71.8741 316.552 71.6959 316.019 71.488V66.0232V65.9935Z" fill="#00A390"/>
<path d="M173.665 80.695V70.7752H174.908V80.695H173.665Z" fill="#666666"/>
<path d="M183.965 80.695H182.751V76.6261C182.781 76.0321 182.662 75.4381 182.396 74.9332C182.159 74.5768 181.745 74.3689 181.331 74.3986C181.064 74.3986 180.828 74.458 180.591 74.5471C180.324 74.6362 180.088 74.7847 179.88 74.9332C179.644 75.1114 179.466 75.2896 179.289 75.5272C179.111 75.7648 178.993 76.0321 178.904 76.2994V80.695H177.69V73.4185H178.815V74.9926C179.111 74.4877 179.555 74.0422 180.058 73.7749C180.591 73.4779 181.212 73.2997 181.834 73.2997C182.189 73.2997 182.544 73.3591 182.87 73.5373C183.136 73.6858 183.373 73.9234 183.521 74.1907C183.698 74.4877 183.817 74.8144 183.876 75.1708C183.935 75.5569 183.994 75.9727 183.994 76.3885V80.7247L183.965 80.695Z" fill="#666666"/>
<path d="M186.688 80.695V74.3689H185.711V73.4185H186.688V73.27C186.658 72.5275 186.865 71.7553 187.279 71.1316C187.664 70.6267 188.286 70.3297 188.907 70.3594C189.203 70.3594 189.47 70.3891 189.766 70.4782C190.032 70.5673 190.269 70.6564 190.505 70.8049L190.209 71.6959C190.209 71.6959 189.913 71.5177 189.736 71.4583C189.558 71.3989 189.351 71.3692 189.174 71.3692C188.818 71.3692 188.463 71.5177 188.256 71.8444C188.019 72.2602 187.901 72.7057 187.931 73.1809V73.3888H189.854V74.3392H187.931V80.6653H186.717L186.688 80.695Z" fill="#666666"/>
<path d="M194.589 80.8435C193.583 80.8435 192.636 80.4277 191.955 79.7149C191.63 79.3585 191.393 78.9724 191.216 78.5269C190.86 77.6062 190.86 76.5667 191.216 75.646C191.393 75.2005 191.63 74.8144 191.955 74.458C193.346 73.0027 195.655 72.9433 197.105 74.3095C197.164 74.3689 197.194 74.3986 197.253 74.458C197.579 74.8144 197.815 75.2005 197.993 75.646C198.348 76.5667 198.348 77.6062 197.993 78.5269C197.638 79.4179 196.957 80.1604 196.069 80.5465C195.596 80.7544 195.093 80.8732 194.589 80.8435V80.8435ZM192.192 77.1013C192.192 77.4577 192.251 77.8141 192.37 78.1705C192.488 78.4972 192.666 78.7645 192.873 79.0318C193.08 79.2694 193.346 79.4773 193.642 79.5961C194.234 79.8634 194.915 79.8634 195.536 79.5961C195.832 79.4476 196.099 79.2397 196.306 79.0021C196.543 78.7348 196.72 78.4675 196.839 78.1408C196.957 77.7844 197.016 77.428 197.016 77.0716C197.016 76.7152 196.957 76.3588 196.839 76.0321C196.72 75.7054 196.543 75.4084 196.306 75.1708C196.099 74.9332 195.832 74.7253 195.536 74.5768C195.241 74.4283 194.915 74.3689 194.589 74.3689C194.264 74.3689 193.938 74.4283 193.642 74.5768C193.346 74.7253 193.08 74.9332 192.873 75.1708C192.666 75.4381 192.488 75.7054 192.37 76.0321C192.251 76.3885 192.192 76.7449 192.192 77.131V77.1013Z" fill="#666666"/>
<path d="M204.208 74.4877C203.645 74.4877 203.083 74.6659 202.58 74.9629C202.106 75.2599 201.781 75.6757 201.574 76.2103V80.695H200.36V73.4185H201.485V75.1114C201.722 74.6362 202.047 74.2204 202.462 73.8937C202.846 73.5967 203.29 73.4185 203.764 73.3591H204.001C204.001 73.3591 204.119 73.3591 204.178 73.3591V74.4877H204.208Z" fill="#666666"/>
<path d="M216.905 80.695H215.691V76.6261C215.721 76.0321 215.603 75.4381 215.336 74.9332C215.099 74.5768 214.685 74.3689 214.241 74.3986C213.738 74.3986 213.265 74.5768 212.909 74.9332C212.495 75.3193 212.229 75.7945 212.081 76.3291V80.7247H210.867V76.6558C210.926 76.0618 210.779 75.4678 210.512 74.9629C210.275 74.6065 209.861 74.3986 209.417 74.4283C208.914 74.4283 208.44 74.6065 208.085 74.9629C207.671 75.3193 207.375 75.8242 207.227 76.3588V80.7544H206.014V73.4779H207.138V75.052C207.405 74.5471 207.819 74.1016 208.293 73.8046C208.766 73.5076 209.328 73.3591 209.891 73.3591C210.423 73.3591 210.927 73.5076 211.341 73.864C211.696 74.1907 211.933 74.6659 211.992 75.1411C212.495 74.0422 213.56 73.3591 214.744 73.3591C215.099 73.3591 215.484 73.4185 215.81 73.5967C216.076 73.7452 216.313 73.9828 216.49 74.2501C216.668 74.5471 216.786 74.8738 216.846 75.2302C216.934 75.6163 216.964 76.0321 216.964 76.4479V80.8138L216.905 80.695Z" fill="#666666"/>
<path d="M221.255 80.8435C220.929 80.8435 220.604 80.7841 220.308 80.6653C220.012 80.5465 219.745 80.398 219.538 80.1901C219.331 79.9822 219.153 79.7446 219.035 79.4773C218.917 79.21 218.857 78.8833 218.857 78.5863C218.857 78.2596 218.917 77.9626 219.065 77.6656C219.213 77.3983 219.449 77.131 219.686 76.9528C219.982 76.7449 220.308 76.5964 220.663 76.5073C221.077 76.3885 221.491 76.3291 221.906 76.3291C222.261 76.3291 222.616 76.3588 222.971 76.4182C223.297 76.4776 223.622 76.5667 223.918 76.6855V76.0915C224.007 75.1411 223.297 74.2798 222.35 74.1907C222.231 74.1907 222.113 74.1907 221.995 74.1907C221.166 74.2204 220.337 74.5174 219.686 75.052L219.272 74.2501C220.1 73.6561 221.077 73.3294 222.083 73.2997C222.912 73.2403 223.711 73.5373 224.303 74.0719C224.865 74.6362 225.161 75.4381 225.102 76.24V79.21C225.102 79.507 225.22 79.6555 225.487 79.6555V80.7247H225.161C225.161 80.7247 224.984 80.7841 224.895 80.7544C224.688 80.7544 224.451 80.695 224.303 80.5465C224.155 80.398 224.066 80.2198 224.037 80.0119V79.507C223.681 79.9525 223.267 80.2792 222.764 80.5168C222.261 80.7544 221.728 80.8732 221.195 80.8732L221.255 80.8435ZM221.58 79.9228C221.995 79.9228 222.409 79.8337 222.794 79.6852C223.149 79.5664 223.445 79.3288 223.652 79.0318C223.8 78.8833 223.918 78.7051 223.918 78.4972V77.428C223.326 77.1904 222.705 77.0716 222.083 77.0716C221.551 77.0716 221.047 77.1904 220.604 77.4577C220.248 77.6656 220.041 78.0517 220.041 78.4675C220.041 78.8536 220.189 79.2397 220.485 79.507C220.633 79.6258 220.811 79.7446 220.988 79.804C221.195 79.8931 221.403 79.9228 221.61 79.9228H221.58Z" fill="#666666"/>
<path d="M231.287 80.3386C231.287 80.3386 231.11 80.4277 230.991 80.4871C230.873 80.5465 230.725 80.5762 230.577 80.6356C230.4 80.695 230.252 80.7247 230.074 80.7544C229.896 80.7841 229.689 80.8138 229.512 80.8138C229.097 80.8138 228.683 80.695 228.357 80.4574C228.032 80.1901 227.825 79.7446 227.884 79.2991V74.3986H226.907V73.4482H227.884V71.0128H229.097V73.4482H230.725V74.3986H229.097V78.913C229.097 79.1506 229.186 79.3585 229.364 79.507C229.512 79.6258 229.719 79.6852 229.926 79.6852C230.163 79.6852 230.37 79.6555 230.577 79.5664C230.725 79.507 230.843 79.4476 230.991 79.3882L231.287 80.3683V80.3386Z" fill="#666666"/>
<path d="M233.004 72.0523V70.5079H234.217V72.0523H233.004ZM233.004 80.695V73.4185H234.217V80.695H233.004Z" fill="#666666"/>
<path d="M239.988 80.8435C238.982 80.8435 238.035 80.4277 237.325 79.7149C236.999 79.3585 236.762 78.9724 236.585 78.5269C236.23 77.6062 236.23 76.5667 236.585 75.646C236.762 75.2005 236.999 74.8144 237.325 74.458C237.65 74.1016 238.035 73.8343 238.479 73.6264C238.952 73.4185 239.455 73.3294 239.959 73.3294C240.965 73.3294 241.941 73.7155 242.622 74.458C242.948 74.8144 243.184 75.2005 243.362 75.646C243.717 76.5667 243.717 77.6062 243.362 78.5269C243.184 78.9724 242.948 79.3585 242.622 79.7149C242.297 80.0713 241.882 80.3386 241.468 80.5465C240.994 80.7544 240.491 80.8732 239.988 80.8435ZM237.591 77.0716C237.591 77.428 237.65 77.7844 237.769 78.1408C237.887 78.4675 238.064 78.7348 238.272 79.0021C238.479 79.2397 238.745 79.4476 239.041 79.5664C239.633 79.8337 240.314 79.8337 240.906 79.5664C241.202 79.4179 241.468 79.21 241.675 78.9724C241.912 78.7051 242.089 78.4378 242.208 78.1111C242.326 77.7547 242.385 77.3983 242.385 77.0419C242.385 76.6855 242.326 76.3291 242.208 76.0024C242.089 75.6757 241.912 75.3787 241.675 75.1411C241.468 74.9035 241.202 74.6956 240.906 74.5471C240.61 74.3986 240.284 74.3392 239.959 74.3392C239.633 74.3392 239.307 74.3986 239.012 74.5471C238.716 74.6956 238.449 74.9035 238.242 75.1411C238.035 75.4084 237.857 75.6757 237.739 76.0024C237.621 76.3588 237.532 76.7152 237.561 77.1013L237.591 77.0716Z" fill="#666666"/>
<path d="M252.034 80.695H250.821V76.6261C250.85 76.0321 250.732 75.4381 250.465 74.9332C250.229 74.5768 249.814 74.3689 249.4 74.3986C249.134 74.3986 248.897 74.458 248.66 74.5471C248.394 74.6362 248.157 74.7847 247.95 74.9332C247.713 75.1114 247.536 75.2896 247.358 75.5272C247.18 75.7648 247.062 76.0321 246.973 76.2994V80.695H245.76V73.4185H246.884V74.9926C247.18 74.4877 247.595 74.0422 248.127 73.7749C248.66 73.4779 249.282 73.2997 249.903 73.2997C250.258 73.2997 250.613 73.3591 250.939 73.5373C251.205 73.6858 251.442 73.9234 251.62 74.1907C251.797 74.4877 251.916 74.8144 251.975 75.1708C252.034 75.5569 252.093 75.9727 252.093 76.3885V80.7544L252.034 80.695Z" fill="#666666"/>
<path d="M264.02 72.8542C264.02 72.8542 263.754 72.5869 263.576 72.4681C263.369 72.3493 263.162 72.2305 262.955 72.1414C262.718 72.0523 262.451 71.9632 262.185 71.9038C261.919 71.8444 261.623 71.8147 261.327 71.8147C260.735 71.7553 260.143 71.9038 259.64 72.2602C259.285 72.5572 259.078 73.0027 259.107 73.4482C259.107 73.6858 259.166 73.9234 259.255 74.1313C259.374 74.3095 259.551 74.4877 259.729 74.5768C259.995 74.7253 260.261 74.8144 260.557 74.9035C260.883 74.9926 261.268 75.0817 261.712 75.2005C262.185 75.2896 262.629 75.4381 263.103 75.5866C263.487 75.7054 263.842 75.8836 264.168 76.1212C264.464 76.3291 264.671 76.5964 264.849 76.8934C264.997 77.2498 265.085 77.6359 265.085 78.022C265.085 78.4378 264.997 78.8833 264.819 79.2694C264.642 79.6258 264.375 79.9228 264.05 80.1307C263.694 80.3683 263.31 80.5465 262.925 80.6356C262.451 80.7544 261.978 80.8138 261.504 80.8138C260.765 80.8138 260.025 80.695 259.344 80.4574C258.663 80.2198 258.042 79.8634 257.479 79.4179L258.071 78.3487C258.249 78.5269 258.427 78.6754 258.634 78.8239C258.9 79.0021 259.166 79.1506 259.433 79.2397C259.758 79.3585 260.084 79.4773 260.409 79.5367C260.765 79.6258 261.12 79.6555 261.504 79.6555C262.067 79.6852 262.659 79.5664 263.132 79.2694C263.517 79.0318 263.754 78.5863 263.724 78.1408C263.724 77.9032 263.665 77.6359 263.547 77.428C263.399 77.2201 263.221 77.0419 263.014 76.9231C262.747 76.7746 262.422 76.6558 262.126 76.5667C261.771 76.4479 261.356 76.3588 260.913 76.24C260.469 76.1212 260.025 76.0024 259.581 75.8539C259.226 75.7351 258.93 75.5569 258.634 75.349C258.397 75.1708 258.19 74.9035 258.071 74.6362C257.923 74.3095 257.864 73.9828 257.864 73.6264C257.864 73.1809 257.953 72.7651 258.131 72.379C258.308 72.0226 258.545 71.6959 258.87 71.4583C259.196 71.191 259.581 71.0128 259.995 70.894C260.469 70.7752 260.942 70.7158 261.416 70.7158C262.037 70.7158 262.629 70.8049 263.221 71.0128C263.754 71.191 264.227 71.488 264.642 71.8444L264.05 72.8839L264.02 72.8542Z" fill="#666666"/>
<path d="M267.069 82.6552C267.069 82.6552 267.305 82.6849 267.424 82.6849H267.69C267.69 82.6849 267.897 82.6849 267.986 82.5958C268.104 82.5067 268.193 82.4176 268.252 82.2988C268.371 82.0909 268.46 81.883 268.548 81.6751C268.667 81.4078 268.785 81.0514 268.963 80.6356L265.885 73.3591H267.157L269.643 79.5367L271.893 73.3591H273.076L269.525 82.5661C269.377 82.8928 269.17 83.1898 268.874 83.4274C268.519 83.6947 268.075 83.8135 267.631 83.7838H267.365C267.365 83.7838 267.157 83.7541 267.039 83.7244V82.5958L267.069 82.6552Z" fill="#666666"/>
<path d="M277.279 80.8435C276.687 80.8435 276.125 80.7544 275.562 80.5762C275.03 80.4277 274.527 80.1604 274.112 79.7743L274.645 78.9427C275.03 79.2397 275.474 79.507 275.918 79.6852C276.362 79.8634 276.805 79.9228 277.279 79.9228C277.723 79.9228 278.167 79.8337 278.552 79.6258C278.848 79.4476 279.025 79.0912 279.025 78.7348C279.025 78.5863 278.996 78.4081 278.907 78.2893C278.818 78.1408 278.67 78.0517 278.522 77.9626C278.315 77.8438 278.108 77.7844 277.871 77.725C277.605 77.6656 277.309 77.5765 276.953 77.4874C276.51 77.3686 276.125 77.2795 275.829 77.1607C275.562 77.0716 275.296 76.9528 275.059 76.8043C274.882 76.6855 274.704 76.5073 274.615 76.2994C274.527 76.0618 274.467 75.8242 274.467 75.5866C274.467 74.9332 274.734 74.3095 275.267 73.8937C275.533 73.6858 275.829 73.5373 276.154 73.4482C276.51 73.3591 276.865 73.2997 277.249 73.2997C277.782 73.2997 278.285 73.3888 278.788 73.567C279.232 73.7155 279.617 73.9531 279.972 74.2501L279.41 74.9926C279.114 74.7253 278.759 74.5174 278.374 74.3986C277.989 74.2501 277.605 74.1907 277.19 74.1907C276.805 74.1907 276.391 74.2798 276.066 74.4877C275.74 74.6956 275.562 75.0223 275.592 75.4084C275.592 75.5569 275.592 75.7054 275.681 75.8242C275.74 75.943 275.858 76.0618 275.977 76.1212C276.154 76.2103 276.332 76.2994 276.51 76.3588C276.717 76.4182 276.983 76.5073 277.279 76.5667C277.753 76.6855 278.167 76.8043 278.552 76.8934C278.877 76.9825 279.173 77.131 279.439 77.3092C279.913 77.5765 280.179 78.1111 280.15 78.6457C280.15 79.2694 279.883 79.8931 279.38 80.2792C278.759 80.695 278.048 80.9029 277.309 80.8435H277.279Z" fill="#666666"/>
<path d="M285.98 80.3386C285.98 80.3386 285.802 80.4277 285.684 80.4871C285.565 80.5465 285.417 80.5762 285.269 80.6356C285.092 80.695 284.944 80.7247 284.766 80.7544C284.589 80.7841 284.382 80.8138 284.204 80.8138C283.79 80.8138 283.375 80.695 283.05 80.4574C282.724 80.1901 282.517 79.7446 282.576 79.2991V74.3986H281.6V73.4482H282.576V71.0128H283.79V73.4482H285.417V74.3986H283.79V78.913C283.79 79.1506 283.878 79.3585 284.056 79.507C284.204 79.6258 284.411 79.6852 284.618 79.6852C284.855 79.6852 285.062 79.6555 285.269 79.5664C285.417 79.507 285.536 79.4476 285.684 79.3882L285.98 80.3683V80.3386Z" fill="#666666"/>
<path d="M290.745 80.8435C290.241 80.8435 289.709 80.7544 289.235 80.5465C288.791 80.3683 288.377 80.0713 288.051 79.7446C287.726 79.3882 287.46 78.9724 287.282 78.5269C287.104 78.0517 287.016 77.5765 287.016 77.0716C287.016 76.5667 287.104 76.0915 287.282 75.6163C287.46 75.1708 287.726 74.7847 288.051 74.4283C288.377 74.0719 288.791 73.8046 289.235 73.6264C289.709 73.4185 290.212 73.3294 290.745 73.3294C292.254 73.3294 293.586 74.2204 294.118 75.646C294.296 76.0915 294.385 76.5667 294.385 77.0419V77.3092C294.385 77.3092 294.385 77.428 294.385 77.5171H288.347C288.347 77.8735 288.466 78.2002 288.584 78.4972C288.851 79.0615 289.294 79.507 289.886 79.7743C290.153 79.8931 290.478 79.9525 290.774 79.9525C290.981 79.9525 291.218 79.9228 291.425 79.8634C291.632 79.804 291.84 79.7149 292.017 79.6258C292.195 79.5367 292.372 79.3882 292.52 79.2397C292.668 79.0912 292.787 78.913 292.846 78.7348L293.911 79.0318C293.793 79.2991 293.615 79.5664 293.408 79.7743C293.201 80.0119 292.964 80.1901 292.698 80.3386C292.402 80.5168 292.106 80.6356 291.78 80.7247C291.455 80.8138 291.1 80.8435 290.745 80.8435ZM293.231 76.5667C293.231 76.24 293.112 75.9133 292.964 75.6163C292.846 75.349 292.639 75.0817 292.432 74.8738C291.988 74.458 291.366 74.2204 290.745 74.2204C290.419 74.2204 290.123 74.2798 289.827 74.3986C289.531 74.5174 289.294 74.6659 289.058 74.9035C288.851 75.1114 288.643 75.3787 288.525 75.646C288.377 75.943 288.318 76.2697 288.288 76.5964H293.201L293.231 76.5667Z" fill="#666666"/>
<path d="M307.347 80.695H306.134V76.6261C306.164 76.0321 306.045 75.4381 305.779 74.9332C305.542 74.5768 305.128 74.3689 304.684 74.3986C304.181 74.3986 303.707 74.5768 303.352 74.9332C302.938 75.3193 302.642 75.7945 302.494 76.3291V80.7247H301.28V76.6558C301.34 76.0618 301.192 75.4678 300.925 74.9629C300.689 74.6065 300.274 74.3986 299.83 74.4283C299.327 74.4283 298.854 74.6065 298.498 74.9629C298.084 75.3193 297.788 75.8242 297.64 76.3588V80.7544H296.427V73.4779H297.551V75.052C297.818 74.5471 298.202 74.1016 298.706 73.8046C299.179 73.5076 299.741 73.3591 300.304 73.3591C300.836 73.3591 301.369 73.5076 301.754 73.864C302.109 74.1907 302.346 74.6659 302.405 75.1411C302.908 74.0422 303.974 73.3591 305.187 73.3591C305.542 73.3591 305.897 73.4185 306.223 73.5967C306.489 73.7452 306.726 73.9531 306.904 74.2501C307.081 74.5471 307.2 74.8738 307.259 75.2302C307.347 75.6163 307.377 76.0321 307.377 76.4479V80.8138L307.347 80.695Z" fill="#666666"/>
<path d="M173.843 95.545V89.2189H172.866V88.2685H173.843V88.12C173.784 87.3775 173.991 86.6053 174.435 85.9816C174.82 85.4767 175.441 85.1797 176.063 85.2094C176.358 85.2094 176.625 85.2391 176.921 85.3282C177.187 85.4173 177.424 85.5064 177.661 85.6549L177.365 86.5459C177.365 86.5459 177.069 86.3677 176.891 86.3083C176.714 86.2489 176.506 86.2192 176.329 86.2192C175.974 86.2192 175.619 86.3677 175.411 86.6647C175.175 87.0805 175.056 87.526 175.086 88.0012V88.2091H177.01V89.1595H175.086V95.4856H173.872L173.843 95.545Z" fill="#666666"/>
<path d="M181.745 95.6935C180.739 95.6935 179.792 95.2777 179.081 94.5649C178.756 94.2085 178.519 93.8224 178.342 93.3769C177.986 92.4562 177.986 91.4167 178.342 90.496C178.519 90.0505 178.756 89.6644 179.081 89.308C180.472 87.8527 182.781 87.7933 184.231 89.1595C184.29 89.2189 184.32 89.2486 184.379 89.308C184.705 89.6644 184.941 90.0505 185.119 90.496C185.474 91.4167 185.474 92.4562 185.119 93.3769C184.764 94.2679 184.083 95.0104 183.195 95.3965C182.722 95.6044 182.219 95.7232 181.715 95.6935H181.745ZM179.348 91.9513C179.348 92.3077 179.407 92.6641 179.525 93.0205C179.644 93.3472 179.821 93.6145 180.029 93.8818C180.236 94.1194 180.502 94.3273 180.798 94.4461C181.39 94.7134 182.071 94.7134 182.692 94.4461C182.988 94.2976 183.254 94.0897 183.462 93.8521C183.698 93.6145 183.876 93.3175 183.994 92.9908C184.113 92.6344 184.172 92.278 184.172 91.9216C184.172 91.5652 184.113 91.2088 183.994 90.8821C183.876 90.5554 183.698 90.2584 183.462 90.0208C183.254 89.7832 182.988 89.5753 182.692 89.4268C182.396 89.2783 182.071 89.2189 181.745 89.2189C181.419 89.2189 181.094 89.2783 180.798 89.4268C180.502 89.5753 180.236 89.7832 180.029 90.0208C179.821 90.2881 179.644 90.5554 179.525 90.8821C179.407 91.2385 179.348 91.5949 179.348 91.981V91.9513Z" fill="#666666"/>
<path d="M191.363 89.3377C190.801 89.3377 190.238 89.5159 189.735 89.8129C189.262 90.1099 188.936 90.5257 188.729 91.0603V95.545H187.516V88.2685H188.64V89.9614C188.877 89.4862 189.203 89.0704 189.617 88.7437C190.002 88.4467 190.446 88.2685 190.919 88.2091H191.156C191.156 88.2091 191.274 88.2091 191.333 88.2091V89.3377H191.363Z" fill="#666666"/>
<path d="M203.557 94.4164V95.545H196.839V85.6252H203.409V86.7538H198.082V89.9614H202.728V91.0009H198.082V94.4164H203.557Z" fill="#666666"/>
<path d="M207.671 95.6935C206.99 95.7232 206.369 95.4559 205.954 94.9213C205.51 94.2382 205.303 93.4363 205.362 92.6344V88.2685H206.576V92.3968C206.576 93.8818 207.079 94.6243 208.115 94.6243C208.618 94.6243 209.121 94.4461 209.535 94.1491C209.979 93.8224 210.334 93.3472 210.512 92.8423V88.2685H211.725V94.0303C211.725 94.3273 211.844 94.4758 212.11 94.4758V95.545H211.548C211.341 95.5747 211.134 95.5153 210.956 95.3668C210.808 95.2183 210.719 95.0401 210.69 94.8322V93.9709C210.364 94.5055 209.92 94.9213 209.387 95.2183C208.855 95.5153 208.263 95.6638 207.641 95.6638L207.671 95.6935Z" fill="#666666"/>
<path d="M218.236 89.3377C217.674 89.3377 217.111 89.5159 216.608 89.8129C216.135 90.1099 215.809 90.5257 215.602 91.0603V95.545H214.389V88.2685H215.513V89.9614C215.75 89.4862 216.076 89.0704 216.49 88.7437C216.875 88.4467 217.319 88.2685 217.792 88.2091H218.029C218.029 88.2091 218.147 88.2091 218.206 88.2091V89.3377H218.236Z" fill="#666666"/>
<path d="M223.03 95.6935C222.024 95.6935 221.047 95.3074 220.367 94.5649C220.041 94.2085 219.804 93.8224 219.627 93.3769C219.272 92.4562 219.272 91.4167 219.627 90.496C219.804 90.0505 220.071 89.6644 220.367 89.308C221.758 87.8527 224.036 87.7933 225.516 89.1595C225.575 89.2189 225.605 89.2486 225.664 89.308C225.99 89.6644 226.256 90.0505 226.404 90.496C226.759 91.4167 226.759 92.4562 226.404 93.3769C226.226 93.8224 225.99 94.2085 225.664 94.5649C225.339 94.9213 224.954 95.1886 224.51 95.3965C224.036 95.6044 223.533 95.7232 223.03 95.6935V95.6935ZM220.633 91.9513C220.633 92.3077 220.692 92.6641 220.811 93.0205C220.929 93.3472 221.106 93.6145 221.314 93.8818C221.521 94.1194 221.787 94.3273 222.083 94.4461C222.675 94.7134 223.356 94.7134 223.977 94.4461C224.273 94.2976 224.54 94.0897 224.747 93.8521C224.983 93.5848 225.161 93.3175 225.279 92.9908C225.398 92.6344 225.457 92.278 225.457 91.9216C225.457 91.5652 225.398 91.2088 225.279 90.8821C225.161 90.5554 224.983 90.2584 224.747 90.0208C224.54 89.7832 224.273 89.5753 223.977 89.4268C223.681 89.2783 223.356 89.2189 223.03 89.2189C222.705 89.2189 222.379 89.2783 222.083 89.4268C221.787 89.5753 221.521 89.7832 221.314 90.0208C221.077 90.2881 220.929 90.5554 220.811 90.8821C220.692 91.2385 220.603 91.5949 220.633 91.981V91.9513Z" fill="#666666"/>
<path d="M232.679 95.6935C232.117 95.6935 231.554 95.545 231.081 95.248C230.637 94.951 230.252 94.5649 229.986 94.1194V98.5447H228.772V88.2982H229.867V89.6644C230.163 89.2189 230.548 88.8625 230.992 88.5655C231.466 88.2982 231.969 88.1497 232.501 88.1497C232.975 88.1497 233.448 88.2388 233.863 88.4467C234.277 88.6546 234.632 88.9219 234.958 89.2783C235.579 90.0208 235.935 90.9415 235.935 91.8919C235.935 92.3968 235.846 92.9017 235.698 93.3769C235.55 93.8224 235.313 94.2382 235.017 94.5649C234.721 94.8916 234.396 95.1886 233.981 95.3668C233.567 95.5747 233.123 95.6638 232.649 95.6638L232.679 95.6935ZM232.294 94.6243C232.62 94.6243 232.975 94.5649 233.271 94.3867C233.567 94.2382 233.804 94.0303 234.011 93.763C234.218 93.4957 234.396 93.1987 234.484 92.9017C234.603 92.575 234.662 92.2483 234.662 91.8919C234.662 91.1791 234.396 90.5257 233.952 89.9911C233.744 89.7535 233.449 89.5456 233.153 89.3971C232.857 89.2486 232.501 89.1892 232.176 89.1892C231.939 89.1892 231.702 89.2486 231.495 89.308C231.258 89.3971 231.022 89.5159 230.815 89.6644C230.607 89.8129 230.43 89.9911 230.282 90.1693C230.134 90.3475 230.045 90.5851 229.986 90.793V92.872C230.075 93.1096 230.223 93.3472 230.371 93.5551C230.667 93.9412 231.081 94.2679 231.554 94.4461C231.791 94.5352 232.028 94.5946 232.294 94.5946V94.6243Z" fill="#666666"/>
<path d="M241.291 95.6935C240.787 95.6935 240.255 95.6044 239.781 95.3965C239.337 95.2183 238.923 94.9213 238.597 94.5649C238.272 94.2085 238.005 93.7927 237.828 93.3472C237.65 92.872 237.562 92.3968 237.562 91.8919C237.562 91.387 237.65 90.9118 237.828 90.4366C238.39 89.011 239.752 88.0903 241.261 88.12C241.764 88.12 242.297 88.2091 242.77 88.417C243.629 88.8031 244.309 89.5159 244.635 90.4069C244.812 90.8524 244.901 91.3276 244.901 91.8028V92.0701C244.901 92.0701 244.901 92.1889 244.901 92.2483H238.893C238.893 92.6047 239.012 92.9314 239.13 93.2284C239.248 93.5254 239.456 93.763 239.663 94.0006C239.87 94.2085 240.136 94.3867 240.432 94.5055C240.699 94.6243 241.024 94.6837 241.32 94.6837C241.527 94.6837 241.764 94.654 241.971 94.5946C242.178 94.5352 242.386 94.4461 242.563 94.357C242.741 94.2679 242.918 94.1194 243.066 93.9709C243.214 93.8224 243.333 93.6442 243.392 93.466L244.457 93.763C244.339 94.0303 244.161 94.2976 243.954 94.5055C243.747 94.7431 243.51 94.951 243.244 95.0995C242.948 95.2777 242.652 95.3965 242.326 95.4856C242.001 95.5747 241.646 95.6044 241.291 95.6044V95.6935ZM243.777 91.4167C243.777 91.09 243.658 90.7633 243.51 90.4663C243.392 90.199 243.185 89.9317 242.978 89.7238C242.267 89.0704 241.261 88.8922 240.373 89.2486C240.077 89.3674 239.84 89.5159 239.604 89.7535C239.396 89.9614 239.189 90.2287 239.071 90.496C238.923 90.793 238.864 91.1197 238.834 91.4464H243.747L243.777 91.4167Z" fill="#666666"/>
<path d="M124.656 45.2035C125.247 44.6095 125.573 43.8076 125.484 42.976C125.543 42.1741 125.277 41.4018 124.744 40.8078C124.3 40.3029 123.649 40.0356 122.969 40.0356H116.31V45.9163H122.732C123.442 45.9163 124.123 45.6787 124.656 45.2035ZM123.856 51.0841H116.31V57.2914H123.561C124.36 57.2914 125.129 57.0241 125.662 56.4598C126.224 55.8658 126.52 55.0639 126.49 54.262C126.49 53.4601 126.254 52.6582 125.721 52.0345C125.277 51.4405 124.567 51.1138 123.797 51.1138L123.856 51.0841ZM157.062 46.8964C155.79 46.8964 154.576 47.431 153.748 48.4111C153.304 48.916 152.978 49.51 152.771 50.1634C152.534 50.8762 152.416 51.6187 152.416 52.3909C152.357 53.8462 152.83 55.2421 153.718 56.3707C154.547 57.3508 155.79 57.8854 157.062 57.8557C157.684 57.8557 158.335 57.7369 158.897 57.4399C159.46 57.1726 159.963 56.7865 160.348 56.3113C160.791 55.8064 161.117 55.2124 161.324 54.559C161.561 53.8462 161.679 53.1037 161.679 52.3315C161.739 50.8762 161.295 49.4803 160.377 48.3517C159.548 47.3716 158.335 46.837 157.062 46.8667V46.8964ZM119.832 0.980103C92.5742 0.980103 70.4961 23.166 70.4961 50.4901C70.4961 77.8141 92.5742 100 119.832 100C147.089 100 169.167 77.8438 169.167 50.4901C169.167 23.166 147.089 0.980103 119.832 0.980103V0.980103ZM84.4651 26.3439L86.0928 21.4731L87.7206 26.3439H92.8702L88.7268 29.4624L90.3546 34.5411L86.0632 31.2741L81.7719 34.5411L83.3997 29.4624L79.2859 26.3439H84.4651V26.3439ZM90.3842 77.2498L86.0928 73.9828L81.8311 77.0716L83.4589 72.0523L79.3451 68.9338H84.4947L86.1224 64.063L87.7502 68.9338H92.8702L88.7564 72.1711L90.4138 77.2498H90.3842ZM96.2144 55.9252L92.0415 52.6285L87.6614 55.7173L89.2595 50.7277L85.1458 47.7577L90.2954 47.6092L92.0711 42.7087L93.5509 47.5795H98.6709L94.5867 50.8168L96.2144 55.9252V55.9252ZM132.439 58.7467C131.936 59.6674 131.226 60.4396 130.367 61.0039C129.42 61.6276 128.385 62.1028 127.29 62.3701C126.076 62.6671 124.833 62.8453 123.59 62.8453H109.799V34.4223H125.543C126.461 34.4223 127.378 34.6302 128.207 35.0757C128.976 35.4915 129.687 36.0558 130.249 36.7389C130.811 37.422 131.255 38.2239 131.551 39.0555C131.847 39.9168 132.025 40.8078 131.995 41.7285C131.995 43.0651 131.64 44.4016 130.989 45.5599C130.308 46.7776 129.213 47.728 127.941 48.2923C129.45 48.7081 130.811 49.5991 131.788 50.8465C132.765 52.2127 133.268 53.8759 133.209 55.5688C133.209 56.6677 132.972 57.7666 132.469 58.7467H132.439ZM142.945 62.8453H136.582V41.8473H142.945V62.8453ZM142.945 39.4416H136.582V33.6501H142.945V39.4416ZM165.379 59.9941C164.373 61.0336 163.189 61.8355 161.857 62.3701C158.779 63.5581 155.405 63.5581 152.327 62.3701C150.995 61.8355 149.812 61.0336 148.805 59.9941C147.858 58.9843 147.118 57.826 146.615 56.5192C145.639 53.8462 145.639 50.9059 146.615 48.2329C147.089 46.9261 147.829 45.7381 148.805 44.758C149.812 43.7185 150.995 42.9166 152.327 42.3523C153.837 41.7285 155.464 41.4315 157.092 41.4612C158.72 41.4315 160.318 41.7285 161.827 42.3523C163.159 42.9166 164.343 43.7185 165.349 44.758C166.296 45.7678 167.066 46.9558 167.539 48.2329C168.042 49.5397 168.309 50.9653 168.309 52.3612C168.309 53.7868 168.072 55.1827 167.569 56.4895C167.095 57.7963 166.355 58.9546 165.408 59.9644L165.379 59.9941Z" fill="#00A390"/>
</g>
<defs>
<clipPath id="clip0_307_772">
<rect width="335.345" height="100" fill="white"/>
</clipPath>
</defs>
</svg>
