<svg width="95" height="22" viewBox="0 0 95 22" fill="none" xmlns="http://www.w3.org/2000/svg">
<g clip-path="url(#clip0_1934_22341)">
<path d="M18.0291 16.2236H4.74478C4.22073 16.2236 3.7959 16.6257 3.7959 17.1216C3.7959 17.6176 4.22073 18.0196 4.74478 18.0196H18.0291C18.5531 18.0196 18.978 17.6176 18.978 17.1216C18.978 16.6257 18.5531 16.2236 18.0291 16.2236Z" fill="#3D5265"/>
<path d="M3.7959 15.3255V17.1215C3.7959 17.6175 4.22073 18.0195 4.74478 18.0195C5.26883 18.0195 5.69366 17.6175 5.69366 17.1215V15.3255C5.69366 14.8296 5.26883 14.4275 4.74478 14.4275C4.22073 14.4275 3.7959 14.8296 3.7959 15.3255Z" fill="#3D5265"/>
<path d="M17.0801 15.3255V17.1215C17.0801 17.6175 17.5049 18.0195 18.029 18.0195C18.553 18.0195 18.9778 17.6175 18.9778 17.1215V15.3255C18.9778 14.8296 18.553 14.4275 18.029 14.4275C17.5049 14.4275 17.0801 14.8296 17.0801 15.3255Z" fill="#3D5265"/>
<path d="M11.3864 13.5301C11.1896 13.5315 10.9973 13.475 10.836 13.3684L7.0405 10.836C6.83593 10.6987 6.69714 10.4903 6.65446 10.2564C6.61179 10.0225 6.66871 9.78213 6.81277 9.58782C6.88468 9.4907 6.97621 9.40802 7.08206 9.34456C7.18792 9.2811 7.30601 9.2381 7.42952 9.21807C7.55303 9.19803 7.67951 9.20134 7.80166 9.22781C7.92381 9.25429 8.03921 9.30339 8.1412 9.3723L11.3864 11.5185L14.6125 9.21964C14.8139 9.07674 15.0669 9.01539 15.3161 9.04907C15.5652 9.08275 15.79 9.20871 15.941 9.39924C16.092 9.58977 16.1568 9.82927 16.1212 10.065C16.0856 10.3008 15.9525 10.5135 15.7512 10.6564L11.9557 13.3505C11.7914 13.467 11.5917 13.5301 11.3864 13.5301V13.5301Z" fill="#3D5265"/>
<path d="M11.3864 11.7339C11.1347 11.7339 10.8934 11.6393 10.7154 11.4709C10.5375 11.3025 10.4375 11.0741 10.4375 10.8359V3.65191C10.4375 3.41374 10.5375 3.18533 10.7154 3.01692C10.8934 2.84852 11.1347 2.75391 11.3864 2.75391C11.638 2.75391 11.8794 2.84852 12.0573 3.01692C12.2353 3.18533 12.3353 3.41374 12.3353 3.65191V10.8359C12.3353 11.0741 12.2353 11.3025 12.0573 11.4709C11.8794 11.6393 11.638 11.7339 11.3864 11.7339Z" fill="#3D5265"/>
</g>
<path d="M34.6221 15.9014H32.5439L32.5576 14.8281H34.6221C35.333 14.8281 35.9255 14.68 36.3994 14.3838C36.8734 14.083 37.2288 13.6637 37.4658 13.126C37.7074 12.5837 37.8281 11.9502 37.8281 11.2256V10.6172C37.8281 10.0475 37.7598 9.54167 37.623 9.09961C37.4863 8.65299 37.2858 8.27702 37.0215 7.97168C36.7572 7.66178 36.4336 7.42708 36.0508 7.26758C35.6725 7.10807 35.2373 7.02832 34.7451 7.02832H32.5029V5.94824H34.7451C35.3968 5.94824 35.9915 6.05762 36.5293 6.27637C37.0671 6.49056 37.5296 6.80273 37.917 7.21289C38.3089 7.61849 38.6097 8.11068 38.8193 8.68945C39.029 9.26367 39.1338 9.91081 39.1338 10.6309V11.2256C39.1338 11.9456 39.029 12.5951 38.8193 13.1738C38.6097 13.748 38.3066 14.238 37.9102 14.6436C37.5182 15.0492 37.0443 15.3613 36.4883 15.5801C35.9368 15.7943 35.3148 15.9014 34.6221 15.9014ZM33.248 5.94824V15.9014H31.9287V5.94824H33.248ZM40.7298 12.2852V12.1279C40.7298 11.5947 40.8073 11.1003 40.9623 10.6445C41.1172 10.1842 41.3405 9.78548 41.6322 9.44824C41.9239 9.10645 42.277 8.84212 42.6918 8.65527C43.1065 8.46387 43.5713 8.36816 44.0863 8.36816C44.6058 8.36816 45.0729 8.46387 45.4877 8.65527C45.9069 8.84212 46.2624 9.10645 46.5541 9.44824C46.8503 9.78548 47.0759 10.1842 47.2308 10.6445C47.3858 11.1003 47.4632 11.5947 47.4632 12.1279V12.2852C47.4632 12.8184 47.3858 13.3128 47.2308 13.7686C47.0759 14.2243 46.8503 14.623 46.5541 14.9648C46.2624 15.3021 45.9092 15.5664 45.4945 15.7578C45.0843 15.9447 44.6195 16.0381 44.1 16.0381C43.5804 16.0381 43.1133 15.9447 42.6986 15.7578C42.2839 15.5664 41.9284 15.3021 41.6322 14.9648C41.3405 14.623 41.1172 14.2243 40.9623 13.7686C40.8073 13.3128 40.7298 12.8184 40.7298 12.2852ZM41.9945 12.1279V12.2852C41.9945 12.6543 42.0378 13.0029 42.1244 13.3311C42.211 13.6546 42.3408 13.9417 42.514 14.1924C42.6918 14.443 42.9128 14.6413 43.1771 14.7871C43.4414 14.9284 43.749 14.999 44.1 14.999C44.4463 14.999 44.7494 14.9284 45.0091 14.7871C45.2735 14.6413 45.4922 14.443 45.6654 14.1924C45.8386 13.9417 45.9685 13.6546 46.055 13.3311C46.1462 13.0029 46.1918 12.6543 46.1918 12.2852V12.1279C46.1918 11.7633 46.1462 11.4193 46.055 11.0957C45.9685 10.7676 45.8363 10.4782 45.6586 10.2275C45.4854 9.97233 45.2666 9.77181 45.0023 9.62598C44.7425 9.48014 44.4372 9.40723 44.0863 9.40723C43.7399 9.40723 43.4346 9.48014 43.1703 9.62598C42.9105 9.77181 42.6918 9.97233 42.514 10.2275C42.3408 10.4782 42.211 10.7676 42.1244 11.0957C42.0378 11.4193 41.9945 11.7633 41.9945 12.1279ZM51.0622 14.5889L52.9626 8.50488H53.7966L53.6325 9.71484L51.698 15.9014H50.8845L51.0622 14.5889ZM49.7839 8.50488L51.404 14.6572L51.5202 15.9014H50.6657L48.5193 8.50488H49.7839ZM55.615 14.6094L57.1599 8.50488H58.4177L56.2712 15.9014H55.4236L55.615 14.6094ZM53.9812 8.50488L55.8405 14.4863L56.0525 15.9014H55.2458L53.2566 9.70117L53.0925 8.50488H53.9812ZM61.1212 10.084V15.9014H59.8565V8.50488H61.0528L61.1212 10.084ZM60.8204 11.9229L60.294 11.9023C60.2986 11.3965 60.3738 10.9294 60.5196 10.501C60.6654 10.068 60.8705 9.69206 61.1348 9.37305C61.3992 9.05404 61.7136 8.80794 62.0782 8.63477C62.4473 8.45703 62.8552 8.36816 63.3018 8.36816C63.6664 8.36816 63.9945 8.41829 64.2862 8.51855C64.5779 8.61426 64.8263 8.76921 65.0313 8.9834C65.241 9.19759 65.4005 9.47559 65.5098 9.81738C65.6192 10.1546 65.6739 10.5671 65.6739 11.0547V15.9014H64.4024V11.041C64.4024 10.6536 64.3455 10.3438 64.2315 10.1113C64.1176 9.87435 63.9513 9.70345 63.7325 9.59863C63.5138 9.48926 63.2449 9.43457 62.9259 9.43457C62.6114 9.43457 62.3243 9.50065 62.0645 9.63281C61.8093 9.76497 61.5883 9.94727 61.4014 10.1797C61.2192 10.4121 61.0756 10.6787 60.9708 10.9795C60.8705 11.2757 60.8204 11.5902 60.8204 11.9229ZM69.1088 5.40137V15.9014H67.8373V5.40137H69.1088ZM70.9441 12.2852V12.1279C70.9441 11.5947 71.0216 11.1003 71.1766 10.6445C71.3315 10.1842 71.5548 9.78548 71.8465 9.44824C72.1382 9.10645 72.4913 8.84212 72.9061 8.65527C73.3208 8.46387 73.7856 8.36816 74.3006 8.36816C74.8201 8.36816 75.2872 8.46387 75.702 8.65527C76.1212 8.84212 76.4767 9.10645 76.7684 9.44824C77.0646 9.78548 77.2902 10.1842 77.4451 10.6445C77.6001 11.1003 77.6775 11.5947 77.6775 12.1279V12.2852C77.6775 12.8184 77.6001 13.3128 77.4451 13.7686C77.2902 14.2243 77.0646 14.623 76.7684 14.9648C76.4767 15.3021 76.1235 15.5664 75.7088 15.7578C75.2986 15.9447 74.8338 16.0381 74.3143 16.0381C73.7947 16.0381 73.3276 15.9447 72.9129 15.7578C72.4982 15.5664 72.1427 15.3021 71.8465 14.9648C71.5548 14.623 71.3315 14.2243 71.1766 13.7686C71.0216 13.3128 70.9441 12.8184 70.9441 12.2852ZM72.2088 12.1279V12.2852C72.2088 12.6543 72.2521 13.0029 72.3387 13.3311C72.4253 13.6546 72.5551 13.9417 72.7283 14.1924C72.9061 14.443 73.1271 14.6413 73.3914 14.7871C73.6557 14.9284 73.9633 14.999 74.3143 14.999C74.6606 14.999 74.9637 14.9284 75.2234 14.7871C75.4878 14.6413 75.7065 14.443 75.8797 14.1924C76.0529 13.9417 76.1827 13.6546 76.2693 13.3311C76.3605 13.0029 76.4061 12.6543 76.4061 12.2852V12.1279C76.4061 11.7633 76.3605 11.4193 76.2693 11.0957C76.1827 10.7676 76.0506 10.4782 75.8729 10.2275C75.6997 9.97233 75.4809 9.77181 75.2166 9.62598C74.9568 9.48014 74.6515 9.40723 74.3006 9.40723C73.9542 9.40723 73.6489 9.48014 73.3846 9.62598C73.1248 9.77181 72.9061 9.97233 72.7283 10.2275C72.5551 10.4782 72.4253 10.7676 72.3387 11.0957C72.2521 11.4193 72.2088 11.7633 72.2088 12.1279ZM83.7648 14.6367V10.8291C83.7648 10.5374 83.7056 10.2845 83.5871 10.0703C83.4731 9.85156 83.3 9.68294 83.0675 9.56445C82.8351 9.44596 82.548 9.38672 82.2062 9.38672C81.8872 9.38672 81.6069 9.44141 81.3654 9.55078C81.1284 9.66016 80.9416 9.80371 80.8048 9.98145C80.6727 10.1592 80.6066 10.3506 80.6066 10.5557H79.342C79.342 10.2913 79.4103 10.0293 79.547 9.76953C79.6838 9.50977 79.8797 9.27507 80.1349 9.06543C80.3947 8.85124 80.7046 8.68262 81.0646 8.55957C81.4292 8.43197 81.8348 8.36816 82.2814 8.36816C82.8192 8.36816 83.2931 8.45931 83.7033 8.6416C84.118 8.82389 84.4416 9.09961 84.674 9.46875C84.911 9.83333 85.0295 10.2913 85.0295 10.8428V14.2881C85.0295 14.5342 85.05 14.7962 85.091 15.0742C85.1365 15.3522 85.2026 15.5915 85.2892 15.792V15.9014H83.9699C83.9061 15.7555 83.856 15.5618 83.8195 15.3203C83.783 15.0742 83.7648 14.8464 83.7648 14.6367ZM83.9836 11.417L83.9972 12.3057H82.7189C82.3589 12.3057 82.0376 12.3353 81.755 12.3945C81.4725 12.4492 81.2355 12.5335 81.0441 12.6475C80.8527 12.7614 80.7069 12.9049 80.6066 13.0781C80.5063 13.2467 80.4562 13.445 80.4562 13.6729C80.4562 13.9053 80.5086 14.1172 80.6134 14.3086C80.7183 14.5 80.8755 14.6527 81.0851 14.7666C81.2993 14.876 81.5614 14.9307 81.8713 14.9307C82.2586 14.9307 82.6004 14.8486 82.8966 14.6846C83.1929 14.5205 83.4276 14.32 83.6007 14.083C83.7785 13.846 83.8742 13.6159 83.8879 13.3926L84.4279 14.001C84.396 14.1924 84.3094 14.4043 84.1681 14.6367C84.0268 14.8691 83.8377 15.0924 83.6007 15.3066C83.3683 15.5163 83.0903 15.6917 82.7668 15.833C82.4477 15.9697 82.0877 16.0381 81.6867 16.0381C81.1854 16.0381 80.7456 15.9401 80.3673 15.7441C79.9936 15.5482 79.702 15.2861 79.4923 14.958C79.2873 14.6253 79.1847 14.2539 79.1847 13.8438C79.1847 13.4473 79.2622 13.0986 79.4171 12.7979C79.5721 12.4925 79.7954 12.2396 80.0871 12.0391C80.3787 11.834 80.7296 11.679 81.1398 11.5742C81.55 11.4694 82.008 11.417 82.5138 11.417H83.9836ZM91.8208 14.4658V5.40137H93.0923V15.9014H91.9302L91.8208 14.4658ZM86.8443 12.2852V12.1416C86.8443 11.5765 86.9126 11.0638 87.0493 10.6035C87.1906 10.1387 87.3889 9.73991 87.6441 9.40723C87.9038 9.07454 88.2114 8.81934 88.5669 8.6416C88.9269 8.45931 89.328 8.36816 89.77 8.36816C90.2349 8.36816 90.6405 8.4502 90.9868 8.61426C91.3377 8.77376 91.634 9.00846 91.8755 9.31836C92.1216 9.6237 92.3153 9.99284 92.4566 10.4258C92.5978 10.8587 92.6958 11.3486 92.7505 11.8955V12.5244C92.7004 13.0667 92.6024 13.5544 92.4566 13.9873C92.3153 14.4202 92.1216 14.7894 91.8755 15.0947C91.634 15.4001 91.3377 15.6348 90.9868 15.7988C90.6359 15.9583 90.2258 16.0381 89.7564 16.0381C89.3234 16.0381 88.9269 15.9447 88.5669 15.7578C88.2114 15.571 87.9038 15.3089 87.6441 14.9717C87.3889 14.6344 87.1906 14.238 87.0493 13.7822C86.9126 13.3219 86.8443 12.8229 86.8443 12.2852ZM88.1157 12.1416V12.2852C88.1157 12.6543 88.1522 13.0007 88.2251 13.3242C88.3026 13.6478 88.4211 13.9326 88.5806 14.1787C88.7401 14.4248 88.9429 14.6185 89.189 14.7598C89.4351 14.8965 89.729 14.9648 90.0708 14.9648C90.4901 14.9648 90.8342 14.876 91.103 14.6982C91.3765 14.5205 91.5952 14.2858 91.7593 13.9941C91.9234 13.7025 92.051 13.3857 92.1421 13.0439V11.3965C92.0874 11.1458 92.0077 10.9043 91.9029 10.6719C91.8026 10.4349 91.6704 10.2253 91.5064 10.043C91.3469 9.85612 91.1486 9.70801 90.9116 9.59863C90.6792 9.48926 90.4035 9.43457 90.0845 9.43457C89.7381 9.43457 89.4396 9.50749 89.189 9.65332C88.9429 9.7946 88.7401 9.99056 88.5806 10.2412C88.4211 10.4873 88.3026 10.7744 88.2251 11.1025C88.1522 11.4261 88.1157 11.7725 88.1157 12.1416Z" fill="#3D5265"/>
<defs>
<clipPath id="clip0_1934_22341">
<rect width="22.7731" height="21.552" fill="white" transform="translate(0 0.0595703)"/>
</clipPath>
</defs>
</svg>
