<svg id="Layer_1" data-name="Layer 1" xmlns="http://www.w3.org/2000/svg" viewBox="0 0 296 150.45"><defs><style>.cls-1{fill:#71b28d;}.cls-1,.cls-2,.cls-3{fill-rule:evenodd;}.cls-2{fill:#3d9877;}.cls-3,.cls-5{fill:#028374;}.cls-4{fill:#fce913;stroke:#fce913;stroke-miterlimit:10;stroke-width:0.5px;}</style></defs><path class="cls-1" d="M71.4,32c21.43,14.41,28.92,32,28.92,47.94a28.92,28.92,0,1,1-57.84,0C42.58,64,49.21,45.83,71.4,32Z"/><path class="cls-2" d="M42.29,40.74C68,39.11,84.66,48.62,94.37,61.2A28.89,28.89,0,0,1,48.53,96.37C38.92,83.78,33.06,65.33,42.29,40.74Z"/><path class="cls-3" d="M25.09,67.54c19.41-17,38.43-19.6,53.81-15.47A28.89,28.89,0,1,1,64,107.89C48.53,103.76,32.77,92.62,25.09,67.54Z"/><path class="cls-4" d="M62.37,98.67l.67,2.11-1.83-1.34-1.83,1.34.67-2.11-1.83-1.34h2.31l.67-2.11.67,2.11h2.21Z"/><path class="cls-4" d="M72.84,101.45l.67,2.21-1.83-1.44-1.83,1.34.77-2.11-1.83-1.25,2.21-.1.67-2,.67,2h2.21Z"/><path class="cls-4" d="M91,91.08l.67,2.11-1.83-1.34L88,93.1,88.68,91,87,89.64h2.21l.67-2,.67,2h2.21Z"/><path class="cls-4" d="M83.31,98.67l.77,2.11-1.83-1.34-1.92,1.34L81,98.67l-1.73-1.34h2.21l.77-2.11.58,2.11H85Z"/><path class="cls-4" d="M54.68,91.08l.67,2.11-1.83-1.34L51.69,93.1,52.36,91l-1.73-1.35h2.21l.67-2,.67,2h2.21Z"/><path class="cls-4" d="M51.8,80.51l.77,2.11-1.83-1.34-1.83,1.34.67-2.11-1.73-1.25,2.11-.1.77-2.11.67,2.11h2.11Z"/><path class="cls-4" d="M62.37,62.35,63,64.56l-1.83-1.44-1.83,1.44.67-2.21L58.22,61.1h2.31L61.2,59l.67,2.11h2.21Z"/><path class="cls-4" d="M54.68,70l.67,2.11-1.83-1.34-1.83,1.34L52.36,70l-1.73-1.35h2.21l.67-2,.67,2h2.21Z"/><path class="cls-4" d="M72.84,59.47l.67,2.21-1.83-1.44-1.83,1.35.77-2.11-1.83-1.25,2.21-.1.67-2,.67,2h2.21Z"/><path class="cls-4" d="M83.31,62.35l.77,2.21-1.83-1.44-1.92,1.44L81,62.35,79.27,61.1h2.21L82.25,59l.58,2.11H85Z"/><path class="cls-4" d="M93.88,80.51l.67,2.11-1.73-1.34L90.9,82.62l.67-2.11-1.73-1.25,2.21-.1.77-2.11.58,2.11h2.21Z"/><path class="cls-4" d="M91,70l.67,2.11-1.83-1.34L88,72.15,88.68,70,87,68.69h2.21l.67-2,.67,2h2.21Z"/><path class="cls-5" d="M108,64.43h8.31V67h-5.23v3.1h4.88v2.5h-4.88V78H108Z"/><path class="cls-5" d="M127.73,73a5,5,0,0,1-5.21,5.26,4.83,4.83,0,0,1-5.1-5.08,4.92,4.92,0,0,1,5.27-5.23A4.79,4.79,0,0,1,127.73,73Zm-7.13.1c0,1.69.7,3,2,3s2-1.19,2-3c0-1.47-.57-3-2-3S120.6,71.62,120.6,73.08Z"/><path class="cls-5" d="M129.23,71.4c0-1.45,0-2.4-.08-3.25h2.64l.1,1.82H132a2.89,2.89,0,0,1,2.66-2,3.13,3.13,0,0,1,.64,0v2.88a4.39,4.39,0,0,0-.83-.08,2,2,0,0,0-2.09,1.56,3.58,3.58,0,0,0-.06.68v5h-3.07V71.4Z"/><path class="cls-5" d="M139.1,74.06c.1,1.27,1.36,1.87,2.79,1.87a8.74,8.74,0,0,0,2.72-.4l.4,2.08a9.81,9.81,0,0,1-3.57.61c-3.35,0-5.27-1.94-5.27-5,0-2.5,1.56-5.26,5-5.26,3.19,0,4.4,2.48,4.4,4.92a7.26,7.26,0,0,1-.1,1.21ZM142.7,72A1.79,1.79,0,0,0,141,70a2,2,0,0,0-1.89,2Z"/><path class="cls-5" d="M147.37,75.34a5.94,5.94,0,0,0,2.64.75c.93,0,1.31-.33,1.31-.83s-.3-.75-1.45-1.13c-2-.68-2.82-1.8-2.81-3,0-1.84,1.58-3.23,4-3.23a6.54,6.54,0,0,1,2.79.57l-.55,2.11a4.85,4.85,0,0,0-2.14-.57c-.75,0-1.17.3-1.17.81s.38.7,1.59,1.13c1.87.64,2.66,1.59,2.68,3,0,1.83-1.45,3.19-4.28,3.19a7.06,7.06,0,0,1-3.19-.68Z"/><path class="cls-5" d="M159.58,65.33v2.82h2.2v2.26h-2.2V74c0,1.19.28,1.74,1.21,1.74a5,5,0,0,0,.9-.08l0,2.32a6.06,6.06,0,0,1-2,.26,3.2,3.2,0,0,1-2.3-.85,4.08,4.08,0,0,1-.85-2.92v-4h-1.31V68.16h1.31V66Z"/><path class="cls-5" d="M170,64.43V78h-3.08V64.43Z"/><path class="cls-5" d="M172.63,71.31c0-1.23,0-2.28-.08-3.15h2.66l.14,1.35h.06a3.62,3.62,0,0,1,3.05-1.58c2,0,3.53,1.34,3.53,4.24V78h-3.07V72.55c0-1.27-.44-2.14-1.56-2.14a1.66,1.66,0,0,0-1.56,1.15,2.11,2.11,0,0,0-.12.77V78h-3.07l0-6.71Z"/><path class="cls-5" d="M184.8,78V70.41h-1.29V68.15h1.29v-.38a4.5,4.5,0,0,1,1.25-3.3,4,4,0,0,1,2.72-1,5.92,5.92,0,0,1,1.63.2L190.28,66a3.36,3.36,0,0,0-1-.14c-1,0-1.43.79-1.43,1.76v.5h2v2.26h-2V78H184.8Z"/><path class="cls-5" d="M200.87,73a5,5,0,0,1-5.21,5.26,4.83,4.83,0,0,1-5.1-5.08,4.92,4.92,0,0,1,5.27-5.23A4.79,4.79,0,0,1,200.87,73Zm-7.14.1c0,1.69.7,3,2,3s2-1.19,2-3c0-1.47-.57-3-2-3S193.73,71.62,193.73,73.08Z"/><path class="cls-5" d="M202.78,71.4c0-1.45,0-2.4-.08-3.25h2.64l.1,1.82h.08a2.91,2.91,0,0,1,2.66-2,3.13,3.13,0,0,1,.64,0v2.88a4.39,4.39,0,0,0-.83-.08,2,2,0,0,0-2.09,1.56,3.58,3.58,0,0,0-.06.68v5h-3.07V71.4Z"/><path class="cls-5" d="M210.44,71.31c0-1.23,0-2.28-.08-3.15h2.58l.14,1.34h.06a3.43,3.43,0,0,1,3-1.56,2.78,2.78,0,0,1,2.7,1.67h0a4.74,4.74,0,0,1,1.27-1.19,3.5,3.5,0,0,1,1.87-.48c1.89,0,3.32,1.34,3.32,4.28V78h-3V72.66c0-1.43-.46-2.26-1.45-2.26a1.5,1.5,0,0,0-1.41,1.07,2.61,2.61,0,0,0-.12.79V78h-3V72.51c0-1.25-.44-2.09-1.41-2.09a1.56,1.56,0,0,0-1.43,1.1,1.88,1.88,0,0,0-.12.77V78h-3V71.32h0Z"/><path class="cls-5" d="M233.41,78l-.18-1h-.06a3.53,3.53,0,0,1-2.82,1.21,3,3,0,0,1-3.19-3c0-2.57,2.3-3.79,5.79-3.78v-.14c0-.53-.28-1.27-1.8-1.27a5.55,5.55,0,0,0-2.72.75l-.57-2a8.18,8.18,0,0,1,3.83-.86c3.29,0,4.33,1.94,4.33,4.26v3.43a15.44,15.44,0,0,0,.14,2.4ZM233,73.36c-1.61,0-2.86.36-2.86,1.56a1.1,1.1,0,0,0,1.21,1.17A1.68,1.68,0,0,0,233,75a2.26,2.26,0,0,0,.06-.53V73.36Z"/><path class="cls-5" d="M241.72,65.33v2.82h2.2v2.26h-2.2V74c0,1.19.28,1.74,1.21,1.74a5,5,0,0,0,.9-.08l0,2.32a6.06,6.06,0,0,1-2,.26,3.2,3.2,0,0,1-2.3-.85,4.08,4.08,0,0,1-.85-2.92v-4h-1.31V68.16h1.31V66Z"/><path class="cls-5" d="M248.86,65.42A1.54,1.54,0,0,1,247.21,67a1.55,1.55,0,1,1,0-3.1A1.54,1.54,0,0,1,248.86,65.42ZM245.7,78V68.15h3.07V78Z"/><path class="cls-5" d="M261,73a5,5,0,0,1-5.21,5.26,4.83,4.83,0,0,1-5.1-5.08,4.92,4.92,0,0,1,5.27-5.23A4.79,4.79,0,0,1,261,73Zm-7.13.1c0,1.69.71,3,2,3s2-1.19,2-3c0-1.47-.57-3-2-3S253.83,71.62,253.83,73.08Z"/><path class="cls-5" d="M262.46,71.31c0-1.23,0-2.28-.08-3.15H265l.14,1.35h.06a3.62,3.62,0,0,1,3.05-1.58c2,0,3.53,1.34,3.53,4.24V78h-3.07V72.55c0-1.27-.44-2.14-1.56-2.14a1.66,1.66,0,0,0-1.56,1.15,2.11,2.11,0,0,0-.12.77V78h-3.07l0-6.71Z"/><path class="cls-5" d="M108.09,92.15a7.88,7.88,0,0,0,3.41.85c1.41,0,2.16-.59,2.16-1.47s-.64-1.34-2.28-1.92c-2.26-.79-3.73-2-3.73-4,0-2.33,1.94-4.09,5.14-4.09a8.54,8.54,0,0,1,3.47.68l-.68,2.48a6.51,6.51,0,0,0-2.84-.64c-1.34,0-2,.61-2,1.31,0,.86.77,1.25,2.52,1.92,2.4.88,3.53,2.14,3.53,4,0,2.28-1.76,4.22-5.49,4.22a8.78,8.78,0,0,1-3.85-.83Z"/><path class="cls-5" d="M120.78,85.45l1.47,4.84c.16.59.37,1.32.48,1.84h.06c.14-.53.3-1.27.44-1.84l1.21-4.84h3.29l-2.3,6.49c-1.41,3.91-2.36,5.49-3.47,6.48a5.63,5.63,0,0,1-3,1.35l-.64-2.6a3.91,3.91,0,0,0,1.34-.53A3.55,3.55,0,0,0,121,95.41a.79.79,0,0,0,.16-.44,1.1,1.1,0,0,0-.14-.5l-3.61-9Z"/><path class="cls-5" d="M129.09,92.63a5.94,5.94,0,0,0,2.64.75c.93,0,1.31-.33,1.31-.83s-.3-.75-1.45-1.13c-2-.68-2.82-1.8-2.81-3,0-1.84,1.58-3.23,4-3.23a6.54,6.54,0,0,1,2.79.57L135,87.9a4.85,4.85,0,0,0-2.14-.57c-.75,0-1.17.31-1.17.81s.38.71,1.59,1.13c1.87.64,2.66,1.59,2.68,3,0,1.83-1.45,3.19-4.28,3.19a7.06,7.06,0,0,1-3.19-.68Z"/><path class="cls-5" d="M141.29,82.62v2.82h2.2V87.7h-2.2v3.57c0,1.19.28,1.74,1.21,1.74a5,5,0,0,0,.9-.08l0,2.32a6.06,6.06,0,0,1-2,.26,3.2,3.2,0,0,1-2.3-.85,4.08,4.08,0,0,1-.85-2.92v-4H137V85.44h1.31V83.3Z"/><path class="cls-5" d="M147.93,91.36c.1,1.27,1.36,1.87,2.79,1.87a8.74,8.74,0,0,0,2.72-.4l.4,2.08a9.82,9.82,0,0,1-3.57.6c-3.35,0-5.27-1.94-5.27-5,0-2.5,1.56-5.27,5-5.27,3.19,0,4.4,2.48,4.4,4.92a7.26,7.26,0,0,1-.1,1.21Zm3.61-2.1a1.79,1.79,0,0,0-1.74-2,2,2,0,0,0-1.89,2Z"/><path class="cls-5" d="M156.22,88.6c0-1.23,0-2.28-.08-3.15h2.58l.14,1.34h.06a3.43,3.43,0,0,1,3-1.56,2.78,2.78,0,0,1,2.7,1.67h0a4.74,4.74,0,0,1,1.27-1.19,3.5,3.5,0,0,1,1.87-.48c1.89,0,3.32,1.34,3.32,4.28v5.81h-3V90c0-1.43-.46-2.26-1.45-2.26a1.5,1.5,0,0,0-1.41,1.07,2.61,2.61,0,0,0-.12.79v5.76h-3V89.8c0-1.25-.44-2.09-1.41-2.09a1.56,1.56,0,0,0-1.43,1.1,2.07,2.07,0,0,0-.12.77v5.75h-3V88.61h0Z"/><path class="cls-5" d="M177.59,95.32V87.71H176.3V85.45h1.29v-.38a4.5,4.5,0,0,1,1.25-3.3,4,4,0,0,1,2.72-1,5.92,5.92,0,0,1,1.63.2l-.12,2.36a3.36,3.36,0,0,0-1-.14c-1,0-1.43.79-1.43,1.76v.5h2v2.26h-2v7.61h-3.08Z"/><path class="cls-5" d="M193.68,90.27a5,5,0,0,1-5.21,5.26,4.83,4.83,0,0,1-5.1-5.08,4.92,4.92,0,0,1,5.27-5.23A4.81,4.81,0,0,1,193.68,90.27Zm-7.15.11c0,1.69.7,3,2,3s2-1.19,2-3c0-1.47-.57-3-2-3S186.53,88.92,186.53,90.38Z"/><path class="cls-5" d="M195.57,88.7c0-1.45,0-2.4-.08-3.25h2.64l.1,1.82h.08a2.89,2.89,0,0,1,2.66-2,3.13,3.13,0,0,1,.64,0v2.88a4.39,4.39,0,0,0-.83-.08,2,2,0,0,0-2.09,1.56,3.58,3.58,0,0,0-.06.68v5h-3.07V88.7Z"/><path class="cls-5" d="M214.3,89.57h-5V92.8h5.59v2.53H206.2V81.73h8.39v2.52h-5.3v2.82h5v2.5Z"/><path class="cls-5" d="M226,92.15c0,1.29,0,2.34.08,3.17H223.4l-.14-1.39h-.06a3.5,3.5,0,0,1-3.08,1.61c-2,0-3.47-1.25-3.47-4.29V85.46h3.08v5.3c0,1.43.46,2.3,1.54,2.3A1.66,1.66,0,0,0,222.81,92a1.69,1.69,0,0,0,.11-.66V85.46H226l0,6.69Z"/><path class="cls-5" d="M228.84,88.7c0-1.45,0-2.4-.08-3.25h2.64l.1,1.82h.08a2.91,2.91,0,0,1,2.66-2,3.13,3.13,0,0,1,.64,0v2.88a4.39,4.39,0,0,0-.83-.08A2,2,0,0,0,232,89.63a3.58,3.58,0,0,0-.06.68v5h-3.07V88.7Z"/><path class="cls-5" d="M246.09,90.27a5,5,0,0,1-5.21,5.26,4.83,4.83,0,0,1-5.1-5.08,4.92,4.92,0,0,1,5.27-5.23A4.81,4.81,0,0,1,246.09,90.27Zm-7.14.11c0,1.69.71,3,2,3s2-1.19,2-3c0-1.47-.57-3-2-3S239,88.92,239,90.38Z"/><path class="cls-5" d="M248,88.76c0-1.29,0-2.4-.08-3.3h2.66l.14,1.37h0A3.78,3.78,0,0,1,254,85.24c2.16,0,4.09,1.87,4.09,5,0,3.59-2.28,5.28-4.48,5.28a3.08,3.08,0,0,1-2.57-1.13h0v4.9H248Zm3.07,2.32a3,3,0,0,0,.06.64,1.84,1.84,0,0,0,1.8,1.45c1.34,0,2.12-1.11,2.12-2.79s-.7-2.77-2.08-2.77a1.94,1.94,0,0,0-1.84,1.56,2.38,2.38,0,0,0-.06.55v1.36Z"/><path class="cls-5" d="M262.48,91.36c.11,1.27,1.36,1.87,2.79,1.87a8.74,8.74,0,0,0,2.72-.4l.4,2.08a9.82,9.82,0,0,1-3.57.6c-3.35,0-5.27-1.94-5.27-5,0-2.5,1.56-5.27,5-5.27,3.19,0,4.4,2.48,4.4,4.92a6.11,6.11,0,0,1-.11,1.21Zm3.61-2.1a1.78,1.78,0,0,0-1.73-2,2,2,0,0,0-1.89,2Z"/></svg>