<svg id="Layer_1" data-name="Layer 1" xmlns="http://www.w3.org/2000/svg" viewBox="0 0 262.1 101"><path d="M52.5,14.4c21.4,14.4,28.9,32,28.9,47.9a28.9,28.9,0,0,1-57.8,0C23.7,46.4,30.3,28.3,52.5,14.4Z" style="fill:#71b28d;fill-rule:evenodd"/><path d="M23.4,23.2c25.8-1.6,42.4,7.9,52.1,20.5A28.92,28.92,0,0,1,29.6,78.9C20,66.2,14.2,47.8,23.4,23.2Z" style="fill:#3d9877;fill-rule:evenodd"/><path d="M6.2,50C25.6,33,44.6,30.4,60,34.5A28.93,28.93,0,0,1,45.1,90.4C29.6,86.2,13.9,75.1,6.2,50Z" style="fill:#028374;fill-rule:evenodd"/><path d="M43.5,81.1l.7,2.1-1.8-1.3-1.8,1.3.7-2.1-1.8-1.3h2.3l.7-2.1.7,2.1h2.2Z" style="fill:#fce913;stroke:#fce913;stroke-miterlimit:10;stroke-width:0.5px"/><path d="M53.9,83.9l.7,2.2-1.8-1.4L51,86l.8-2.1L50,82.7l2.2-.1.7-2,.7,2h2.2Z" style="fill:#fce913;stroke:#fce913;stroke-miterlimit:10;stroke-width:0.5px"/><path d="M72.1,73.5l.7,2.1L71,74.3l-1.8,1.2.7-2.1-1.7-1.3h2.2l.7-2,.7,2H74Z" style="fill:#fce913;stroke:#fce913;stroke-miterlimit:10;stroke-width:0.5px"/><path d="M64.4,81.1l.8,2.1-1.8-1.3-1.9,1.3.7-2.1-1.7-1.3h2.2l.8-2.1.6,2.1h2.2Z" style="fill:#fce913;stroke:#fce913;stroke-miterlimit:10;stroke-width:0.5px"/><path d="M35.8,73.5l.7,2.1-1.8-1.3-1.8,1.2.7-2.1-1.7-1.3h2.2l.7-2,.7,2h2.2Z" style="fill:#fce913;stroke:#fce913;stroke-miterlimit:10;stroke-width:0.5px"/><path d="M32.9,63l.8,2.1-1.8-1.3-1.8,1.3.7-2.1-1.7-1.2,2.1-.1.8-2.1.7,2.1h2.1Z" style="fill:#fce913;stroke:#fce913;stroke-miterlimit:10;stroke-width:0.5px"/><path d="M43.5,44.8l.7,2.2-1.8-1.4L40.6,47l.7-2.2-1.8-1.2h2.3l.7-2.1.7,2.1h2.2Z" style="fill:#fce913;stroke:#fce913;stroke-miterlimit:10;stroke-width:0.5px"/><path d="M35.8,52.5l.7,2.1-1.8-1.3-1.8,1.3.7-2.1-1.7-1.3h2.2l.7-2,.7,2h2.2Z" style="fill:#fce913;stroke:#fce913;stroke-miterlimit:10;stroke-width:0.5px"/><path d="M53.9,41.9l.7,2.2-1.8-1.4L51,44l.8-2.1L50,40.7l2.2-.1.7-2,.7,2h2.2Z" style="fill:#fce913;stroke:#fce913;stroke-miterlimit:10;stroke-width:0.5px"/><path d="M64.4,44.8l.8,2.2-1.8-1.4L61.5,47l.7-2.2-1.7-1.2h2.2l.8-2.1.6,2.1h2.2Z" style="fill:#fce913;stroke:#fce913;stroke-miterlimit:10;stroke-width:0.5px"/><path d="M75,63l.7,2.1L74,63.8l-1.9,1.3.7-2.1-1.7-1.2,2.2-.1.8-2.1.6,2.1h2.2Z" style="fill:#fce913;stroke:#fce913;stroke-miterlimit:10;stroke-width:0.5px"/><path d="M72.1,52.5l.7,2.1L71,53.3l-1.8,1.3.7-2.1-1.7-1.3h2.2l.7-2,.7,2H74Z" style="fill:#fce913;stroke:#fce913;stroke-miterlimit:10;stroke-width:0.5px"/><path d="M89.1,46.9h8.3v2.5H92.2v3.1h4.9V55H92.2v5.5H89.1V46.9Z" style="fill:#028374"/><path d="M108.8,55.4a5,5,0,0,1-5.2,5.3,4.83,4.83,0,0,1-5.1-5.1,4.91,4.91,0,0,1,5.3-5.2A4.78,4.78,0,0,1,108.8,55.4Zm-7.1.1c0,1.7.7,3,2,3s2-1.2,2-3c0-1.5-.6-3-2-3S101.7,54.1,101.7,55.5Z" style="fill:#028374"/><path d="M110.3,53.8a27.33,27.33,0,0,0-.1-3.2h2.6l.1,1.8h.1a2.89,2.89,0,0,1,2.7-2h.6v2.9c-.2,0-.5-.1-.8-.1a2,2,0,0,0-2.1,1.6c0,.2-.1.4-.1.7v5h-3.1l.1-6.7Z" style="fill:#028374"/><path d="M120.2,56.5c.1,1.3,1.4,1.9,2.8,1.9a7.66,7.66,0,0,0,2.7-.4l.4,2.1a9.69,9.69,0,0,1-3.6.6c-3.3,0-5.3-1.9-5.3-5,0-2.5,1.6-5.3,5-5.3,3.2,0,4.4,2.5,4.4,4.9,0,.5-.1,1-.1,1.2Zm3.6-2.1c0-.8-.3-2-1.7-2a2,2,0,0,0-1.9,2Z" style="fill:#028374"/><path d="M128.5,57.8a6.63,6.63,0,0,0,2.6.8c.9,0,1.3-.3,1.3-.8s-.3-.8-1.4-1.1c-2-.7-2.8-1.8-2.8-3,0-1.8,1.6-3.2,4-3.2a6.48,6.48,0,0,1,2.8.6l-.6,2.1a5.25,5.25,0,0,0-2.1-.6c-.8,0-1.2.3-1.2.8s.4.7,1.6,1.1c1.9.6,2.7,1.6,2.7,3,0,1.8-1.4,3.2-4.3,3.2a7.22,7.22,0,0,1-3.2-.7Z" style="fill:#028374"/><path d="M140.7,47.8v2.8h2.2v2.3h-2.2v3.6c0,1.2.3,1.7,1.2,1.7a2.22,2.22,0,0,0,.9-.1v2.3a4.92,4.92,0,0,1-2,.3,3.2,3.2,0,0,1-2.3-.8,3.88,3.88,0,0,1-.8-2.9V53h-1.3V50.7h1.3V48.5Z" style="fill:#028374"/><path d="M151.1,46.9V60.5H148V46.9Z" style="fill:#028374"/><path d="M153.7,53.8a31.12,31.12,0,0,0-.1-3.2h2.7l.1,1.3h.1a3.64,3.64,0,0,1,3-1.6c2,0,3.5,1.3,3.5,4.2v5.8h-3.1V54.8c0-1.3-.4-2.1-1.6-2.1a1.64,1.64,0,0,0-1.6,1.2,2,2,0,0,0-.1.8v5.7h-3.1l.2-6.6Z" style="fill:#028374"/><path d="M165.9,60.5V52.9h-1.3V50.6h1.3v-.4a4.79,4.79,0,0,1,1.2-3.3,4.12,4.12,0,0,1,2.7-1,6.27,6.27,0,0,1,1.6.2l-.1,2.4a3.08,3.08,0,0,0-1-.1c-1,0-1.4.8-1.4,1.8v.5h2V53h-2v7.6l-3-.1Z" style="fill:#028374"/><path d="M182,55.4a5,5,0,0,1-5.2,5.3,4.83,4.83,0,0,1-5.1-5.1,4.91,4.91,0,0,1,5.3-5.2A4.78,4.78,0,0,1,182,55.4Zm-7.2.1c0,1.7.7,3,2,3s2-1.2,2-3c0-1.5-.6-3-2-3S174.8,54.1,174.8,55.5Z" style="fill:#028374"/><path d="M183.9,53.8a27.33,27.33,0,0,0-.1-3.2h2.6l.1,1.8h.1a2.89,2.89,0,0,1,2.7-2h.6v2.9c-.2,0-.5-.1-.8-.1a2,2,0,0,0-2.1,1.6c0,.2-.1.4-.1.7v5h-3.1l.1-6.7Z" style="fill:#028374"/><path d="M191.5,53.8a31.12,31.12,0,0,0-.1-3.2H194l.1,1.3h.1a3.48,3.48,0,0,1,3-1.6,2.67,2.67,0,0,1,2.7,1.7h0a4.89,4.89,0,0,1,1.3-1.2,3.56,3.56,0,0,1,1.9-.5c1.9,0,3.3,1.3,3.3,4.3v5.8h-3V55c0-1.4-.5-2.3-1.4-2.3a1.5,1.5,0,0,0-1.4,1.1,2,2,0,0,0-.1.8v5.8h-3V54.9c0-1.2-.4-2.1-1.4-2.1a1.52,1.52,0,0,0-1.4,1.1,2,2,0,0,0-.1.8v5.8h-3l-.1-6.7Z" style="fill:#028374"/><path d="M214.5,60.5l-.2-1h-.1a3.49,3.49,0,0,1-2.8,1.2,3.06,3.06,0,0,1-3.2-3c0-2.6,2.3-3.8,5.8-3.8v-.1c0-.5-.3-1.3-1.8-1.3a4.55,4.55,0,0,0-2.7.8l-.6-2a7.76,7.76,0,0,1,3.8-.9c3.3,0,4.3,1.9,4.3,4.3v3.4a16.27,16.27,0,0,0,.1,2.4Zm-.4-4.7c-1.6,0-2.9.4-2.9,1.6a1.1,1.1,0,0,0,1.2,1.2,1.66,1.66,0,0,0,1.6-1.1c0-.2.1-.3.1-.5V55.8Z" style="fill:#028374"/><path d="M222.8,47.8v2.8H225v2.3h-2.2v3.6c0,1.2.3,1.7,1.2,1.7a2.22,2.22,0,0,0,.9-.1v2.3a4.92,4.92,0,0,1-2,.3,3.2,3.2,0,0,1-2.3-.8,3.88,3.88,0,0,1-.8-2.9V53h-1.3V50.7h1.3V48.5Z" style="fill:#028374"/><path d="M230,47.9a1.53,1.53,0,0,1-1.7,1.5,1.5,1.5,0,0,1-1.6-1.5,1.52,1.52,0,0,1,1.6-1.6A1.67,1.67,0,0,1,230,47.9Zm-3.2,12.6V50.6h3.1v9.9Z" style="fill:#028374"/><path d="M242.1,55.4a5,5,0,0,1-5.2,5.3,4.83,4.83,0,0,1-5.1-5.1,4.91,4.91,0,0,1,5.3-5.2A4.78,4.78,0,0,1,242.1,55.4Zm-7.2.1c0,1.7.7,3,2,3s2-1.2,2-3c0-1.5-.6-3-2-3S234.9,54.1,234.9,55.5Z" style="fill:#028374"/><path d="M243.6,53.8a31.12,31.12,0,0,0-.1-3.2h2.7l.1,1.3h.1a3.69,3.69,0,0,1,3.1-1.6c2,0,3.5,1.3,3.5,4.2v5.8h-3.1V54.8c0-1.3-.4-2.1-1.6-2.1a1.86,1.86,0,0,0-1.6,1.2,2,2,0,0,0-.1.8v5.7h-3.1l.1-6.6Z" style="fill:#028374"/><path d="M89.2,74.6a8.11,8.11,0,0,0,3.4.8c1.4,0,2.2-.6,2.2-1.5s-.6-1.3-2.3-1.9c-2.3-.8-3.7-2-3.7-4,0-2.3,1.9-4.1,5.1-4.1a8,8,0,0,1,3.5.7l-.7,2.5a6.13,6.13,0,0,0-2.8-.6c-1.3,0-2,.6-2,1.3,0,.9.8,1.2,2.5,1.9,2.4.9,3.5,2.1,3.5,4,0,2.3-1.8,4.2-5.5,4.2a8.62,8.62,0,0,1-3.8-.8Z" style="fill:#028374"/><path d="M101.9,67.9l1.5,4.8a16.69,16.69,0,0,1,.5,1.8h.1c.1-.5.3-1.3.4-1.8l1.2-4.8h3.3l-2.3,6.5c-1.4,3.9-2.4,5.5-3.5,6.5a5.81,5.81,0,0,1-3,1.3l-.6-2.6a3.49,3.49,0,0,0,1.3-.5,3,3,0,0,0,1.3-1.2.76.76,0,0,0,.2-.4,1.09,1.09,0,0,0-.1-.5l-3.6-9,3.3-.1Z" style="fill:#028374"/><path d="M110.2,75.1a6.63,6.63,0,0,0,2.6.8c.9,0,1.3-.3,1.3-.8s-.3-.8-1.4-1.1c-2-.7-2.8-1.8-2.8-3,0-1.8,1.6-3.2,4-3.2a6.48,6.48,0,0,1,2.8.6l-.6,2.1a5.25,5.25,0,0,0-2.1-.6c-.8,0-1.2.3-1.2.8s.4.7,1.6,1.1c1.9.6,2.7,1.6,2.7,3,0,1.8-1.5,3.2-4.3,3.2a7.22,7.22,0,0,1-3.2-.7Z" style="fill:#028374"/><path d="M122.4,65.1v2.8h2.2v2.3h-2.2v3.6c0,1.2.3,1.7,1.2,1.7a2.22,2.22,0,0,0,.9-.1v2.3a4.92,4.92,0,0,1-2,.3,3.2,3.2,0,0,1-2.3-.8,3.88,3.88,0,0,1-.8-2.9v-4h-1.3V68h1.3V65.9Z" style="fill:#028374"/><path d="M129,73.8c.1,1.3,1.4,1.9,2.8,1.9a7.32,7.32,0,0,0,2.7-.4l.4,2.1a9.69,9.69,0,0,1-3.6.6c-3.3,0-5.3-1.9-5.3-5,0-2.5,1.6-5.3,5-5.3,3.2,0,4.4,2.5,4.4,4.9,0,.5-.1,1-.1,1.2Zm3.6-2.1c0-.8-.3-2-1.7-2a2,2,0,0,0-1.9,2Z" style="fill:#028374"/><path d="M137.3,71a31.12,31.12,0,0,0-.1-3.2h2.6l.1,1.3h.1a3.48,3.48,0,0,1,3-1.6,2.67,2.67,0,0,1,2.7,1.7h0A4.89,4.89,0,0,1,147,68a3.83,3.83,0,0,1,1.9-.5c1.9,0,3.3,1.3,3.3,4.3v5.8h-3V72.2c0-1.4-.5-2.3-1.5-2.3a1.5,1.5,0,0,0-1.4,1.1,2,2,0,0,0-.1.8v5.8h-3V72.1c0-1.2-.4-2.1-1.4-2.1a1.52,1.52,0,0,0-1.4,1.1,2,2,0,0,0-.1.8v5.8h-3V71Z" style="fill:#028374"/><path d="M158.7,77.8V70.2h-1.3V67.9h1.3v-.4a4.79,4.79,0,0,1,1.2-3.3,4.12,4.12,0,0,1,2.7-1,6.27,6.27,0,0,1,1.6.2l-.1,2.4a3.08,3.08,0,0,0-1-.1c-1,0-1.4.8-1.4,1.8V68h2v2.3h-2v7.6l-3-.1Z" style="fill:#028374"/><path d="M174.8,72.7a5,5,0,0,1-5.2,5.3,4.83,4.83,0,0,1-5.1-5.1,4.91,4.91,0,0,1,5.3-5.2A4.72,4.72,0,0,1,174.8,72.7Zm-7.2.1c0,1.7.7,3,2,3s2-1.2,2-3c0-1.5-.6-3-2-3S167.6,71.4,167.6,72.8Z" style="fill:#028374"/><path d="M176.7,71.1a27.33,27.33,0,0,0-.1-3.2h2.6l.1,1.8h.1a2.89,2.89,0,0,1,2.7-2h.6v2.9c-.2,0-.5-.1-.8-.1a2,2,0,0,0-2.1,1.6c0,.2-.1.4-.1.7v5h-3.1l.1-6.7Z" style="fill:#028374"/><path d="M195.4,72h-5v3.2H196v2.5h-8.7V64.1h8.4v2.5h-5.3v2.8h5V72Z" style="fill:#028374"/><path d="M207.1,74.6a30.14,30.14,0,0,0,.1,3.2h-2.7l-.1-1.4h-.1a3.54,3.54,0,0,1-3.1,1.6c-2,0-3.5-1.2-3.5-4.3V67.9h3.1v5.3c0,1.4.5,2.3,1.5,2.3a1.55,1.55,0,0,0,1.5-1.1,1.48,1.48,0,0,0,.1-.7V67.8H207l.1,6.8Z" style="fill:#028374"/><path d="M209.9,71.1a27.33,27.33,0,0,0-.1-3.2h2.6l.1,1.8h.1a2.89,2.89,0,0,1,2.7-2h.6v2.9c-.2,0-.5-.1-.8-.1a2,2,0,0,0-2.1,1.6c0,.2-.1.4-.1.7v5h-3.1l.1-6.7Z" style="fill:#028374"/><path d="M227.2,72.7A5,5,0,0,1,222,78a4.83,4.83,0,0,1-5.1-5.1,4.91,4.91,0,0,1,5.3-5.2A4.72,4.72,0,0,1,227.2,72.7Zm-7.1.1c0,1.7.7,3,2,3s2-1.2,2-3c0-1.5-.6-3-2-3S220.1,71.4,220.1,72.8Z" style="fill:#028374"/><path d="M229.1,71.2a32.18,32.18,0,0,0-.1-3.3h2.7l.1,1.4h0a3.81,3.81,0,0,1,3.3-1.6c2.2,0,4.1,1.9,4.1,5,0,3.6-2.3,5.3-4.5,5.3a3.34,3.34,0,0,1-2.6-1.1h0v4.9H229V71.2Zm3.1,2.3c0,.2,0,.5.1.6a1.92,1.92,0,0,0,1.8,1.5c1.3,0,2.1-1.1,2.1-2.8s-.7-2.8-2.1-2.8a1.82,1.82,0,0,0-1.8,1.6,4.33,4.33,0,0,1-.1.5v1.4Z" style="fill:#028374"/><path d="M243.6,73.8c.1,1.3,1.4,1.9,2.8,1.9a7.32,7.32,0,0,0,2.7-.4l.4,2.1a9.69,9.69,0,0,1-3.6.6c-3.4,0-5.3-1.9-5.3-5,0-2.5,1.6-5.3,5-5.3,3.2,0,4.4,2.5,4.4,4.9,0,.5-.1,1-.1,1.2Zm3.6-2.1c0-.8-.3-2-1.7-2a2,2,0,0,0-1.9,2Z" style="fill:#028374"/></svg>