<svg id="Layer_1" data-name="Layer 1" xmlns="http://www.w3.org/2000/svg" viewBox="0 0 283.7 119.88"><defs><style>.fise-cls-1{fill:#71b28d;}.fise-cls-1,.fise-cls-2,.fise-cls-3{fill-rule:evenodd;}.fise-cls-2{fill:#3d9877;}.fise-cls-3,.fise-cls-5{fill:#028374;}.fise-cls-4{fill:#fce913;stroke:#fce913;stroke-miterlimit:10;stroke-width:0.5px;}</style></defs><path class="fise-cls-1" d="M60.1,22.4C81.5,36.8,89,54.4,89,70.3a28.9,28.9,0,0,1-57.8,0C31.3,54.4,37.9,36.3,60.1,22.4Z"/><path class="fise-cls-2" d="M31,31.2c25.8-1.6,42.4,7.9,52.1,20.5A28.92,28.92,0,0,1,37.2,86.9C27.6,74.2,21.8,55.8,31,31.2Z"/><path class="fise-cls-3" d="M13.8,58C33.2,41,52.2,38.4,67.6,42.5A28.93,28.93,0,0,1,52.7,98.4C37.2,94.2,21.5,83.1,13.8,58Z"/><path class="fise-cls-4" d="M51.1,89.1l.7,2.1L50,89.9l-1.8,1.3.7-2.1-1.8-1.3h2.3l.7-2.1.7,2.1H53Z"/><path class="fise-cls-4" d="M61.5,91.9l.7,2.2-1.8-1.4L58.6,94l.8-2.1-1.8-1.2,2.2-.1.7-2,.7,2h2.2Z"/><path class="fise-cls-4" d="M79.7,81.5l.7,2.1-1.8-1.3-1.8,1.2.7-2.1-1.7-1.3H78l.7-2,.7,2h2.2Z"/><path class="fise-cls-4" d="M72,89.1l.8,2.1L71,89.9l-1.9,1.3.7-2.1-1.7-1.3h2.2l.8-2.1.6,2.1h2.2Z"/><path class="fise-cls-4" d="M43.4,81.5l.7,2.1-1.8-1.3-1.8,1.2.7-2.1-1.7-1.3h2.2l.7-2,.7,2h2.2Z"/><path class="fise-cls-4" d="M40.5,71l.8,2.1-1.8-1.3-1.8,1.3.7-2.1-1.7-1.2,2.1-.1.8-2.1.7,2.1h2.1Z"/><path class="fise-cls-4" d="M51.1,52.8l.7,2.2L50,53.6,48.2,55l.7-2.2-1.8-1.2h2.3l.7-2.1.7,2.1H53Z"/><path class="fise-cls-4" d="M43.4,60.5l.7,2.1-1.8-1.3-1.8,1.3.7-2.1-1.7-1.3h2.2l.7-2,.7,2h2.2Z"/><path class="fise-cls-4" d="M61.5,49.9l.7,2.2-1.8-1.4L58.6,52l.8-2.1-1.8-1.2,2.2-.1.7-2,.7,2h2.2Z"/><path class="fise-cls-4" d="M72,52.8l.8,2.2L71,53.6,69.1,55l.7-2.2-1.7-1.2h2.2l.8-2.1.6,2.1h2.2Z"/><path class="fise-cls-4" d="M82.6,71l.7,2.1-1.7-1.3-1.9,1.3.7-2.1-1.7-1.2,2.2-.1.8-2.1.6,2.1h2.2Z"/><path class="fise-cls-4" d="M79.7,60.5l.7,2.1-1.8-1.3-1.8,1.3.7-2.1-1.7-1.3H78l.7-2,.7,2h2.2Z"/><path class="fise-cls-5" d="M96.7,54.9H105v2.5H99.8v3.1h4.9V63H99.8v5.5H96.7V54.9Z"/><path class="fise-cls-5" d="M116.4,63.4a5,5,0,0,1-5.2,5.3,4.83,4.83,0,0,1-5.1-5.1,4.91,4.91,0,0,1,5.3-5.2A4.78,4.78,0,0,1,116.4,63.4Zm-7.1.1c0,1.7.7,3,2,3s2-1.2,2-3c0-1.5-.6-3-2-3S109.3,62.1,109.3,63.5Z"/><path class="fise-cls-5" d="M117.9,61.8a27.33,27.33,0,0,0-.1-3.2h2.6l.1,1.8h.1a2.89,2.89,0,0,1,2.7-2h.6v2.9c-.2,0-.5-.1-.8-.1a2,2,0,0,0-2.1,1.6c0,.2-.1.4-.1.7v5h-3.1l.1-6.7Z"/><path class="fise-cls-5" d="M127.8,64.5c.1,1.3,1.4,1.9,2.8,1.9a7.66,7.66,0,0,0,2.7-.4l.4,2.1a9.69,9.69,0,0,1-3.6.6c-3.3,0-5.3-1.9-5.3-5,0-2.5,1.6-5.3,5-5.3,3.2,0,4.4,2.5,4.4,4.9,0,.5-.1,1-.1,1.2Zm3.6-2.1c0-.8-.3-2-1.7-2a2,2,0,0,0-1.9,2Z"/><path class="fise-cls-5" d="M136.1,65.8a6.63,6.63,0,0,0,2.6.8c.9,0,1.3-.3,1.3-.8s-.3-.8-1.4-1.1c-2-.7-2.8-1.8-2.8-3,0-1.8,1.6-3.2,4-3.2a6.48,6.48,0,0,1,2.8.6l-.6,2.1a5.25,5.25,0,0,0-2.1-.6c-.8,0-1.2.3-1.2.8s.4.7,1.6,1.1c1.9.6,2.7,1.6,2.7,3,0,1.8-1.4,3.2-4.3,3.2a7.22,7.22,0,0,1-3.2-.7Z"/><path class="fise-cls-5" d="M148.3,55.8v2.8h2.2v2.3h-2.2v3.6c0,1.2.3,1.7,1.2,1.7a2.22,2.22,0,0,0,.9-.1v2.3a4.92,4.92,0,0,1-2,.3,3.2,3.2,0,0,1-2.3-.8,3.88,3.88,0,0,1-.8-2.9V61H144V58.7h1.3V56.5Z"/><path class="fise-cls-5" d="M158.7,54.9V68.5h-3.1V54.9Z"/><path class="fise-cls-5" d="M161.3,61.8a31.12,31.12,0,0,0-.1-3.2h2.7l.1,1.3h.1a3.64,3.64,0,0,1,3-1.6c2,0,3.5,1.3,3.5,4.2v5.8h-3.1V62.8c0-1.3-.4-2.1-1.6-2.1a1.64,1.64,0,0,0-1.6,1.2,2,2,0,0,0-.1.8v5.7h-3.1l.2-6.6Z"/><path class="fise-cls-5" d="M173.5,68.5V60.9h-1.3V58.6h1.3v-.4a4.79,4.79,0,0,1,1.2-3.3,4.12,4.12,0,0,1,2.7-1,6.27,6.27,0,0,1,1.6.2l-.1,2.4a3.08,3.08,0,0,0-1-.1c-1,0-1.4.8-1.4,1.8v.5h2V61h-2v7.6l-3-.1Z"/><path class="fise-cls-5" d="M189.6,63.4a5,5,0,0,1-5.2,5.3,4.83,4.83,0,0,1-5.1-5.1,4.91,4.91,0,0,1,5.3-5.2A4.78,4.78,0,0,1,189.6,63.4Zm-7.2.1c0,1.7.7,3,2,3s2-1.2,2-3c0-1.5-.6-3-2-3S182.4,62.1,182.4,63.5Z"/><path class="fise-cls-5" d="M191.5,61.8a27.33,27.33,0,0,0-.1-3.2H194l.1,1.8h.1a2.89,2.89,0,0,1,2.7-2h.6v2.9c-.2,0-.5-.1-.8-.1a2,2,0,0,0-2.1,1.6c0,.2-.1.4-.1.7v5h-3.1l.1-6.7Z"/><path class="fise-cls-5" d="M199.1,61.8a31.12,31.12,0,0,0-.1-3.2h2.6l.1,1.3h.1a3.48,3.48,0,0,1,3-1.6,2.67,2.67,0,0,1,2.7,1.7h0a4.89,4.89,0,0,1,1.3-1.2,3.56,3.56,0,0,1,1.9-.5c1.9,0,3.3,1.3,3.3,4.3v5.8h-3V63c0-1.4-.5-2.3-1.4-2.3a1.5,1.5,0,0,0-1.4,1.1,2,2,0,0,0-.1.8v5.8h-3V62.9c0-1.2-.4-2.1-1.4-2.1a1.52,1.52,0,0,0-1.4,1.1,2,2,0,0,0-.1.8v5.8h-3l-.1-6.7Z"/><path class="fise-cls-5" d="M222.1,68.5l-.2-1h-.1a3.49,3.49,0,0,1-2.8,1.2,3.06,3.06,0,0,1-3.2-3c0-2.6,2.3-3.8,5.8-3.8v-.1c0-.5-.3-1.3-1.8-1.3a4.55,4.55,0,0,0-2.7.8l-.6-2a7.76,7.76,0,0,1,3.8-.9c3.3,0,4.3,1.9,4.3,4.3v3.4a16.27,16.27,0,0,0,.1,2.4Zm-.4-4.7c-1.6,0-2.9.4-2.9,1.6a1.1,1.1,0,0,0,1.2,1.2,1.66,1.66,0,0,0,1.6-1.1c0-.2.1-.3.1-.5V63.8Z"/><path class="fise-cls-5" d="M230.4,55.8v2.8h2.2v2.3h-2.2v3.6c0,1.2.3,1.7,1.2,1.7a2.22,2.22,0,0,0,.9-.1v2.3a4.92,4.92,0,0,1-2,.3,3.2,3.2,0,0,1-2.3-.8,3.88,3.88,0,0,1-.8-2.9V61h-1.3V58.7h1.3V56.5Z"/><path class="fise-cls-5" d="M237.6,55.9a1.53,1.53,0,0,1-1.7,1.5,1.5,1.5,0,0,1-1.6-1.5,1.52,1.52,0,0,1,1.6-1.6A1.67,1.67,0,0,1,237.6,55.9Zm-3.2,12.6V58.6h3.1v9.9Z"/><path class="fise-cls-5" d="M249.7,63.4a5,5,0,0,1-5.2,5.3,4.83,4.83,0,0,1-5.1-5.1,4.91,4.91,0,0,1,5.3-5.2A4.78,4.78,0,0,1,249.7,63.4Zm-7.2.1c0,1.7.7,3,2,3s2-1.2,2-3c0-1.5-.6-3-2-3S242.5,62.1,242.5,63.5Z"/><path class="fise-cls-5" d="M251.2,61.8a31.12,31.12,0,0,0-.1-3.2h2.7l.1,1.3h.1a3.69,3.69,0,0,1,3.1-1.6c2,0,3.5,1.3,3.5,4.2v5.8h-3.1V62.8c0-1.3-.4-2.1-1.6-2.1a1.86,1.86,0,0,0-1.6,1.2,2,2,0,0,0-.1.8v5.7h-3.1l.1-6.6Z"/><path class="fise-cls-5" d="M96.8,82.6a8.11,8.11,0,0,0,3.4.8c1.4,0,2.2-.6,2.2-1.5s-.6-1.3-2.3-1.9c-2.3-.8-3.7-2-3.7-4,0-2.3,1.9-4.1,5.1-4.1a8,8,0,0,1,3.5.7l-.7,2.5a6.13,6.13,0,0,0-2.8-.6c-1.3,0-2,.6-2,1.3,0,.9.8,1.2,2.5,1.9,2.4.9,3.5,2.1,3.5,4,0,2.3-1.8,4.2-5.5,4.2a8.62,8.62,0,0,1-3.8-.8Z"/><path class="fise-cls-5" d="M109.5,75.9l1.5,4.8a16.69,16.69,0,0,1,.5,1.8h.1c.1-.5.3-1.3.4-1.8l1.2-4.8h3.3l-2.3,6.5c-1.4,3.9-2.4,5.5-3.5,6.5a5.81,5.81,0,0,1-3,1.3l-.6-2.6a3.49,3.49,0,0,0,1.3-.5,3,3,0,0,0,1.3-1.2.76.76,0,0,0,.2-.4,1.09,1.09,0,0,0-.1-.5l-3.6-9,3.3-.1Z"/><path class="fise-cls-5" d="M117.8,83.1a6.63,6.63,0,0,0,2.6.8c.9,0,1.3-.3,1.3-.8s-.3-.8-1.4-1.1c-2-.7-2.8-1.8-2.8-3,0-1.8,1.6-3.2,4-3.2a6.48,6.48,0,0,1,2.8.6l-.6,2.1a5.25,5.25,0,0,0-2.1-.6c-.8,0-1.2.3-1.2.8s.4.7,1.6,1.1c1.9.6,2.7,1.6,2.7,3,0,1.8-1.5,3.2-4.3,3.2a7.22,7.22,0,0,1-3.2-.7Z"/><path class="fise-cls-5" d="M130,73.1v2.8h2.2v2.3H130v3.6c0,1.2.3,1.7,1.2,1.7a2.22,2.22,0,0,0,.9-.1v2.3a4.92,4.92,0,0,1-2,.3,3.2,3.2,0,0,1-2.3-.8,3.88,3.88,0,0,1-.8-2.9v-4h-1.3V76H127V73.9Z"/><path class="fise-cls-5" d="M136.6,81.8c.1,1.3,1.4,1.9,2.8,1.9a7.32,7.32,0,0,0,2.7-.4l.4,2.1a9.69,9.69,0,0,1-3.6.6c-3.3,0-5.3-1.9-5.3-5,0-2.5,1.6-5.3,5-5.3,3.2,0,4.4,2.5,4.4,4.9,0,.5-.1,1-.1,1.2Zm3.6-2.1c0-.8-.3-2-1.7-2a2,2,0,0,0-1.9,2Z"/><path class="fise-cls-5" d="M144.9,79a31.12,31.12,0,0,0-.1-3.2h2.6l.1,1.3h.1a3.48,3.48,0,0,1,3-1.6,2.67,2.67,0,0,1,2.7,1.7h0a4.89,4.89,0,0,1,1.3-1.2,3.83,3.83,0,0,1,1.9-.5c1.9,0,3.3,1.3,3.3,4.3v5.8h-3V80.2c0-1.4-.5-2.3-1.5-2.3a1.5,1.5,0,0,0-1.4,1.1,2,2,0,0,0-.1.8v5.8h-3V80.1c0-1.2-.4-2.1-1.4-2.1a1.52,1.52,0,0,0-1.4,1.1,2,2,0,0,0-.1.8v5.8h-3V79Z"/><path class="fise-cls-5" d="M166.3,85.8V78.2H165V75.9h1.3v-.4a4.79,4.79,0,0,1,1.2-3.3,4.12,4.12,0,0,1,2.7-1,6.27,6.27,0,0,1,1.6.2l-.1,2.4a3.08,3.08,0,0,0-1-.1c-1,0-1.4.8-1.4,1.8V76h2v2.3h-2v7.6l-3-.1Z"/><path class="fise-cls-5" d="M182.4,80.7a5,5,0,0,1-5.2,5.3,4.83,4.83,0,0,1-5.1-5.1,4.91,4.91,0,0,1,5.3-5.2A4.72,4.72,0,0,1,182.4,80.7Zm-7.2.1c0,1.7.7,3,2,3s2-1.2,2-3c0-1.5-.6-3-2-3S175.2,79.4,175.2,80.8Z"/><path class="fise-cls-5" d="M184.3,79.1a27.33,27.33,0,0,0-.1-3.2h2.6l.1,1.8h.1a2.89,2.89,0,0,1,2.7-2h.6v2.9c-.2,0-.5-.1-.8-.1a2,2,0,0,0-2.1,1.6c0,.2-.1.4-.1.7v5h-3.1l.1-6.7Z"/><path class="fise-cls-5" d="M203,80h-5v3.2h5.6v2.5h-8.7V72.1h8.4v2.5H198v2.8h5V80Z"/><path class="fise-cls-5" d="M214.7,82.6a30.14,30.14,0,0,0,.1,3.2h-2.7l-.1-1.4h-.1a3.54,3.54,0,0,1-3.1,1.6c-2,0-3.5-1.2-3.5-4.3V75.9h3.1v5.3c0,1.4.5,2.3,1.5,2.3a1.55,1.55,0,0,0,1.5-1.1,1.48,1.48,0,0,0,.1-.7V75.8h3.1l.1,6.8Z"/><path class="fise-cls-5" d="M217.5,79.1a27.33,27.33,0,0,0-.1-3.2H220l.1,1.8h.1a2.89,2.89,0,0,1,2.7-2h.6v2.9c-.2,0-.5-.1-.8-.1a2,2,0,0,0-2.1,1.6c0,.2-.1.4-.1.7v5h-3.1l.1-6.7Z"/><path class="fise-cls-5" d="M234.8,80.7a5,5,0,0,1-5.2,5.3,4.83,4.83,0,0,1-5.1-5.1,4.91,4.91,0,0,1,5.3-5.2A4.72,4.72,0,0,1,234.8,80.7Zm-7.1.1c0,1.7.7,3,2,3s2-1.2,2-3c0-1.5-.6-3-2-3S227.7,79.4,227.7,80.8Z"/><path class="fise-cls-5" d="M236.7,79.2a32.18,32.18,0,0,0-.1-3.3h2.7l.1,1.4h0a3.81,3.81,0,0,1,3.3-1.6c2.2,0,4.1,1.9,4.1,5,0,3.6-2.3,5.3-4.5,5.3a3.34,3.34,0,0,1-2.6-1.1h0v4.9h-3.1V79.2Zm3.1,2.3c0,.2,0,.5.1.6a1.92,1.92,0,0,0,1.8,1.5c1.3,0,2.1-1.1,2.1-2.8s-.7-2.8-2.1-2.8a1.82,1.82,0,0,0-1.8,1.6,4.33,4.33,0,0,1-.1.5v1.4Z"/><path class="fise-cls-5" d="M251.2,81.8c.1,1.3,1.4,1.9,2.8,1.9a7.32,7.32,0,0,0,2.7-.4l.4,2.1a9.69,9.69,0,0,1-3.6.6c-3.4,0-5.3-1.9-5.3-5,0-2.5,1.6-5.3,5-5.3,3.2,0,4.4,2.5,4.4,4.9,0,.5-.1,1-.1,1.2Zm3.6-2.1c0-.8-.3-2-1.7-2a2,2,0,0,0-1.9,2Z"/></svg>