<svg id="Layer_1" data-name="Layer 1" xmlns="http://www.w3.org/2000/svg" viewBox="0 0 216.25 120.25"><path d="M201.8,67.15v7.5h-15v4.7H199v7.5H186.8v5.2h15v8H177V67.25l24.8-.1Z" style="fill:#054d7f"/><path d="M73,100l2-6.5h8.9l1.9,6.5H96.3L85.8,67.15H75L62.5,100Zm3.7-13.6,2.7-9.5,1.3,4.8,1.3,4.8-5.3-.1Z" style="fill:#054d7f;fill-rule:evenodd"/><path d="M25,100V67.15H37.8l4.6,16.9L47,67.15H59.7V100H51.1V77.05L45.3,100h-6l-5.6-22.9V100Z" style="fill:#054d7f"/><path d="M141.3,100h-9.8V67.15h9.8Z" style="fill:#054d7f"/><path d="M127,81.85a10.27,10.27,0,0,0,1.2-5,8.49,8.49,0,0,0-3.2-7c-2.1-1.8-5-2.7-8.8-2.7H99.1V100h9.8V87.25h3.4l4.8,12.7h11.2l-6-14.3C124.7,84.55,126.3,83.25,127,81.85Zm-10.5-2.3a5.57,5.57,0,0,1-3,.6h-4.6v-6.1h4.9c2.6,0,3.9,1,3.9,3.1A2.62,2.62,0,0,1,116.5,79.55Z" style="fill:#054d7f;fill-rule:evenodd"/><path d="M145,67.15V100h8.5V80.35L164.7,100h8.5V67.15h-8.1v17.3L155,67.15Z" style="fill:#054d7f"/><path d="M83.5,93.45c0-.2.1-.3.3-.4s.3,0,.4.1h0a4,4,0,0,0,3,1.2h.1c.2,0,.2.1.3.3s.2.5.6.5.5-.9.4-1.3a1.56,1.56,0,0,0,.7-.8c.1-.1.1-.2.2-.2a.37.37,0,0,1,.3.1.45.45,0,0,0,.7-.2c.3-.6-.5-.9-1-1a1.55,1.55,0,0,1-.8-.8h0c-.2-.2-.3-.4-.5-.5-.4-.3-.8-.6-.1-.6s1.5-.5.5-.8a3.38,3.38,0,0,0-2.5.3,1.09,1.09,0,0,1-.5.1h-.7a4.05,4.05,0,0,0-1,.3h0a.9.9,0,0,1-.5.1c-.2,0-.3,0-.4-.1a1,1,0,0,0-.7-.2c-.7,0-1.5.4-1.2.9a3.6,3.6,0,0,0,.9.5c.2.1.5.2.7.3.4.3.3.8-.1,1.3a1.6,1.6,0,0,0-.4,1.1h1.3Z" style="fill:#a3abc8;fill-rule:evenodd"/><path d="M76.8,85.85l-.1.4h0c-.1.1-.2.1-.4,0a4.09,4.09,0,0,1-1.4-1.9,2.71,2.71,0,0,1,.6-1.9c.6-.8.8-1.6.2-2a4.61,4.61,0,0,0-1-.5,3.22,3.22,0,0,1-1.3-.8c-.6-.8.7-1.4,1.7-1.4a2.15,2.15,0,0,1,1,.2c.2.1.3.2.5.2a2.35,2.35,0,0,0,.8-.2h0a7.54,7.54,0,0,1,1.5-.4h.2l-1.7,5.9a.37.37,0,0,0-.3.1.91.91,0,0,0-.4.8v.5A4.14,4.14,0,0,1,76.8,85.85Zm5.1-.3h.5c.2,0,.4.2.5.5s.3.7.9.7c.8,0,.7-1.3.6-2a2.35,2.35,0,0,0,1-1.2,1.38,1.38,0,0,1,.3-.4c.1-.1.3,0,.5.1.4.2.8.3,1-.3.4-1-.8-1.4-1.5-1.6-.5-.1-.8-.7-1.2-1.2h0a1.9,1.9,0,0,0-.7-.8c-.6-.4-1.2-1-.2-1s2.3-.8.8-1.2a5.39,5.39,0,0,0-3.7.4,1.23,1.23,0,0,1-.7.2h-.4l1.1,3.9Z" style="fill:#a3abc8;fill-rule:evenodd"/><path d="M36.4,88.15l-.2-.9c.1,0,.1-.1.2-.1.3-.1.5.1.7.4h0c.2.2.5.5.8.5.7,0,.5-.4,0-.8-.1-.1-.2-.1-.2-.2-.4-.3-.8-.6-.7-1s.8-.4,1.1-.1.4,0,.5-.5a.89.89,0,0,1,1-.8c.5.1.5,1.1.4,1.8-.1.5.1.4.4.4s.4-.1.7-.1c.8,0,.9.3.9.4s-.3.2-.8.1a2.59,2.59,0,0,0-1.8.9c-.4.5.8.4,1.3.3s.7.5-.1.5a2.27,2.27,0,0,0-1.9.8c-.3.5,1.2.3,1.5.1s1.1-.1.8.3a3.27,3.27,0,0,1-1.6.5c-.4.1-.8.2-1.1.3a3,3,0,0,0-1,.7l-.4-1.6c.2,0,.3,0,.4-.4a1.33,1.33,0,0,0-.7-1.4C36.5,88.25,36.5,88.15,36.4,88.15Zm1.3,5.2c.2-.1.5-.1.7-.2.5,0,1.2-.4,1-1s-.9-.5-1.2-.4a2.39,2.39,0,0,1-.9.3Z" style="fill:#a3abc8;fill-rule:evenodd"/><path d="M29.2,100h4.5v-1.4a2.2,2.2,0,0,1-1.5.9c-1.4.2-1.1-1-.4-1.6l.1-.1h0c.6-.6,1.2-1.1.8-1.5a.8.8,0,0,0-1.3.2c-.3.7-.9.3-.5-.2a1.38,1.38,0,0,0,.3-.4c.3-.4.6-.9.5-1.2-.2-.5-.9-.3-1.1-.2s-.9.3-.4-.6,0-1.3-.2-1.4a1.18,1.18,0,0,0-1.2.3c-.3.4-.6-.1-.3-.4s.4-.7.2-.8a.66.66,0,0,0-.8.4c-.2.5-.8.6-1-.1s-.9-.9-1.3-.5a.74.74,0,0,0-.1,1c.3.4.3.6-.4.6v1.5a.6.6,0,0,0,.4-.1c.9-.2.9.3.8.7a1.13,1.13,0,0,0,.4,1.3.85.85,0,0,0,.7,0h.5c.2.1,0,.4-.1.6s-.3.6.4.6h.5c1.1,0,1.8,0,1.5.5a1.28,1.28,0,0,1-.7.5c-.4.2-.8.4-.7.9A.51.51,0,0,0,29.2,100Z" style="fill:#a3abc8;fill-rule:evenodd"/><path d="M51.1,81.65a6.13,6.13,0,0,0,.4-.6,5,5,0,0,0,.2-1.2,3.92,3.92,0,0,0-.3-1.3v-.1h0a.35.35,0,0,0-.1-.2c0-.1-.1-.4-.1-.5a1.86,1.86,0,0,1,.1-1c0-.1.1-.2.1-.3a5.36,5.36,0,0,1,.5,1.1c.1.3.1.6.2,1a4.89,4.89,0,0,1-.1,1.3c0,.1-.1.2-.1.4a1.69,1.69,0,0,0-.2.5,1.64,1.64,0,0,0,.2,1,1.76,1.76,0,0,0,.4.5.31.31,0,0,0,.2.1l.1-.1c0-.1,0-.1-.2-.3s-.3-.3-.3-.5-.1-.4-.1-.6a.76.76,0,0,1,.1-.4c.1-.3.2-.6.3-1h.1c.1,0,0-.1,0-.3a1.09,1.09,0,0,1,.1-.5,4.33,4.33,0,0,1,.1-.5,2,2,0,0,0-.2-1.1c-.1-.2-.1-.3-.2-.5a1.48,1.48,0,0,1,.1-.7l.1.1c.2.2.3.3.3.4a1.45,1.45,0,0,1,.2.7.9.9,0,0,1-.1.5,3.75,3.75,0,0,0-.1,1.1,2,2,0,0,1,.1.5,4.33,4.33,0,0,0,.1.5c0,.2,0,.2.1.3h.1v-.4a2,2,0,0,1-.1-.5,4.33,4.33,0,0,0-.1-.5,1.34,1.34,0,0,1,.1-.9v.2a4.36,4.36,0,0,0,.4,1.8c.1.2.2.3.2.4v.6c0,.2-.1.3-.3.5s-.2.2-.2.3a.1.1,0,0,0,.1.1.31.31,0,0,0,.2-.1.86.86,0,0,0,.3-.6c0-.1,0-.1.1-.2.1.2.1.5.2.6.1.3.2.4.6.7l.3.3a.1.1,0,0,0,.1-.1c0-.1,0-.2-.4-.5l-.3-.3a3.39,3.39,0,0,1-.3-.8,2,2,0,0,1-.1-.7.9.9,0,0,1,.1-.5h0v-.1c0-.1,0-.1.1-.4h0c.2-.6.2-.8.1-1a2.28,2.28,0,0,0-.3-1.1,5.74,5.74,0,0,0-.4-.7c.1-.2.1-.4.2-.6v.1c.1.2.1.4.3.6a1.63,1.63,0,0,0,0,.7,1.45,1.45,0,0,1,.2.7,4.12,4.12,0,0,1-.1,1.2V79h.1a1.17,1.17,0,0,0,.2-.7V78a.35.35,0,0,1,.1.2c.3.5.4.8.3,1.1a.1.1,0,0,1-.1.1c0,.1-.1.1,0,.1h0c0,.1-.1.2-.1.4a2.2,2.2,0,0,0,.1.8c0,.1.1.2.1.3s.1.2.1.3.1.2.2.1a.14.14,0,0,0,0-.2,1.45,1.45,0,0,1-.2-.7.9.9,0,0,1-.1-.5,1.85,1.85,0,0,1,.2-.7c.2-.3.2-.3.2-.4v-.5c0-.1-.1-.2-.2-.4a.83.83,0,0,1-.3-.7c0-.2.1-.3.2-.5a1.87,1.87,0,0,1,.5,1V79c0,.3-.1.7-.1.9a1.62,1.62,0,0,0,.4,1c.1.2.2.3.3.5s.1.4.1.5,0,.2.1.3.1,0,.1-.1a1.09,1.09,0,0,0-.1-.5,6.31,6.31,0,0,0-.4-.9c-.2-.3-.2-.4-.3-.5V80c0-.1.1-.6.1-.8v-.3h0c.1.1.1.1.1,0v-.2a.35.35,0,0,1-.1-.2v-1a1.44,1.44,0,0,1,.2-.3,1.69,1.69,0,0,0,.2-.5V78a.76.76,0,0,0,.1.4.37.37,0,0,1,.1.3,2.79,2.79,0,0,1,.1,1v.1a1.27,1.27,0,0,0,.1.6.37.37,0,0,1,.1.3.1.1,0,0,0,.1.1l.1-.1v-.2c0-.1,0-.1-.1-.2s-.1-.2-.1-.3,0-.1.1-.4a4.13,4.13,0,0,0,.2-1.9,1.6,1.6,0,0,0-.3-.8,3.93,3.93,0,0,1-.2-.6v-.1a9.32,9.32,0,0,0,.7,1.3,2.15,2.15,0,0,1,.5,1.7c0,.1,0,.2-.2.4a2.39,2.39,0,0,0-.2.9v.4a.6.6,0,0,0,.1.4,4.88,4.88,0,0,0,.3.7c0,.1.1.1.2.2l.2.2c.1,0,.1-.2,0-.3l-.2-.2a1.33,1.33,0,0,1-.3-.5,4.33,4.33,0,0,1-.1-.5v-.7c0-.2.1-.3.2-.5a1.8,1.8,0,0,0,.2-1,.37.37,0,0,0-.1-.3,5.6,5.6,0,0,0-.7-1.5,5.56,5.56,0,0,0-.4-.8v-.2a1.27,1.27,0,0,1,.1-.6c0-.1.1-.2.1-.3v-.2h.1c.6-.4.9-1.2.4-2.6s-2.4-2.6-4.8-2.5a5.05,5.05,0,0,0-4.5,2.5,2.27,2.27,0,0,0,0,2.4h0c.1,0,.1,0,.1-.1h0v.4a3.63,3.63,0,0,0,.3,1.1,1.69,1.69,0,0,1-.2.5,12.69,12.69,0,0,0-.6,1.6v.4a1.93,1.93,0,0,0,.3,1c.1.2.2.3.2.5s.1.5.1.7v.5c0,.2-.1.3-.2.5a.35.35,0,0,1-.1.2c-.1.1-.1.3,0,.3s.1,0,.2-.2a.22.22,0,0,1,.2-.2c.2-.2.2-.4.3-.7v-.8a1.4,1.4,0,0,0-.3-.9c-.2-.2-.2-.3-.2-.4a2.38,2.38,0,0,1,.3-1.7,2,2,0,0,0,.3-.8c.2.5.2.6.3.7a1.76,1.76,0,0,1-.1.6,4.5,4.5,0,0,0-.2.8,3.31,3.31,0,0,0,.3,1.9c.1.3.1.3.1.4s0,.1-.1.3a.31.31,0,0,0-.1.2v.2c0,.1,0,.1.1.1s.1,0,.1-.1a.37.37,0,0,1,.1-.3,1.27,1.27,0,0,0,.1-.6c0-.1-.1-.1-.1-.2a2.82,2.82,0,0,1-.4-1.5,2.17,2.17,0,0,1,.2-1c.1-.4.2-.6.1-.8s0-.3-.4-1.1c0-.1.1-.2.1-.4a2.15,2.15,0,0,0-.2-1.1l-.1-.2h.3c.1,0,.2.1.3.1s.1,0,.1.1a.1.1,0,0,0,.1.1,1.06,1.06,0,0,0,.2.5c0,.1-.1.2-.1.3a1.58,1.58,0,0,0-.2,1.3v.9c0,.1,0,.1-.1.2s-.1.2-.1.3a2.22,2.22,0,0,0-.1.9c0,.2.1.9.1.9h.1v-.5a2,2,0,0,1,0-1.1.37.37,0,0,1,.1-.3c.1-.2.1-.2.1-.3,0,.1.1.2.2.3a1.44,1.44,0,0,1,.2.3v.2a.49.49,0,0,0,.1.3V79a.84.84,0,0,1-.2.7c-.1.1-.1.2,0,.2a.1.1,0,0,0,.1-.1c.1-.1.1-.2.2-.4v.5c0,.1-.1.2-.2.6a1.9,1.9,0,0,0-.3.9c0,.2-.1.4,0,.5s.1.1.2.1a.44.44,0,0,0,.1-.3.75.75,0,0,1,.1-.5,1.69,1.69,0,0,1,.2-.5,2.65,2.65,0,0,0,.3-1v.2c0,.1,0,.1.2.4h0l.1-.3c-.1-.2-.1-.2-.1-.3a.65.65,0,0,1,.2-.5.1.1,0,0,0,.1.1h0v-.2h0V79c.1-.1.1-.2.2-.3a1.1,1.1,0,0,0,0-.8v-.1c.1-.2.1-.3.2-.4a1.49,1.49,0,0,0-.1-.6.76.76,0,0,1-.1-.4,1.33,1.33,0,0,1,.3.7v.3c0,.1,0,.1-.1.3a5.64,5.64,0,0,0-.1.7v.1l.3-1.4v1.4a.31.31,0,0,0,.1.2h0a.77.77,0,0,1,.1.3v.1h0a.9.9,0,0,1,.1.5v.7a1.55,1.55,0,0,1-.2.8.1.1,0,0,1-.1.1l-.3.5Zm0-1.9h0c.1,0,.1-.1,0-.2h0Zm-1.6-4.7v-.4h.2a.6.6,0,0,1-.1.4,2.79,2.79,0,0,0,.1,1.6c0,.1-.1.1-.1.2a1.85,1.85,0,0,0-.2.7v.5a.35.35,0,0,1-.1-.2c-.2-.2-.2-.4-.3-.5h0v-.3h0a1.23,1.23,0,0,1,.2-.7,1.7,1.7,0,0,0,.1-.7v-.2C49.4,75.35,49.4,75.15,49.5,75.05Zm.4,1.3a5,5,0,0,1,.1-1.7h.1a.76.76,0,0,1,.2.4v.1a.85.85,0,0,0,0,.7h0a.35.35,0,0,0-.1.2Zm.6-1.6c-.1,0-.1-.1,0,0Zm.1.1v-.1h.3a.9.9,0,0,0-.1.5v.4a.1.1,0,0,1-.1.1c-.2.2-.2.3-.3.4a.1.1,0,0,0-.1-.1v-.3h0v-.7C50.6,75,50.6,74.85,50.6,74.85Zm.6,0a.35.35,0,0,0,.1-.2h.4v.7l-.2.4c-.1.1-.1.2-.2.3-.2-.3-.2-.4-.2-.5s.1-.2.1-.3Zm1-.2h.6V75c0,.1-.1.2-.2.4a1.38,1.38,0,0,1-.3.4c0-.1-.1-.1-.1-.2s-.1-.2-.1-.3h0V75c0-.2,0-.3.1-.3Zm.8.2a.37.37,0,0,1,.1-.3h.5v.1c0,.1-.1.3-.1.4s-.1.1-.1.2a3.33,3.33,0,0,1-.3.6l-.1-.1v-.5C52.9,75.25,52.9,75.15,53,74.85Zm.8-.2h.5c0,.1.1.2.1.3s-.1.1-.1.2v.4a1.42,1.42,0,0,0-.2.6.91.91,0,0,1-.3-.7c.1-.3.2-.4.2-.5C53.8,74.75,53.8,74.65,53.8,74.65Zm.6,0Zm.2.3c.1-.1.1-.2.2-.3h0a4.48,4.48,0,0,1,.1,1.1,1.45,1.45,0,0,1-.2.7v-.1c0-.1-.1-.1-.1-.2a1.72,1.72,0,0,1-.1-.8C54.4,75.25,54.5,75.15,54.6,75Zm.8-.2a.1.1,0,0,0,.1-.1h.6a.1.1,0,0,1,.1.1h.1l-.1.2a1.09,1.09,0,0,0-.1.5,2.31,2.31,0,0,0-.2.9,1.72,1.72,0,0,0,.2.8,3.81,3.81,0,0,1,.3,1,2.54,2.54,0,0,1-.2,1.2,1.88,1.88,0,0,0-.2-.8c0-.1-.1-.2-.1-.3a.31.31,0,0,1-.1-.2v-.8a2.2,2.2,0,0,0-.1-.8V76c0-.1-.1-.2-.2-.5S55.4,75,55.4,74.75Zm-7.1,1.1v-.1a3.09,3.09,0,0,0-.2-.8h0v.3C48.2,75.25,48.2,75.45,48.3,75.85Zm1.1-1.2h-.2v.1a1.69,1.69,0,0,0,.2.5v-.6Zm-.1,1v.1c-.1.3-.2.4-.2.5v.3c0-.1.1-.2.1-.4A.75.75,0,0,0,49.3,75.65Zm.6,1.4a.9.9,0,0,0-.1.5v.6a1.08,1.08,0,0,0,.1.6,3.71,3.71,0,0,1,.2.9h0v-.3c0-.1.1-.2.2-.4v-.5c0-.1.1-.2.1-.4a.54.54,0,0,0-.3-.4C50,77.35,49.9,77.25,49.9,77.05Zm.6.7a.76.76,0,0,1-.2-.4l-.3-.6.3-.6h0v-.1a.1.1,0,0,0,.1.1h0v.2a.76.76,0,0,0,.1.4,1.09,1.09,0,0,1,.1.5c0,.1,0,.1-.1.3C50.6,77.65,50.5,77.65,50.5,77.75Zm-.1.8v-.3A.19.19,0,0,1,50.4,78.55ZM51,77c0-.2.1-.3.2-.5s.1-.1.1-.2v-.1a1.69,1.69,0,0,1-.2-.5l-.1.1c-.1.2-.2.3-.2.4h0c.2.2.2.4.3.6C51,76.85,51,76.85,51,77Zm.5-.7a3.49,3.49,0,0,1,.5,1.3,3.59,3.59,0,0,1,.2,1.1v0a.75.75,0,0,1,.1-.5,1.8,1.8,0,0,0-.2-1c0-.1-.1-.2-.1-.3s-.1-.3,0-.5a.75.75,0,0,1,.1-.5h0c-.1-.1-.1-.2-.2-.3h0c0,.1-.1.2-.2.3S51.6,76.05,51.5,76.25Zm.8-.5h0a7.37,7.37,0,0,1,.5.6c0,.1.1.3.1.4a1.42,1.42,0,0,1,.2-.6c-.1-.2-.2-.3-.2-.4a1.48,1.48,0,0,1-.1-.7c0,.1-.1.2-.2.3S52.3,75.65,52.3,75.75Zm.9.7c0,.2-.1.3-.1.5a3.08,3.08,0,0,0-.1,1,4.44,4.44,0,0,0,.2,1.3c0,.1.1.2.2.3s.1.1.1.2a1.85,1.85,0,0,1,.2-.7V79c0-.1,0-.2.1-.2s.1-.4.1-.5a2.17,2.17,0,0,0-.2-1A5.58,5.58,0,0,1,53.2,76.45Zm1-.8c-.1.2-.1.3-.2.4a3.91,3.91,0,0,1,.4.5v.2h0c0-.1.1-.2.2-.3l-.1-.1h0c-.1-.1-.2-.2-.2-.3v-.2h0C54.2,76,54.2,75.85,54.2,75.65Zm.6,1a6.13,6.13,0,0,1,.4.6.35.35,0,0,0,.1.2c0-.1.1-.2.2-.4s.2-.4.2-.5v-.1c0-.1-.1-.2-.2-.4a3.63,3.63,0,0,1-.3-.7.64.64,0,0,1,0-.6v-.1H55A2.85,2.85,0,0,1,55,76,1.45,1.45,0,0,1,54.8,76.65Zm.5-1.8v.2c0,.1,0,.1.1.2s.1.4.3.6c0,.1.1.1.1.2,0-.2-.1-.3-.2-.6A.86.86,0,0,1,55.3,74.85Zm-1,2.6v.3c0,.1,0,.1.1.2a1.33,1.33,0,0,1,.3.7.37.37,0,0,0,.1.3.31.31,0,0,0,.1-.2,1.69,1.69,0,0,0-.2-.5,1.33,1.33,0,0,1-.3-.5C54.3,77.75,54.3,77.55,54.3,77.45Zm-.3-1.1h0a1.27,1.27,0,0,0,.1.6c0,.1.1.2.1.3v-.1a1.34,1.34,0,0,0,.1-.5Z" style="fill:#a3abc8;fill-rule:evenodd"/><path d="M131.4,80.45a9.65,9.65,0,0,1,2,.9,5.9,5.9,0,0,0,.8.4,4.23,4.23,0,0,0,1.8-.3,3.09,3.09,0,0,1,.8-.2c.3,0,.4.2-.2.7-.1,0-.1.1-.2.1-.5.4-.5.5-.3,1s.6,1.2,0,.9a9.22,9.22,0,0,1-.8-.5,2.79,2.79,0,0,0-1.3-.7,3.09,3.09,0,0,0-.8.2,5.64,5.64,0,0,1-1.8.5v-3Z" style="fill:#a3abc8;fill-rule:evenodd"/><path d="M133.4,73.45c.3.7,4,2.9,7.8,3.8v-6a29,29,0,0,0-6.5.8C133.8,72.35,133.1,72.65,133.4,73.45Zm2.7-.2a.5.5,0,1,0-.5-.5A.64.64,0,0,0,136.1,73.25Z" style="fill:#a3abc8;fill-rule:evenodd"/><path d="M179.9,100h-3V94c.4.5,1,1,3,.3,3-1,2.2-2.9,1.4-3.6a2.65,2.65,0,0,0-.6-.5c-.9-.8-2.2-1.9-.8-1.9a5.64,5.64,0,0,1,2.3.7,5.91,5.91,0,0,0,2,.7,9.77,9.77,0,0,1,2.6.5v1.9h.3a9.91,9.91,0,0,0-4.4,4.2,4.55,4.55,0,0,1-3.9,2.5C178.3,98.55,179.1,99.35,179.9,100Z" style="fill:#a3abc8;fill-rule:evenodd"/><path d="M176.9,75.65a5.74,5.74,0,0,0,2.8-.9,3.08,3.08,0,0,1,.9-.4,3.27,3.27,0,0,1,1.6.9,3.47,3.47,0,0,0,.9.6c.8.4.4-.5,0-1.3s-.3-.8.3-1.3l.2-.2c.8-.8.6-1,.3-1a2.94,2.94,0,0,0-.9.3,6.83,6.83,0,0,1-2.2.5,1.87,1.87,0,0,1-1-.5,12.58,12.58,0,0,0-3-1.3l.1,4.6Z" style="fill:#a3abc8;fill-rule:evenodd"/><path d="M127,81.85a6.19,6.19,0,0,0,.7-1.9,13.06,13.06,0,0,0-2.5.3c-.5.1-1,.2-.8.7a5.12,5.12,0,0,0,2.1,1.4A.82.82,0,0,0,127,81.85Zm-1.2-1a.32.32,0,0,0,.3-.3.3.3,0,0,0-.6,0A.32.32,0,0,0,125.8,80.85Z" style="fill:#a3abc8;fill-rule:evenodd"/><path d="M112.5,86.15c-.3.2-.8.6-.8,1.1h-1.1l-.2-.2c-.9-.5-1.2-.9-.9-1.4s.9-.3,1.2,0,.9-.5,1-.8.9-.8,1.3-.3A1.17,1.17,0,0,1,112.5,86.15ZM108.9,88a.37.37,0,0,0-.3-.1c-.2,0-.3,0-.4.2h0a.35.35,0,0,0-.1.2h0c-.2.2-.5.5-.8.5-.7,0-.5-.4,0-.8a.35.35,0,0,1,.2-.1l.1-.1c.4-.3.8-.6.7-1.1s-.8-.4-1.1-.1-.4,0-.5-.6-.5-1-.9-.8-.5,1.1-.4,1.8c.1.5-.1.4-.4.4h0c-.2,0-.4-.1-.7-.1-.8,0-.9.3-.9.4s.3.3.8.1a2.09,2.09,0,0,1,1.7,1c.4.6-.8.4-1.3.3s-.7.6.1.6a2.27,2.27,0,0,1,1.9.8c.3.5-1.2.3-1.5.1s-1.1-.1-.8.3a4.38,4.38,0,0,0,1.6.6h0c.2,0,.4.1.6.1a4.33,4.33,0,0,1,.5.1c.7.2,1.4,1.2,2,2.2v-1.2h0a1.26,1.26,0,0,1,0-1.2v-.8a.37.37,0,0,0-.3.1h-.1c-.3.1-.6.2-.6-.3v-.2a1.22,1.22,0,0,1,.5-1.2.78.78,0,0,0,.4-.4V88Zm0,8c-.1,0-.2-.1-.3-.1-.3-.3-.2-.5-.2-.9h0a1.54,1.54,0,0,0-.2-1.1c-.3-.5-.5-.4-.7-.1h0c-.1.1-.2.3-.4.4-.5.3-.7.1-.5-.4s-.4-1.8-.8-.7a1.75,1.75,0,0,0,1.3,2.4.86.86,0,0,1,0,1.7c-.7,0-.8.1-.9.4s.1,1.1,1.2,1,1.3.7.4,1a.51.51,0,0,0-.4.5h1.5V96Zm7.2,1.2c.6-.1.5-.8-.2-1h-.2Zm-.8-2a1.79,1.79,0,0,1,1.3,0c1.6.4,1.8-.7,1.2-1.2s-.6-1.1-.3-1.1c.1,0,.2.1.3.2h0a1,1,0,0,0,1.2.2c.8-.4.3-1.4,0-1.9s.3-.7.6-.3,1,1,1.3.5.3-.8-.3-1-1-.3-.8-.4,1.2-.5.5-1.1-1.2-.1-1.3,0a.35.35,0,0,0-.1.2h0c-.2.3-.4.8-.8.4s-.8-.7-1-.7-.5.5,0,1.1.5,1,.2.8q-.15,0-.3-.3h0c-.3-.4-.8-1-1.5-.5-1,.5-.3,1.5.2,1.8s.3.7,0,.7c-.1,0-.2-.1-.3-.2h0a.87.87,0,0,0-1.2-.3Z" style="fill:#a3abc8;fill-rule:evenodd"/><path d="M145,77.65a12,12,0,0,0,4.2-1.1,3.39,3.39,0,0,1,1.4-.5,4.92,4.92,0,0,1,2.4,1.2c.5.3,1,.7,1.4.9,1.1.5.6-.7,0-1.7s-.4-1,.5-1.8l.3-.3c1.1-1,1-1.4.4-1.4a7.91,7.91,0,0,0-1.3.4c-1.1.3-2.5.8-3.2.6a11.41,11.41,0,0,1-1.5-.6,20.2,20.2,0,0,0-4.4-1.7l-.2,6Z" style="fill:#a3abc8;fill-rule:evenodd"/><path d="M173.2,92.35c-2.6-.7-6.3-1.5-9.5-2-2.4-.4-3.7-.1-4.3.3l3.7,6.5a88.22,88.22,0,0,0,9.3,2.9h.8v-7.7Z" style="fill:#a3abc8;fill-rule:evenodd"/><path d="M169.9,71.55a15.22,15.22,0,0,1,3.2-.6v4.1c-2.1-.8-4-2-4.2-2.5C168.8,71.85,169.3,71.75,169.9,71.55Zm.7.9a.32.32,0,0,0,.3-.3.3.3,0,1,0-.6,0A.32.32,0,0,0,170.6,72.45Z" style="fill:#a3abc8;fill-rule:evenodd"/><path d="M201.8,10v12.2H177.4v8h19.7V42H177.4v8.9h24.4v12.5H161.5V9.85l40.3.1Z" style="fill:#054d7f"/><path d="M132.7,28.45A97,97,0,0,1,146,32a14.48,14.48,0,0,1,9.2,13.9,15.11,15.11,0,0,1-6.4,12.7c-4.3,3.2-9.9,4.9-16.8,4.9-12.7,0-20.5-5.3-23.5-15.8l14.8-2.6c1.2,4.2,4.5,6.3,9.6,6.3,4,0,6-1,6-3.2a3,3,0,0,0-1.4-2.6,15.59,15.59,0,0,0-5-1.7c-9.1-1.8-15-4-17.6-6.9a14.07,14.07,0,0,1-3.9-9.9,15.52,15.52,0,0,1,5.6-12.2c3.7-3.2,9.1-4.9,16.1-4.9,10.6,0,17.6,4.3,21,12.7l-13.2,4c-1.4-3.5-4.2-5.2-8.3-5.2-3.5,0-5.2,1-5.2,3.2a2.4,2.4,0,0,0,1.2,2.2C128.9,27.45,130.4,28,132.7,28.45Z" style="fill:#054d7f"/><path d="M103.3,63.35H86.9V9.85h16.4Z" style="fill:#054d7f"/><path d="M54,10l7.9,30.8L69.4,10H82L67.8,63.35H54l-7.5-29.5-7.1,29.5H24.9L10.8,9.85H26.2l7.5,30.8L41,9.85H54Z" style="fill:#054d7f"/><path d="M161.4,42.75V42l.6-.4v-2.8c0-.2.1-.6.5-.6s.4.4.4.6v2.8l10.4,9.2,4-2.8v1l-3.2,2.4,9,8h.9c.5,0,1.2.1.5,1a8.9,8.9,0,0,0-1.1,3H161.5V52.25h.6v-9.9Zm16.3,8h.5v.1a.74.74,0,0,1,0,1.4v.2a.54.54,0,0,1,.5.5v.1h0c0,.4,0,.8-.8.8-.2,0-.5,0-.5-.3s.3-.3.5-.3.5-.3.1-.5h0q-.3-.15-.3-.3h0v-.3a.74.74,0,0,1,0-1.4Zm-14.4,1.6a.1.1,0,0,0,.1.1,1.3,1.3,0,0,1-.3,1.3v4l2.2-1.5v-7Zm-.3-.5,2.3-3.7V47c0-.2.1-.6.5-.6s.4.4.4.6v.6l6,3.9.5-.3-9.8-8.9.1,9.6Zm8.6.1-5.4-3.4v7.1Zm-7.3,6.5,1-.7v.8Zm11.5.8h5.9l-8.2-7.5L166.3,57v1.5Z" style="fill:#a3abc8;fill-rule:evenodd"/><path d="M155.2,45.75,140.9,54l6.8,1.2v-3.4a1.15,1.15,0,0,1-.5-.9c0-.4.6-.6.9-.6h6.5c-.1.4-.2.7-.3,1h-.9v1.3h.4a15.8,15.8,0,0,1-5,6,22.38,22.38,0,0,1-5.7,3.1c-2.1-1.6-4-5.6-4.3-6.4h0v-.1a.22.22,0,0,0-.2-.2c-.2-.2-.6-.5-.3-.9a1.49,1.49,0,0,1,1.4-.3h.2l15.4-8.9C155.1,45.15,155.2,45.45,155.2,45.75Zm-6.2,5.4h1.3v1.3H149Zm3.6,0h-1.3v1.3h1.3Z" style="fill:#a3abc8;fill-rule:evenodd"/><path d="M103.3,29.75h-1.2c-.3,0-.8,0-.9.3s-.4.5-1.2.5H98.6V31l.6,32.5H96l.8-33.4c-.2-.1-.6-.3-.8,0a2.48,2.48,0,0,0-.1.9c0,.3.1.6-.1.8s-6,9.5-9,14.4v-3l5.9-11.5c.3-.6,1-1.7,1.9-1.8s.8-.8.7-1.2a3.65,3.65,0,0,1,0-1.8c.1-.3.1-.3-.1-.4a1.46,1.46,0,0,1-.8-.5c-.6-.7-5-8.1-7.6-12.6v-1.8L95.1,23a4,4,0,0,1,.9,2.7c-.3,1.2,1,1.7,1.4,1.8.2.1,3.4.2,5.7.2l.2,2.1Z" style="fill:#a3abc8;fill-rule:evenodd"/><path d="M41.1,56.55l-1.6,6.8h-.1v-5.2h-1v-1h.5v-.5h2.2Zm2.5-10.2-.7,3-3.2-4.9h-.8v7.9h.5v.4H38.1v-.4h.5v-8.3h1.1l.3-.3h.5Zm27.5,4.7h-.6v-.5H71v-7h-.9l-4.7,7.8v2.1l.9.5v1.3h1c.4,0,1.2.5,1.2,1.8v2.1h-.8v4.3H64.1v-4.3H60.4v4.3H58.6v-4.3H56.3v4.3H54.1l-2.6-10.2L55.4,31l1.7-.9v-2.2h.3v2.3l1.3.8L61,53h.3v-1.9h.5l.9-2.7L70.1,43l1.2.3v7.5Z" style="fill:#a3abc8;fill-rule:evenodd"/><path d="M111.2,29.05a7.08,7.08,0,0,1-.1-1.4H116a2.41,2.41,0,0,1-1.8,1.2C113.5,28.85,112.3,29,111.2,29.05Z" style="fill:#a3abc8;fill-rule:evenodd"/><path d="M26.3,103.35l1.8,4.9,1.8-4.9h1.4v6.4h-1v-2.1l.1-2.8-1.8,4.9h-.8l-1.8-4.9.1,2.8v2.1h-1v-6.4Z" style="fill:#054d7f"/><path d="M35.9,108.25H33.6l-.5,1.5H32l2.3-6.4h1l2.3,6.4H36.5Zm-2.1-.9h1.8l-.9-2.6Z" style="fill:#054d7f"/><path d="M40.4,107.25H39.2v2.5h-1v-6.4h2.1a2.54,2.54,0,0,1,1.6.5,1.68,1.68,0,0,1,.6,1.4,2,2,0,0,1-.3,1.1,2.7,2.7,0,0,1-.8.7l1.4,2.6v.1H41.7Zm-1.2-.9h1.1a1,1,0,0,0,.8-.3,1.1,1.1,0,0,0-.8-1.9H39.2v2.2Z" style="fill:#054d7f"/><path d="M44.6,109.75h-1v-6.4h1Z" style="fill:#054d7f"/><path d="M50.7,109.75h-1l-2.7-4.5v4.5H46v-6.4h1l2.7,4.5v-4.5h1v6.4Z" style="fill:#054d7f"/><path d="M55.5,106.85H53v2h2.9v.9h-4v-6.4h3.9v.9H52.9v1.8h2.5v.8Z" style="fill:#054d7f"/><path d="M60,109.75H59v-6.4h1Z" style="fill:#054d7f"/><path d="M66.1,109.75h-1l-2.7-4.5v4.5h-1v-6.4h1l2.7,4.5v-4.5h1v6.4Z" style="fill:#054d7f"/><path d="M70.9,107.05H68.5v2.7h-1v-6.4h3.9v.9H68.6v1.9H71l-.1.9Z" style="fill:#054d7f"/><path d="M76.9,106.65a3.81,3.81,0,0,1-.3,1.6,3.13,3.13,0,0,1-.9,1.1,2.37,2.37,0,0,1-3.5-1.1,4.15,4.15,0,0,1-.3-1.6v-.3a3.81,3.81,0,0,1,.3-1.6,3.13,3.13,0,0,1,.9-1.1,2.31,2.31,0,0,1,2.6,0,2.44,2.44,0,0,1,.9,1.1,4.15,4.15,0,0,1,.3,1.6Zm-1.1-.3a2.54,2.54,0,0,0-.4-1.6,1.31,1.31,0,0,0-2.2,0,2.54,2.54,0,0,0-.4,1.6v.4a2.54,2.54,0,0,0,.4,1.6,1.31,1.31,0,0,0,2.2,0,2.54,2.54,0,0,0,.4-1.6v-.4Z" style="fill:#054d7f"/><path d="M80.2,107.25H79v2.5H78v-6.4h2.1a2.54,2.54,0,0,1,1.6.5,1.68,1.68,0,0,1,.6,1.4,2,2,0,0,1-.3,1.1,2.7,2.7,0,0,1-.8.7l1.4,2.6v.1H81.5Zm-1.2-.9h1.1a1,1,0,0,0,.8-.3,1.1,1.1,0,0,0-.8-1.9H79v2.2Z" style="fill:#054d7f"/><path d="M84.6,103.35l1.8,4.9,1.8-4.9h1.4v6.4h-1v-2.1l.1-2.8-1.8,4.9h-.8l-1.8-4.9.1,2.8v2.1h-1v-6.4Z" style="fill:#054d7f"/><path d="M94.2,108.25H91.9l-.5,1.5H90.3l2.3-6.4h1l2.3,6.4H94.8Zm-2-.9H94l-.9-2.6Z" style="fill:#054d7f"/><path d="M100.4,104.25H98.5v5.5h-1v-5.5H95.6v-.9h4.8v.9Z" style="fill:#054d7f"/><path d="M102.3,109.75h-1v-6.4h1Z" style="fill:#054d7f"/><path d="M108.4,106.65a3.81,3.81,0,0,1-.3,1.6,3.13,3.13,0,0,1-.9,1.1,2.37,2.37,0,0,1-3.5-1.1,4.15,4.15,0,0,1-.3-1.6v-.3a3.81,3.81,0,0,1,.3-1.6,3.13,3.13,0,0,1,.9-1.1,2.31,2.31,0,0,1,2.6,0,2.44,2.44,0,0,1,.9,1.1,4.15,4.15,0,0,1,.3,1.6Zm-1-.3a2.54,2.54,0,0,0-.4-1.6,1.31,1.31,0,0,0-2.2,0,2.54,2.54,0,0,0-.4,1.6v.4a2.54,2.54,0,0,0,.4,1.6,1.31,1.31,0,0,0,2.2,0,2.54,2.54,0,0,0,.4-1.6v-.4Z" style="fill:#054d7f"/><path d="M114.3,109.75h-1l-2.7-4.5v4.5h-1v-6.4h1l2.7,4.5v-4.5h1v6.4Z" style="fill:#054d7f"/><path d="M120.9,108.05a.6.6,0,0,0-.3-.6,8.92,8.92,0,0,0-1-.5,3.34,3.34,0,0,1-1.2-.5,1.72,1.72,0,0,1-.8-1.4,1.76,1.76,0,0,1,.6-1.3,2.46,2.46,0,0,1,1.5-.5,3.59,3.59,0,0,1,1.1.2,1.78,1.78,0,0,1,.8.7,1.69,1.69,0,0,1,.3,1h-1a1,1,0,0,0-1.1-1.1,1.88,1.88,0,0,0-.8.2.71.71,0,0,0-.3.6.86.86,0,0,0,.3.6,8.92,8.92,0,0,0,1,.5,2.81,2.81,0,0,1,1.1.5,1.7,1.7,0,0,1,.6.6,2,2,0,0,1,.2.9,1.61,1.61,0,0,1-.6,1.3,2.54,2.54,0,0,1-1.6.5,5,5,0,0,1-1.2-.2,1.6,1.6,0,0,1-.9-.7,1.69,1.69,0,0,1-.3-1h1a1,1,0,0,0,.3.8,1.33,1.33,0,0,0,1,.3,1.55,1.55,0,0,0,.8-.2C120.8,108.55,120.9,108.35,120.9,108.05Z" style="fill:#054d7f"/><path d="M124.8,106.35l1.4-3h1.2l-2,4v2.3h-1.1v-2.3l-2-4h1.2Z" style="fill:#054d7f"/><path d="M131.1,108.05a.6.6,0,0,0-.3-.6,8.92,8.92,0,0,0-1-.5,3.34,3.34,0,0,1-1.2-.5,1.72,1.72,0,0,1-.8-1.4,1.76,1.76,0,0,1,.6-1.3,2.46,2.46,0,0,1,1.5-.5,3.59,3.59,0,0,1,1.1.2,1.78,1.78,0,0,1,.8.7,1.69,1.69,0,0,1,.3,1h-1a1,1,0,0,0-1.1-1.1,1.88,1.88,0,0,0-.8.2.71.71,0,0,0-.3.6.86.86,0,0,0,.3.6,8.92,8.92,0,0,0,1,.5,2.81,2.81,0,0,1,1.1.5,1.7,1.7,0,0,1,.6.6,2,2,0,0,1,.2.9,1.61,1.61,0,0,1-.6,1.3,2.54,2.54,0,0,1-1.6.5,5,5,0,0,1-1.2-.2,1.6,1.6,0,0,1-.9-.7,1.69,1.69,0,0,1-.3-1h1a1,1,0,0,0,.3.8,1.33,1.33,0,0,0,1,.3,1.55,1.55,0,0,0,.8-.2C131.1,108.55,131.1,108.35,131.1,108.05Z" style="fill:#054d7f"/><path d="M137.5,104.25h-1.9v5.5h-1v-5.5h-1.9v-.9h4.8v.9Z" style="fill:#054d7f"/><path d="M141.9,106.85h-2.5v2h2.9v.9h-4v-6.4h3.9v.9h-2.9v1.8h2.5v.8Z" style="fill:#054d7f"/><path d="M144.5,103.35l1.8,4.9,1.8-4.9h1.4v6.4h-1v-2.1l.1-2.8-1.8,4.9H146l-1.8-4.9.1,2.8v2.1h-1v-6.4Z" style="fill:#054d7f"/><path d="M156.2,107.05h-2.4v2.7h-1v-6.4h3.9v.9h-2.8v1.9h2.4l-.1.9Z" style="fill:#054d7f"/><path d="M162.3,106.65a3.81,3.81,0,0,1-.3,1.6,3.13,3.13,0,0,1-.9,1.1,2.37,2.37,0,0,1-3.5-1.1,4.15,4.15,0,0,1-.3-1.6v-.3a3.81,3.81,0,0,1,.3-1.6,3.13,3.13,0,0,1,.9-1.1,2.31,2.31,0,0,1,2.6,0,2.44,2.44,0,0,1,.9,1.1,4.15,4.15,0,0,1,.3,1.6Zm-1.1-.3a2.54,2.54,0,0,0-.4-1.6,1.31,1.31,0,0,0-2.2,0,2.54,2.54,0,0,0-.4,1.6v.4a2.54,2.54,0,0,0,.4,1.6,1.31,1.31,0,0,0,2.2,0,2.54,2.54,0,0,0,.4-1.6v-.4Z" style="fill:#054d7f"/><path d="M165.6,107.25h-1.2v2.5h-1v-6.4h2.1a2.54,2.54,0,0,1,1.6.5,1.68,1.68,0,0,1,.6,1.4,2,2,0,0,1-.3,1.1,2.7,2.7,0,0,1-.8.7l1.4,2.6v.1h-1.1Zm-1.2-.9h1.1a1,1,0,0,0,.8-.3,1.1,1.1,0,0,0-.8-1.9h-1.1v2.2Z" style="fill:#054d7f"/><path d="M174.3,106.85h-2.5v2h2.9v.9h-4v-6.4h3.9v.9h-2.9v1.8h2.5v.8Z" style="fill:#054d7f"/><path d="M180,103.35v4.2a2.11,2.11,0,0,1-.6,1.6,2.35,2.35,0,0,1-1.7.6,2.52,2.52,0,0,1-1.7-.6,2.11,2.11,0,0,1-.6-1.6v-4.2h1v4.2a1.49,1.49,0,0,0,.3,1,1.22,1.22,0,0,0,.9.3c.8,0,1.2-.5,1.2-1.4v-4.1Z" style="fill:#054d7f"/><path d="M183.4,107.25h-1.2v2.5h-1v-6.4h2.1a2.54,2.54,0,0,1,1.6.5,1.68,1.68,0,0,1,.6,1.4,2,2,0,0,1-.3,1.1,2.7,2.7,0,0,1-.8.7l1.4,2.6v.1h-1.1Zm-1.2-.9h1.1a1,1,0,0,0,.8-.3,1.1,1.1,0,0,0-.8-1.9h-1.1v2.2Z" style="fill:#054d7f"/><path d="M191.3,106.65a3.81,3.81,0,0,1-.3,1.6,3.13,3.13,0,0,1-.9,1.1,2.37,2.37,0,0,1-3.5-1.1,4.15,4.15,0,0,1-.3-1.6v-.3a3.81,3.81,0,0,1,.3-1.6,3.13,3.13,0,0,1,.9-1.1,2.31,2.31,0,0,1,2.6,0,2.44,2.44,0,0,1,.9,1.1,4.15,4.15,0,0,1,.3,1.6Zm-1-.3a2.54,2.54,0,0,0-.4-1.6,1.31,1.31,0,0,0-2.2,0,2.54,2.54,0,0,0-.4,1.6v.4a2.54,2.54,0,0,0,.4,1.6,1.31,1.31,0,0,0,2.2,0,2.54,2.54,0,0,0,.4-1.6v-.4Z" style="fill:#054d7f"/><path d="M193.4,107.35v2.4h-1v-6.4h2.3a2.54,2.54,0,0,1,1.6.5,2.18,2.18,0,0,1,0,3,2.07,2.07,0,0,1-1.6.5Zm0-.9h1.3a1.22,1.22,0,0,0,.9-.3,1.1,1.1,0,0,0-.8-1.9h-1.3v2.2Z" style="fill:#054d7f"/><path d="M201.4,106.85h-2.5v2h2.9v.9h-4v-6.4h3.9v.9h-2.9v1.8h2.5v.8Z" style="fill:#054d7f"/></svg>