<svg id="Layer_1" data-name="Layer 1" xmlns="http://www.w3.org/2000/svg" viewBox="0 0 219.35 129.4"><defs><style>.wise-m-cls-1,.wise-m-cls-2{fill:#054d7f;}.wise-m-cls-2,.wise-m-cls-3{fill-rule:evenodd;}.wise-m-cls-3{fill:#a3abc8;}</style></defs><path class="wise-m-cls-1" d="M205.35,81v7.5h-15.1v4.7h12.2v7.5h-12.2v5.2h15.1v8h-24.9V81Z"/><path class="wise-m-cls-2" d="M76.15,113.9l2-6.5h9l1.9,6.5h10.5L89.05,81H78.15l-12.5,32.9ZM80,100.2l2.7-9.5,1.4,4.8,1.4,4.8-5.5-.1Z"/><path class="wise-m-cls-1" d="M28.05,113.9V81h12.8l4.6,17,4.6-17h12.7v32.9h-8.6v-23l-5.8,23h-6l-5.7-23v23Z"/><path class="wise-m-cls-1" d="M144.65,113.9h-9.9V81h9.9Z"/><path class="wise-m-cls-2" d="M130.35,95.7a10.27,10.27,0,0,0,1.2-5,8.65,8.65,0,0,0-3.2-7c-2.1-1.8-5-2.7-8.8-2.7h-17.2v32.9h9.9V101.2h3.4l4.8,12.7h11.2l-6-14.4C128.05,98.4,129.55,97.2,130.35,95.7Zm-10.5-2.2a5.73,5.73,0,0,1-3.1.6h-4.6V88h4.9c2.6,0,3.9,1,3.9,3.1A2.9,2.9,0,0,1,119.85,93.5Z"/><path class="wise-m-cls-1" d="M148.45,81v32.9H157V94.2l11.3,19.6h8.5V80.9h-8.1V98.3l-10.1-17.4h-10.1Z"/><path class="wise-m-cls-3" d="M86.75,107.4c0-.2.1-.3.3-.4s.3,0,.4.1h0a4.06,4.06,0,0,0,3.1,1.2h.1c.2,0,.2.1.3.3s.2.5.6.5.5-.9.4-1.3a1.56,1.56,0,0,0,.7-.8c.1-.1.1-.2.2-.3a.76.76,0,0,1,.4.1.45.45,0,0,0,.7-.2c.3-.7-.5-.9-1-1a1.55,1.55,0,0,1-.8-.8h0c-.2-.2-.3-.4-.5-.5-.4-.3-.8-.7-.1-.7s1.6-.5.5-.8a3.38,3.38,0,0,0-2.5.3,1.09,1.09,0,0,1-.5.1h-.7a4.05,4.05,0,0,0-1,.3h0a.9.9,0,0,1-.5.1c-.2,0-.3,0-.4-.1a1,1,0,0,0-.7-.2c-.7,0-1.6.4-1.2.9a3.6,3.6,0,0,0,.9.5c.2.1.5.2.7.3.4.3.3.8-.1,1.3a1.82,1.82,0,0,0-.4,1.1Z"/><path class="wise-m-cls-3" d="M80.05,99.8l-.1.4h0c-.1.1-.2.1-.4,0a4.09,4.09,0,0,1-1.4-1.9,2.71,2.71,0,0,1,.6-1.9c.6-.8.8-1.6.2-2a4.61,4.61,0,0,0-1-.5,2.64,2.64,0,0,1-1.3-.8c-.6-.8.7-1.4,1.7-1.4a2.15,2.15,0,0,1,1,.2,1.07,1.07,0,0,0,.6.2,2.35,2.35,0,0,0,.8-.2h0a7.54,7.54,0,0,1,1.5-.4h.2l-1.7,5.9a.37.37,0,0,0-.3.1.91.91,0,0,0-.4.8v1.5Zm5.1-.3h.5c.2,0,.4.2.5.5s.3.7.9.7c.8,0,.7-1.4.6-2a3.64,3.64,0,0,0,1.1-1.2,1.38,1.38,0,0,1,.3-.4c.1-.1.3,0,.5.1.4.2.8.3,1-.3.4-1-.8-1.4-1.5-1.6-.5-.1-.8-.7-1.2-1.2h0a1.9,1.9,0,0,0-.7-.8c-.6-.4-1.2-1-.2-1s2.3-.8.8-1.2a5.39,5.39,0,0,0-3.7.4,1.23,1.23,0,0,1-.7.2H83l1.1,3.9Z"/><path class="wise-m-cls-3" d="M39.45,102.1l-.2-.9c.1,0,.1-.1.2-.1.3-.1.5.1.7.4h0c.2.2.5.5.8.5.7,0,.5-.4,0-.8-.1-.1-.2-.1-.2-.2-.4-.3-.8-.6-.7-1s.8-.4,1.1-.1.4,0,.5-.5a.89.89,0,0,1,1-.8c.4.1.5,1.1.4,1.8-.1.5.1.4.4.4s.4-.1.7-.1c.8,0,1,.3.9.4s-.3.2-.8.1a2.42,2.42,0,0,0-1.8.9c-.4.5.8.4,1.3.3s.7.5-.1.5a2.27,2.27,0,0,0-1.9.8c-.3.5,1.2.3,1.5.1s1.1-.1.8.3a3.27,3.27,0,0,1-1.6.5c-.4.1-.8.2-1.1.3a3,3,0,0,0-1,.7L40,104c.2,0,.3,0,.4-.4a1.33,1.33,0,0,0-.7-1.4C39.55,102.1,39.55,102.1,39.45,102.1Zm1.3,5.1c.2-.1.5-.1.7-.2.5,0,1.2-.4,1-1s-.9-.5-1.2-.4a2.39,2.39,0,0,1-.9.3Z"/><path class="wise-m-cls-3" d="M32.25,113.9h4.5v-1.4a2.2,2.2,0,0,1-1.5.9c-1.4.2-1.1-1-.4-1.6l.1-.1h0c.6-.6,1.2-1.1.8-1.5a.8.8,0,0,0-1.3.2c-.3.7-.9.3-.5-.2a1.38,1.38,0,0,0,.3-.4c.3-.4.7-.9.5-1.3s-.9-.3-1.1-.2-.9.3-.4-.6,0-1.3-.2-1.4a1.18,1.18,0,0,0-1.2.3c-.3.4-.6-.1-.3-.4s.4-.7.2-.8a.66.66,0,0,0-.8.4c-.2.5-.8.6-1-.1s-.9-.9-1.3-.5a.74.74,0,0,0-.1,1c.3.4.3.6-.4.6v1.5a.6.6,0,0,0,.4-.1c1-.2.9.3.8.7a1.13,1.13,0,0,0,.4,1.3.85.85,0,0,0,.7,0H31c.2.1,0,.4-.1.6s-.3.6.4.6h.5c1.1,0,1.8,0,1.6.5a1.28,1.28,0,0,1-.7.5c-.4.2-.8.4-.7.9A.42.42,0,0,0,32.25,113.9Z"/><path class="wise-m-cls-3" d="M54.25,95.5a6.13,6.13,0,0,0,.4-.6,5,5,0,0,0,.2-1.2,3.92,3.92,0,0,0-.3-1.3v-.1h0a.35.35,0,0,0-.1-.2c0-.1-.1-.4-.1-.5a1.8,1.8,0,0,1,.1-1c0-.1.1-.2.1-.3a5.36,5.36,0,0,1,.5,1.1c.1.3.1.6.2,1a6.15,6.15,0,0,1-.1,1.4c0,.1-.1.2-.1.4a1.69,1.69,0,0,0-.2.5,1.64,1.64,0,0,0,.2,1,1.76,1.76,0,0,0,.4.5.31.31,0,0,0,.2.1l.1-.1c0-.1,0-.1-.2-.3s-.3-.3-.3-.5-.1-.4-.1-.6a.76.76,0,0,1,.1-.4c.1-.3.2-.6.3-1h.1c.1,0,0-.1,0-.3a1.09,1.09,0,0,1,.1-.5,4.33,4.33,0,0,1,.1-.5,2,2,0,0,0-.2-1.1c-.1-.2-.1-.3-.2-.5a1.48,1.48,0,0,1,.1-.7l.1.1c.2.2.3.3.3.4a1.45,1.45,0,0,1,.2.7.9.9,0,0,1-.1.5,3.75,3.75,0,0,0-.1,1.1,2,2,0,0,1,.1.5,4.33,4.33,0,0,0,.1.5c0,.2,0,.2.1.3h.1v-.4a2,2,0,0,1-.1-.5,4.33,4.33,0,0,0-.1-.5,1.34,1.34,0,0,1,.1-.9v.2a4.36,4.36,0,0,0,.4,1.8c.1.2.2.3.2.4v.6c0,.2-.1.3-.3.5s-.2.2-.2.3a.1.1,0,0,0,.1.1.31.31,0,0,0,.2-.1.86.86,0,0,0,.3-.6c0-.1,0-.1.1-.2.1.2.1.5.2.6.1.3.2.4.6.8l.3.3a.1.1,0,0,0,.1-.1c0-.1,0-.2-.4-.5l-.3-.3a3.39,3.39,0,0,1-.3-.8,2,2,0,0,1-.1-.7.9.9,0,0,1,.1-.5h0v-.1c0-.1,0-.1.1-.4h0c.2-.6.2-.8.1-1a2.28,2.28,0,0,0-.3-1.1,5.74,5.74,0,0,0-.4-.7,1.42,1.42,0,0,0,.2-.6v.1l.3.6a1.63,1.63,0,0,0,0,.7,1.45,1.45,0,0,1,.2.7,4.12,4.12,0,0,1-.1,1.2c0,.1-.1.2,0,.2h.1a1.17,1.17,0,0,0,.2-.7V92a.35.35,0,0,1,.1.2c.3.5.4.8.3,1.1a.1.1,0,0,1-.1.1c0,.1-.1.1,0,.1h0c0,.1-.1.2-.1.4a2.2,2.2,0,0,0,.1.8c0,.1.1.2.1.3s.1.2.1.3.1.2.2.1a.14.14,0,0,0,0-.2,1.45,1.45,0,0,1-.2-.7.9.9,0,0,1-.1-.5,1.85,1.85,0,0,1,.2-.7c.2-.3.2-.3.2-.4v-.5c0-.1-.1-.2-.2-.4a.83.83,0,0,1-.3-.7c0-.2.1-.3.2-.5a1.87,1.87,0,0,1,.5,1V93c0,.3-.1.7-.1.9a1.62,1.62,0,0,0,.4,1c.1.2.2.3.3.5s.1.4.1.5,0,.2.1.3.1,0,.1-.1a1.09,1.09,0,0,0-.1-.5,6.31,6.31,0,0,0-.4-.9c-.2-.3-.2-.4-.3-.5V94c0-.1.1-.6.1-.9v-.3h0c.1.1.1.1.1,0v-.2a.35.35,0,0,1-.1-.2v-1a1.44,1.44,0,0,1,.2-.3,1.69,1.69,0,0,0,.2-.5v1.3a.76.76,0,0,0,.1.4.37.37,0,0,1,.1.3,2.79,2.79,0,0,1,.1,1v.1a1.27,1.27,0,0,0,.1.6.37.37,0,0,1,.1.3.1.1,0,0,0,.1.1l.1-.1v-.2c0-.1,0-.1-.1-.2s-.1-.2-.1-.3,0-.1.1-.4a4.13,4.13,0,0,0,.2-1.9,1.6,1.6,0,0,0-.3-.8,3.93,3.93,0,0,1-.2-.6v-.1a9.32,9.32,0,0,0,.7,1.3c.5.9.6,1.2.5,1.7,0,.1,0,.2-.2.4a2.39,2.39,0,0,0-.2.9v.4a.6.6,0,0,0,.1.4,4.88,4.88,0,0,0,.3.7c0,.1.1.1.2.2l.2.2c.1,0,.1-.2,0-.3l-.2-.2a1.33,1.33,0,0,1-.3-.5,4.33,4.33,0,0,1-.1-.5v-.7c0-.2.1-.3.2-.5a1.8,1.8,0,0,0,.2-1,.37.37,0,0,0-.1-.3,5.6,5.6,0,0,0-.7-1.5,5.56,5.56,0,0,0-.4-.8v-.2a1.27,1.27,0,0,1,.1-.6c0-.1.1-.2.1-.3v-.2h.1c.6-.4.9-1.2.4-2.6s-2.4-2.6-4.9-2.5a5.05,5.05,0,0,0-4.5,2.5,2.27,2.27,0,0,0,0,2.4h0c.1,0,.1,0,.1-.1h0v.4a3.63,3.63,0,0,0,.3,1.1,1.69,1.69,0,0,1-.2.5,12.69,12.69,0,0,0-.6,1.6v.4a1.93,1.93,0,0,0,.3,1c.1.2.2.3.2.5s.1.5.1.7v.5c0,.2-.1.3-.2.5a.35.35,0,0,1-.1.2c-.1.1-.1.3,0,.3s.1,0,.2-.2a.22.22,0,0,1,.2-.2c.2-.2.2-.4.3-.7v-.8a1.4,1.4,0,0,0-.3-.9c-.2-.2-.2-.3-.2-.4a2.38,2.38,0,0,1,.3-1.7,2,2,0,0,0,.3-.8c.2.5.2.6.3.7a1.76,1.76,0,0,1-.1.6,4.5,4.5,0,0,0-.2.8,3.31,3.31,0,0,0,.3,1.9c.1.3.1.3.1.4s0,.1-.1.3a.31.31,0,0,0-.1.2v.2c0,.1,0,.1.1.1s.1,0,.1-.1a.37.37,0,0,1,.1-.3,1.27,1.27,0,0,0,.1-.6c0-.1-.1-.1-.1-.2a2.82,2.82,0,0,1-.4-1.5,2.17,2.17,0,0,1,.2-1c.2-.5.2-.6.1-.8a4.88,4.88,0,0,0-.4-1.1c0-.1.1-.2.1-.4a2.15,2.15,0,0,0-.2-1.1l-.1-.2h.3c.1,0,.2.1.3.1s.1,0,.1.1a.31.31,0,0,0,.1.2,1.06,1.06,0,0,0,.2.5c0,.1-.1.2-.1.3a1.58,1.58,0,0,0-.2,1.3v.9c0,.1,0,.1-.1.2s-.1.2-.1.3a2.22,2.22,0,0,0-.1.9c0,.2.1.9.1.9h.1v-.5a2,2,0,0,1,0-1.1.37.37,0,0,1,.1-.3c.1-.2.1-.2.1-.3,0,.1.1.2.2.3a1.44,1.44,0,0,1,.2.3v.2a.49.49,0,0,0,.1.3V93a.84.84,0,0,1-.2.7c-.1.1-.1.2,0,.2a.1.1,0,0,0,.1-.1c.1-.1.1-.2.2-.4v.5c0,.1-.1.2-.2.6a1.9,1.9,0,0,0-.3.9c0,.2-.1.4,0,.5s.1.1.2.1a.44.44,0,0,0,.1-.3.75.75,0,0,1,.1-.5,1.69,1.69,0,0,1,.2-.5,2.65,2.65,0,0,0,.3-1v.2c0,.1,0,.1.2.4h0l.1-.3c-.1-.2-.1-.2-.1-.3a.65.65,0,0,1,.2-.5.1.1,0,0,0,.1.1h0v-.2h0V93c.1-.1.1-.2.2-.3a1.1,1.1,0,0,0,0-.8v-.1c.1-.2.1-.3.2-.4a1.49,1.49,0,0,0-.1-.6.76.76,0,0,1-.1-.4,1.33,1.33,0,0,1,.3.7v.3c0,.1,0,.1-.1.3a5.64,5.64,0,0,0-.1.7v.1l.3-1.4v1.4a.31.31,0,0,0,.1.2h0a.77.77,0,0,1,.1.3v.1h0a.9.9,0,0,1,.1.5v.7a1.55,1.55,0,0,1-.2.8.1.1,0,0,1-.1.1l-.2.3Zm0-1.9h0c.1,0,.1-.1,0-.2h0Zm-1.7-4.7v-.4h.2a.6.6,0,0,1-.1.4,2.79,2.79,0,0,0,.1,1.6c0,.1-.1.1-.1.2a2.54,2.54,0,0,0-.2.7v.5a.35.35,0,0,1-.1-.2c-.2-.2-.2-.4-.3-.5h0v-.3h0a1.23,1.23,0,0,1,.2-.7,1.7,1.7,0,0,0,.1-.7v-.2A.4.4,0,0,0,52.55,88.9Zm.5,1.4a5.74,5.74,0,0,1,.1-1.8h.1a.76.76,0,0,1,.2.4V89a.85.85,0,0,0,0,.7h0a.35.35,0,0,0-.1.2C53.15,90,53.15,90.1,53.05,90.3Zm.5-1.7Zm.2.1v-.1h.3a.9.9,0,0,0-.1.5v.4a.1.1,0,0,1-.1.1c-.2.2-.2.3-.3.4a.1.1,0,0,0-.1-.1v-.3h0v-.7C53.65,88.8,53.65,88.7,53.75,88.7Zm.6,0a.35.35,0,0,0,.1-.2h.4v.7l-.2.4c-.1.1-.1.2-.2.3-.2-.3-.2-.4-.2-.5s.1-.2.1-.3Zm.9-.2h.6v.3c0,.1-.1.2-.2.4a1.38,1.38,0,0,1-.3.4c0-.1-.1-.1-.1-.2s-.1-.2-.1-.3h0v-.3c0-.2.1-.2.1-.3Zm.9.3a.37.37,0,0,1,.1-.3h.5v.1c0,.1-.1.3-.1.4s-.1.1-.1.2a3.33,3.33,0,0,1-.3.6l-.1-.1v-.5C56.05,89.1,56.05,89,56.15,88.8Zm.8-.3h.5c0,.1.1.2.1.3s-.1.1-.1.2v.4a1.42,1.42,0,0,0-.2.6.91.91,0,0,1-.3-.7c.1-.3.2-.4.2-.5C57,88.6,57,88.6,57,88.5Zm.6.1Zm.2.2c.1-.1.1-.2.2-.3h0a4.48,4.48,0,0,1,.1,1.1,1.45,1.45,0,0,1-.2.7v-.1c0-.1-.1-.1-.1-.2a1.72,1.72,0,0,1-.1-.8C57.55,89.1,57.65,89,57.75,88.8Zm.8-.2a.1.1,0,0,0,.1-.1h.6a.1.1,0,0,1,.1.1h.1l-.1.2a1.09,1.09,0,0,0-.1.5,2.31,2.31,0,0,0-.2.9,1.72,1.72,0,0,0,.2.8,3.81,3.81,0,0,1,.3,1,3.18,3.18,0,0,1-.2,1.3,1.88,1.88,0,0,0-.2-.8c0-.1-.1-.2-.1-.3A.31.31,0,0,1,59,92v-.8a2.2,2.2,0,0,0-.1-.8v-.5c0-.1-.1-.2-.2-.5A2.81,2.81,0,0,1,58.55,88.6Zm-7.1,1.1v-.1a5.07,5.07,0,0,0-.2-.9h0V89A4.08,4.08,0,0,0,51.45,89.7Zm1-1.2h-.2v.1a1.69,1.69,0,0,0,.2.5v-.5C52.55,88.6,52.55,88.6,52.45,88.5Zm-.1,1v.1c-.1.3-.2.4-.2.6v.3c0-.1.1-.2.1-.4A1.27,1.27,0,0,0,52.35,89.5Zm.6,1.4a.9.9,0,0,0-.1.5V92a1.08,1.08,0,0,0,.1.6,3.71,3.71,0,0,1,.2.9h0v-.3c0-.1.1-.2.2-.4v-.5c0-.1.1-.3.1-.4a.54.54,0,0,0-.3-.4A1.07,1.07,0,0,0,53,90.9Zm.7.7a.76.76,0,0,1-.2-.4l-.3-.6.3-.6h0v-.1a.1.1,0,0,0,.1.1h0v.2a.76.76,0,0,0,.1.4,1.09,1.09,0,0,1,.1.5c0,.1,0,.1-.1.3Zm-.1.8v0Zm.6-1.6c0-.2.1-.3.2-.5a.35.35,0,0,1,.1-.2V90a1.69,1.69,0,0,1-.2-.5l-.1.1c-.1.2-.2.3-.2.4h0c.2.2.2.4.3.6C54.05,90.7,54.15,90.7,54.15,90.8Zm.5-.7a3.49,3.49,0,0,1,.5,1.3,3.59,3.59,0,0,1,.2,1.1v0a.75.75,0,0,1,.1-.5,1.8,1.8,0,0,0-.2-1c0-.1-.1-.2-.1-.3s-.1-.3,0-.5a.75.75,0,0,1,.1-.5h0c-.1-.1-.1-.2-.2-.3h0c0,.1-.1.2-.2.3A.52.52,0,0,0,54.65,90.1Zm.7-.4h0a7.37,7.37,0,0,1,.5.6c0,.1.1.3.1.4a1.42,1.42,0,0,1,.2-.6c-.1-.2-.2-.3-.2-.4a1.48,1.48,0,0,1-.1-.7c0,.1-.1.2-.2.3S55.45,89.6,55.35,89.7Zm1,.6c0,.2-.1.3-.1.5a3.08,3.08,0,0,0-.1,1,4.44,4.44,0,0,0,.2,1.3c0,.1.1.2.2.3s.1.1.1.2a1.85,1.85,0,0,1,.2-.7v-.1c0-.1,0-.2.1-.2s.1-.4.1-.5a2,2,0,0,0-.2-1A5.58,5.58,0,0,1,56.35,90.3Zm1-.7c-.1.2-.1.3-.2.4a3.91,3.91,0,0,1,.4.5v.2h0c0-.1.1-.2.2-.3l-.1-.1h0c-.1-.1-.2-.2-.2-.3v-.2h0C57.35,89.8,57.35,89.7,57.35,89.6Zm.6.9a6.13,6.13,0,0,1,.4.6.35.35,0,0,0,.1.2c0-.1.1-.2.2-.4s.2-.4.2-.5v-.1c0-.1-.1-.2-.2-.4a3.63,3.63,0,0,1-.3-.7.64.64,0,0,1,0-.6v-.1h-.2a2.85,2.85,0,0,1,0,1.3A1.45,1.45,0,0,1,58,90.5Zm.5-1.8v.2c0,.1,0,.1.1.2s.1.4.3.6c0,.1.1.1.1.2,0-.2-.1-.3-.2-.6C58.45,89.1,58.45,89,58.45,88.7Zm-1,2.6v.3c0,.1,0,.1.1.2a1.33,1.33,0,0,1,.3.7.17.17,0,1,0,.2,0,1.69,1.69,0,0,0-.2-.5,1.33,1.33,0,0,1-.3-.5C57.45,91.6,57.35,91.4,57.45,91.3Zm-.4-1.1h0a1.27,1.27,0,0,0,.1.6c0,.1.1.2.1.3V91a1.34,1.34,0,0,0,.1-.5Z"/><path class="wise-m-cls-3" d="M134.75,94.3a9.65,9.65,0,0,1,2,.9,5.9,5.9,0,0,0,.8.4,4.23,4.23,0,0,0,1.8-.3,3.09,3.09,0,0,1,.8-.2c.3,0,.4.2-.2.8-.1,0-.1.1-.2.1-.5.4-.6.5-.3,1s.6,1.2,0,.9a9.22,9.22,0,0,1-.8-.5,2.79,2.79,0,0,0-1.3-.7,4.5,4.5,0,0,0-.8.2,5.64,5.64,0,0,1-1.8.5V94.3Z"/><path class="wise-m-cls-3" d="M136.75,87.3c.3.7,4.1,2.9,7.9,3.8v-6a28.17,28.17,0,0,0-6.5.8C137.15,86.2,136.45,86.5,136.75,87.3Zm2.7-.2a.5.5,0,1,0-.5-.5A.54.54,0,0,0,139.45,87.1Z"/><path class="wise-m-cls-3" d="M183.35,113.9h-3v-6c.4.5.9,1,3,.3,3-1,2.2-2.9,1.4-3.6l-.6-.6c-.9-.8-2.2-1.9-.8-1.9a5.64,5.64,0,0,1,2.3.7,5.91,5.91,0,0,0,2,.7,9.77,9.77,0,0,1,2.6.5v1.9h.3a9.91,9.91,0,0,0-4.4,4.2,4.55,4.55,0,0,1-3.9,2.5C181.75,112.5,182.55,113.2,183.35,113.9Z"/><path class="wise-m-cls-3" d="M180.45,89.5a5.74,5.74,0,0,0,2.8-.9,3.08,3.08,0,0,1,.9-.4,3.27,3.27,0,0,1,1.6.9c.3.3.7.5.9.7.8.4.4-.5,0-1.3s-.3-.8.3-1.3l.2-.2c.8-.8.6-1,.3-1a2.94,2.94,0,0,0-.9.3,6.83,6.83,0,0,1-2.2.5,1.87,1.87,0,0,1-1-.5,12.58,12.58,0,0,0-3-1.3l.1,4.5Z"/><path class="wise-m-cls-3" d="M130.35,95.7a6.19,6.19,0,0,0,.7-1.9,12,12,0,0,0-2.5.3c-.5.1-.9.2-.8.7a4.44,4.44,0,0,0,2.1,1.4A.82.82,0,0,0,130.35,95.7Zm-1.2-.9a.32.32,0,0,0,.3-.3.3.3,0,0,0-.6,0C129,94.6,129.05,94.8,129.15,94.8Z"/><path class="wise-m-cls-3" d="M115.85,100.1c-.3.2-.8.6-.8,1.1H114l-.2-.2c-.9-.5-1.2-.9-.9-1.4s.9-.3,1.2,0,.9-.5,1-.8.9-.8,1.3-.3A1.42,1.42,0,0,1,115.85,100.1Zm-3.6,1.8a.37.37,0,0,0-.3-.1c-.2,0-.3,0-.4.2h0a.35.35,0,0,0-.1.2h0c-.2.2-.4.5-.8.5-.7,0-.5-.4,0-.9.1,0,.1-.1.2-.1l.1-.1c.4-.3.8-.6.7-1.1s-.8-.4-1.1-.1-.4,0-.5-.6-.5-1-.9-.9-.5,1.1-.4,1.8c.1.5-.1.4-.4.4h0c-.2,0-.4-.1-.7-.1-.8,0-.9.3-.9.4s.3.3.8.1a2.39,2.39,0,0,1,1.8,1c.4.6-.8.4-1.3.3s-.7.6.1.6a2.27,2.27,0,0,1,1.9.8c.3.5-1.2.3-1.5.1s-1.1-.1-.8.3a4.38,4.38,0,0,0,1.6.6h0c.2,0,.4.1.6.1a4.33,4.33,0,0,1,.5.1c.7.2,1.4,1.2,2,2.2v-1.2h0a1.26,1.26,0,0,1,0-1.2v-.8a.37.37,0,0,0-.3.1h-.1c-.3.1-.6.2-.6-.3V104a1.22,1.22,0,0,1,.5-1.2.78.78,0,0,0,.4-.4l-.1-.5Zm0,8c-.1,0-.2-.1-.3-.1-.3-.3-.2-.6-.2-.9h0a1.54,1.54,0,0,0-.2-1.1c-.3-.5-.5-.4-.7-.1h0c-.1.1-.2.3-.4.4-.5.3-.7.1-.5-.4s-.4-1.8-.8-.7a1.75,1.75,0,0,0,1.3,2.4.86.86,0,0,1,0,1.7c-.7,0-.8.1-.9.4s.1,1.1,1.2,1,1.3.7.4,1a.51.51,0,0,0-.4.5h1.5v-4.1Zm7.1,1.1c.6-.1.5-.8-.2-1H119Zm-.7-2a1.79,1.79,0,0,1,1.3,0c1.7.4,1.8-.7,1.2-1.2s-.6-1.1-.3-1.1c.1,0,.2.1.3.2h0a1,1,0,0,0,1.2.2c.8-.4.3-1.4,0-1.9s.3-.7.6-.3,1.1,1,1.3.6.3-.8-.3-1-1.1-.3-.8-.4,1.2-.6.4-1.1-1.2-.1-1.3,0a.35.35,0,0,0-.1.2h0c-.2.3-.4.8-.8.4a1.28,1.28,0,0,0-1.1-.7c-.3,0-.4.6,0,1.1s.4,1,.2.8q-.15,0-.3-.3h0c-.3-.4-.8-1-1.5-.5-1.1.6-.3,1.5.2,1.8s.3.7,0,.7c-.1,0-.2-.1-.3-.2h0a.87.87,0,0,0-1.2-.3Z"/><path class="wise-m-cls-3" d="M148.45,91.6a12,12,0,0,0,4.2-1.1,3.39,3.39,0,0,1,1.4-.5,4.92,4.92,0,0,1,2.4,1.2,8,8,0,0,0,1.4.9c1.1.5.6-.7,0-1.7s-.4-1,.5-1.8l.3-.3c1.1-1,.9-1.4.4-1.4a7.91,7.91,0,0,0-1.3.4c-1.1.3-2.5.8-3.2.6a7.72,7.72,0,0,1-1.5-.6,20.2,20.2,0,0,0-4.4-1.7l-.2,6Z"/><path class="wise-m-cls-3" d="M176.65,106.2c-2.6-.7-6.4-1.5-9.5-2-2.4-.4-3.7-.1-4.3.3l3.7,6.5a82.83,82.83,0,0,0,9.4,2.9h.8l-.1-7.7Z"/><path class="wise-m-cls-3" d="M173.35,85.4a15.12,15.12,0,0,1,3.3-.6v4.1c-2.1-.8-4-2-4.2-2.5C172.25,85.7,172.75,85.6,173.35,85.4Zm.8.9a.32.32,0,0,0,.3-.3.3.3,0,1,0-.3.3Z"/><path class="wise-m-cls-1" d="M205.35,23.6V35.8h-24.5v8h19.8V55.6h-19.8v8.9h24.5V77.2H165V23.6Z"/><path class="wise-m-cls-1" d="M136.05,42.1a97,97,0,0,1,13.3,3.5,15,15,0,0,1,6.6,5.2,14.43,14.43,0,0,1,2.6,8.7,15.42,15.42,0,0,1-6.4,12.8c-4.3,3.3-9.9,4.9-16.9,4.9-12.7,0-20.6-5.3-23.6-15.9l14.9-2.6c1.2,4.2,4.5,6.3,9.7,6.3,4,0,6-1,6-3.2a3,3,0,0,0-1.4-2.6,15.59,15.59,0,0,0-5-1.7c-9.2-1.8-15-4.1-17.6-6.9a14.07,14.07,0,0,1-3.9-9.9A15.52,15.52,0,0,1,120,28.5c3.8-3.3,9.1-4.9,16.1-4.9,10.6,0,17.6,4.3,21.1,12.8l-13.3,4c-1.4-3.5-4.2-5.2-8.4-5.2-3.5,0-5.2,1-5.2,3.2a2.4,2.4,0,0,0,1.2,2.2A13.4,13.4,0,0,0,136.05,42.1Z"/><path class="wise-m-cls-1" d="M106.55,77.2H90.05V23.6h16.5Z"/><path class="wise-m-cls-1" d="M57.15,23.6l8,30.9,7.5-30.9h12.6L71.05,77.2H57.25l-7.5-29.6-7.1,29.6H28.05L14,23.6h15.4l7.5,30.9,7.3-30.9Z"/><path class="wise-m-cls-3" d="M164.85,56.5v-.9l.6-.4V52.4c0-.2.1-.6.5-.6s.4.4.4.6v2.8l10.4,9.2,4-2.8v1.1l-3.3,2.4,9,8h.9c.5,0,1.2.1.5,1a9.47,9.47,0,0,0-1.1,3.1h-22V66.1h.6v-10Zm16.4,8h.5v.1a.74.74,0,0,1,0,1.4v.2a.54.54,0,0,1,.5.5v.1h0c0,.4,0,.8-.8.8-.2,0-.5,0-.5-.3s.3-.3.5-.3.5-.3.1-.5h0a1.38,1.38,0,0,1-.4-.3h0V66a.75.75,0,0,1-.5-.7c0-.3.3-.6.6-.8Zm-14.5,1.7.1.1a1.3,1.3,0,0,1-.3,1.3v4l2.2-1.5v-7Zm-.3-.5,2.3-3.7V60.8c0-.2.1-.6.5-.6s.4.4.4.6v.6l6.1,3.9.5-.3-9.8-8.9v9.6Zm8.6,0-5.4-3.4v7.2Zm-7.3,6.5,1-.7v.8Zm11.5.9h5.9l-8.3-7.5-7.3,5.3v1.5Z"/><path class="wise-m-cls-3" d="M158.55,59.5l-14.3,8.2,6.8,1.2V65.5a1.15,1.15,0,0,1-.5-.9c0-.4.6-.6.9-.6h6.6c-.1.4-.2.7-.3,1h-.9v1.3h.4a15.8,15.8,0,0,1-5,6,21.42,21.42,0,0,1-5.8,3.1c-2.1-1.6-4-5.7-4.4-6.4h0a.1.1,0,0,0-.1-.1.22.22,0,0,0-.2-.2c-.2-.2-.6-.5-.3-.9a1.49,1.49,0,0,1,1.4-.3h.2l15.4-8.9A2.77,2.77,0,0,1,158.55,59.5Zm-6.2,5.5h1.3v1.3h-1.3Zm3.7,0h-1.3v1.3h1.3Z"/><path class="wise-m-cls-3" d="M106.55,43.4h-1.2c-.3,0-.8,0-.9.3s-.4.5-1.2.5h-1.4v.4l.6,32.6h-3.2l.8-33.5c-.2-.1-.6-.3-.8,0a2.48,2.48,0,0,0-.1.9c0,.3.1.7-.1.8s-6,9.5-9,14.5V56.8L96,45.3c.3-.6,1-1.7,1.9-1.8s.8-.8.7-1.2a3.65,3.65,0,0,1,0-1.8c.1-.3.1-.3-.1-.4a1,1,0,0,1-.8-.5c-.6-.7-5-8.1-7.6-12.6V25.2l8.4,11.5a4,4,0,0,1,.9,2.7c-.3,1.2,1,1.7,1.4,1.8.2.1,3.4.2,5.8.2v2Z"/><path class="wise-m-cls-3" d="M44.15,70.4l-1.6,6.8h-.1V72h-1V71H42v-.5h2.2Zm2.5-10.3-.7,3-3.2-4.9H42v7.9h.5v.4h-1.3v-.4h.5V57.8h1.1l.3-.3h.5Zm27.6,4.7h-.6v-.5h.5v-7h-.9l-4.7,7.8v2.1l.9.5V69h1.1c.4,0,1.2.5,1.2,1.8v2.1H71v4.3h-3.7V72.9h-3.7v4.3h-1.8V72.9h-2.3v4.3h-2.2L54.65,67l3.9-22.4,1.7-.9V41.5h.3v2.3l1.3.8,2.3,22.1h.3v-2H65l.9-2.7,7.5-5.5,1.2.3v7.6Z"/><path class="wise-m-cls-3" d="M114.45,42.8a7.08,7.08,0,0,1-.1-1.4h4.9a2.41,2.41,0,0,1-1.8,1.2C116.85,42.6,115.65,42.7,114.45,42.8Z"/></svg>