<svg id="Layer_1" data-name="Layer 1" xmlns="http://www.w3.org/2000/svg" viewBox="0 0 238.75 135.13"><defs><style>.wise-f-cls-1{fill:#00b4d5;}.wise-f-cls-2{fill:#99e1ef;fill-rule:evenodd;}</style></defs><path class="wise-f-cls-1" d="M214.75,33.1V45.6h-24.5v7.9h19.8v12h-19.8v8.9h24.5V87.3H174V33.1Z"/><path class="wise-f-cls-1" d="M115.25,87.3H98.65V33.1h16.6Z"/><path class="wise-f-cls-1" d="M64.85,33.1l8,31.3,7.6-31.3h12.7L78.75,87.3h-14l-7.6-29.9L50,87.3H35.35L21,33.1h15.7l7.6,31.2,7.4-31.2Z"/><path class="wise-f-cls-1" d="M144.35,51.8a102,102,0,0,1,13.5,3.5,14.34,14.34,0,0,1,6.7,5.3,14.59,14.59,0,0,1,2.7,8.8,15.31,15.31,0,0,1-6.5,12.9c-4.4,3.3-10,5-17.1,5-12.9,0-20.8-5.3-23.9-16l15.1-2.7c1.3,4.2,4.5,6.4,9.8,6.4,4.1,0,6.1-1.1,6.1-3.2a3,3,0,0,0-1.4-2.6,15.47,15.47,0,0,0-5.1-1.7c-9.3-1.8-15.2-4.1-17.8-6.9a14.64,14.64,0,0,1-4-10.1,15.69,15.69,0,0,1,5.7-12.4c3.8-3.3,9.2-4.9,16.3-4.9,10.8,0,17.8,4.3,21.3,12.9l-13.4,4c-1.4-3.5-4.2-5.3-8.5-5.3-3.5,0-5.3,1.1-5.3,3.3a2.68,2.68,0,0,0,1.2,2.3A15.7,15.7,0,0,0,144.35,51.8Z"/><path class="wise-f-cls-1" d="M35.55,109.8h5.8v-7.2h6.3V98.3h-6.3V95.2h8.2V90.5h-14v19.3ZM68,99.1a7,7,0,0,0,.7-3,5.1,5.1,0,0,0-1.8-4.1,7.87,7.87,0,0,0-5.2-1.6H51.55v19.3h5.9v-7.4h1.9l2.8,7.4h6.6l-3.5-8.4A5.14,5.14,0,0,0,68,99.1Zm-6.2-1.2a3.2,3.2,0,0,1-1.8.5h-2.5V94.7h2.7c1.5,0,2.3.6,2.3,1.9A1.57,1.57,0,0,1,61.75,97.9ZM71,109.8h14.5v-4.6h-8.7v-3.1h7V97.8h-7V95h8.7V90.5H71Zm29-11.4a34.94,34.94,0,0,0-4.9-1.3,6.29,6.29,0,0,1-1.7-.6.91.91,0,0,1-.4-.8c0-.8.6-1.2,1.9-1.2A2.93,2.93,0,0,1,98,96.4l4.9-1.5c-1.3-3.1-3.9-4.7-7.8-4.7a9,9,0,0,0-6,1.8,5.75,5.75,0,0,0-.7,8.2c1,1,3.1,1.9,6.5,2.5a6,6,0,0,1,1.8.6,1.23,1.23,0,0,1,.5,1c0,.8-.8,1.2-2.2,1.2a3.38,3.38,0,0,1-3.6-2.3l-5.5,1c1.1,3.9,4,5.9,8.7,5.9a9.73,9.73,0,0,0,6.2-1.8,5.92,5.92,0,0,0,2.4-4.7,5.09,5.09,0,0,0-1-3.2A3.64,3.64,0,0,0,100,98.4Zm15.6-.8h-4.5V90.5h-5.9v19.3h5.9v-7.5h4.5v7.5h5.9V90.5h-5.9Zm29.2-7.1-2.7,11.1-2.9-11.1h-4.7l-2.6,11.1-2.7-11.1h-5.6l5.1,19.3h5.2l2.6-10.6,2.7,10.6h5l5.1-19.3Zm9.8,0-6,19.3h4.8l1.2-3.8h5.2l1.1,3.8H167l-6.1-19.3Zm1,11.3,1.6-5.6,1.6,5.6Zm10.1-6.7h4v14.7h5.6V95.1h4V90.5h-13.6v4.6Zm14.8,14.7H195v-4.6h-8.7v-3.1h7V97.8h-7V95H195V90.5h-14.5Zm30.8-8.4a5.19,5.19,0,0,0,2.7-2.2,6.64,6.64,0,0,0,.7-3,5.1,5.1,0,0,0-1.8-4.1,7.87,7.87,0,0,0-5.2-1.6h-10.1v19.3h5.9v-7.4h1.9l2.8,7.4h6.6Zm-3.5-3.5a3.2,3.2,0,0,1-1.8.5h-2.5V94.7h2.7c1.5,0,2.3.6,2.3,1.9A1.57,1.57,0,0,1,207.75,97.9Z"/><path class="wise-f-cls-2" d="M101.25,66.4V63.5a34.53,34.53,0,0,0,5.5.5,38.44,38.44,0,0,0,5.8-.6v3.1a29.42,29.42,0,0,0-5.8-.5A39.91,39.91,0,0,0,101.25,66.4Zm5.6-2.9a33,33,0,0,0,4.7-.4.6.6,0,0,1-.4-.1,42.56,42.56,0,0,0-4.3-.2,40.28,40.28,0,0,0-4.2.2c-.2,0-.5.1-.7.1A33.43,33.43,0,0,0,106.85,63.5Zm0-1.2a38.74,38.74,0,0,0-4.2.2c-.5.1-.8.1-1.1.2s-.5.1-.6.2l-.2.1v9.9h0c0,1.8.2,4.7.3,7.5a58.14,58.14,0,0,0,.8,6.8l.1.2h9.7l.1-.2c.3-1.1,1-5.5,1.3-14.3h0v-10l-.2-.1c-.3-.1-.8-.2-1.8-.4C110.15,62.4,108.75,62.3,106.85,62.3Zm-5.6,4.5a14.22,14.22,0,0,0,5.8,1,11.94,11.94,0,0,0,5.5-1v.3a13.13,13.13,0,0,1-5.5,1,15,15,0,0,1-5.8-1Zm.6,9.3c.2,3.2.4,8.1,1,9.2.3.5,2.5.8,3.6.4.5-.2.2-.4-.4-.8a6.43,6.43,0,0,1-2.1-2.6,41.38,41.38,0,0,1-1.4-5.6c-.4-2-.8-3.4-.7-2Z"/><path class="wise-f-cls-2" d="M61.15,72.3l3.8,15h12.3c.4-1.5,1-4.2-1.2-8.1a29.77,29.77,0,0,0-2-2.9h0c-1.5-2-2.9-3.8-2.2-6,1.1-3.4,3.2-5.8,3.8-5.8.1,0,.1.1.2.2a3.26,3.26,0,0,0,.8,1.2,34.08,34.08,0,0,0,5.4,3.8c.6.1.2-.6.1-1a.1.1,0,0,0-.1-.1,24.26,24.26,0,0,0-1.4-2,17.41,17.41,0,0,1-1.2-1.8,1.68,1.68,0,0,1,.3-1.1h0a1.42,1.42,0,0,0,.2-.6V63c.2-.6.6-2.2-.7-3.1a4.83,4.83,0,0,0-5,.4l-.5.4L73,64.2l-.6-2.2c-2.1,2.3-3.8,4.6-4.1,8.2a14.88,14.88,0,0,0,2,8.5c.8,1.4,2.2,3.8,1,4.7-1.4,1-2.8-1.7-3.4-3.3h0C67.15,78.6,65.05,73.6,61.15,72.3Zm17.5-8.6a.4.4,0,1,1-.4-.4A.37.37,0,0,1,78.65,63.7ZM47.05,87.3h3.1l3.7-15.5a2.58,2.58,0,0,0-1.3.3c-.7.4-.4.8.4,1.2.3.1.3.8-.7.4a1.61,1.61,0,0,1-.7-.4c-.4-.2-.7-.4-1-.2s.1.6.6,1c.2.2.5.4.6.6.5.7,0,1.2-.7.7s-1.1-.8-1.7-.7-.7.8.1,1.5c1.1,1,1.5,2.1.1,2.2-3.4.3-3.8,1.8-3.7,3.7.1,1.7,2.4,2.5,3.6,2.9.1,0,.2.1.3.1.8.4.1.8-1.2.8a2.36,2.36,0,0,1-2-.7l-.2-.2c-.2-.2-.4-.4-.4.2A13.39,13.39,0,0,0,47.05,87.3Z"/><path class="wise-f-cls-2" d="M43,102.6c-2.6-.8-4.8-1.5-6.4-2.1l-.2.5c1.3.5,3,1.1,5,1.7v-.1Zm8.6,2.3v.5c1.9.4,3.9.9,5.9,1.2v-.5C55.35,105.7,53.45,105.3,51.55,104.9Zm9.4,1.8.2.6,6.8.9-.2-.5C65.45,107.3,63.15,107,61,106.7Zm10,1.1v.5c2,.1,4,.2,5.9.2,3.2,0,6,0,8.6-.1v-.5c-2.6.1-5.4.1-8.6.1C74.85,108,72.85,107.9,71,107.8Zm17.1,0a2.65,2.65,0,0,0,.6.5,98.36,98.36,0,0,0,13.8-1.4c.1-.2.3-.4.4-.6A96.84,96.84,0,0,1,88.05,107.8Zm17.1-2v.5c2-.4,3.9-.9,5.9-1.5v-.5C109,104.9,107.05,105.4,105.15,105.8Zm10.4-2.7v.5c1.6-.5,3.3-1,5.2-1.6.2-.1.5-.1.7-.2v-.5l-.9.3h0C118.85,102.1,117.15,102.6,115.55,103.1Zm10.5-3.3.1.5a22.5,22.5,0,0,0,2.4-.8h0c.8-.3,1.7-.6,2.5-.9l-.1-.5c-.9.3-1.8.6-2.6.9A15.55,15.55,0,0,1,126.05,99.8Zm6.8-2.3-.1.6c2.3-.8,4.9-1.6,7.8-2.3l-.1-.5C137.65,96,135.15,96.8,132.85,97.5Zm10.9-3-.1.6c1.5-.4,3.1-.7,4.7-1l.2-.6C146.85,93.8,145.25,94.1,143.75,94.5ZM154,92.6l-.2.6c2.4-.3,4.9-.6,7.6-.8l-.2-.5C158.65,92,156.25,92.3,154,92.6Zm11.7-1.1V92c1.8-.1,3.7-.1,5.6-.1,2.7,0,5.4.1,8,.3v-.5c-2.7-.2-5.4-.3-8-.3C169.35,91.4,167.45,91.5,165.65,91.5Zm14.8.3v.5c5.1.5,10,1.2,14.5,2.1v-.5C190.45,93,185.55,92.3,180.45,91.8Zm17.1,2.7V95c2.1.5,4.1.9,5.9,1.4v-.5C201.65,95.4,199.65,94.9,197.55,94.5Zm10.8,2.7c-.1.2-.2.3-.3.5,2.2.6,4.2,1.3,5.7,1.8.1-.1.1-.2.2-.3l.1-.1C212.45,98.5,210.55,97.8,208.35,97.2Z"/><path class="wise-f-cls-2" d="M200.65,44.6a1.33,1.33,0,0,1,.3,1h-8.6a1.49,1.49,0,0,1,.3-1,1.25,1.25,0,0,1,1.1-.4h.7a2.77,2.77,0,0,1,.5-1.6,4.5,4.5,0,0,1,.9-1V41a3.13,3.13,0,0,1-2.2-2.8h-2a3.64,3.64,0,0,1-2.8,1.6c-1.7,0-2.6-.9-2.6-2.4s1.3-2.1,2.6-2.1a5.24,5.24,0,0,1,2.8,1.3H194a3.12,3.12,0,0,1,2.9-1.8,3,3,0,0,1,3.1,2.6h2a3.64,3.64,0,0,1,2.8-1.6c1.7,0,2.6.9,2.6,2.4s-1.3,2.1-2.6,2.1A5.24,5.24,0,0,1,202,39h-2.2a3.23,3.23,0,0,1-2.1,2v.6a4.67,4.67,0,0,1,.9,1,3,3,0,0,1,.5,1.6h.7A1.09,1.09,0,0,1,200.65,44.6Zm-10.4,5h-6c-3.9,0-5.2,1.9-5.4,2.9V63.8c-.7,0-1.2.2-1.2.9s.5.9,1.3.9h7.4c.7,0,1.1-.3,1.1-.9s-.4-.9-1.1-.9V58h23.7V53.5h-19.8V49.6Zm-10.2,26.8c0-2,2.6-7.3,2.9-7.8h0c.3.5,2.9,5.8,2.9,7.8s-1.3,3.9-2.9,3.9S180.05,78.5,180.05,76.4Zm34.7-31.1v.3h-3c.4-.7.9-1.5,1.5-1.5S214.35,44.7,214.75,45.3Zm-30.6,33.4c.2.1.5-.1.6-.5s.1-.7-.1-.8-.5.1-.6.5S184,78.6,184.15,78.7Z"/><path class="wise-f-cls-2" d="M142.25,67c-.6-.1-1.2-.3-1.8-.4V56.2H138V54.4h2.5V53.2h1.8v1.2H155c1.1.3,2.1.7,2.9,1a7.57,7.57,0,0,1,1.8.9h-4.6l-1.6,2.9a2.44,2.44,0,0,1,1.8,2.5,2.35,2.35,0,0,1-.6,1.7l.6,10.5h3.1l-.1.4h0v.1c0,.1.1.1.1.2a3.58,3.58,0,0,1,.4,1.1,2,2,0,0,1,0,1.1,1.1,1.1,0,0,1-1,.5l-.2,1.6h6.3V60a3,3,0,0,1,.5.7,25.29,25.29,0,0,1,1.3,2.2V76.1a17,17,0,0,1-5.1,6.3c-4.3,3.3-10,5-17.1,5-1.1,0-2.2,0-3.2-.1V82.2h-2V79h2V74.5a11.63,11.63,0,0,0,1.8.4V79h6.6l1-5.2c.1-.1.2-.3.3-.4l-1.1,5.6h3.9l-.7-5h2.6l-.6-10.3a1.9,1.9,0,0,1-1.3.5,1.5,1.5,0,0,1-1.1-.4l-1.4,7.4a1.42,1.42,0,0,0-.2-.6l1.3-7a2.56,2.56,0,0,1-.8-1.9,2.44,2.44,0,0,1,1.8-2.5l-1.3-2.9h-9.4l.6,10.7Zm9.6-10.8,1.3,2.9,1.6-2.9ZM158,77a.72.72,0,0,0,.7-.4,1.35,1.35,0,0,0,0-.9,10.37,10.37,0,0,0-.4-1h0Z"/><path class="wise-f-cls-1" d="M38.65,115.5h-2.2v2.2h-1v-5.2H39v.7h-2.5v1.6h2.2v.7Z"/><path class="wise-f-cls-1" d="M41.75,115.7h-1.1v2h-1v-5.2h1.9a2.41,2.41,0,0,1,1.5.4,1.35,1.35,0,0,1,.5,1.2,1.4,1.4,0,0,1-.3.9,1.79,1.79,0,0,1-.7.5l1.2,2.2h-1Zm-1-.7h1a1.88,1.88,0,0,0,.8-.2.86.86,0,0,0,.3-.6,1.45,1.45,0,0,0-.2-.7,1.45,1.45,0,0,0-.7-.2H41l-.2,1.7Z"/><path class="wise-f-cls-1" d="M47.75,115.4h-2.2V117h2.6v.7h-3.6v-5.2h3.5v.7h-2.6v1.5h2.2v.7Z"/><path class="wise-f-cls-1" d="M51.75,116.4a.55.55,0,0,0-.3-.5c-.2-.1-.5-.2-.9-.4s-.8-.3-1-.4a1.41,1.41,0,0,1-.8-1.2,1.23,1.23,0,0,1,.5-1,2.12,2.12,0,0,1,1.4-.4,3,3,0,0,1,1,.2,1.34,1.34,0,0,1,.7.6,1.33,1.33,0,0,1,.3.8h-1a.6.6,0,0,0-.3-.6,1.55,1.55,0,0,0-.8-.2,1.45,1.45,0,0,0-.7.2.57.57,0,0,0,0,1c.2.1.5.2.9.4a5.13,5.13,0,0,1,1,.4,1,1,0,0,1,.6.5,1.45,1.45,0,0,1,.2.7,1.23,1.23,0,0,1-.5,1,2,2,0,0,1-1.4.4,3.59,3.59,0,0,1-1.1-.2,1.56,1.56,0,0,1-.8-.6,1.4,1.4,0,0,1-.3-.9h1a.91.91,0,0,0,.3.7c.2.2.5.2.9.2a1.17,1.17,0,0,0,.7-.2C51.75,116.8,51.75,116.6,51.75,116.4Z"/><path class="wise-f-cls-1" d="M58,117.8h-.9v-2.4h-2.5v2.4h-1v-5.3h1v2.2h2.5v-2.2H58Z"/><path class="wise-f-cls-1" d="M63.35,116.5l.8-4h.9l-1.3,5.3h-.9l-1-3.9-1.1,3.9h-.9l-1.3-5.3h.9l.8,4,1.1-4h.8Z"/><path class="wise-f-cls-1" d="M68.75,116.6h-2.1l-.4,1.2h-1l2.1-5.3h.8l2.1,5.3h-1Zm-1.9-.8h1.6l-.8-2.2Z"/><path class="wise-f-cls-1" d="M74.25,113.2h-1.7v4.5h-.9v-4.5H70v-.7h4.3v.7Z"/><path class="wise-f-cls-1" d="M78.25,115.4h-2.2V117h2.6v.7h-3.6v-5.2h3.6v.7h-2.6v1.5h2.2v.7Z"/><path class="wise-f-cls-1" d="M81.35,115.7h-1.1v2h-.9v-5.2h1.9a2.41,2.41,0,0,1,1.5.4,1.35,1.35,0,0,1,.5,1.2,1.4,1.4,0,0,1-.3.9,1.79,1.79,0,0,1-.7.5l1.2,2.2h-1Zm-1-.7h1a1.88,1.88,0,0,0,.8-.2.86.86,0,0,0,.3-.6.75.75,0,0,0-.9-.9h-1l-.2,1.7Z"/><path class="wise-f-cls-1" d="M87.05,117.8h-.9v-5.3h.9Z"/><path class="wise-f-cls-1" d="M92.55,117.8h-.9l-2.4-3.8v3.8h-.9v-5.3h.9l2.4,3.8v-3.8h.9Z"/><path class="wise-f-cls-1" d="M96.85,115.5h-2.2v2.2h-.9v-5.2h3.5v.7h-2.5v1.6H97v.7Z"/><path class="wise-f-cls-1" d="M102.35,115.3a3.19,3.19,0,0,1-.3,1.4,1.76,1.76,0,0,1-.8.9,2.13,2.13,0,0,1-1.2.3,2.66,2.66,0,0,1-1.2-.3,1.76,1.76,0,0,1-.8-.9,2.77,2.77,0,0,1-.3-1.3v-.3a3.19,3.19,0,0,1,.3-1.4,2.36,2.36,0,0,1,.8-.9,2.13,2.13,0,0,1,1.2-.3,2.07,2.07,0,0,1,2,1.2,2.9,2.9,0,0,1,.3,1.4v.2Zm-1-.3a2.9,2.9,0,0,0-.3-1.4,1,1,0,0,0-1-.5,1.39,1.39,0,0,0-1,.5,2.5,2.5,0,0,0-.3,1.3v.3a2.9,2.9,0,0,0,.3,1.4,1.23,1.23,0,0,0,1,.5,1.11,1.11,0,0,0,1-.5,2.09,2.09,0,0,0,.3-1.4Z"/><path class="wise-f-cls-1" d="M105.25,115.7h-1.1v2h-.9v-5.2h1.9a2.41,2.41,0,0,1,1.5.4,1.35,1.35,0,0,1,.5,1.2,1.4,1.4,0,0,1-.3.9,1.79,1.79,0,0,1-.7.5l1.2,2.2h-1Zm-1-.7h1a1.88,1.88,0,0,0,.8-.2.86.86,0,0,0,.3-.6.75.75,0,0,0-.9-.9h-1l-.2,1.7Z"/><path class="wise-f-cls-1" d="M109.25,112.5l1.6,4.1,1.6-4.1h1.2v5.3h-.9v-1.7l.1-2.3-1.6,4.1h-.7l-1.6-4.1.1,2.3v1.7h-.9v-5.3Z"/><path class="wise-f-cls-1" d="M118,116.6h-2.1l-.4,1.2h-1l2.1-5.3h.8l2.1,5.3h-1Zm-1.9-.8h1.6l-.8-2.2Z"/><path class="wise-f-cls-1" d="M123.55,113.2h-1.7v4.5H121v-4.5h-1.7v-.7h4.3v.7Z"/><path class="wise-f-cls-1" d="M125.25,117.8h-.9v-5.3h.9Z"/><path class="wise-f-cls-1" d="M130.75,115.3a3.19,3.19,0,0,1-.3,1.4,1.76,1.76,0,0,1-.8.9,2.13,2.13,0,0,1-1.2.3,2.66,2.66,0,0,1-1.2-.3,1.76,1.76,0,0,1-.8-.9,2.77,2.77,0,0,1-.3-1.3v-.3a3.19,3.19,0,0,1,.3-1.4,2.36,2.36,0,0,1,.8-.9,2.13,2.13,0,0,1,1.2-.3,2.07,2.07,0,0,1,2,1.2,2.9,2.9,0,0,1,.3,1.4v.2Zm-.9-.3a2.9,2.9,0,0,0-.3-1.4,1,1,0,0,0-1-.5,1.39,1.39,0,0,0-1,.5,2.5,2.5,0,0,0-.3,1.3v.3a2.9,2.9,0,0,0,.3,1.4,1.23,1.23,0,0,0,1,.5,1.11,1.11,0,0,0,1-.5,2.09,2.09,0,0,0,.3-1.4Z"/><path class="wise-f-cls-1" d="M136.05,117.8h-.9l-2.4-3.8v3.8h-.9v-5.3h.9l2.4,3.8v-3.8h.9Z"/><path class="wise-f-cls-1" d="M142,116.4a.55.55,0,0,0-.3-.5c-.2-.1-.5-.2-.9-.4a7.6,7.6,0,0,0-1.1-.4,1.41,1.41,0,0,1-.8-1.2,1.23,1.23,0,0,1,.5-1,2.12,2.12,0,0,1,1.4-.4,3,3,0,0,1,1,.2,1.34,1.34,0,0,1,.7.6,1.14,1.14,0,0,1,.3.8h-.9a.6.6,0,0,0-.3-.6,1.55,1.55,0,0,0-.8-.2,1.17,1.17,0,0,0-.7.2.57.57,0,0,0,0,1c.2.1.5.2.9.4a5.13,5.13,0,0,1,1,.4c.3.1.4.3.6.5a1.45,1.45,0,0,1,.2.7,1.23,1.23,0,0,1-.5,1,2,2,0,0,1-1.4.4,3.59,3.59,0,0,1-1.1-.2,1.56,1.56,0,0,1-.8-.6,1.4,1.4,0,0,1-.3-.9h.9a.91.91,0,0,0,.3.7c.2.2.5.2.9.2a1.17,1.17,0,0,0,.7-.2C141.85,116.8,142,116.6,142,116.4Z"/><path class="wise-f-cls-1" d="M145.55,115l1.3-2.5H148l-1.8,3.3v2h-1v-2l-1.8-3.3h1.1Z"/><path class="wise-f-cls-1" d="M151.25,116.4a.55.55,0,0,0-.3-.5c-.2-.1-.5-.2-.9-.4s-.8-.3-1.1-.4a1.41,1.41,0,0,1-.8-1.2,1.23,1.23,0,0,1,.5-1,2.12,2.12,0,0,1,1.4-.4,3,3,0,0,1,1,.2,1.34,1.34,0,0,1,.7.6,1.14,1.14,0,0,1,.3.8h-.9a.6.6,0,0,0-.3-.6,1.55,1.55,0,0,0-.8-.2,1.17,1.17,0,0,0-.7.2.57.57,0,0,0,0,1c.2.1.5.2.9.4a5.13,5.13,0,0,1,1,.4c.3.1.4.3.6.5a1.45,1.45,0,0,1,.2.7,1.23,1.23,0,0,1-.5,1,2,2,0,0,1-1.4.4,3.59,3.59,0,0,1-1.1-.2,1.56,1.56,0,0,1-.8-.6,1.4,1.4,0,0,1-.3-.9h.9a.91.91,0,0,0,.3.7c.2.2.5.2.9.2a1.17,1.17,0,0,0,.7-.2C151.15,116.8,151.25,116.6,151.25,116.4Z"/><path class="wise-f-cls-1" d="M157,113.2h-1.7v4.5h-.9v-4.5h-1.7v-.7H157v.7Z"/><path class="wise-f-cls-1" d="M160.85,115.4h-2.2V117h2.6v.7h-3.6v-5.2h3.6v.7h-2.6v1.5h2.2v.7Z"/><path class="wise-f-cls-1" d="M163.25,112.5l1.6,4.1,1.6-4.1h1.2v5.3h-.9v-1.7l.1-2.3-1.6,4.1h-.7l-1.6-4.1.1,2.3v1.7h-.9v-5.3Z"/><path class="wise-f-cls-1" d="M173.85,115.5h-2.2v2.2h-.9v-5.2h3.5v.7h-2.5v1.6H174v.7Z"/><path class="wise-f-cls-1" d="M179.35,115.3a3.19,3.19,0,0,1-.3,1.4,1.76,1.76,0,0,1-.8.9,2.13,2.13,0,0,1-1.2.3,2.66,2.66,0,0,1-1.2-.3,1.76,1.76,0,0,1-.8-.9,2.77,2.77,0,0,1-.3-1.3v-.3a3.19,3.19,0,0,1,.3-1.4,2.36,2.36,0,0,1,.8-.9,2.13,2.13,0,0,1,1.2-.3,2.07,2.07,0,0,1,2,1.2,2.9,2.9,0,0,1,.3,1.4v.2Zm-1-.3a2.9,2.9,0,0,0-.3-1.4,1,1,0,0,0-1-.5,1.39,1.39,0,0,0-1,.5,2.5,2.5,0,0,0-.3,1.3v.3a2.9,2.9,0,0,0,.3,1.4,1.23,1.23,0,0,0,1,.5,1.11,1.11,0,0,0,1-.5,2.09,2.09,0,0,0,.3-1.4Z"/><path class="wise-f-cls-1" d="M182.25,115.7h-1.1v2h-.9v-5.2h1.9a2.41,2.41,0,0,1,1.5.4,1.35,1.35,0,0,1,.5,1.2,1.4,1.4,0,0,1-.3.9,1.79,1.79,0,0,1-.7.5l1.2,2.2h-1Zm-1-.7h1a1.88,1.88,0,0,0,.8-.2.86.86,0,0,0,.3-.6.75.75,0,0,0-.9-.9h-1l-.2,1.7Z"/><path class="wise-f-cls-1" d="M190.15,115.4H188V117h2.6v.7H187v-5.2h3.6v.7H188v1.5h2.2v.7Z"/><path class="wise-f-cls-1" d="M195.35,112.5V116a1.49,1.49,0,0,1-.6,1.3,2.5,2.5,0,0,1-3,0,1.68,1.68,0,0,1-.6-1.4v-3.4h.9V116a1,1,0,0,0,.3.8,1.14,1.14,0,0,0,.8.3,1,1,0,0,0,1.1-1.1v-3.5Z"/><path class="wise-f-cls-1" d="M198.35,115.7h-1.1v2h-.9v-5.2h1.9a2.41,2.41,0,0,1,1.5.4,1.35,1.35,0,0,1,.5,1.2,1.4,1.4,0,0,1-.3.9,1.79,1.79,0,0,1-.7.5l1.2,2.2h-1Zm-1.1-.7h1a1.88,1.88,0,0,0,.8-.2.86.86,0,0,0,.3-.6.75.75,0,0,0-.9-.9h-1l-.2,1.7Z"/><path class="wise-f-cls-1" d="M205.55,115.3a3.19,3.19,0,0,1-.3,1.4,1.76,1.76,0,0,1-.8.9,2.13,2.13,0,0,1-1.2.3,2.66,2.66,0,0,1-1.2-.3,1.76,1.76,0,0,1-.8-.9,2.77,2.77,0,0,1-.3-1.3v-.3a3.19,3.19,0,0,1,.3-1.4,2.36,2.36,0,0,1,.8-.9,2.13,2.13,0,0,1,1.2-.3,2.07,2.07,0,0,1,2,1.2,2.9,2.9,0,0,1,.3,1.4v.2Zm-1-.3a2.9,2.9,0,0,0-.3-1.4,1,1,0,0,0-1-.5,1.39,1.39,0,0,0-1,.5,2.5,2.5,0,0,0-.3,1.3v.3a2.9,2.9,0,0,0,.3,1.4,1.23,1.23,0,0,0,1,.5,1.11,1.11,0,0,0,1-.5,2.09,2.09,0,0,0,.3-1.4Z"/><path class="wise-f-cls-1" d="M207.45,115.8v2h-.9v-5.3h2.1a1.62,1.62,0,0,1,1.4.5,1.35,1.35,0,0,1,.5,1.2,1.66,1.66,0,0,1-.5,1.2,2.08,2.08,0,0,1-1.5.4Zm0-.7h1.1a1.88,1.88,0,0,0,.8-.2.78.78,0,0,0,.3-.7,1,1,0,0,0-1-1h-1.2v1.9Z"/><path class="wise-f-cls-1" d="M214.55,115.4h-2.2V117H215v.7h-3.6v-5.2H215v.7h-2.6v1.5h2.2v.7Z"/></svg>