<svg width="255" height="100" viewBox="0 0 255 100" fill="none" xmlns="http://www.w3.org/2000/svg">
<g clip-path="url(#clip0_307_720)">
<path d="M94.3382 1.09491L75.5196 72.2384H57.2055L47.3021 32.9903L37.9239 72.2384H18.8497L0 1.09491H20.491L30.4152 42.0409L40.0905 1.09491H57.1883L67.7206 42.1205L77.662 1.09491H94.3382Z" fill="#47B3FF"/>
<path d="M123.029 1.09491V72.2384H101.26V1.09491H123.029Z" fill="#47B3FF"/>
<path d="M128.07 51.6493L148.288 48.0006C149.988 53.7341 154.355 56.6008 161.388 56.6008C166.862 56.6008 169.599 55.142 169.602 52.2245C169.623 51.5154 169.46 50.8129 169.127 50.1869C168.794 49.5608 168.304 49.0329 167.705 48.6555C166.435 47.8031 164.173 47.0478 160.918 46.3894C148.478 43.9986 140.492 40.8801 136.958 37.0339C133.496 33.3604 131.595 28.4806 131.657 23.4269C131.657 16.7279 134.191 11.1492 139.259 6.69089C144.327 2.23259 151.63 0.00806161 161.167 0.0173016C175.618 0.0173016 185.164 5.83735 189.806 17.4774L171.768 22.9487C169.898 18.1924 166.104 15.8131 160.386 15.8108C155.638 15.8108 153.264 17.2869 153.264 20.2391C153.244 20.8483 153.382 21.4524 153.665 21.9919C153.947 22.5314 154.366 22.9878 154.878 23.316C155.949 24.0436 158.022 24.7366 161.098 25.395C169.589 27.1968 175.62 28.7895 179.191 30.1732C182.809 31.5976 185.921 34.0736 188.127 37.2834C190.536 40.6306 191.741 44.5807 191.741 49.1337C191.741 56.3294 188.83 62.1621 183.009 66.632C177.188 71.1018 169.548 73.3356 160.089 73.3333C142.798 73.3333 132.125 66.1053 128.07 51.6493Z" fill="#47B3FF"/>
<path d="M253.439 55.2598V72.2384H200.059V1.09491H253.439V17.5121H221.42V27.8309H247.305V43.6244H221.42V55.2598H253.439Z" fill="#47B3FF"/>
<path d="M34.4613 90.187H26.2579V99.6119H18.7354V74.4386H36.9354V80.4331H26.2579V84.5252H34.4613V90.187Z" fill="#47B3FF"/>
<path d="M61.7768 99.6119H53.2176L49.541 89.9861H47.1221V99.6119H39.3818V74.4386H52.5127C55.4153 74.4386 57.6683 75.1177 59.2716 76.476C60.0574 77.1278 60.684 77.9513 61.1033 78.8834C61.5225 79.8156 61.7234 80.8317 61.6904 81.8537C61.716 83.1881 61.4121 84.5082 60.8058 85.6964C60.2161 86.8098 59.024 87.7904 57.2294 88.6382L61.7768 99.6119ZM47.1048 84.6015H50.4117C51.2352 84.6413 52.0512 84.4285 52.7511 83.9916C53.0402 83.7956 53.2739 83.528 53.4295 83.2147C53.5851 82.9014 53.6573 82.5532 53.6392 82.2037C53.6392 80.5867 52.6497 79.7782 50.6709 79.7782H47.1118L47.1048 84.6015Z" fill="#47B3FF"/>
<path d="M84.3588 93.6001V99.6119H65.4297V74.4386H84.3588V80.2494H73.0041V83.8981H82.2026V89.4871H73.0041V93.6001H84.3588Z" fill="#47B3FF"/>
<path d="M84.8184 92.3354L91.9919 91.0429C92.5932 93.0734 94.1412 94.0875 96.6361 94.0852C98.5781 94.0852 99.5491 93.5689 99.5491 92.5364C99.5567 92.2854 99.4984 92.0368 99.3802 91.8155C99.2619 91.5941 99.0878 91.4078 98.8753 91.2751C98.4145 90.9725 97.6083 90.7045 96.4564 90.4712C92.0426 89.6258 89.2103 88.5204 87.9594 87.1552C86.732 85.8574 86.0576 84.1308 86.0796 82.3423C86.0586 81.2156 86.2902 80.0986 86.7573 79.0737C87.2244 78.0488 87.9151 77.1421 88.7783 76.4206C90.5775 74.8452 93.168 74.0575 96.5497 74.0575C101.673 74.0575 105.058 76.1169 106.705 80.2356L100.309 82.1725C99.6458 80.4885 98.3005 79.6466 96.2733 79.6466C94.587 79.6466 93.7473 80.1698 93.7473 81.2127C93.7434 81.4272 93.7952 81.639 93.8976 81.8273C94 82.0156 94.1495 82.174 94.3313 82.2869C94.7114 82.5468 95.4509 82.7928 96.5428 83.0249C99.556 83.6625 101.695 84.2261 102.96 84.7159C104.242 85.219 105.346 86.095 106.128 87.2314C106.99 88.4586 107.436 89.9307 107.4 91.431C107.423 92.6385 107.152 93.8333 106.61 94.9118C106.068 95.9903 105.272 96.9197 104.29 97.6195C102.217 99.2042 99.5076 99.9954 96.1627 99.9931C90.0396 99.9977 86.2581 97.4451 84.8184 92.3354Z" fill="#47B3FF"/>
<path d="M131.695 74.4386V99.6119H123.972V89.8197H118.074V99.6119H110.351V74.4386H118.074V83.6971H123.972V74.4386H131.695Z" fill="#47B3FF"/>
<path d="M167.584 74.4386L160.911 99.6119H154.422L150.904 85.7241L147.58 99.6119H140.814L134.128 74.4386H141.384L144.906 88.9293L148.34 74.4386H154.422L158.157 88.957L161.679 74.4386H167.584Z" fill="#47B3FF"/>
<path d="M182.695 99.6119L181.271 94.65H174.533L173.019 99.6119H166.751L174.519 74.4386H182.684L190.577 99.6119H182.695ZM175.846 89.1545H179.916L177.881 81.8537L175.846 89.1545Z" fill="#47B3FF"/>
<path d="M201.797 80.4677V99.6119H194.478V80.4677H189.264V74.4386H207.014V80.4677H201.797Z" fill="#47B3FF"/>
<path d="M228.138 93.6001V99.6119H209.209V74.4386H228.138V80.2494H216.783V83.8981H225.951V89.4871H216.783V93.6001H228.138Z" fill="#47B3FF"/>
<path d="M253.594 99.6119H245.032L241.358 89.9861H238.922V99.6119H231.199V74.4386H244.33C247.23 74.4386 249.482 75.1177 251.086 76.476C251.871 77.1278 252.498 77.9513 252.917 78.8834C253.336 79.8156 253.537 80.8317 253.504 81.8537C253.532 83.1883 253.228 84.5088 252.62 85.6964C252.032 86.8098 250.84 87.7904 249.043 88.6382L253.594 99.6119ZM238.922 84.6015H242.222C243.046 84.6402 243.861 84.4275 244.562 83.9916C244.85 83.7954 245.084 83.5277 245.239 83.2144C245.394 82.9011 245.465 82.5529 245.446 82.2037C245.446 80.5867 244.457 79.7782 242.478 79.7782H238.922V84.6015Z" fill="#47B3FF"/>
<path d="M74.7732 40.7069C75.0595 40.7069 75.2915 40.4742 75.2915 40.1871C75.2915 39.9001 75.0595 39.6674 74.7732 39.6674C74.4869 39.6674 74.2549 39.9001 74.2549 40.1871C74.2549 40.4742 74.4869 40.7069 74.7732 40.7069Z" fill="#47B3FF"/>
<path d="M173.272 34.8441L173.206 34.9931V34.9688L173.103 34.7332C173.161 34.767 173.218 34.804 173.272 34.8441V34.8441Z" fill="white"/>
<path d="M173.082 34.7401L173.185 34.9757V35L173.251 34.851C173.193 34.8141 173.133 34.7806 173.071 34.7505L173.082 34.7401Z" fill="white"/>
<path d="M173.358 34.6431L173.272 34.8441L173.206 34.9931V34.9688L173.103 34.7332C173.185 34.6958 173.271 34.6656 173.358 34.6431V34.6431Z" fill="white"/>
<path d="M173.358 34.6431C173.266 34.6684 173.177 34.702 173.092 34.7436L173.195 34.9792V35.0035L173.261 34.8545L173.347 34.6535L173.358 34.6431Z" fill="white"/>
<path d="M173.206 34.993H173.188" stroke="white" stroke-miterlimit="10"/>
<g opacity="0.6">
<g opacity="0.6">
<g opacity="0.6">
<path opacity="0.6" d="M106.443 71.7083C106.435 71.7692 106.435 71.831 106.443 71.8919C106.592 72.8656 109.111 73.0146 112.066 73.1843C113.648 73.1399 115.223 72.9544 116.772 72.6299C117.053 72.5756 117.315 72.449 117.532 72.2627C117.715 72.1052 117.869 71.9177 117.988 71.7083C118.541 68.2155 119.025 64.4525 119.37 60.4366C119.923 53.9229 120.074 47.3813 119.823 40.8489C114.809 41.8367 109.651 41.8367 104.636 40.8489C104.475 47.0123 104.628 53.1799 105.092 59.3278C105.41 63.7387 105.887 67.8725 106.443 71.7083Z" stroke="white" stroke-width="2" stroke-miterlimit="10"/>
<path opacity="0.6" d="M104.622 40.7588C104.622 41.2162 108.022 41.5904 112.224 41.5904C116.426 41.5904 119.826 41.2162 119.826 40.7588C119.826 40.3015 116.429 39.9272 112.224 39.9272C108.019 39.9272 104.622 40.298 104.622 40.7588Z" stroke="white" stroke-width="2" stroke-miterlimit="10"/>
<path opacity="0.6" d="M104.622 45.3777C104.622 45.894 108.423 46.6597 112.141 46.6701C115.942 46.6701 119.826 45.9009 119.809 45.3777C119.791 44.8545 115.102 44.5461 112.207 44.5461C109.311 44.5461 104.629 44.8094 104.604 45.3777" fill="white"/>
<path opacity="0.6" d="M106.291 71.6147C106.291 72.0755 108.945 72.4463 112.217 72.4463C115.49 72.4463 118.14 72.0755 118.14 71.6147C118.14 71.1538 115.486 70.7831 112.217 70.7831C108.948 70.7831 106.291 71.1573 106.291 71.6147" fill="white"/>
<path opacity="0.6" d="M104.608 46.0256C109.586 47.3803 114.834 47.3803 119.812 46.0256C120.062 51.4938 119.909 56.9729 119.356 62.4186C119.011 65.7831 118.537 68.9328 117.974 71.8572C117.848 72.0366 117.692 72.1936 117.514 72.3215C117.289 72.4801 117.03 72.5855 116.758 72.6299C115.2 72.9012 113.625 73.0564 112.044 73.0942C109.087 72.9487 106.564 72.8274 106.419 72.0097C106.41 71.9593 106.41 71.9077 106.419 71.8572C105.859 68.6452 105.382 65.1836 105.037 61.4934C104.572 56.3515 104.42 51.1861 104.581 46.0256H104.608ZM105.731 56.0949C105.93 60.7972 106.392 65.4846 107.113 70.1351C109.218 70.6306 111.606 71.036 111.823 70.3222C111.968 69.8406 111.053 69.0852 110.441 68.4754C106.056 63.9952 106.339 54.5426 105.887 54.6154C105.693 54.6466 105.731 56.0949 105.731 56.0949Z" fill="white"/>
</g>
</g>
</g>
<g opacity="0.6">
<g opacity="0.6">
<path opacity="0.6" d="M80.1875 48.3853C80.3119 48.0839 79.8973 47.4948 79.5656 46.885C78.7846 45.4435 77.9346 45.0243 76.7079 43.1359C76.4176 42.6923 76.5074 41.8122 76.1619 41.4415C76.1135 41.3895 76.5835 40.7485 76.5835 40.7485C76.9048 40.6757 77.2124 39.8406 77.3264 39.2481C77.4587 38.5562 77.4195 37.8423 77.2124 37.1691L77.1951 37.1171C76.9777 36.5602 76.6416 36.0576 76.2103 35.6445C74.448 34.0333 71.7527 35.2045 70.7402 35.6445C64.5688 38.3264 59.5894 50.7138 62.2916 56.1816C62.4678 56.5281 63.3559 58.1948 65.1493 61.4311C65.8715 62.7339 67.0913 64.8545 66.642 65.6272C66.0062 66.7117 64.1368 67.4394 63.5321 66.9785C62.1499 65.939 62.0463 64.255 60.3012 60.5302C59.4132 58.6348 57.8133 55.2149 54.8347 53.3334C53.9466 52.7755 52.2534 51.2544 49.3681 50.6341C44.717 49.6293 42.9443 51.1504 41.9112 51.386C41.614 51.4519 41.3375 51.5281 41.0749 51.6078C40.9897 51.6458 40.9169 51.7072 40.865 51.785C40.8131 51.8627 40.7842 51.9536 40.7817 52.0471C40.7792 52.1406 40.8031 52.233 40.8507 52.3134C40.8983 52.3939 40.9677 52.4592 41.0507 52.5018C41.6433 52.7286 42.158 53.122 42.5331 53.6348C42.9167 54.1546 43.3003 54.9585 43.1517 55.1352C42.8718 55.4817 41.144 52.9037 38.6803 52.8864H38.663C38.2449 52.8864 38.1343 53.5794 38.5248 53.7803C40.1696 54.5842 40.9678 55.2853 40.9194 55.8836C40.8879 56.0453 40.8186 56.1972 40.717 56.3267C40.6155 56.4562 40.4847 56.5597 40.3355 56.6286C40.2585 56.6742 40.1669 56.6881 40.0799 56.6675C39.9929 56.6468 39.9173 56.5931 39.869 56.5177C38.8323 55.0589 37.5711 54.5011 36.8178 54.9827C36.6152 55.1213 36.453 55.3114 36.3478 55.5336C36.299 55.6268 36.2785 55.7323 36.289 55.837C36.2994 55.9417 36.3403 56.0411 36.4066 56.1227C38.3071 58.3195 38.6284 59.2412 38.4349 59.6327C38.0894 60.2946 36.41 59.0818 34.5821 60.0797C34.0239 60.384 33.5429 60.8128 33.1762 61.3331C32.8096 61.8534 32.567 62.4512 32.4673 63.0804C32.26 64.8926 33.5316 66.9924 35.674 67.8656L35.7258 67.8829C38.0617 68.4477 38.6976 68.8219 38.6837 69.0783C38.6457 69.754 33.9843 70.5302 33.0893 68.6279C32.8958 68.2121 32.8993 67.7201 32.8405 67.727C32.7818 67.7339 32.495 69.5773 33.2137 70.8767C33.5109 71.4034 33.7597 71.7602 35.0797 72.2246C36.1163 72.5918 37.813 72.824 40.795 72.675C51.5416 72.1345 62.3054 72.6161 73.0589 72.3805C73.1506 72.3735 73.2373 72.3354 73.3045 72.2724C73.3717 72.2094 73.4155 72.1253 73.4286 72.034C74.1992 68.2641 73.7742 65.2426 73.2317 63.5343C71.3415 57.6715 65.9406 56.2578 65.8991 51.088C65.9162 50.0103 66.1269 48.9445 66.5211 47.9418C68.083 43.271 70.9925 40.596 71.8633 41.3583C71.4348 40.9876 71.7389 41.0569 71.8633 41.3583C71.6248 41.8469 71.884 42.8067 72.7133 43.2952L72.7548 43.323C78.2836 47.8101 79.9664 48.7422 80.191 48.4061C80.4156 48.07 79.2753 46.2925 76.7113 43.1566" fill="white"/>
</g>
</g>
<g opacity="0.6">
<path opacity="0.6" d="M19.3125 87.1379C55.2495 99.6119 94.642 100.998 131.27 88.5239C137.145 86.4449 143.019 84.3659 149.239 82.2869C151.312 81.5939 153.731 81.2474 155.804 80.5544C188.977 72.2384 223.186 74.6639 254.631 85.7519" stroke="white" stroke-width="2" stroke-miterlimit="10"/>
</g>
<g opacity="0.6">
<path opacity="0.6" d="M173.739 41.0533C173.541 41.0531 173.346 41.0069 173.169 40.9182L173.093 40.8801L173.017 40.9182C172.839 41.0076 172.642 41.0539 172.443 41.0533C172.12 41.0474 171.81 40.9313 171.562 40.7241C170.871 40.1836 170.456 39.1025 170.456 37.9071C170.456 36.1746 171.348 34.7609 172.443 34.7609C172.618 34.7604 172.791 34.797 172.951 34.8683L173.179 35.3811L173.355 35.0831L173.483 34.7886C173.567 34.7706 173.653 34.7613 173.739 34.7609C174.834 34.7609 175.726 36.1711 175.726 37.9071C175.769 38.8984 175.422 39.867 174.758 40.6029C174.49 40.8805 174.124 41.0421 173.739 41.0533V41.0533Z" fill="white"/>
<path opacity="0.6" d="M173.738 34.9376C174.723 34.9376 175.552 36.2994 175.552 37.9106C175.552 38.9501 175.207 39.9411 174.637 40.4816C174.401 40.7279 174.079 40.8721 173.738 40.8836C173.567 40.8838 173.397 40.8434 173.244 40.7658L173.082 40.7069L172.93 40.7796C172.775 40.8577 172.605 40.8981 172.432 40.8974C172.149 40.8914 171.876 40.7888 171.658 40.6064C171.026 40.1039 170.621 39.0506 170.621 37.9245C170.621 36.3132 171.451 34.9515 172.436 34.9515C172.565 34.9523 172.694 34.9758 172.816 35.0208L172.864 35.1317V35.1559L173.158 35.8489L173.503 35.1802V35.1594L173.572 35.0104V34.9723H173.707L173.738 34.9376ZM173.707 34.6258C173.579 34.6258 173.451 34.6433 173.327 34.6777L173.241 34.8787L173.175 35.0277V35.0035L173.071 34.7678C172.872 34.6701 172.654 34.6191 172.432 34.6188C171.24 34.6188 170.272 36.1053 170.272 37.9383C170.272 39.2238 170.749 40.3396 171.444 40.8905C171.721 41.123 172.07 41.2527 172.432 41.2578C172.634 41.1576 172.855 41.1055 173.08 41.1055C173.305 41.1055 173.527 41.1576 173.728 41.2578C174.157 41.2471 174.566 41.0679 174.865 40.7588C175.569 39.9932 175.942 38.979 175.901 37.9383C175.901 36.1053 174.934 34.6188 173.742 34.6188L173.707 34.6258Z" fill="white"/>
</g>
<g opacity="0.6">
<path opacity="0.6" d="M156.571 73.1047V64.9862H154.042V61.2405H156.571V30.5198H152.964V28.1601H156.571V26.6736H158.569V28.1601H187.595V26.6736H189.775V28.1601H192.121V30.5198H189.775V61.2405H192.778V64.9862H189.782V73.1047H156.571ZM178.61 61.2405H187.595V30.5198H158.569V61.2405H172.982L172.201 54.6778H179.581L178.61 61.2405Z" fill="white"/>
<path opacity="0.6" d="M189.62 26.8469V28.3334H191.966V30.3465H189.62V61.4137H192.615V64.8129H189.62V72.9314H156.744V64.8129H154.215V61.4137H156.744V30.3465H153.137V28.3334H156.744V26.8469H158.399V28.3334H187.771V26.8469H189.606H189.62ZM158.385 61.4137H173.168L173.12 61.0257L172.391 54.851H179.374L178.956 57.7478L178.469 61.0153L178.41 61.4137H187.785V30.3465H158.413V61.4137H158.385ZM189.965 26.5004H187.439V27.9869H158.759V26.5004H156.412V27.9869H152.791V30.693H156.399V61.0672H153.869V65.1594H156.399V73.2779H189.965V65.1594H192.961V61.0672H189.965V30.693H192.311V27.9869H189.965V26.5004ZM158.745 61.0672V30.693H187.425V61.0672H178.787L179.761 54.5045H172.01L172.791 61.0672H158.745Z" fill="white"/>
</g>
<path opacity="0.6" d="M175.549 54.5045C175.549 54.106 175.549 53.5343 175.573 52.6923C175.689 48.6927 175.458 44.6905 174.882 40.7311" stroke="white" stroke-miterlimit="10"/>
<path opacity="0.6" d="M171.454 40.8628C171.109 43.0042 170.625 45.8108 169.958 49.4144C169.056 54.307 168.23 58.3299 167.646 61.0672L167.584 61.3513" stroke="white" stroke-miterlimit="10"/>
<path opacity="0.6" d="M175.141 30.544L175.076 30.693L173.358 34.6431" stroke="white" stroke-miterlimit="10"/>
<path opacity="0.6" d="M173.082 34.7401L171.32 30.693L171.254 30.544" stroke="white" stroke-miterlimit="10"/>
<path opacity="0.6" d="M253.595 16.9958V38.1046C253.595 39.359 252.662 40.3846 251.521 40.3846C250.381 40.3846 248.159 34.2238 248.159 32.9695H216.6V40.8247H217.246C217.498 40.8372 217.735 40.9493 217.904 41.1363C218.074 41.3233 218.163 41.57 218.152 41.8226V42.0928C218.162 42.3452 218.073 42.5914 217.903 42.7782C217.734 42.965 217.498 43.0773 217.246 43.0908H206.123C205.872 43.0773 205.636 42.965 205.466 42.7782C205.297 42.5914 205.207 42.3452 205.218 42.0928V41.8191C205.206 41.5666 205.295 41.3198 205.465 41.1328C205.635 40.9458 205.871 40.8338 206.123 40.8212H206.769V25.738C206.769 23.5967 213.082 21.8468 214.789 21.8468C214.878 21.8417 214.967 21.8417 215.056 21.8468H225.146L224.696 17.8586C223.95 16.6874 224.845 15.201 226.293 15.201H226.963C226.956 14.9684 227.006 14.7375 227.108 14.5287L228.242 12.228C228.315 12.0571 228.435 11.9106 228.588 11.8051C228.741 11.6997 228.92 11.6397 229.106 11.632H228.801V10.8524C228.036 10.6021 227.355 10.142 226.837 9.52415C226.319 8.90631 225.983 8.15536 225.868 7.35619C224.624 6.79832 223.694 6.9092 223.007 7.19333C222.067 7.58488 221.849 8.20512 220.75 8.49618C219.403 8.84268 217.388 8.53429 216.78 6.76367C216.625 6.3013 216.563 5.81256 216.598 5.32593C216.633 4.83931 216.764 4.36454 216.984 3.9293C217.82 2.44974 219.786 2.37698 220.978 2.94177C221.991 3.41648 221.808 4.05057 222.982 4.6327C224.04 5.15938 225.121 5.1074 225.954 5.06236H226.175C226.524 4.24462 227.13 3.56431 227.902 3.12608C228.674 2.68785 229.568 2.51597 230.446 2.63686C231.308 2.76124 232.111 3.14533 232.75 3.73819C233.389 4.33105 233.833 5.10464 234.023 5.95633C235.471 6.4345 236.476 6.21966 237.181 5.84891C238.111 5.36034 238.256 4.72279 239.368 4.31392C240.726 3.81149 242.858 3.90158 243.712 5.57518C243.931 6.00737 244.057 6.48114 244.08 6.96542C244.104 7.44971 244.026 7.93357 243.85 8.38529C243.159 9.93762 241.127 10.2287 239.818 9.80595C238.708 9.45945 238.815 8.80803 237.527 8.3645C236.359 7.96603 235.239 8.13928 234.379 8.27441C234.189 8.3056 234.033 8.33332 233.871 8.36797C233.654 8.97126 233.298 9.51459 232.832 9.95361C232.366 10.3926 231.803 10.7148 231.189 10.894V11.6389H231.034C231.236 11.6498 231.431 11.7218 231.592 11.8455C231.753 11.9691 231.872 12.1387 231.936 12.3319L232.882 14.6327C232.96 14.8189 232.995 15.0201 232.986 15.2217H233.677C235.059 15.2217 235.965 16.6077 235.346 17.7616L234.956 21.8676H248.152C248.152 20.6098 250.377 14.7366 251.514 14.7366C252.651 14.7366 253.595 15.7588 253.595 16.9958Z" fill="white"/>
<g opacity="0.6">
<g opacity="0.6">
<g opacity="0.6">
<path opacity="0.6" d="M215.625 58.1428C215.645 57.2918 215.429 56.452 215 55.7173C215 55.6826 214.969 55.6514 214.952 55.6168L211.977 46.6078L209.019 55.6064C209.001 55.6411 208.984 55.6722 208.97 55.7069C208.543 56.4423 208.327 57.2816 208.345 58.1324V58.1324V58.167C208.345 60.298 209.979 62.0271 211.994 62.0271C214.008 62.0271 215.643 60.2946 215.643 58.167V58.1324L215.625 58.1428ZM214.737 59.8753C214.52 60.402 214.098 60.7277 213.801 60.5995C213.504 60.4713 213.455 59.9481 213.663 59.4214C213.87 58.8947 214.302 58.5725 214.599 58.6972C214.896 58.8219 214.945 59.3486 214.737 59.8753Z" fill="white"/>
</g>
</g>
</g>
</g>
<defs>
<clipPath id="clip0_307_720">
<rect width="254.749" height="100" fill="white"/>
</clipPath>
</defs>
</svg>
