<svg id="Layer_1" data-name="Layer 1" xmlns="http://www.w3.org/2000/svg" viewBox="0 0 213.2 108.2"><path d="M203.1,13.21v12.5H178.6v7.9h19.8v12H178.6v8.9h24.5v12.9H162.3V13.21Z" style="fill:#00b4d5"/><path d="M103.6,67.41H87V13.21h16.6Z" style="fill:#00b4d5"/><path d="M53.2,13.21l8,31.3,7.6-31.3H81.5L67.1,67.41h-14l-7.6-29.9-7.2,29.9H23.7L9.3,13.21H25l7.6,31.2L40,13.21Z" style="fill:#00b4d5"/><path d="M132.7,31.91a102,102,0,0,1,13.5,3.5,14.34,14.34,0,0,1,6.7,5.3,14.59,14.59,0,0,1,2.7,8.8,15.31,15.31,0,0,1-6.5,12.9c-4.4,3.3-10,5-17.1,5-12.9,0-20.8-5.3-23.9-16l15.1-2.7c1.3,4.2,4.5,6.4,9.8,6.4,4.1,0,6.1-1.1,6.1-3.2a3,3,0,0,0-1.4-2.6,15.47,15.47,0,0,0-5.1-1.7c-9.3-1.8-15.2-4.1-17.8-6.9a14.64,14.64,0,0,1-4-10.1,15.69,15.69,0,0,1,5.7-12.4c3.8-3.3,9.2-4.9,16.3-4.9,10.8,0,17.8,4.3,21.3,12.9l-13.4,4c-1.4-3.5-4.2-5.3-8.5-5.3-3.5,0-5.3,1.1-5.3,3.3a2.68,2.68,0,0,0,1.2,2.3A15.7,15.7,0,0,0,132.7,31.91Z" style="fill:#00b4d5"/><path d="M23.9,89.91h5.8v-7.2H36v-4.3H29.7v-3.1h8.2v-4.7h-14v19.3Zm32.4-10.7a7,7,0,0,0,.7-3,5.1,5.1,0,0,0-1.8-4.1,7.87,7.87,0,0,0-5.2-1.6H39.9v19.3h5.9v-7.4h1.9l2.8,7.4h6.6l-3.5-8.4A5.14,5.14,0,0,0,56.3,79.21ZM50.1,78a3.2,3.2,0,0,1-1.8.5H45.8v-3.7h2.7c1.5,0,2.3.6,2.3,1.9A1.57,1.57,0,0,1,50.1,78Zm9.2,11.9H73.8v-4.6H65.1v-3.1h7v-4.3h-7v-2.8h8.7v-4.5H59.3Zm29-11.4a34.94,34.94,0,0,0-4.9-1.3,6.29,6.29,0,0,1-1.7-.6.91.91,0,0,1-.4-.8c0-.8.6-1.2,1.9-1.2a2.93,2.93,0,0,1,3.1,1.9L91.2,75c-1.3-3.1-3.9-4.7-7.8-4.7a9,9,0,0,0-6,1.8,5.75,5.75,0,0,0-.7,8.2c1,1,3.1,1.9,6.5,2.5a6,6,0,0,1,1.8.6,1.23,1.23,0,0,1,.5,1c0,.8-.8,1.2-2.2,1.2a3.38,3.38,0,0,1-3.6-2.3l-5.5,1c1.1,3.9,4,5.9,8.7,5.9a9.73,9.73,0,0,0,6.2-1.8,5.92,5.92,0,0,0,2.4-4.7,5.09,5.09,0,0,0-1-3.2A3.64,3.64,0,0,0,88.3,78.51Zm15.6-.8H99.4v-7.1H93.5v19.3h5.9v-7.5h4.5v7.5h5.9V70.61h-5.9Zm29.2-7.1-2.7,11.1-2.9-11.1h-4.7l-2.6,11.1-2.7-11.1h-5.6l5.1,19.3h5.2l2.6-10.6,2.7,10.6h5l5.1-19.3Zm9.8,0-6,19.3h4.8l1.2-3.8h5.2l1.1,3.8h6.1l-6.1-19.3Zm1,11.3,1.6-5.6,1.6,5.6Zm10.1-6.7h4v14.7h5.6V75.21h4v-4.6H154v4.6Zm14.8,14.7h14.5v-4.6h-8.7v-3.1h7v-4.3h-7v-2.8h8.7v-4.5H168.8Zm30.8-8.4a5.19,5.19,0,0,0,2.7-2.2,6.64,6.64,0,0,0,.7-3,5.1,5.1,0,0,0-1.8-4.1,7.87,7.87,0,0,0-5.2-1.6H185.9v19.3h5.9v-7.4h1.9l2.8,7.4h6.6ZM196.1,78a3.2,3.2,0,0,1-1.8.5h-2.5v-3.7h2.7c1.5,0,2.3.6,2.3,1.9A1.57,1.57,0,0,1,196.1,78Z" style="fill:#00b4d5"/><path d="M89.6,46.51v-2.9a34.53,34.53,0,0,0,5.5.5,38.44,38.44,0,0,0,5.8-.6v3.1a29.42,29.42,0,0,0-5.8-.5A39.91,39.91,0,0,0,89.6,46.51Zm5.6-2.9a33,33,0,0,0,4.7-.4.6.6,0,0,1-.4-.1,42.56,42.56,0,0,0-4.3-.2,40.28,40.28,0,0,0-4.2.2c-.2,0-.5.1-.7.1A33.43,33.43,0,0,0,95.2,43.61Zm0-1.2a38.74,38.74,0,0,0-4.2.2c-.5.1-.8.1-1.1.2s-.5.1-.6.2l-.2.1V53h0c0,1.8.2,4.7.3,7.5a58.14,58.14,0,0,0,.8,6.8l.1.2H100l.1-.2c.3-1.1,1-5.5,1.3-14.3h0V43l-.2-.1c-.3-.1-.8-.2-1.8-.4C98.5,42.51,97.1,42.41,95.2,42.41Zm-5.6,4.5a14.22,14.22,0,0,0,5.8,1,11.94,11.94,0,0,0,5.5-1v.3a13.13,13.13,0,0,1-5.5,1,15,15,0,0,1-5.8-1Zm.6,9.3c.2,3.2.4,8.1,1,9.2.3.5,2.5.8,3.6.4.5-.2.2-.4-.4-.8a6.43,6.43,0,0,1-2.1-2.6,41.38,41.38,0,0,1-1.4-5.6c-.4-2-.8-3.4-.7-2Z" style="fill:#99e1ef;fill-rule:evenodd"/><path d="M49.5,52.41l3.8,15H65.6c.4-1.5,1-4.2-1.2-8.1a29.77,29.77,0,0,0-2-2.9h0c-1.5-2-2.9-3.8-2.2-6,1.1-3.4,3.2-5.8,3.8-5.8.1,0,.1.1.2.2A3.26,3.26,0,0,0,65,46a34.08,34.08,0,0,0,5.4,3.8c.6.1.2-.6.1-1a.1.1,0,0,0-.1-.1,24.26,24.26,0,0,0-1.4-2,17.41,17.41,0,0,1-1.2-1.8,1.68,1.68,0,0,1,.3-1.1h0a1.42,1.42,0,0,0,.2-.6v-.1c.2-.6.6-2.2-.7-3.1a4.83,4.83,0,0,0-5,.4l-.5.4-.8,3.5-.6-2.2c-2.1,2.3-3.8,4.6-4.1,8.2a14.88,14.88,0,0,0,2,8.5c.8,1.4,2.2,3.8,1,4.7-1.4,1-2.8-1.7-3.4-3.3h0C55.5,58.71,53.4,53.71,49.5,52.41ZM67,43.81a.4.4,0,1,1-.4-.4A.37.37,0,0,1,67,43.81ZM35.4,67.41h3.1l3.7-15.5a2.58,2.58,0,0,0-1.3.3c-.7.4-.4.8.4,1.2.3.1.3.8-.7.4a1.61,1.61,0,0,1-.7-.4c-.4-.2-.7-.4-1-.2s.1.6.6,1c.2.2.5.4.6.6.5.7,0,1.2-.7.7s-1.1-.8-1.7-.7-.7.8.1,1.5c1.1,1,1.5,2.1.1,2.2-3.4.3-3.8,1.8-3.7,3.7.1,1.7,2.4,2.5,3.6,2.9.1,0,.2.1.3.1.8.4.1.8-1.2.8a2.36,2.36,0,0,1-2-.7l-.2-.2c-.2-.2-.4-.4-.4.2A13.39,13.39,0,0,0,35.4,67.41Z" style="fill:#99e1ef;fill-rule:evenodd"/><path d="M31.3,82.71c-2.6-.8-4.8-1.5-6.4-2.1l-.2.5c1.3.5,3,1.1,5,1.7v-.1ZM39.9,85v.5c1.9.4,3.9.9,5.9,1.2v-.5C43.7,85.81,41.8,85.41,39.9,85Zm9.4,1.8.2.6,6.8.9-.2-.5C53.8,87.41,51.5,87.11,49.3,86.81Zm10,1.1v.5c2,.1,4,.2,5.9.2,3.2,0,6,0,8.6-.1V88c-2.6.1-5.4.1-8.6.1C63.2,88.11,61.2,88,59.3,87.91Zm17.1,0a2.65,2.65,0,0,0,.6.5A98.36,98.36,0,0,0,90.8,87c.1-.2.3-.4.4-.6A96.84,96.84,0,0,1,76.4,87.91Zm17.1-2v.5c2-.4,3.9-.9,5.9-1.5v-.5C97.3,85,95.4,85.51,93.5,85.91Zm10.4-2.7v.5c1.6-.5,3.3-1,5.2-1.6.2-.1.5-.1.7-.2v-.5l-.9.3h0C107.2,82.21,105.5,82.71,103.9,83.21Zm10.5-3.3.1.5a22.5,22.5,0,0,0,2.4-.8h0c.8-.3,1.7-.6,2.5-.9l-.1-.5c-.9.3-1.8.6-2.6.9A15.55,15.55,0,0,1,114.4,79.91Zm6.8-2.3-.1.6c2.3-.8,4.9-1.6,7.8-2.3l-.1-.5C126,76.11,123.5,76.91,121.2,77.61Zm10.9-3-.1.6c1.5-.4,3.1-.7,4.7-1l.2-.6C135.2,73.91,133.6,74.21,132.1,74.61Zm10.2-1.9-.2.6c2.4-.3,4.9-.6,7.6-.8l-.2-.5C147,72.11,144.6,72.41,142.3,72.71Zm11.7-1.1v.5c1.8-.1,3.7-.1,5.6-.1,2.7,0,5.4.1,8,.3v-.5c-2.7-.2-5.4-.3-8-.3C157.7,71.51,155.8,71.61,154,71.61Zm14.8.3v.5c5.1.5,10,1.2,14.5,2.1V74C178.8,73.11,173.9,72.41,168.8,71.91Zm17.1,2.7v.5c2.1.5,4.1.9,5.9,1.4V76C190,75.51,188,75,185.9,74.61Zm10.8,2.7c-.1.2-.2.3-.3.5,2.2.6,4.2,1.3,5.7,1.8.1-.1.1-.2.2-.3l.1-.1C200.8,78.61,198.9,77.91,196.7,77.31Z" style="fill:#99e1ef;fill-rule:evenodd"/><path d="M189,24.71a1.33,1.33,0,0,1,.3,1h-8.6a1.49,1.49,0,0,1,.3-1,1.25,1.25,0,0,1,1.1-.4h.7a2.77,2.77,0,0,1,.5-1.6,4.5,4.5,0,0,1,.9-1v-.6a3.13,3.13,0,0,1-2.2-2.8h-2a3.64,3.64,0,0,1-2.8,1.6c-1.7,0-2.6-.9-2.6-2.4s1.3-2.1,2.6-2.1a5.24,5.24,0,0,1,2.8,1.3h2.3a3.12,3.12,0,0,1,2.9-1.8,3,3,0,0,1,3.1,2.6h2a3.64,3.64,0,0,1,2.8-1.6c1.7,0,2.6.9,2.6,2.4s-1.3,2.1-2.6,2.1a5.24,5.24,0,0,1-2.8-1.3h-2.2a3.23,3.23,0,0,1-2.1,2v.6a4.67,4.67,0,0,1,.9,1,3,3,0,0,1,.5,1.6h.7A1.09,1.09,0,0,1,189,24.71Zm-10.4,5h-6c-3.9,0-5.2,1.9-5.4,2.9v11.3c-.7,0-1.2.2-1.2.9s.5.9,1.3.9h7.4c.7,0,1.1-.3,1.1-.9s-.4-.9-1.1-.9v-5.8h23.7v-4.5H178.6v-3.9Zm-10.2,26.8c0-2,2.6-7.3,2.9-7.8h0c.3.5,2.9,5.8,2.9,7.8s-1.3,3.9-2.9,3.9S168.4,58.61,168.4,56.51Zm34.7-31.1v.3h-3c.4-.7.9-1.5,1.5-1.5S202.7,24.81,203.1,25.41Zm-30.6,33.4c.2.1.5-.1.6-.5s.1-.7-.1-.8-.5.1-.6.5S172.3,58.71,172.5,58.81Z" style="fill:#99e1ef;fill-rule:evenodd"/><path d="M130.6,47.11c-.6-.1-1.2-.3-1.8-.4V36.31h-2.5v-1.8h2.5v-1.2h1.8v1.2h12.7c1.1.3,2.1.7,2.9,1a7.57,7.57,0,0,1,1.8.9h-4.6l-1.6,2.9a2.44,2.44,0,0,1,1.8,2.5,2.35,2.35,0,0,1-.6,1.7l.6,10.5h3.1l-.1.4h0v.1c0,.1.1.1.1.2a3.58,3.58,0,0,1,.4,1.1,2,2,0,0,1,0,1.1,1.1,1.1,0,0,1-1,.5l-.2,1.6h6.3V40.11a3,3,0,0,1,.5.7A25.29,25.29,0,0,1,154,43v13.2a17,17,0,0,1-5.1,6.3c-4.3,3.3-10,5-17.1,5-1.1,0-2.2,0-3.2-.1v-5.1h-2v-3.2h2v-4.5a11.63,11.63,0,0,0,1.8.4v4.1H137l1-5.2c.1-.1.2-.3.3-.4l-1.1,5.6h3.9l-.7-5H143l-.6-10.3a1.9,1.9,0,0,1-1.3.5,1.5,1.5,0,0,1-1.1-.4l-1.4,7.4a1.42,1.42,0,0,0-.2-.6l1.3-7a2.56,2.56,0,0,1-.8-1.9,2.44,2.44,0,0,1,1.8-2.5l-1.3-2.9H130l.6,10.7Zm9.6-10.8,1.3,2.9,1.6-2.9Zm6.1,20.8a.72.72,0,0,0,.7-.4,1.35,1.35,0,0,0,0-.9,10.37,10.37,0,0,0-.4-1h0Z" style="fill:#99e1ef;fill-rule:evenodd"/><path d="M27,95.61H24.8v2.2h-1v-5.2h3.5v.7H24.8v1.6H27v.7Z" style="fill:#00b4d5"/><path d="M30.1,95.81H29v2H28v-5.2h1.9a2.41,2.41,0,0,1,1.5.4,1.35,1.35,0,0,1,.5,1.2,1.4,1.4,0,0,1-.3.9,1.79,1.79,0,0,1-.7.5l1.2,2.2h-1Zm-1-.7h1a1.88,1.88,0,0,0,.8-.2.86.86,0,0,0,.3-.6,1.45,1.45,0,0,0-.2-.7,1.45,1.45,0,0,0-.7-.2h-1l-.2,1.7Z" style="fill:#00b4d5"/><path d="M36.1,95.51H33.9v1.6h2.6v.7H32.9v-5.2h3.5v.7H33.8v1.5H36v.7Z" style="fill:#00b4d5"/><path d="M40.1,96.51a.55.55,0,0,0-.3-.5c-.2-.1-.5-.2-.9-.4s-.8-.3-1-.4a1.41,1.41,0,0,1-.8-1.2,1.23,1.23,0,0,1,.5-1,2.12,2.12,0,0,1,1.4-.4,3,3,0,0,1,1,.2,1.34,1.34,0,0,1,.7.6,1.33,1.33,0,0,1,.3.8H40a.6.6,0,0,0-.3-.6,1.55,1.55,0,0,0-.8-.2,1.45,1.45,0,0,0-.7.2.57.57,0,0,0,0,1c.2.1.5.2.9.4a5.13,5.13,0,0,1,1,.4,1,1,0,0,1,.6.5,1.45,1.45,0,0,1,.2.7,1.23,1.23,0,0,1-.5,1A2,2,0,0,1,39,98a3.59,3.59,0,0,1-1.1-.2,1.56,1.56,0,0,1-.8-.6,1.4,1.4,0,0,1-.3-.9h1a.91.91,0,0,0,.3.7c.2.2.5.2.9.2a1.17,1.17,0,0,0,.7-.2C40.1,96.91,40.1,96.71,40.1,96.51Z" style="fill:#00b4d5"/><path d="M46.3,97.91h-.9v-2.4H42.9v2.4h-1v-5.3h1v2.2h2.5v-2.2h.9Z" style="fill:#00b4d5"/><path d="M51.7,96.61l.8-4h.9l-1.3,5.3h-.9l-1-3.9-1.1,3.9h-.9l-1.3-5.3h.9l.8,4,1.1-4h.8Z" style="fill:#00b4d5"/><path d="M57.1,96.71H55l-.4,1.2h-1l2.1-5.3h.8l2.1,5.3h-1Zm-1.9-.8h1.6l-.8-2.2Z" style="fill:#00b4d5"/><path d="M62.6,93.31H60.9v4.5H60v-4.5H58.3v-.7h4.3v.7Z" style="fill:#00b4d5"/><path d="M66.6,95.51H64.4v1.6H67v.7H63.4v-5.2H67v.7H64.4v1.5h2.2v.7Z" style="fill:#00b4d5"/><path d="M69.7,95.81H68.6v2h-.9v-5.2h1.9a2.41,2.41,0,0,1,1.5.4,1.35,1.35,0,0,1,.5,1.2,1.4,1.4,0,0,1-.3.9,1.79,1.79,0,0,1-.7.5l1.2,2.2h-1Zm-1-.7h1a1.88,1.88,0,0,0,.8-.2.86.86,0,0,0,.3-.6.75.75,0,0,0-.9-.9h-1l-.2,1.7Z" style="fill:#00b4d5"/><path d="M75.4,97.91h-.9v-5.3h.9Z" style="fill:#00b4d5"/><path d="M80.9,97.91H80l-2.4-3.8v3.8h-.9v-5.3h.9l2.4,3.8v-3.8h.9Z" style="fill:#00b4d5"/><path d="M85.2,95.61H83v2.2h-.9v-5.2h3.5v.7H83.1v1.6h2.2v.7Z" style="fill:#00b4d5"/><path d="M90.7,95.41a3.19,3.19,0,0,1-.3,1.4,1.76,1.76,0,0,1-.8.9,2.13,2.13,0,0,1-1.2.3,2.66,2.66,0,0,1-1.2-.3,1.76,1.76,0,0,1-.8-.9,2.77,2.77,0,0,1-.3-1.3v-.3a3.19,3.19,0,0,1,.3-1.4,2.36,2.36,0,0,1,.8-.9,2.13,2.13,0,0,1,1.2-.3,2.07,2.07,0,0,1,2,1.2,2.9,2.9,0,0,1,.3,1.4v.2Zm-1-.3a2.9,2.9,0,0,0-.3-1.4,1,1,0,0,0-1-.5,1.39,1.39,0,0,0-1,.5,2.5,2.5,0,0,0-.3,1.3v.3a2.9,2.9,0,0,0,.3,1.4,1.23,1.23,0,0,0,1,.5,1.11,1.11,0,0,0,1-.5,2.09,2.09,0,0,0,.3-1.4Z" style="fill:#00b4d5"/><path d="M93.6,95.81H92.5v2h-.9v-5.2h1.9A2.41,2.41,0,0,1,95,93a1.35,1.35,0,0,1,.5,1.2,1.4,1.4,0,0,1-.3.9,1.79,1.79,0,0,1-.7.5l1.2,2.2h-1Zm-1-.7h1a1.88,1.88,0,0,0,.8-.2.86.86,0,0,0,.3-.6.75.75,0,0,0-.9-.9h-1l-.2,1.7Z" style="fill:#00b4d5"/><path d="M97.6,92.61l1.6,4.1,1.6-4.1H102v5.3h-.9v-1.7l.1-2.3L99.6,98h-.7l-1.6-4.1.1,2.3v1.7h-.9v-5.3Z" style="fill:#00b4d5"/><path d="M106.3,96.71h-2.1l-.4,1.2h-1l2.1-5.3h.8l2.1,5.3h-1Zm-1.9-.8H106l-.8-2.2Z" style="fill:#00b4d5"/><path d="M111.9,93.31h-1.7v4.5h-.9v-4.5h-1.7v-.7h4.3v.7Z" style="fill:#00b4d5"/><path d="M113.6,97.91h-.9v-5.3h.9Z" style="fill:#00b4d5"/><path d="M119.1,95.41a3.19,3.19,0,0,1-.3,1.4,1.76,1.76,0,0,1-.8.9,2.13,2.13,0,0,1-1.2.3,2.66,2.66,0,0,1-1.2-.3,1.76,1.76,0,0,1-.8-.9,2.77,2.77,0,0,1-.3-1.3v-.3a3.19,3.19,0,0,1,.3-1.4,2.36,2.36,0,0,1,.8-.9,2.13,2.13,0,0,1,1.2-.3,2.07,2.07,0,0,1,2,1.2,2.9,2.9,0,0,1,.3,1.4v.2Zm-.9-.3a2.9,2.9,0,0,0-.3-1.4,1,1,0,0,0-1-.5,1.39,1.39,0,0,0-1,.5,2.5,2.5,0,0,0-.3,1.3v.3a2.9,2.9,0,0,0,.3,1.4,1.23,1.23,0,0,0,1,.5,1.11,1.11,0,0,0,1-.5,2.09,2.09,0,0,0,.3-1.4Z" style="fill:#00b4d5"/><path d="M124.4,97.91h-.9l-2.4-3.8v3.8h-.9v-5.3h.9l2.4,3.8v-3.8h.9Z" style="fill:#00b4d5"/><path d="M130.3,96.51a.55.55,0,0,0-.3-.5c-.2-.1-.5-.2-.9-.4a7.6,7.6,0,0,0-1.1-.4,1.41,1.41,0,0,1-.8-1.2,1.23,1.23,0,0,1,.5-1,2.12,2.12,0,0,1,1.4-.4,3,3,0,0,1,1,.2,1.34,1.34,0,0,1,.7.6,1.14,1.14,0,0,1,.3.8h-.9a.6.6,0,0,0-.3-.6,1.55,1.55,0,0,0-.8-.2,1.17,1.17,0,0,0-.7.2.57.57,0,0,0,0,1c.2.1.5.2.9.4a5.13,5.13,0,0,1,1,.4c.3.1.4.3.6.5a1.45,1.45,0,0,1,.2.7,1.23,1.23,0,0,1-.5,1,2,2,0,0,1-1.4.4,3.59,3.59,0,0,1-1.1-.2,1.56,1.56,0,0,1-.8-.6,1.4,1.4,0,0,1-.3-.9h.9a.91.91,0,0,0,.3.7c.2.2.5.2.9.2a1.17,1.17,0,0,0,.7-.2C130.2,96.91,130.3,96.71,130.3,96.51Z" style="fill:#00b4d5"/><path d="M133.9,95.11l1.3-2.5h1.1l-1.8,3.3v2h-1v-2l-1.8-3.3h1.1Z" style="fill:#00b4d5"/><path d="M139.6,96.51a.55.55,0,0,0-.3-.5c-.2-.1-.5-.2-.9-.4s-.8-.3-1.1-.4a1.41,1.41,0,0,1-.8-1.2,1.23,1.23,0,0,1,.5-1,2.12,2.12,0,0,1,1.4-.4,3,3,0,0,1,1,.2,1.34,1.34,0,0,1,.7.6,1.14,1.14,0,0,1,.3.8h-.9a.6.6,0,0,0-.3-.6,1.55,1.55,0,0,0-.8-.2,1.17,1.17,0,0,0-.7.2.57.57,0,0,0,0,1c.2.1.5.2.9.4a5.13,5.13,0,0,1,1,.4c.3.1.4.3.6.5a1.45,1.45,0,0,1,.2.7,1.23,1.23,0,0,1-.5,1,2,2,0,0,1-1.4.4,3.59,3.59,0,0,1-1.1-.2,1.56,1.56,0,0,1-.8-.6,1.4,1.4,0,0,1-.3-.9h.9a.91.91,0,0,0,.3.7c.2.2.5.2.9.2a1.17,1.17,0,0,0,.7-.2C139.5,96.91,139.6,96.71,139.6,96.51Z" style="fill:#00b4d5"/><path d="M145.3,93.31h-1.7v4.5h-.9v-4.5H141v-.7h4.3v.7Z" style="fill:#00b4d5"/><path d="M149.2,95.51H147v1.6h2.6v.7H146v-5.2h3.6v.7H147v1.5h2.2v.7Z" style="fill:#00b4d5"/><path d="M151.6,92.61l1.6,4.1,1.6-4.1H156v5.3h-.9v-1.7l.1-2.3L153.6,98h-.7l-1.6-4.1.1,2.3v1.7h-.9v-5.3Z" style="fill:#00b4d5"/><path d="M162.2,95.61H160v2.2h-.9v-5.2h3.5v.7h-2.5v1.6h2.2v.7Z" style="fill:#00b4d5"/><path d="M167.7,95.41a3.19,3.19,0,0,1-.3,1.4,1.76,1.76,0,0,1-.8.9,2.13,2.13,0,0,1-1.2.3,2.66,2.66,0,0,1-1.2-.3,1.76,1.76,0,0,1-.8-.9,2.77,2.77,0,0,1-.3-1.3v-.3a3.19,3.19,0,0,1,.3-1.4,2.36,2.36,0,0,1,.8-.9,2.13,2.13,0,0,1,1.2-.3,2.07,2.07,0,0,1,2,1.2,2.9,2.9,0,0,1,.3,1.4v.2Zm-1-.3a2.9,2.9,0,0,0-.3-1.4,1,1,0,0,0-1-.5,1.39,1.39,0,0,0-1,.5,2.5,2.5,0,0,0-.3,1.3v.3a2.9,2.9,0,0,0,.3,1.4,1.23,1.23,0,0,0,1,.5,1.11,1.11,0,0,0,1-.5,2.09,2.09,0,0,0,.3-1.4Z" style="fill:#00b4d5"/><path d="M170.6,95.81h-1.1v2h-.9v-5.2h1.9a2.41,2.41,0,0,1,1.5.4,1.35,1.35,0,0,1,.5,1.2,1.4,1.4,0,0,1-.3.9,1.79,1.79,0,0,1-.7.5l1.2,2.2h-1Zm-1-.7h1a1.88,1.88,0,0,0,.8-.2.86.86,0,0,0,.3-.6.75.75,0,0,0-.9-.9h-1l-.2,1.7Z" style="fill:#00b4d5"/><path d="M178.5,95.51h-2.2v1.6h2.6v.7h-3.6v-5.2h3.6v.7h-2.6v1.5h2.2v.7Z" style="fill:#00b4d5"/><path d="M183.7,92.61v3.5a1.49,1.49,0,0,1-.6,1.3,2.5,2.5,0,0,1-3,0,1.68,1.68,0,0,1-.6-1.4v-3.4h.9v3.5a1,1,0,0,0,.3.8,1.14,1.14,0,0,0,.8.3,1,1,0,0,0,1.1-1.1v-3.5Z" style="fill:#00b4d5"/><path d="M186.7,95.81h-1.1v2h-.9v-5.2h1.9a2.41,2.41,0,0,1,1.5.4,1.35,1.35,0,0,1,.5,1.2,1.4,1.4,0,0,1-.3.9,1.79,1.79,0,0,1-.7.5l1.2,2.2h-1Zm-1.1-.7h1a1.88,1.88,0,0,0,.8-.2.86.86,0,0,0,.3-.6.75.75,0,0,0-.9-.9h-1l-.2,1.7Z" style="fill:#00b4d5"/><path d="M193.9,95.41a3.19,3.19,0,0,1-.3,1.4,1.76,1.76,0,0,1-.8.9,2.13,2.13,0,0,1-1.2.3,2.66,2.66,0,0,1-1.2-.3,1.76,1.76,0,0,1-.8-.9,2.77,2.77,0,0,1-.3-1.3v-.3a3.19,3.19,0,0,1,.3-1.4,2.36,2.36,0,0,1,.8-.9,2.13,2.13,0,0,1,1.2-.3,2.07,2.07,0,0,1,2,1.2,2.9,2.9,0,0,1,.3,1.4v.2Zm-1-.3a2.9,2.9,0,0,0-.3-1.4,1,1,0,0,0-1-.5,1.39,1.39,0,0,0-1,.5,2.5,2.5,0,0,0-.3,1.3v.3a2.9,2.9,0,0,0,.3,1.4,1.23,1.23,0,0,0,1,.5,1.11,1.11,0,0,0,1-.5,2.09,2.09,0,0,0,.3-1.4Z" style="fill:#00b4d5"/><path d="M195.8,95.91v2h-.9v-5.3H197a1.62,1.62,0,0,1,1.4.5,1.35,1.35,0,0,1,.5,1.2,1.66,1.66,0,0,1-.5,1.2,2.08,2.08,0,0,1-1.5.4Zm0-.7h1.1a1.88,1.88,0,0,0,.8-.2.78.78,0,0,0,.3-.7,1,1,0,0,0-1-1h-1.2v1.9Z" style="fill:#00b4d5"/><path d="M202.9,95.51h-2.2v1.6h2.6v.7h-3.6v-5.2h3.6v.7h-2.6v1.5h2.2v.7Z" style="fill:#00b4d5"/></svg>