<svg width="227" height="120" viewBox="0 0 227 120" fill="none" xmlns="http://www.w3.org/2000/svg">
<g clip-path="url(#clip0_307_818)">
<path d="M58.2324 66.5294V106.333H47.3951V77.8732L40.3547 106.333H32.934L25.6153 77.8732V106.333H16.8496V66.5294H32.1177L37.6399 87.6711L42.8963 66.5294H58.2324Z" fill="#004B7F"/>
<path d="M85.8616 106.333L83.6972 98.4863H73.4937L71.2088 106.333H61.7412L73.4906 66.5294H85.8585L97.7934 106.333H85.8616ZM75.4973 89.7979H81.6565L78.5646 78.2512L75.4973 89.7979Z" fill="#004B7F"/>
<path d="M135.176 106.333H122.22L116.655 91.1102H112.976V106.333H101.291V66.5294H121.175C125.562 66.5294 128.969 67.604 131.397 69.7533C133.826 71.9026 135.039 74.7353 135.037 78.2512C135.079 80.3542 134.62 82.4372 133.698 84.3303C132.805 86.0924 131.002 87.6434 128.287 88.9834L135.176 106.333ZM112.976 82.6031H117.969C119.439 82.6031 120.619 82.2825 121.509 81.6411C122.4 80.9998 122.846 80.0563 122.848 78.8106C122.848 76.2658 121.352 74.9934 118.359 74.9934H112.976V82.6031Z" fill="#004B7F"/>
<path d="M152.383 66.5294V106.333H140.698V66.5294H152.383Z" fill="#004B7F"/>
<path d="M191.564 106.333H182.053L171.627 88.7499C170.096 86.1016 168.744 83.3551 167.579 80.5286C168.138 82.6634 168.449 84.8545 168.507 87.0595V106.336H159.015V66.5294H170.059L178.927 81.1095C180.459 83.5519 181.802 86.1059 182.946 88.7499C182.346 85.2989 182.047 81.8027 182.053 78.3004V66.5294H191.564V106.333Z" fill="#004B7F"/>
<path d="M226.84 96.8267V106.333H198.199V66.5294H226.84V75.7157H209.661V81.4875H223.55V90.3234H209.661V96.8267H226.84Z" fill="#004B7F"/>
<path d="M84.4983 0.968079L67.6626 64.0737H51.2907L42.4106 29.2616L34.0252 64.0737H16.9545L0.0878906 0.968079H18.4232L27.2971 37.2892L35.9546 0.968079H51.2536L60.6903 37.3599L69.5827 0.968079H84.4983Z" fill="#004B7F"/>
<path d="M110.162 0.968079V64.0737H90.6826V0.968079H110.162Z" fill="#004B7F"/>
<path d="M114.688 45.8118L132.78 42.5755C134.297 47.663 138.204 50.2057 144.501 50.2036C149.399 50.2036 151.848 48.9097 151.848 46.3219C151.867 45.6925 151.721 45.0688 151.423 44.5129C151.126 43.957 150.687 43.4883 150.15 43.1533C149.018 42.4013 146.995 41.7324 144.081 41.1464C132.95 39.0257 125.802 36.2546 122.638 32.8329C119.54 29.5734 117.838 25.2445 117.892 20.7607C117.892 14.8188 120.159 9.87169 124.694 5.91933C129.229 1.96697 135.763 -0.00613244 144.297 1.4317e-05C157.228 1.4317e-05 165.771 5.16226 169.926 15.4868L153.786 20.3396C152.119 16.1168 148.729 14.0054 143.617 14.0054C139.368 14.0054 137.244 15.3157 137.244 17.9362C137.225 18.476 137.348 19.0113 137.601 19.4894C137.853 19.9675 138.227 20.3718 138.685 20.6623C139.646 21.3118 141.507 21.9265 144.269 22.5063C151.867 24.1045 157.263 25.5172 160.456 26.7445C163.694 28.0088 166.479 30.2046 168.455 33.0511C170.592 36.0323 171.661 39.539 171.661 43.5713C171.661 49.9557 169.056 55.1292 163.847 59.0918C158.639 63.0544 151.802 65.0388 143.339 65.045C127.864 65.045 118.314 58.6339 114.688 45.8118Z" fill="#004B7F"/>
<path d="M226.868 49.0019V64.0614H179.112V0.968079H226.868V15.5328H198.218V24.6853H221.379V38.6938H198.218V49.0019H226.868Z" fill="#004B7F"/>
<path d="M19.821 119.899L17.3845 113.58H17.3474C17.3938 114.081 17.4154 114.674 17.4154 115.365V119.899H16.6455V112.768H17.9008L20.1858 118.651H20.2229L22.5171 112.768H23.7539V119.899H22.9191V115.288C22.9191 114.763 22.9407 114.191 22.9871 113.574H22.9469L20.495 119.899H19.821Z" fill="#004B7F"/>
<path d="M30.2249 119.899L29.3344 117.64H26.4589L25.5746 119.908H24.7305L27.5658 112.75H28.2677L31.0906 119.908L30.2249 119.899ZM29.0716 116.887L28.2398 114.677C28.1316 114.397 28.0203 114.062 27.9059 113.647C27.8215 113.996 27.7183 114.339 27.5967 114.677L26.7526 116.887H29.0716Z" fill="#004B7F"/>
<path d="M32.9089 116.936V119.899H32.0771V112.768H34.0436C34.9259 112.768 35.5762 112.936 35.9947 113.272C36.2089 113.459 36.3763 113.693 36.4837 113.956C36.591 114.218 36.6353 114.502 36.6131 114.784C36.6131 115.727 36.1317 116.364 35.1691 116.696L37.1171 119.899H36.1307L34.4085 116.936H32.9089ZM32.9089 116.223H34.0529C34.5127 116.261 34.9713 116.137 35.3484 115.872C35.4917 115.74 35.6031 115.578 35.6743 115.397C35.7455 115.216 35.7747 115.021 35.7597 114.827C35.7772 114.637 35.7485 114.444 35.6759 114.267C35.6032 114.089 35.4888 113.932 35.3423 113.807C34.9353 113.569 34.4646 113.462 33.9942 113.5H32.9089V116.223Z" fill="#004B7F"/>
<path d="M38.2891 119.899V112.768H39.1208V119.899H38.2891Z" fill="#004B7F"/>
<path d="M46.693 119.899H45.7406L41.8293 113.915H41.7891C41.8417 114.618 41.8695 115.261 41.8695 115.848V119.899H41.0996V112.768H42.0272L45.9385 118.728H45.9787C45.9787 118.642 45.9571 118.359 45.9354 117.882C45.9138 117.406 45.9045 117.065 45.9107 116.862V112.768H46.6899L46.693 119.899Z" fill="#004B7F"/>
<path d="M52.6516 119.899H48.666V112.768H52.6516V113.506H49.5008V115.796H52.4722V116.527H49.5008V119.152H52.6516V119.899Z" fill="#004B7F"/>
<path d="M56.8652 119.899V112.768H57.697V119.899H56.8652Z" fill="#004B7F"/>
<path d="M65.2687 119.899H64.3163L60.3957 113.915H60.3586C60.4081 114.618 60.4359 115.261 60.4359 115.848V119.899H59.666V112.768H60.6091L64.5173 118.728H64.5575C64.5575 118.642 64.5359 118.359 64.5142 117.882C64.4926 117.406 64.4833 117.065 64.4895 116.862V112.768H65.2687V119.899Z" fill="#004B7F"/>
<path d="M68.077 119.899H67.2422V112.768H71.2401V113.506H68.077V116.103H71.0484V116.841H68.077V119.899Z" fill="#004B7F"/>
<path d="M78.6539 116.324C78.6539 117.463 78.3633 118.361 77.782 119.016C77.4767 119.348 77.1012 119.608 76.6825 119.777C76.2638 119.947 75.8124 120.022 75.361 119.997C74.3077 119.997 73.4924 119.676 72.9153 119.035C72.3381 118.394 72.0516 117.487 72.0557 116.315C72.0557 115.153 72.3433 114.256 72.9184 113.617C73.4935 112.977 74.3128 112.658 75.3734 112.658C75.8228 112.633 76.272 112.708 76.6889 112.877C77.1058 113.045 77.4801 113.303 77.7851 113.632C78.3664 114.283 78.6539 115.181 78.6539 116.324ZM72.9369 116.324C72.9369 117.289 73.1441 118.024 73.5553 118.522C73.7776 118.776 74.0558 118.976 74.3685 119.106C74.6811 119.236 75.0197 119.293 75.3579 119.272C75.6961 119.295 76.0351 119.239 76.3479 119.11C76.6608 118.98 76.939 118.78 77.1605 118.525C77.5728 118.027 77.7789 117.293 77.7789 116.324C77.7789 115.365 77.5749 114.637 77.1605 114.142C76.9406 113.888 76.6639 113.688 76.3526 113.559C76.0412 113.43 75.7038 113.375 75.3672 113.398C75.027 113.376 74.6861 113.432 74.3713 113.562C74.0564 113.692 73.7761 113.893 73.5522 114.148C73.142 114.646 72.9369 115.371 72.9369 116.324Z" fill="#004B7F"/>
<path d="M81.0964 116.936V119.899H80.2646V112.768H82.2311C83.1092 112.768 83.7771 112.937 84.1822 113.272C84.3964 113.459 84.5638 113.693 84.6712 113.956C84.7785 114.218 84.8228 114.502 84.8005 114.784C84.8005 115.727 84.3192 116.364 83.3566 116.696L85.3045 119.899H84.3182L82.5805 116.936H81.0964ZM81.0964 116.223H82.2404C82.7002 116.26 83.1586 116.136 83.5359 115.872C83.6792 115.74 83.7905 115.578 83.8617 115.397C83.933 115.216 83.9621 115.021 83.9472 114.827C83.9647 114.637 83.936 114.444 83.8634 114.267C83.7907 114.089 83.6763 113.932 83.5298 113.807C83.1228 113.569 82.6521 113.462 82.1817 113.5H81.0964V116.223Z" fill="#004B7F"/>
<path d="M89.6411 119.899L87.2077 113.58H87.1706C87.2139 114.081 87.2386 114.674 87.2386 115.365V119.899H86.4688V112.768H87.7241L89.9967 118.651H90.0338L92.3249 112.768H93.5617V119.899H92.73V115.288C92.73 114.763 92.7516 114.191 92.798 113.574H92.7578L90.3059 119.883L89.6411 119.899Z" fill="#004B7F"/>
<path d="M100.047 119.899L99.1536 117.64H96.278L95.3968 119.908H94.5527L97.3881 112.75H98.1023L100.922 119.908L100.047 119.899ZM98.8938 116.887L98.0621 114.677C97.9539 114.397 97.8426 114.062 97.7282 113.647C97.6437 113.996 97.5405 114.339 97.419 114.677L96.5749 116.887H98.8938Z" fill="#004B7F"/>
<path d="M104.107 119.899H103.273V113.506H101V112.768H106.377V113.506H104.107V119.899Z" fill="#004B7F"/>
<path d="M107.457 119.899V112.768H108.307V119.899H107.457Z" fill="#004B7F"/>
<path d="M116.485 116.324C116.485 117.463 116.195 118.361 115.616 119.016C115.31 119.347 114.935 119.607 114.516 119.777C114.098 119.946 113.646 120.021 113.195 119.997C112.138 119.997 111.321 119.676 110.746 119.035C110.171 118.394 109.885 117.487 109.887 116.315C109.887 115.153 110.174 114.256 110.749 113.617C111.325 112.977 112.144 112.658 113.204 112.658C113.654 112.633 114.103 112.708 114.52 112.877C114.937 113.045 115.311 113.303 115.616 113.632C116.197 114.283 116.485 115.181 116.485 116.324ZM110.771 116.324C110.771 117.289 110.978 118.024 111.389 118.522C111.612 118.776 111.891 118.976 112.204 119.106C112.517 119.236 112.856 119.292 113.195 119.272C113.533 119.296 113.872 119.241 114.184 119.111C114.497 118.981 114.774 118.781 114.995 118.525C115.407 118.027 115.613 117.293 115.613 116.324C115.613 115.365 115.409 114.637 114.995 114.142C114.775 113.888 114.498 113.688 114.187 113.559C113.875 113.43 113.538 113.375 113.201 113.398C112.861 113.376 112.52 113.432 112.206 113.562C111.891 113.692 111.61 113.893 111.386 114.148C110.982 114.646 110.78 115.371 110.78 116.324H110.771Z" fill="#004B7F"/>
<path d="M123.689 119.899H122.737L118.82 113.915H118.779C118.832 114.618 118.86 115.261 118.86 115.848V119.899H118.09V112.768H119.017L122.929 118.728H122.969C122.969 118.642 122.947 118.359 122.923 117.882C122.898 117.406 122.892 117.065 122.901 116.862V112.768H123.68L123.689 119.899Z" fill="#004B7F"/>
<path d="M132.318 118.002C132.331 118.284 132.275 118.565 132.156 118.82C132.036 119.076 131.857 119.299 131.632 119.471C131.089 119.846 130.437 120.031 129.777 119.997C129.106 120.03 128.437 119.919 127.813 119.671V118.869C128.123 119.002 128.445 119.105 128.775 119.176C129.115 119.247 129.461 119.283 129.808 119.284C130.248 119.316 130.688 119.208 131.063 118.977C131.2 118.876 131.31 118.744 131.384 118.591C131.457 118.438 131.491 118.27 131.484 118.101C131.494 117.886 131.443 117.673 131.335 117.486C131.207 117.302 131.035 117.152 130.834 117.05C130.492 116.868 130.135 116.716 129.768 116.595C129.228 116.436 128.736 116.147 128.336 115.753C128.039 115.396 127.886 114.943 127.906 114.48C127.897 114.228 127.948 113.978 128.055 113.75C128.163 113.521 128.324 113.322 128.525 113.168C129.002 112.823 129.583 112.65 130.173 112.679C130.849 112.671 131.52 112.804 132.142 113.07L131.879 113.792C131.335 113.553 130.749 113.427 130.154 113.42C129.787 113.399 129.423 113.498 129.118 113.703C128.997 113.794 128.899 113.913 128.834 114.05C128.769 114.187 128.738 114.338 128.744 114.489C128.734 114.703 128.782 114.915 128.883 115.104C128.997 115.286 129.157 115.436 129.347 115.537C129.665 115.715 129.999 115.863 130.346 115.977C130.92 116.141 131.449 116.434 131.892 116.834C132.179 117.155 132.332 117.573 132.318 118.002V118.002Z" fill="#004B7F"/>
<path d="M135.613 116.333L137.526 112.768H138.429L136.036 117.136V119.902H135.207V117.176L132.817 112.771H133.73L135.613 116.333Z" fill="#004B7F"/>
<path d="M143.462 118.002C143.475 118.284 143.419 118.564 143.3 118.82C143.18 119.076 143 119.299 142.776 119.471C142.233 119.846 141.58 120.031 140.92 119.997C140.25 120.03 139.58 119.919 138.957 119.671V118.869C139.589 119.131 140.267 119.268 140.951 119.272C141.392 119.304 141.831 119.196 142.207 118.964C142.344 118.864 142.454 118.731 142.527 118.579C142.601 118.426 142.635 118.257 142.627 118.088C142.638 117.874 142.586 117.66 142.479 117.474C142.35 117.289 142.178 117.14 141.978 117.037C141.636 116.856 141.279 116.704 140.911 116.582C140.371 116.424 139.879 116.134 139.48 115.74C139.183 115.383 139.03 114.93 139.05 114.468C139.04 114.216 139.091 113.965 139.199 113.737C139.307 113.509 139.467 113.31 139.668 113.156C140.145 112.81 140.727 112.638 141.316 112.667C141.992 112.659 142.662 112.792 143.283 113.057L143.023 113.779C142.479 113.541 141.892 113.414 141.298 113.408C140.931 113.386 140.567 113.486 140.262 113.69C140.14 113.782 140.043 113.901 139.978 114.038C139.913 114.175 139.882 114.326 139.888 114.477C139.878 114.691 139.926 114.903 140.027 115.092C140.141 115.274 140.301 115.423 140.491 115.525C140.809 115.703 141.143 115.85 141.489 115.965C142.064 116.129 142.593 116.423 143.035 116.822C143.325 117.147 143.477 117.569 143.462 118.002V118.002Z" fill="#004B7F"/>
<path d="M147.138 119.899H146.303V113.506H144.03V112.768H149.407V113.506H147.138V119.899Z" fill="#004B7F"/>
<path d="M154.487 119.899H150.489V112.768H154.487V113.506H151.321V115.796H154.295V116.527H151.321V119.152H154.487V119.899Z" fill="#004B7F"/>
<path d="M159.253 119.899L156.819 113.58H156.779C156.825 114.081 156.847 114.674 156.847 115.365V119.899H156.077V112.768H157.332L159.605 118.651H159.633L161.924 112.768H163.161V119.899H162.326V115.288C162.326 114.763 162.351 114.191 162.394 113.574H162.357L159.902 119.883L159.253 119.899Z" fill="#004B7F"/>
<path d="M168.6 119.899H167.769V112.768H171.766V113.506H168.6V116.103H171.575V116.841H168.6V119.899Z" fill="#004B7F"/>
<path d="M179.174 116.324C179.174 117.463 178.883 118.361 178.302 119.017C177.996 119.347 177.62 119.607 177.202 119.777C176.783 119.946 176.332 120.021 175.881 119.997C174.823 119.997 174.008 119.676 173.435 119.035C172.862 118.394 172.574 117.487 172.572 116.315C172.572 115.153 172.86 114.256 173.438 113.617C174.016 112.977 174.829 112.658 175.89 112.658C176.34 112.634 176.789 112.709 177.207 112.877C177.624 113.045 177.999 113.303 178.305 113.632C178.884 114.284 179.174 115.181 179.174 116.324ZM173.457 116.324C173.457 117.289 173.664 118.024 174.075 118.522C174.297 118.776 174.575 118.976 174.888 119.106C175.201 119.236 175.539 119.293 175.878 119.272C176.215 119.296 176.554 119.241 176.867 119.111C177.179 118.981 177.457 118.781 177.677 118.525C178.089 118.027 178.295 117.293 178.295 116.324C178.295 115.355 178.089 114.628 177.677 114.142C177.457 113.888 177.18 113.688 176.869 113.559C176.558 113.43 176.22 113.375 175.884 113.398C175.544 113.376 175.204 113.432 174.889 113.562C174.575 113.692 174.295 113.893 174.072 114.148C173.662 114.646 173.457 115.371 173.457 116.324Z" fill="#004B7F"/>
<path d="M181.608 116.936V119.899H180.773V112.768H182.74C183.622 112.768 184.273 112.936 184.691 113.272C184.905 113.459 185.073 113.693 185.18 113.956C185.287 114.218 185.332 114.502 185.309 114.784C185.309 115.727 184.829 116.364 183.869 116.696L185.816 119.899H184.83L183.092 116.936H181.608ZM181.608 116.223H182.752C183.212 116.26 183.67 116.136 184.048 115.872C184.191 115.74 184.302 115.577 184.373 115.396C184.444 115.215 184.473 115.021 184.459 114.827C184.477 114.636 184.448 114.444 184.375 114.266C184.301 114.088 184.186 113.931 184.039 113.807C183.633 113.569 183.163 113.462 182.694 113.5H181.608V116.223Z" fill="#004B7F"/>
<path d="M193.595 119.899H189.594V112.768H193.595V113.506H190.429V115.796H193.403V116.527H190.429V119.152H193.595V119.899Z" fill="#004B7F"/>
<path d="M200.601 112.768V117.378C200.62 117.732 200.564 118.085 200.436 118.415C200.308 118.745 200.111 119.044 199.859 119.293C199.3 119.783 198.568 120.034 197.824 119.991C197.46 120.014 197.094 119.964 196.749 119.843C196.405 119.723 196.088 119.535 195.818 119.29C195.574 119.032 195.386 118.728 195.264 118.396C195.142 118.063 195.09 117.71 195.11 117.357V112.747H195.944V117.4C195.928 117.649 195.963 117.9 196.047 118.135C196.131 118.371 196.262 118.587 196.433 118.771C196.63 118.941 196.859 119.071 197.107 119.154C197.355 119.236 197.616 119.269 197.877 119.25C198.13 119.267 198.385 119.233 198.625 119.15C198.865 119.067 199.086 118.937 199.274 118.768C199.446 118.583 199.579 118.366 199.663 118.13C199.748 117.893 199.783 117.641 199.766 117.391V112.768H200.601Z" fill="#004B7F"/>
<path d="M203.334 116.936V119.899H202.499V112.768H204.466C205.348 112.768 205.998 112.936 206.417 113.272C206.631 113.459 206.798 113.693 206.906 113.956C207.013 114.218 207.057 114.502 207.035 114.784C207.035 115.728 206.556 116.364 205.591 116.696L207.539 119.899H206.568L204.83 116.936H203.334ZM203.334 116.223H204.466C204.925 116.261 205.384 116.137 205.761 115.872C205.905 115.74 206.016 115.578 206.088 115.397C206.16 115.216 206.19 115.021 206.175 114.827C206.193 114.636 206.163 114.444 206.09 114.266C206.017 114.089 205.902 113.931 205.755 113.807C205.348 113.569 204.877 113.462 204.407 113.5H203.325L203.334 116.223Z" fill="#004B7F"/>
<path d="M214.938 116.324C214.938 117.463 214.648 118.361 214.066 119.017C213.761 119.347 213.385 119.607 212.966 119.777C212.548 119.946 212.097 120.021 211.645 119.997C210.588 119.997 209.775 119.69 209.2 119.035C208.624 118.38 208.337 117.498 208.337 116.315C208.337 115.132 208.624 114.256 209.203 113.617C209.781 112.977 210.594 112.658 211.655 112.658C212.104 112.634 212.554 112.709 212.971 112.877C213.389 113.045 213.764 113.303 214.069 113.632C214.649 114.284 214.938 115.181 214.938 116.324ZM209.221 116.324C209.221 117.289 209.428 118.024 209.84 118.522C210.062 118.776 210.34 118.976 210.653 119.106C210.965 119.236 211.304 119.293 211.642 119.272C211.98 119.296 212.319 119.241 212.631 119.111C212.944 118.981 213.221 118.781 213.442 118.525C213.85 118.027 214.06 117.295 214.06 116.324C214.06 115.353 213.859 114.637 213.442 114.142C213.222 113.888 212.945 113.688 212.634 113.559C212.322 113.43 211.985 113.375 211.648 113.398C211.309 113.376 210.968 113.432 210.654 113.562C210.34 113.692 210.06 113.893 209.837 114.148C209.426 114.646 209.221 115.371 209.221 116.324Z" fill="#004B7F"/>
<path d="M221.086 114.846C221.104 115.162 221.046 115.478 220.917 115.768C220.788 116.057 220.592 116.312 220.344 116.512C219.849 116.902 219.138 117.096 218.217 117.096H217.373V119.899H216.525V112.768H218.381C220.184 112.768 221.086 113.461 221.086 114.846ZM217.376 116.383H218.127C218.866 116.383 219.401 116.266 219.732 116.026C219.906 115.891 220.044 115.715 220.132 115.514C220.22 115.312 220.256 115.092 220.236 114.874C220.25 114.673 220.216 114.473 220.134 114.289C220.053 114.105 219.927 113.944 219.769 113.819C219.333 113.556 218.824 113.436 218.316 113.475H217.388L217.376 116.383Z" fill="#004B7F"/>
<path d="M226.586 119.899H222.588V112.768H226.586V113.506H223.423V115.796H226.394V116.527H223.423V119.152H226.586V119.899Z" fill="#004B7F"/>
<g opacity="0.6">
<path opacity="0.6" fill-rule="evenodd" clip-rule="evenodd" d="M202.026 79.0442C201.605 78.8263 201.144 78.6957 200.672 78.66C200.393 78.6009 200.106 78.5936 199.824 78.6385C199.668 78.7159 199.532 78.8273 199.425 78.9643C199.299 79.0934 199.194 79.204 199.051 79.33C198.957 79.4043 198.853 79.4662 198.742 79.5144C198.63 79.5711 198.509 79.6056 198.384 79.6159C198.142 79.5944 197.978 79.3085 197.734 79.2132C197.466 79.1239 197.179 79.108 196.902 79.1672C196.531 79.1948 196.188 79.1672 195.805 79.1672C195.64 79.1497 195.474 79.1795 195.326 79.2532C195.326 79.3823 195.496 79.4038 195.483 79.5605C195.375 79.748 195.097 79.705 194.911 79.6097C194.655 79.4776 194.454 79.2256 194.175 79.0965C193.716 78.9192 193.234 78.8034 192.744 78.7522C192.237 78.6815 191.727 78.574 191.241 78.4726C190.939 78.421 190.639 78.3533 190.344 78.2697C189.649 78.0454 188.962 77.904 188.418 77.5567C188.264 77.4584 188.134 77.3354 187.976 77.2494C187.81 77.1692 187.649 77.0789 187.494 76.9789C187.406 76.8995 187.322 76.8154 187.243 76.7269C187.02 76.5211 186.813 76.2981 186.625 76.06C186.479 75.8786 186.13 75.5651 186.486 75.4176C186.51 75.3592 186.517 75.2793 186.557 75.2424C186.767 75.1687 186.983 75.1564 187.175 75.1041C187.374 75.0544 187.568 74.9897 187.756 74.9105C188.118 74.763 188.514 74.6431 188.919 74.511C189.355 74.4064 189.8 74.3447 190.249 74.3266C190.582 74.2897 190.938 74.2375 191.269 74.2282C191.736 74.2098 192.138 74.1791 192.642 74.1852C192.982 74.1852 193.322 74.1545 193.656 74.1575C193.959 74.1808 194.264 74.1496 194.556 74.0653C194.682 74.0113 194.805 73.9497 194.924 73.8809C195.277 73.6691 195.655 73.4999 196.049 73.3769C196.167 73.3492 196.228 73.3769 196.244 73.4138C196.387 73.8427 196.577 74.2549 196.81 74.6431C196.91 74.8859 197.08 75.0942 197.298 75.2424C197.533 75.3746 197.839 75.4576 198.115 75.5836C198.39 75.7096 198.653 75.851 198.906 75.9432C199.524 76.1614 200.143 76.3704 200.808 76.5579C201.037 76.6308 201.273 76.6823 201.513 76.7115C202.202 76.7699 202.749 76.4441 203.25 76.2505C203.417 76.186 203.593 76.0723 203.76 76.0108C203.853 75.977 203.958 75.9555 204.07 75.9124C204.368 75.8099 204.682 75.76 204.997 75.7649C205.186 75.7627 205.374 75.8037 205.544 75.8848C205.338 76.2648 205.066 76.606 204.741 76.8928C204.501 77.1685 204.236 77.4216 203.949 77.6489C203.81 77.7565 203.498 77.9255 203.47 78.113C203.442 78.3005 203.72 78.5556 203.844 78.7277C203.909 78.8137 203.983 78.9151 204.054 79.0166C204.132 79.1153 204.206 79.2179 204.274 79.3239C204.405 79.6516 204.509 79.9899 204.583 80.335C204.617 80.4334 204.697 80.5102 204.663 80.6209C204.308 80.7807 204.011 80.5194 203.708 80.3412C203.341 80.1388 202.992 79.9054 202.666 79.6435C202.508 79.5144 202.394 79.3362 202.242 79.2225L202.026 79.0442ZM188.078 75.3162C188.04 75.3581 188.014 75.4088 188.001 75.4635C187.987 75.5183 187.988 75.5754 188.003 75.6297C188.018 75.6841 188.046 75.7339 188.085 75.7747C188.124 75.8154 188.173 75.8459 188.226 75.8633C188.703 75.9739 188.783 75.2025 188.285 75.2332C188.208 75.2343 188.134 75.2638 188.078 75.3162Z" fill="white"/>
</g>
<g opacity="0.6">
<path opacity="0.6" fill-rule="evenodd" clip-rule="evenodd" d="M142.49 88.8943C142.154 88.7175 141.784 88.6128 141.405 88.587C141.181 88.5386 140.951 88.5313 140.724 88.5655C140.604 88.6309 140.498 88.721 140.415 88.8298C140.316 88.9312 140.233 89.0204 140.106 89.1371C140.032 89.1977 139.95 89.2473 139.862 89.2847C139.772 89.3309 139.675 89.3591 139.574 89.3676C139.379 89.3492 139.265 89.1279 139.055 89.0419C138.839 88.9725 138.609 88.9598 138.387 89.005C138.078 89.0296 137.815 89.0204 137.506 89.0204C137.374 89.0063 137.241 89.0298 137.122 89.088C137.122 89.1925 137.258 89.2109 137.249 89.3308C137.159 89.4814 136.94 89.4445 136.788 89.3676C136.584 89.2631 136.42 89.0603 136.201 88.9589C135.831 88.8169 135.445 88.7239 135.051 88.6823C134.643 88.6239 134.234 88.5378 133.845 88.4579C133.602 88.4161 133.362 88.3617 133.124 88.295C132.587 88.1671 132.068 87.9741 131.578 87.7203C131.455 87.6435 131.35 87.5451 131.226 87.4806C131.093 87.4148 130.964 87.342 130.839 87.2624C130.767 87.2002 130.7 87.1323 130.638 87.0595C130.46 86.8939 130.295 86.7152 130.144 86.5248C130.029 86.3772 129.748 86.1283 130.036 86.0084C130.054 85.9623 130.057 85.8978 130.091 85.8701C130.259 85.8235 130.429 85.7855 130.601 85.7564C130.76 85.7168 130.915 85.6654 131.065 85.6028C131.356 85.4829 131.684 85.3876 131.993 85.2801C132.343 85.1979 132.7 85.1485 133.059 85.1325C133.328 85.1049 133.616 85.0618 133.882 85.0526C134.256 85.0526 134.578 85.0157 134.983 85.0188C135.255 85.0188 135.53 84.9973 135.796 84.9973C136.039 85.0173 136.283 84.9922 136.516 84.9235C136.622 84.881 136.726 84.8318 136.825 84.776C137.109 84.6062 137.412 84.4701 137.728 84.3703C137.821 84.3488 137.874 84.3703 137.883 84.4011C137.997 84.7383 138.146 85.0627 138.328 85.3692C138.41 85.5642 138.546 85.7318 138.721 85.8517C138.909 85.9562 139.157 86.0238 139.376 86.1222C139.596 86.2205 139.806 86.3373 139.995 86.4111C140.493 86.5862 140.978 86.7553 141.522 86.912C141.706 86.9713 141.896 87.0125 142.088 87.0349C142.638 87.081 143.077 86.8229 143.479 86.6661C143.615 86.6139 143.755 86.5248 143.891 86.4725C143.965 86.4449 144.048 86.4295 144.129 86.3957C144.365 86.3137 144.614 86.2732 144.865 86.2758C145.017 86.2746 145.167 86.3083 145.304 86.3742C145.137 86.6787 144.918 86.9522 144.657 87.1825C144.47 87.4051 144.263 87.6108 144.039 87.7972C143.928 87.8832 143.677 88.0184 143.656 88.169C143.634 88.3196 143.857 88.5255 143.965 88.6546L144.135 88.8882C144.198 88.9673 144.256 89.0505 144.308 89.1371C144.418 89.3987 144.505 89.6691 144.568 89.9454C144.596 90.0253 144.657 90.0868 144.63 90.1759C144.345 90.305 144.107 90.096 143.866 89.9547C143.572 89.7905 143.293 89.6024 143.031 89.3922C142.904 89.2877 142.812 89.1464 142.688 89.0542L142.49 88.8943ZM131.309 85.9039C131.28 85.9376 131.259 85.9782 131.248 86.0219C131.238 86.0657 131.239 86.1112 131.251 86.1546C131.263 86.1979 131.286 86.2375 131.317 86.27C131.348 86.3024 131.387 86.3266 131.43 86.3404C131.473 86.3496 131.518 86.3476 131.56 86.3346C131.602 86.3216 131.64 86.2981 131.67 86.2662C131.701 86.2344 131.722 86.1953 131.733 86.1528C131.744 86.1102 131.743 86.0657 131.731 86.0234C131.72 85.9811 131.697 85.9426 131.666 85.9114C131.635 85.8803 131.597 85.8576 131.554 85.8456C131.512 85.8336 131.467 85.8327 131.424 85.8429C131.381 85.8531 131.342 85.8741 131.309 85.9039V85.9039Z" fill="white"/>
</g>
<g opacity="0.6">
<path opacity="0.6" fill-rule="evenodd" clip-rule="evenodd" d="M164.968 81.469C164.502 81.1617 163.688 81.0019 163.03 80.922C162.702 80.882 162.121 80.7775 161.818 80.8851C161.593 80.9973 161.397 81.158 161.243 81.3553C161.063 81.5397 160.915 81.6996 160.711 81.8778C160.579 81.9862 160.432 82.0752 160.275 82.1421C160.116 82.2226 159.943 82.2716 159.765 82.2866C159.415 82.2589 159.183 81.8594 158.837 81.7118C158.426 81.5367 158.092 81.6104 157.644 81.6442C157.112 81.6842 156.623 81.6688 156.07 81.6688C155.834 81.6452 155.597 81.6867 155.383 81.7887C155.405 81.9761 155.628 82.0069 155.609 82.222C155.454 82.4925 155.059 82.4279 154.79 82.2927C154.425 82.1052 154.137 81.7426 153.738 81.5582C153.079 81.3037 152.389 81.1373 151.685 81.0634C150.959 80.9619 150.229 80.8113 149.521 80.6638C149.057 80.5655 148.64 80.504 148.235 80.3749C147.239 80.0676 146.256 79.8494 145.477 79.3515C145.254 79.2101 145.069 79.0442 144.858 78.9181C144.621 78.8022 144.391 78.6729 144.169 78.5309C144.042 78.4177 143.922 78.2966 143.81 78.1682C143.494 77.8711 143.199 77.5517 142.929 77.2124C142.725 76.9512 142.221 76.5056 142.734 76.2904C142.768 76.2105 142.777 76.0937 142.836 76.0415C143.145 75.937 143.455 75.9185 143.745 75.8448C144.028 75.7719 144.305 75.6784 144.574 75.5651C145.093 75.353 145.662 75.1809 146.237 74.9904C146.862 74.8424 147.5 74.755 148.142 74.7291C148.621 74.6769 149.135 74.6031 149.611 74.5878C150.279 74.5632 150.847 74.5201 151.577 74.5263C152.06 74.5263 152.551 74.4833 153.027 74.4863C153.462 74.52 153.898 74.4752 154.317 74.3542C154.49 74.2896 154.669 74.1759 154.845 74.0899C155.351 73.7857 155.892 73.5432 156.456 73.3676C156.623 73.3307 156.713 73.3676 156.731 73.4229C156.939 74.0291 157.212 74.6112 157.545 75.1594C157.689 75.5074 157.932 75.8063 158.243 76.02C158.584 76.2105 159.023 76.3273 159.415 76.5055C159.808 76.6838 160.182 76.8928 160.547 77.0219C161.437 77.3292 162.3 77.6365 163.271 77.9162C163.601 78.022 163.941 78.0951 164.285 78.1344C165.268 78.2174 166.051 77.7533 166.759 77.4767C167 77.3815 167.247 77.2216 167.491 77.1325C167.621 77.0833 167.77 77.0526 167.915 76.9942C168.338 76.8458 168.784 76.773 169.232 76.7791C169.502 76.7774 169.769 76.8374 170.011 76.9543C169.795 77.5075 169.272 77.9439 168.861 78.3957C168.519 78.7906 168.14 79.1528 167.73 79.4775C167.529 79.6342 167.083 79.877 167.043 80.1444C167.003 80.4118 167.402 80.7775 167.578 81.0111C167.674 81.1371 167.776 81.2785 167.887 81.426C167.998 81.5689 168.102 81.7177 168.196 81.8717C168.391 82.3394 168.547 82.8226 168.66 83.3162C168.707 83.4575 168.818 83.5682 168.772 83.728C168.261 83.9554 167.844 83.5835 167.405 83.3284C166.88 83.0371 166.381 82.703 165.911 82.3296C165.686 82.1421 165.522 81.8901 165.293 81.7149L164.968 81.469ZM144.991 76.1214C144.938 76.1818 144.9 76.2546 144.882 76.3332C144.863 76.4118 144.865 76.4936 144.886 76.5714C144.908 76.6492 144.948 76.7204 145.005 76.7787C145.061 76.8369 145.13 76.8804 145.208 76.9051C145.885 77.0649 146.005 75.9585 145.288 76.0015C145.182 76.0099 145.082 76.0557 145.007 76.1306L144.991 76.1214Z" fill="white"/>
</g>
<path opacity="0.6" fill-rule="evenodd" clip-rule="evenodd" d="M71.7032 47.8925C71.6445 44.9666 71.7032 41.9209 71.7032 38.9459C71.2487 38.8905 70.6891 38.6017 70.1758 38.7738C70.0119 38.8291 69.8666 39.0196 69.6564 39.1672C66.9014 41.0788 64.1094 43.2148 61.5121 45.0988C61.3668 46.2697 60.8072 47.2686 60.4361 48.3135C60.2728 48.3 60.1084 48.3093 59.9476 48.3412C59.8827 49.1464 60.0094 50.1575 59.9105 50.9935C59.7312 50.9535 59.5827 51.0089 59.4498 50.9658C58.4696 43.1533 57.5452 34.9382 56.7196 27.0519C56.5853 26.164 56.5791 25.2616 56.701 24.3719C56.1652 24.1494 55.6535 23.8734 55.1736 23.5483C55.1211 22.7215 55.2138 21.778 55.1241 21.1234C55.1241 21.1049 55.1241 21.0895 55.0932 21.0926C55.0623 21.0957 55.0407 21.1326 54.9788 21.1234C54.9015 21.778 54.9201 22.7307 54.9139 23.5483C54.2027 23.8187 53.5225 24.1199 52.7804 24.3627C52.7619 25.592 52.4712 26.68 52.3105 27.7188C52.2833 28.0856 52.2042 28.4467 52.0755 28.7914C51.9487 30.3988 51.5622 32.0031 51.3149 33.5859C51.3171 33.595 51.3171 33.6045 51.3149 33.6136C51.3177 33.6319 51.3177 33.6506 51.3149 33.6689C51.3116 33.6911 51.3053 33.7128 51.2963 33.7334V33.7795C51.2977 33.7979 51.2977 33.8164 51.2963 33.8348C51.2944 33.8398 51.2944 33.8453 51.2963 33.8502C51.3009 33.8725 51.3009 33.8955 51.2963 33.9178C51.2963 33.9178 51.2963 33.9178 51.2963 33.9363C51.3007 33.9576 51.3007 33.9795 51.2963 34.0008C51.2953 34.2299 51.2662 34.4579 51.2097 34.68C51.1046 35.2424 51.0057 35.6666 50.9005 36.1737C50.7954 36.6808 50.681 37.2125 50.6099 37.612C50.5109 38.1591 50.446 38.7184 50.344 39.2778C50.2419 39.8371 50.1739 40.3873 50.0812 40.9436C49.5432 44.2198 48.9124 47.6466 48.4115 50.8429C47.7684 50.8429 47.1933 50.7907 46.5378 50.8091C46.5223 50.1944 46.5811 49.4937 46.513 48.919C46.0625 48.8851 45.6104 48.8748 45.1588 48.8882C45.032 48.8882 45.1804 48.6424 45.0444 48.6608C44.803 48.6611 44.5621 48.6416 44.3239 48.6024V48.2643C44.0604 47.7064 43.8682 47.1179 43.7519 46.5125C40.9506 44.4534 38.106 42.4403 35.3232 40.3658C35.2367 40.2459 35.2614 40.0123 35.1254 39.9416C34.4513 40.1015 33.7525 40.2305 33.1341 40.4457C32.9919 43.6051 33.097 47.0104 33.0507 50.2651C32.8002 50.3143 32.3395 50.1514 32.2715 50.3758C32.3828 50.5694 32.8373 50.4895 33.1651 50.4925C33.4928 50.4956 33.9844 50.5909 34.0277 50.3542C33.9442 50.1545 33.4557 50.3542 33.2795 50.2375L33.3073 40.7561C33.5753 40.7277 33.845 40.7185 34.1143 40.7284C34.9306 41.8717 35.6943 43.0365 36.4951 44.3212C37.0455 45.2033 37.7473 46.0884 38.2761 47.035C38.4888 47.336 38.6711 47.6572 38.8202 47.9939C38.8283 48.3025 38.8077 48.6111 38.7584 48.9159C38.7584 49.2232 38.7151 49.5121 38.6997 49.7918C38.6811 49.927 38.4245 49.8225 38.4399 49.9885C38.477 50.262 38.644 50.4096 38.6966 50.6677C38.644 50.8982 38.3719 50.9136 38.2359 51.0611C38.2359 52.2751 38.2142 53.4952 38.1679 54.6723C37.3794 54.6908 36.5167 54.6324 35.7747 54.6938C35.6417 54.7154 35.7747 55.0012 35.6881 55.0627C34.8224 55.078 33.8824 55.0196 33.0661 55.0811C33.0786 55.2988 33.0682 55.5171 33.0352 55.7327C32.995 55.8064 32.7909 55.7173 32.7446 55.788C32.7301 56.2113 32.7394 56.635 32.7724 57.0573C33.1087 57.0438 33.4455 57.0541 33.7804 57.088C33.8082 59.3039 33.8453 61.9255 33.7309 64.0031C35.0388 64.0523 36.5446 64.0554 37.8525 64.0031C37.9452 62.0761 37.8525 59.9493 37.9267 58.0223C39.0769 58.0223 40.2085 57.9854 41.3866 58.0039C41.4422 59.9555 41.3866 61.9993 41.3866 64.0154C42.0866 64.063 42.7891 64.063 43.4891 64.0154C43.5602 62.0792 43.5108 60.02 43.5355 58.0346C44.562 58.0561 45.6658 58.0008 46.646 58.0715L46.6305 64.0246C49.0113 64.0799 51.5962 64.0861 53.9801 64.0461C54.0698 62.1345 53.9616 60.0292 54.0543 58.1176C54.9572 58.1391 55.9342 58.0869 56.7907 58.1545C56.8278 60.0876 56.8062 62.0792 56.7907 64.0523C57.4433 64.0999 58.0985 64.0999 58.751 64.0523C58.8407 62.1437 58.7325 60.0354 58.8252 58.1268C60.1888 58.1483 61.6296 58.0961 62.9468 58.1637C62.9901 60.0999 63.0488 62.3558 63.0705 64.3104C64.5608 64.3627 66.2552 64.3535 67.7455 64.3104C67.897 62.1376 67.6559 59.7618 67.8476 57.4414H68.3639V54.9827C68.2928 54.8998 68.0145 55.0196 67.9898 54.8967C68.0029 54.6044 67.9936 54.3116 67.962 54.0208C67.8816 54.0208 67.7424 53.821 67.761 53.6243H67.3003C67.2323 53.5782 67.325 53.3754 67.1581 53.4245C66.8025 53.3784 66.416 53.3569 66.0604 53.3108V52.1522C65.8432 51.9834 65.6126 51.8323 65.3709 51.7004C65.1978 51.6051 64.7525 51.4207 64.6814 51.2455C64.5732 50.9382 64.6814 50.4618 64.6814 50.0899V48.9036C65.173 48.0062 65.7327 47.1518 66.2459 46.3128C67.1735 44.7914 68.1537 43.3101 69.0534 41.8041C69.2699 41.4414 69.6038 41.0603 69.8048 40.7346C69.8542 40.6547 69.8759 40.5594 69.9223 40.4795C70.0879 40.2051 70.2706 39.9413 70.4695 39.6896C70.5561 39.5698 70.5839 39.4007 70.7324 39.3239C70.9626 39.3115 71.1936 39.3218 71.4219 39.3546L71.3971 48.0461C71.0446 48.0799 70.6581 48.3074 70.8777 48.7223C71.258 48.796 71.8733 48.7592 72.1145 48.5287C72.2103 48.0461 71.9166 48.0523 71.7032 47.8925Z" fill="white"/>
<g opacity="0.6">
<path opacity="0.6" fill-rule="evenodd" clip-rule="evenodd" d="M157.495 63.8555C156.799 63.6311 154.403 61.8946 153.992 61.2339C152.783 59.313 152.109 57.6995 151.079 55.751C150.551 55.4436 149.842 54.9918 149.944 54.3403C150.068 53.6088 151.265 53.5443 152.056 53.7625C161.332 48.4353 170.601 43.0917 179.862 37.7318C180.032 36.8097 179.726 34.7629 180.011 33.5858C180.357 33.4966 180.721 33.4966 181.068 33.5858C181.334 34.7014 181.053 36.5639 181.167 37.7318C184.42 40.7252 188.279 44.0752 191.837 47.164C192.258 47.5266 193.025 48.421 193.405 48.4486C193.785 48.4763 194.524 47.7725 194.892 47.5082C195.443 47.1086 195.9 46.8535 196.315 46.5677C197.31 45.8762 198.089 45.031 199.162 44.8067C199.193 45.9069 198.726 47.0963 199.07 48.3964C199.243 48.7037 199.595 48.7344 199.638 49.1985C199.688 49.7456 199.085 49.9822 199.15 50.3756C199.19 50.6277 199.852 50.8889 199.904 51.2976C200.068 52.527 198.238 53.2738 198.414 51.6203C198.655 51.482 198.862 52.0598 199.162 51.6757C199.289 51.1317 198.838 51.1747 198.596 50.9995C198.906 50.2496 198.003 50.1175 197.978 49.6442C197.953 49.1709 198.371 49.0479 198.528 48.5869C198.547 47.8238 198.519 47.0602 198.445 46.3003C197.014 47.1897 195.63 48.152 194.299 49.1832C197.774 52.4932 201.41 55.6373 205.093 58.7383C205.711 58.8059 206.858 58.7014 207.152 59.2761C207.022 59.8109 206.465 59.8263 206.224 60.3364C205.677 61.5135 205.427 63.2131 204.916 64.4794C193.68 64.3779 173.069 63.7633 156.577 63.8647L157.495 63.8555ZM153.302 53.9899C155.866 54.706 158.772 55.0748 161.722 55.4006C161.74 54.4263 161.508 53.6242 161.508 52.8036C161.508 52.4164 161.712 52.0107 161.623 51.6265C161.521 51.1716 160.729 50.8827 160.742 50.3971C160.763 49.4936 163.082 49.5612 164.143 49.5612C165.624 49.5612 166.635 49.5612 168.187 49.5858C172.596 49.6688 176.919 49.1955 179.838 50.5938C179.856 46.1006 179.964 42.935 179.791 38.6538C171.01 43.8017 162.043 48.7959 153.302 53.9899ZM181.241 38.8259C181.241 38.7613 181.161 38.7767 181.179 38.8874C181.158 42.4893 181.074 46.0575 181.213 49.5305C181.591 48.9557 182.048 48.0798 182.562 47.2285C183.044 46.4356 183.931 45.2277 183.934 45.0187C183.934 44.1858 183.625 42.7782 184.89 43.1225C185.292 43.4298 185.103 44.3242 185.156 44.9665C187.391 46.4724 189.577 48.0245 191.983 49.3583C192.233 49.2569 192.413 49.0848 192.663 48.9803C189.005 45.4674 185.066 42.1974 181.241 38.8259V38.8259ZM185.242 54.2604C186.739 53.2554 188.275 52.0875 189.757 50.9995C190.047 50.7875 191.256 50.1113 191.241 49.8716C191.241 49.7179 190.004 49.0356 189.8 48.8973C188.254 47.9108 186.498 46.7736 185.162 46.0299C185.088 48.63 185.112 51.6603 185.242 54.2604ZM181.167 51.0149C182.583 51.1624 181.006 52.0322 180.994 52.5516C180.96 53.7809 181.142 55.8462 181.158 57.1309C182.127 56.4987 183.056 55.8079 183.941 55.0625C183.885 52.149 183.941 49.0111 183.863 46.3372C182.988 47.9292 182.039 49.4383 181.167 51.0149V51.0149ZM193.606 49.7855C191.711 51.1532 188.003 53.9346 185.907 55.5481C184.89 56.3318 185.066 55.4406 185.041 57.9792C190.715 58.1697 197.718 58.5938 203.834 58.7291C200.517 55.6588 197.088 52.696 193.606 49.7886V49.7855ZM163.033 50.7352C163.011 51.2392 163.017 51.8324 163.011 52.4164C163.571 52.4164 164.167 52.4164 164.727 52.3948C164.749 51.7986 164.749 51.5312 164.727 50.7321C163.846 50.7137 163.589 50.726 163.033 50.7352ZM165.921 50.7813C165.942 51.0057 165.921 51.8355 165.936 52.3918C166.451 52.4175 166.967 52.4175 167.482 52.3918C167.464 51.8017 167.482 51.2577 167.482 50.7567C166.827 50.7844 166.341 50.769 165.911 50.7813H165.921ZM168.54 52.3733C169.21 52.3887 169.381 52.3733 170.169 52.3518C170.194 51.9461 170.203 51.2731 170.191 50.726C169.755 50.6983 169.071 50.7444 168.536 50.726C168.533 51.27 168.512 51.7802 168.53 52.3733H168.54ZM171.013 50.726C170.995 50.9749 171.044 51.9769 171.035 52.3457C171.529 52.3457 172.29 52.3795 172.652 52.3457C172.618 51.6603 172.652 51.2823 172.618 50.6953C172.132 50.7444 171.381 50.7076 171.01 50.726H171.013ZM183.223 57.8655C183.566 57.8378 183.65 57.8839 183.907 57.8655C183.888 57.678 183.971 57.3829 183.78 57.3737C183.613 57.555 183.338 57.635 183.22 57.8655H183.223Z" fill="white"/>
</g>
<path opacity="0.6" d="M116.14 108.616C116.014 108.635 115.886 108.611 115.776 108.547C115.666 108.483 115.581 108.384 115.536 108.266C115.491 108.148 115.488 108.017 115.528 107.897C115.567 107.777 115.647 107.674 115.754 107.605L115.84 107.556C115.608 107.73 115.337 107.844 115.05 107.887C114.762 107.931 114.469 107.902 114.195 107.805C113.933 107.709 113.702 107.543 113.527 107.327C113.351 107.11 113.238 106.851 113.2 106.576C112.671 106.75 112.111 106.808 111.558 106.745C111.014 106.64 110.501 106.21 110.535 105.7C110.569 105.189 111.372 104.833 111.731 105.226C111.873 104.867 111.524 104.486 111.137 104.344C110.599 104.148 109.972 104.227 109.499 103.831C109.415 103.766 109.352 103.679 109.314 103.581C109.276 103.482 109.267 103.375 109.285 103.272C109.455 102.476 110.961 102.931 111.193 102.042C111.22 101.926 111.221 101.806 111.197 101.689C111.173 101.573 111.124 101.462 111.054 101.366C110.596 100.715 109.721 100.607 109.128 100.137C108.908 99.9586 108.553 99.2763 108.509 99.5529C108.491 99.6943 108.868 96.7653 109.622 98.6063C109.81 99.0844 109.973 99.5717 110.111 100.066C110.297 99.9502 110.476 99.8251 110.649 99.6912C110.697 99.6613 110.732 99.6139 110.745 99.559L110.906 98.8091C110.961 98.7454 111.038 98.7043 111.122 98.6935C111.205 98.6827 111.29 98.7031 111.36 98.7507C111.463 98.8239 111.534 98.9341 111.558 99.0581L111.867 101.36C111.879 101.413 111.904 101.462 111.941 101.502C111.978 101.543 112.025 101.572 112.077 101.588C112.129 101.605 112.185 101.607 112.238 101.595C112.291 101.583 112.34 101.557 112.38 101.52C112.489 101.402 112.625 101.313 112.776 101.259C113.039 101.197 113.286 101.403 112.866 101.744L112.464 103.505C112.449 103.598 112.46 103.693 112.496 103.781C112.531 103.868 112.59 103.944 112.665 104.001C112.741 104.058 112.83 104.094 112.924 104.105C113.018 104.115 113.113 104.1 113.2 104.062L113.543 103.929C113.581 103.891 113.627 103.863 113.678 103.846C113.729 103.829 113.783 103.825 113.836 103.833C113.889 103.841 113.94 103.862 113.983 103.893C114.027 103.924 114.063 103.965 114.087 104.012L113.8 105.371L114.777 104.805C114.852 104.758 114.915 104.693 114.96 104.617C115.005 104.54 115.031 104.454 115.036 104.366C115.036 104.35 115.058 104.366 115.126 104.418C115.63 104.827 115.228 105.801 115.179 106.422C115.08 106.078 116.214 105.78 116.527 105.985C116.839 106.191 117.006 107.033 117.182 107.285L117.575 106.978L117.884 106.957C118.71 106.124 116.932 106.081 116.669 105.955C115.59 105.445 117.241 104.897 116.051 104.486C115.46 104.277 115.151 103.637 114.532 103.527C114.484 103.522 114.438 103.502 114.401 103.471C114.364 103.439 114.338 103.397 114.326 103.35C114.314 103.303 114.316 103.254 114.333 103.208C114.35 103.163 114.381 103.124 114.421 103.096V103.096C116.53 103.186 114.811 101.44 113.874 101.105C113.744 101.061 113.634 100.973 113.565 100.856C113.215 100.272 112.51 99.9555 112.186 99.3193C111.567 98.1361 110.8 96.8206 109.403 96.501C108.834 96.3719 108.231 96.4334 107.659 96.3105C107.381 96.2507 107.122 96.1265 106.901 95.9478C106.614 95.705 106.883 95.2963 107.279 95.3792L109.421 95.8126C109.52 95.6573 109.553 95.4701 109.515 95.2906C109.477 95.1111 109.37 94.9533 109.217 94.8506C108.89 94.6388 108.517 94.5062 108.129 94.4634L106.623 94.1837C106.6 94.1864 106.577 94.1839 106.555 94.1766C106.533 94.1693 106.513 94.1573 106.496 94.1414C106.479 94.1254 106.466 94.1061 106.458 94.0846C106.45 94.0631 106.446 94.04 106.448 94.0171C106.449 93.9941 106.456 93.9717 106.467 93.9516C106.479 93.9315 106.494 93.9141 106.513 93.9007C106.532 93.8872 106.553 93.8781 106.576 93.8739C106.599 93.8697 106.622 93.8705 106.645 93.8764L108.809 93.7104C108.809 93.2586 108.277 92.9605 107.792 92.9144C107.307 92.8683 107.378 92.478 106.895 92.4073C106.735 92.3827 106.002 92.8314 105.86 92.7484C105.6 92.6009 106.444 91.642 106.741 91.6881C107.399 91.7988 107.798 92.3919 108.144 91.8541C108.401 91.4607 108.311 90.886 108.046 90.3881C107.708 89.7519 109.591 88.9743 109.143 89.4968C109.084 89.5675 109.295 89.5982 109.363 89.6566C109.65 89.9056 109.843 90.2445 109.909 90.6172C109.976 90.99 109.913 91.3743 109.731 91.7066C109.993 91.2763 110.284 90.8183 110.859 90.7016C110.989 90.6718 111.124 90.6775 111.25 90.7181C111.376 90.7587 111.489 90.8326 111.577 90.9321C111.886 91.3101 111.577 91.7742 111.212 92.0477C110.847 92.3212 110.485 92.4903 110.309 92.8406C110.133 93.191 110.389 93.7381 110.8 93.6612C111.082 93.2125 111.419 92.7392 112.037 92.7023C112.116 92.6947 112.196 92.7033 112.272 92.7276C112.347 92.7518 112.417 92.7913 112.477 92.8434C112.537 92.8955 112.585 92.9593 112.619 93.0307C112.653 93.1021 112.672 93.1797 112.674 93.2586C112.656 93.7719 111.883 93.8733 111.437 94.1653C111.29 94.2683 111.171 94.4062 111.091 94.5665C111.011 94.7268 110.973 94.9044 110.979 95.0832C110.985 95.2621 111.037 95.4365 111.128 95.5907C111.219 95.7449 111.348 95.8739 111.502 95.9662C111.617 95.7405 111.807 95.5613 112.04 95.4588C112.273 95.3563 112.534 95.3369 112.779 95.4038C112.823 95.4128 112.863 95.4346 112.894 95.4665C112.925 95.4984 112.946 95.5388 112.954 95.5826C112.962 95.6264 112.956 95.6714 112.937 95.7119C112.919 95.7524 112.889 95.7864 112.85 95.8095C112.595 95.9584 112.383 96.1719 112.237 96.4282C112.091 96.6846 112.016 96.9748 112.019 97.2694C112.056 98.0654 112.69 98.7138 113.286 99.2886L115.5 101.415C115.809 99.015 115.349 96.627 113.97 94.0577C113.948 93.9988 113.946 93.9348 113.962 93.8743C113.978 93.8138 114.013 93.7598 114.061 93.7193C114.109 93.6789 114.168 93.654 114.231 93.648C114.294 93.642 114.357 93.6552 114.412 93.6858L115.089 94.0669L115.2 91.9955L113.438 91.6635C113.382 91.6396 113.337 91.5958 113.311 91.5407C113.285 91.4856 113.281 91.423 113.299 91.365C113.317 91.307 113.356 91.2577 113.409 91.2266C113.461 91.1954 113.523 91.1847 113.583 91.1964L114.161 91.2302C114.268 91.2452 114.377 91.2278 114.473 91.1804C114.57 91.1329 114.65 91.0576 114.703 90.9643C114.755 90.871 114.779 90.764 114.769 90.6574C114.76 90.5507 114.718 90.4494 114.65 90.3666C114.407 90.0813 114.136 89.8198 113.843 89.5859C113.762 89.5195 113.707 89.4279 113.686 89.3261C113.665 89.2243 113.679 89.1183 113.727 89.0257C113.774 88.9331 113.852 88.8593 113.947 88.8165C114.043 88.7736 114.15 88.7643 114.251 88.7899C114.476 88.817 114.693 88.8929 114.885 89.0124C115.077 89.1319 115.241 89.2921 115.364 89.4814C115.478 89.1431 115.668 88.8348 115.919 88.5798C116.17 88.3248 116.476 88.1297 116.814 88.0093C117.034 87.9263 117.643 89.0081 117.519 89.1802C116.919 89.9885 115.893 90.1176 116.128 91.0734C116.128 90.7999 117.031 90.803 117.179 91.0427C117.328 91.2824 116.542 91.5928 116.332 91.7926C116.122 91.9924 116.496 92.1215 116.289 92.3212C116.075 92.5282 115.944 92.8049 115.92 93.1002C115.896 93.3956 115.979 93.6897 116.156 93.9286C116.18 93.6397 116.644 93.5229 116.885 93.7104C116.995 93.8097 117.066 93.9433 117.088 94.0887C117.11 94.2342 117.081 94.3827 117.006 94.5095C116.848 94.7638 116.637 94.9817 116.388 95.1487C116.134 95.3143 115.918 95.531 115.754 95.7849C115.679 95.9116 115.648 96.0596 115.667 96.2055C115.686 96.3513 115.754 96.4867 115.859 96.5902C115.984 96.4593 116.135 96.3556 116.303 96.2858C116.471 96.2159 116.651 96.1815 116.833 96.1845C116.92 96.1761 117.007 96.196 117.082 96.2411C117.157 96.2862 117.215 96.354 117.247 96.4346C117.28 96.5151 117.286 96.604 117.263 96.688C117.241 96.772 117.192 96.8466 117.124 96.9006C116.523 97.3619 116.113 98.0253 115.97 98.7661C116.354 98.5325 116.987 98.3481 117.139 98.7999C117.166 98.8901 117.168 98.986 117.144 99.0772C117.12 99.1683 117.071 99.251 117.003 99.3162C116.742 99.6026 116.564 99.9535 116.487 100.332C116.409 100.711 116.436 101.103 116.564 101.468C116.784 102.107 117.097 102.712 117.491 103.262C117.878 103.877 118.308 104.492 119.115 104.652C119.3 104.691 119.493 104.68 119.672 104.619C119.851 104.558 120.01 104.449 120.132 104.304C120.478 103.853 120.203 103.333 119.854 102.967C119.504 102.602 119.044 102.282 118.926 101.769C118.898 101.663 118.896 101.553 118.918 101.446C118.941 101.34 118.988 101.24 119.056 101.154C119.381 100.755 119.943 100.908 120.231 101.225C120.435 101.483 120.576 101.785 120.642 102.107C121.056 101.959 121.053 101.397 120.825 101.05C120.596 100.702 120.206 100.435 120.07 100.048C120.029 99.9371 120.012 99.8194 120.019 99.7019C120.026 99.5843 120.057 99.4694 120.11 99.3642C120.163 99.2591 120.238 99.1659 120.329 99.0905C120.42 99.0151 120.525 98.9591 120.639 98.9259C121.128 98.8122 122.615 99.7311 122.395 100.155C122.754 99.9002 121.777 98.9966 121.662 98.5971C121.548 98.1975 121.353 97.7795 121.468 97.3677C121.559 97.1431 121.73 96.9594 121.948 96.8513C122.166 96.7431 122.416 96.718 122.652 96.7807C123.131 96.9159 123.997 98.2221 123.839 98.6585C124.318 97.758 123.221 96.9497 123.242 96.4088C123.242 95.2532 123.734 95.453 123.879 95.957C124.025 96.4611 124.829 96.4088 125.073 96.8791C125.037 96.5741 125.114 96.2665 125.29 96.0141C125.466 95.7617 125.728 95.5819 126.028 95.5083C126.215 95.4622 126.412 95.4774 126.589 95.5517C126.766 95.6259 126.914 95.7552 127.012 95.9202C127.321 96.5195 126.668 97.1311 126.084 97.5122C126.257 97.3734 126.469 97.2917 126.691 97.2785C126.912 97.2653 127.133 97.3212 127.321 97.4384C127.495 97.5522 127.623 97.7233 127.683 97.9216C127.743 98.12 127.731 98.333 127.649 98.5233C127.315 99.224 125.911 97.5398 125.085 97.4415C125.478 97.3185 126.174 99.5068 126.056 99.8725C125.939 100.238 125.555 100.466 125.2 100.665C124.711 100.939 123.824 99.7434 123.345 100.002C123.691 99.7619 124.581 101.766 124.39 102.125C124.198 102.485 123.706 102.599 123.273 102.589C122.726 102.589 122.16 102.433 121.666 102.755C121.554 102.82 121.468 102.921 121.422 103.041C121.377 103.162 121.374 103.294 121.415 103.416C121.536 103.723 121.916 103.788 122.231 103.886C122.547 103.985 122.807 104.178 122.745 104.44C122.64 104.897 121.817 104.645 121.409 104.913C121.1 105.106 121.1 105.528 121.211 105.835C121.322 106.142 121.483 106.496 121.393 106.828C121.369 106.904 121.329 106.974 121.276 107.034C121.223 107.094 121.157 107.142 121.084 107.175C121.051 107.189 121.021 107.211 120.998 107.24C120.976 107.269 120.961 107.303 120.955 107.339C120.949 107.374 120.952 107.411 120.965 107.446C120.977 107.48 120.998 107.51 121.026 107.534L122.068 108.509C122.34 108.767 122.046 109.163 121.65 109.071C121.343 109.002 121.053 108.876 120.794 108.699V109.36C120.792 109.411 120.774 109.461 120.743 109.502C120.711 109.543 120.668 109.572 120.618 109.587C120.569 109.602 120.516 109.601 120.467 109.585C120.418 109.568 120.375 109.537 120.345 109.495C120.07 109.145 119.712 108.869 119.303 108.69C119.244 108.661 119.178 108.647 119.112 108.65C119.046 108.652 118.982 108.67 118.924 108.703C118.867 108.736 118.818 108.782 118.783 108.837C118.748 108.893 118.727 108.956 118.722 109.022V109.222C118.72 109.257 118.709 109.29 118.689 109.319C118.669 109.348 118.641 109.37 118.609 109.384C118.576 109.397 118.541 109.401 118.506 109.395C118.471 109.39 118.439 109.374 118.413 109.351C118.375 109.308 118.347 109.258 118.329 109.203C118.258 108.896 118.521 108.684 118.268 108.521C118.014 108.358 117.068 108.592 116.793 108.607L116.14 108.616Z" fill="white"/>
<path opacity="0.6" d="M26.5973 109.889C26.7071 109.902 26.8184 109.879 26.9131 109.822C27.0077 109.764 27.0802 109.677 27.1189 109.574C27.1575 109.471 27.16 109.358 27.126 109.253C27.0919 109.149 27.0233 109.058 26.9312 108.997L26.857 108.954C27.0572 109.108 27.2932 109.208 27.543 109.246C27.7928 109.284 28.0482 109.259 28.2855 109.173C28.5153 109.088 28.7174 108.942 28.8699 108.751C29.0225 108.561 29.1198 108.332 29.1512 108.091C29.6105 108.244 30.0984 108.295 30.5797 108.238C31.0528 108.146 31.5073 107.768 31.4702 107.316C31.4331 106.864 30.7436 106.554 30.4313 106.901C30.3045 106.594 30.6106 106.247 30.9477 106.124C31.4146 105.952 31.9618 106.022 32.37 105.672C32.4426 105.614 32.4981 105.538 32.5308 105.451C32.5635 105.365 32.572 105.271 32.5555 105.18C32.4071 104.479 31.0992 104.873 30.8982 104.086C30.8744 103.987 30.8717 103.883 30.8903 103.783C30.9089 103.682 30.9485 103.587 31.0064 103.502C31.4022 102.927 32.1628 102.832 32.6823 102.408C32.8788 102.257 33.0572 102.083 33.2141 101.892C34.1726 100.619 32.9513 99.3654 32.2463 101.059C32.0806 101.479 31.9381 101.908 31.8196 102.343C31.658 102.242 31.5021 102.133 31.3527 102.015C31.3104 101.988 31.2804 101.946 31.2692 101.898L31.1301 101.237C31.0806 101.184 31.0137 101.15 30.9413 101.141C30.8688 101.132 30.7955 101.148 30.7343 101.188C30.6465 101.25 30.5849 101.342 30.5612 101.446L30.2984 103.474C30.2894 103.521 30.2679 103.565 30.2362 103.6C30.2045 103.636 30.1636 103.662 30.1181 103.677C30.0725 103.691 30.0238 103.693 29.9771 103.683C29.9305 103.672 29.8877 103.649 29.8531 103.616C29.7582 103.511 29.6394 103.431 29.5068 103.382C29.278 103.33 29.0647 103.511 29.4295 103.813L29.7789 105.349C29.7924 105.43 29.7835 105.514 29.7531 105.59C29.7227 105.667 29.6719 105.734 29.6062 105.784C29.5405 105.834 29.4623 105.866 29.38 105.875C29.2977 105.885 29.2144 105.872 29.1389 105.838L28.8297 105.721C28.7955 105.691 28.755 105.668 28.7111 105.655C28.6671 105.642 28.6208 105.639 28.5755 105.646C28.5303 105.654 28.4871 105.671 28.4493 105.696C28.4114 105.722 28.3798 105.756 28.3566 105.795L28.604 106.993L27.7568 106.493C27.6914 106.451 27.6369 106.394 27.5977 106.327C27.5585 106.26 27.5357 106.185 27.5311 106.108C27.5311 106.108 27.5125 106.108 27.4538 106.151C27.0147 106.514 27.3641 107.381 27.4074 107.919C27.4939 107.611 26.5076 107.353 26.2324 107.534C25.9572 107.716 25.8181 108.456 25.6635 108.678L25.3234 108.416L25.042 108.398C24.3247 107.663 25.8676 107.627 26.0964 107.516C27.024 107.067 25.5986 106.594 26.6251 106.219C27.1415 106.038 27.4074 105.472 27.9485 105.377C27.9905 105.371 28.0297 105.353 28.0612 105.324C28.0927 105.296 28.115 105.259 28.1253 105.218C28.1356 105.177 28.1334 105.134 28.119 105.095C28.1045 105.055 28.0786 105.021 28.0443 104.996V104.996C26.2108 105.076 27.7073 103.536 28.5205 103.241C28.6328 103.201 28.7278 103.124 28.7895 103.023C29.0987 102.506 29.7171 102.23 29.9892 101.673C30.5179 100.629 31.1919 99.4698 32.3947 99.1902C32.8894 99.0734 33.4151 99.1287 33.9129 99.0211C34.1539 98.9722 34.3796 98.8669 34.5714 98.7138C34.8219 98.4987 34.5869 98.1391 34.2437 98.2098L32.3885 98.594C32.2996 98.4577 32.2686 98.292 32.3022 98.1331C32.3358 97.9741 32.4313 97.8349 32.5679 97.7457C32.8519 97.5597 33.176 97.4428 33.514 97.4045L34.825 97.1587C34.8619 97.1558 34.8961 97.1385 34.9202 97.1106C34.9443 97.0826 34.9562 97.0463 34.9533 97.0096C34.9504 96.9729 34.933 96.9389 34.9049 96.915C34.8768 96.8911 34.8402 96.8792 34.8033 96.8821L32.9142 96.7345C32.9142 96.3381 33.3779 96.0738 33.7985 96.0338C34.219 95.9939 34.6518 96.0953 35.0693 96.0338C35.2145 96.0112 35.3541 95.9611 35.4805 95.8863C35.5269 95.8579 35.5615 95.8141 35.5783 95.7626C35.5951 95.7111 35.5928 95.6554 35.572 95.6054C35.5511 95.5554 35.513 95.5145 35.4645 95.4899C35.416 95.4654 35.3603 95.4588 35.3073 95.4714C34.7353 95.5667 33.7954 95.5728 33.4924 95.1026C33.2697 94.7553 33.347 94.2482 33.5789 93.8087C33.8727 93.2463 33.1801 92.6746 32.6235 93.0219C32.5564 93.0645 32.4923 93.1118 32.4318 93.1633C32.1842 93.3866 32.0191 93.6861 31.9631 94.0138C31.907 94.3414 31.9632 94.6783 32.1226 94.9704C31.8938 94.5893 31.6403 94.1867 31.1425 94.0853C31.0306 94.0586 30.9135 94.0634 30.8042 94.0993C30.695 94.1351 30.598 94.2005 30.5241 94.2882C30.2551 94.6201 30.5241 95.0288 30.8333 95.2686C31.1425 95.5083 31.4517 95.6619 31.6186 95.9693C31.7856 96.2766 31.5475 96.7591 31.1888 96.6946C30.9446 96.2981 30.6632 95.8709 30.1067 95.8464C30.0373 95.84 29.9674 95.8479 29.9012 95.8696C29.8351 95.8913 29.7742 95.9263 29.7222 95.9725C29.6703 96.0186 29.6285 96.0749 29.5994 96.1378C29.5703 96.2007 29.5546 96.2689 29.5532 96.3381C29.5687 96.7899 30.2396 96.879 30.6416 97.1372C30.77 97.2286 30.8737 97.3502 30.9435 97.4911C31.0132 97.6321 31.0468 97.788 31.0413 97.9449C31.0358 98.1019 30.9914 98.2551 30.9119 98.3908C30.8324 98.5266 30.7205 98.6407 30.5859 98.723C30.4865 98.5254 30.3213 98.368 30.1183 98.2778C29.9154 98.1876 29.6873 98.1701 29.4728 98.2282C29.4351 98.2371 29.4008 98.2568 29.3743 98.2849C29.3477 98.313 29.3301 98.3482 29.3235 98.3862C29.3169 98.4242 29.3217 98.4632 29.3372 98.4985C29.3528 98.5338 29.3784 98.5638 29.411 98.5847C29.6344 98.7176 29.8189 98.9065 29.9458 99.1325C30.0728 99.3585 30.1379 99.6136 30.1345 99.8725C30.1036 100.573 29.5532 101.145 29.0337 101.652L27.1075 103.524C26.8354 101.409 27.2404 99.307 28.437 97.0419C28.4615 96.9903 28.4683 96.9321 28.4564 96.8762C28.4445 96.8204 28.4145 96.77 28.371 96.7327C28.3275 96.6954 28.2729 96.6733 28.2156 96.6697C28.1583 96.6662 28.1014 96.6814 28.0536 96.713L27.4661 97.0511L27.8062 95.4837L28.9008 94.9305C28.9498 94.9095 28.9892 94.8712 29.0115 94.8231C29.0339 94.7749 29.0376 94.7203 29.0218 94.6696C29.0061 94.6189 28.9721 94.5758 28.9264 94.5485C28.8807 94.5212 28.8264 94.5117 28.774 94.5217L28.2731 94.5494C28.1801 94.5604 28.0858 94.5437 28.0023 94.5014C27.9188 94.4591 27.8498 94.3932 27.8041 94.3118C27.7584 94.2305 27.738 94.1375 27.7455 94.0446C27.7531 93.9518 27.7882 93.8633 27.8464 93.7903C28.0584 93.5396 28.2934 93.3092 28.5483 93.1018C28.6175 93.0429 28.6649 92.9626 28.6829 92.8737C28.7009 92.7849 28.6885 92.6926 28.6476 92.6116C28.6066 92.5307 28.5396 92.4656 28.4572 92.4269C28.3748 92.3882 28.2817 92.378 28.1927 92.398C27.996 92.4239 27.8074 92.4924 27.6402 92.5986C27.473 92.7048 27.3313 92.8462 27.2249 93.0127C27.1271 92.7157 26.9627 92.4447 26.7442 92.2201C26.5257 91.9954 26.2587 91.823 25.9634 91.7157C25.7748 91.642 25.5955 91.8294 25.7037 91.98C25.9619 92.3292 26.1422 92.7292 26.2323 93.1533C26.3224 93.5773 26.3203 94.0156 26.2262 94.4387C26.2262 94.1959 25.7779 94.1652 25.6481 94.3773C25.5992 94.4904 25.5896 94.6166 25.621 94.7357C25.6524 94.8548 25.7228 94.9601 25.8212 95.035C26.0036 95.2102 26.2417 95.3269 26.421 95.5021C26.6067 95.6861 26.7203 95.9298 26.7412 96.1896C26.7622 96.4493 26.6892 96.7079 26.5354 96.919C26.5169 96.6669 26.1118 96.5624 25.9171 96.7253C25.8218 96.8141 25.7596 96.9322 25.7405 97.0605C25.7214 97.1889 25.7466 97.3199 25.8119 97.4322C25.9512 97.6569 26.138 97.8488 26.3592 97.9946C26.5811 98.1407 26.7688 98.3325 26.9096 98.5571C26.9748 98.6685 27.0011 98.7983 26.9843 98.9262C26.9675 99.0541 26.9086 99.1728 26.8168 99.2639C26.7087 99.1493 26.5779 99.0582 26.4326 98.9963C26.2874 98.9344 26.1308 98.9031 25.9727 98.9043C25.8963 98.8983 25.8199 98.9167 25.7547 98.9569C25.6896 98.9971 25.6392 99.0571 25.6108 99.1279C25.5824 99.1987 25.5777 99.2767 25.5972 99.3504C25.6167 99.4241 25.6594 99.4897 25.7192 99.5375C26.2433 99.9461 26.5995 100.531 26.721 101.182C26.3901 100.976 25.8367 100.813 25.7068 101.209C25.6823 101.289 25.6803 101.374 25.701 101.455C25.7217 101.535 25.7644 101.609 25.8243 101.667C26.0493 101.921 26.203 102.23 26.2698 102.562C26.3365 102.893 26.3141 103.237 26.2046 103.557C26.0189 104.119 25.7523 104.651 25.4131 105.137C25.076 105.669 24.705 106.234 24 106.367C23.8385 106.398 23.6714 106.386 23.516 106.332C23.3606 106.278 23.2224 106.184 23.1157 106.059C22.8065 105.66 23.0539 105.202 23.3569 104.879C23.6599 104.556 24.065 104.264 24.1701 103.825C24.1953 103.732 24.1983 103.635 24.179 103.541C24.1596 103.447 24.1185 103.359 24.0588 103.284C23.9917 103.213 23.9098 103.158 23.8189 103.122C23.7279 103.086 23.6302 103.071 23.5326 103.077C23.435 103.083 23.3399 103.11 23.2539 103.156C23.168 103.203 23.0934 103.267 23.0353 103.345C22.8583 103.574 22.7357 103.84 22.6767 104.123C22.318 103.991 22.3211 103.508 22.5221 103.201C22.7231 102.894 23.0477 102.66 23.1745 102.322C23.2111 102.225 23.2273 102.122 23.2222 102.018C23.217 101.915 23.1906 101.814 23.1445 101.721C23.0984 101.628 23.0337 101.546 22.9543 101.479C22.8749 101.412 22.7825 101.362 22.6829 101.332C22.2562 101.231 21.78 101.686 21.9717 102.055C21.6625 101.83 21.6811 101.388 21.7893 101.034C21.8975 100.681 22.0706 100.315 21.9593 99.9616C21.8821 99.7644 21.7342 99.6026 21.5441 99.5073C21.354 99.412 21.1352 99.3899 20.9297 99.4453C20.5154 99.5651 19.9186 99.9186 20.0547 100.303C19.6373 99.5098 20.4226 99.5928 20.4165 99.1164C20.4165 98.0991 19.9898 98.2743 19.863 98.72C19.7362 99.1656 19.0374 99.1164 18.8241 99.519C18.8567 99.2521 18.7906 98.9824 18.6382 98.7603C18.4858 98.5381 18.2574 98.3785 17.9955 98.3112C17.8324 98.2714 17.6609 98.2853 17.5064 98.3507C17.352 98.4161 17.2231 98.5295 17.139 98.6738C16.8638 99.2025 17.4482 99.7403 17.9429 100.078C17.7941 99.9598 17.6121 99.8897 17.4218 99.8776C17.2315 99.8655 17.042 99.912 16.8793 100.011C16.7265 100.112 16.6143 100.264 16.5623 100.439C16.5104 100.614 16.5219 100.802 16.5948 100.97C16.8823 101.584 17.8037 101.603 18.5242 101.517C18.181 101.409 17.8749 101.824 17.98 102.156C18.1337 102.471 18.3974 102.72 18.7221 102.857L19.999 103.579C19.6898 103.367 19.2786 103.825 19.4394 104.141C19.6002 104.458 20.0331 104.559 20.4103 104.55C20.8833 104.55 21.3781 104.415 21.8047 104.698C21.9025 104.755 21.9776 104.844 22.0175 104.95C22.0574 105.055 22.0598 105.171 22.0243 105.279C21.9192 105.561 21.5883 105.61 21.3162 105.693C21.0441 105.776 20.8153 105.952 20.8679 106.182C20.9575 106.585 21.6687 106.363 22.0305 106.597C22.144 106.699 22.2219 106.834 22.2525 106.983C22.2831 107.131 22.2649 107.286 22.2005 107.424C22.0692 107.696 22.0147 107.999 22.0428 108.3C22.0645 108.367 22.1003 108.429 22.1477 108.482C22.195 108.535 22.2531 108.578 22.318 108.607C22.3453 108.621 22.3689 108.64 22.3871 108.665C22.4052 108.689 22.4173 108.718 22.4224 108.747C22.4275 108.777 22.4255 108.808 22.4165 108.837C22.4075 108.866 22.3918 108.892 22.3706 108.914L21.4646 109.772C21.2266 109.999 21.4832 110.347 21.8264 110.267C22.094 110.206 22.3471 110.095 22.5716 109.938V110.522C22.5734 110.566 22.589 110.609 22.6163 110.644C22.6436 110.679 22.6811 110.705 22.7238 110.718C22.7665 110.731 22.8122 110.731 22.8547 110.717C22.8972 110.704 22.9344 110.677 22.9611 110.642C23.1991 110.333 23.5118 110.088 23.8702 109.932C23.9231 109.906 23.9818 109.893 24.0408 109.896C24.0998 109.899 24.1572 109.916 24.2075 109.947C24.2578 109.978 24.2995 110.021 24.3287 110.072C24.3578 110.123 24.3735 110.18 24.3742 110.239V110.414C24.3703 110.448 24.3777 110.482 24.3952 110.512C24.4128 110.541 24.4396 110.564 24.4714 110.577C24.5033 110.59 24.5386 110.592 24.5718 110.583C24.6051 110.574 24.6345 110.555 24.6555 110.528C24.6893 110.491 24.7147 110.447 24.7297 110.399C24.7916 110.131 24.5628 109.941 24.7823 109.784C25.0018 109.627 25.8274 109.846 26.0655 109.858L26.5973 109.889Z" fill="white"/>
<g opacity="0.6">
<path opacity="0.6" d="M210.501 96.126C209.836 96.7407 208.723 96.8421 207.817 97.1864C206.537 97.6719 205.6 98.7077 204.852 99.7864C204.104 100.865 203.476 102.027 202.555 102.98C201.739 103.822 200.619 104.498 199.42 104.572C199.372 104.571 199.326 104.584 199.285 104.607C199.244 104.63 199.21 104.664 199.186 104.704C199.162 104.745 199.15 104.791 199.149 104.837C199.149 104.884 199.161 104.93 199.185 104.971L200.421 106.984C200.446 107.029 200.457 107.079 200.454 107.13C200.451 107.181 200.434 107.23 200.404 107.271C200.375 107.313 200.334 107.345 200.286 107.364C200.239 107.384 200.187 107.389 200.137 107.381C199.135 107.267 198.146 107.098 197.156 106.901C196.003 105.783 193.941 103.561 192.209 103.379C190.478 103.198 188.718 103.542 187.386 102.586C186.675 102.076 185.682 101.892 185.098 101.271C182.624 98.6646 179.245 96.3104 175.441 96.9989C175.222 96.3289 175.151 95.5206 175.778 95.0442C176.304 94.6447 177.071 94.5801 177.723 94.6016C179.801 94.6731 181.869 94.9115 183.907 95.3147L190.357 96.5655C190.945 96.6792 193.14 97.1341 193.542 97.5429C193.783 97.7887 192.345 97.7887 192.525 98.0776C193.118 99.0304 194.247 99.6143 195.412 99.8602C196.59 100.051 197.791 100.06 198.971 99.8878C199.789 99.8351 200.592 99.6535 201.352 99.35C202.088 99.0119 202.728 98.428 202.898 97.6689C203.158 96.4395 202.116 95.3485 201.154 94.4787L199.271 92.7668C199.231 92.7299 199.203 92.6816 199.192 92.6285C199.18 92.5753 199.186 92.52 199.207 92.4699C199.228 92.4199 199.264 92.3775 199.311 92.3487C199.357 92.3199 199.411 92.306 199.466 92.3089C201.398 92.2406 203.304 92.77 204.92 93.8241C204.964 93.8539 205.015 93.871 205.069 93.8733C206.998 93.9924 208.858 94.6297 210.452 95.7173C210.486 95.7374 210.516 95.7652 210.538 95.7985C210.56 95.8319 210.574 95.8698 210.579 95.9094C210.583 95.949 210.579 95.9892 210.566 96.0268C210.552 96.0644 210.53 96.0983 210.501 96.126V96.126Z" fill="white"/>
<path opacity="0.6" d="M197.168 106.907C196.33 106.738 195.496 106.551 194.661 106.367L189.237 105.159C186.532 104.544 183.799 103.929 181.325 102.765C178.852 101.6 176.628 99.768 175.605 97.3738C175.552 97.2534 175.506 97.1303 175.466 97.005C179.269 96.3166 182.661 98.6708 185.122 101.277C185.706 101.892 186.699 102.082 187.41 102.592C188.743 103.548 190.502 103.207 192.234 103.385C193.965 103.564 196.015 105.789 197.168 106.907Z" fill="white"/>
<path opacity="0.6" d="M182.506 97.5767C182.759 97.5767 182.964 97.3731 182.964 97.1219C182.964 96.8706 182.759 96.667 182.506 96.667C182.254 96.667 182.049 96.8706 182.049 97.1219C182.049 97.3731 182.254 97.5767 182.506 97.5767Z" fill="white"/>
<path opacity="0.6" d="M182.503 97.0573C182.601 97.0573 182.68 96.9789 182.68 96.8821C182.68 96.7854 182.601 96.7069 182.503 96.7069C182.406 96.7069 182.327 96.7854 182.327 96.8821C182.327 96.9789 182.406 97.0573 182.503 97.0573Z" fill="white"/>
</g>
<g opacity="0.6">
<path opacity="0.6" d="M55.2217 76.318C55.2217 76.3395 55.2217 76.3611 55.2217 76.3826C55.2186 76.4317 55.2186 76.481 55.2217 76.5301V77.6396C55.2217 78.1498 54.5724 78.5616 53.7684 78.5616H50.157V82.6031C50.157 82.7906 49.987 82.9442 49.7675 78.5093H48.7718C48.574 82.9442 48.4008 82.7906 48.4008 82.6031V78.577H45.2717C44.4678 78.577 43.8154 78.1651 43.8154 77.655C43.8154 77.6396 43.8154 77.3199 43.8154 76.9972C43.8154 76.6745 43.8154 76.358 43.8154 76.3426C43.8168 76.3221 43.8168 76.3016 43.8154 76.2811C43.9051 75.3038 46.5982 72.8697 49.6902 72.8697C52.8625 72.8543 55.2217 75.3161 55.2217 76.318Z" fill="white"/>
<path opacity="0.6" d="M43.7108 88.2305C42.474 87.3085 43.7108 86.0791 43.7108 85.1571C43.7108 82.6984 44.9476 80.2397 44.6384 77.4736C44.9476 79.0103 45.2568 80.8544 44.6384 82.391C43.7108 84.2351 43.0924 86.0791 43.7108 88.2305Z" fill="white"/>
<path opacity="0.6" d="M44.6391 87.3085C43.4023 86.3864 44.6391 85.4644 44.3299 84.5424C44.0207 83.0057 45.2575 81.7764 45.5667 80.547C46.1851 79.3177 44.6391 78.3956 45.5667 77.4736C46.4942 80.2397 44.6391 83.0057 44.3299 85.7718C44.3299 86.3864 44.6391 86.6938 44.6391 87.3085Z" fill="white"/>
<path opacity="0.6" d="M45.8755 88.2305C44.6387 88.2305 45.2571 87.3085 45.2571 86.6938C44.9479 83.6204 46.8031 80.547 45.8755 77.4736C45.8755 78.0883 46.4939 78.703 46.4939 79.3177C46.8031 82.391 44.9479 85.1571 45.8755 88.2305Z" fill="white"/>
<path opacity="0.6" d="M46.4933 86.3864C45.8749 84.5424 46.1841 82.391 46.8025 80.547C47.1117 79.3177 46.4933 78.3956 46.4933 77.4736C47.1117 77.781 47.1117 78.3956 47.1117 79.0103C47.3876 80.4731 47.1702 81.9855 46.4933 83.3131C45.8749 84.5424 47.4209 85.4644 46.4933 86.3864Z" fill="white"/>
<path opacity="0.6" d="M47.4214 88.2305C46.1846 88.2305 46.803 87.3085 46.803 86.6938C46.4938 83.6204 48.349 80.547 47.4214 77.4736C48.0398 78.0883 48.0398 78.703 48.0398 79.3177C48.349 82.391 46.4938 85.1571 47.4214 88.2305Z" fill="white"/>
<path opacity="0.6" d="M51.441 88.2305C50.5134 85.1571 52.3686 82.391 52.0594 79.3177C52.0594 78.703 51.7502 78.3956 51.7502 77.781L52.0594 77.4736C52.987 80.547 51.1318 83.6204 51.441 86.6938C51.441 87.3085 51.7502 87.6158 51.7502 88.2305H51.441Z" fill="white"/>
<path opacity="0.6" d="M53.6051 88.2305C53.2959 86.6938 52.9867 84.8497 53.6051 83.3131C54.2235 81.469 53.9143 79.3177 53.6051 77.4736C55.1511 79.9323 53.6051 82.6984 53.2959 85.1571C53.2959 86.0791 53.9143 87.0011 53.9143 87.9231L53.6051 88.2305Z" fill="white"/>
<path opacity="0.6" d="M54.5322 85.7717C53.9138 83.9277 54.5322 82.0837 54.8414 80.2397C55.1506 79.3177 54.8414 78.3956 54.5322 77.4736C56.0782 78.0883 54.8414 79.3177 54.8414 80.2397C55.1506 82.0837 54.223 83.9277 54.5322 85.7717Z" fill="white"/>
<path opacity="0.6" d="M48.349 88.8451C46.8031 86.3864 48.349 83.6203 48.6582 81.1616C48.6019 80.1129 48.3936 79.0778 48.0398 78.0883C49.2766 78.0883 48.6582 79.0103 48.6582 79.6249C48.7093 81.168 48.6058 82.7123 48.349 84.235C48.0429 84.9654 47.8852 85.7488 47.8852 86.54C47.8852 87.3313 48.0429 88.1147 48.349 88.8451V88.8451Z" fill="white"/>
<path opacity="0.6" d="M48.968 86.3864C48.3496 86.0791 48.3496 85.4644 48.3496 84.8497C48.6588 82.391 49.8956 79.9323 48.968 77.4736C49.8956 78.0883 49.8956 79.625 49.5864 80.547C48.968 82.391 48.3496 84.5424 48.968 86.3864Z" fill="white"/>
<path opacity="0.6" d="M49.8937 88.2305C48.3477 85.7718 50.2029 83.3131 50.5121 80.8544C50.5121 79.9323 49.8937 78.703 49.8937 77.781L50.2029 77.4736C50.5121 79.0103 50.8213 80.8544 50.2029 82.391C49.8937 84.2351 49.2753 86.0791 49.8937 88.2305Z" fill="white"/>
<path opacity="0.6" d="M50.8226 87.3085C49.895 84.8497 50.8226 82.6984 51.1318 80.2397C51.1318 79.3177 50.5134 78.3956 50.5134 77.4736C51.7502 79.625 50.8226 82.391 50.5134 84.5424C50.5134 85.4644 51.1318 86.0791 51.1318 87.0011L50.8226 87.3085Z" fill="white"/>
<path opacity="0.6" d="M52.986 86.3864C51.7492 85.1571 52.0584 83.0057 52.6768 81.7764C53.2953 79.8784 53.2953 77.8349 52.6768 75.937C53.9136 77.1663 53.6044 79.3177 52.986 80.547C52.3676 82.445 52.3676 84.4885 52.986 86.3864V86.3864Z" fill="white"/>
</g>
<g opacity="0.6">
<path opacity="0.6" d="M125.091 21.5536C124.93 22.6231 123.298 22.5371 122.03 22.703C118.341 23.1886 113.889 23.625 110.04 23.7726C109.421 23.7971 108.562 23.6189 107.974 23.7726C107.467 23.9047 107.241 24.6792 106.651 24.8421C105.748 25.088 105.105 24.6116 104.418 25.088C103.834 31.4468 104.582 38.116 104.582 44.733C104.582 51.35 105.105 57.9485 105.08 64.295H101.274C101.673 52.3089 101.682 40.2858 102.102 28.2105C102.13 27.4114 102.208 26.4925 102.183 25.6627C102.167 25.0173 102.362 23.9662 101.524 23.6896C100.748 24.209 101.033 25.2447 100.696 26.0745C100.139 27.4422 99.0291 28.8406 98.2221 30.2666C96.2278 33.761 94.0418 37.1295 91.9361 40.6239C91.5836 41.2078 91.2342 42.1391 90.3654 42.1852C90.217 39.9354 91.4291 38.0668 92.3505 36.1029C93.5872 33.4445 94.858 30.7891 96.3205 28.0476C96.9667 26.8183 97.7768 25.0173 98.6364 24.3596C99.094 24.0031 100.331 23.8924 100.538 23.373C100.745 22.8536 99.7711 20.9973 100.702 20.5793C100.442 19.9831 99.6938 19.7679 99.295 19.2639C98.8343 18.68 98.4694 17.8471 98.0582 17.1279C95.3311 12.398 92.2577 7.34843 89.7099 2.41258C89.6945 2.34497 89.7439 2.33576 89.7934 2.33268C89.7687 2.19745 89.8707 2.19131 89.8769 2.08374H90.1242C93.9119 6.36188 97.0873 10.7998 100.377 15.7295C100.881 16.4825 101.453 17.2662 101.537 17.9485C101.62 18.6308 101.227 19.3592 101.37 19.8386C101.487 20.2597 102.786 20.9082 103.271 21.068C103.783 21.2113 104.31 21.2948 104.842 21.3169C110.822 21.5444 118.771 21.2647 125.091 21.5536ZM101.936 23.1978C102.088 23.2135 102.243 23.1978 102.389 23.1517C102.536 23.1056 102.671 23.03 102.787 22.9298C102.903 22.8295 102.997 22.7066 103.064 22.5688C103.13 22.4309 103.167 22.281 103.172 22.1283C103.067 22.1283 103.058 22.0238 102.925 22.0453C102.801 22.6323 102.365 22.9089 101.936 23.1978V23.1978Z" fill="white"/>
</g>
<g opacity="0.6">
<path opacity="0.6" d="M72.6181 80.9957C73.0518 80.5516 73.6307 80.2759 74.2506 80.2181C74.8196 80.1874 75.407 80.9188 75.9048 81.1801C76.3054 81.403 76.7568 81.52 77.2158 81.52C77.6749 81.52 78.1263 81.403 78.5268 81.1801C79.0865 80.8205 79.4328 80.212 80.0171 79.8831C80.6015 79.5543 81.2539 79.5758 81.8909 79.5758H84.8715C84.9419 79.5729 85.0117 79.5885 85.074 79.6211C85.1363 79.6537 85.1889 79.7021 85.2262 79.7615C85.2636 79.8208 85.2845 79.8889 85.2868 79.9588C85.2891 80.0288 85.2728 80.0981 85.2395 80.1597C85.101 80.4044 84.8964 80.6056 84.6489 80.7406C83.7213 80.9311 82.1166 80.9281 81.5569 81.3337C82.2372 81.1493 84.5469 82.3142 85.0663 82.769C85.5858 83.2239 85.6414 84.026 86.2814 84.3057C86.671 84.4809 87.5182 84.3057 87.8552 84.5454C88.4736 84.9757 88.5509 85.7748 88.5911 86.4909C88.176 86.6428 87.726 86.6743 87.2936 86.5818C86.8611 86.4893 86.464 86.2766 86.1485 85.9684C85.633 86.6141 84.9806 87.1388 84.2376 87.5051C84.72 87.5328 84.5252 88.2827 84.584 88.7344C84.6674 89.3983 84.6736 90.099 84.3335 90.4186C82.7875 90.726 82.3825 89.4751 82.4783 88.2181C80.5149 88.5255 78.9195 87.9661 77.1323 87.1394C76.7768 86.9734 76.3563 86.7859 76.0038 86.958C75.6513 87.1301 75.574 87.628 75.5709 88.0337C75.6104 88.735 75.6878 89.4337 75.8028 90.1267C75.806 90.1835 75.7914 90.24 75.7611 90.2883C75.7307 90.3366 75.6861 90.3745 75.6334 90.3967C75.5806 90.4189 75.5222 90.4243 75.4662 90.4123C75.4102 90.4003 75.3593 90.3714 75.3205 90.3295C74.6547 89.6316 74.1382 88.8067 73.8023 87.9046C73.5715 87.2792 73.5606 86.5946 73.7714 85.9623C73.8116 85.8547 73.8641 85.7533 73.9136 85.6549L74.1208 85.2369C74.33 84.8963 74.4471 84.5078 74.4609 84.109C74.4213 83.8227 74.3076 83.5515 74.1309 83.322C73.9542 83.0925 73.7206 82.9126 73.4529 82.7998C73.0572 82.6061 72.5006 82.7998 72.1234 82.5723C71.8915 82.434 71.5483 81.807 71.6503 81.5643C72.0028 80.7344 73.2798 80.089 74.2352 80.2089" fill="white"/>
<path opacity="0.6" d="M73.9851 81.1556C73.9851 81.3707 73.9047 81.3799 73.6759 81.3799C73.4471 81.3799 73.2646 81.4076 73.2646 81.1955C73.2646 80.9835 73.4471 80.9312 73.6759 80.9312C73.9047 80.9312 73.9851 80.9435 73.9851 81.1556Z" fill="white"/>
<path opacity="0.6" d="M73.4874 81.1592C73.5199 81.1592 73.5462 81.1343 73.5462 81.1036C73.5462 81.0729 73.5199 81.048 73.4874 81.048C73.455 81.048 73.4287 81.0729 73.4287 81.1036C73.4287 81.1343 73.455 81.1592 73.4874 81.1592Z" fill="white"/>
<path opacity="0.6" d="M86.157 86.5463C86.8914 84.3402 84.903 81.702 81.7158 80.6536C78.5285 79.6053 75.3494 80.5438 74.615 82.7498C73.8805 84.9559 75.8689 87.5941 79.0562 88.6425C82.2434 89.6908 85.4226 88.7524 86.157 86.5463Z" fill="white"/>
</g>
<g opacity="0.6">
<path opacity="0.6" d="M81.6404 94.1836C81.9343 93.8826 82.327 93.6961 82.7473 93.6581C83.1307 93.6365 83.5296 94.1314 83.8666 94.3096C84.1379 94.4601 84.4434 94.5391 84.754 94.5391C85.0646 94.5391 85.3701 94.4601 85.6414 94.3096C86.0217 94.0668 86.2598 93.655 86.6494 93.4337C87.0479 93.2565 87.4851 93.1825 87.9202 93.2186H89.9361C89.9838 93.2169 90.0311 93.2277 90.0732 93.2499C90.1154 93.2721 90.1509 93.3049 90.1763 93.345C90.2017 93.3852 90.216 93.4313 90.2178 93.4787C90.2196 93.5261 90.2088 93.5731 90.1866 93.615C90.092 93.7808 89.9528 93.917 89.7846 94.0084C89.1662 94.1344 88.0717 94.1344 87.7006 94.408C88.1613 94.285 89.7258 95.0718 90.0752 95.3792C90.4246 95.6865 90.4679 96.2336 90.8977 96.4272C91.1636 96.547 91.7295 96.4272 91.9644 96.5901C92.3726 96.8974 92.4344 97.426 92.4622 97.9055C92.1813 98.0093 91.8763 98.0311 91.5833 97.9685C91.2902 97.9059 91.0213 97.7614 90.808 97.552C90.4597 97.9914 90.0185 98.3491 89.5156 98.6001C89.8433 98.6154 89.7104 99.1256 89.7506 99.4299C89.8062 99.8786 89.8124 100.352 89.5805 100.567C88.5355 100.77 88.2603 99.9308 88.3252 99.0764C86.9988 99.2885 85.9166 98.9074 84.7076 98.348C84.5967 98.2741 84.4711 98.2249 84.3393 98.2037C84.2075 98.1824 84.0726 98.1898 83.9439 98.2251C83.6873 98.3511 83.6533 98.68 83.6347 98.9535C83.6616 99.4283 83.7142 99.9012 83.7924 100.37C83.7942 100.409 83.7841 100.447 83.7633 100.48C83.7425 100.512 83.7121 100.538 83.6763 100.552C83.6405 100.567 83.6009 100.571 83.563 100.562C83.5252 100.554 83.4908 100.534 83.4646 100.506C83.0136 100.035 82.6643 99.4774 82.4381 98.8674C82.2797 98.4443 82.2721 97.9801 82.4165 97.552C82.445 97.4794 82.4781 97.4086 82.5154 97.34L82.6545 97.0603C82.7955 96.8289 82.8743 96.5654 82.8834 96.295C82.857 96.1011 82.7801 95.9173 82.6602 95.762C82.5404 95.6068 82.3817 95.4854 82.2 95.4099C81.9341 95.2777 81.5569 95.4099 81.3034 95.2531C81.1426 95.1609 80.9138 94.7368 80.9942 94.5709C81.2322 94.0084 82.0949 93.572 82.7442 93.6488" fill="white"/>
<path opacity="0.6" d="M82.2318 94.2949C82.2541 94.2949 82.2722 94.2782 82.2722 94.2577C82.2722 94.2371 82.2541 94.2205 82.2318 94.2205C82.2095 94.2205 82.1914 94.2371 82.1914 94.2577C82.1914 94.2782 82.2095 94.2949 82.2318 94.2949Z" fill="white"/>
<path opacity="0.6" d="M90.8083 97.9453C91.3056 96.4515 89.9595 94.6652 87.8017 93.9554C85.6439 93.2457 83.4915 93.8813 82.9942 95.3751C82.4969 96.8689 83.843 98.6553 86.0008 99.365C88.1586 100.075 90.311 99.4392 90.8083 97.9453Z" fill="white"/>
</g>
</g>
<defs>
<clipPath id="clip0_307_818">
<rect width="226.78" height="120" fill="white" transform="translate(0.0878906)"/>
</clipPath>
</defs>
</svg>
