<svg width="384" height="160" viewBox="0 0 384 160" fill="none" xmlns="http://www.w3.org/2000/svg">
<rect width="384" height="160" fill="black"/>
<path d="M104.182 81.0559C104.182 73.1343 101.326 65.6865 96.1381 60.085C95.1186 58.9857 94.0321 57.9851 92.8904 57.0816L88.5876 64.8741C93.0857 68.7476 96.299 74.3597 96.299 81.0559C96.299 92.731 87.5368 102.2 76.7222 102.2C74.1914 102.2 71.7799 101.671 69.5607 100.727L65.5812 108.167C69.045 109.831 72.8217 110.712 76.7222 110.712C91.8635 110.712 104.182 97.4078 104.182 81.0559L104.182 81.0559Z" fill="white"/>
<path d="M96.4059 27.0282C96.3731 24.3163 96.1317 21.7274 95.6994 19.3405L95.5504 18.5312L94.984 19.0823C93.2835 20.7389 91.6306 22.6779 90.0701 24.8462C81.9592 36.1281 77.8277 51.2257 80.2467 60.7401L80.3197 61.0195L80.579 61.0742C81.0977 61.1835 81.5731 61.3126 82.0262 61.469C82.5613 61.6527 83.0859 61.8713 83.5957 62.1264L83.8371 62.2464L84.0428 62.0718C91.3802 55.8979 96.5788 41.1616 96.4059 27.0282L96.4059 27.0282Z" fill="white"/>
<path d="M69.2685 16.6544L68.8064 16L68.5248 16.7638C67.6767 19.0626 66.9866 21.5923 66.4769 24.2784C63.8165 38.2736 66.2936 53.7859 72.3582 61.1623L72.5385 61.3825L72.7949 61.3051C73.309 61.1593 73.786 61.0469 74.2555 60.9695C74.8099 60.8799 75.3733 60.8237 75.9307 60.8085L76.196 60.8009L76.3093 60.5474C80.3648 51.5067 78.9936 35.8063 73.0527 23.2156C71.9125 20.7952 70.6397 18.5859 69.2685 16.6545V16.6544Z" fill="white"/>
<path d="M49.6568 31.0243C47.6432 29.3981 45.5983 28.0269 43.5788 26.9473L42.8947 26.5829L42.9543 27.4013C43.1361 29.8688 43.5534 32.4653 44.1958 35.1195C47.5418 48.9401 56.1118 61.6705 64.5745 65.3952L64.8219 65.5014L65.0246 65.3116C65.4225 64.9335 65.8026 64.6086 66.1916 64.3156C66.6506 63.9694 67.1365 63.6505 67.6328 63.3696L67.8639 63.2375V62.9505C67.7998 52.9107 60.1419 39.4834 49.6568 31.0242L49.6568 31.0243Z" fill="white"/>
<path d="M28.6636 55.4728C37.323 66.2722 50.2197 73.6004 59.3352 72.8973L59.6004 72.8745L59.7048 72.6072C59.9045 72.0773 60.1161 71.6035 60.3442 71.1556C60.6139 70.6272 60.918 70.1078 61.2459 69.6204L61.4009 69.3911L61.2846 69.136C57.1159 60.1603 44.7528 51.7707 31.8829 49.1908C29.4147 48.6973 27.0211 48.4422 24.7631 48.4361H24L24.3905 49.1452C25.565 51.2681 27.0017 53.4 28.6636 55.4727L28.6636 55.4728Z" fill="white"/>
<path d="M57.7022 82.1318L57.9348 81.983L57.9154 81.6991C57.8796 81.1251 57.8737 80.5998 57.896 80.0865C57.9213 79.4837 57.9824 78.8779 58.0763 78.2796L58.1211 78.0002L57.9124 77.8286C50.5005 71.7686 35.9762 70.15 23.3791 73.9779C20.9602 74.7129 18.7096 75.6285 16.6841 76.7035L16 77.0649L16.6394 77.5158C18.5576 78.8612 20.7202 80.0835 23.0617 81.1509C35.2474 86.7008 49.8178 87.1153 57.7022 82.1318Z" fill="white"/>
<path d="M59.8361 91.3708L59.9807 91.1294L59.848 90.8803C59.5827 90.3838 59.3636 89.9162 59.1714 89.4454C58.9493 88.8912 58.754 88.3173 58.5945 87.7372L58.5185 87.4654L58.2622 87.4108C49.1318 85.5173 35.4436 91.0003 25.7111 100.451C23.8436 102.265 22.1967 104.163 20.8225 106.092L20.3545 106.746L21.1146 106.84C23.3875 107.133 25.8289 107.197 28.3641 107.036C41.5648 106.195 54.8014 99.6052 59.8361 91.3708L59.8361 91.3708Z" fill="white"/>
<path d="M64.2315 97.0692C63.8053 96.6775 63.3924 96.2553 63.0139 95.8104L62.8365 95.6009L62.5831 95.6783C53.6167 98.3371 43.5846 109.792 38.7258 122.919C37.7943 125.439 37.0938 127.925 36.6511 130.312L36.4991 131.118L37.219 130.843C39.3771 130.019 41.5904 128.912 43.7992 127.558C55.2979 120.497 64.4731 108.271 65.6162 98.4783L65.6505 98.1913L65.4254 98.0334C64.9858 97.7145 64.5923 97.3972 64.2316 97.0692L64.2315 97.0692Z" fill="white"/>
<path d="M128.75 89.9732C130.82 89.3992 132.925 88.6962 134.634 87.899C134.861 85.6518 134.844 79.8848 134.825 79.2395C133.175 78.374 131.263 77.463 129.272 76.7812C125.608 75.5331 120.346 74.9712 116.707 74.6691C116.251 71.5761 116.561 73.2175 115.758 70.0865C118.997 68.1566 123.608 65.2837 126.467 62.4656C128.054 60.9031 129.427 59.3179 130.592 57.7433C129.576 55.0117 128.395 52.3727 127.047 49.8475C125.207 49.9219 123.256 50.1451 121.194 50.5566C117.415 51.3128 112.528 53.4857 109.185 55.0618C107.434 52.5625 108.422 53.8562 106.352 51.4965C108.374 48.1499 111.194 43.2743 112.494 39.337C113.212 37.1596 113.64 35.2662 113.984 33.2892C112.287 31.751 110.509 30.3161 108.653 28.989L96.1007 52.4471C97.4525 53.5146 98.7447 54.6913 99.9505 55.9911C106.149 62.6873 109.565 71.5913 109.565 81.0617C109.565 90.5305 106.149 99.436 99.9505 106.131C93.7488 112.827 85.5081 116.517 76.7385 116.517C72.0913 116.517 67.5961 115.466 63.4677 113.492L50.8318 137.129C52.7634 138.175 54.7546 139.106 56.7995 139.917C58.0604 138.658 59.3109 137.226 60.542 135.617C62.9833 132.418 65.4425 127.351 67.0671 123.822C69.8944 124.522 68.3682 124.215 71.3565 124.587C71.8007 128.55 72.534 134.255 73.8828 138.171C74.5833 140.204 75.3703 142.328 76.2168 144C76.3897 144 82.0385 143.8 84.6124 143.421C85.1907 141.645 85.6915 139.439 86.0805 137.352C86.8466 133.288 86.8183 127.569 86.7169 123.632C89.5189 122.815 88.0375 123.319 90.8395 122.133C92.9529 125.409 96.0783 130.069 98.9728 132.843C100.508 134.317 102.211 135.668 103.718 136.73C106.183 135.336 108.552 133.766 110.796 132.017C110.534 130.116 109.962 128.022 109.388 125.935C108.298 121.956 105.784 116.927 103.987 113.498C106.105 111.36 105.015 112.554 106.972 110.086C110.264 111.905 115.049 114.436 118.809 115.417C120.855 115.952 122.966 116.374 124.793 116.542C126.337 114.112 127.731 111.559 128.947 108.896C127.875 107.315 126.447 105.625 125.002 104.035C122.31 101.077 117.91 97.91 114.829 95.7979C115.77 92.8339 115.327 94.4404 115.982 91.27C119.679 91.2047 125.002 91.0118 128.75 89.9732L128.75 89.9732Z" fill="white"/>
<path d="M178.563 130.294L170.147 105.986H163.985L155.599 130.294H161.025L162.751 124.532H171.412L173.135 130.294H178.563H178.563ZM164.017 120.229C165.708 114.652 166.729 111.159 167.088 109.746C167.176 110.143 167.319 110.685 167.519 111.369C167.722 112.052 168.618 115.007 170.209 120.229H164.017V120.229ZM191.287 111.782C191.092 111.739 190.645 111.669 189.946 111.575C189.245 111.481 188.64 111.432 188.135 111.432C185.738 111.432 183.896 111.988 182.607 113.091C181.317 114.194 180.672 115.754 180.672 117.776C180.672 119.035 180.951 120.128 181.508 121.055C182.069 121.984 182.821 122.657 183.778 123.077C183.018 123.528 182.438 123.99 182.037 124.456C181.638 124.927 181.435 125.516 181.435 126.22C181.435 126.785 181.626 127.318 182.005 127.818C182.385 128.32 182.829 128.682 183.338 128.905C182.015 129.224 181.015 129.758 180.331 130.51C179.65 131.26 179.308 132.195 179.308 133.307C179.308 134.928 179.976 136.19 181.314 137.091C182.654 137.99 184.589 138.442 187.124 138.442C190.442 138.442 192.985 137.845 194.757 136.652C196.527 135.461 197.414 133.781 197.414 131.62C197.414 129.93 196.891 128.65 195.846 127.778C194.798 126.905 193.278 126.469 191.287 126.469H188.197C186.377 126.469 185.468 126.105 185.468 125.376C185.468 124.892 185.722 124.45 186.231 124.054L186.963 124.134L187.856 124.186C190.271 124.186 192.162 123.631 193.52 122.521C194.88 121.411 195.562 119.864 195.562 117.878C195.562 116.849 195.302 115.922 194.779 115.093L197.626 114.348V111.782H191.287H191.287ZM184.516 131.181C185.13 130.742 185.89 130.527 186.802 130.527H189.369C190.613 130.527 191.534 130.659 192.129 130.924C192.728 131.189 193.025 131.668 193.025 132.365C193.025 133.226 192.523 133.904 191.512 134.4C190.506 134.897 189.112 135.146 187.337 135.146C186.155 135.146 185.237 134.948 184.583 134.549C183.927 134.153 183.598 133.607 183.598 132.911C183.598 132.195 183.905 131.617 184.516 131.181H184.516ZM188.135 114.498C189.932 114.498 190.831 115.613 190.831 117.842C190.831 118.848 190.613 119.641 190.18 120.229C189.746 120.812 189.065 121.106 188.135 121.106C187.214 121.106 186.527 120.812 186.076 120.229C185.628 119.641 185.401 118.848 185.401 117.842C185.401 115.613 186.313 114.498 188.135 114.498V114.498ZM210.017 116.045C210.634 116.726 210.953 117.687 210.976 118.935H204.02C204.106 117.687 204.447 116.726 205.044 116.045C205.641 115.368 206.465 115.027 207.516 115.027C208.567 115.027 209.399 115.368 210.017 116.045V116.045ZM211.821 130.303C212.809 130.088 213.733 129.758 214.6 129.318V125.408C213.541 125.918 212.521 126.289 211.546 126.518C210.57 126.75 209.536 126.866 208.44 126.866C207.03 126.866 205.939 126.463 205.157 125.66C204.379 124.854 203.96 123.732 203.906 122.297H215.626V119.845C215.626 117.219 214.912 115.162 213.479 113.672C212.049 112.178 210.051 111.433 207.48 111.433C204.796 111.433 202.692 112.281 201.168 113.974C199.645 115.672 198.885 118.068 198.885 121.17C198.885 124.186 199.708 126.515 201.355 128.159C203 129.804 205.287 130.627 208.215 130.627C209.634 130.627 210.835 130.518 211.821 130.303V130.303ZM236.077 118.223C236.077 116.026 235.53 114.346 234.435 113.18C233.339 112.017 231.737 111.433 229.622 111.433C228.387 111.433 227.287 111.665 226.316 112.12C225.345 112.582 224.586 113.255 224.032 114.149H223.756L223.091 111.782H219.303V130.294H224.26V121.583C224.26 119.4 224.57 117.836 225.187 116.89C225.805 115.945 226.805 115.475 228.194 115.475C229.211 115.475 229.955 115.81 230.42 116.478C230.886 117.145 231.12 118.145 231.12 119.483V130.294H236.077V118.223V118.223ZM251.198 130.326C252.018 130.13 252.828 129.769 253.629 129.253V124.931C252.815 125.482 252.006 125.889 251.192 126.148C250.377 126.404 249.494 126.538 248.54 126.538C245.96 126.538 244.673 124.725 244.673 121.106C244.673 117.374 245.96 115.506 248.54 115.506C249.213 115.506 249.883 115.61 250.558 115.813C251.229 116.02 251.953 116.281 252.736 116.6L254.198 112.694C252.53 111.855 250.643 111.433 248.54 111.433C245.67 111.433 243.467 112.265 241.929 113.926C240.389 115.587 239.62 117.991 239.62 121.138C239.62 127.462 242.447 130.627 248.101 130.627C249.348 130.627 250.381 130.527 251.198 130.326V130.326ZM262.939 130.162L262.649 131.072C262.278 132.174 261.768 133.002 261.112 133.548C260.458 134.093 259.689 134.368 258.811 134.368C258.109 134.368 257.456 134.297 256.861 134.153V138.161C257.684 138.348 258.526 138.442 259.38 138.442C261.126 138.442 262.652 137.961 263.956 137C265.263 136.038 266.266 134.593 266.97 132.662L274.659 111.782H269.344L265.978 122.2C265.634 123.202 265.4 124.272 265.282 125.408H265.184C265.077 124.174 264.874 123.103 264.583 122.2L261.154 111.782H255.724L262.939 130.162L262.939 130.162Z" fill="white"/>
<path d="M172.262 88.575H163.618V82.3344H171.662V78.1253H163.618V72.8093H172.262V68.6033H158.577V92.813H172.262V88.575V88.575ZM193.148 80.7446C193.148 78.5474 192.601 76.8665 191.505 75.6989C190.413 74.5358 188.808 73.9557 186.696 73.9557C185.459 73.9557 184.356 74.1835 183.388 74.6421C182.418 75.0991 181.655 75.7733 181.105 76.6707H180.826L180.162 74.3034H176.376V92.8129H181.33V84.1048C181.33 81.9183 181.64 80.3543 182.257 79.4083C182.874 78.4669 183.879 77.9916 185.265 77.9916C186.284 77.9916 187.025 78.3272 187.49 78.9968C187.957 79.6634 188.191 80.6671 188.191 82.0018V92.8129H193.148V80.7445V80.7446ZM206.745 92.813L213.668 74.3035H208.486L204.992 84.8504C204.557 86.3172 204.314 87.5821 204.26 88.6419H204.162C204.064 87.45 203.819 86.1851 203.43 84.8504L199.92 74.3035H194.735L201.658 92.813H206.745V92.813ZM218.525 72C219.424 72 220.099 71.7813 220.548 71.3455C220.998 70.9097 221.222 70.3009 221.222 69.5158C221.222 67.8714 220.324 67.0499 218.525 67.0499C216.726 67.0499 215.825 67.8714 215.825 69.5158C215.825 71.1709 216.726 72 218.525 72L218.525 72ZM220.994 74.3034H216.036V92.8159H220.994V74.3034ZM232.585 74.9062C231.626 75.5409 230.863 76.376 230.3 77.4146H230.055L229.324 74.3034H225.569V92.8129H230.528V83.3911C230.528 81.9015 230.969 80.7445 231.854 79.9154C232.734 79.0864 233.968 78.6734 235.551 78.6734C236.124 78.6734 236.612 78.728 237.014 78.8374L237.387 74.1029C236.941 74.0027 236.384 73.9556 235.713 73.9556C234.585 73.9556 233.544 74.27 232.585 74.9062V74.9062ZM244.988 79.3931C245.571 78.4836 246.523 78.0281 247.847 78.0281C249.179 78.0281 250.139 78.4866 250.725 79.4023C251.31 80.3179 251.601 81.692 251.601 83.5248C251.601 85.3696 251.31 86.756 250.731 87.6883C250.151 88.6236 249.201 89.0882 247.878 89.0882C246.546 89.0882 245.587 88.6206 244.995 87.6822C244.405 86.7423 244.109 85.356 244.109 83.5248C244.109 81.6829 244.402 80.3057 244.988 79.3931V79.3931ZM255.6 78.4411C254.885 76.9956 253.862 75.8871 252.53 75.1127C251.196 74.3414 249.658 73.9557 247.914 73.9557C245.106 73.9557 242.928 74.7939 241.38 76.4702C239.828 78.148 239.055 80.4986 239.055 83.5248C239.055 85.4683 239.414 87.169 240.126 88.6236C240.842 90.0813 241.867 91.2004 243.2 91.9778C244.532 92.7552 246.072 93.1455 247.815 93.1455C250.598 93.1455 252.773 92.2936 254.333 90.5945C255.892 88.8939 256.673 86.5403 256.673 83.5248C256.673 81.5827 256.315 79.8851 255.6 78.4411V78.4411ZM277.02 80.7445C277.02 78.5474 276.472 76.8665 275.378 75.6988C274.285 74.5357 272.68 73.9557 270.568 73.9557C269.331 73.9557 268.228 74.1834 267.26 74.642C266.291 75.0991 265.529 75.7732 264.978 76.6706H264.699L264.034 74.3034H260.247V92.8129H265.201V84.1047C265.201 81.9182 265.513 80.3542 266.13 79.4083C266.747 78.4668 267.75 77.9916 269.137 77.9916C270.154 77.9916 270.898 78.3272 271.363 78.9968C271.828 79.6634 272.063 80.667 272.063 82.0017V92.8129H277.02V80.7445L277.02 80.7445ZM297.766 83.5248C297.766 81.6055 298.067 80.2025 298.667 79.3172C299.27 78.435 300.179 77.9917 301.391 77.9917C302.334 77.9917 303.024 78.3272 303.464 78.9968C303.902 79.6634 304.122 80.6671 304.122 82.0018V92.8129H309.096V80.7445C309.096 78.3698 308.568 76.6448 307.51 75.5683C306.452 74.4932 304.896 73.9557 302.838 73.9557C301.647 73.9557 300.577 74.1895 299.627 74.6648C298.681 75.1416 297.963 75.8097 297.474 76.6706H297.034C296.073 74.8576 294.23 73.9557 291.51 73.9557C290.317 73.9557 289.26 74.1941 288.342 74.6739C287.419 75.1537 286.714 75.8188 286.227 76.6706H285.951L285.283 74.3034H281.496V92.8129H286.455V84.1048C286.455 81.9304 286.743 80.3664 287.316 79.4189C287.889 78.4699 288.81 77.9916 290.08 77.9916C291.023 77.9916 291.713 78.3272 292.153 78.9968C292.59 79.6634 292.809 80.6671 292.809 82.0017V92.8129H297.766V83.5247V83.5248ZM323.704 78.5641C324.321 79.2443 324.64 80.2085 324.662 81.4536H317.708C317.793 80.2085 318.136 79.2443 318.73 78.5641C319.328 77.8869 320.152 77.5483 321.203 77.5483C322.254 77.5483 323.087 77.8869 323.704 78.5641H323.704ZM325.509 92.8221C326.497 92.6065 327.421 92.277 328.287 91.8366V87.9297C327.227 88.4354 326.208 88.8074 325.233 89.0397C324.257 89.272 323.222 89.3874 322.127 89.3874C320.718 89.3874 319.626 88.985 318.843 88.1773C318.065 87.371 317.647 86.2519 317.594 84.817H329.314V82.3663C329.314 79.7379 328.598 77.6789 327.167 76.1893C325.737 74.6998 323.738 73.9558 321.172 73.9558C318.483 73.9558 316.378 74.8 314.855 76.4961C313.332 78.1891 312.572 80.5882 312.572 83.6888C312.572 86.7044 313.396 89.0321 315.041 90.6781C316.688 92.3225 318.975 93.1455 321.902 93.1455C323.321 93.1455 324.523 93.0392 325.509 92.8221V92.8221ZM349.765 80.7446C349.765 78.5474 349.217 76.8665 348.121 75.6989C347.026 74.5358 345.424 73.9558 343.31 73.9558C342.075 73.9558 340.973 74.1835 340.005 74.6421C339.033 75.0991 338.273 75.7733 337.718 76.6707H337.444L336.778 74.3035H332.989V92.8129H337.946V84.1048C337.946 81.9183 338.256 80.3543 338.873 79.4083C339.492 78.4669 340.495 77.9917 341.883 77.9917C342.898 77.9917 343.641 78.3272 344.108 78.9968C344.573 79.6634 344.807 80.6671 344.807 82.0018V92.8129H349.765V80.7445L349.765 80.7446ZM360.291 88.607C359.896 88.2653 359.699 87.7369 359.699 87.0172V78.0934H364.786V74.3035H359.699V70.3617H356.53L355.098 74.267L352.368 75.9571V78.0935H354.74V87.0172C354.74 89.0625 355.194 90.5946 356.1 91.6135C357.001 92.6353 358.446 93.1455 360.431 93.1455C362.228 93.1455 363.744 92.8646 364.98 92.2998V88.5432C363.767 88.9289 362.726 89.1202 361.86 89.1202C361.209 89.1202 360.687 88.9486 360.291 88.607V88.607Z" fill="white"/>
<path d="M172.262 51.0946H163.618V44.8539H171.662V40.6449H163.618V35.3304H172.262V31.1244H158.577V55.334H172.262V51.0946ZM192.872 55.334V36.823H187.915V45.5312C187.915 47.7192 187.608 49.2832 186.991 50.2246C186.374 51.1706 185.369 51.6413 183.983 51.6413C182.964 51.6413 182.223 51.3087 181.758 50.6406C181.293 49.9725 181.057 48.9704 181.057 47.6342V36.823H176.1V48.8929C176.1 51.0795 176.641 52.7527 177.725 53.9174C178.81 55.085 180.418 55.6651 182.552 55.6651C183.8 55.6651 184.91 55.4297 185.885 54.962C186.861 54.4913 187.614 53.8278 188.143 52.9668H188.402L189.07 55.3341H192.872L192.872 55.334ZM204.444 37.4274C203.484 38.0621 202.721 38.8972 202.157 39.9358H201.914L201.183 36.8231H197.428V55.334H202.385V45.9123C202.385 44.4227 202.827 43.2642 203.709 42.4351C204.593 41.6076 205.827 41.193 207.407 41.193C207.982 41.193 208.471 41.2492 208.873 41.3586L209.246 36.6226C208.799 36.5239 208.243 36.4753 207.572 36.4753C206.444 36.4753 205.401 36.7912 204.444 37.4274L204.444 37.4274ZM216.844 41.9128C217.43 41.0033 218.382 40.5493 219.706 40.5493C221.04 40.5493 221.998 41.0078 222.584 41.9219C223.17 42.839 223.462 44.2132 223.462 46.0444C223.462 47.8893 223.17 49.2771 222.59 50.2079C222.011 51.1433 221.062 51.6079 219.737 51.6079C218.405 51.6079 217.446 51.1402 216.853 50.2018C216.261 49.2635 215.966 47.8771 215.966 46.0444C215.966 44.2041 216.261 42.8254 216.844 41.9128V41.9128ZM227.459 40.9608C226.744 39.5167 225.721 38.4068 224.389 37.6339C223.055 36.8625 221.517 36.4753 219.773 36.4753C216.965 36.4753 214.786 37.3135 213.237 38.9914C211.687 40.6677 210.915 43.0197 210.915 46.0444C210.915 47.9895 211.273 49.6886 211.984 51.1432C212.701 52.6009 213.726 53.72 215.059 54.4974C216.391 55.2749 217.931 55.6651 219.674 55.6651C222.457 55.6651 224.632 54.8178 226.191 53.1142C227.751 51.4151 228.532 49.06 228.532 46.0444C228.532 44.1024 228.174 42.4063 227.459 40.9608V40.9608ZM245.79 54.5248C246.841 53.7625 247.65 52.6526 248.221 51.1949C248.787 49.7372 249.072 48.0229 249.072 46.0444C249.072 43.0425 248.467 40.6966 247.252 39.0066C246.04 37.3196 244.358 36.4754 242.214 36.4754C239.94 36.4754 238.223 37.391 237.062 39.2237H236.834L236.136 36.8231H232.103V63.4804H237.062V55.9809C237.062 55.7364 236.975 54.8436 236.803 53.2979H237.062C238.277 54.8755 239.949 55.6651 242.085 55.6651C243.504 55.6651 244.739 55.2855 245.79 54.5247V54.5248ZM243.197 41.8809C243.743 42.7905 244.019 44.157 244.019 45.9791C244.019 49.7114 242.909 51.576 240.685 51.576C239.43 51.576 238.512 51.1433 237.932 50.2823C237.353 49.4244 237.062 47.9986 237.062 46.0125V45.4644C237.084 43.7 237.378 42.4321 237.941 41.6638C238.502 40.897 239.397 40.5128 240.623 40.5128C241.791 40.5128 242.652 40.9714 243.196 41.8809L243.197 41.8809ZM262.928 41.0883C263.547 41.7655 263.866 42.7282 263.885 43.9733H256.929C257.014 42.7282 257.357 41.7655 257.955 41.0883C258.551 40.4065 259.374 40.0679 260.424 40.0679C261.475 40.0679 262.308 40.4065 262.928 41.0883H262.928ZM264.73 55.3432C265.718 55.1276 266.642 54.7981 267.51 54.3562V50.4509C266.449 50.9565 265.429 51.327 264.455 51.5593C263.48 51.7916 262.445 51.907 261.353 51.907C259.944 51.907 258.849 51.5062 258.07 50.6999C257.287 49.8921 256.87 48.773 256.816 47.3381H268.535V44.8874C268.535 42.2575 267.82 40.2016 266.389 38.7105C264.958 37.2209 262.961 36.4754 260.393 36.4754C257.706 36.4754 255.6 37.3196 254.078 39.0172C252.555 40.7103 251.795 43.1093 251.795 46.21C251.795 49.224 252.618 51.5533 254.264 53.1992C255.91 54.8437 258.199 55.6651 261.125 55.6651C262.542 55.6651 263.747 55.5588 264.73 55.3432H264.73ZM287.097 55.3341V43C287.097 40.7907 286.447 39.1463 285.146 38.0652C283.85 36.981 281.978 36.4389 279.541 36.4389C276.995 36.4389 274.674 36.9977 272.585 38.1138L274.224 41.5272C276.187 40.6298 277.894 40.1849 279.344 40.1849C281.231 40.1849 282.174 41.1233 282.174 43V43.8094L279.02 43.9096C276.302 44.0098 274.266 44.5245 272.917 45.4583C271.568 46.3891 270.895 47.8377 270.895 49.8056C270.895 51.6793 271.395 53.1279 272.399 54.1437C273.399 55.1595 274.773 55.6651 276.517 55.6651C277.938 55.6651 279.088 55.4602 279.97 55.0426C280.854 54.6311 281.712 53.8886 282.548 52.8181H282.678L283.638 55.3341H287.097L287.097 55.3341ZM282.174 48.2795C282.174 49.3956 281.829 50.2899 281.143 50.9641C280.453 51.6368 279.535 51.9723 278.389 51.9723C276.783 51.9723 275.982 51.2602 275.982 49.8374C275.982 48.8444 276.333 48.1049 277.035 47.619C277.742 47.1316 278.815 46.8674 280.256 46.8219L282.174 46.7581V48.2795H282.174ZM308.336 43.2642C308.336 41.0686 307.789 39.3877 306.693 38.22C305.601 37.0554 303.997 36.4754 301.885 36.4754C300.647 36.4754 299.545 36.7047 298.576 37.1617C297.608 37.6203 296.845 38.2944 296.295 39.1903H296.014L295.35 36.8231H291.564V55.3341H296.518V46.626C296.518 44.4379 296.828 42.874 297.447 41.9295C298.064 40.9866 299.067 40.5128 300.453 40.5128C301.472 40.5128 302.215 40.8484 302.68 41.5165C303.145 42.1831 303.379 43.1867 303.379 44.523V55.3341H308.336V43.2642V43.2642Z" fill="white"/>
</svg>
