<svg width="349" height="128" viewBox="0 0 349 128" fill="none" xmlns="http://www.w3.org/2000/svg">
<rect width="348.98" height="128" fill="white"/>
<path d="M88.1819 65.0559C88.1819 57.1343 85.3263 49.6865 80.1381 44.085C79.1186 42.9857 78.0321 41.9851 76.8904 41.0816L72.5876 48.8741C77.0857 52.7476 80.299 58.3597 80.299 65.0559C80.299 76.731 71.5368 86.1999 60.7222 86.1999C58.1914 86.1999 55.7799 85.6715 53.5607 84.727L49.5812 92.1672C53.045 93.8314 56.8217 94.7121 60.7222 94.7121C75.8635 94.7121 88.1819 81.4078 88.1819 65.0559L88.1819 65.0559Z" fill="#004B7F"/>
<path d="M80.4059 11.0282C80.3731 8.31632 80.1317 5.72742 79.6994 3.34047L79.5504 2.53116L78.984 3.08234C77.2835 4.73893 75.6306 6.67795 74.0701 8.84624C65.9592 20.1281 61.8277 35.2257 64.2467 44.7401L64.3197 45.0195L64.579 45.0742C65.0977 45.1835 65.5731 45.3126 66.0262 45.469C66.5613 45.6527 67.0859 45.8713 67.5957 46.1264L67.8371 46.2464L68.0428 46.0718C75.3802 39.8979 80.5788 25.1616 80.4059 11.0282L80.4059 11.0282Z" fill="#007B6C"/>
<path d="M53.2685 0.654434L52.8064 0L52.5248 0.763762C51.6767 3.06265 50.9866 5.59233 50.4769 8.27841C47.8165 22.2736 50.2936 37.7859 56.3582 45.1623L56.5385 45.3825L56.7949 45.3051C57.309 45.1593 57.786 45.0469 58.2555 44.9695C58.8099 44.8799 59.3733 44.8237 59.9307 44.8085L60.196 44.8009L60.3093 44.5474C64.3648 35.5067 62.9936 19.8063 57.0527 7.21555C55.9125 4.79519 54.6397 2.5859 53.2685 0.654478V0.654434Z" fill="#007B6C"/>
<path d="M33.6568 15.0243C31.6432 13.3981 29.5983 12.0269 27.5788 10.9473L26.8947 10.5829L26.9543 11.4013C27.1361 13.8688 27.5534 16.4653 28.1958 19.1195C31.5418 32.9401 40.1118 45.6705 48.5745 49.3952L48.8219 49.5014L49.0246 49.3116C49.4225 48.9335 49.8026 48.6086 50.1916 48.3156C50.6506 47.9694 51.1365 47.6505 51.6328 47.3696L51.8639 47.2375V46.9505C51.7998 36.9107 44.1419 23.4834 33.6568 15.0242L33.6568 15.0243Z" fill="#007B6C"/>
<path d="M12.6636 39.4728C21.323 50.2722 34.2197 57.6004 43.3352 56.8973L43.6004 56.8745L43.7048 56.6072C43.9045 56.0773 44.1161 55.6035 44.3442 55.1556C44.6139 54.6272 44.918 54.1078 45.2459 53.6204L45.4009 53.3911L45.2846 53.136C41.1159 44.1603 28.7528 35.7707 15.8829 33.1908C13.4147 32.6973 11.0211 32.4422 8.7631 32.4361H8L8.39049 33.1452C9.56495 35.2681 11.0017 37.4 12.6636 39.4727L12.6636 39.4728Z" fill="#007B6C"/>
<path d="M41.7022 66.1319L41.9348 65.983L41.9154 65.6991C41.8796 65.1251 41.8737 64.5998 41.896 64.0865C41.9213 63.4837 41.9824 62.8779 42.0763 62.2796L42.1211 62.0002L41.9124 61.8287C34.5005 55.7687 19.9762 54.15 7.37913 57.978C4.96016 58.7129 2.70961 59.6285 0.684108 60.7035L0 61.0649L0.639398 61.5159C2.55759 62.8612 4.72021 64.0835 7.06167 65.151C19.2474 70.7008 33.8179 71.1153 41.7023 66.1319H41.7022Z" fill="#007B6C"/>
<path d="M43.8361 75.3708L43.9807 75.1294L43.848 74.8803C43.5827 74.3838 43.3636 73.9162 43.1714 73.4454C42.9493 72.8912 42.754 72.3173 42.5945 71.7372L42.5185 71.4654L42.2622 71.4108C33.1318 69.5173 19.4436 75.0003 9.71111 84.4509C7.8436 86.2654 6.19667 88.1634 4.82249 90.0918L4.35449 90.7463L5.11461 90.8404C7.38752 91.1334 9.82885 91.1972 12.3641 91.0363C25.5648 90.1951 38.8014 83.6052 43.8361 75.3708L43.8361 75.3708Z" fill="#007B6C"/>
<path d="M48.2315 81.0692C47.8053 80.6774 47.3924 80.2553 47.0139 79.8104L46.8365 79.6009L46.5831 79.6783C37.6167 82.3371 27.5846 93.7919 22.7258 106.919C21.7943 109.439 21.0938 111.925 20.6511 114.312L20.4991 115.118L21.219 114.843C23.3771 114.019 25.5904 112.912 27.7992 111.557C39.2979 104.497 48.4731 92.2705 49.6162 82.4783L49.6505 82.1913L49.4254 82.0334C48.9858 81.7145 48.5923 81.3972 48.2316 81.0692L48.2315 81.0692Z" fill="#007B6C"/>
<path d="M112.75 73.9732C114.82 73.3992 116.925 72.6962 118.634 71.899C118.861 69.6518 118.844 63.8848 118.825 63.2395C117.175 62.374 115.263 61.463 113.272 60.7812C109.608 59.5331 104.346 58.9712 100.707 58.6691C100.251 55.5761 100.561 57.2175 99.758 54.0865C102.997 52.1566 107.608 49.2837 110.467 46.4656C112.054 44.9031 113.427 43.3179 114.592 41.7433C113.576 39.0117 112.395 36.3727 111.047 33.8475C109.207 33.9219 107.256 34.1451 105.194 34.5566C101.415 35.3128 96.5282 37.4857 93.1852 39.0618C91.4339 36.5625 92.4221 37.8562 90.3519 35.4965C92.3744 32.1499 95.1943 27.2743 96.4939 23.337C97.2123 21.1596 97.6401 19.2662 97.9844 17.2892C96.2868 15.751 94.5087 14.3161 92.6531 12.989L80.1007 36.4471C81.4525 37.5146 82.7447 38.6913 83.9505 39.9911C90.1492 46.6873 93.5653 55.5913 93.5653 65.0617C93.5653 74.5305 90.1492 83.436 83.9505 90.1308C77.7488 96.827 69.5082 100.517 60.7385 100.517C56.0913 100.517 51.5962 99.466 47.4677 97.492L34.8318 121.129C36.7634 122.175 38.7546 123.106 40.7995 123.917C42.0604 122.658 43.3109 121.226 44.542 119.617C46.9833 116.418 49.4425 111.351 51.0671 107.822C53.8944 108.522 52.3682 108.215 55.3565 108.587C55.8007 112.55 56.534 118.255 57.8828 122.171C58.5833 124.204 59.3703 126.328 60.2168 128C60.3897 128 66.0385 127.8 68.6125 127.421C69.1907 125.645 69.6915 123.439 70.0805 121.352C70.8466 117.288 70.8183 111.569 70.717 107.632C73.519 106.815 72.0375 107.319 74.8395 106.133C76.9529 109.409 80.0783 114.069 82.9728 116.843C84.5079 118.317 86.2115 119.668 87.7183 120.73C90.1835 119.336 92.5518 117.766 94.7964 116.017C94.5341 114.116 93.9617 112.022 93.3879 109.935C92.2984 105.956 89.7841 100.927 87.9866 97.4981C90.1045 95.3601 89.015 96.5536 90.972 94.0862C94.2643 95.9052 99.0486 98.4365 102.809 99.4173C104.855 99.9518 106.966 100.374 108.793 100.542C110.337 98.1115 111.731 95.559 112.947 92.8957C111.875 91.3151 110.447 89.6251 109.002 88.0353C106.31 85.0774 101.91 81.91 98.8295 79.7979C99.77 76.8339 99.3273 78.4404 99.9816 75.27C103.679 75.2047 109.002 75.0118 112.75 73.9732L112.75 73.9732Z" fill="#004B7F"/>
<path d="M162.563 114.294L154.147 89.9859H147.985L139.599 114.294H145.025L146.751 108.532H155.412L157.135 114.294H162.563H162.563ZM148.017 104.229C149.708 98.6515 150.729 95.1592 151.088 93.7455C151.176 94.1433 151.319 94.6854 151.519 95.3687C151.722 96.052 152.618 99.0068 154.209 104.229H148.017V104.229ZM175.287 95.7817C175.092 95.7392 174.645 95.6693 173.946 95.5752C173.245 95.4811 172.64 95.4325 172.135 95.4325C169.738 95.4325 167.896 95.9882 166.607 97.0906C165.317 98.1945 164.672 99.7539 164.672 101.776C164.672 103.035 164.951 104.128 165.508 105.055C166.069 105.984 166.821 106.657 167.778 107.077C167.018 107.528 166.438 107.99 166.037 108.456C165.638 108.927 165.435 109.516 165.435 110.22C165.435 110.785 165.626 111.318 166.005 111.818C166.385 112.32 166.829 112.682 167.338 112.905C166.015 113.224 165.015 113.758 164.331 114.51C163.65 115.26 163.308 116.195 163.308 117.307C163.308 118.928 163.976 120.19 165.314 121.091C166.654 121.99 168.589 122.442 171.124 122.442C174.442 122.442 176.985 121.845 178.757 120.652C180.527 119.461 181.414 117.781 181.414 115.62C181.414 113.93 180.891 112.65 179.846 111.778C178.798 110.905 177.278 110.469 175.287 110.469H172.197C170.377 110.469 169.468 110.105 169.468 109.376C169.468 108.892 169.722 108.45 170.231 108.054L170.963 108.134L171.856 108.186C174.271 108.186 176.162 107.631 177.52 106.521C178.88 105.411 179.562 103.864 179.562 101.878C179.562 100.849 179.302 99.9224 178.779 99.0934L181.626 98.3478V95.7817H175.287H175.287ZM168.516 115.181C169.13 114.742 169.89 114.527 170.802 114.527H173.369C174.613 114.527 175.534 114.659 176.129 114.924C176.728 115.189 177.025 115.668 177.025 116.365C177.025 117.226 176.523 117.904 175.512 118.4C174.506 118.897 173.112 119.146 171.337 119.146C170.155 119.146 169.237 118.948 168.583 118.549C167.927 118.153 167.598 117.607 167.598 116.911C167.598 116.195 167.905 115.617 168.516 115.181H168.516ZM172.135 98.4982C173.932 98.4982 174.831 99.6127 174.831 101.842C174.831 102.848 174.613 103.641 174.18 104.229C173.746 104.812 173.065 105.106 172.135 105.106C171.214 105.106 170.527 104.812 170.076 104.229C169.628 103.641 169.401 102.848 169.401 101.842C169.401 99.6127 170.313 98.4982 172.135 98.4982V98.4982ZM194.017 100.045C194.634 100.726 194.953 101.687 194.976 102.935H188.02C188.106 101.687 188.447 100.726 189.044 100.045C189.641 99.3682 190.465 99.0266 191.516 99.0266C192.567 99.0266 193.399 99.3682 194.017 100.045V100.045ZM195.821 114.303C196.809 114.088 197.733 113.758 198.6 113.318V109.408C197.541 109.918 196.521 110.289 195.546 110.518C194.57 110.75 193.536 110.866 192.44 110.866C191.03 110.866 189.939 110.463 189.157 109.66C188.379 108.854 187.96 107.732 187.906 106.297H199.626V103.845C199.626 101.219 198.912 99.1618 197.479 97.6722C196.049 96.1781 194.051 95.4325 191.48 95.4325C188.796 95.4325 186.692 96.2813 185.168 97.9744C183.645 99.672 182.885 102.068 182.885 105.17C182.885 108.186 183.708 110.515 185.355 112.159C187 113.804 189.287 114.627 192.215 114.627C193.634 114.627 194.835 114.518 195.821 114.303V114.303ZM220.077 102.223C220.077 100.026 219.53 98.3464 218.435 97.1802C217.339 96.0171 215.737 95.4325 213.622 95.4325C212.387 95.4325 211.287 95.6649 210.316 96.1204C209.345 96.582 208.586 97.2546 208.032 98.149H207.756L207.091 95.7818H203.303V114.294H208.26V105.583C208.26 103.4 208.57 101.836 209.187 100.89C209.805 99.9453 210.805 99.4745 212.194 99.4745C213.211 99.4745 213.955 99.8101 214.42 100.478C214.886 101.145 215.12 102.145 215.12 103.483V114.294H220.077V102.223V102.223ZM235.198 114.326C236.018 114.13 236.828 113.769 237.629 113.253V108.931C236.815 109.482 236.006 109.889 235.192 110.148C234.377 110.404 233.494 110.538 232.54 110.538C229.96 110.538 228.673 108.725 228.673 105.106C228.673 101.374 229.96 99.5064 232.54 99.5064C233.213 99.5064 233.883 99.6097 234.558 99.8132C235.229 100.02 235.953 100.281 236.736 100.6L238.198 96.6943C236.53 95.8546 234.643 95.4325 232.54 95.4325C229.67 95.4325 227.467 96.2646 225.929 97.9258C224.389 99.5869 223.62 101.991 223.62 105.138C223.62 111.462 226.447 114.627 232.101 114.627C233.348 114.627 234.381 114.527 235.198 114.326V114.326ZM246.939 114.162L246.649 115.072C246.278 116.174 245.768 117.002 245.112 117.548C244.458 118.093 243.689 118.368 242.811 118.368C242.109 118.368 241.456 118.297 240.861 118.153V122.161C241.684 122.348 242.526 122.442 243.38 122.442C245.126 122.442 246.652 121.961 247.956 121C249.263 120.038 250.266 118.593 250.97 116.662L258.659 95.7818H253.344L249.978 106.2C249.634 107.202 249.4 108.272 249.282 109.408H249.184C249.077 108.174 248.874 107.103 248.583 106.2L245.154 95.7818H239.724L246.939 114.162L246.939 114.162Z" fill="black"/>
<path d="M156.262 72.575H147.618V66.3343H155.662V62.1253H147.618V56.8093H156.262V52.6033H142.577V76.8129H156.262V72.575V72.575ZM177.148 64.7446C177.148 62.5474 176.601 60.8665 175.505 59.6989C174.413 58.5358 172.808 57.9557 170.696 57.9557C169.459 57.9557 168.356 58.1835 167.388 58.642C166.418 59.0991 165.655 59.7733 165.105 60.6706H164.826L164.162 58.3034H160.376V76.8129H165.33V68.1048C165.33 65.9182 165.64 64.3543 166.257 63.4083C166.874 62.4669 167.879 61.9916 169.265 61.9916C170.284 61.9916 171.025 62.3272 171.49 62.9968C171.957 63.6634 172.191 64.6671 172.191 66.0018V76.8129H177.148V64.7445V64.7446ZM190.745 76.8129L197.668 58.3035H192.486L188.992 68.8504C188.557 70.3172 188.314 71.582 188.26 72.6419H188.162C188.064 71.4499 187.819 70.1851 187.43 68.8504L183.92 58.3035H178.735L185.658 76.8129H190.745V76.8129ZM202.525 56C203.424 56 204.099 55.7813 204.548 55.3455C204.998 54.9097 205.222 54.3008 205.222 53.5158C205.222 51.8714 204.324 51.0499 202.525 51.0499C200.726 51.0499 199.825 51.8714 199.825 53.5158C199.825 55.1709 200.726 55.9999 202.525 55.9999L202.525 56ZM204.994 58.3034H200.036V76.8159H204.994V58.3034ZM216.585 58.9062C215.626 59.5409 214.863 60.376 214.3 61.4146H214.055L213.324 58.3034H209.569V76.8128H214.528V67.3911C214.528 65.9015 214.969 64.7445 215.854 63.9154C216.734 63.0864 217.968 62.6733 219.551 62.6733C220.124 62.6733 220.612 62.728 221.014 62.8373L221.387 58.1029C220.941 58.0027 220.384 57.9556 219.713 57.9556C218.585 57.9556 217.544 58.2699 216.585 58.9062V58.9062ZM228.988 63.3931C229.571 62.4836 230.523 62.0281 231.847 62.0281C233.179 62.0281 234.139 62.4866 234.725 63.4022C235.31 64.3178 235.601 65.692 235.601 67.5247C235.601 69.3696 235.31 70.7559 234.731 71.6882C234.151 72.6236 233.201 73.0882 231.878 73.0882C230.546 73.0882 229.587 72.6206 228.995 71.6822C228.405 70.7423 228.109 69.356 228.109 67.5247C228.109 65.6829 228.402 64.3057 228.988 63.3931V63.3931ZM239.6 62.4411C238.885 60.9956 237.862 59.8871 236.53 59.1127C235.196 58.3414 233.658 57.9557 231.914 57.9557C229.106 57.9557 226.928 58.7938 225.38 60.4702C223.828 62.148 223.055 64.4985 223.055 67.5247C223.055 69.4683 223.414 71.1689 224.126 72.6236C224.842 74.0813 225.867 75.2003 227.2 75.9778C228.532 76.7552 230.072 77.1454 231.815 77.1454C234.598 77.1454 236.773 76.2936 238.333 74.5945C239.892 72.8939 240.673 70.5403 240.673 67.5248C240.673 65.5827 240.315 63.8851 239.6 62.4411V62.4411ZM261.02 64.7445C261.02 62.5474 260.472 60.8665 259.378 59.6988C258.285 58.5357 256.68 57.9557 254.568 57.9557C253.331 57.9557 252.228 58.1834 251.26 58.642C250.291 59.099 249.529 59.7732 248.978 60.6706H248.699L248.034 58.3034H244.247V76.8128H249.201V68.1047C249.201 65.9182 249.513 64.3542 250.13 63.4083C250.747 62.4668 251.75 61.9916 253.137 61.9916C254.154 61.9916 254.898 62.3271 255.363 62.9968C255.828 63.6633 256.063 64.667 256.063 66.0017V76.8128H261.02V64.7445L261.02 64.7445ZM281.766 67.5247C281.766 65.6055 282.067 64.2024 282.667 63.3172C283.27 62.435 284.179 61.9916 285.391 61.9916C286.334 61.9916 287.024 62.3272 287.464 62.9968C287.902 63.6634 288.122 64.6671 288.122 66.0018V76.8129H293.096V64.7445C293.096 62.3697 292.568 60.6448 291.51 59.5682C290.452 58.4932 288.896 57.9557 286.838 57.9557C285.647 57.9557 284.577 58.1895 283.627 58.6648C282.681 59.1416 281.963 59.8097 281.474 60.6706H281.034C280.073 58.8576 278.23 57.9557 275.51 57.9557C274.317 57.9557 273.26 58.1941 272.342 58.6739C271.419 59.1537 270.714 59.8188 270.227 60.6706H269.951L269.283 58.3034H265.496V76.8129H270.455V68.1048C270.455 65.9304 270.743 64.3664 271.316 63.4189C271.889 62.4699 272.81 61.9916 274.08 61.9916C275.023 61.9916 275.713 62.3272 276.153 62.9968C276.59 63.6634 276.809 64.667 276.809 66.0017V76.8129H281.766V67.5247V67.5247ZM307.704 62.5641C308.321 63.2443 308.64 64.2085 308.662 65.4536H301.708C301.793 64.2085 302.136 63.2443 302.73 62.5641C303.328 61.8869 304.152 61.5483 305.203 61.5483C306.254 61.5483 307.087 61.8869 307.704 62.5641H307.704ZM309.509 76.8221C310.497 76.6065 311.421 76.277 312.287 75.8366V71.9297C311.227 72.4354 310.208 72.8074 309.233 73.0397C308.257 73.272 307.222 73.3874 306.127 73.3874C304.718 73.3874 303.626 72.985 302.843 72.1772C302.065 71.371 301.647 70.2519 301.594 68.817H313.314V66.3662C313.314 63.7379 312.598 61.6789 311.167 60.1893C309.737 58.6998 307.738 57.9557 305.172 57.9557C302.483 57.9557 300.378 58.8 298.855 60.496C297.332 62.1891 296.572 64.5882 296.572 67.6888C296.572 70.7044 297.396 73.0321 299.041 74.6781C300.688 76.3225 302.975 77.1455 305.902 77.1455C307.321 77.1455 308.523 77.0392 309.509 76.8221V76.8221ZM333.765 64.7446C333.765 62.5474 333.217 60.8665 332.121 59.6989C331.026 58.5358 329.424 57.9557 327.31 57.9557C326.075 57.9557 324.973 58.1835 324.005 58.6421C323.033 59.0991 322.273 59.7733 321.718 60.6707H321.444L320.778 58.3034H316.989V76.8129H321.946V68.1048C321.946 65.9183 322.256 64.3543 322.873 63.4083C323.492 62.4669 324.495 61.9916 325.883 61.9916C326.898 61.9916 327.641 62.3272 328.108 62.9968C328.573 63.6634 328.807 64.6671 328.807 66.0018V76.8129H333.765V64.7445L333.765 64.7446ZM344.291 72.6069C343.896 72.2653 343.699 71.7369 343.699 71.0172V62.0934H348.786V58.3035H343.699V54.3617H340.53L339.098 58.267L336.368 59.957V62.0934H338.74V71.0172C338.74 73.0625 339.194 74.5946 340.1 75.6134C341.001 76.6353 342.446 77.1455 344.431 77.1455C346.228 77.1455 347.744 76.8646 348.98 76.2998V72.5432C347.767 72.9289 346.726 73.1202 345.86 73.1202C345.209 73.1202 344.687 72.9486 344.291 72.607V72.6069Z" fill="black"/>
<path d="M156.262 35.0946H147.618V28.8539H155.662V24.6448H147.618V19.3304H156.262V15.1244H142.577V39.334H156.262V35.0946ZM176.872 39.334V20.823H171.915V29.5311C171.915 31.7192 171.608 33.2831 170.991 34.2246C170.374 35.1705 169.369 35.6412 167.983 35.6412C166.964 35.6412 166.223 35.3087 165.758 34.6406C165.293 33.9725 165.057 32.9704 165.057 31.6341V20.823H160.1V32.8929C160.1 35.0794 160.641 36.7527 161.725 37.9174C162.81 39.085 164.418 39.665 166.552 39.665C167.8 39.665 168.91 39.4297 169.885 38.962C170.861 38.4913 171.614 37.8278 172.143 36.9668H172.402L173.07 39.334H176.872L176.872 39.334ZM188.444 21.4274C187.484 22.0621 186.721 22.8972 186.157 23.9358H185.914L185.183 20.823H181.428V39.334H186.385V29.9123C186.385 28.4227 186.827 27.2641 187.709 26.4351C188.593 25.6076 189.827 25.193 191.407 25.193C191.982 25.193 192.471 25.2492 192.873 25.3585L193.246 20.6226C192.799 20.5239 192.243 20.4753 191.572 20.4753C190.444 20.4753 189.401 20.7911 188.444 21.4274L188.444 21.4274ZM200.844 25.9128C201.43 25.0033 202.382 24.5492 203.706 24.5492C205.04 24.5492 205.998 25.0078 206.584 25.9219C207.17 26.839 207.462 28.2132 207.462 30.0444C207.462 31.8893 207.17 33.2771 206.59 34.2079C206.011 35.1432 205.062 35.6079 203.737 35.6079C202.405 35.6079 201.446 35.1402 200.853 34.2018C200.261 33.2634 199.966 31.8771 199.966 30.0444C199.966 28.2041 200.261 26.8253 200.844 25.9128V25.9128ZM211.459 24.9607C210.744 23.5167 209.721 22.4068 208.389 21.6339C207.055 20.8625 205.517 20.4753 203.773 20.4753C200.965 20.4753 198.786 21.3135 197.237 22.9914C195.687 24.6677 194.915 27.0197 194.915 30.0444C194.915 31.9895 195.273 33.6886 195.984 35.1432C196.701 36.6009 197.726 37.72 199.059 38.4974C200.391 39.2748 201.931 39.6651 203.674 39.6651C206.457 39.6651 208.632 38.8178 210.191 37.1141C211.751 35.415 212.532 33.06 212.532 30.0444C212.532 28.1023 212.174 26.4063 211.459 24.9607V24.9607ZM229.79 38.5248C230.841 37.7625 231.65 36.6526 232.221 35.1949C232.787 33.7372 233.072 32.0229 233.072 30.0444C233.072 27.0425 232.467 24.6965 231.252 23.0065C230.04 21.3196 228.358 20.4753 226.214 20.4753C223.94 20.4753 222.223 21.391 221.062 23.2237H220.834L220.136 20.8231H216.103V47.4803H221.062V39.9809C221.062 39.7364 220.975 38.8436 220.803 37.2978H221.062C222.277 38.8755 223.949 39.6651 226.085 39.6651C227.504 39.6651 228.739 39.2855 229.79 38.5247V38.5248ZM227.197 25.8809C227.743 26.7904 228.019 28.157 228.019 29.9791C228.019 33.7114 226.909 35.576 224.685 35.576C223.43 35.576 222.512 35.1433 221.932 34.2823C221.353 33.4244 221.062 31.9986 221.062 30.0125V29.4644C221.084 27.7 221.378 26.4321 221.941 25.6638C222.502 24.897 223.397 24.5128 224.623 24.5128C225.791 24.5128 226.652 24.9714 227.196 25.8809L227.197 25.8809ZM246.928 25.0883C247.547 25.7655 247.866 26.7282 247.885 27.9733H240.929C241.014 26.7282 241.357 25.7655 241.955 25.0883C242.551 24.4065 243.374 24.0679 244.424 24.0679C245.475 24.0679 246.308 24.4065 246.928 25.0883H246.928ZM248.73 39.3432C249.718 39.1276 250.642 38.7981 251.51 38.3562V34.4509C250.449 34.9565 249.429 35.327 248.455 35.5593C247.48 35.7916 246.445 35.907 245.353 35.907C243.944 35.907 242.849 35.5062 242.07 34.6999C241.287 33.8921 240.87 32.773 240.816 31.3381H252.535V28.8874C252.535 26.2575 251.82 24.2016 250.389 22.7105C248.958 21.2209 246.961 20.4754 244.393 20.4754C241.706 20.4754 239.6 21.3196 238.078 23.0172C236.555 24.7102 235.795 27.1093 235.795 30.2099C235.795 33.224 236.618 35.5532 238.264 37.1992C239.91 38.8436 242.199 39.6651 245.125 39.6651C246.542 39.6651 247.747 39.5588 248.73 39.3432H248.73ZM271.097 39.3341V27C271.097 24.7907 270.447 23.1463 269.146 22.0652C267.85 20.981 265.978 20.4389 263.541 20.4389C260.995 20.4389 258.674 20.9977 256.585 22.1138L258.224 25.5272C260.187 24.6298 261.894 24.1849 263.344 24.1849C265.231 24.1849 266.174 25.1233 266.174 27V27.8093L263.02 27.9096C260.302 28.0098 258.266 28.5245 256.917 29.4583C255.568 30.3891 254.895 31.8377 254.895 33.8056C254.895 35.6793 255.395 37.1279 256.399 38.1437C257.399 39.1595 258.773 39.6651 260.517 39.6651C261.938 39.6651 263.088 39.4601 263.97 39.0426C264.854 38.6311 265.712 37.8886 266.548 36.8181H266.678L267.638 39.3341H271.097L271.097 39.3341ZM266.174 32.2795C266.174 33.3956 265.829 34.2899 265.143 34.9641C264.453 35.6367 263.535 35.9723 262.389 35.9723C260.783 35.9723 259.982 35.2602 259.982 33.8374C259.982 32.8444 260.333 32.1049 261.035 31.619C261.742 31.1316 262.815 30.8674 264.256 30.8219L266.174 30.7581V32.2795H266.174ZM292.336 27.2642C292.336 25.0686 291.789 23.3877 290.693 22.22C289.601 21.0554 287.997 20.4754 285.885 20.4754C284.647 20.4754 283.545 20.7046 282.576 21.1617C281.608 21.6203 280.845 22.2944 280.295 23.1903H280.014L279.35 20.8231H275.564V39.3341H280.518V30.626C280.518 28.4379 280.828 26.8739 281.447 25.9295C282.064 24.9866 283.067 24.5128 284.453 24.5128C285.472 24.5128 286.215 24.8484 286.68 25.5165C287.145 26.1831 287.379 27.1867 287.379 28.5229V39.3341H292.336V27.2642V27.2642Z" fill="black"/>
</svg>
