<svg width="349" height="129" viewBox="0 0 349 129" fill="none" xmlns="http://www.w3.org/2000/svg">
<path d="M88.1819 65.5559C88.1819 57.6343 85.3263 50.1865 80.1381 44.585C79.1186 43.4857 78.0321 42.4851 76.8904 41.5816L72.5876 49.3741C77.0857 53.2476 80.299 58.8597 80.299 65.5559C80.299 77.231 71.5368 86.6999 60.7222 86.6999C58.1914 86.6999 55.7799 86.1715 53.5607 85.227L49.5812 92.6672C53.045 94.3314 56.8217 95.2121 60.7222 95.2121C75.8635 95.2121 88.1819 81.9078 88.1819 65.5559L88.1819 65.5559Z" fill="white"/>
<path d="M80.4059 11.5282C80.3731 8.81632 80.1317 6.22742 79.6994 3.84047L79.5504 3.03116L78.984 3.58234C77.2835 5.23893 75.6306 7.17795 74.0701 9.34624C65.9592 20.6281 61.8277 35.7257 64.2467 45.2401L64.3197 45.5195L64.579 45.5742C65.0977 45.6835 65.5731 45.8126 66.0262 45.969C66.5613 46.1527 67.0859 46.3713 67.5957 46.6264L67.8371 46.7464L68.0428 46.5718C75.3802 40.3979 80.5788 25.6616 80.4059 11.5282L80.4059 11.5282Z" fill="white"/>
<path d="M53.2685 1.15443L52.8064 0.5L52.5248 1.26376C51.6767 3.56265 50.9866 6.09233 50.4769 8.77841C47.8165 22.7736 50.2936 38.2859 56.3582 45.6623L56.5385 45.8825L56.7949 45.8051C57.309 45.6593 57.786 45.5469 58.2555 45.4695C58.8099 45.3799 59.3733 45.3237 59.9307 45.3085L60.196 45.3009L60.3093 45.0474C64.3648 36.0067 62.9936 20.3063 57.0527 7.71555C55.9125 5.29519 54.6397 3.0859 53.2685 1.15448V1.15443Z" fill="white"/>
<path d="M33.6568 15.5243C31.6432 13.8981 29.5983 12.5269 27.5788 11.4473L26.8947 11.0829L26.9543 11.9013C27.1361 14.3688 27.5534 16.9653 28.1958 19.6195C31.5418 33.4401 40.1118 46.1705 48.5745 49.8952L48.8219 50.0014L49.0246 49.8116C49.4225 49.4335 49.8026 49.1086 50.1916 48.8156C50.6506 48.4694 51.1365 48.1505 51.6328 47.8696L51.8639 47.7375V47.4505C51.7998 37.4107 44.1419 23.9834 33.6568 15.5242L33.6568 15.5243Z" fill="white"/>
<path d="M12.6636 39.9728C21.323 50.7722 34.2197 58.1004 43.3352 57.3973L43.6004 57.3745L43.7048 57.1072C43.9045 56.5773 44.1161 56.1035 44.3442 55.6556C44.6139 55.1272 44.918 54.6078 45.2459 54.1204L45.4009 53.8911L45.2846 53.636C41.1159 44.6603 28.7528 36.2707 15.8829 33.6908C13.4147 33.1973 11.0211 32.9422 8.7631 32.9361H8L8.39049 33.6452C9.56495 35.7681 11.0017 37.9 12.6636 39.9727L12.6636 39.9728Z" fill="white"/>
<path d="M41.7022 66.6319L41.9348 66.483L41.9154 66.1991C41.8796 65.6251 41.8737 65.0998 41.896 64.5865C41.9213 63.9837 41.9824 63.3779 42.0763 62.7796L42.1211 62.5002L41.9124 62.3287C34.5005 56.2687 19.9762 54.65 7.37913 58.478C4.96016 59.2129 2.70961 60.1285 0.684108 61.2035L0 61.5649L0.639398 62.0159C2.55759 63.3612 4.72021 64.5835 7.06167 65.651C19.2474 71.2008 33.8178 71.6153 41.7022 66.6319Z" fill="white"/>
<path d="M43.8361 75.8708L43.9807 75.6294L43.848 75.3803C43.5827 74.8838 43.3636 74.4162 43.1714 73.9454C42.9493 73.3912 42.754 72.8173 42.5945 72.2372L42.5185 71.9654L42.2622 71.9108C33.1318 70.0173 19.4436 75.5003 9.71111 84.9509C7.8436 86.7654 6.19667 88.6634 4.82249 90.5918L4.35449 91.2463L5.11461 91.3404C7.38752 91.6334 9.82885 91.6972 12.3641 91.5363C25.5648 90.6951 38.8014 84.1052 43.8361 75.8708L43.8361 75.8708Z" fill="white"/>
<path d="M48.2315 81.5692C47.8053 81.1775 47.3924 80.7553 47.0139 80.3104L46.8365 80.1009L46.5831 80.1783C37.6167 82.8371 27.5846 94.292 22.7258 107.419C21.7943 109.939 21.0938 112.425 20.6511 114.812L20.4991 115.618L21.219 115.343C23.3771 114.519 25.5904 113.412 27.7992 112.058C39.2979 104.997 48.4731 92.7705 49.6162 82.9783L49.6505 82.6913L49.4254 82.5334C48.9858 82.2145 48.5923 81.8972 48.2316 81.5692L48.2315 81.5692Z" fill="white"/>
<path d="M112.75 74.4732C114.82 73.8992 116.925 73.1962 118.634 72.399C118.861 70.1518 118.844 64.3848 118.825 63.7395C117.175 62.874 115.263 61.963 113.272 61.2812C109.608 60.0331 104.346 59.4712 100.707 59.1691C100.251 56.0761 100.561 57.7175 99.758 54.5865C102.997 52.6566 107.608 49.7837 110.467 46.9656C112.054 45.4031 113.427 43.8179 114.592 42.2433C113.576 39.5117 112.395 36.8727 111.047 34.3475C109.207 34.4219 107.256 34.6451 105.194 35.0566C101.415 35.8128 96.5282 37.9857 93.1852 39.5618C91.4339 37.0625 92.4221 38.3562 90.3519 35.9965C92.3744 32.6499 95.1943 27.7743 96.4939 23.837C97.2123 21.6596 97.6401 19.7662 97.9844 17.7892C96.2868 16.251 94.5087 14.8161 92.6531 13.489L80.1007 36.9471C81.4525 38.0146 82.7447 39.1913 83.9505 40.4911C90.1492 47.1873 93.5653 56.0913 93.5653 65.5617C93.5653 75.0305 90.1492 83.936 83.9505 90.6308C77.7488 97.327 69.5082 101.017 60.7385 101.017C56.0913 101.017 51.5962 99.966 47.4677 97.992L34.8318 121.629C36.7634 122.675 38.7546 123.606 40.7995 124.417C42.0604 123.158 43.3109 121.726 44.542 120.117C46.9833 116.918 49.4425 111.851 51.0671 108.322C53.8944 109.022 52.3682 108.715 55.3565 109.087C55.8007 113.05 56.534 118.755 57.8828 122.671C58.5833 124.704 59.3703 126.828 60.2168 128.5C60.3897 128.5 66.0385 128.3 68.6125 127.921C69.1907 126.145 69.6915 123.939 70.0805 121.852C70.8466 117.788 70.8183 112.069 70.717 108.132C73.519 107.315 72.0375 107.819 74.8395 106.633C76.9529 109.909 80.0783 114.569 82.9728 117.343C84.5079 118.817 86.2115 120.168 87.7183 121.23C90.1835 119.836 92.5518 118.266 94.7964 116.517C94.5341 114.616 93.9617 112.522 93.3879 110.435C92.2984 106.456 89.7841 101.427 87.9866 97.9981C90.1045 95.8601 89.015 97.0536 90.972 94.5862C94.2643 96.4052 99.0486 98.9365 102.809 99.9173C104.855 100.452 106.966 100.874 108.793 101.042C110.337 98.6115 111.731 96.059 112.947 93.3957C111.875 91.8151 110.447 90.1251 109.002 88.5353C106.31 85.5774 101.91 82.41 98.8295 80.2979C99.77 77.3339 99.3273 78.9404 99.9816 75.77C103.679 75.7047 109.002 75.5118 112.75 74.4732L112.75 74.4732Z" fill="white"/>
<path d="M162.563 114.794L154.147 90.4859H147.985L139.599 114.794H145.025L146.751 109.032H155.412L157.135 114.794H162.563H162.563ZM148.017 104.729C149.708 99.1515 150.729 95.6592 151.088 94.2455C151.176 94.6433 151.319 95.1854 151.519 95.8687C151.722 96.552 152.618 99.5068 154.209 104.729H148.017V104.729ZM175.287 96.2817C175.092 96.2392 174.645 96.1693 173.946 96.0752C173.245 95.9811 172.64 95.9325 172.135 95.9325C169.738 95.9325 167.896 96.4882 166.607 97.5906C165.317 98.6945 164.672 100.254 164.672 102.276C164.672 103.535 164.951 104.628 165.508 105.555C166.069 106.484 166.821 107.157 167.778 107.577C167.018 108.028 166.438 108.49 166.037 108.956C165.638 109.427 165.435 110.016 165.435 110.72C165.435 111.285 165.626 111.818 166.005 112.318C166.385 112.82 166.829 113.182 167.338 113.405C166.015 113.724 165.015 114.258 164.331 115.01C163.65 115.76 163.308 116.695 163.308 117.807C163.308 119.428 163.976 120.69 165.314 121.591C166.654 122.49 168.589 122.942 171.124 122.942C174.442 122.942 176.985 122.345 178.757 121.152C180.527 119.961 181.414 118.281 181.414 116.12C181.414 114.43 180.891 113.15 179.846 112.278C178.798 111.405 177.278 110.969 175.287 110.969H172.197C170.377 110.969 169.468 110.605 169.468 109.876C169.468 109.392 169.722 108.95 170.231 108.554L170.963 108.634L171.856 108.686C174.271 108.686 176.162 108.131 177.52 107.021C178.88 105.911 179.562 104.364 179.562 102.378C179.562 101.349 179.302 100.422 178.779 99.5934L181.626 98.8478V96.2817H175.287H175.287ZM168.516 115.681C169.13 115.242 169.89 115.027 170.802 115.027H173.369C174.613 115.027 175.534 115.159 176.129 115.424C176.728 115.689 177.025 116.168 177.025 116.865C177.025 117.726 176.523 118.404 175.512 118.9C174.506 119.397 173.112 119.646 171.337 119.646C170.155 119.646 169.237 119.448 168.583 119.049C167.927 118.653 167.598 118.107 167.598 117.411C167.598 116.695 167.905 116.117 168.516 115.681H168.516ZM172.135 98.9982C173.932 98.9982 174.831 100.113 174.831 102.342C174.831 103.348 174.613 104.141 174.18 104.729C173.746 105.312 173.065 105.606 172.135 105.606C171.214 105.606 170.527 105.312 170.076 104.729C169.628 104.141 169.401 103.348 169.401 102.342C169.401 100.113 170.313 98.9982 172.135 98.9982V98.9982ZM194.017 100.545C194.634 101.226 194.953 102.187 194.976 103.435H188.02C188.106 102.187 188.447 101.226 189.044 100.545C189.641 99.8682 190.465 99.5266 191.516 99.5266C192.567 99.5266 193.399 99.8682 194.017 100.545V100.545ZM195.821 114.803C196.809 114.588 197.733 114.258 198.6 113.818V109.908C197.541 110.418 196.521 110.789 195.546 111.018C194.57 111.25 193.536 111.366 192.44 111.366C191.03 111.366 189.939 110.963 189.157 110.16C188.379 109.354 187.96 108.232 187.906 106.797H199.626V104.345C199.626 101.719 198.912 99.6618 197.479 98.1722C196.049 96.6781 194.051 95.9325 191.48 95.9325C188.796 95.9325 186.692 96.7813 185.168 98.4744C183.645 100.172 182.885 102.568 182.885 105.67C182.885 108.686 183.708 111.015 185.355 112.659C187 114.304 189.287 115.127 192.215 115.127C193.634 115.127 194.835 115.018 195.821 114.803V114.803ZM220.077 102.723C220.077 100.526 219.53 98.8464 218.435 97.6802C217.339 96.5171 215.737 95.9325 213.622 95.9325C212.387 95.9325 211.287 96.1649 210.316 96.6204C209.345 97.082 208.586 97.7546 208.032 98.649H207.756L207.091 96.2818H203.303V114.794H208.26V106.083C208.26 103.9 208.57 102.336 209.187 101.39C209.805 100.445 210.805 99.9745 212.194 99.9745C213.211 99.9745 213.955 100.31 214.42 100.978C214.886 101.645 215.12 102.645 215.12 103.983V114.794H220.077V102.723V102.723ZM235.198 114.826C236.018 114.63 236.828 114.269 237.629 113.753V109.431C236.815 109.982 236.006 110.389 235.192 110.648C234.377 110.904 233.494 111.038 232.54 111.038C229.96 111.038 228.673 109.225 228.673 105.606C228.673 101.874 229.96 100.006 232.54 100.006C233.213 100.006 233.883 100.11 234.558 100.313C235.229 100.52 235.953 100.781 236.736 101.1L238.198 97.1943C236.53 96.3546 234.643 95.9325 232.54 95.9325C229.67 95.9325 227.467 96.7646 225.929 98.4258C224.389 100.087 223.62 102.491 223.62 105.638C223.62 111.962 226.447 115.127 232.101 115.127C233.348 115.127 234.381 115.027 235.198 114.826V114.826ZM246.939 114.662L246.649 115.572C246.278 116.674 245.768 117.502 245.112 118.048C244.458 118.593 243.689 118.868 242.811 118.868C242.109 118.868 241.456 118.797 240.861 118.653V122.661C241.684 122.848 242.526 122.942 243.38 122.942C245.126 122.942 246.652 122.461 247.956 121.5C249.263 120.538 250.266 119.093 250.97 117.162L258.659 96.2818H253.344L249.978 106.7C249.634 107.702 249.4 108.772 249.282 109.908H249.184C249.077 108.674 248.874 107.603 248.583 106.7L245.154 96.2818H239.724L246.939 114.662L246.939 114.662Z" fill="white"/>
<path d="M156.262 73.075H147.618V66.8343H155.662V62.6253H147.618V57.3093H156.262V53.1033H142.577V77.3129H156.262V73.075V73.075ZM177.148 65.2446C177.148 63.0474 176.601 61.3665 175.505 60.1989C174.413 59.0358 172.808 58.4557 170.696 58.4557C169.459 58.4557 168.356 58.6835 167.388 59.142C166.418 59.5991 165.655 60.2733 165.105 61.1706H164.826L164.162 58.8034H160.376V77.3129H165.33V68.6048C165.33 66.4182 165.64 64.8543 166.257 63.9083C166.874 62.9669 167.879 62.4916 169.265 62.4916C170.284 62.4916 171.025 62.8272 171.49 63.4968C171.957 64.1634 172.191 65.1671 172.191 66.5018V77.3129H177.148V65.2445V65.2446ZM190.745 77.3129L197.668 58.8035H192.486L188.992 69.3504C188.557 70.8172 188.314 72.082 188.26 73.1419H188.162C188.064 71.9499 187.819 70.6851 187.43 69.3504L183.92 58.8035H178.735L185.658 77.3129H190.745V77.3129ZM202.525 56.5C203.424 56.5 204.099 56.2813 204.548 55.8455C204.998 55.4097 205.222 54.8008 205.222 54.0158C205.222 52.3714 204.324 51.5499 202.525 51.5499C200.726 51.5499 199.825 52.3714 199.825 54.0158C199.825 55.6709 200.726 56.4999 202.525 56.4999L202.525 56.5ZM204.994 58.8034H200.036V77.3159H204.994V58.8034ZM216.585 59.4062C215.626 60.0409 214.863 60.876 214.3 61.9146H214.055L213.324 58.8034H209.569V77.3128H214.528V67.8911C214.528 66.4015 214.969 65.2445 215.854 64.4154C216.734 63.5864 217.968 63.1733 219.551 63.1733C220.124 63.1733 220.612 63.228 221.014 63.3373L221.387 58.6029C220.941 58.5027 220.384 58.4556 219.713 58.4556C218.585 58.4556 217.544 58.7699 216.585 59.4062V59.4062ZM228.988 63.8931C229.571 62.9836 230.523 62.5281 231.847 62.5281C233.179 62.5281 234.139 62.9866 234.725 63.9022C235.31 64.8178 235.601 66.192 235.601 68.0247C235.601 69.8696 235.31 71.2559 234.731 72.1882C234.151 73.1236 233.201 73.5882 231.878 73.5882C230.546 73.5882 229.587 73.1206 228.995 72.1822C228.405 71.2423 228.109 69.856 228.109 68.0247C228.109 66.1829 228.402 64.8057 228.988 63.8931V63.8931ZM239.6 62.9411C238.885 61.4956 237.862 60.3871 236.53 59.6127C235.196 58.8414 233.658 58.4557 231.914 58.4557C229.106 58.4557 226.928 59.2938 225.38 60.9702C223.828 62.648 223.055 64.9985 223.055 68.0247C223.055 69.9683 223.414 71.6689 224.126 73.1236C224.842 74.5813 225.867 75.7003 227.2 76.4778C228.532 77.2552 230.072 77.6454 231.815 77.6454C234.598 77.6454 236.773 76.7936 238.333 75.0945C239.892 73.3939 240.673 71.0403 240.673 68.0248C240.673 66.0827 240.315 64.3851 239.6 62.9411V62.9411ZM261.02 65.2445C261.02 63.0474 260.472 61.3665 259.378 60.1988C258.285 59.0357 256.68 58.4557 254.568 58.4557C253.331 58.4557 252.228 58.6834 251.26 59.142C250.291 59.599 249.529 60.2732 248.978 61.1706H248.699L248.034 58.8034H244.247V77.3128H249.201V68.6047C249.201 66.4182 249.513 64.8542 250.13 63.9083C250.747 62.9668 251.75 62.4916 253.137 62.4916C254.154 62.4916 254.898 62.8271 255.363 63.4968C255.828 64.1633 256.063 65.167 256.063 66.5017V77.3128H261.02V65.2445L261.02 65.2445ZM281.766 68.0247C281.766 66.1055 282.067 64.7024 282.667 63.8172C283.27 62.935 284.179 62.4916 285.391 62.4916C286.334 62.4916 287.024 62.8272 287.464 63.4968C287.902 64.1634 288.122 65.1671 288.122 66.5018V77.3129H293.096V65.2445C293.096 62.8697 292.568 61.1448 291.51 60.0682C290.452 58.9932 288.896 58.4557 286.838 58.4557C285.647 58.4557 284.577 58.6895 283.627 59.1648C282.681 59.6416 281.963 60.3097 281.474 61.1706H281.034C280.073 59.3576 278.23 58.4557 275.51 58.4557C274.317 58.4557 273.26 58.6941 272.342 59.1739C271.419 59.6537 270.714 60.3188 270.227 61.1706H269.951L269.283 58.8034H265.496V77.3129H270.455V68.6048C270.455 66.4304 270.743 64.8664 271.316 63.9189C271.889 62.9699 272.81 62.4916 274.08 62.4916C275.023 62.4916 275.713 62.8272 276.153 63.4968C276.59 64.1634 276.809 65.167 276.809 66.5017V77.3129H281.766V68.0247V68.0247ZM307.704 63.0641C308.321 63.7443 308.64 64.7085 308.662 65.9536H301.708C301.793 64.7085 302.136 63.7443 302.73 63.0641C303.328 62.3869 304.152 62.0483 305.203 62.0483C306.254 62.0483 307.087 62.3869 307.704 63.0641H307.704ZM309.509 77.3221C310.497 77.1065 311.421 76.777 312.287 76.3366V72.4297C311.227 72.9354 310.208 73.3074 309.233 73.5397C308.257 73.772 307.222 73.8874 306.127 73.8874C304.718 73.8874 303.626 73.485 302.843 72.6772C302.065 71.871 301.647 70.7519 301.594 69.317H313.314V66.8662C313.314 64.2379 312.598 62.1789 311.167 60.6893C309.737 59.1998 307.738 58.4557 305.172 58.4557C302.483 58.4557 300.378 59.3 298.855 60.996C297.332 62.6891 296.572 65.0882 296.572 68.1888C296.572 71.2044 297.396 73.5321 299.041 75.1781C300.688 76.8225 302.975 77.6455 305.902 77.6455C307.321 77.6455 308.523 77.5392 309.509 77.3221V77.3221ZM333.765 65.2446C333.765 63.0474 333.217 61.3665 332.121 60.1989C331.026 59.0358 329.424 58.4557 327.31 58.4557C326.075 58.4557 324.973 58.6835 324.005 59.1421C323.033 59.5991 322.273 60.2733 321.718 61.1707H321.444L320.778 58.8034H316.989V77.3129H321.946V68.6048C321.946 66.4183 322.256 64.8543 322.873 63.9083C323.492 62.9669 324.495 62.4916 325.883 62.4916C326.898 62.4916 327.641 62.8272 328.108 63.4968C328.573 64.1634 328.807 65.1671 328.807 66.5018V77.3129H333.765V65.2445L333.765 65.2446ZM344.291 73.1069C343.896 72.7653 343.699 72.2369 343.699 71.5172V62.5934H348.786V58.8035H343.699V54.8617H340.53L339.098 58.767L336.368 60.457V62.5934H338.74V71.5172C338.74 73.5625 339.194 75.0946 340.1 76.1134C341.001 77.1353 342.446 77.6455 344.431 77.6455C346.228 77.6455 347.744 77.3646 348.98 76.7998V73.0432C347.767 73.4289 346.726 73.6202 345.86 73.6202C345.209 73.6202 344.687 73.4486 344.291 73.107V73.1069Z" fill="white"/>
<path d="M156.262 35.5946H147.618V29.3539H155.662V25.1448H147.618V19.8304H156.262V15.6244H142.577V39.834H156.262V35.5946ZM176.872 39.834V21.323H171.915V30.0311C171.915 32.2192 171.608 33.7831 170.991 34.7246C170.374 35.6705 169.369 36.1412 167.983 36.1412C166.964 36.1412 166.223 35.8087 165.758 35.1406C165.293 34.4725 165.057 33.4704 165.057 32.1341V21.323H160.1V33.3929C160.1 35.5794 160.641 37.2527 161.725 38.4174C162.81 39.585 164.418 40.165 166.552 40.165C167.8 40.165 168.91 39.9297 169.885 39.462C170.861 38.9913 171.614 38.3278 172.143 37.4668H172.402L173.07 39.834H176.872L176.872 39.834ZM188.444 21.9274C187.484 22.5621 186.721 23.3972 186.157 24.4358H185.914L185.183 21.323H181.428V39.834H186.385V30.4123C186.385 28.9227 186.827 27.7641 187.709 26.9351C188.593 26.1076 189.827 25.693 191.407 25.693C191.982 25.693 192.471 25.7492 192.873 25.8585L193.246 21.1226C192.799 21.0239 192.243 20.9753 191.572 20.9753C190.444 20.9753 189.401 21.2911 188.444 21.9274L188.444 21.9274ZM200.844 26.4128C201.43 25.5033 202.382 25.0492 203.706 25.0492C205.04 25.0492 205.998 25.5078 206.584 26.4219C207.17 27.339 207.462 28.7132 207.462 30.5444C207.462 32.3893 207.17 33.7771 206.59 34.7079C206.011 35.6432 205.062 36.1079 203.737 36.1079C202.405 36.1079 201.446 35.6402 200.853 34.7018C200.261 33.7634 199.966 32.3771 199.966 30.5444C199.966 28.7041 200.261 27.3253 200.844 26.4128V26.4128ZM211.459 25.4607C210.744 24.0167 209.721 22.9068 208.389 22.1339C207.055 21.3625 205.517 20.9753 203.773 20.9753C200.965 20.9753 198.786 21.8135 197.237 23.4914C195.687 25.1677 194.915 27.5197 194.915 30.5444C194.915 32.4895 195.273 34.1886 195.984 35.6432C196.701 37.1009 197.726 38.22 199.059 38.9974C200.391 39.7748 201.931 40.1651 203.674 40.1651C206.457 40.1651 208.632 39.3178 210.191 37.6141C211.751 35.915 212.532 33.56 212.532 30.5444C212.532 28.6023 212.174 26.9063 211.459 25.4607V25.4607ZM229.79 39.0248C230.841 38.2625 231.65 37.1526 232.221 35.6949C232.787 34.2372 233.072 32.5229 233.072 30.5444C233.072 27.5425 232.467 25.1965 231.252 23.5065C230.04 21.8196 228.358 20.9753 226.214 20.9753C223.94 20.9753 222.223 21.891 221.062 23.7237H220.834L220.136 21.3231H216.103V47.9803H221.062V40.4809C221.062 40.2364 220.975 39.3436 220.803 37.7978H221.062C222.277 39.3755 223.949 40.1651 226.085 40.1651C227.504 40.1651 228.739 39.7855 229.79 39.0247V39.0248ZM227.197 26.3809C227.743 27.2904 228.019 28.657 228.019 30.4791C228.019 34.2114 226.909 36.076 224.685 36.076C223.43 36.076 222.512 35.6433 221.932 34.7823C221.353 33.9244 221.062 32.4986 221.062 30.5125V29.9644C221.084 28.2 221.378 26.9321 221.941 26.1638C222.502 25.397 223.397 25.0128 224.623 25.0128C225.791 25.0128 226.652 25.4714 227.196 26.3809L227.197 26.3809ZM246.928 25.5883C247.547 26.2655 247.866 27.2282 247.885 28.4733H240.929C241.014 27.2282 241.357 26.2655 241.955 25.5883C242.551 24.9065 243.374 24.5679 244.424 24.5679C245.475 24.5679 246.308 24.9065 246.928 25.5883H246.928ZM248.73 39.8432C249.718 39.6276 250.642 39.2981 251.51 38.8562V34.9509C250.449 35.4565 249.429 35.827 248.455 36.0593C247.48 36.2916 246.445 36.407 245.353 36.407C243.944 36.407 242.849 36.0062 242.07 35.1999C241.287 34.3921 240.87 33.273 240.816 31.8381H252.535V29.3874C252.535 26.7575 251.82 24.7016 250.389 23.2105C248.958 21.7209 246.961 20.9754 244.393 20.9754C241.706 20.9754 239.6 21.8196 238.078 23.5172C236.555 25.2102 235.795 27.6093 235.795 30.7099C235.795 33.724 236.618 36.0532 238.264 37.6992C239.91 39.3436 242.199 40.1651 245.125 40.1651C246.542 40.1651 247.747 40.0588 248.73 39.8432H248.73ZM271.097 39.8341V27.5C271.097 25.2907 270.447 23.6463 269.146 22.5652C267.85 21.481 265.978 20.9389 263.541 20.9389C260.995 20.9389 258.674 21.4977 256.585 22.6138L258.224 26.0272C260.187 25.1298 261.894 24.6849 263.344 24.6849C265.231 24.6849 266.174 25.6233 266.174 27.5V28.3093L263.02 28.4096C260.302 28.5098 258.266 29.0245 256.917 29.9583C255.568 30.8891 254.895 32.3377 254.895 34.3056C254.895 36.1793 255.395 37.6279 256.399 38.6437C257.399 39.6595 258.773 40.1651 260.517 40.1651C261.938 40.1651 263.088 39.9601 263.97 39.5426C264.854 39.1311 265.712 38.3886 266.548 37.3181H266.678L267.638 39.8341H271.097L271.097 39.8341ZM266.174 32.7795C266.174 33.8956 265.829 34.7899 265.143 35.4641C264.453 36.1367 263.535 36.4723 262.389 36.4723C260.783 36.4723 259.982 35.7602 259.982 34.3374C259.982 33.3444 260.333 32.6049 261.035 32.119C261.742 31.6316 262.815 31.3674 264.256 31.3219L266.174 31.2581V32.7795H266.174ZM292.336 27.7642C292.336 25.5686 291.789 23.8877 290.693 22.72C289.601 21.5554 287.997 20.9754 285.885 20.9754C284.647 20.9754 283.545 21.2046 282.576 21.6617C281.608 22.1203 280.845 22.7944 280.295 23.6903H280.014L279.35 21.3231H275.564V39.8341H280.518V31.126C280.518 28.9379 280.828 27.3739 281.447 26.4295C282.064 25.4866 283.067 25.0128 284.453 25.0128C285.472 25.0128 286.215 25.3484 286.68 26.0165C287.145 26.6831 287.379 27.6867 287.379 29.0229V39.8341H292.336V27.7642V27.7642Z" fill="white"/>
</svg>
