<svg width="414" height="124" viewBox="0 0 414 124" fill="none" xmlns="http://www.w3.org/2000/svg">
<g clip-path="url(#clip0_2218_22799)">
<path d="M36.6333 104.886L34.6244 98.6623L32.6156 104.886H26.0414L31.3373 108.606L29.365 115.014L34.6244 111L39.9204 115.051L37.9116 108.753L42.9884 104.886H36.6333Z" fill="white"/>
<path d="M62.8939 111.847L60.8851 105.77L58.8762 111.847L52.3385 112.031L57.6344 115.714L55.6256 121.938L60.8851 118.071L66.181 122.122L64.1722 115.824L69.2125 111.847H62.8939Z" fill="white"/>
<path d="M89.0082 104.886L87.1821 98.6623L85.0272 104.886H78.599L83.7488 108.606L81.74 114.977L87.1455 111L92.5145 115.051L90.2866 108.753L95.3634 104.886H89.0082Z" fill="white"/>
<path d="M17.4218 85.5147L15.5956 79.438L13.4042 85.5147H7.04907L12.1259 89.3448L10.1536 95.5687L15.5591 91.7386L20.8916 95.8265L18.6636 89.4921L23.7404 85.5147H17.4218Z" fill="white"/>
<path d="M8.51002 65.2593L13.8425 69.3472L11.6511 63.0128L16.6913 59.0354H10.3727L8.54655 52.9587L6.35512 59.0354L0 59.2195L5.07679 62.8655L3.10451 69.0894L8.51002 65.2593Z" fill="white"/>
<path d="M34.6244 7.40244L32.6156 13.4791H26.0779L31.3373 17.3092L29.3285 23.6068L34.6244 19.5557L39.9204 23.6068L37.9116 17.3092L42.9884 13.4791H36.6332L34.6244 7.40244Z" fill="white"/>
<path d="M15.5956 26.6267L13.4042 32.7033H7.04907L12.1259 36.5334L10.1171 42.7942L15.5591 38.7799L20.8916 42.8678L18.6636 36.5334L23.7769 32.7033H17.4218L15.5956 26.6267Z" fill="white"/>
<path d="M60.8851 0L58.8762 6.07663L52.3385 6.26077L57.6344 9.90674L55.6256 16.1307L60.8851 12.3006L66.181 16.3516L64.1722 10.0541L69.2125 6.0398H62.8939L60.8851 0Z" fill="white"/>
<path d="M87.182 7.40244L85.0271 13.4791H78.6355L83.7488 17.3092L81.74 23.5699L87.1455 19.5557L92.5145 23.6436L90.2866 17.3092L95.3634 13.4791H89.0082L87.182 7.40244Z" fill="white"/>
<path d="M224.438 78.4069C222.758 78.4069 221.078 78.0754 219.544 77.3757C218.083 76.7128 216.768 75.7553 215.672 74.5399C214.577 73.2878 213.7 71.8147 213.152 70.2311C212.531 68.5001 212.239 66.6956 212.239 64.8542C212.239 63.0496 212.495 61.245 213.079 59.5509C213.591 57.9673 214.394 56.531 215.453 55.2421C216.439 54.0636 217.681 53.0692 219.069 52.4063C220.494 51.7066 222.064 51.3383 223.671 51.3751C225.388 51.3751 227.068 51.7802 228.565 52.6641C229.99 53.4743 231.159 54.6896 231.926 56.1259V41.6893H239.815V68.9789C239.778 69.5682 239.888 70.1206 240.18 70.6362C240.509 71.0045 240.983 71.1886 241.495 71.2254V77.9281C240.874 78.0754 240.253 78.1859 239.632 78.2596C239.121 78.2964 238.609 78.3332 238.171 78.3332C237.002 78.4069 235.834 78.1123 234.811 77.4862C233.971 76.9338 233.423 76.0131 233.35 74.9819L233.204 73.6561C232.364 75.2028 231.049 76.455 229.478 77.2652C227.944 78.0386 226.228 78.4437 224.475 78.4437L224.438 78.4069ZM226.557 71.7042C227.652 71.7042 228.748 71.3727 229.661 70.7467C230.647 70.1206 231.451 69.1999 231.962 68.095V62.6445C231.487 61.3555 230.647 60.2138 229.588 59.4036C228.602 58.5934 227.397 58.1515 226.155 58.1515C225.351 58.1515 224.548 58.3356 223.817 58.7039C223.123 59.0722 222.502 59.5878 221.991 60.2138C221.443 60.8767 221.041 61.6133 220.786 62.3867C220.494 63.2337 220.348 64.1176 220.348 65.0015C220.348 65.9222 220.494 66.8061 220.822 67.6899C221.115 68.4633 221.553 69.1999 222.101 69.826C222.649 70.4152 223.306 70.894 224.073 71.2254C224.84 71.5569 225.68 71.741 226.557 71.7042V71.7042Z" fill="white"/>
<path d="M245.658 48.9076V41.7262H253.511V48.9076H245.658ZM245.658 77.9281V51.8907H253.511V77.9281H245.658Z" fill="white"/>
<path d="M265.089 77.9281L255.958 51.8907H264.066L269.691 71.5569L275.389 51.8907H282.73L273.636 77.9281H265.089Z" fill="white"/>
<path d="M296.646 78.4069C294.637 78.4069 292.664 78.0755 290.802 77.3389C289.158 76.676 287.661 75.6816 286.419 74.4295C285.25 73.2142 284.3 71.7779 283.716 70.1943C283.095 68.5738 282.766 66.8797 282.766 65.1488C282.766 63.3442 283.059 61.5397 283.716 59.8087C284.3 58.1883 285.25 56.6784 286.419 55.4262C287.661 54.1372 289.122 53.106 290.765 52.4431C292.628 51.6697 294.637 51.3015 296.646 51.3383C298.654 51.3383 300.627 51.6697 302.489 52.4431C304.133 53.106 305.594 54.1372 306.799 55.3894C307.968 56.6047 308.881 58.0778 309.465 59.6614C310.086 61.2819 310.378 63.0128 310.378 64.7805C310.378 65.2593 310.378 65.7012 310.342 66.1432C310.342 66.5483 310.269 66.9166 310.196 67.3217H291.13C291.13 68.8685 291.861 70.3047 293.03 71.2991C294.125 72.183 295.477 72.6617 296.901 72.6617C298.07 72.6617 299.202 72.3671 300.225 71.8147C301.211 71.3359 301.978 70.5257 302.343 69.5314L309.027 71.4096C307.968 73.5088 306.324 75.2397 304.315 76.4182C301.978 77.7808 299.312 78.4437 296.646 78.3701V78.4069ZM302.124 62.4235C302.051 60.9504 301.394 59.551 300.334 58.4829C299.312 57.5254 297.96 57.0098 296.536 57.0466C295.112 57.0098 293.76 57.5254 292.737 58.5198C291.715 59.551 291.094 60.9504 290.984 62.4235H302.088H302.124Z" fill="white"/>
<path d="M330.138 58.6671C328.385 58.6671 326.631 58.9985 324.951 59.6246C323.563 60.1034 322.395 61.0609 321.591 62.313V77.9281H313.739V51.8539H320.97V57.1203C321.774 55.4998 322.943 54.0636 324.403 52.9955C325.682 52.038 327.252 51.4856 328.859 51.4488H329.663C329.663 51.4488 329.992 51.4488 330.174 51.4856V58.6302L330.138 58.6671Z" fill="white"/>
<path d="M343.396 78.4069C341.204 78.4069 339.013 78.0386 336.895 77.3389C334.886 76.7128 333.06 75.6448 331.489 74.2453L334.301 69.384C335.726 70.4152 337.26 71.2623 338.903 71.9252C340.255 72.4776 341.716 72.809 343.213 72.809C344.053 72.8459 344.857 72.6617 345.587 72.2566C346.135 71.9252 346.464 71.2991 346.427 70.673C346.427 69.9733 346.025 69.3104 345.368 69.0157C344.199 68.4265 342.921 67.9846 341.643 67.6899C339.889 67.2112 338.428 66.7324 337.26 66.2536C336.237 65.8854 335.251 65.3698 334.338 64.7069C333.644 64.2281 333.096 63.5284 332.731 62.755C332.402 61.9448 332.219 61.0609 332.256 60.177C332.219 57.7095 333.315 55.3525 335.214 53.7689C336.201 52.9587 337.296 52.3695 338.502 51.9644C339.816 51.5224 341.204 51.3015 342.592 51.3383C344.418 51.3383 346.281 51.5961 348.034 52.1485C349.86 52.7377 351.504 53.7321 352.928 55.0211L349.897 59.7719C348.655 58.888 347.34 58.1515 345.952 57.5254C344.893 57.0835 343.761 56.8625 342.592 56.8257C341.825 56.8257 341.095 56.973 340.437 57.3413C339.524 57.8937 339.269 59.109 339.816 59.9929C339.999 60.2507 340.218 60.4716 340.51 60.6558C341.643 61.2082 342.848 61.5765 344.09 61.8343C345.66 62.2394 347.231 62.7182 348.728 63.3074C349.824 63.7125 350.847 64.2649 351.796 64.9647C352.527 65.5171 353.111 66.2536 353.513 67.0639C353.878 67.9477 354.061 68.9053 354.061 69.8996C354.134 72.2934 353.075 74.5768 351.212 76.0499C348.947 77.6703 346.208 78.4806 343.469 78.3332L343.396 78.4069Z" fill="white"/>
<path d="M357.494 48.9076V41.7262H365.383V48.9076H357.494ZM357.494 77.9281V51.8907H365.383V77.9281H357.494Z" fill="white"/>
<path d="M387.042 76.5287C385.836 77.0443 384.594 77.4494 383.316 77.8176C381.965 78.2228 380.54 78.4069 379.116 78.4069C378.166 78.4069 377.253 78.2964 376.34 78.0386C375.5 77.8177 374.733 77.4125 374.039 76.8601C373.345 76.2709 372.834 75.5343 372.505 74.6873C372.103 73.6561 371.921 72.5512 371.957 71.4464V57.8568H368.67V51.8539H371.957V43.5676H379.846V51.8539H385.106V57.8568H379.846V68.7211C379.773 69.384 380.029 70.0838 380.467 70.5625C380.906 70.9676 381.49 71.1518 382.074 71.1518C382.695 71.1518 383.316 71.0413 383.901 70.8571C384.448 70.673 384.996 70.452 385.508 70.2311L387.042 76.5655V76.5287Z" fill="white"/>
<path d="M390 81.8319C390.584 82.0529 391.205 82.2002 391.826 82.3475C392.338 82.4212 392.849 82.4948 393.397 82.4948C394.237 82.5316 395.077 82.1634 395.625 81.5005C396.319 80.4324 396.793 79.2171 397.049 77.9281L387.224 51.8907H395.333L401.322 71.1518L406.472 51.8907H413.85L404.025 82.1634C402.674 86.5459 398.583 89.529 394.054 89.4185C393.397 89.4185 392.703 89.3448 392.045 89.2344C391.351 89.1239 390.657 88.9029 390 88.6451V81.8687V81.8319Z" fill="white"/>
<path d="M214.321 100.062V87.7612H215.855V100.062H214.321Z" fill="white"/>
<path d="M227.031 100.062H225.534V95.0163C225.57 94.2798 225.424 93.5432 225.095 92.9171C224.803 92.4752 224.292 92.2174 223.781 92.2542C223.452 92.2542 223.16 92.3279 222.868 92.4384C222.539 92.5489 222.247 92.733 221.991 92.9171C221.699 93.1381 221.48 93.3591 221.26 93.6537C221.041 93.9483 220.895 94.2798 220.786 94.6112V100.062H219.288V91.0389H220.676V92.9908C221.041 92.3647 221.589 91.8123 222.21 91.4809C222.868 91.1126 223.635 90.8916 224.402 90.8916C224.84 90.8916 225.278 90.9653 225.68 91.1862C226.009 91.3704 226.301 91.665 226.483 91.9964C226.703 92.3647 226.849 92.7698 226.922 93.2118C226.995 93.6905 227.068 94.2061 227.068 94.7217V100.099L227.031 100.062Z" fill="white"/>
<path d="M230.391 100.062V92.2174H229.186V91.0389H230.391V90.8548C230.355 89.9341 230.611 88.9765 231.122 88.2032C231.597 87.5771 232.364 87.2088 233.131 87.2456C233.496 87.2456 233.825 87.2825 234.19 87.3929C234.519 87.5034 234.811 87.6139 235.103 87.798L234.738 88.9029C234.738 88.9029 234.373 88.6819 234.153 88.6083C233.934 88.5346 233.679 88.4978 233.459 88.4978C233.021 88.4978 232.583 88.6819 232.327 89.087C232.035 89.6026 231.889 90.155 231.925 90.7443V91.0021H234.299V92.1806H231.925V100.025H230.428L230.391 100.062Z" fill="white"/>
<path d="M240.143 100.246C238.901 100.246 237.733 99.7303 236.893 98.8465C236.491 98.4045 236.199 97.9258 235.98 97.3733C235.541 96.2317 235.541 94.9427 235.98 93.801C236.199 93.2486 236.491 92.7698 236.893 92.3279C238.609 90.5233 241.458 90.4497 243.248 92.1438C243.321 92.2174 243.357 92.2542 243.43 92.3279C243.832 92.7698 244.124 93.2486 244.344 93.801C244.782 94.9427 244.782 96.2317 244.344 97.3733C243.905 98.4782 243.065 99.3989 241.969 99.8776C241.385 100.135 240.764 100.283 240.143 100.246V100.246ZM237.185 95.6056C237.185 96.0475 237.258 96.4895 237.404 96.9314C237.55 97.3365 237.769 97.668 238.025 97.9994C238.281 98.294 238.609 98.5518 238.975 98.6991C239.705 99.0306 240.545 99.0306 241.312 98.6991C241.677 98.515 242.006 98.2572 242.262 97.9626C242.554 97.6311 242.773 97.2997 242.919 96.8946C243.065 96.4526 243.138 96.0107 243.138 95.5688C243.138 95.1268 243.065 94.6849 242.919 94.2798C242.773 93.8747 242.554 93.5064 242.262 93.2118C242.006 92.9172 241.677 92.6594 241.312 92.4752C240.947 92.2911 240.545 92.2174 240.143 92.2174C239.742 92.2174 239.34 92.2911 238.975 92.4752C238.609 92.6594 238.281 92.9172 238.025 93.2118C237.769 93.5432 237.55 93.8747 237.404 94.2798C237.258 94.7217 237.185 95.1637 237.185 95.6424V95.6056Z" fill="white"/>
<path d="M252.013 92.3647C251.32 92.3647 250.626 92.5857 250.005 92.954C249.42 93.3223 249.019 93.8379 248.763 94.5008V100.062H247.265V91.0389H248.653V93.1381C248.945 92.5489 249.347 92.0333 249.859 91.6282C250.333 91.2599 250.881 91.0389 251.466 90.9653H251.758C251.758 90.9653 251.904 90.9653 251.977 90.9653V92.3647H252.013Z" fill="white"/>
<path d="M267.682 100.062H266.185V95.0164C266.221 94.2798 266.075 93.5432 265.746 92.9172C265.454 92.4752 264.943 92.2174 264.395 92.2542C263.774 92.2542 263.19 92.4752 262.751 92.9172C262.24 93.3959 261.911 93.9852 261.729 94.6481V100.099H260.231V95.0532C260.304 94.3166 260.122 93.5801 259.793 92.954C259.501 92.512 258.99 92.2542 258.442 92.2911C257.821 92.2911 257.236 92.512 256.798 92.954C256.287 93.3959 255.922 94.022 255.739 94.6849V100.135H254.241V91.1126H255.629V93.0645C255.958 92.4384 256.469 91.886 257.054 91.5177C257.638 91.1494 258.332 90.9653 259.026 90.9653C259.683 90.9653 260.304 91.1494 260.816 91.5913C261.254 91.9965 261.546 92.5857 261.619 93.1749C262.24 91.8123 263.555 90.9653 265.016 90.9653C265.454 90.9653 265.929 91.0389 266.331 91.2599C266.66 91.444 266.952 91.7387 267.171 92.0701C267.39 92.4384 267.536 92.8435 267.609 93.2854C267.719 93.7642 267.755 94.2798 267.755 94.7954V100.209L267.682 100.062Z" fill="white"/>
<path d="M273.051 100.246C272.649 100.246 272.248 100.172 271.882 100.025C271.517 99.8776 271.188 99.6935 270.933 99.4357C270.677 99.1779 270.458 98.8833 270.312 98.5518C270.166 98.2204 270.093 97.8153 270.093 97.447C270.093 97.0419 270.166 96.6736 270.348 96.3053C270.531 95.9739 270.823 95.6424 271.115 95.4214C271.481 95.1636 271.882 94.9795 272.321 94.869C272.832 94.7217 273.343 94.6481 273.855 94.6481C274.293 94.6481 274.731 94.6849 275.17 94.7585C275.571 94.8322 275.973 94.9427 276.338 95.09V94.3534C276.448 93.1749 275.571 92.1069 274.403 91.9964C274.256 91.9964 274.11 91.9964 273.964 91.9964C272.942 92.0333 271.919 92.4015 271.115 93.0644L270.604 92.0701C271.627 91.3335 272.832 90.9284 274.074 90.8916C275.097 90.8179 276.083 91.1862 276.813 91.8491C277.507 92.5489 277.872 93.5432 277.799 94.5376V98.2204C277.799 98.5887 277.945 98.7728 278.274 98.7728V100.099H277.872C277.872 100.099 277.653 100.172 277.544 100.135C277.288 100.135 276.996 100.062 276.813 99.8776C276.631 99.6935 276.521 99.4725 276.484 99.2147V98.5887C276.046 99.1411 275.535 99.5462 274.914 99.8408C274.293 100.135 273.636 100.283 272.978 100.283L273.051 100.246ZM273.453 99.1042C273.964 99.1042 274.476 98.9938 274.95 98.8096C275.389 98.6623 275.754 98.3677 276.01 97.9994C276.192 97.8153 276.338 97.5943 276.338 97.3365V96.0107C275.608 95.7161 274.841 95.5688 274.074 95.5688C273.416 95.5688 272.796 95.7161 272.248 96.0475C271.809 96.3053 271.554 96.7841 271.554 97.2997C271.554 97.7784 271.736 98.2572 272.102 98.5887C272.284 98.736 272.503 98.8833 272.722 98.9569C272.978 99.0674 273.234 99.1042 273.489 99.1042H273.453Z" fill="white"/>
<path d="M285.433 99.6198C285.433 99.6198 285.214 99.7303 285.067 99.804C284.921 99.8776 284.739 99.9145 284.556 99.9881C284.337 100.062 284.154 100.099 283.935 100.135C283.716 100.172 283.46 100.209 283.241 100.209C282.73 100.209 282.219 100.062 281.817 99.7672C281.415 99.4357 281.159 98.8833 281.232 98.3309V92.2542H280.027V91.0757H281.232V88.0558H282.73V91.0757H284.739V92.2542H282.73V97.8521C282.73 98.1467 282.839 98.4045 283.059 98.5887C283.241 98.736 283.497 98.8096 283.753 98.8096C284.045 98.8096 284.3 98.7728 284.556 98.6623C284.739 98.5887 284.885 98.515 285.067 98.4414L285.433 99.6567V99.6198Z" fill="white"/>
<path d="M287.551 89.3448V87.4297H289.048V89.3448H287.551ZM287.551 100.062V91.0389H289.048V100.062H287.551Z" fill="white"/>
<path d="M296.171 100.246C294.929 100.246 293.76 99.7303 292.884 98.8465C292.482 98.4045 292.19 97.9258 291.97 97.3733C291.532 96.2317 291.532 94.9427 291.97 93.801C292.19 93.2486 292.482 92.7698 292.884 92.3279C293.285 91.886 293.76 91.5545 294.308 91.2967C294.892 91.0389 295.513 90.9284 296.134 90.9284C297.376 90.9284 298.581 91.4072 299.421 92.3279C299.823 92.7698 300.115 93.2486 300.334 93.801C300.773 94.9427 300.773 96.2317 300.334 97.3733C300.115 97.9258 299.823 98.4045 299.421 98.8465C299.019 99.2884 298.508 99.6199 297.997 99.8777C297.412 100.135 296.792 100.283 296.171 100.246ZM293.212 95.5688C293.212 96.0107 293.285 96.4526 293.431 96.8946C293.577 97.2997 293.797 97.6311 294.052 97.9626C294.308 98.2572 294.637 98.515 295.002 98.6623C295.732 98.9938 296.572 98.9938 297.303 98.6623C297.668 98.4782 297.997 98.2204 298.252 97.9258C298.545 97.5943 298.764 97.2629 298.91 96.8577C299.056 96.4158 299.129 95.9739 299.129 95.5319C299.129 95.09 299.056 94.6481 298.91 94.243C298.764 93.8379 298.545 93.4696 298.252 93.1749C297.997 92.8803 297.668 92.6225 297.303 92.4384C296.938 92.2542 296.536 92.1806 296.134 92.1806C295.732 92.1806 295.331 92.2542 294.965 92.4384C294.6 92.6225 294.271 92.8803 294.016 93.1749C293.76 93.5064 293.541 93.8379 293.395 94.243C293.249 94.6849 293.139 95.1268 293.176 95.6056L293.212 95.5688Z" fill="white"/>
<path d="M311.036 100.062H309.538V95.0163C309.575 94.2798 309.429 93.5432 309.1 92.9171C308.808 92.4752 308.297 92.2174 307.785 92.2542C307.456 92.2542 307.164 92.3279 306.872 92.4384C306.543 92.5489 306.251 92.733 305.996 92.9171C305.703 93.1381 305.484 93.3591 305.265 93.6537C305.046 93.9483 304.9 94.2798 304.79 94.6112V100.062H303.293V91.0389H304.681V92.9908C305.046 92.3647 305.557 91.8123 306.215 91.4809C306.872 91.1126 307.639 90.8916 308.406 90.8916C308.844 90.8916 309.283 90.9653 309.684 91.1862C310.013 91.3704 310.305 91.665 310.525 91.9964C310.744 92.3647 310.89 92.7698 310.963 93.2118C311.036 93.6905 311.109 94.2061 311.109 94.7217V100.135L311.036 100.062Z" fill="white"/>
<path d="M325.828 90.3392C325.828 90.3392 325.499 90.0077 325.28 89.8604C325.024 89.7131 324.769 89.5658 324.513 89.4553C324.221 89.3448 323.892 89.2343 323.563 89.1607C323.235 89.087 322.87 89.0502 322.504 89.0502C321.774 88.9765 321.043 89.1607 320.422 89.6026C319.984 89.9709 319.729 90.5233 319.765 91.0757C319.765 91.3704 319.838 91.665 319.948 91.9228C320.094 92.1438 320.313 92.3647 320.532 92.4752C320.861 92.6593 321.189 92.7698 321.555 92.8803C321.956 92.9908 322.431 93.1013 322.979 93.2486C323.563 93.3591 324.111 93.5432 324.696 93.7274C325.171 93.8747 325.609 94.0956 326.011 94.3903C326.376 94.6481 326.631 94.9795 326.851 95.3478C327.033 95.7897 327.143 96.2685 327.143 96.7473C327.143 97.2629 327.033 97.8153 326.814 98.294C326.595 98.736 326.266 99.1042 325.864 99.362C325.426 99.6567 324.951 99.8776 324.477 99.9881C323.892 100.135 323.308 100.209 322.723 100.209C321.81 100.209 320.897 100.062 320.057 99.7672C319.217 99.4725 318.45 99.0306 317.756 98.4782L318.487 97.1524C318.706 97.3733 318.925 97.5575 319.181 97.7416C319.509 97.9626 319.838 98.1467 320.167 98.2572C320.569 98.4045 320.97 98.5518 321.372 98.6255C321.81 98.736 322.249 98.7728 322.723 98.7728C323.417 98.8096 324.148 98.6623 324.732 98.294C325.207 97.9994 325.499 97.447 325.463 96.8946C325.463 96.5999 325.39 96.2685 325.244 96.0107C325.061 95.7529 324.842 95.5319 324.586 95.3846C324.257 95.2005 323.856 95.0532 323.49 94.9427C323.052 94.7954 322.541 94.6849 321.993 94.5376C321.445 94.3903 320.897 94.243 320.349 94.0588C319.911 93.9115 319.546 93.6905 319.181 93.4327C318.888 93.2118 318.633 92.8803 318.487 92.5489C318.304 92.1438 318.231 91.7386 318.231 91.2967C318.231 90.7443 318.341 90.2287 318.56 89.7499C318.779 89.308 319.071 88.9029 319.473 88.6083C319.875 88.2768 320.349 88.0558 320.861 87.9085C321.445 87.7612 322.029 87.6876 322.614 87.6876C323.381 87.6876 324.111 87.798 324.842 88.0558C325.499 88.2768 326.084 88.6451 326.595 89.087L325.864 90.376L325.828 90.3392Z" fill="white"/>
<path d="M329.59 102.492C329.59 102.492 329.882 102.529 330.028 102.529H330.357C330.357 102.529 330.613 102.529 330.722 102.419C330.868 102.308 330.978 102.198 331.051 102.051C331.197 101.793 331.306 101.535 331.416 101.277C331.562 100.946 331.708 100.504 331.927 99.9881L328.129 90.9653H329.699L332.767 98.6255L335.543 90.9653H337.004L332.621 102.382C332.439 102.787 332.183 103.155 331.818 103.45C331.38 103.781 330.832 103.929 330.284 103.892H329.955C329.955 103.892 329.699 103.855 329.553 103.818V102.419L329.59 102.492Z" fill="white"/>
<path d="M342.191 100.246C341.46 100.246 340.766 100.135 340.072 99.9145C339.415 99.7303 338.794 99.3989 338.282 98.9201L338.94 97.8889C339.415 98.2572 339.963 98.5887 340.51 98.8096C341.058 99.0306 341.606 99.1043 342.191 99.1043C342.738 99.1043 343.286 98.9938 343.761 98.736C344.126 98.515 344.345 98.0731 344.345 97.6311C344.345 97.447 344.309 97.226 344.199 97.0787C344.09 96.8946 343.907 96.7841 343.725 96.6736C343.469 96.5263 343.213 96.4526 342.921 96.379C342.592 96.3053 342.227 96.1948 341.789 96.0844C341.241 95.937 340.766 95.8266 340.401 95.6792C340.072 95.5688 339.743 95.4215 339.451 95.2373C339.232 95.09 339.013 94.869 338.903 94.6112C338.794 94.3166 338.721 94.022 338.721 93.7274C338.721 92.9171 339.049 92.1438 339.707 91.6282C340.036 91.3704 340.401 91.1862 340.803 91.0757C341.241 90.9653 341.679 90.8916 342.154 90.8916C342.811 90.8916 343.432 91.0021 344.053 91.2231C344.601 91.4072 345.076 91.7018 345.514 92.0701L344.82 92.9908C344.455 92.6593 344.017 92.4015 343.542 92.2542C343.067 92.0701 342.592 91.9964 342.081 91.9964C341.606 91.9964 341.095 92.1069 340.693 92.3647C340.291 92.6225 340.072 93.0276 340.109 93.5064C340.109 93.6905 340.109 93.8747 340.218 94.022C340.291 94.1693 340.437 94.3166 340.583 94.3903C340.803 94.5007 341.022 94.6112 341.241 94.6849C341.497 94.7585 341.825 94.869 342.191 94.9427C342.775 95.09 343.286 95.2373 343.761 95.3478C344.163 95.4583 344.528 95.6424 344.857 95.8634C345.441 96.1948 345.77 96.8577 345.733 97.5207C345.733 98.294 345.405 99.0674 344.784 99.5462C344.017 100.062 343.14 100.32 342.227 100.246H342.191Z" fill="white"/>
<path d="M352.929 99.6198C352.929 99.6198 352.709 99.7303 352.563 99.804C352.417 99.8776 352.235 99.9145 352.052 99.9881C351.833 100.062 351.65 100.099 351.431 100.135C351.212 100.172 350.956 100.209 350.737 100.209C350.226 100.209 349.714 100.062 349.313 99.7672C348.911 99.4357 348.655 98.8833 348.728 98.3309V92.2542H347.523V91.0757H348.728V88.0558H350.226V91.0757H352.235V92.2542H350.226V97.8521C350.226 98.1467 350.335 98.4045 350.555 98.5887C350.737 98.736 350.993 98.8096 351.248 98.8096C351.541 98.8096 351.796 98.7728 352.052 98.6623C352.235 98.5887 352.381 98.515 352.563 98.4414L352.929 99.6567V99.6198Z" fill="white"/>
<path d="M358.809 100.246C358.188 100.246 357.53 100.135 356.946 99.8777C356.398 99.6567 355.887 99.2884 355.485 98.8833C355.083 98.4414 354.755 97.9258 354.535 97.3733C354.316 96.7841 354.207 96.1948 354.207 95.5688C354.207 94.9427 354.316 94.3534 354.535 93.7642C354.755 93.2118 355.083 92.733 355.485 92.2911C355.887 91.8491 356.398 91.5177 356.946 91.2967C357.53 91.0389 358.151 90.9284 358.809 90.9284C360.671 90.9284 362.315 92.0333 362.972 93.801C363.192 94.3534 363.301 94.9427 363.301 95.5319V95.8634C363.301 95.8634 363.301 96.0107 363.301 96.1212H355.85C355.85 96.5631 355.996 96.9682 356.143 97.3365C356.471 98.0362 357.019 98.5887 357.75 98.9201C358.078 99.0674 358.48 99.1411 358.845 99.1411C359.101 99.1411 359.393 99.1043 359.649 99.0306C359.904 98.9569 360.16 98.8465 360.379 98.736C360.598 98.6255 360.818 98.4414 361 98.2572C361.183 98.0731 361.329 97.8521 361.402 97.6311L362.717 97.9994C362.571 98.3309 362.352 98.6623 362.096 98.9201C361.84 99.2147 361.548 99.4357 361.219 99.6199C360.854 99.8408 360.489 99.9881 360.087 100.099C359.685 100.209 359.247 100.246 358.809 100.246ZM361.877 94.9427C361.877 94.5376 361.731 94.1325 361.548 93.7642C361.402 93.4327 361.146 93.1013 360.891 92.8435C360.343 92.3279 359.576 92.0333 358.809 92.0333C358.407 92.0333 358.042 92.1069 357.677 92.2542C357.311 92.4016 357.019 92.5857 356.727 92.8803C356.471 93.1381 356.216 93.4696 356.069 93.801C355.887 94.1693 355.814 94.5744 355.777 94.9795H361.84L361.877 94.9427Z" fill="white"/>
<path d="M379.299 100.062H377.801V95.0164C377.838 94.2798 377.692 93.5432 377.363 92.9172C377.071 92.4752 376.559 92.2174 376.011 92.2542C375.391 92.2542 374.806 92.4752 374.368 92.9172C373.857 93.3959 373.491 93.9852 373.309 94.6481V100.099H371.811V95.0532C371.884 94.3166 371.702 93.5801 371.373 92.954C371.081 92.512 370.569 92.2542 370.022 92.2911C369.401 92.2911 368.816 92.512 368.378 92.954C367.867 93.3959 367.501 94.022 367.319 94.6849V100.135H365.821V91.1126H367.209V93.0645C367.538 92.4384 368.013 91.886 368.634 91.5177C369.218 91.1494 369.912 90.9653 370.606 90.9653C371.263 90.9653 371.921 91.1494 372.396 91.5913C372.834 91.9965 373.126 92.5857 373.199 93.1749C373.82 91.8123 375.135 90.9653 376.632 90.9653C377.071 90.9653 377.509 91.0389 377.911 91.2599C378.239 91.444 378.532 91.7018 378.751 92.0701C378.97 92.4384 379.116 92.8435 379.189 93.2854C379.299 93.7642 379.335 94.2798 379.335 94.7954V100.209L379.299 100.062Z" fill="white"/>
<path d="M214.54 118.476V110.631H213.335V109.453H214.54V109.269C214.467 108.348 214.723 107.391 215.271 106.617C215.746 105.991 216.513 105.623 217.28 105.66C217.645 105.66 217.973 105.696 218.339 105.807C218.667 105.917 218.96 106.028 219.252 106.212L218.887 107.317C218.887 107.317 218.521 107.096 218.302 107.022C218.083 106.949 217.827 106.912 217.608 106.912C217.17 106.912 216.732 107.096 216.476 107.464C216.184 107.98 216.038 108.532 216.074 109.121V109.379H218.448V110.558H216.074V118.402H214.577L214.54 118.476Z" fill="white"/>
<path d="M224.292 118.66C223.05 118.66 221.881 118.144 221.005 117.26C220.603 116.819 220.311 116.34 220.092 115.787C219.653 114.646 219.653 113.357 220.092 112.215C220.311 111.663 220.603 111.184 221.005 110.742C222.721 108.937 225.57 108.864 227.36 110.558C227.433 110.631 227.47 110.668 227.543 110.742C227.944 111.184 228.237 111.663 228.456 112.215C228.894 113.357 228.894 114.646 228.456 115.787C228.017 116.892 227.177 117.813 226.082 118.292C225.497 118.549 224.876 118.697 224.255 118.66H224.292ZM221.334 114.02C221.334 114.462 221.407 114.903 221.553 115.345C221.699 115.751 221.918 116.082 222.174 116.413C222.429 116.708 222.758 116.966 223.123 117.113C223.854 117.445 224.694 117.445 225.461 117.113C225.826 116.929 226.155 116.671 226.41 116.377C226.703 116.082 226.922 115.714 227.068 115.309C227.214 114.867 227.287 114.425 227.287 113.983C227.287 113.541 227.214 113.099 227.068 112.694C226.922 112.289 226.703 111.92 226.41 111.626C226.155 111.331 225.826 111.073 225.461 110.889C225.096 110.705 224.694 110.631 224.292 110.631C223.89 110.631 223.488 110.705 223.123 110.889C222.758 111.073 222.429 111.331 222.174 111.626C221.918 111.957 221.699 112.289 221.553 112.694C221.407 113.136 221.334 113.578 221.334 114.056V114.02Z" fill="white"/>
<path d="M236.162 110.779C235.468 110.779 234.774 111 234.153 111.368C233.569 111.736 233.167 112.252 232.912 112.915V118.476H231.414V109.453H232.802V111.552C233.094 110.963 233.496 110.447 234.007 110.042C234.482 109.674 235.03 109.453 235.614 109.379H235.907C235.907 109.379 236.053 109.379 236.126 109.379V110.779H236.162Z" fill="white"/>
<path d="M251.21 117.076V118.476H242.919V106.175H251.027V107.575H244.453V111.552H250.187V112.841H244.453V117.076H251.21Z" fill="white"/>
<path d="M256.287 118.66C255.447 118.697 254.68 118.365 254.168 117.702C253.621 116.855 253.365 115.861 253.438 114.867V109.453H254.935V114.572C254.935 116.413 255.556 117.334 256.835 117.334C257.456 117.334 258.077 117.113 258.588 116.745C259.136 116.34 259.574 115.751 259.793 115.124V109.453H261.291V116.598C261.291 116.966 261.437 117.15 261.765 117.15V118.476H261.071C260.816 118.513 260.56 118.439 260.341 118.255C260.158 118.071 260.049 117.85 260.012 117.592V116.524C259.611 117.187 259.063 117.702 258.405 118.071C257.748 118.439 257.017 118.623 256.25 118.623L256.287 118.66Z" fill="white"/>
<path d="M269.326 110.779C268.632 110.779 267.938 111 267.317 111.368C266.733 111.736 266.331 112.252 266.075 112.915V118.476H264.578V109.453H265.966V111.552C266.258 110.963 266.659 110.447 267.171 110.042C267.646 109.674 268.193 109.453 268.778 109.379H269.07C269.07 109.379 269.216 109.379 269.289 109.379V110.779H269.326Z" fill="white"/>
<path d="M275.243 118.66C274.001 118.66 272.795 118.181 271.955 117.26C271.554 116.819 271.261 116.34 271.042 115.787C270.604 114.646 270.604 113.357 271.042 112.215C271.261 111.663 271.59 111.184 271.955 110.742C273.672 108.937 276.484 108.864 278.31 110.558C278.384 110.631 278.42 110.668 278.493 110.742C278.895 111.184 279.224 111.663 279.406 112.215C279.844 113.357 279.844 114.646 279.406 115.787C279.187 116.34 278.895 116.819 278.493 117.26C278.091 117.702 277.617 118.034 277.069 118.292C276.484 118.549 275.863 118.697 275.243 118.66V118.66ZM272.284 114.02C272.284 114.462 272.357 114.903 272.503 115.345C272.649 115.751 272.869 116.082 273.124 116.413C273.38 116.708 273.709 116.966 274.074 117.113C274.804 117.445 275.644 117.445 276.411 117.113C276.777 116.929 277.105 116.671 277.361 116.377C277.653 116.045 277.872 115.714 278.018 115.309C278.164 114.867 278.237 114.425 278.237 113.983C278.237 113.541 278.164 113.099 278.018 112.694C277.872 112.289 277.653 111.92 277.361 111.626C277.105 111.331 276.777 111.073 276.411 110.889C276.046 110.705 275.644 110.631 275.243 110.631C274.841 110.631 274.439 110.705 274.074 110.889C273.709 111.073 273.38 111.331 273.124 111.626C272.832 111.957 272.649 112.289 272.503 112.694C272.357 113.136 272.248 113.578 272.284 114.056V114.02Z" fill="white"/>
<path d="M287.149 118.66C286.455 118.66 285.761 118.476 285.177 118.108C284.629 117.739 284.154 117.26 283.826 116.708V122.195H282.328V109.49H283.679V111.184C284.045 110.631 284.52 110.19 285.067 109.821C285.652 109.49 286.273 109.306 286.93 109.306C287.514 109.306 288.099 109.416 288.61 109.674C289.121 109.932 289.56 110.263 289.962 110.705C290.729 111.626 291.167 112.767 291.167 113.946C291.167 114.572 291.057 115.198 290.875 115.787C290.692 116.34 290.4 116.855 290.035 117.26C289.669 117.666 289.268 118.034 288.756 118.255C288.245 118.513 287.697 118.623 287.113 118.623L287.149 118.66ZM286.674 117.334C287.076 117.334 287.514 117.26 287.88 117.04C288.245 116.855 288.537 116.598 288.793 116.266C289.048 115.935 289.268 115.566 289.377 115.198C289.523 114.793 289.596 114.388 289.596 113.946C289.596 113.062 289.268 112.252 288.72 111.589C288.464 111.294 288.099 111.037 287.734 110.852C287.368 110.668 286.93 110.595 286.528 110.595C286.236 110.595 285.944 110.668 285.688 110.742C285.396 110.852 285.104 111 284.848 111.184C284.593 111.368 284.373 111.589 284.191 111.81C284.008 112.031 283.899 112.326 283.826 112.583V115.161C283.935 115.456 284.118 115.751 284.3 116.008C284.666 116.487 285.177 116.892 285.761 117.113C286.054 117.224 286.346 117.297 286.674 117.297V117.334Z" fill="white"/>
<path d="M297.778 118.66C297.157 118.66 296.499 118.549 295.915 118.292C295.367 118.071 294.856 117.702 294.454 117.261C294.052 116.819 293.724 116.303 293.504 115.751C293.285 115.161 293.176 114.572 293.176 113.946C293.176 113.32 293.285 112.731 293.504 112.141C294.198 110.374 295.878 109.232 297.741 109.269C298.362 109.269 299.02 109.379 299.604 109.637C300.663 110.116 301.503 111 301.905 112.105C302.124 112.657 302.234 113.246 302.234 113.835V114.167C302.234 114.167 302.234 114.314 302.234 114.388H294.819C294.819 114.83 294.965 115.235 295.111 115.603C295.258 115.972 295.513 116.266 295.769 116.561C296.025 116.819 296.353 117.04 296.719 117.187C297.047 117.334 297.449 117.408 297.814 117.408C298.07 117.408 298.362 117.371 298.618 117.297C298.873 117.224 299.129 117.113 299.348 117.003C299.567 116.892 299.787 116.708 299.969 116.524C300.152 116.34 300.298 116.119 300.371 115.898L301.686 116.266C301.54 116.598 301.321 116.929 301.065 117.187C300.809 117.481 300.517 117.739 300.188 117.923C299.823 118.144 299.458 118.292 299.056 118.402C298.654 118.513 298.216 118.549 297.778 118.549V118.66ZM300.846 113.357C300.846 112.952 300.7 112.547 300.517 112.178C300.371 111.847 300.115 111.515 299.86 111.258C298.983 110.447 297.741 110.226 296.645 110.668C296.28 110.816 295.988 111 295.696 111.294C295.44 111.552 295.184 111.884 295.038 112.215C294.856 112.583 294.783 112.988 294.746 113.394H300.809L300.846 113.357Z" fill="white"/>
<path d="M153.838 56.0523C154.568 55.3157 154.97 54.3214 154.86 53.2902C154.933 52.2958 154.605 51.3383 153.947 50.6017C153.399 49.9757 152.596 49.6442 151.756 49.6442H143.538V56.9362H151.464C152.34 56.9362 153.18 56.6415 153.838 56.0523ZM152.852 63.3442H143.538V71.0413H152.486C153.473 71.0413 154.422 70.7098 155.08 70.0101C155.774 69.2736 156.139 68.2792 156.102 67.2848C156.102 66.2905 155.81 65.2961 155.153 64.5227C154.605 63.7862 153.728 63.3811 152.779 63.3811L152.852 63.3442ZM193.831 58.1515C192.261 58.1515 190.763 58.8144 189.741 60.0297C189.193 60.6558 188.791 61.3923 188.535 62.2026C188.243 63.0864 188.097 64.0071 188.097 64.9647C188.024 66.7692 188.608 68.5002 189.704 69.8996C190.727 71.115 192.261 71.7779 193.831 71.741C194.598 71.741 195.402 71.5937 196.096 71.2254C196.79 70.894 197.411 70.4152 197.885 69.826C198.433 69.1999 198.835 68.4633 199.091 67.6531C199.383 66.7692 199.529 65.8485 199.529 64.891C199.602 63.0864 199.054 61.3555 197.922 59.9561C196.899 58.7407 195.402 58.0778 193.831 58.1147V58.1515ZM147.884 1.21533C114.246 1.21533 86.9994 28.7259 86.9994 62.6077C86.9994 96.4895 114.246 124 147.884 124C181.523 124 208.769 96.5263 208.769 62.6077C208.769 28.7259 181.523 1.21533 147.884 1.21533V1.21533ZM104.239 32.6665L106.247 26.6267L108.256 32.6665H114.611L109.498 36.5334L111.507 42.831L106.211 38.7799L100.915 42.831L102.924 36.5334L97.8469 32.6665H104.239V32.6665ZM111.543 95.7897L106.247 91.7387L100.988 95.5688L102.997 89.3448L97.92 85.4779H104.275L106.284 79.4381L108.293 85.4779H114.611L109.535 89.4921L111.58 95.7897H111.543ZM118.738 69.3472L113.589 65.2593L108.183 69.0894L110.155 62.9023L105.079 59.2195L111.434 59.0354L113.625 52.9587L115.451 58.9985H121.77L116.73 63.0128L118.738 69.3472V69.3472ZM163.443 72.8459C162.823 73.9875 161.946 74.9451 160.887 75.6448C159.718 76.4182 158.44 77.0074 157.088 77.3389C155.591 77.7072 154.057 77.9281 152.523 77.9281H135.503V42.6837H154.933C156.066 42.6837 157.198 42.9415 158.221 43.4939C159.17 44.0095 160.047 44.7092 160.741 45.5563C161.435 46.4033 161.983 47.3977 162.348 48.4289C162.713 49.4969 162.932 50.6017 162.896 51.7434C162.896 53.4007 162.457 55.0579 161.654 56.4942C160.814 58.0042 159.462 59.1827 157.892 59.8824C159.755 60.398 161.435 61.5028 162.64 63.0496C163.845 64.7437 164.466 66.8061 164.393 68.9053C164.393 70.2679 164.101 71.6305 163.48 72.8459H163.443ZM176.409 77.9281H168.557V51.8907H176.409V77.9281ZM176.409 48.9076H168.557V41.7262H176.409V48.9076ZM204.094 74.3927C202.853 75.6816 201.392 76.676 199.748 77.3389C195.95 78.812 191.786 78.812 187.987 77.3389C186.344 76.676 184.883 75.6816 183.641 74.3927C182.472 73.1405 181.559 71.7042 180.938 70.0838C179.733 66.7692 179.733 63.1233 180.938 59.8087C181.523 58.1883 182.436 56.7152 183.641 55.4999C184.883 54.2109 186.344 53.2165 187.987 52.5168C189.85 51.7434 191.859 51.3751 193.868 51.412C195.877 51.3751 197.849 51.7434 199.712 52.5168C201.355 53.2165 202.816 54.2109 204.058 55.4999C205.227 56.752 206.176 58.2251 206.761 59.8087C207.382 61.4292 207.71 63.1969 207.71 64.9278C207.71 66.6956 207.418 68.4265 206.797 70.0469C206.213 71.6674 205.3 73.1037 204.131 74.3558L204.094 74.3927Z" fill="white"/>
</g>
<defs>
<clipPath id="clip0_2218_22799">
<rect width="413.85" height="124" fill="white"/>
</clipPath>
</defs>
</svg>
