<svg width="397" height="124" viewBox="0 0 397 124" fill="none" xmlns="http://www.w3.org/2000/svg">
<g clip-path="url(#clip0_2218_22910)">
<path fill-rule="evenodd" clip-rule="evenodd" d="M113.384 45.7836C114.307 47.0081 115.137 48.2543 115.91 49.5378C109.574 32.3767 96.6765 15.2529 74.4031 0.276581C67.7836 4.40681 62.0124 8.78255 57.0151 13.3261C83.4001 17.475 101.674 30.1858 113.387 45.7836H113.384Z" fill="white"/>
<path d="M86.4519 32.5259C61.7452 25.8877 31.174 30.0552 0 57.3849C12.3534 97.6679 37.6631 115.584 62.519 122.222C87.2258 128.861 112.685 114.036 119.323 89.3515C125.98 64.6447 111.156 39.1672 86.4519 32.529V32.5259ZM36.5878 76.2243L39.9815 76.072L41.2059 72.6783L42.2812 76.072H45.6749L42.9028 78.2412L44.1272 81.6349L41.1842 79.4657L38.2411 81.6349L39.3164 78.2412L36.5816 76.2243H36.5878ZM48.6397 98.6095L45.6966 96.4403L42.7536 98.4386L43.8289 95.0449L41.0567 92.8757H44.6027L45.678 89.6312L46.7533 92.8757H50.2993L47.5271 95.1941L48.6397 98.6064V98.6095ZM47.5458 61.4002L48.6211 64.7939L45.678 62.6246L42.7349 64.7939L43.8102 61.4002L41.0381 59.231H44.5841L45.6593 55.9865L46.7346 59.231H50.2806L47.5458 61.4002V61.4002ZM59.8992 107.398L60.9744 110.792L58.0314 108.623L55.0883 110.792L56.1636 107.398L53.2206 105.229H56.9157L57.991 101.835L59.0663 105.229H62.6122L59.896 107.398H59.8992ZM59.8992 49.0468L60.9744 52.5928L58.0314 50.2744L55.0883 52.5928L56.1636 49.0468L53.2206 47.0485H56.9157L57.991 43.6548L59.0663 47.0485H62.6122L59.896 49.0468H59.8992ZM77.8154 115.432L74.8724 113.113L71.9293 115.283L73.1724 111.889L70.2294 109.891L73.7753 109.742L74.8506 106.497L75.9259 109.742H79.4719L76.6998 111.911L77.8123 115.438L77.8154 115.432ZM76.7401 44.4256L77.8154 47.9715L74.8724 45.6531L71.9293 47.8223L73.1724 44.4287L70.2294 42.4304L73.7753 42.2781L74.8506 39.0336L75.9259 42.2781H79.4719L76.737 44.4287L76.7401 44.4256ZM94.787 110.792L91.8439 108.623L88.7517 110.792L89.827 107.398L87.0548 105.229H90.6008L91.8253 101.835L92.7483 105.229H96.2942L93.5221 107.398L94.787 110.792ZM93.5625 49.0468L94.8087 52.5928L91.8657 50.2744L88.7734 52.5928L89.8487 49.0468L87.0766 47.0485H90.6226L91.847 43.6548L92.77 47.0485H96.316L93.5625 49.0468ZM106.991 98.6095L104.048 96.4403L101.105 98.4386L102.18 95.0449L99.4082 92.8757H102.954L104.029 89.6312L105.105 92.8757H108.651L105.879 95.1941L106.991 98.6064V98.6095ZM109.763 76.072H113.309L110.537 78.2412L111.612 81.6349L108.84 79.4657L105.748 81.6349L106.823 78.2412L104.051 76.2429L107.597 76.0906L108.843 72.6969L109.766 76.072H109.763ZM105.916 61.4002L106.991 64.7939L104.048 62.6246L101.105 64.7939L102.18 61.4002L99.4082 59.231H102.954L104.029 55.9865L105.105 59.231H108.651L105.916 61.4002V61.4002Z" fill="white"/>
<path d="M138.143 65.4372H145.987V61.4188H138.143V56.4402H146.538V52.3846H133.183V74.2042H138.143V65.4341V65.4372Z" fill="white"/>
<path d="M156.834 58.0251C151.74 58.0251 148.365 61.3069 148.365 66.4192C148.365 71.5315 151.929 74.5864 156.569 74.5864C160.811 74.5864 164.942 71.9262 164.942 66.1178C164.923 61.366 161.679 58.0283 156.834 58.0283V58.0251ZM156.7 71.056C154.587 71.056 153.455 69.0018 153.455 66.2856C153.455 63.9486 154.341 61.5152 156.7 61.5152C159.059 61.5152 159.848 63.9299 159.848 66.2856C159.848 69.151 158.624 71.056 156.7 71.056V71.056Z" fill="white"/>
<path d="M167.338 74.226H172.261V66.1924C172.261 65.8163 172.298 65.4185 172.354 65.0984C172.674 63.5694 173.901 62.5905 175.71 62.5905C176.257 62.5905 176.692 62.6464 177.031 62.7241V58.0842C176.674 58.0283 176.447 58.0283 175.993 58.0283C174.464 58.0283 172.522 59.0103 171.71 61.3101H171.577L171.428 58.3857H167.186C167.241 59.7437 167.316 61.2728 167.316 63.6098V74.226H167.335H167.338Z" fill="white"/>
<path d="M186.951 74.5461C189.102 74.5461 191.081 74.226 192.685 73.564L192.045 70.2263C190.724 70.6427 189.366 70.8665 187.669 70.8665C185.369 70.8665 183.349 69.8875 183.2 67.8488V67.8302H193.421C193.477 67.4728 193.574 66.7362 193.574 65.8878C193.574 61.9658 191.631 57.9848 186.5 57.9848C180.993 57.9848 178.485 62.4351 178.485 66.4534C178.485 71.4134 181.559 74.543 186.954 74.543L186.951 74.5461ZM186.196 61.2883C188.458 61.2883 188.987 63.2866 188.987 64.4955H183.16C183.271 63.1747 184.123 61.2883 186.196 61.2883Z" fill="white"/>
<path d="M200.737 71.1306C199.286 71.1306 197.399 70.4904 196.495 69.9248L195.609 73.4521C196.815 74.0923 198.664 74.5461 200.74 74.5461C205.284 74.5461 207.605 72.3768 207.605 69.4151C207.568 67.0781 206.303 65.5491 203.304 64.5297C201.362 63.8305 200.74 63.4544 200.74 62.6992C200.74 61.8881 201.418 61.3971 202.627 61.3971C204.003 61.3971 205.361 61.9254 206.076 62.3014L206.962 58.9078C205.98 58.4167 204.342 58.0034 202.493 58.0034C198.571 58.0034 196.044 60.2472 196.044 63.1903C196.007 65.0767 197.272 66.8668 200.551 67.9607C202.4 68.5822 202.888 68.98 202.888 69.7912C202.832 70.6023 202.229 71.1306 200.737 71.1306V71.1306Z" fill="white"/>
<path d="M211.263 68.5108C211.263 70.7359 211.717 72.265 212.621 73.2066C213.395 74.0177 214.716 74.5647 216.316 74.5647C217.712 74.5647 218.88 74.4124 219.523 74.1514L219.486 70.4345C219.129 70.4904 218.656 70.5681 218.035 70.5681C216.546 70.5681 216.093 69.6824 216.093 67.7773V62.0435H219.62V58.423H216.093V53.8794L211.266 54.992V58.4447H209.172V62.0653H211.266V68.5139L211.263 68.5108Z" fill="white"/>
<path d="M232.856 52.3846H227.896V74.2228H232.856V52.3846Z" fill="white"/>
<path d="M244.681 62.0031C246.474 62.0031 247.189 63.3985 247.189 65.4558V74.2446H252.112V64.8529C252.112 60.1944 249.678 58.0438 246.452 58.0438C243.829 58.0438 242.207 59.5728 241.548 60.5704H241.455L241.228 58.4012H236.946C237.002 59.7966 237.076 61.4934 237.076 63.4544H237.058V74.2415H241.98V65.0953C241.98 64.6229 242.055 64.1537 242.188 63.8709C242.509 62.9479 243.32 62.0031 244.678 62.0031H244.681Z" fill="white"/>
<path d="M256.618 74.2259H261.559V62.0062H264.707V58.3856H261.519V57.5745C261.519 56.0082 262.196 54.7465 263.819 54.7465C264.459 54.7465 264.987 54.8583 265.404 54.9733L265.612 51.1818C264.934 50.9736 264.086 50.8617 262.992 50.8617C261.578 50.8617 259.862 51.2751 258.616 52.4467C257.202 53.7489 256.618 55.8404 256.618 57.7641V58.3856H254.542V62.0062H256.618V74.2259Z" fill="white"/>
<path d="M274.084 74.5834C278.326 74.5834 282.456 71.9231 282.456 66.1147C282.456 61.3443 279.23 58.0034 274.348 58.0034C269.465 58.0034 265.879 61.2852 265.879 66.3975C265.879 71.5098 269.444 74.5834 274.084 74.5834ZM274.214 61.5338C276.458 61.5338 277.362 63.9486 277.362 66.3043C277.362 69.151 276.138 71.0747 274.214 71.0747C272.101 71.0747 270.97 69.0204 270.97 66.3043C270.97 63.9455 271.855 61.5338 274.214 61.5338Z" fill="white"/>
<path d="M293.883 62.5873C294.43 62.5873 294.865 62.6433 295.204 62.721V58.0811C294.846 58.0251 294.62 58.0251 294.166 58.0251C292.659 58.0251 290.713 59.0072 289.883 61.307H289.753L289.604 58.3825H285.362C285.418 59.7406 285.492 61.2697 285.492 63.6067V74.2446H290.415V66.211C290.415 65.835 290.452 65.4372 290.508 65.1171C290.847 63.5694 292.074 62.5905 293.883 62.5905V62.5873Z" fill="white"/>
<path d="M312.16 74.226V64.9462C312.16 64.5701 312.234 64.0418 312.368 63.6813C312.688 62.7365 313.518 61.9658 314.631 61.9658C316.216 61.9658 316.968 63.2866 316.968 65.5864V74.2229H321.778V64.8871C321.778 60.1726 319.476 58.022 316.439 58.022C315.289 58.022 314.31 58.2676 313.422 58.7959C312.688 59.2683 311.97 59.9085 311.386 60.7009H311.33C310.65 59.0414 309.027 58.022 306.992 58.022C304.257 58.022 302.861 59.5107 302.184 60.53H302.091L301.864 58.3794H297.715C297.771 59.7748 297.846 61.4717 297.846 63.4327H297.808V74.2197H302.616V64.9959C302.616 64.6198 302.653 64.1475 302.824 63.7714C303.126 62.9603 303.862 62 305.124 62C306.69 62 307.386 63.3581 307.386 65.3564V74.2384L312.16 74.2197V74.226Z" fill="white"/>
<path d="M334.34 72.641H334.433L334.735 74.2259H339.185C339.017 73.3402 338.961 71.8858 338.961 70.3599V64.8529C338.961 61.136 337.28 58.0065 332 58.0065C329.116 58.0065 326.928 58.7803 325.834 59.4019L326.738 62.5905C327.776 61.9503 329.492 61.3846 331.114 61.3846C333.548 61.3846 334.001 62.5718 334.001 63.4202V63.6471C328.379 63.6098 324.684 65.5895 324.684 69.7197C324.684 72.2463 326.589 74.5865 329.812 74.5865C331.68 74.5865 333.302 73.9059 334.34 72.6441V72.641ZM334.132 66.7393V68.4548C334.132 68.7563 334.095 69.0391 334.039 69.3032C333.718 70.3226 332.718 71.1337 331.472 71.1337C330.378 71.1337 329.529 70.5122 329.529 69.2473C329.529 67.3236 331.549 66.7207 334.132 66.7393Z" fill="white"/>
<path d="M343.241 68.5108C343.241 70.7359 343.691 72.265 344.599 73.2066C345.373 74.0177 346.69 74.5647 348.294 74.5647C349.689 74.5647 350.858 74.4124 351.501 74.1514L351.464 70.4345C351.103 70.4904 350.634 70.5681 350.009 70.5681C348.521 70.5681 348.067 69.6824 348.067 67.7773V62.0435H351.594V58.423H348.067V53.8794L343.241 54.992V58.4447H341.146V62.0653H343.241V68.5139V68.5108Z" fill="white"/>
<path d="M356.896 56.4402C358.518 56.4402 359.553 55.3276 359.553 53.9695C359.516 52.5368 358.518 51.4615 356.934 51.4615C355.349 51.4615 354.311 52.5368 354.329 53.9695C354.292 55.3463 355.33 56.4402 356.896 56.4402V56.4402Z" fill="white"/>
<path d="M359.386 58.3825H354.463V74.2446H359.386V58.3825Z" fill="white"/>
<path d="M370.887 58.0251C365.797 58.0251 362.422 61.3069 362.422 66.4192C362.422 71.5315 365.986 74.5864 370.623 74.5864C374.868 74.5864 378.999 71.9262 378.999 66.1178C378.999 61.366 375.754 58.0283 370.887 58.0283V58.0251ZM370.776 71.056C368.681 71.056 367.531 69.0018 367.531 66.2856C367.531 63.9486 368.417 61.5152 370.776 61.5152C373.134 61.5152 373.924 63.9299 373.924 66.2856C373.924 69.151 372.681 71.056 370.776 71.056Z" fill="white"/>
<path d="M390.783 58.0252C388.163 58.0252 386.541 59.5542 385.898 60.5518H385.805L385.578 58.3826H381.298C381.354 59.7779 381.429 61.4748 381.429 63.4358H381.41V74.2229H386.333V65.0767C386.333 64.6043 386.408 64.135 386.541 63.8522C386.861 62.9479 387.691 62.0031 389.049 62.0031C390.839 62.0031 391.557 63.3985 391.557 65.4527V74.2415H396.48V64.8498C396.443 60.1726 394.028 58.022 390.783 58.022V58.0252Z" fill="white"/>
<path d="M141.689 89.0283C138.88 87.953 137.652 87.3314 137.652 85.936C137.652 84.8048 138.69 83.8414 140.841 83.8414C142.992 83.8414 144.536 84.463 145.406 84.8794L146.5 80.9015C145.198 80.3358 143.389 79.8075 140.919 79.8075C135.769 79.8075 132.658 82.6542 132.658 86.3898C132.658 89.5783 135.017 91.5766 138.656 92.8384C141.276 93.78 142.314 94.5725 142.314 95.9306C142.314 97.2887 141.108 98.2894 138.843 98.2894C136.729 98.2894 134.694 97.6119 133.354 96.9313L132.354 101.006C133.581 101.683 136.049 102.326 138.538 102.326C144.536 102.326 147.346 99.2155 147.346 95.5546C147.364 92.481 145.552 90.4609 141.686 89.0283H141.689Z" fill="white"/>
<path d="M157.685 93.951C157.458 94.8553 157.213 96.0456 156.967 96.894H156.874C156.684 96.0643 156.364 94.8957 156.1 93.951L153.741 86.1629H148.253L154.061 100.667C154.27 101.043 154.288 101.307 154.288 101.478C154.288 101.705 154.176 101.95 154.024 102.196C153.552 103.007 152.722 103.781 151.989 104.176C151.233 104.648 150.46 104.931 149.838 105.024L150.876 109.21C152.1 109.039 153.931 108.533 155.646 107.041C157.418 105.456 158.947 102.911 161.228 96.6299L164.923 86.2002H159.643L157.682 93.951H157.685Z" fill="white"/>
<path d="M173.901 92.3287C171.959 91.6512 171.338 91.2534 171.338 90.4982C171.338 89.6871 172.018 89.1961 173.224 89.1961C174.601 89.1961 175.959 89.7244 176.674 90.1004L177.559 86.7068C176.577 86.2157 174.939 85.8024 173.09 85.8024C169.168 85.8024 166.642 88.0462 166.642 90.9893C166.604 92.8757 167.866 94.6658 171.148 95.7597C172.997 96.3812 173.488 96.779 173.488 97.5902C173.488 98.4013 172.885 98.911 171.393 98.911C169.902 98.911 168.056 98.2708 167.151 97.7052L166.21 101.251C167.416 101.891 169.265 102.345 171.341 102.345C175.884 102.345 178.206 100.176 178.206 97.2141C178.187 94.8771 176.922 93.3481 173.905 92.3287H173.901Z" fill="white"/>
<path d="M186.709 81.6162L181.879 82.7288V86.1815H179.784V89.8021H181.879V96.2911C181.879 98.5163 182.333 100.045 183.237 100.987C184.011 101.798 185.332 102.345 186.932 102.345C188.328 102.345 189.496 102.196 190.14 101.932L190.102 98.2179C189.745 98.2739 189.272 98.3485 188.651 98.3485C187.162 98.3485 186.709 97.4627 186.709 95.5577V89.8238H190.236V86.2033H186.709V81.6193V81.6162Z" fill="white"/>
<path d="M200.681 85.7869C195.174 85.7869 192.666 90.2372 192.666 94.2555C192.666 99.2155 195.74 102.326 201.135 102.326C203.285 102.326 205.265 102.006 206.869 101.344L206.228 98.0066C204.908 98.423 203.55 98.6468 201.853 98.6468C199.553 98.6468 197.533 97.6679 197.384 95.6292V95.6105H207.605C207.661 95.2531 207.754 94.5166 207.754 93.6682C207.754 89.7835 205.812 85.7838 200.681 85.7838V85.7869ZM197.343 92.2945C197.474 90.9737 198.325 89.0873 200.38 89.0873C202.642 89.0873 203.17 91.0856 203.17 92.2945H197.343Z" fill="white"/>
<path d="M229.31 85.8055C228.16 85.8055 227.178 86.051 226.292 86.5793C225.556 87.0517 224.841 87.6919 224.257 88.4844H224.201C223.523 86.8249 221.901 85.8055 219.862 85.8055C217.127 85.8055 215.732 87.2941 215.055 88.3135H214.961L214.734 86.1629H210.586C210.642 87.5583 210.716 89.2551 210.716 91.2161H210.679V102.003H215.487V92.7793C215.487 92.4033 215.524 91.9309 215.695 91.5549C215.996 90.7438 216.733 89.7834 217.995 89.7834C219.561 89.7834 220.257 91.1415 220.257 93.1398V102.022H225.065V92.7607C225.065 92.3847 225.139 91.8563 225.273 91.4958C225.593 90.5511 226.423 89.7803 227.535 89.7803C229.12 89.7803 229.872 91.1011 229.872 93.4009V102.019H234.68V92.683C234.643 87.9499 232.343 85.7993 229.307 85.7993L229.31 85.8055Z" fill="white"/>
<path d="M247.04 80.2426C245.626 81.5447 245.041 83.6363 245.041 85.56V86.1815H242.965V89.8021H245.041V102.022H249.983V89.8021H253.131V86.1815H249.942V85.3704C249.942 83.8041 250.62 82.5423 252.242 82.5423C252.882 82.5423 253.411 82.6542 253.827 82.7692L254.035 78.9777C253.358 78.7695 252.506 78.6576 251.415 78.6576C250.001 78.639 248.286 79.0523 247.04 80.2426Z" fill="white"/>
<path d="M262.784 85.8055C257.693 85.8055 254.315 89.0873 254.315 94.1965C254.315 99.3057 257.88 102.364 262.519 102.364C266.762 102.364 270.892 99.7035 270.892 93.895C270.873 89.1433 267.647 85.8055 262.784 85.8055ZM262.634 98.855C260.521 98.855 259.39 96.8008 259.39 94.0846C259.39 91.7476 260.276 89.3142 262.634 89.3142C264.993 89.3142 265.783 91.7289 265.783 94.0846C265.783 96.9313 264.555 98.855 262.634 98.855Z" fill="white"/>
<path d="M278.326 89.0842H278.195L278.043 86.1598H273.801C273.857 87.5179 273.931 89.0469 273.931 91.384V102.022H278.854V93.9883C278.854 93.6122 278.891 93.2144 278.947 92.8943C279.267 91.3653 280.495 90.3864 282.304 90.3864C282.851 90.3864 283.283 90.4423 283.624 90.5169V85.877C283.267 85.821 283.04 85.821 282.586 85.821C281.079 85.8024 279.137 86.7845 278.326 89.0842V89.0842Z" fill="white"/>
<path d="M295.978 92.7825H304.011V88.7455H295.978V84.2206H304.502V80.1649H291.018V102.022H304.956V97.9662H295.978V92.7794V92.7825Z" fill="white"/>
<path d="M322.798 96.9313V86.1629H317.838V95.5919C317.838 95.9679 317.8 96.3657 317.667 96.6485C317.347 97.4223 316.554 98.364 315.196 98.364C313.462 98.364 312.726 96.9686 312.726 94.6689V86.1443H307.766V95.4614C307.766 100.347 310.124 102.364 313.35 102.364C316.197 102.364 317.686 100.741 318.31 99.7625H318.403L318.63 102.006H322.91C322.854 100.686 322.798 98.9887 322.798 96.9344V96.9313Z" fill="white"/>
<path d="M331.795 89.0842H331.661L331.512 86.1598H327.267C327.323 87.5179 327.4 89.0469 327.4 91.384V102.022H332.323V93.9883C332.323 93.6122 332.36 93.2144 332.416 92.8943C332.737 91.3653 333.964 90.3864 335.773 90.3864C336.32 90.3864 336.755 90.4423 337.094 90.5169V85.877C336.736 85.821 336.509 85.821 336.056 85.821C334.548 85.8024 332.606 86.7845 331.795 89.0842V89.0842Z" fill="white"/>
<path d="M346.992 85.8055C341.901 85.8055 338.523 89.0873 338.523 94.1965C338.523 99.3057 342.088 102.364 346.728 102.364C350.97 102.364 355.1 99.7035 355.1 93.895C355.1 89.1433 351.859 85.8055 346.992 85.8055V85.8055ZM346.88 98.855C344.785 98.855 343.635 96.8008 343.635 94.0846C343.635 91.7476 344.521 89.3142 346.88 89.3142C349.239 89.3142 350.028 91.7289 350.028 94.0846C350.028 96.9313 348.785 98.855 346.88 98.855Z" fill="white"/>
<path d="M367.888 85.821C365.586 85.821 363.777 86.7068 362.605 88.385H362.549L362.322 86.1784H358.043C358.099 87.6298 358.174 89.423 358.174 91.4958V108.452H363.096V100.586H363.152C363.87 101.643 365.359 102.417 367.282 102.417C370.81 102.417 374.468 99.7003 374.468 93.9292C374.449 88.8387 371.357 85.821 367.888 85.821V85.821ZM366.058 98.5691C364.625 98.5691 363.494 97.5684 363.174 96.2321C363.115 95.9306 363.078 95.5919 363.078 95.1941H363.096V93.0249C363.096 92.7234 363.134 92.4033 363.193 92.1391C363.513 90.6692 364.756 89.6312 366.133 89.6312C368.339 89.6312 369.47 91.5362 369.47 94.0815C369.47 96.779 368.208 98.5691 366.058 98.5691Z" fill="white"/>
<path d="M384.748 85.7869C379.241 85.7869 376.733 90.2372 376.733 94.2555C376.733 99.2155 379.807 102.326 385.202 102.326C387.352 102.326 389.332 102.006 390.936 101.344L390.292 98.0066C388.975 98.423 387.617 98.6468 385.92 98.6468C383.617 98.6468 381.619 97.6679 381.448 95.6292V95.6105H391.65C391.728 95.2531 391.821 94.5166 391.821 93.6682C391.821 89.7835 389.86 85.7838 384.748 85.7838V85.7869ZM381.41 92.2945C381.544 90.9737 382.392 89.0873 384.447 89.0873C386.709 89.0873 387.219 91.0856 387.219 92.2945H381.41Z" fill="white"/>
<path fill-rule="evenodd" clip-rule="evenodd" d="M27.6312 14.3268C24.2188 23.4357 22.1056 32.0349 21.0303 40.1089C44.7177 26.6056 67.3485 25.2662 86.4519 30.3971C94.6751 32.6036 101.804 36.9234 107.405 42.5795C91.4306 24.7005 65.7822 11.8965 27.6312 14.3268Z" fill="white"/>
</g>
<defs>
<clipPath id="clip0_2218_22910">
<rect width="396.551" height="124" fill="white"/>
</clipPath>
</defs>
</svg>
