<svg width="287" height="124" viewBox="0 0 287 124" fill="none" xmlns="http://www.w3.org/2000/svg">
<g clip-path="url(#clip0_2218_22690)">
<path d="M286.022 -0.102787V18.2666H249.993V29.808H279.129V47.4726H249.993V60.4824H286.022V79.4832H225.954V-0.102787H286.022Z" fill="white"/>
<path d="M139.373 79.4685H114.863V-0.117477H139.373V79.4685Z" fill="white"/>
<path d="M65.2823 -0.102787L77.125 45.7986L88.3196 -0.102787H107.071L85.8892 79.4832H65.297L54.1319 35.5934L43.5854 79.4832H22.1242L0.928101 -0.102787H23.9801L35.16 45.7105L46.0453 -0.102787H65.2823V-0.102787Z" fill="white"/>
<path d="M182.325 27.4293C191.649 29.3822 198.248 31.0855 202.166 32.6126C206.084 34.1397 209.339 36.6947 212.02 40.351C214.656 44.0072 215.938 48.3242 215.938 53.2727C215.938 61.0551 212.786 67.4278 206.378 72.2734C199.971 77.1191 191.604 79.5419 181.22 79.5419C162.233 79.5419 150.523 71.7008 146.075 55.9892L168.258 52.0539C170.128 58.2798 174.945 61.4075 182.649 61.4075C188.629 61.4075 191.634 59.8363 191.634 56.6646C191.634 55.0054 190.912 53.6691 189.528 52.7734C188.143 51.819 185.654 51.0114 182.074 50.3065C168.405 47.6928 159.641 44.2715 155.782 40.1013C151.908 35.9165 149.949 30.9827 149.949 25.3295C149.949 18.017 152.777 11.9819 158.315 7.13631C163.913 2.29067 171.896 -0.132153 182.369 -0.132153C198.203 -0.132153 208.661 6.22591 213.787 18.8686L193.991 24.8009C191.928 19.6175 187.775 17.0625 181.515 17.0625C176.3 17.0625 173.723 18.6337 173.723 21.8641C173.723 23.2884 174.297 24.375 175.49 25.1826C176.639 25.9609 178.922 26.7098 182.325 27.4293V27.4293Z" fill="white"/>
<path d="M22.1242 112.566H30.6085V101.964H39.8883V95.5912H30.6085V90.9805H42.6722V84.226H22.1095V112.566H22.1242V112.566ZM69.7896 96.8981C70.4525 95.65 70.7912 94.1963 70.7912 92.5664C70.7912 90.0555 69.878 88.0438 68.0662 86.502C66.2545 84.9749 63.721 84.1967 60.4362 84.1967H45.5887V112.536H54.3234V101.685H57.0779L61.2316 112.536H70.9091L65.7537 100.173C67.7716 99.2475 69.1268 98.1462 69.7896 96.8981ZM60.6866 94.9892C60.0238 95.4444 59.1253 95.6647 58.05 95.6647H54.3234V90.2464H58.3446C60.5835 90.2464 61.703 91.1568 61.703 92.9629C61.703 93.8586 61.3495 94.5193 60.6866 94.9892V94.9892ZM74.1496 112.566H95.5519V105.796H82.7223V101.171H93.092V94.8864H82.7223V90.775H95.5519V84.226H74.1496V112.566V112.566ZM116.895 95.7968C115.467 95.2388 113.051 94.6074 109.648 93.9026C108.411 93.6383 107.571 93.3593 107.144 93.0656C106.702 92.772 106.496 92.3755 106.496 91.8469C106.496 90.6575 107.439 90.0848 109.339 90.0848C111.622 90.0848 113.154 91.0246 113.89 92.9188L121.123 90.7456C119.252 86.1202 115.422 83.7855 109.648 83.7855C105.819 83.7855 102.902 84.6665 100.869 86.4433C98.8366 88.22 97.8203 90.4373 97.8203 93.1097C97.8203 95.1801 98.5421 96.9862 99.9561 98.528C101.37 100.055 104.567 101.318 109.56 102.272C110.871 102.537 111.784 102.83 112.285 103.183C112.786 103.52 113.051 104.005 113.051 104.607C113.051 105.767 111.946 106.354 109.766 106.354C106.953 106.354 105.185 105.209 104.508 102.918L96.4062 104.357C98.0265 110.113 102.313 112.991 109.236 112.991C113.021 112.991 116.085 112.11 118.427 110.334C120.769 108.557 121.918 106.222 121.918 103.374C121.918 101.568 121.447 99.9817 120.489 98.6308C119.517 97.2946 118.324 96.3548 116.895 95.7968V95.7968ZM139.888 94.6515H133.216V84.226H124.481V112.566H133.216V101.538H139.888V112.566H148.623V84.226H139.888V94.6515V94.6515ZM182.87 84.226L178.893 100.569L174.665 84.226H167.816L163.942 100.54L159.965 84.226H151.761L159.317 112.566H166.962L170.718 96.9275L174.695 112.566H182.03L189.542 84.226H182.87ZM197.334 84.226L188.555 112.566H195.64L197.349 106.971H204.964L206.57 112.566H215.481L206.555 84.226H197.334ZM198.837 100.804L201.149 92.5811L203.462 100.804H198.837ZM213.67 91.0099H219.576V112.566H227.854V91.0099H233.761V84.226H213.699V91.0099H213.67V91.0099ZM235.499 112.566H256.901V105.796H244.072V101.171H254.442V94.8864H244.072V90.775H256.901V84.226H235.499V112.566ZM280.822 100.202C282.855 99.2475 284.196 98.1462 284.858 96.8981C285.521 95.65 285.86 94.1963 285.86 92.5664C285.86 90.0555 284.947 88.0438 283.135 86.502C281.323 84.9749 278.79 84.1967 275.505 84.1967H260.657V112.536H269.392V101.685H272.147L276.3 112.536H285.978L280.822 100.202ZM275.755 94.9892C275.093 95.4444 274.194 95.6647 273.119 95.6647H269.392V90.2464H273.413C275.652 90.2464 276.772 91.1568 276.772 92.9629C276.772 93.8586 276.433 94.5193 275.755 94.9892V94.9892Z" fill="white"/>
<path d="M26.6756 120.979H23.4351V124.269H22.0358V116.501H27.1617V117.588H23.4351V119.893H26.6756V120.979V120.979Z" fill="white"/>
<path d="M31.2272 121.273H29.6658V124.269H28.2665V116.501H31.0946C32.0226 116.501 32.7443 116.706 33.2451 117.103C33.7459 117.499 33.9963 118.087 33.9963 118.85C33.9963 119.364 33.8638 119.805 33.5986 120.157C33.3335 120.51 32.98 120.774 32.5086 120.965L34.3204 124.21V124.283H32.818L31.2272 121.273V121.273ZM29.6658 120.187H31.1093C31.5807 120.187 31.9489 120.069 32.214 119.849C32.4792 119.614 32.6117 119.306 32.6117 118.909C32.6117 118.513 32.4939 118.175 32.2435 117.94C31.9931 117.72 31.6396 117.602 31.1535 117.588H29.6805V120.187H29.6658Z" fill="white"/>
<path d="M40.065 120.803H36.7508V123.197H40.6247V124.269H35.3514V116.501H40.5805V117.588H36.7508V119.731H40.065V120.803V120.803Z" fill="white"/>
<path d="M45.9716 122.272C45.9716 121.934 45.839 121.67 45.5886 121.479C45.3382 121.288 44.8963 121.112 44.2482 120.921C43.6001 120.73 43.0846 120.524 42.7016 120.289C41.9651 119.849 41.5969 119.261 41.5969 118.542C41.5969 117.911 41.862 117.397 42.3923 117C42.9226 116.589 43.6149 116.398 44.4544 116.398C45.0142 116.398 45.515 116.501 45.9569 116.692C46.3988 116.897 46.7376 117.176 46.988 117.543C47.2384 117.911 47.3709 118.322 47.3709 118.762H45.9716C45.9716 118.351 45.839 118.043 45.5739 117.808C45.3088 117.573 44.9405 117.455 44.4397 117.455C43.9831 117.455 43.6296 117.543 43.3645 117.734C43.114 117.925 42.9815 118.19 42.9815 118.527C42.9815 118.806 43.114 119.056 43.3939 119.247C43.6738 119.438 44.1157 119.614 44.749 119.805C45.3824 119.981 45.8832 120.187 46.2662 120.421C46.6492 120.642 46.929 120.906 47.1058 121.214C47.2826 121.508 47.3709 121.86 47.3709 122.257C47.3709 122.903 47.1058 123.417 46.5903 123.799C46.0747 124.181 45.3824 124.371 44.4986 124.371C43.9094 124.371 43.3792 124.269 42.8931 124.063C42.407 123.857 42.024 123.564 41.7589 123.197C41.4938 122.83 41.3612 122.404 41.3612 121.919H42.7605C42.7605 122.36 42.9078 122.697 43.2171 122.947C43.5265 123.182 43.9536 123.314 44.5134 123.314C44.9994 123.314 45.3677 123.226 45.6034 123.035C45.8538 122.83 45.9716 122.58 45.9716 122.272V122.272Z" fill="white"/>
<path d="M55.0011 124.269H53.6017V120.818H49.993V124.269H48.5936V116.501H49.993V119.731H53.6017V116.501H55.0011V124.269Z" fill="white"/>
<path d="M62.9844 122.345L64.2217 116.501H65.6063L63.7504 124.269H62.41L60.8781 118.601L59.3167 124.269H57.9763L56.1204 116.501H57.505L58.757 122.345L60.3036 116.501H61.482L62.9844 122.345V122.345Z" fill="white"/>
<path d="M70.909 122.463H67.7863L67.1382 124.269H65.6799L68.729 116.501H69.981L73.0301 124.269H71.5718L70.909 122.463V122.463ZM68.184 121.376H70.526L69.3624 118.146L68.184 121.376Z" fill="white"/>
<path d="M79.1135 117.588H76.5947V124.269H75.2101V117.588H72.7208V116.501H79.1135V117.588V117.588Z" fill="white"/>
<path d="M84.8876 120.803H81.5734V123.197H85.4473V124.269H80.1741V116.501H85.4031V117.588H81.5734V119.731H84.8876V120.803V120.803Z" fill="white"/>
<path d="M89.5421 121.273H87.9808V124.269H86.5814V116.501H89.4095C90.3375 116.501 91.0593 116.706 91.5601 117.103C92.0609 117.499 92.326 118.087 92.326 118.85C92.326 119.364 92.1935 119.805 91.9283 120.157C91.6632 120.51 91.3097 120.774 90.8383 120.965L92.6501 124.21V124.283H91.1476L89.5421 121.273V121.273ZM87.9808 120.187H89.4243C89.8956 120.187 90.2639 120.069 90.529 119.849C90.7941 119.614 90.9267 119.306 90.9267 118.909C90.9267 118.513 90.8089 118.175 90.5585 117.94C90.308 117.72 89.9545 117.602 89.4684 117.588H87.9955V120.187H87.9808Z" fill="white"/>
<path d="M97.9529 124.269H96.5536V116.501H97.9529V124.269Z" fill="white"/>
<path d="M106.069 124.269H104.67L101.076 118.762V124.269H99.6763V116.501H101.076L104.684 122.037V116.501H106.069V124.269Z" fill="white"/>
<path d="M112.373 120.979H109.133V124.269H107.733V116.501H112.859V117.588H109.133V119.893H112.373V120.979V120.979Z" fill="white"/>
<path d="M120.401 120.583C120.401 121.347 120.268 122.007 119.988 122.595C119.709 123.167 119.326 123.608 118.81 123.916C118.309 124.225 117.72 124.371 117.057 124.371C116.394 124.371 115.82 124.225 115.304 123.916C114.789 123.608 114.406 123.167 114.126 122.595C113.846 122.022 113.714 121.376 113.699 120.627V120.187C113.699 119.423 113.831 118.762 114.111 118.175C114.391 117.588 114.789 117.147 115.29 116.839C115.805 116.53 116.38 116.369 117.042 116.369C117.705 116.369 118.28 116.516 118.781 116.824C119.296 117.132 119.679 117.558 119.959 118.131C120.239 118.703 120.371 119.364 120.386 120.128V120.583H120.401ZM119.002 120.187C119.002 119.32 118.825 118.659 118.486 118.204C118.147 117.749 117.676 117.514 117.057 117.514C116.439 117.514 115.982 117.749 115.628 118.204C115.29 118.659 115.113 119.306 115.113 120.142V120.598C115.113 121.449 115.29 122.11 115.628 122.58C115.982 123.05 116.453 123.285 117.072 123.285C117.691 123.285 118.162 123.065 118.501 122.609C118.84 122.154 119.002 121.493 119.002 120.612V120.187V120.187Z" fill="white"/>
<path d="M124.761 121.273H123.2V124.269H121.8V116.501H124.628C125.556 116.501 126.278 116.706 126.779 117.103C127.28 117.499 127.53 118.087 127.53 118.85C127.53 119.364 127.398 119.805 127.132 120.157C126.867 120.51 126.514 120.774 126.042 120.965L127.854 124.21V124.283H126.352L124.761 121.273V121.273ZM123.2 120.187H124.643C125.114 120.187 125.483 120.069 125.748 119.849C126.013 119.614 126.146 119.306 126.146 118.909C126.146 118.513 126.028 118.175 125.777 117.94C125.527 117.72 125.173 117.602 124.687 117.588H123.214V120.187H123.2Z" fill="white"/>
<path d="M130.682 116.501L133.01 122.463L135.322 116.501H137.134V124.269H135.735V121.714L135.867 118.292L133.481 124.283H132.479L130.108 118.307L130.24 121.728V124.283H128.841V116.501H130.682V116.501Z" fill="white"/>
<path d="M143.409 122.463H140.286L139.638 124.269H138.18L141.229 116.501H142.481L145.53 124.269H144.072L143.409 122.463V122.463ZM140.684 121.376H143.026L141.862 118.146L140.684 121.376Z" fill="white"/>
<path d="M151.613 117.588H149.094V124.269H147.71V117.588H145.22V116.501H151.613V117.588V117.588Z" fill="white"/>
<path d="M154.147 124.269H152.747V116.501H154.147V124.269Z" fill="white"/>
<path d="M162.307 120.583C162.307 121.347 162.175 122.007 161.895 122.595C161.615 123.167 161.232 123.608 160.716 123.916C160.216 124.225 159.626 124.371 158.963 124.371C158.301 124.371 157.726 124.225 157.211 123.916C156.695 123.608 156.312 123.167 156.032 122.595C155.752 122.022 155.62 121.376 155.605 120.627V120.187C155.605 119.423 155.738 118.762 156.018 118.175C156.297 117.588 156.695 117.147 157.196 116.839C157.711 116.53 158.286 116.369 158.949 116.369C159.612 116.369 160.186 116.516 160.687 116.824C161.202 117.132 161.585 117.558 161.865 118.131C162.145 118.703 162.278 119.364 162.292 120.128V120.583H162.307ZM160.908 120.187C160.908 119.32 160.731 118.659 160.392 118.204C160.053 117.749 159.582 117.514 158.963 117.514C158.345 117.514 157.888 117.749 157.535 118.204C157.196 118.659 157.019 119.306 157.019 120.142V120.598C157.019 121.449 157.196 122.11 157.535 122.58C157.888 123.05 158.36 123.285 158.978 123.285C159.597 123.285 160.068 123.065 160.407 122.609C160.746 122.154 160.908 121.493 160.908 120.612V120.187Z" fill="white"/>
<path d="M170.099 124.269H168.7L165.106 118.762V124.269H163.706V116.501H165.106L168.715 122.037V116.501H170.099V124.269Z" fill="white"/>
<path d="M178.79 122.272C178.79 121.934 178.657 121.67 178.407 121.479C178.156 121.288 177.714 121.112 177.066 120.921C176.418 120.73 175.903 120.524 175.52 120.289C174.783 119.849 174.415 119.261 174.415 118.542C174.415 117.911 174.68 117.397 175.21 117C175.741 116.589 176.433 116.398 177.272 116.398C177.832 116.398 178.333 116.501 178.775 116.692C179.217 116.897 179.556 117.176 179.806 117.543C180.056 117.911 180.189 118.322 180.189 118.762H178.79C178.79 118.351 178.657 118.043 178.392 117.808C178.127 117.573 177.759 117.455 177.258 117.455C176.801 117.455 176.448 117.543 176.182 117.734C175.932 117.925 175.799 118.19 175.799 118.527C175.799 118.806 175.932 119.056 176.212 119.247C176.492 119.438 176.934 119.614 177.567 119.805C178.2 119.981 178.701 120.187 179.084 120.421C179.467 120.642 179.747 120.906 179.924 121.214C180.101 121.508 180.189 121.86 180.189 122.257C180.189 122.903 179.924 123.417 179.408 123.799C178.893 124.181 178.2 124.371 177.317 124.371C176.727 124.371 176.197 124.269 175.711 124.063C175.225 123.857 174.842 123.564 174.577 123.197C174.312 122.83 174.179 122.404 174.179 121.919H175.579C175.579 122.36 175.726 122.697 176.035 122.947C176.344 123.182 176.772 123.314 177.331 123.314C177.817 123.314 178.186 123.226 178.421 123.035C178.672 122.83 178.79 122.58 178.79 122.272V122.272Z" fill="white"/>
<path d="M184.048 120.187L185.904 116.501H187.451L184.755 121.405V124.269H183.341V121.405L180.631 116.501H182.192L184.048 120.187V120.187Z" fill="white"/>
<path d="M192.459 122.272C192.459 121.934 192.326 121.67 192.076 121.479C191.826 121.288 191.384 121.112 190.736 120.921C190.087 120.73 189.572 120.524 189.189 120.289C188.452 119.849 188.084 119.261 188.084 118.542C188.084 117.911 188.349 117.397 188.88 117C189.41 116.589 190.102 116.398 190.942 116.398C191.501 116.398 192.002 116.501 192.444 116.692C192.886 116.897 193.225 117.176 193.475 117.543C193.726 117.911 193.858 118.322 193.858 118.762H192.459C192.459 118.351 192.326 118.043 192.061 117.808C191.796 117.573 191.428 117.455 190.927 117.455C190.47 117.455 190.117 117.543 189.852 117.734C189.601 117.925 189.469 118.19 189.469 118.527C189.469 118.806 189.601 119.056 189.881 119.247C190.161 119.438 190.603 119.614 191.236 119.805C191.87 119.981 192.371 120.187 192.754 120.421C193.136 120.642 193.416 120.906 193.593 121.214C193.77 121.508 193.858 121.86 193.858 122.257C193.858 122.903 193.593 123.417 193.078 123.799C192.562 124.181 191.87 124.371 190.986 124.371C190.397 124.371 189.866 124.269 189.38 124.063C188.894 123.857 188.511 123.564 188.246 123.197C187.981 122.83 187.849 122.404 187.849 121.919H189.248C189.248 122.36 189.395 122.697 189.704 122.947C190.014 123.182 190.441 123.314 191.001 123.314C191.487 123.314 191.855 123.226 192.091 123.035C192.326 122.83 192.459 122.58 192.459 122.272V122.272Z" fill="white"/>
<path d="M200.914 117.588H198.395V124.269H197.01V117.588H194.521V116.501H200.914V117.588Z" fill="white"/>
<path d="M206.688 120.803H203.373V123.197H207.247V124.269H201.974V116.501H207.203V117.588H203.373V119.731H206.688V120.803V120.803Z" fill="white"/>
<path d="M210.193 116.501L212.521 122.463L214.833 116.501H216.645V124.269H215.246V121.714L215.378 118.292L212.992 124.283H211.99L209.619 118.307L209.752 121.728V124.283H208.382V116.501H210.193V116.501Z" fill="white"/>
<path d="M225.778 120.979H222.537V124.269H221.138V116.501H226.264V117.588H222.537V119.893H225.778V120.979V120.979Z" fill="white"/>
<path d="M233.805 120.583C233.805 121.347 233.673 122.007 233.393 122.595C233.113 123.167 232.73 123.608 232.214 123.916C231.714 124.225 231.124 124.371 230.462 124.371C229.799 124.371 229.224 124.225 228.709 123.916C228.193 123.608 227.81 123.167 227.53 122.595C227.25 122.022 227.118 121.376 227.103 120.627V120.187C227.103 119.423 227.236 118.762 227.516 118.175C227.795 117.588 228.193 117.147 228.694 116.839C229.209 116.53 229.784 116.369 230.447 116.369C231.11 116.369 231.684 116.516 232.185 116.824C232.7 117.132 233.083 117.558 233.363 118.131C233.643 118.703 233.776 119.364 233.79 120.128V120.583H233.805ZM232.406 120.187C232.406 119.32 232.229 118.659 231.89 118.204C231.552 117.749 231.08 117.514 230.462 117.514C229.843 117.514 229.386 117.749 229.033 118.204C228.694 118.659 228.517 119.306 228.517 120.142V120.598C228.517 121.449 228.694 122.11 229.033 122.58C229.386 123.05 229.858 123.285 230.476 123.285C231.095 123.285 231.566 123.065 231.905 122.609C232.244 122.154 232.406 121.493 232.406 120.612V120.187Z" fill="white"/>
<path d="M238.165 121.273H236.604V124.269H235.205V116.501H238.033C238.961 116.501 239.682 116.706 240.183 117.103C240.684 117.499 240.934 118.087 240.934 118.85C240.934 119.364 240.802 119.805 240.537 120.157C240.272 120.51 239.918 120.774 239.447 120.965L241.258 124.21V124.283H239.756L238.165 121.273V121.273ZM236.604 120.187H238.047C238.519 120.187 238.887 120.069 239.152 119.849C239.417 119.614 239.55 119.306 239.55 118.909C239.55 118.513 239.432 118.175 239.182 117.94C238.931 117.72 238.578 117.602 238.092 117.588H236.619V120.187H236.604Z" fill="white"/>
<path d="M249.816 120.803H246.502V123.197H250.376V124.269H245.103V116.501H250.332V117.588H246.502V119.731H249.816V120.803V120.803Z" fill="white"/>
<path d="M257.402 116.501V121.699C257.402 122.521 257.122 123.182 256.577 123.667C256.032 124.151 255.296 124.386 254.397 124.386C253.499 124.386 252.748 124.151 252.203 123.681C251.658 123.211 251.392 122.551 251.392 121.699V116.501H252.792V121.699C252.792 122.213 252.924 122.609 253.204 122.888C253.484 123.167 253.882 123.3 254.412 123.3C255.487 123.3 256.032 122.756 256.032 121.655V116.501H257.402V116.501Z" fill="white"/>
<path d="M261.865 121.273H260.304V124.269H258.905V116.501H261.733C262.661 116.501 263.382 116.706 263.883 117.103C264.384 117.499 264.649 118.087 264.649 118.85C264.649 119.364 264.517 119.805 264.251 120.157C263.986 120.51 263.633 120.774 263.161 120.965L264.973 124.21V124.283H263.471L261.865 121.273V121.273ZM260.304 120.187H261.747C262.219 120.187 262.587 120.069 262.852 119.849C263.117 119.614 263.25 119.306 263.25 118.909C263.25 118.513 263.132 118.175 262.882 117.94C262.631 117.72 262.278 117.602 261.792 117.588H260.319V120.187H260.304Z" fill="white"/>
<path d="M272.412 120.583C272.412 121.347 272.279 122.007 271.999 122.595C271.719 123.167 271.336 123.608 270.821 123.916C270.32 124.225 269.731 124.371 269.068 124.371C268.405 124.371 267.831 124.225 267.315 123.916C266.8 123.608 266.417 123.167 266.137 122.595C265.857 122.022 265.724 121.376 265.71 120.627V120.187C265.71 119.423 265.842 118.762 266.122 118.175C266.402 117.588 266.8 117.147 267.301 116.839C267.816 116.53 268.391 116.369 269.053 116.369C269.716 116.369 270.291 116.516 270.791 116.824C271.307 117.132 271.69 117.558 271.97 118.131C272.25 118.703 272.382 119.364 272.397 120.128V120.583H272.412ZM271.012 120.187C271.012 119.32 270.836 118.659 270.497 118.204C270.158 117.749 269.687 117.514 269.068 117.514C268.449 117.514 267.993 117.749 267.639 118.204C267.301 118.659 267.124 119.306 267.124 120.142V120.598C267.124 121.449 267.301 122.11 267.639 122.58C267.993 123.05 268.464 123.285 269.083 123.285C269.701 123.285 270.173 123.065 270.512 122.609C270.85 122.154 271.012 121.493 271.012 120.612V120.187Z" fill="white"/>
<path d="M275.21 121.376V124.269H273.811V116.501H276.89C277.788 116.501 278.51 116.721 279.025 117.176C279.556 117.632 279.821 118.219 279.821 118.968C279.821 119.717 279.556 120.319 279.04 120.745C278.525 121.17 277.803 121.376 276.86 121.376H275.21V121.376ZM275.21 120.304H276.89C277.39 120.304 277.773 120.187 278.024 119.966C278.289 119.746 278.422 119.408 278.422 118.982C278.422 118.557 278.289 118.234 278.024 117.984C277.759 117.734 277.39 117.602 276.934 117.588H275.21V120.304V120.304Z" fill="white"/>
<path d="M285.771 120.803H282.457V123.197H286.331V124.269H281.058V116.501H286.287V117.588H282.457V119.731H285.771V120.803V120.803Z" fill="white"/>
</g>
<defs>
<clipPath id="clip0_2218_22690">
<rect width="286.541" height="124" fill="white"/>
</clipPath>
</defs>
</svg>
