<svg width="240" height="124" viewBox="0 0 240 124" fill="none" xmlns="http://www.w3.org/2000/svg">
<g clip-path="url(#clip0_2118_22439)">
<path d="M238.948 70.6304V79.9304H220.336V85.746H235.451V95.046H220.336V101.444H238.948V111.327H208.134V70.618H238.948V70.6304Z" fill="#054D7F"/>
<path fill-rule="evenodd" clip-rule="evenodd" d="M79.2235 111.327L81.7159 103.304H92.8015L95.1451 111.327H108.116L95.1203 70.618H81.6911L66.2407 111.327H79.2235V111.327ZM83.8735 94.426L87.2339 82.6212L88.9079 88.5236L90.5819 94.426H83.8735V94.426Z" fill="#054D7F"/>
<path d="M19.716 111.327V70.618H35.6004L41.3168 91.5988L47.0332 70.618H62.7564V111.327H52.1172V82.9312L44.9748 111.327H37.51L30.5288 82.9312V111.327H19.716Z" fill="#054D7F"/>
<path d="M163.928 111.327H151.714V70.618H163.928V111.327Z" fill="#054D7F"/>
<path fill-rule="evenodd" clip-rule="evenodd" d="M146.246 88.8584C147.2 87.0604 147.672 84.9772 147.672 82.6336C147.672 79.0376 146.37 76.136 143.766 73.9288C141.162 71.734 137.541 70.6304 132.841 70.6304H111.588V111.34H123.802V95.6412H128.042L133.994 111.34H147.845L140.467 93.5828C143.369 92.2312 145.303 90.6564 146.246 88.8584ZM133.226 86.1056C132.271 86.7504 131.006 86.9116 129.456 86.9116H123.826V79.3476H129.89C133.089 79.3476 134.689 80.6 134.689 83.204C134.652 84.4812 134.168 85.436 133.226 86.1056V86.1056Z" fill="#054D7F"/>
<path d="M168.578 70.6304V111.34H179.056V87.0356L192.981 111.327H203.459V70.618H193.44V92.07L180.928 70.618H168.578V70.6304Z" fill="#054D7F"/>
<path fill-rule="evenodd" clip-rule="evenodd" d="M92.2933 103.304C92.3305 103.106 92.4173 102.932 92.6405 102.796C92.9257 102.622 93.0249 102.734 93.1613 102.883H93.1737C94.5129 104.358 96.3605 104.346 96.9433 104.346H97.0177C97.2285 104.346 97.3153 104.532 97.4145 104.743C97.5385 105.016 97.6873 105.326 98.1337 105.326C98.7785 105.326 98.7165 104.247 98.6173 103.701C99.2125 103.304 99.3737 102.957 99.4977 102.722C99.5721 102.573 99.6217 102.474 99.7457 102.412C99.8573 102.35 100.018 102.424 100.18 102.498C100.477 102.622 100.812 102.771 101.023 102.25C101.345 101.444 100.378 101.122 99.7457 100.948C99.3613 100.849 99.0389 100.415 98.7413 100.006C98.5305 99.7208 98.3445 99.4604 98.1461 99.3364C97.6625 99.014 97.1912 98.5304 97.9848 98.5304C98.7784 98.5304 99.9069 97.8856 98.6297 97.5632C97.3525 97.2408 96.224 97.5632 95.5916 97.8856C95.2568 98.0592 95.1825 98.0468 95.0213 98.022C94.8849 97.9972 94.6741 97.9724 94.1533 98.0468C93.5457 98.1336 93.1737 98.27 92.8885 98.3816C92.6405 98.4684 92.4545 98.5428 92.2437 98.5428C92.0329 98.5428 91.9212 98.4808 91.7848 98.4064C91.6112 98.3196 91.4129 98.208 90.9665 98.208C90.0737 98.208 89.0444 98.6916 89.528 99.3364C89.714 99.5844 90.1852 99.758 90.6316 99.9316C90.9416 100.056 91.2517 100.167 91.4501 100.304C91.9337 100.626 91.8097 101.308 91.2889 101.928C91.0657 102.201 90.7557 102.734 90.7929 103.304H92.2933V103.304Z" fill="#A3ABC8"/>
<path fill-rule="evenodd" clip-rule="evenodd" d="M84.0224 93.9052L83.8736 94.426H83.8984C83.7992 94.5624 83.6504 94.5996 83.4024 94.4632C82.5468 93.992 81.9144 92.6776 81.716 92.0824C81.592 91.1524 82.0756 90.2348 82.4352 89.7884C83.204 88.8336 83.39 87.792 82.6708 87.2836C82.3732 87.0852 81.9268 86.8992 81.4556 86.7132C80.7736 86.4404 80.0792 86.1552 79.8064 85.7832C79.0872 84.7788 80.6372 84.0348 81.9516 84.0348C82.6212 84.0348 82.9188 84.196 83.1668 84.3324C83.3652 84.444 83.5388 84.5308 83.8488 84.5308C84.1588 84.5308 84.4564 84.4316 84.816 84.2828C85.25 84.1216 85.808 83.9108 86.7132 83.7744C86.7876 83.762 86.8496 83.7496 86.9116 83.7496L84.8532 91.0036C84.754 91.0036 84.63 91.0408 84.4688 91.14C84.0844 91.388 83.948 91.698 83.9232 92.0824C83.8984 92.1816 83.9232 92.4296 83.9604 92.7396C83.9976 93.1116 84.0348 93.558 84.0224 93.9052V93.9052ZM90.334 93.5456C90.5572 93.558 90.7432 93.5456 90.8796 93.5456H90.9912C91.3012 93.5456 91.4376 93.8308 91.5864 94.1532C91.7724 94.5748 91.9956 95.046 92.6652 95.046C93.62 95.046 93.5456 93.3844 93.3844 92.5412C94.2772 91.9212 94.5128 91.4004 94.6864 91.0284C94.7856 90.8052 94.8724 90.6316 95.046 90.5448C95.2196 90.458 95.4552 90.5572 95.7032 90.6688C96.1496 90.8672 96.6456 91.0904 96.9556 90.2968C97.4268 89.0444 96.0008 88.5484 95.046 88.3004C94.4756 88.1516 93.992 87.4696 93.5456 86.8372C93.2356 86.4032 92.9504 85.994 92.6652 85.7956C91.946 85.2996 91.2392 84.5432 92.4296 84.5432C93.62 84.5432 95.294 83.5388 93.3844 83.0428C91.4748 82.5468 89.8132 83.0428 88.8584 83.5388C88.35 83.7992 88.2508 83.7868 88.0152 83.7496C87.9036 83.7372 87.7672 83.7124 87.544 83.7124L88.908 88.5236L90.334 93.5456V93.5456Z" fill="#A3ABC8"/>
<path fill-rule="evenodd" clip-rule="evenodd" d="M33.914 96.72L33.6412 95.6164C33.7156 95.5668 33.8148 95.5172 33.9264 95.4924C34.2612 95.4056 34.5092 95.666 34.782 95.9388C35.0548 96.2116 35.34 96.5092 35.7616 96.5092C36.6048 96.5216 36.4312 96.0132 35.774 95.5048C35.6748 95.4304 35.5756 95.356 35.4764 95.2816C34.9308 94.8848 34.472 94.55 34.6208 93.992C34.7944 93.3224 35.6252 93.496 35.96 93.8308C36.2948 94.1656 36.4684 93.8308 36.6296 93.1612C36.8032 92.4916 37.3116 91.9956 37.8076 92.1692C38.3036 92.3428 38.4648 93.5208 38.2912 94.3516C38.1796 94.9096 38.3656 94.8724 38.7996 94.7856C39.0228 94.7484 39.2956 94.6864 39.6304 94.6988C40.6348 94.7112 40.796 95.046 40.796 95.2072C40.796 95.4428 40.3744 95.5172 39.7916 95.3684C39.122 95.1948 38.1176 95.852 37.6092 96.5216C37.1008 97.1912 38.6136 97.03 39.2832 96.8688C39.9528 96.7076 40.114 97.5508 39.1096 97.5384C38.1052 97.526 37.1008 97.8608 36.7536 98.518C36.4188 99.1876 38.254 98.8652 38.5888 98.704C38.9236 98.5428 39.928 98.5428 39.5932 99.0512C39.4072 99.324 38.564 99.51 37.6216 99.7084C37.1628 99.8076 36.6792 99.9068 36.2328 100.031C35.8112 100.142 35.3896 100.49 34.9556 100.948L34.4596 98.9396C34.6952 98.9768 34.8936 98.9272 34.906 98.5056C34.906 97.836 34.9184 97.3276 34.0876 96.8192C34.0132 96.7944 33.9636 96.7572 33.914 96.72V96.72ZM35.4888 103.131C35.774 103.007 36.1212 102.945 36.394 102.932C37.0016 102.895 37.8572 102.424 37.6712 101.742C37.4852 101.06 36.518 101.06 36.208 101.271C35.9972 101.407 35.4764 101.63 35.1292 101.618L35.4888 103.131V103.131Z" fill="#A3ABC8"/>
<path fill-rule="evenodd" clip-rule="evenodd" d="M24.9612 111.327H30.5164V109.628C29.9832 110.199 29.326 110.682 28.6316 110.782C26.8956 111.03 27.3048 109.517 28.0984 108.76C28.1356 108.723 28.1728 108.686 28.21 108.649C28.9664 107.93 29.636 107.297 29.1648 106.727C28.6316 106.094 27.838 106.479 27.5652 106.975C27.1312 107.793 26.4988 107.359 26.8956 106.727C26.9948 106.578 27.1064 106.417 27.2304 106.256C27.6148 105.735 28.024 105.189 27.8256 104.706C27.5652 104.073 26.7592 104.321 26.4988 104.458C26.2384 104.582 25.4324 104.842 25.9656 103.701C26.4988 102.56 25.9656 102.052 25.7052 101.928C25.4448 101.804 24.6388 101.804 24.242 102.312C23.8452 102.821 23.498 102.126 23.8452 101.804C24.242 101.42 24.3784 100.924 24.1056 100.787C23.8328 100.651 23.374 100.812 23.1756 101.296C22.9152 101.928 22.2456 102.052 21.9728 101.172C21.7124 100.291 20.9064 100.031 20.3732 100.539C20.1128 100.787 19.84 101.296 20.2368 101.804C20.584 102.238 20.6336 102.573 19.716 102.585V104.408C19.8648 104.396 20.0384 104.371 20.2368 104.334C21.4024 104.135 21.3156 104.718 21.1668 105.214C21.0304 105.673 21.0304 106.479 21.7 106.863C21.948 107.012 22.2704 106.962 22.5432 106.925C22.8036 106.888 23.0268 106.863 23.1632 106.987C23.3492 107.173 23.188 107.434 23.0392 107.682C22.816 108.041 22.6176 108.376 23.56 108.376H24.1676C25.482 108.364 26.4368 108.351 26.0896 109.008C25.9284 109.318 25.5688 109.48 25.2216 109.641C24.7008 109.876 24.2048 110.1 24.3536 110.782C24.4156 111.017 24.6388 111.191 24.9612 111.327Z" fill="#A3ABC8"/>
<path fill-rule="evenodd" clip-rule="evenodd" d="M52.1172 88.598C52.4024 88.2508 52.4892 88.0896 52.6008 87.8044C52.7248 87.4572 52.8488 86.7504 52.8488 86.3288C52.8488 85.9072 52.7496 85.4112 52.5016 84.7664L52.4768 84.692C52.4396 84.5928 52.4024 84.4936 52.39 84.444C52.328 84.2704 52.2412 83.9852 52.2164 83.8736C52.142 83.576 52.1916 83.0676 52.3404 82.6088C52.3776 82.4724 52.4272 82.336 52.4892 82.1996C52.7744 82.7328 52.9356 83.1048 53.0596 83.5512C53.1712 83.9604 53.2332 84.2952 53.258 84.7664C53.2952 85.4484 53.2456 85.994 53.1092 86.428C53.072 86.5396 52.9976 86.738 52.9356 86.862C52.7992 87.1596 52.7496 87.3332 52.7496 87.5316C52.7372 87.978 52.8116 88.3996 52.9604 88.7096C53.0596 88.9328 53.1836 89.094 53.444 89.3668C53.568 89.4908 53.6424 89.5404 53.692 89.528C53.7292 89.5156 53.754 89.466 53.7664 89.404C53.7664 89.2924 53.7292 89.218 53.5308 89.0072C53.3076 88.7592 53.2084 88.6352 53.134 88.4244C53.072 88.2508 53.0224 87.9036 53.0348 87.6308C53.0348 87.482 53.072 87.3828 53.2084 87.0852C53.382 86.6884 53.4936 86.304 53.5308 85.8452C53.5556 85.87 53.5928 85.87 53.6176 85.8328C53.6424 85.7956 53.6548 85.746 53.6672 85.4856C53.6672 85.374 53.7044 85.1384 53.7416 84.8532C53.7788 84.6052 53.816 84.3448 53.816 84.2828C53.8532 83.7744 53.7912 83.3032 53.6176 82.956C53.4812 82.6832 53.444 82.5716 53.4316 82.3608C53.3944 82.026 53.4192 81.7656 53.5184 81.5424C53.5432 81.5672 53.568 81.592 53.5928 81.6168C53.7788 81.8152 53.94 82.0136 54.0268 82.15C54.1756 82.3856 54.2376 82.6584 54.2376 83.0428C54.2376 83.2536 54.2128 83.3652 54.1012 83.6504C53.9648 84.0224 53.94 84.4936 54.0268 85.002C54.0392 85.064 54.1012 85.3244 54.1508 85.5724C54.2128 85.8576 54.2624 86.0808 54.2872 86.1924C54.3244 86.4528 54.3368 86.5024 54.3616 86.5272C54.3988 86.5644 54.4484 86.552 54.4608 86.5024C54.4732 86.4652 54.4608 86.242 54.4236 86.0436C54.4112 85.9816 54.3492 85.7212 54.2996 85.4856C54.2376 85.25 54.188 84.9772 54.1756 84.8904C54.1012 84.4564 54.1384 84.1216 54.2748 83.7248V84.0348C54.2996 85.002 54.4608 85.6592 54.8204 86.2916C54.9816 86.5768 55.0188 86.6636 55.0436 86.8124C55.0808 87.0728 55.0684 87.4324 55.0188 87.606C54.9568 87.8168 54.8824 87.9532 54.684 88.226C54.498 88.4616 54.4732 88.5236 54.4856 88.6476C54.498 88.6972 54.5352 88.7592 54.56 88.7592C54.6096 88.7716 54.6716 88.7096 54.7832 88.5732C55.0188 88.288 55.118 88.1144 55.2048 87.8788C55.2296 87.8044 55.2544 87.7176 55.2792 87.6184C55.3536 87.9036 55.4404 88.1888 55.5272 88.3748C55.676 88.6972 55.8 88.8584 56.2588 89.2924C56.6184 89.6396 56.6308 89.652 56.6804 89.6396C56.73 89.6272 56.7548 89.59 56.7548 89.5156C56.7672 89.3668 56.6928 89.28 56.2464 88.8584C56.0356 88.66 55.986 88.598 55.8992 88.474C55.738 88.2508 55.6264 87.9408 55.5148 87.5068C55.4156 87.11 55.4032 86.9364 55.4032 86.6636C55.4156 86.4528 55.428 86.3164 55.4776 86.0436C55.49 85.9568 55.5024 85.9072 55.5148 85.8576C55.5396 85.7708 55.5644 85.6716 55.6264 85.4236V85.374C55.8248 84.6548 55.8496 84.444 55.8124 84.072C55.7628 83.6132 55.6388 83.2288 55.4032 82.7328C55.2668 82.4476 55.1552 82.274 54.87 81.8276C54.9444 81.6044 55.0436 81.3688 55.18 81.0712C55.18 81.096 55.1924 81.1208 55.2048 81.1456C55.2792 81.406 55.3784 81.592 55.6016 81.8524C55.5272 82.1996 55.5396 82.522 55.6388 82.7204C55.8 83.0304 55.8496 83.2288 55.8992 83.6132C55.9612 84.1836 55.9116 84.7664 55.7752 85.1136C55.7132 85.2748 55.7132 85.3368 55.7752 85.3492C55.8124 85.3616 55.8248 85.3492 55.8496 85.312C55.9488 85.1756 56.048 84.8036 56.0728 84.4564C56.0852 84.3572 56.0852 84.2332 56.0852 84.1216C56.11 84.1836 56.1596 84.2456 56.2092 84.3324C56.544 84.9028 56.668 85.374 56.544 85.7088C56.5192 85.7708 56.482 85.8452 56.4572 85.8824C56.4076 85.9568 56.3828 86.0188 56.3952 86.0684C56.3952 86.0808 56.4076 86.1056 56.42 86.118C56.3704 86.2668 56.3332 86.4156 56.3084 86.5892C56.2464 86.986 56.2712 87.2464 56.4076 87.5812C56.4572 87.6928 56.5192 87.8664 56.5564 87.9904C56.5936 88.1144 56.6432 88.2632 56.668 88.3376C56.7424 88.5484 56.8044 88.598 56.8912 88.5112C56.9532 88.4492 56.9656 88.35 56.9408 88.2384C56.916 88.1268 56.7176 87.5688 56.6308 87.3704C56.544 87.1596 56.5068 86.9612 56.5316 86.738C56.5564 86.4652 56.668 86.1304 56.8292 85.8452C57.0276 85.498 57.04 85.4856 57.0524 85.3616C57.0896 85.1384 57.0772 84.8904 57.0028 84.692C56.9532 84.5556 56.8664 84.4068 56.7176 84.2084C56.3952 83.7868 56.3332 83.6008 56.3704 83.3032C56.3952 83.0924 56.4696 82.9064 56.6184 82.6584C57.0028 83.1792 57.2136 83.5636 57.2632 83.8736C57.2756 83.9356 57.2756 83.9976 57.288 84.1092C57.288 84.2208 57.288 84.3324 57.3004 84.444V84.5928C57.3128 84.9524 57.3004 85.064 57.2508 85.3492C57.1888 85.7088 57.1268 86.242 57.1144 86.4404C57.102 86.862 57.2136 87.1472 57.598 87.7424C57.722 87.9408 57.8584 88.164 57.9204 88.3128C57.9948 88.4864 58.0692 88.7468 58.094 88.9452C58.1312 89.1684 58.156 89.2428 58.2056 89.2924C58.2924 89.3668 58.3668 89.3048 58.3792 89.1684C58.3792 89.0444 58.342 88.8088 58.2676 88.5608C58.156 88.164 58.0816 88.0028 57.7468 87.482C57.4988 87.0976 57.4492 86.986 57.3996 86.8124C57.3748 86.7132 57.3624 86.6512 57.3748 86.5644C57.3748 86.4032 57.4492 85.8452 57.4988 85.5228C57.5236 85.4112 57.536 85.2872 57.5484 85.2004C57.5608 85.2252 57.5856 85.2376 57.598 85.2624C57.6724 85.3492 57.7344 85.374 57.7716 85.3244C57.8336 85.2624 57.8212 85.1756 57.7096 85.064C57.6476 85.002 57.598 84.9152 57.5484 84.816C57.5484 84.5184 57.5236 84.1092 57.5112 83.9852C57.4988 83.8984 57.4864 83.7992 57.4492 83.7C57.4616 83.6256 57.4864 83.5636 57.4988 83.514C57.5112 83.4768 57.598 83.2908 57.6972 83.1172C57.846 82.832 57.9204 82.6708 57.9576 82.5096C57.9824 82.646 57.9824 82.7824 57.9452 82.9932C57.8956 83.4272 57.8956 83.8364 57.9452 84.1092C57.97 84.2704 57.9948 84.32 58.1188 84.5432C58.1932 84.692 58.2304 84.754 58.28 84.9276C58.3792 85.2624 58.4164 85.5104 58.404 86.1676C58.3916 86.2172 58.3668 86.2792 58.3544 86.3288C58.2924 86.5892 58.3296 86.7876 58.5032 87.0356C58.6024 87.1844 58.6272 87.2464 58.652 87.3704C58.6768 87.5068 58.7512 87.544 58.8256 87.4696C58.8752 87.42 58.8752 87.4076 58.9 87.3084C58.9124 87.2092 58.9124 87.1844 58.8876 87.0852C58.8628 86.9984 58.838 86.9364 58.7512 86.8124C58.6272 86.614 58.6024 86.5644 58.6024 86.4652C58.6024 86.3784 58.6024 86.366 58.7388 86.0188C59.0488 85.2252 59.1108 84.444 58.9496 83.7C58.8876 83.4024 58.8008 83.142 58.6272 82.6832C58.466 82.274 58.4288 82.1004 58.4288 81.9392C58.4288 81.902 58.4412 81.8524 58.4536 81.7904C58.528 82.0632 58.6768 82.3732 59.2596 83.4396C59.83 84.4812 59.9664 84.9648 59.8424 85.5104C59.8052 85.6716 59.7804 85.7336 59.6316 86.056C59.458 86.4156 59.396 86.7132 59.3836 87.2092V87.7176C59.396 87.916 59.4084 87.9656 59.458 88.1764C59.5572 88.5608 59.6688 88.7964 59.8796 89.0444C59.9416 89.1188 60.0284 89.2304 60.0904 89.3048C60.2392 89.4908 60.3012 89.5404 60.3508 89.528C60.4624 89.5032 60.4376 89.3172 60.326 89.1436C60.2888 89.094 60.202 88.9824 60.1276 88.8956C59.9292 88.66 59.8672 88.5608 59.7804 88.3376C59.7184 88.1764 59.6688 87.9408 59.6564 87.7424C59.644 87.5068 59.6688 87.0604 59.6936 86.862C59.7308 86.6388 59.768 86.5148 59.9168 86.2296C60.1276 85.7832 60.202 85.436 60.1524 85.0144C60.14 84.8904 60.1276 84.816 60.0532 84.5928C59.9292 84.1464 59.7928 83.8612 59.1728 82.7328C58.8628 82.1624 58.7884 82.0136 58.7264 81.7904C58.6892 81.654 58.6644 81.5672 58.6644 81.4928C58.652 81.2572 58.6768 81.034 58.7512 80.7364C58.7884 80.6 58.8256 80.4884 58.8504 80.3768L58.9124 80.166H58.9868C59.7432 79.67 60.1028 78.678 59.4952 76.9544C58.8876 75.2308 56.482 73.7428 53.4812 73.8916C49.9596 74.0528 48.7568 75.6896 47.9384 77.0164C47.3308 78.0084 47.4796 79.4964 47.9012 79.9924L47.9384 79.9676C48.0128 79.9304 48.05 79.9056 48.0872 79.8932C48.0996 79.9056 48.112 79.9056 48.1368 79.918C48.112 80.042 48.0996 80.2776 48.112 80.4512C48.1368 80.7736 48.236 81.0712 48.546 81.8772C48.4964 82.026 48.4096 82.2244 48.2732 82.5468C47.7648 83.7248 47.6532 84.0224 47.5664 84.4812C47.5292 84.7044 47.5168 84.7912 47.5168 84.9152C47.5168 85.3492 47.616 85.684 47.864 86.1056C48.0252 86.3784 48.0748 86.49 48.1368 86.7132C48.1864 86.8992 48.2484 87.3456 48.2608 87.5812C48.2732 87.7672 48.236 88.0152 48.1988 88.1764C48.1368 88.3996 48.0872 88.5112 47.9012 88.7592C47.8392 88.8584 47.7524 88.97 47.7276 89.0196C47.6284 89.2056 47.6284 89.3916 47.74 89.4164C47.802 89.4288 47.8516 89.3668 47.988 89.1684C48.0376 89.094 48.112 88.97 48.174 88.8956C48.36 88.6352 48.4468 88.3872 48.5088 87.9904C48.546 87.7796 48.546 87.73 48.5336 87.5316C48.5336 87.4076 48.5088 87.1844 48.4964 87.0232C48.4344 86.5272 48.3476 86.242 48.1368 85.8948C47.9508 85.5848 47.926 85.5352 47.8764 85.374C47.7028 84.8408 47.7896 84.3572 48.2608 83.266C48.4592 82.8072 48.5956 82.4848 48.6948 82.2368C48.9304 82.8444 48.9924 83.018 49.0172 83.1296C49.042 83.2908 49.0048 83.4644 48.8932 83.886C48.7692 84.3572 48.7072 84.6176 48.67 84.9276C48.5832 85.684 48.7196 86.4652 49.104 87.2216C49.2652 87.544 49.2776 87.5688 49.2776 87.6556C49.29 87.7548 49.2652 87.8044 49.1536 88.0152C49.0792 88.1516 49.0544 88.2136 49.042 88.3004C49.0296 88.3996 49.0296 88.4368 49.0544 88.5236C49.0792 88.6228 49.0916 88.6352 49.1412 88.6724C49.228 88.7468 49.29 88.6972 49.3024 88.5608C49.3148 88.4244 49.3396 88.3624 49.4264 88.2136C49.5752 87.9408 49.5876 87.7548 49.5008 87.4944C49.476 87.42 49.4264 87.3084 49.4016 87.2588C49.0544 86.6264 48.8932 86.0064 48.9056 85.4112C48.918 85.0392 48.9676 84.754 49.1164 84.2084C49.2652 83.6752 49.3024 83.4644 49.29 83.2412C49.2776 83.0304 49.228 82.8816 48.8312 81.8772C48.8932 81.7036 48.9056 81.5796 48.918 81.4432C48.9552 81.0092 48.8932 80.6124 48.6824 80.1164L48.5832 79.8684L48.6948 79.8064C48.6948 79.8064 48.7196 79.794 48.732 79.7816C48.794 79.794 48.856 79.8064 48.918 79.8188C49.042 79.8808 49.166 79.9304 49.2776 79.9552C49.4264 80.0048 49.4388 80.0048 49.4512 80.0668C49.4636 80.104 49.5008 80.1908 49.5256 80.2528C49.5876 80.3892 49.6868 80.724 49.7364 80.9348C49.6992 81.034 49.662 81.1332 49.6 81.2572C49.2776 81.9888 49.2404 82.2368 49.3644 82.8196C49.3768 82.8816 49.3892 82.9436 49.4016 83.018C49.4016 83.142 49.414 83.2536 49.4512 83.3776C49.4636 83.5512 49.4636 83.7124 49.4636 83.824C49.4512 83.8984 49.4388 83.948 49.3768 84.1092C49.3396 84.2208 49.2776 84.3696 49.2528 84.444C49.166 84.7416 49.1412 85.126 49.166 85.5104C49.1908 85.8204 49.2652 86.5644 49.29 86.5892C49.3148 86.6264 49.352 86.6264 49.3892 86.6016C49.4388 86.552 49.4388 86.4404 49.3892 85.994C49.3148 85.2376 49.3148 84.9772 49.3892 84.6176C49.4264 84.444 49.4388 84.382 49.5132 84.2208C49.6 84.01 49.6248 83.9356 49.6372 83.7992C49.6868 83.9108 49.7612 84.0348 49.8728 84.196C49.9844 84.3696 50.0836 84.5308 50.1084 84.568C50.1208 84.5928 50.1332 84.6176 50.1332 84.6424C50.1332 84.692 50.1456 84.7292 50.1456 84.754C50.158 84.816 50.1952 84.9772 50.2324 85.1136C50.2448 85.1508 50.2572 85.188 50.2696 85.2376C50.2944 85.5848 50.2076 85.9196 50.0588 86.118C49.972 86.242 49.9596 86.3164 50.0216 86.3784C50.0712 86.4156 50.1208 86.3908 50.1828 86.304C50.282 86.1676 50.3564 85.994 50.3936 85.7956C50.4308 85.9444 50.4556 86.0808 50.4556 86.1428C50.468 86.2296 50.468 86.2916 50.4556 86.4032C50.4308 86.5768 50.3812 86.7008 50.1828 87.0976C49.91 87.6432 49.8356 87.8168 49.7612 88.2136C49.7116 88.474 49.6868 88.7096 49.7116 88.8336C49.7364 88.97 49.8108 89.0196 49.8976 88.9452C49.9472 88.8832 49.972 88.8212 49.9844 88.5856C49.9968 88.3872 50.0464 88.1144 50.1084 87.9408C50.158 87.7796 50.2572 87.544 50.3688 87.3456C50.6664 86.7876 50.7656 86.49 50.7408 86.1428C50.7532 86.2172 50.7656 86.2792 50.778 86.3412C50.8152 86.4652 50.8152 86.4776 51.0508 86.8C51.0632 86.8124 51.0632 86.8248 51.0756 86.8372L51.1624 86.4776C51.026 86.2792 51.0012 86.2172 51.0012 86.1056C50.9888 85.9196 51.0384 85.7584 51.212 85.4856C51.2616 85.5724 51.336 85.6468 51.3608 85.6592H51.3732L51.4228 85.4484C51.4228 85.4484 51.398 85.4112 51.3732 85.3864C51.3608 85.3616 51.336 85.3368 51.3112 85.2996C51.4104 85.126 51.46 85.0268 51.4972 84.8904C51.584 84.5928 51.5716 84.2952 51.4352 83.9604C51.4476 83.9232 51.4724 83.886 51.4848 83.8364C51.6336 83.5264 51.6584 83.4644 51.6832 83.2908C51.7204 83.0676 51.6956 82.956 51.5468 82.5964C51.4352 82.3236 51.398 82.212 51.4104 82.088C51.6336 82.4228 51.7328 82.646 51.8072 82.9436C51.8444 83.08 51.8568 83.1668 51.8568 83.2536C51.8568 83.2784 51.8568 83.3156 51.8444 83.3404C51.832 83.4272 51.7948 83.5264 51.7452 83.6876C51.6832 83.8612 51.6336 84.2208 51.6212 84.506V84.6548L52.0552 82.9312V84.6176C52.0552 84.6176 52.1048 84.754 52.1296 84.8284V84.878C52.2288 85.126 52.266 85.2128 52.2908 85.2996C52.3032 85.3492 52.328 85.3988 52.3404 85.4856C52.4148 85.746 52.452 85.8824 52.4768 86.0932C52.514 86.366 52.5016 86.5396 52.452 86.9488C52.39 87.3828 52.3032 87.7052 52.1668 87.9408C52.1296 88.0152 52.0924 88.0648 52.0428 88.1268V88.598H52.1172V88.598ZM52.1172 86.2544C52.1172 86.2544 52.142 86.2544 52.1544 86.242C52.2164 86.2172 52.204 86.1552 52.1296 86.0064C52.1296 86.0064 52.1296 85.994 52.1172 85.994V86.2544V86.2544ZM50.1084 80.476C50.158 80.2652 50.1704 80.0916 50.158 79.9428C50.2572 79.9552 50.3564 79.9552 50.468 79.9676C50.4432 80.1164 50.406 80.3272 50.3936 80.476C50.2944 81.2572 50.3192 81.9144 50.468 82.4972C50.4184 82.5964 50.3688 82.6832 50.344 82.77C50.22 83.08 50.1456 83.3652 50.1456 83.6256C50.1456 83.7124 50.158 83.9976 50.1704 84.2704C50.1332 84.2208 50.096 84.1588 50.0464 84.072C49.8356 83.762 49.7736 83.6256 49.724 83.4396C49.724 83.4272 49.7116 83.4148 49.7116 83.39C49.6992 83.266 49.6868 83.1172 49.662 82.9808V82.9436C49.6744 82.6956 49.7116 82.5716 49.8976 82.088C50.034 81.7408 50.0588 81.5548 50.034 81.22C50.0216 81.1456 50.0092 81.0464 49.9968 80.9472C50.034 80.7736 50.0712 80.6248 50.1084 80.476V80.476ZM50.654 82.1376C50.5672 81.5052 50.6044 80.7736 50.7656 79.98H50.9144C51.0384 80.166 51.1004 80.3024 51.15 80.4388C51.1624 80.476 51.1748 80.5132 51.1748 80.5628C51.088 80.8728 51.0756 81.1456 51.1252 81.3812C51.1252 81.3812 51.0384 81.53 50.9888 81.6168C50.8648 81.778 50.7532 81.964 50.654 82.1376ZM51.3236 80.0668C51.3236 80.0668 51.2988 80.0172 51.2864 79.9924H51.3608L51.336 80.042C51.336 80.042 51.3236 80.0668 51.3236 80.0792V80.0668ZM51.5096 80.1412C51.5344 80.0668 51.5592 80.0172 51.5716 79.9676H52.0056C51.894 80.1784 51.8444 80.3644 51.8444 80.538C51.832 80.7116 51.8444 80.848 51.894 81.0216C51.8692 81.0712 51.832 81.1084 51.7948 81.158C51.584 81.4308 51.4848 81.5796 51.4228 81.6912C51.3856 81.6292 51.3608 81.5796 51.336 81.5424C51.3608 81.5052 51.3732 81.468 51.3856 81.4432C51.4104 81.3812 51.4104 81.3316 51.4228 81.2324C51.4724 80.8976 51.4724 80.6124 51.4104 80.352C51.4476 80.29 51.4724 80.2156 51.5096 80.1412ZM52.2784 80.1908C52.2784 80.1908 52.3652 80.0544 52.4148 79.9552C52.5636 79.9552 52.7248 79.9428 52.886 79.9304H52.9108C52.9356 80.0296 52.948 80.1164 52.948 80.2032C52.9604 80.3024 52.948 80.352 52.9108 80.538L52.8736 80.7488L52.638 81.1952C52.5636 81.344 52.4892 81.468 52.4396 81.5672C52.2412 81.2076 52.1668 81.0588 52.1296 80.91C52.1792 80.7984 52.2164 80.6868 52.2412 80.5504C52.266 80.4512 52.2784 80.3272 52.2784 80.1908V80.1908ZM53.444 79.918H53.4688C53.7044 79.9056 53.9276 79.9056 54.126 79.8932C54.126 80.0172 54.1136 80.0916 54.064 80.228C54.002 80.3892 53.9276 80.5132 53.7788 80.7116C53.6176 80.91 53.4936 81.0836 53.4068 81.2324C53.3448 81.1456 53.2952 81.0712 53.2456 80.9844C53.1836 80.848 53.1588 80.7736 53.1588 80.6496V80.6124C53.1712 80.5256 53.1836 80.4388 53.196 80.3644C53.2084 80.3024 53.2332 80.2404 53.258 80.1784C53.2952 80.0916 53.3324 79.9924 53.3324 79.9676C53.3324 79.9676 53.3696 79.9511 53.444 79.918V79.918ZM54.4608 80.2652C54.498 80.1164 54.5104 79.9924 54.5352 79.8808C54.7708 79.8808 54.994 79.8808 55.1924 79.8684L55.1676 79.98C55.118 80.166 55.0808 80.3396 55.0684 80.5008C55.0312 80.5752 54.994 80.662 54.9568 80.7736C54.8204 81.0836 54.7088 81.3316 54.622 81.5548L54.5228 81.406L54.4608 81.1952C54.4112 81.0216 54.3988 80.9596 54.3988 80.8604C54.3988 80.6868 54.4112 80.5132 54.4608 80.2652V80.2652ZM55.4776 79.918C55.614 79.9428 55.738 79.9304 55.8372 79.8808H56.0356C56.0852 80.0172 56.11 80.1536 56.11 80.2528C56.0604 80.3644 56.0232 80.4388 55.9984 80.5504C55.9612 80.662 55.9488 80.7736 55.9364 80.8852L55.8992 80.9596C55.7504 81.2448 55.6636 81.4432 55.6016 81.654C55.366 81.3812 55.2668 81.1456 55.242 80.8232C55.3784 80.5008 55.428 80.3768 55.4652 80.1908C55.4652 80.0916 55.4776 80.0048 55.4776 79.918V79.918ZM56.2464 80.0048C56.2464 80.0048 56.234 79.9304 56.2216 79.8932H56.3084L56.2588 79.98V80.0048H56.2464ZM56.482 80.2776C56.5564 80.1412 56.6432 79.98 56.668 79.918H56.6928C56.7796 80.4264 56.8044 80.8852 56.7672 81.3192C56.7424 81.6416 56.668 81.9268 56.544 82.1624C56.5192 82.1376 56.4944 82.1128 56.482 82.0756C56.42 82.0012 56.3456 81.902 56.3208 81.8648C56.1968 81.6788 56.1472 81.2448 56.2092 80.9224C56.2464 80.7364 56.3208 80.5628 56.482 80.2776ZM57.4864 80.0296C57.4864 80.0296 57.5732 79.9924 57.6228 79.9552C57.97 79.98 58.1808 79.98 58.3668 79.9428C58.4288 79.9676 58.4908 80.0048 58.5156 80.0172L58.6396 80.0668L58.5652 80.3272C58.4908 80.5628 58.4536 80.7736 58.4288 80.972C58.2056 81.7284 58.1808 81.8648 58.1932 82.0632C58.1932 82.2864 58.2552 82.4848 58.4536 83.0056C58.652 83.5264 58.7264 83.8116 58.776 84.1836C58.838 84.6796 58.776 85.2004 58.59 85.7336C58.5776 85.3492 58.5156 84.9896 58.404 84.7168C58.3792 84.6424 58.3048 84.4936 58.2552 84.3944C58.1808 84.2456 58.156 84.196 58.1436 84.1216C58.094 83.886 58.094 83.4644 58.1436 83.1048C58.1932 82.7204 58.1808 82.4724 58.0568 82.1624C58.0816 81.9392 58.0568 81.7284 57.9948 81.5176C57.9576 81.3564 57.8956 81.2324 57.722 80.8976C57.5236 80.538 57.474 80.352 57.4864 80.0296V80.0296ZM48.6948 81.3812C48.6948 81.3812 48.7072 81.2696 48.7072 81.22C48.6948 80.91 48.6204 80.6248 48.4344 80.1784C48.422 80.3024 48.422 80.4016 48.4344 80.5504C48.4592 80.7364 48.5088 80.91 48.6948 81.3812ZM49.972 79.9552C49.8604 79.98 49.7488 79.9924 49.6744 79.98C49.6496 79.98 49.662 79.9924 49.6992 80.0792C49.7612 80.228 49.8356 80.4264 49.8852 80.6372C49.91 80.5752 49.9224 80.5008 49.9348 80.4388C49.972 80.2776 49.9844 80.2156 49.9844 80.1164C49.9844 80.0544 49.9844 80.0048 49.972 79.9552ZM49.848 81.2076C49.848 81.2076 49.8108 81.2944 49.7984 81.3316C49.6372 81.716 49.5752 81.8524 49.5504 82.0136C49.5256 82.15 49.5256 82.2616 49.538 82.4104C49.5628 82.2988 49.6124 82.1748 49.6992 81.9516C49.8232 81.6416 49.8728 81.468 49.848 81.2076V81.2076ZM50.5548 82.8816C50.4556 83.1172 50.3936 83.3032 50.3812 83.4768C50.3688 83.5884 50.3812 83.7496 50.406 84.196C50.4308 84.5556 50.4432 84.6548 50.5176 84.94C50.6044 85.2872 50.7284 85.8204 50.7532 86.0188V86.0436C50.7532 85.9196 50.7656 85.7956 50.7904 85.6964C50.8276 85.5476 50.902 85.3988 51.026 85.188C51.0508 85.1508 51.0756 85.1136 51.088 85.0764C51.0756 84.9276 51.0756 84.7788 51.1128 84.5928C51.1376 84.4316 51.1872 84.2828 51.2368 84.1092C51.1748 83.9356 51.0756 83.762 50.9144 83.5636C50.7532 83.328 50.6416 83.142 50.5548 82.8816V82.8816ZM51.3856 83.7496C51.2988 83.576 51.1872 83.4024 51.088 83.2908C50.9268 83.0924 50.7904 82.8444 50.716 82.5344C50.8276 82.3236 50.9764 82.088 51.15 81.8276H51.1624C51.1624 81.8276 51.212 81.7408 51.2244 81.716C51.2492 81.7656 51.2864 81.8276 51.336 81.902C51.336 81.9144 51.3236 81.9392 51.3236 81.964C51.2988 82.0715 51.2947 82.1748 51.3112 82.274C51.3236 82.4104 51.3484 82.4724 51.4476 82.7204C51.584 83.0552 51.5964 83.142 51.5716 83.3032C51.5592 83.39 51.5344 83.452 51.4476 83.6256C51.4228 83.6628 51.4104 83.7124 51.3856 83.7496V83.7496ZM51.2492 84.7664C51.2616 84.6548 51.274 84.5308 51.3112 84.3944C51.3236 84.506 51.3112 84.6176 51.2492 84.7664ZM51.9808 82.7824C52.0304 82.584 52.0924 82.3856 52.1792 82.1624C52.2164 82.0632 52.2536 81.9764 52.2908 81.8772C52.2784 81.8524 52.266 81.8276 52.2412 81.7904C52.08 81.5052 52.0056 81.3564 51.9436 81.22C51.9064 81.2696 51.8692 81.3316 51.8196 81.3936C51.646 81.6168 51.5592 81.7532 51.5096 81.8524H51.522C51.708 82.15 51.8196 82.3484 51.9064 82.5716C51.9312 82.646 51.956 82.7204 51.9808 82.7824V82.7824ZM52.5884 81.8772C52.9604 82.5468 53.0968 82.894 53.258 83.4644C53.3944 83.9604 53.444 84.2084 53.4812 84.7912C53.4812 84.878 53.4936 84.9648 53.4936 85.0516C53.506 84.9772 53.5184 84.8904 53.5308 84.8036C53.568 84.5556 53.5928 84.2952 53.6052 84.2084C53.63 83.762 53.568 83.4148 53.382 83.0304C53.3324 82.9188 53.2704 82.7824 53.258 82.708C53.2208 82.5468 53.1836 82.2988 53.196 82.1128C53.196 81.902 53.258 81.6168 53.32 81.4556C53.3324 81.4432 53.3324 81.4184 53.3448 81.406C53.2332 81.2696 53.1712 81.1456 53.1092 80.9844C53.1092 80.972 53.0968 80.9596 53.0968 80.9472C53.0596 81.0464 52.9976 81.1456 52.9108 81.3192C52.7744 81.5176 52.6752 81.7036 52.5884 81.8772V81.8772ZM53.5308 81.3688C53.5308 81.3688 53.568 81.406 53.5928 81.4308C53.8656 81.716 54.0392 81.9392 54.1384 82.1252C54.2004 82.2492 54.2748 82.4724 54.2996 82.6708C54.3492 82.3732 54.4112 82.1376 54.498 81.8896C54.3368 81.654 54.2996 81.5672 54.2252 81.3688C54.1384 81.096 54.1012 80.8356 54.126 80.5256C54.064 80.6372 53.9896 80.7488 53.878 80.8852C53.7292 81.0588 53.6052 81.2448 53.5308 81.3688V81.3688ZM54.684 82.1624C54.622 82.3608 54.5848 82.5468 54.5476 82.7452C54.4732 83.1668 54.4484 83.5016 54.4608 83.9728C54.4856 84.6548 54.5848 85.2004 54.7708 85.622C54.808 85.7212 54.9072 85.9196 54.9816 86.0436C55.0188 86.118 55.056 86.18 55.0808 86.242C55.118 85.9816 55.1676 85.684 55.2668 85.3492L55.2916 85.2748C55.3164 85.1756 55.3412 85.064 55.366 85.0144C55.4156 84.8408 55.4776 84.5432 55.49 84.4316C55.5272 84.1216 55.4404 83.6256 55.2544 83.1916C55.118 82.8816 54.9196 82.5344 54.684 82.1624V82.1624ZM55.9116 81.2448C55.8124 81.4556 55.738 81.6168 55.7008 81.7904C56.0356 82.1624 56.0852 82.2368 56.1472 82.4476C56.1803 82.5551 56.1968 82.6584 56.1968 82.7576V82.7948C56.2464 82.6584 56.3208 82.5096 56.3952 82.398C56.3704 82.3608 56.3456 82.336 56.3208 82.2988H56.3084C56.1596 82.1004 56.0976 82.026 56.0604 81.9516C56.0356 81.902 56.0232 81.84 55.9984 81.7408C55.9488 81.5672 55.924 81.406 55.9116 81.2448ZM56.73 82.3856C56.9408 82.6708 57.1268 82.9436 57.226 83.142C57.2756 83.2412 57.3252 83.3404 57.3624 83.4272C57.3996 83.3156 57.4616 83.204 57.5732 82.9808C57.7468 82.646 57.8088 82.5096 57.846 82.3112C57.8584 82.2616 57.8584 82.212 57.8708 82.1624C57.8212 82.0508 57.7468 81.9144 57.6228 81.6788C57.412 81.3068 57.3128 81.096 57.2384 80.8356C57.1392 80.538 57.1268 80.29 57.1764 80.0916L57.2012 80.0048L57.1144 79.9676C57.1144 79.9676 57.0524 79.9428 57.0028 79.918C57.0896 80.5008 57.102 81.0216 57.0152 81.5052C56.9408 81.8896 56.8664 82.1376 56.73 82.3856V82.3856ZM57.3376 80.2032C57.3128 80.2776 57.3004 80.3768 57.3128 80.4884C57.3252 80.5752 57.3376 80.6496 57.3872 80.7984C57.4616 81.034 57.5484 81.2324 57.7344 81.5548C57.784 81.6292 57.8212 81.7036 57.8584 81.778C57.8212 81.5548 57.7716 81.4184 57.5484 80.9844C57.3872 80.6744 57.3376 80.5008 57.3376 80.2032V80.2032ZM56.048 83.39C55.986 83.6008 55.9984 83.6752 56.0356 83.8116C56.0604 83.8984 56.0852 83.9604 56.1844 84.1216C56.3952 84.4812 56.5192 84.7416 56.606 85.0392C56.6432 85.188 56.668 85.3244 56.6804 85.4484C56.7672 85.2872 56.7796 85.2376 56.7672 85.1384C56.7672 84.9524 56.6928 84.7912 56.482 84.5184C56.2836 84.2456 56.2092 84.134 56.1472 83.9604C56.0728 83.7744 56.0356 83.5884 56.048 83.39ZM55.6512 82.0012V82.0384C55.6016 82.3484 55.614 82.4104 55.7876 82.77C55.8372 82.8692 55.8744 83.0304 55.924 83.1916C55.9364 83.1668 55.9364 83.1296 55.9488 83.0924C56.048 82.7576 56.0604 82.6584 56.0232 82.4972C55.9736 82.3732 55.8992 82.274 55.6512 82.0012Z" fill="#A3ABC8"/>
<path fill-rule="evenodd" clip-rule="evenodd" d="M151.714 87.11C152.83 87.4696 153.624 87.9036 154.206 88.2136C154.628 88.4492 154.95 88.6228 155.211 88.6724C155.694 88.7592 156.674 88.4988 157.418 88.3004C157.852 88.1888 158.212 88.0896 158.348 88.0896C158.732 88.102 158.856 88.3376 158.05 89.0072C157.976 89.0692 157.902 89.1312 157.827 89.1932C157.22 89.6892 157.145 89.7512 157.48 90.396C157.84 91.1152 158.199 91.946 157.43 91.5616C157.145 91.4252 156.823 91.1772 156.5 90.9292C155.955 90.52 155.384 90.0736 154.901 90.0612C154.653 90.0488 154.343 90.1728 153.946 90.334C153.4 90.5572 152.681 90.8424 151.726 90.954V87.11H151.714Z" fill="#A3ABC8"/>
<path fill-rule="evenodd" clip-rule="evenodd" d="M154.194 78.5292C154.591 79.4468 159.204 82.1252 163.928 83.2536V75.826C160.543 75.764 157.294 76.4212 155.843 76.8552C154.678 77.1528 153.735 77.4752 154.194 78.5292V78.5292ZM157.53 78.182C157.852 78.182 158.112 77.9216 158.112 77.5992C158.112 77.2768 157.852 77.0164 157.53 77.0164C157.207 77.0164 156.947 77.2768 156.947 77.5992C156.947 77.9216 157.207 78.182 157.53 78.182Z" fill="#A3ABC8"/>
<path fill-rule="evenodd" clip-rule="evenodd" d="M211.78 111.327H208.122V103.937C208.642 104.619 209.3 105.226 211.804 104.346C215.5 103.056 214.532 100.812 213.578 99.8448C213.379 99.6464 213.119 99.4108 212.821 99.1628C211.656 98.1336 210.13 96.7944 211.804 96.7944C212.92 96.7944 213.801 97.2532 214.681 97.6996C215.45 98.0964 216.206 98.4932 217.112 98.5676C217.905 98.6296 219.244 98.8404 220.336 99.1504V101.457H220.683C218.166 102.784 216.678 104.073 215.177 106.615C213.565 109.343 211.321 109.666 210.354 109.666C209.783 109.653 210.775 110.546 211.78 111.327V111.327Z" fill="#A3ABC8"/>
<path fill-rule="evenodd" clip-rule="evenodd" d="M208.122 81.2324C209.709 81.1332 210.825 80.5752 211.643 80.166C212.127 79.918 212.511 79.732 212.809 79.732C213.404 79.732 214.136 80.29 214.818 80.8356C215.227 81.158 215.636 81.468 215.983 81.6416C216.938 82.1252 216.467 81.0092 215.983 80.0544C215.549 79.1988 215.636 79.112 216.355 78.4052C216.43 78.3308 216.516 78.244 216.616 78.1448C217.57 77.19 217.409 76.8676 216.938 76.8676C216.764 76.8676 216.33 77.0164 215.81 77.2024C214.904 77.5124 213.726 77.9216 213.119 77.8224C212.796 77.7728 212.4 77.5496 211.866 77.252C211.023 76.7932 209.845 76.136 208.122 75.6896V81.2324V81.2324Z" fill="#A3ABC8"/>
<path fill-rule="evenodd" clip-rule="evenodd" d="M146.246 88.8584C146.63 88.1268 146.94 87.358 147.163 86.5396C145.861 86.6016 144.72 86.8 144.125 86.9612C143.468 87.11 142.947 87.2712 143.183 87.854C143.307 88.1764 144.361 88.9328 145.774 89.6148C145.96 89.3668 146.109 89.1188 146.246 88.8584V88.8584ZM144.782 87.6928C144.956 87.6928 145.105 87.544 145.105 87.3704C145.105 87.1968 144.956 87.048 144.782 87.048C144.609 87.048 144.46 87.1968 144.46 87.3704C144.46 87.544 144.609 87.6928 144.782 87.6928Z" fill="#A3ABC8"/>
<path fill-rule="evenodd" clip-rule="evenodd" d="M128.278 94.2772C127.869 94.5624 127.348 95.0708 127.286 95.6412H125.885C125.81 95.5544 125.711 95.48 125.587 95.418C124.508 94.8476 124.161 94.2896 124.508 93.7192C124.868 93.1488 125.587 93.3472 125.934 93.7192C126.294 94.0912 127.013 93.1488 127.187 92.7768C127.36 92.4048 128.266 91.8344 128.799 92.4048C129.357 92.9504 128.824 93.8928 128.278 94.2772V94.2772ZM123.802 96.4596C123.727 96.3852 123.603 96.3232 123.467 96.286C123.219 96.224 123.107 96.348 122.946 96.5464C122.946 96.5464 122.847 96.6704 122.772 96.7448C122.5 97.03 122.214 97.3276 121.793 97.3276C120.962 97.3276 121.123 96.8068 121.793 96.286C121.855 96.2364 121.917 96.1868 121.979 96.1372L122.09 96.0504C122.636 95.6412 123.095 95.3064 122.946 94.7112C122.785 94.0168 121.954 94.1904 121.619 94.5376C121.284 94.8848 121.123 94.5376 120.95 93.8432C120.788 93.1488 120.28 92.628 119.784 92.8016C119.288 92.9752 119.114 94.1904 119.288 95.0708C119.4 95.6536 119.214 95.6164 118.78 95.5172C118.569 95.4676 118.284 95.418 117.961 95.418C116.969 95.418 116.796 95.7652 116.796 95.9388C116.796 96.1868 117.205 96.2612 117.788 96.1124C118.457 95.9388 119.449 96.6332 119.945 97.3276C120.441 98.022 118.953 97.8484 118.284 97.6748C117.614 97.5012 117.453 98.3692 118.445 98.3692C119.437 98.3692 120.441 98.7164 120.764 99.4108C121.086 100.105 119.263 99.758 118.941 99.5844C118.606 99.4108 117.614 99.4108 117.949 99.9316C118.135 100.217 118.966 100.415 119.896 100.626C120.131 100.676 120.367 100.738 120.602 100.8C120.826 100.862 121.049 100.911 121.26 100.973C122.09 101.221 122.983 102.461 123.752 103.664V102.201C123.479 101.618 123.541 101.048 123.752 100.676V99.6712C123.64 99.696 123.529 99.7332 123.417 99.758C123.417 99.758 123.33 99.7828 123.281 99.7952C122.958 99.8944 122.586 100.006 122.586 99.4108V99.1132C122.562 98.5552 122.549 98.1088 123.256 97.6748C123.492 97.526 123.653 97.3772 123.764 97.216V96.4596H123.802V96.4596ZM123.802 106.392C123.69 106.38 123.578 106.318 123.467 106.206C123.144 105.859 123.182 105.524 123.219 105.127C123.256 104.73 123.306 104.296 122.971 103.763C122.537 103.081 122.388 103.292 122.152 103.614C122.028 103.788 121.88 103.999 121.644 104.11C120.974 104.458 120.813 104.284 120.974 103.59C121.136 102.895 120.478 101.32 119.982 102.722C119.486 104.11 120.144 105.164 121.644 105.685C123.144 106.206 122.475 107.768 121.644 107.768C120.813 107.768 120.652 107.942 120.478 108.289C120.268 108.736 120.64 109.678 121.979 109.504C123.306 109.331 123.64 110.372 122.475 110.72C122.078 110.844 121.954 111.067 121.966 111.315H123.814V106.392H123.802V106.392ZM132.668 107.818C133.461 107.657 133.226 106.801 132.395 106.64C132.333 106.628 132.271 106.615 132.209 106.603L132.668 107.818ZM131.725 105.338C131.986 105.152 132.469 105.065 133.312 105.276C135.346 105.784 135.532 104.42 134.788 103.726C134.044 103.044 134.044 102.35 134.416 102.35C134.54 102.35 134.676 102.461 134.838 102.585C135.185 102.858 135.644 103.205 136.264 102.858C137.194 102.35 136.636 101.147 136.264 100.452C135.892 99.7704 136.636 99.5968 137.008 100.105C137.38 100.626 138.297 101.308 138.669 100.787C139.041 100.266 139.041 99.758 138.297 99.5844C137.553 99.4108 137.008 99.2372 137.367 99.0636C137.739 98.89 138.843 98.3816 137.925 97.6872C136.995 97.0052 136.45 97.5136 136.264 97.6872C136.214 97.7244 136.164 97.8236 136.102 97.9476C135.892 98.3196 135.582 98.9024 135.16 98.3816C134.602 97.6996 134.23 97.526 133.87 97.526C133.511 97.526 133.312 98.208 133.87 98.9024C134.428 99.5844 134.428 100.105 134.056 99.9316C133.957 99.882 133.846 99.7456 133.709 99.572C133.337 99.1008 132.779 98.394 131.824 98.9024C130.535 99.5844 131.452 100.787 132.01 101.134C132.568 101.482 132.382 101.99 132.01 101.99C131.899 101.99 131.787 101.866 131.651 101.717C131.366 101.395 130.956 100.961 130.2 101.333L131.725 105.338V105.338Z" fill="#A3ABC8"/>
<path fill-rule="evenodd" clip-rule="evenodd" d="M168.578 83.7248C170.897 83.5884 172.533 82.8692 173.724 82.3484C174.443 82.026 174.989 81.7904 175.435 81.7904C176.315 81.7904 177.369 82.5468 178.386 83.2536C178.994 83.6752 179.577 84.0968 180.097 84.3324C181.499 84.9648 180.804 83.4892 180.11 82.2244C179.49 81.0836 179.614 80.972 180.668 80.042C180.779 79.9428 180.916 79.8312 181.052 79.7072C182.466 78.4548 182.23 78.0332 181.523 78.0208C181.263 78.0208 180.631 78.2192 179.862 78.4548C178.535 78.864 176.799 79.3972 175.919 79.2608C175.447 79.1864 174.865 78.8888 174.083 78.5044C172.843 77.8844 171.132 77.0164 168.578 76.4088V83.7248V83.7248Z" fill="#A3ABC8"/>
<path fill-rule="evenodd" clip-rule="evenodd" d="M203.472 101.854C200.248 100.998 195.61 99.9688 191.704 99.3736C188.753 98.9148 187.141 99.2248 186.322 99.7084L190.923 107.744C194.494 109.132 199.305 110.558 202.504 111.34H203.459V101.854H203.472Z" fill="#A3ABC8"/>
<path fill-rule="evenodd" clip-rule="evenodd" d="M199.442 76.0864C200.223 75.826 201.748 75.454 203.472 75.33V80.4264C200.83 79.4716 198.549 77.9464 198.326 77.3636C198.003 76.5576 198.636 76.3096 199.442 76.0864ZM200.359 77.2644C200.533 77.2644 200.682 77.1156 200.682 76.942C200.682 76.7684 200.533 76.6196 200.359 76.6196C200.186 76.6196 200.037 76.7684 200.037 76.942C200.037 77.1156 200.173 77.2644 200.359 77.2644Z" fill="#A3ABC8"/>
<path d="M238.948 -0.309987V14.8056H208.704V24.6884L233.132 24.6512V39.2212H208.704V50.2696H238.948V65.968H188.939V-0.322388H238.948V-0.309987Z" fill="#054D7F"/>
<path d="M153.276 22.6424C161.002 24.2668 166.482 25.6804 169.731 26.9452C172.98 28.21 175.683 30.3428 177.903 33.3808C180.085 36.4188 181.152 40.0148 181.152 44.1316C181.152 50.6168 178.535 55.8992 173.228 59.9292C167.921 63.9592 160.977 65.968 152.371 65.968C136.636 65.968 126.914 59.4456 123.231 46.376L141.633 43.1024C143.183 48.2732 147.188 50.8896 153.562 50.8896C158.522 50.8896 161.014 49.5876 161.014 46.934C161.014 45.5452 160.419 44.4416 159.266 43.6976C158.112 42.904 156.054 42.2344 153.078 41.6392C141.744 39.4692 134.478 36.6172 131.266 33.1452C128.055 29.6732 126.43 25.5564 126.43 20.8568C126.43 14.7684 128.774 9.7588 133.374 5.7288C138.012 1.6988 144.634 -0.309998 153.314 -0.309998C166.433 -0.309998 175.125 4.9848 179.366 15.4876L162.948 20.4228C161.25 16.12 157.79 13.9872 152.607 13.9872C148.279 13.9872 146.146 15.2892 146.146 17.98C146.146 19.1704 146.618 20.0756 147.61 20.7452C148.564 21.4148 150.462 22.0472 153.276 22.6424V22.6424Z" fill="#054D7F"/>
<path d="M116.833 65.9804H96.4845V-0.309998H116.833V65.9804V65.9804Z" fill="#054D7F"/>
<path d="M55.738 -0.309998L65.5712 37.9192L74.8712 -0.309998H90.458L72.8624 65.9804H55.7628L46.4876 29.4252L37.7208 65.9804H19.7284L2.28162 -0.309998H21.4272L30.7148 37.8448L39.7544 -0.309998H55.738V-0.309998Z" fill="#054D7F"/>
<path fill-rule="evenodd" clip-rule="evenodd" d="M188.939 40.4116V39.37L189.708 38.8244V35.3896C189.757 35.1168 189.869 34.5836 190.352 34.5836C190.737 34.5836 190.836 35.1168 190.836 35.3896V38.8864L203.732 50.2696L208.729 46.7728V48.0748L204.625 51.0508L215.785 60.9088H216.851C217.496 60.9088 218.302 61.07 217.496 62.1984C216.926 62.992 216.405 64.8644 216.132 65.9804H188.951V52.2412H189.72V39.9156L188.939 40.4116V40.4116ZM209.126 50.282H209.771V50.3688C210.143 50.5052 210.416 50.8524 210.416 51.274C210.416 51.6956 210.143 52.0552 209.771 52.1792V52.4024C210.044 52.4396 210.416 52.6132 210.416 53.0348V53.196C210.428 53.6424 210.453 54.1632 209.448 54.1632C209.238 54.1632 208.804 54.1012 208.804 53.8408C208.804 53.5184 209.126 53.5184 209.448 53.5184C209.771 53.5184 210.093 53.196 209.61 52.8736C209.337 52.7 209.225 52.6132 209.176 52.5512H209.138V52.1792C208.766 52.0428 208.494 51.6956 208.494 51.274C208.494 50.8524 208.766 50.4928 209.138 50.3688V50.282H209.126V50.282ZM191.22 52.3652C191.22 52.3652 191.282 52.4892 191.307 52.5512C191.568 53.32 191.196 53.94 190.985 54.1508V59.1604L193.713 57.2508V48.608L191.22 52.3652V52.3652ZM190.824 51.708L193.713 47.1448V45.6444C193.762 45.3716 193.874 44.8384 194.358 44.8384C194.742 44.8384 194.841 45.3716 194.841 45.6444V46.438L202.343 51.212L202.914 50.8152L190.824 39.8412V51.708V51.708ZM201.525 51.7948L194.841 47.616V56.4696L201.525 51.7948ZM192.498 59.8424L193.713 58.962V59.9292L192.498 59.8424V59.8424ZM206.683 60.9088H214.024L203.806 51.6336L194.841 58.1436V60.016L206.683 60.9088Z" fill="#A3ABC8"/>
<path fill-rule="evenodd" clip-rule="evenodd" d="M181.152 44.082L163.457 54.2128L171.876 55.6884V51.5096C171.666 51.3484 171.232 50.902 171.232 50.3812C171.232 49.8604 171.976 49.6372 172.36 49.5752H180.457C180.346 50.0092 180.209 50.4432 180.06 50.8648H178.944V52.4644H179.416C178.101 55.304 176.043 57.784 173.228 59.9292C171.108 61.5288 168.739 62.8184 166.11 63.7856C163.506 61.8512 161.15 56.7796 160.716 55.8248C160.679 55.7504 160.654 55.7008 160.654 55.676C160.605 55.5892 160.506 55.4776 160.382 55.366C160.072 55.0684 159.675 54.6964 160.022 54.2252C160.406 53.7168 161.361 53.7912 161.783 53.9028L162.093 53.9524L181.152 42.966C181.139 43.338 181.152 43.71 181.152 44.082V44.082ZM173.476 50.8648H175.076V52.4644H173.476V50.8648ZM177.977 50.8648H176.378V52.4644H177.977V50.8648Z" fill="#A3ABC8"/>
<path fill-rule="evenodd" clip-rule="evenodd" d="M116.833 24.2296H115.332C115.01 24.18 114.34 24.1676 114.204 24.552C114.043 25.0356 113.72 25.1968 112.753 25.1968H110.992V25.6804L111.774 65.9804H107.806L108.748 24.552C108.537 24.3908 108.041 24.1676 107.781 24.552C107.62 24.8 107.657 25.2464 107.706 25.668C107.744 26.0896 107.781 26.474 107.62 26.6352C107.372 26.8832 100.242 38.4152 96.472 44.5284V40.7464L103.763 26.474C104.086 25.7796 105.016 24.3536 106.169 24.2296C107.322 24.1056 107.186 23.2128 106.975 22.7788C106.863 22.2952 106.714 21.1792 106.975 20.5344C107.136 20.1376 107.099 20.1376 106.9 20.1004C106.702 20.0632 106.342 19.9888 105.846 19.4184C105.127 18.5876 99.696 9.34959 96.472 3.81919V1.56239L106.814 15.7232C107.297 16.368 108.19 17.9428 107.942 19.096C107.62 20.5468 109.232 21.1792 109.703 21.3404C110.013 21.4396 113.869 21.5512 116.82 21.6256V24.2296H116.833Z" fill="#A3ABC8"/>
<path fill-rule="evenodd" clip-rule="evenodd" d="M39.7297 57.5856L37.7209 65.9804H37.6093V59.52H36.3197V58.2304H36.9645V57.5856H39.7297ZM42.7677 44.8756L41.8749 48.6204L37.9317 42.4948H36.9645V52.2908H37.6093V52.7744H35.9973V52.2908H36.6421V42.0112H38.0929L38.4153 41.6888H39.0601L42.7677 44.8756V44.8756ZM76.9049 50.6788H76.1361V50.034H76.7809V41.3664H75.6525L69.8369 51.0012V53.568L70.9653 54.2128V55.8124H72.2549C72.7385 55.862 73.7057 56.3952 73.7057 58.0568V60.6236H72.7385V65.968H68.2125V60.6236H63.6865V65.968H61.4297V60.6236H58.5157V65.968H55.7381L52.5265 53.32L57.3749 25.6308L59.4333 24.5272V21.7744H59.7557V24.6636L61.4173 25.6308L64.3313 52.9232H64.6537V50.5176H65.2985L66.4269 47.1448L75.6401 40.3992L77.0909 40.7216V49.9472L76.9049 50.6788V50.6788Z" fill="#A3ABC8"/>
<path fill-rule="evenodd" clip-rule="evenodd" d="M126.604 23.436C126.53 22.8532 126.468 22.258 126.455 21.6628H132.544C132.382 22.0348 131.713 22.8532 130.299 23.1136C129.53 23.2376 128.067 23.3492 126.604 23.436V23.436Z" fill="#A3ABC8"/>
<path d="M21.328 115.556L23.498 121.607L25.668 115.556H27.3544V123.442H26.0524V120.838L26.1764 117.366L23.9568 123.442H23.0268L20.8072 117.366L20.9312 120.838V123.442H19.6292V115.556H21.328V115.556Z" fill="#054D7F"/>
<path d="M33.2196 121.607H30.3056L29.698 123.442H28.334L31.1736 115.556H32.3516L35.2036 123.442H33.8396L33.2196 121.607V121.607ZM30.6652 120.503H32.8476L31.7564 117.23L30.6652 120.503V120.503Z" fill="#054D7F"/>
<path d="M38.812 120.404H37.3488V123.442H36.0468V115.556H38.688C39.556 115.556 40.2256 115.754 40.6968 116.163C41.168 116.572 41.4036 117.168 41.4036 117.936C41.4036 118.457 41.2796 118.904 41.0316 119.263C40.796 119.623 40.4488 119.896 40.0148 120.082L41.7012 123.368V123.442H40.3L38.812 120.404ZM37.3612 119.3H38.7004C39.1468 119.3 39.4816 119.189 39.7296 118.953C39.9776 118.718 40.1016 118.395 40.1016 117.998C40.1016 117.577 39.99 117.254 39.7544 117.019C39.5312 116.783 39.184 116.672 38.7252 116.659H37.3488V119.3H37.3612V119.3Z" fill="#054D7F"/>
<path d="M44.0324 123.442H42.7304V115.556H44.0324V123.442Z" fill="#054D7F"/>
<path d="M51.6088 123.442H50.3068L46.9588 117.85V123.442H45.6568V115.556H46.9588L50.3192 121.173V115.556H51.6212V123.442H51.6088Z" fill="#054D7F"/>
<path d="M57.5608 119.92H54.4732V122.351H58.0816V123.442H53.1588V115.556H58.0444V116.659H54.4732V118.842H57.5608V119.92Z" fill="#054D7F"/>
<path d="M63.1532 123.442H61.8512V115.556H63.1532V123.442Z" fill="#054D7F"/>
<path d="M70.7296 123.442H69.4276L66.0796 117.85V123.442H64.7776V115.556H66.0796L69.44 121.173V115.556H70.742V123.442H70.7296V123.442Z" fill="#054D7F"/>
<path d="M76.6196 120.094H73.594V123.43H72.292V115.556H77.0784V116.659H73.6064V119.003H76.632V120.094H76.6196Z" fill="#054D7F"/>
<path d="M84.1092 119.697C84.1092 120.466 83.9852 121.148 83.7248 121.731C83.4644 122.314 83.1048 122.76 82.6336 123.07C82.1624 123.38 81.6168 123.541 80.9968 123.541C80.3768 123.541 79.8436 123.392 79.36 123.07C78.8888 122.76 78.5168 122.314 78.2564 121.731C77.996 121.148 77.872 120.491 77.8596 119.734V119.288C77.8596 118.519 77.9836 117.837 78.244 117.254C78.5044 116.672 78.8764 116.213 79.3476 115.903C79.8188 115.593 80.3644 115.432 80.9844 115.432C81.6044 115.432 82.1376 115.593 82.6088 115.903C83.08 116.213 83.452 116.659 83.7124 117.23C83.9728 117.812 84.0968 118.482 84.1092 119.251V119.697V119.697ZM82.7948 119.288C82.7948 118.42 82.6336 117.75 82.3236 117.279C82.0136 116.808 81.5672 116.585 80.9844 116.585C80.4016 116.585 79.98 116.82 79.6576 117.279C79.3352 117.738 79.174 118.395 79.174 119.251V119.71C79.174 120.578 79.3352 121.247 79.6576 121.718C79.98 122.19 80.4264 122.425 80.9968 122.425C81.5672 122.425 82.026 122.19 82.336 121.731C82.646 121.272 82.8072 120.59 82.8072 119.71V119.288H82.7948Z" fill="#054D7F"/>
<path d="M88.1765 120.404H86.7133V123.442H85.4113V115.556H88.0525C88.9205 115.556 89.5901 115.754 90.0613 116.163C90.5325 116.572 90.7681 117.168 90.7681 117.936C90.7681 118.457 90.6441 118.904 90.3961 119.263C90.1605 119.623 89.8133 119.896 89.3793 120.082L91.0657 123.368V123.442H89.6645L88.1765 120.404ZM86.7133 119.3H88.0525C88.4989 119.3 88.8337 119.189 89.0817 118.953C89.3297 118.718 89.4537 118.395 89.4537 117.998C89.4537 117.577 89.3421 117.254 89.1065 117.019C88.8833 116.783 88.5361 116.672 88.0773 116.659H86.7009V119.3H86.7133V119.3Z" fill="#054D7F"/>
<path d="M93.7067 115.556L95.8767 121.607L98.0467 115.556H99.7331V123.442H98.4311V120.838L98.5551 117.366L96.3355 123.442H95.4055L93.1859 117.366L93.3099 120.838V123.442H92.0079V115.556H93.7067V115.556Z" fill="#054D7F"/>
<path d="M105.586 121.607H102.672L102.064 123.442H100.7L103.54 115.556H104.718L107.57 123.442H106.206L105.586 121.607V121.607ZM103.044 120.503H105.226L104.135 117.23L103.044 120.503V120.503Z" fill="#054D7F"/>
<path d="M113.237 116.659H110.893V123.442H109.591V116.659H107.26V115.556H113.224V116.659H113.237V116.659Z" fill="#054D7F"/>
<path d="M115.618 123.442H114.316V115.556H115.618V123.442Z" fill="#054D7F"/>
<path d="M123.231 119.697C123.231 120.466 123.107 121.148 122.847 121.731C122.586 122.314 122.227 122.76 121.756 123.07C121.284 123.38 120.739 123.541 120.119 123.541C119.499 123.541 118.966 123.392 118.482 123.07C118.011 122.76 117.639 122.314 117.378 121.731C117.118 121.148 116.994 120.491 116.982 119.734V119.288C116.982 118.519 117.106 117.837 117.366 117.254C117.626 116.672 117.998 116.213 118.47 115.903C118.941 115.593 119.486 115.432 120.106 115.432C120.726 115.432 121.26 115.593 121.731 115.903C122.202 116.213 122.574 116.659 122.834 117.23C123.095 117.812 123.219 118.482 123.231 119.251V119.697V119.697ZM121.917 119.288C121.917 118.42 121.756 117.75 121.446 117.279C121.136 116.808 120.689 116.585 120.106 116.585C119.524 116.585 119.102 116.82 118.78 117.279C118.457 117.738 118.296 118.395 118.296 119.251V119.71C118.296 120.578 118.457 121.247 118.78 121.718C119.102 122.19 119.548 122.425 120.119 122.425C120.689 122.425 121.148 122.19 121.458 121.731C121.768 121.272 121.929 120.59 121.929 119.71V119.288H121.917Z" fill="#054D7F"/>
<path d="M130.498 123.442H129.196L125.848 117.85V123.442H124.546V115.556H125.848L129.208 121.173V115.556H130.51V123.442H130.498V123.442Z" fill="#054D7F"/>
<path d="M138.607 121.408C138.607 121.061 138.496 120.788 138.26 120.602C138.024 120.416 137.615 120.23 137.008 120.032C136.4 119.846 135.916 119.623 135.557 119.387C134.875 118.941 134.528 118.346 134.528 117.626C134.528 116.994 134.776 116.461 135.272 116.052C135.768 115.642 136.412 115.432 137.194 115.432C137.714 115.432 138.186 115.531 138.595 115.729C139.004 115.928 139.326 116.225 139.562 116.597C139.798 116.969 139.909 117.378 139.909 117.837H138.607C138.607 117.428 138.483 117.106 138.235 116.87C137.987 116.634 137.64 116.523 137.181 116.523C136.76 116.523 136.425 116.622 136.189 116.808C135.954 116.994 135.842 117.267 135.842 117.614C135.842 117.899 135.966 118.147 136.226 118.346C136.487 118.532 136.896 118.73 137.491 118.904C138.074 119.09 138.545 119.288 138.905 119.524C139.264 119.759 139.525 120.02 139.686 120.33C139.847 120.627 139.934 120.987 139.934 121.384C139.934 122.041 139.698 122.562 139.215 122.958C138.731 123.343 138.086 123.541 137.256 123.541C136.71 123.541 136.214 123.442 135.755 123.231C135.296 123.02 134.949 122.723 134.689 122.351C134.441 121.979 134.317 121.545 134.317 121.049H135.619C135.619 121.495 135.755 121.842 136.04 122.09C136.326 122.338 136.722 122.462 137.256 122.462C137.714 122.462 138.049 122.363 138.285 122.177C138.496 121.979 138.607 121.731 138.607 121.408V121.408Z" fill="#054D7F"/>
<path d="M143.518 119.288L145.254 115.556H146.704L144.187 120.54V123.442H142.873V120.54L140.343 115.556H141.794L143.518 119.288V119.288Z" fill="#054D7F"/>
<path d="M151.367 121.408C151.367 121.061 151.255 120.788 151.02 120.602C150.784 120.416 150.375 120.23 149.767 120.032C149.16 119.846 148.676 119.623 148.316 119.387C147.634 118.941 147.287 118.346 147.287 117.626C147.287 116.994 147.535 116.461 148.031 116.052C148.527 115.642 149.172 115.432 149.953 115.432C150.474 115.432 150.945 115.531 151.354 115.729C151.764 115.928 152.086 116.225 152.322 116.597C152.557 116.969 152.669 117.378 152.669 117.837H151.367C151.367 117.428 151.243 117.106 150.995 116.87C150.747 116.634 150.4 116.523 149.941 116.523C149.519 116.523 149.184 116.622 148.949 116.808C148.713 116.994 148.602 117.267 148.602 117.614C148.602 117.899 148.726 118.147 148.986 118.346C149.246 118.532 149.656 118.73 150.251 118.904C150.834 119.09 151.305 119.288 151.664 119.524C152.024 119.759 152.284 120.02 152.446 120.33C152.607 120.627 152.694 120.987 152.694 121.384C152.694 122.041 152.458 122.562 151.974 122.958C151.491 123.343 150.846 123.541 150.015 123.541C149.47 123.541 148.974 123.442 148.515 123.231C148.056 123.02 147.709 122.723 147.448 122.351C147.2 121.979 147.076 121.545 147.076 121.049H148.378C148.378 121.495 148.515 121.842 148.8 122.09C149.085 122.338 149.482 122.462 150.015 122.462C150.474 122.462 150.809 122.363 151.044 122.177C151.255 121.979 151.367 121.731 151.367 121.408V121.408Z" fill="#054D7F"/>
<path d="M159.253 116.659H156.91V123.442H155.608V116.659H153.276V115.556H159.241V116.659H159.253Z" fill="#054D7F"/>
<path d="M164.647 119.92H161.56V122.351H165.168V123.442H160.245V115.556H165.131V116.659H161.56V118.842H164.647V119.92Z" fill="#054D7F"/>
<path d="M167.933 115.556L170.103 121.607L172.273 115.556H173.96V123.442H172.658V120.838L172.782 117.366L170.562 123.442H169.632L167.412 117.366L167.537 120.838V123.442H166.234V115.556H167.933Z" fill="#054D7F"/>
<path d="M182.478 120.094H179.453V123.43H178.151V115.556H182.937V116.659H179.465V119.003H182.491V120.094H182.478Z" fill="#054D7F"/>
<path d="M189.968 119.697C189.968 120.466 189.844 121.148 189.584 121.731C189.323 122.314 188.964 122.76 188.492 123.07C188.021 123.38 187.476 123.541 186.856 123.541C186.236 123.541 185.702 123.392 185.219 123.07C184.748 122.76 184.376 122.314 184.115 121.731C183.855 121.148 183.731 120.491 183.719 119.734V119.288C183.719 118.519 183.843 117.837 184.103 117.254C184.363 116.672 184.735 116.213 185.207 115.903C185.678 115.593 186.223 115.432 186.843 115.432C187.463 115.432 187.997 115.593 188.468 115.903C188.939 116.213 189.311 116.659 189.571 117.23C189.832 117.812 189.956 118.482 189.968 119.251V119.697V119.697ZM188.654 119.288C188.654 118.42 188.492 117.75 188.182 117.279C187.872 116.808 187.426 116.585 186.843 116.585C186.26 116.585 185.839 116.82 185.517 117.279C185.194 117.738 185.033 118.395 185.033 119.251V119.71C185.033 120.578 185.194 121.247 185.517 121.718C185.839 122.19 186.285 122.425 186.856 122.425C187.426 122.425 187.885 122.19 188.195 121.731C188.505 121.272 188.666 120.59 188.666 119.71V119.288H188.654V119.288Z" fill="#054D7F"/>
<path d="M194.035 120.404H192.572V123.442H191.27V115.556H193.911C194.779 115.556 195.449 115.754 195.92 116.163C196.391 116.572 196.627 117.168 196.627 117.936C196.627 118.457 196.503 118.904 196.255 119.263C196.019 119.623 195.672 119.896 195.238 120.082L196.924 123.368V123.442H195.523L194.035 120.404ZM192.572 119.3H193.911C194.358 119.3 194.692 119.189 194.94 118.953C195.188 118.718 195.312 118.395 195.312 117.998C195.312 117.577 195.201 117.254 194.965 117.019C194.742 116.783 194.395 116.672 193.936 116.659H192.56V119.3H192.572V119.3Z" fill="#054D7F"/>
<path d="M204.91 119.92H201.822V122.351H205.431V123.442H200.508V115.556H205.394V116.659H201.822V118.842H204.91V119.92Z" fill="#054D7F"/>
<path d="M212.003 115.556V120.826C212.003 121.669 211.742 122.326 211.234 122.822C210.726 123.306 210.043 123.554 209.188 123.554C208.332 123.554 207.638 123.318 207.142 122.834C206.633 122.351 206.385 121.681 206.385 120.826V115.556H207.688V120.826C207.688 121.359 207.811 121.756 208.072 122.028C208.332 122.301 208.704 122.45 209.2 122.45C210.205 122.45 210.713 121.892 210.713 120.776V115.556H212.003V115.556Z" fill="#054D7F"/>
<path d="M216.157 120.404H214.694V123.442H213.392V115.556H216.033C216.901 115.556 217.57 115.754 218.042 116.163C218.513 116.572 218.748 117.168 218.748 117.936C218.748 118.457 218.624 118.904 218.376 119.263C218.141 119.623 217.794 119.896 217.36 120.082L219.046 123.368V123.442H217.645L216.157 120.404ZM214.706 119.3H216.045C216.492 119.3 216.826 119.189 217.074 118.953C217.322 118.718 217.446 118.395 217.446 117.998C217.446 117.577 217.335 117.254 217.099 117.019C216.876 116.783 216.529 116.672 216.07 116.659H214.694V119.3H214.706V119.3Z" fill="#054D7F"/>
<path d="M226.002 119.697C226.002 120.466 225.878 121.148 225.618 121.731C225.358 122.314 224.998 122.76 224.527 123.07C224.056 123.38 223.51 123.541 222.89 123.541C222.27 123.541 221.737 123.392 221.253 123.07C220.782 122.76 220.41 122.314 220.15 121.731C219.889 121.148 219.765 120.491 219.753 119.734V119.288C219.753 118.519 219.877 117.837 220.137 117.254C220.398 116.672 220.77 116.213 221.241 115.903C221.712 115.593 222.258 115.432 222.878 115.432C223.498 115.432 224.031 115.593 224.502 115.903C224.973 116.213 225.345 116.659 225.606 117.23C225.866 117.812 225.99 118.482 226.002 119.251V119.697V119.697ZM224.7 119.288C224.7 118.42 224.539 117.75 224.229 117.279C223.919 116.808 223.473 116.585 222.89 116.585C222.307 116.585 221.886 116.82 221.563 117.279C221.241 117.738 221.08 118.395 221.08 119.251V119.71C221.08 120.578 221.241 121.247 221.563 121.718C221.886 122.19 222.332 122.425 222.902 122.425C223.473 122.425 223.932 122.19 224.242 121.731C224.552 121.272 224.713 120.59 224.713 119.71V119.288H224.7V119.288Z" fill="#054D7F"/>
<path d="M228.619 120.503V123.43H227.317V115.556H230.194C231.037 115.556 231.706 115.779 232.19 116.238C232.686 116.696 232.934 117.304 232.934 118.06C232.934 118.817 232.686 119.437 232.202 119.858C231.719 120.292 231.037 120.503 230.169 120.503H228.619ZM228.619 119.412H230.194C230.665 119.412 231.012 119.3 231.26 119.065C231.508 118.829 231.632 118.507 231.632 118.073C231.632 117.639 231.508 117.304 231.26 117.056C231.012 116.796 230.665 116.672 230.231 116.659H228.619V119.412V119.412Z" fill="#054D7F"/>
<path d="M238.477 119.92H235.389V122.351H238.998V123.442H234.075V115.556H238.96V116.659H235.389V118.842H238.477V119.92Z" fill="#054D7F"/>
</g>
<defs>
<clipPath id="clip0_2118_22439">
<rect width="239.32" height="124" fill="white"/>
</clipPath>
</defs>
</svg>
