<svg width="240" height="124" viewBox="0 0 240 124" fill="none" xmlns="http://www.w3.org/2000/svg">
<g clip-path="url(#clip0_2218_22737)">
<path d="M238.948 70.6304V79.9304H220.336V85.746H235.451V95.046H220.336V101.444H238.948V111.327H208.134V70.618H238.948V70.6304Z" fill="white"/>
<path fill-rule="evenodd" clip-rule="evenodd" d="M79.2235 111.327L81.7159 103.304H92.8015L95.1451 111.327H108.116L95.1203 70.618H81.6911L66.2407 111.327H79.2235V111.327ZM83.8735 94.426L87.2339 82.6212L88.9079 88.5236L90.5819 94.426H83.8735V94.426Z" fill="white"/>
<path d="M19.7161 111.327V70.618H35.6005L41.3169 91.5988L47.0333 70.618H62.7565V111.327H52.1173V82.9312L44.9749 111.327H37.5101L30.5289 82.9312V111.327H19.7161Z" fill="white"/>
<path d="M163.928 111.327H151.714V70.618H163.928V111.327Z" fill="white"/>
<path fill-rule="evenodd" clip-rule="evenodd" d="M146.246 88.8584C147.2 87.0604 147.672 84.9772 147.672 82.6336C147.672 79.0376 146.37 76.136 143.766 73.9288C141.162 71.734 137.541 70.6304 132.841 70.6304H111.588V111.34H123.802V95.6412H128.042L133.994 111.34H147.845L140.467 93.5828C143.369 92.2312 145.303 90.6564 146.246 88.8584ZM133.226 86.1056C132.271 86.7504 131.006 86.9116 129.456 86.9116H123.826V79.3476H129.89C133.089 79.3476 134.689 80.6 134.689 83.204C134.652 84.4812 134.168 85.436 133.226 86.1056V86.1056Z" fill="white"/>
<path d="M168.578 70.6304V111.34H179.056V87.0356L192.981 111.327H203.459V70.618H193.44V92.07L180.928 70.618H168.578V70.6304Z" fill="white"/>
<path d="M238.948 -0.309987V14.8056H208.704V24.6884L233.132 24.6512V39.2212H208.704V50.2696H238.948V65.968H188.939V-0.322388H238.948V-0.309987Z" fill="white"/>
<path d="M153.276 22.6424C161.002 24.2668 166.482 25.6804 169.731 26.9452C172.98 28.21 175.683 30.3428 177.903 33.3808C180.085 36.4188 181.152 40.0148 181.152 44.1316C181.152 50.6168 178.535 55.8992 173.228 59.9292C167.921 63.9592 160.977 65.968 152.371 65.968C136.636 65.968 126.914 59.4456 123.231 46.376L141.633 43.1024C143.183 48.2732 147.188 50.8896 153.562 50.8896C158.522 50.8896 161.014 49.5876 161.014 46.934C161.014 45.5452 160.419 44.4416 159.266 43.6976C158.112 42.904 156.054 42.2344 153.078 41.6392C141.744 39.4692 134.478 36.6172 131.266 33.1452C128.055 29.6732 126.43 25.5564 126.43 20.8568C126.43 14.7684 128.774 9.7588 133.374 5.7288C138.012 1.6988 144.634 -0.309998 153.314 -0.309998C166.433 -0.309998 175.125 4.9848 179.366 15.4876L162.948 20.4228C161.25 16.12 157.79 13.9872 152.607 13.9872C148.279 13.9872 146.146 15.2892 146.146 17.98C146.146 19.1704 146.618 20.0756 147.61 20.7452C148.564 21.4148 150.462 22.0472 153.276 22.6424V22.6424Z" fill="white"/>
<path d="M116.833 65.9804H96.4845V-0.309998H116.833V65.9804V65.9804Z" fill="white"/>
<path d="M55.738 -0.309998L65.5712 37.9192L74.8712 -0.309998H90.458L72.8624 65.9804H55.7628L46.4876 29.4252L37.7208 65.9804H19.7284L2.28162 -0.309998H21.4272L30.7148 37.8448L39.7544 -0.309998H55.738V-0.309998Z" fill="white"/>
<path d="M21.3281 115.556L23.4981 121.607L25.6681 115.556H27.3545V123.442H26.0525V120.838L26.1765 117.366L23.9569 123.442H23.0269L20.8073 117.366L20.9313 120.838V123.442H19.6293V115.556H21.3281V115.556Z" fill="white"/>
<path d="M33.2196 121.607H30.3056L29.698 123.442H28.334L31.1736 115.556H32.3516L35.2036 123.442H33.8396L33.2196 121.607V121.607ZM30.6652 120.503H32.8476L31.7564 117.23L30.6652 120.503V120.503Z" fill="white"/>
<path d="M38.812 120.404H37.3488V123.442H36.0468V115.556H38.688C39.556 115.556 40.2256 115.754 40.6968 116.163C41.168 116.572 41.4036 117.168 41.4036 117.936C41.4036 118.457 41.2796 118.904 41.0316 119.263C40.796 119.623 40.4488 119.896 40.0148 120.082L41.7012 123.368V123.442H40.3L38.812 120.404ZM37.3612 119.3H38.7004C39.1468 119.3 39.4816 119.189 39.7296 118.953C39.9776 118.718 40.1016 118.395 40.1016 117.998C40.1016 117.577 39.99 117.254 39.7544 117.019C39.5312 116.783 39.184 116.672 38.7252 116.659H37.3488V119.3H37.3612V119.3Z" fill="white"/>
<path d="M44.0325 123.442H42.7305V115.556H44.0325V123.442Z" fill="white"/>
<path d="M51.6089 123.442H50.3069L46.9589 117.85V123.442H45.6569V115.556H46.9589L50.3193 121.173V115.556H51.6213V123.442H51.6089Z" fill="white"/>
<path d="M57.5608 119.92H54.4732V122.351H58.0816V123.442H53.1588V115.556H58.0444V116.659H54.4732V118.842H57.5608V119.92Z" fill="white"/>
<path d="M63.1532 123.442H61.8512V115.556H63.1532V123.442Z" fill="white"/>
<path d="M70.7296 123.442H69.4276L66.0796 117.85V123.442H64.7776V115.556H66.0796L69.44 121.173V115.556H70.742V123.442H70.7296V123.442Z" fill="white"/>
<path d="M76.6196 120.094H73.594V123.43H72.292V115.556H77.0784V116.659H73.6064V119.003H76.632V120.094H76.6196Z" fill="white"/>
<path d="M84.1092 119.697C84.1092 120.466 83.9852 121.148 83.7248 121.731C83.4644 122.314 83.1048 122.76 82.6336 123.07C82.1624 123.38 81.6168 123.541 80.9968 123.541C80.3768 123.541 79.8436 123.392 79.36 123.07C78.8888 122.76 78.5168 122.314 78.2564 121.731C77.996 121.148 77.872 120.491 77.8596 119.734V119.288C77.8596 118.519 77.9836 117.837 78.244 117.254C78.5044 116.672 78.8764 116.213 79.3476 115.903C79.8188 115.593 80.3644 115.432 80.9844 115.432C81.6044 115.432 82.1376 115.593 82.6088 115.903C83.08 116.213 83.452 116.659 83.7124 117.23C83.9728 117.812 84.0968 118.482 84.1092 119.251V119.697V119.697ZM82.7948 119.288C82.7948 118.42 82.6336 117.75 82.3236 117.279C82.0136 116.808 81.5672 116.585 80.9844 116.585C80.4016 116.585 79.98 116.82 79.6576 117.279C79.3352 117.738 79.174 118.395 79.174 119.251V119.71C79.174 120.578 79.3352 121.247 79.6576 121.718C79.98 122.19 80.4264 122.425 80.9968 122.425C81.5672 122.425 82.026 122.19 82.336 121.731C82.646 121.272 82.8072 120.59 82.8072 119.71V119.288H82.7948Z" fill="white"/>
<path d="M88.1765 120.404H86.7133V123.442H85.4113V115.556H88.0525C88.9205 115.556 89.5901 115.754 90.0613 116.163C90.5325 116.572 90.7681 117.168 90.7681 117.936C90.7681 118.457 90.6441 118.904 90.3961 119.263C90.1605 119.623 89.8133 119.896 89.3793 120.082L91.0657 123.368V123.442H89.6645L88.1765 120.404ZM86.7133 119.3H88.0525C88.4989 119.3 88.8337 119.189 89.0817 118.953C89.3297 118.718 89.4537 118.395 89.4537 117.998C89.4537 117.577 89.3421 117.254 89.1065 117.019C88.8833 116.783 88.5361 116.672 88.0773 116.659H86.7009V119.3H86.7133V119.3Z" fill="white"/>
<path d="M93.7067 115.556L95.8767 121.607L98.0467 115.556H99.7331V123.442H98.4311V120.838L98.5551 117.366L96.3355 123.442H95.4055L93.1859 117.366L93.3099 120.838V123.442H92.0079V115.556H93.7067V115.556Z" fill="white"/>
<path d="M105.586 121.607H102.672L102.064 123.442H100.7L103.54 115.556H104.718L107.57 123.442H106.206L105.586 121.607V121.607ZM103.044 120.503H105.226L104.135 117.23L103.044 120.503V120.503Z" fill="white"/>
<path d="M113.237 116.659H110.893V123.442H109.591V116.659H107.26V115.556H113.224V116.659H113.237V116.659Z" fill="white"/>
<path d="M115.618 123.442H114.316V115.556H115.618V123.442Z" fill="white"/>
<path d="M123.231 119.697C123.231 120.466 123.107 121.148 122.847 121.731C122.586 122.314 122.227 122.76 121.756 123.07C121.284 123.38 120.739 123.541 120.119 123.541C119.499 123.541 118.966 123.392 118.482 123.07C118.011 122.76 117.639 122.314 117.378 121.731C117.118 121.148 116.994 120.491 116.982 119.734V119.288C116.982 118.519 117.106 117.837 117.366 117.254C117.626 116.672 117.998 116.213 118.47 115.903C118.941 115.593 119.486 115.432 120.106 115.432C120.726 115.432 121.26 115.593 121.731 115.903C122.202 116.213 122.574 116.659 122.834 117.23C123.095 117.812 123.219 118.482 123.231 119.251V119.697V119.697ZM121.917 119.288C121.917 118.42 121.756 117.75 121.446 117.279C121.136 116.808 120.689 116.585 120.106 116.585C119.524 116.585 119.102 116.82 118.78 117.279C118.457 117.738 118.296 118.395 118.296 119.251V119.71C118.296 120.578 118.457 121.247 118.78 121.718C119.102 122.19 119.548 122.425 120.119 122.425C120.689 122.425 121.148 122.19 121.458 121.731C121.768 121.272 121.929 120.59 121.929 119.71V119.288H121.917Z" fill="white"/>
<path d="M130.498 123.442H129.196L125.848 117.85V123.442H124.546V115.556H125.848L129.208 121.173V115.556H130.51V123.442H130.498V123.442Z" fill="white"/>
<path d="M138.607 121.408C138.607 121.061 138.496 120.788 138.26 120.602C138.024 120.416 137.615 120.23 137.008 120.032C136.4 119.846 135.916 119.623 135.557 119.387C134.875 118.941 134.528 118.346 134.528 117.626C134.528 116.994 134.776 116.461 135.272 116.052C135.768 115.642 136.412 115.432 137.194 115.432C137.714 115.432 138.186 115.531 138.595 115.729C139.004 115.928 139.326 116.225 139.562 116.597C139.798 116.969 139.909 117.378 139.909 117.837H138.607C138.607 117.428 138.483 117.106 138.235 116.87C137.987 116.634 137.64 116.523 137.181 116.523C136.76 116.523 136.425 116.622 136.189 116.808C135.954 116.994 135.842 117.267 135.842 117.614C135.842 117.899 135.966 118.147 136.226 118.346C136.487 118.532 136.896 118.73 137.491 118.904C138.074 119.09 138.545 119.288 138.905 119.524C139.264 119.759 139.525 120.02 139.686 120.33C139.847 120.627 139.934 120.987 139.934 121.384C139.934 122.041 139.698 122.562 139.215 122.958C138.731 123.343 138.086 123.541 137.256 123.541C136.71 123.541 136.214 123.442 135.755 123.231C135.296 123.02 134.949 122.723 134.689 122.351C134.441 121.979 134.317 121.545 134.317 121.049H135.619C135.619 121.495 135.755 121.842 136.04 122.09C136.326 122.338 136.722 122.462 137.256 122.462C137.714 122.462 138.049 122.363 138.285 122.177C138.496 121.979 138.607 121.731 138.607 121.408V121.408Z" fill="white"/>
<path d="M143.518 119.288L145.254 115.556H146.704L144.187 120.54V123.442H142.873V120.54L140.343 115.556H141.794L143.518 119.288V119.288Z" fill="white"/>
<path d="M151.367 121.408C151.367 121.061 151.255 120.788 151.02 120.602C150.784 120.416 150.375 120.23 149.767 120.032C149.16 119.846 148.676 119.623 148.316 119.387C147.634 118.941 147.287 118.346 147.287 117.626C147.287 116.994 147.535 116.461 148.031 116.052C148.527 115.642 149.172 115.432 149.953 115.432C150.474 115.432 150.945 115.531 151.354 115.729C151.764 115.928 152.086 116.225 152.322 116.597C152.557 116.969 152.669 117.378 152.669 117.837H151.367C151.367 117.428 151.243 117.106 150.995 116.87C150.747 116.634 150.4 116.523 149.941 116.523C149.519 116.523 149.184 116.622 148.949 116.808C148.713 116.994 148.602 117.267 148.602 117.614C148.602 117.899 148.726 118.147 148.986 118.346C149.246 118.532 149.656 118.73 150.251 118.904C150.834 119.09 151.305 119.288 151.664 119.524C152.024 119.759 152.284 120.02 152.446 120.33C152.607 120.627 152.694 120.987 152.694 121.384C152.694 122.041 152.458 122.562 151.974 122.958C151.491 123.343 150.846 123.541 150.015 123.541C149.47 123.541 148.974 123.442 148.515 123.231C148.056 123.02 147.709 122.723 147.448 122.351C147.2 121.979 147.076 121.545 147.076 121.049H148.378C148.378 121.495 148.515 121.842 148.8 122.09C149.085 122.338 149.482 122.462 150.015 122.462C150.474 122.462 150.809 122.363 151.044 122.177C151.255 121.979 151.367 121.731 151.367 121.408V121.408Z" fill="white"/>
<path d="M159.253 116.659H156.91V123.442H155.608V116.659H153.276V115.556H159.241V116.659H159.253Z" fill="white"/>
<path d="M164.647 119.92H161.56V122.351H165.168V123.442H160.245V115.556H165.131V116.659H161.56V118.842H164.647V119.92Z" fill="white"/>
<path d="M167.933 115.556L170.103 121.607L172.273 115.556H173.96V123.442H172.658V120.838L172.782 117.366L170.562 123.442H169.632L167.412 117.366L167.537 120.838V123.442H166.234V115.556H167.933Z" fill="white"/>
<path d="M182.478 120.094H179.453V123.43H178.151V115.556H182.937V116.659H179.465V119.003H182.491V120.094H182.478Z" fill="white"/>
<path d="M189.968 119.697C189.968 120.466 189.844 121.148 189.584 121.731C189.323 122.314 188.964 122.76 188.492 123.07C188.021 123.38 187.476 123.541 186.856 123.541C186.236 123.541 185.702 123.392 185.219 123.07C184.748 122.76 184.376 122.314 184.115 121.731C183.855 121.148 183.731 120.491 183.719 119.734V119.288C183.719 118.519 183.843 117.837 184.103 117.254C184.363 116.672 184.735 116.213 185.207 115.903C185.678 115.593 186.223 115.432 186.843 115.432C187.463 115.432 187.997 115.593 188.468 115.903C188.939 116.213 189.311 116.659 189.571 117.23C189.832 117.812 189.956 118.482 189.968 119.251V119.697V119.697ZM188.654 119.288C188.654 118.42 188.492 117.75 188.182 117.279C187.872 116.808 187.426 116.585 186.843 116.585C186.26 116.585 185.839 116.82 185.517 117.279C185.194 117.738 185.033 118.395 185.033 119.251V119.71C185.033 120.578 185.194 121.247 185.517 121.718C185.839 122.19 186.285 122.425 186.856 122.425C187.426 122.425 187.885 122.19 188.195 121.731C188.505 121.272 188.666 120.59 188.666 119.71V119.288H188.654V119.288Z" fill="white"/>
<path d="M194.035 120.404H192.572V123.442H191.27V115.556H193.911C194.779 115.556 195.449 115.754 195.92 116.163C196.391 116.572 196.627 117.168 196.627 117.936C196.627 118.457 196.503 118.904 196.255 119.263C196.019 119.623 195.672 119.896 195.238 120.082L196.924 123.368V123.442H195.523L194.035 120.404ZM192.572 119.3H193.911C194.358 119.3 194.692 119.189 194.94 118.953C195.188 118.718 195.312 118.395 195.312 117.998C195.312 117.577 195.201 117.254 194.965 117.019C194.742 116.783 194.395 116.672 193.936 116.659H192.56V119.3H192.572V119.3Z" fill="white"/>
<path d="M204.91 119.92H201.822V122.351H205.431V123.442H200.508V115.556H205.394V116.659H201.822V118.842H204.91V119.92Z" fill="white"/>
<path d="M212.003 115.556V120.826C212.003 121.669 211.742 122.326 211.234 122.822C210.726 123.306 210.043 123.554 209.188 123.554C208.332 123.554 207.638 123.318 207.142 122.834C206.633 122.351 206.385 121.681 206.385 120.826V115.556H207.688V120.826C207.688 121.359 207.811 121.756 208.072 122.028C208.332 122.301 208.704 122.45 209.2 122.45C210.205 122.45 210.713 121.892 210.713 120.776V115.556H212.003V115.556Z" fill="white"/>
<path d="M216.157 120.404H214.694V123.442H213.392V115.556H216.033C216.901 115.556 217.57 115.754 218.042 116.163C218.513 116.572 218.748 117.168 218.748 117.936C218.748 118.457 218.624 118.904 218.376 119.263C218.141 119.623 217.794 119.896 217.36 120.082L219.046 123.368V123.442H217.645L216.157 120.404ZM214.706 119.3H216.045C216.492 119.3 216.826 119.189 217.074 118.953C217.322 118.718 217.446 118.395 217.446 117.998C217.446 117.577 217.335 117.254 217.099 117.019C216.876 116.783 216.529 116.672 216.07 116.659H214.694V119.3H214.706V119.3Z" fill="white"/>
<path d="M226.002 119.697C226.002 120.466 225.878 121.148 225.618 121.731C225.358 122.314 224.998 122.76 224.527 123.07C224.056 123.38 223.51 123.541 222.89 123.541C222.27 123.541 221.737 123.392 221.253 123.07C220.782 122.76 220.41 122.314 220.15 121.731C219.889 121.148 219.765 120.491 219.753 119.734V119.288C219.753 118.519 219.877 117.837 220.137 117.254C220.398 116.672 220.77 116.213 221.241 115.903C221.712 115.593 222.258 115.432 222.878 115.432C223.498 115.432 224.031 115.593 224.502 115.903C224.973 116.213 225.345 116.659 225.606 117.23C225.866 117.812 225.99 118.482 226.002 119.251V119.697V119.697ZM224.7 119.288C224.7 118.42 224.539 117.75 224.229 117.279C223.919 116.808 223.473 116.585 222.89 116.585C222.307 116.585 221.886 116.82 221.563 117.279C221.241 117.738 221.08 118.395 221.08 119.251V119.71C221.08 120.578 221.241 121.247 221.563 121.718C221.886 122.19 222.332 122.425 222.902 122.425C223.473 122.425 223.932 122.19 224.242 121.731C224.552 121.272 224.713 120.59 224.713 119.71V119.288H224.7V119.288Z" fill="white"/>
<path d="M228.619 120.503V123.43H227.317V115.556H230.194C231.037 115.556 231.706 115.779 232.19 116.238C232.686 116.696 232.934 117.304 232.934 118.06C232.934 118.817 232.686 119.437 232.202 119.858C231.719 120.292 231.037 120.503 230.169 120.503H228.619ZM228.619 119.412H230.194C230.665 119.412 231.012 119.3 231.26 119.065C231.508 118.829 231.632 118.507 231.632 118.073C231.632 117.639 231.508 117.304 231.26 117.056C231.012 116.796 230.665 116.672 230.231 116.659H228.619V119.412V119.412Z" fill="white"/>
<path d="M238.477 119.92H235.389V122.351H238.998V123.442H234.075V115.556H238.96V116.659H235.389V118.842H238.477V119.92Z" fill="white"/>
</g>
<defs>
<clipPath id="clip0_2218_22737">
<rect width="239.32" height="124" fill="white"/>
</clipPath>
</defs>
</svg>
