<svg id="Layer_1" data-name="Layer 1" xmlns="http://www.w3.org/2000/svg" viewBox="0 0 125.81 42.05"><polygon points="16.28 32.39 15.73 30.7 15.18 32.39 13.38 32.39 14.83 33.4 14.29 35.14 15.73 34.05 17.18 35.15 16.63 33.44 18.02 32.39 16.28 32.39" style="fill:#f4cf00"/><polygon points="23.47 34.28 22.92 32.63 22.37 34.28 20.58 34.33 22.03 35.33 21.48 37.02 22.92 35.97 24.37 37.07 23.82 35.36 25.2 34.28 23.47 34.28" style="fill:#f4cf00"/><polygon points="30.62 32.39 30.12 30.7 29.53 32.39 27.77 32.39 29.18 33.4 28.63 35.13 30.11 34.05 31.58 35.15 30.97 33.44 32.36 32.39 30.62 32.39" style="fill:#f4cf00"/><polygon points="11.02 27.13 10.52 25.48 9.92 27.13 8.18 27.13 9.57 28.17 9.03 29.86 10.51 28.82 11.97 29.93 11.36 28.21 12.75 27.13 11.02 27.13" style="fill:#f4cf00"/><polygon points="8.58 21.63 10.04 22.74 9.44 21.02 10.82 19.94 9.09 19.94 8.59 18.29 7.99 19.94 6.25 19.99 7.64 20.98 7.1 22.67 8.58 21.63" style="fill:#f4cf00"/><polygon points="15.73 5.92 15.18 7.57 13.39 7.57 14.83 8.61 14.28 10.32 15.73 9.22 17.18 10.32 16.63 8.61 18.02 7.57 16.28 7.57 15.73 5.92" style="fill:#f4cf00"/><polygon points="10.52 11.14 9.92 12.79 8.18 12.79 9.57 13.83 9.02 15.53 10.51 14.44 11.97 15.55 11.36 13.83 12.76 12.79 11.02 12.79 10.52 11.14" style="fill:#f4cf00"/><polygon points="22.92 3.91 22.37 5.56 20.58 5.61 22.03 6.6 21.48 8.29 22.92 7.25 24.37 8.35 23.82 6.64 25.2 5.55 23.47 5.55 22.92 3.91" style="fill:#f4cf00"/><polygon points="30.12 5.92 29.53 7.57 27.78 7.57 29.18 8.61 28.63 10.31 30.11 9.22 31.58 10.33 30.97 8.61 32.36 7.57 30.62 7.57 30.12 5.92" style="fill:#f4cf00"/><path d="M67.7,25.2a3.25,3.25,0,0,1-1.34-.28,3.21,3.21,0,0,1-1.06-.77A3.55,3.55,0,0,1,64.61,23a4.27,4.27,0,0,1-.25-1.46,4.39,4.39,0,0,1,.23-1.44,3.54,3.54,0,0,1,.65-1.17,3,3,0,0,1,1-.77,2.73,2.73,0,0,1,1.26-.28,2.63,2.63,0,0,1,1.34.35,2.38,2.38,0,0,1,.92.94V15.23h2.16v7.41a.79.79,0,0,0,.1.45.52.52,0,0,0,.36.16v1.82a4.54,4.54,0,0,1-.51.09l-.4,0a1.58,1.58,0,0,1-.92-.23.89.89,0,0,1-.4-.68l0-.36a2.41,2.41,0,0,1-1,1,3.07,3.07,0,0,1-1.37.32Zm.58-1.82a1.52,1.52,0,0,0,.85-.26,1.7,1.7,0,0,0,.63-.72V20.92a2,2,0,0,0-.65-.88,1.49,1.49,0,0,0-.94-.34,1.43,1.43,0,0,0-.64.15,1.64,1.64,0,0,0-.5.41,1.82,1.82,0,0,0-.33.59,2.16,2.16,0,0,0-.12.71,2,2,0,0,0,.13.73,1.91,1.91,0,0,0,.35.58,1.6,1.6,0,0,0,.54.38A1.56,1.56,0,0,0,68.28,23.38Z" style="fill:#00a390"/><path d="M73.51,17.19v-2h2.15v2Zm0,7.88V18h2.15v7.07Z" style="fill:#00a390"/><polygon points="78.83 25.07 76.33 18 78.55 18 80.09 23.34 81.65 18 83.66 18 81.17 25.07 78.83 25.07" style="fill:#00a390"/><path d="M87.47,25.2a4.36,4.36,0,0,1-1.6-.29,3.58,3.58,0,0,1-1.2-.79A3.34,3.34,0,0,1,83.93,23a3.79,3.79,0,0,1-.26-1.37,4,4,0,0,1,.26-1.45A3.5,3.5,0,0,1,84.67,19a3.45,3.45,0,0,1,1.19-.81,4,4,0,0,1,1.61-.3,4.17,4.17,0,0,1,1.6.3,3.43,3.43,0,0,1,1.18.8A3.35,3.35,0,0,1,91,20.11a3.85,3.85,0,0,1,.25,1.39c0,.13,0,.25,0,.37a1.75,1.75,0,0,1,0,.32H86a1.42,1.42,0,0,0,.52,1.08,1.69,1.69,0,0,0,1.06.37,1.92,1.92,0,0,0,.91-.23,1.13,1.13,0,0,0,.58-.62l1.83.51a3.31,3.31,0,0,1-1.29,1.36,4,4,0,0,1-2.1.53ZM89,20.86a1.64,1.64,0,0,0-.49-1.07,1.47,1.47,0,0,0-1-.39,1.43,1.43,0,0,0-1,.4,1.68,1.68,0,0,0-.48,1.06h3Z" style="fill:#00a390"/><path d="M96.64,19.84a4.1,4.1,0,0,0-1.42.26,1.79,1.79,0,0,0-.92.73v4.24H92.15V18h2v1.43a3.09,3.09,0,0,1,.94-1.12,2.14,2.14,0,0,1,1.22-.42h.36v1.94Z" style="fill:#00a390"/><path d="M100.27,25.2a5.72,5.72,0,0,1-1.78-.29A4,4,0,0,1,97,24.07l.77-1.32a5.93,5.93,0,0,0,1.26.69,3.15,3.15,0,0,0,1.18.24,1.22,1.22,0,0,0,.65-.15.48.48,0,0,0,.23-.43.49.49,0,0,0-.29-.45,4.58,4.58,0,0,0-1-.36,10.65,10.65,0,0,1-1.2-.39,3.23,3.23,0,0,1-.8-.42,1.34,1.34,0,0,1-.44-.53,1.68,1.68,0,0,1-.13-.7A2.22,2.22,0,0,1,98,18.51a2.82,2.82,0,0,1,.9-.49,3.28,3.28,0,0,1,1.12-.17,5,5,0,0,1,1.49.22,3.69,3.69,0,0,1,1.34.78l-.83,1.29a6.38,6.38,0,0,0-1.08-.61,2.61,2.61,0,0,0-.92-.19,1.2,1.2,0,0,0-.59.14.52.52,0,0,0-.17.72.66.66,0,0,0,.19.18,4.17,4.17,0,0,0,1,.32,11,11,0,0,1,1.27.4,3.4,3.4,0,0,1,.84.45,1.62,1.62,0,0,1,.47.57,2,2,0,0,1,.15.77,2,2,0,0,1-.78,1.67,3.36,3.36,0,0,1-2.12.62Z" style="fill:#00a390"/><path d="M104.13,17.19v-2h2.16v2Zm0,7.88V18h2.16v7.07Z" style="fill:#00a390"/><path d="M112.22,24.69a8.75,8.75,0,0,1-1,.35,4,4,0,0,1-1.15.16,2.78,2.78,0,0,1-.76-.1,1.71,1.71,0,0,1-.63-.32,1.46,1.46,0,0,1-.42-.59,2.21,2.21,0,0,1-.15-.88V19.62h-.9V18h.9V15.74h2.16V18h1.44v1.63h-1.44v2.95a.65.65,0,0,0,.17.5.65.65,0,0,0,.44.16,1.69,1.69,0,0,0,.5-.08l.44-.17.42,1.72Z" style="fill:#00a390"/><path d="M113,26.13a4.1,4.1,0,0,0,.5.14,3,3,0,0,0,.43,0,.76.76,0,0,0,.61-.27,2.75,2.75,0,0,0,.39-1L112.27,18h2.22l1.64,5.23L117.54,18h2l-2.69,8.22a2.8,2.8,0,0,1-2.73,2,3.41,3.41,0,0,1-.55-.05A2.75,2.75,0,0,1,113,28V26.14Z" style="fill:#00a390"/><path d="M64.93,31.08V27.74h.42v3.34Z" style="fill:#666"/><path d="M68.41,31.08H68V29.71a1.11,1.11,0,0,0-.12-.57.4.4,0,0,0-.36-.18.7.7,0,0,0-.25.05.92.92,0,0,0-.24.13,1,1,0,0,0-.2.2.91.91,0,0,0-.13.26v1.48h-.41V28.63h.38v.53a1.1,1.1,0,0,1,.42-.41,1.25,1.25,0,0,1,.6-.16.72.72,0,0,1,.35.08.58.58,0,0,1,.22.22.93.93,0,0,1,.12.33,2.71,2.71,0,0,1,0,.41v1.46Z" style="fill:#666"/><path d="M69.33,31.08V29H69v-.32h.33v-.05a1.23,1.23,0,0,1,.2-.72.66.66,0,0,1,.55-.26,1,1,0,0,1,.29,0,1.12,1.12,0,0,1,.25.11l-.1.3a1.11,1.11,0,0,0-.16-.08.63.63,0,0,0-.19,0,.36.36,0,0,0-.31.16.79.79,0,0,0-.11.45v.07h.65v.32h-.65v2.13h-.42Z" style="fill:#666"/><path d="M72,31.13a1.23,1.23,0,0,1-.89-.38,1.28,1.28,0,0,1-.25-.4,1.35,1.35,0,0,1,0-1,1.28,1.28,0,0,1,.25-.4,1.24,1.24,0,0,1,1.74-.05l.05.05a1.28,1.28,0,0,1,.25.4,1.35,1.35,0,0,1,0,1,1.24,1.24,0,0,1-.65.68A1.09,1.09,0,0,1,72,31.13Zm-.81-1.26a1.13,1.13,0,0,0,.06.36,1.05,1.05,0,0,0,.17.29.7.7,0,0,0,.26.19.79.79,0,0,0,.64,0,.86.86,0,0,0,.26-.2.88.88,0,0,0,.18-.29,1.13,1.13,0,0,0,.06-.36,1,1,0,0,0-.06-.35.79.79,0,0,0-.18-.29.86.86,0,0,0-.26-.2.77.77,0,0,0-.64,0,.86.86,0,0,0-.26.2,1.05,1.05,0,0,0-.17.29,1.15,1.15,0,0,0-.06.37Z" style="fill:#666"/><path d="M75.25,29a1.1,1.1,0,0,0-.55.16.83.83,0,0,0-.34.42v1.51H74V28.63h.38v.57a1.2,1.2,0,0,1,.33-.41.9.9,0,0,1,.44-.18h.14V29Z" style="fill:#666"/><path d="M79.54,31.08h-.41V29.71a1.11,1.11,0,0,0-.12-.57.41.41,0,0,0-.37-.18.63.63,0,0,0-.45.18,1,1,0,0,0-.28.47v1.48H77.5V29.72a1,1,0,0,0-.12-.57A.41.41,0,0,0,77,29a.63.63,0,0,0-.45.18,1,1,0,0,0-.29.47V31.1h-.41V28.65h.38v.53a1.13,1.13,0,0,1,.39-.42,1,1,0,0,1,.54-.15.73.73,0,0,1,.49.17.72.72,0,0,1,.22.43,1,1,0,0,1,.93-.6.76.76,0,0,1,.36.08.69.69,0,0,1,.23.22.93.93,0,0,1,.12.33,1.84,1.84,0,0,1,0,.41v1.47Z" style="fill:#666"/><path d="M81,31.13a.87.87,0,0,1-.32-.06.76.76,0,0,1-.26-.16.81.81,0,0,1-.17-.24.77.77,0,0,1-.06-.3.67.67,0,0,1,.07-.31.81.81,0,0,1,.21-.24,1,1,0,0,1,.33-.15,1.52,1.52,0,0,1,.42-.06l.36,0a1.68,1.68,0,0,1,.32.09v-.2a.59.59,0,0,0-.53-.64h-.12a1.31,1.31,0,0,0-.78.29l-.14-.27a1.72,1.72,0,0,1,1-.32,1,1,0,0,1,.75.26.94.94,0,0,1,.27.73v1c0,.1,0,.15.13.15v.36h-.11a.2.2,0,0,1-.09,0A.29.29,0,0,1,82,31a.31.31,0,0,1-.09-.18v-.17a1.18,1.18,0,0,1-.43.34,1.24,1.24,0,0,1-.53.12Zm.11-.31a1.15,1.15,0,0,0,.41-.08.58.58,0,0,0,.29-.22.26.26,0,0,0,.09-.18V30a1.67,1.67,0,0,0-.62-.12,1,1,0,0,0-.5.13.39.39,0,0,0-.19.34.47.47,0,0,0,.15.35.59.59,0,0,0,.17.1.52.52,0,0,0,.21,0Z" style="fill:#666"/><path d="M84.4,31l-.1.05-.14,0-.17,0-.19,0a.67.67,0,0,1-.39-.12.44.44,0,0,1-.16-.39V29h-.33v-.32h.33v-.82h.41v.82h.55V29h-.55v1.52a.25.25,0,0,0,.09.2.31.31,0,0,0,.19.06.54.54,0,0,0,.22,0l.14-.06.1.33Z" style="fill:#666"/><path d="M85,28.17v-.52h.41v.52Zm0,2.91V28.63h.41v2.45Z" style="fill:#666"/><path d="M87.34,31.13a1.21,1.21,0,0,1-1.15-.78,1.35,1.35,0,0,1,0-1,1.28,1.28,0,0,1,.25-.4,1.21,1.21,0,0,1,.39-.28,1.24,1.24,0,0,1,.5-.1,1.22,1.22,0,0,1,.9.38,1.28,1.28,0,0,1,.25.4,1.35,1.35,0,0,1,0,1,1.28,1.28,0,0,1-.25.4,1.33,1.33,0,0,1-.39.28A1.09,1.09,0,0,1,87.34,31.13Zm-.81-1.27a1.13,1.13,0,0,0,.06.36,1.05,1.05,0,0,0,.17.29.7.7,0,0,0,.26.19.77.77,0,0,0,.63,0,.86.86,0,0,0,.26-.2.88.88,0,0,0,.18-.29,1.13,1.13,0,0,0,.06-.36,1,1,0,0,0-.06-.35.79.79,0,0,0-.18-.29.86.86,0,0,0-.26-.2A.77.77,0,0,0,87,29a.86.86,0,0,0-.26.2,1.05,1.05,0,0,0-.17.29.93.93,0,0,0-.06.37Z" style="fill:#666"/><path d="M91.41,31.08H91V29.71a1.11,1.11,0,0,0-.12-.57.4.4,0,0,0-.36-.18.7.7,0,0,0-.25.05.92.92,0,0,0-.24.13,1,1,0,0,0-.2.2.91.91,0,0,0-.13.26v1.48h-.41V28.63h.38v.53a1,1,0,0,1,.42-.41,1.25,1.25,0,0,1,.6-.16.72.72,0,0,1,.35.08.69.69,0,0,1,.23.22.93.93,0,0,1,.12.33,2.71,2.71,0,0,1,0,.41V31.1Z" style="fill:#666"/><path d="M95.46,28.44a1.34,1.34,0,0,0-.15-.13l-.21-.11-.26-.08a1.36,1.36,0,0,0-.29,0,.84.84,0,0,0-.57.15.49.49,0,0,0-.18.4.59.59,0,0,0,0,.23A.46.46,0,0,0,94,29a1.36,1.36,0,0,0,.28.11l.39.1a4.12,4.12,0,0,1,.47.13,1.22,1.22,0,0,1,.36.18.82.82,0,0,1,.23.26,1,1,0,0,1,.08.38,1,1,0,0,1-.09.42.73.73,0,0,1-.26.29,1.17,1.17,0,0,1-.38.17,2,2,0,0,1-.48.06,2.24,2.24,0,0,1-.73-.12,2.16,2.16,0,0,1-.63-.35l.2-.36.19.16a1.16,1.16,0,0,0,.27.14,2.07,2.07,0,0,0,.33.1,1.5,1.5,0,0,0,.37,0,1,1,0,0,0,.55-.13.42.42,0,0,0,.2-.38A.5.5,0,0,0,95.3,30a.58.58,0,0,0-.18-.17,1.57,1.57,0,0,0-.3-.12l-.41-.11L94,29.45a1.23,1.23,0,0,1-.32-.17.63.63,0,0,1-.19-.24.8.8,0,0,1-.07-.34,1,1,0,0,1,.09-.42.84.84,0,0,1,.25-.31,1,1,0,0,1,.38-.19,2,2,0,0,1,.48-.06,1.81,1.81,0,0,1,.61.1,1.44,1.44,0,0,1,.48.28l-.2.35Z" style="fill:#666"/><path d="M96.49,31.74h.21a.17.17,0,0,0,.1,0,.28.28,0,0,0,.09-.1,2,2,0,0,0,.1-.21c0-.09.08-.21.14-.35l-1-2.45h.43l.84,2.08.76-2.08h.4l-1.2,3.1a.77.77,0,0,1-.22.29.63.63,0,0,1-.42.12h-.09l-.11,0v-.36Z" style="fill:#666"/><path d="M99.94,31.13a1.9,1.9,0,0,1-.58-.09,1.18,1.18,0,0,1-.49-.27l.18-.28a1.86,1.86,0,0,0,.43.25,1.21,1.21,0,0,0,.46.08.91.91,0,0,0,.43-.1.35.35,0,0,0,.16-.3.26.26,0,0,0,0-.15.35.35,0,0,0-.13-.11.83.83,0,0,0-.22-.08L99.83,30a3.72,3.72,0,0,1-.38-.11,1.23,1.23,0,0,1-.26-.12A.41.41,0,0,1,99,29.6a.69.69,0,0,1-.05-.24.71.71,0,0,1,.27-.57.85.85,0,0,1,.3-.15,1.5,1.5,0,0,1,.37-.05,1.54,1.54,0,0,1,.52.09,1.23,1.23,0,0,1,.4.23l-.19.25a.94.94,0,0,0-.35-.2,1.09,1.09,0,0,0-.4-.07.72.72,0,0,0-.38.1.33.33,0,0,0-.16.31.22.22,0,0,0,0,.14.24.24,0,0,0,.1.1l.18.08.26.07.43.11a1,1,0,0,1,.3.14.49.49,0,0,1,.24.45.69.69,0,0,1-.26.55,1.09,1.09,0,0,1-.7.19Z" style="fill:#666"/><path d="M102.88,31l-.1.05-.14,0-.17,0-.19,0a.67.67,0,0,1-.39-.12.44.44,0,0,1-.16-.39V29h-.33v-.32h.33v-.82h.41v.82h.55V29h-.55v1.52a.25.25,0,0,0,.09.2.31.31,0,0,0,.19.06.54.54,0,0,0,.22,0l.14-.06.1.33Z" style="fill:#666"/><path d="M104.49,31.13A1.29,1.29,0,0,1,104,31a1.23,1.23,0,0,1-.4-.27,1.35,1.35,0,0,1-.26-1.39,1.31,1.31,0,0,1,.26-.4,1.09,1.09,0,0,1,.4-.27,1.25,1.25,0,0,1,.51-.1,1.2,1.2,0,0,1,1.14.78,1.27,1.27,0,0,1,.09.47V30h-2a.89.89,0,0,0,.08.33.88.88,0,0,0,.44.43.77.77,0,0,0,.3.06.83.83,0,0,0,.22,0l.2-.08a.7.7,0,0,0,.17-.13.45.45,0,0,0,.11-.17l.36.1a.85.85,0,0,1-.17.25.88.88,0,0,1-.24.19,1.2,1.2,0,0,1-.31.13A1.34,1.34,0,0,1,104.49,31.13Zm.84-1.44a.73.73,0,0,0-.09-.32.88.88,0,0,0-.18-.25.85.85,0,0,0-.57-.22.81.81,0,0,0-.31.06.73.73,0,0,0-.26.17.85.85,0,0,0-.26.57h1.67Z" style="fill:#666"/><path d="M110.1,31.08h-.41V29.71a1.11,1.11,0,0,0-.12-.57.41.41,0,0,0-.37-.18.63.63,0,0,0-.45.18,1,1,0,0,0-.29.47v1.48h-.41V29.72a1,1,0,0,0-.12-.57.41.41,0,0,0-.37-.18.63.63,0,0,0-.45.18,1,1,0,0,0-.29.47V31.1h-.41V28.65h.38v.53a1.05,1.05,0,0,1,.39-.42,1,1,0,0,1,.54-.15.67.67,0,0,1,.71.6,1,1,0,0,1,.94-.6.72.72,0,0,1,.35.08.6.6,0,0,1,.23.22.93.93,0,0,1,.12.33,1.84,1.84,0,0,1,0,.41v1.43Z" style="fill:#666"/><path d="M65,36.08V34h-.33v-.32H65v-.05a1.1,1.1,0,0,1,.2-.72.66.66,0,0,1,.55-.26,1,1,0,0,1,.29,0,1.12,1.12,0,0,1,.25.11l-.1.3L66,33a.63.63,0,0,0-.19,0,.37.37,0,0,0-.31.15.79.79,0,0,0-.11.45v.07h.65v.32h-.65v2.13H65Z" style="fill:#666"/><path d="M67.66,36.13a1.21,1.21,0,0,1-1.15-.78,1.35,1.35,0,0,1,0-1,1.28,1.28,0,0,1,.25-.4,1.24,1.24,0,0,1,1.74,0l0,0a1.28,1.28,0,0,1,.25.4,1.35,1.35,0,0,1,0,1,1.24,1.24,0,0,1-.65.68,1.09,1.09,0,0,1-.5.1Zm-.81-1.26a1.13,1.13,0,0,0,.06.36,1.05,1.05,0,0,0,.17.29.7.7,0,0,0,.26.19.79.79,0,0,0,.64,0,.86.86,0,0,0,.26-.2.79.79,0,0,0,.18-.29,1.13,1.13,0,0,0,.06-.36,1,1,0,0,0-.06-.35.79.79,0,0,0-.18-.29A.86.86,0,0,0,68,34a.77.77,0,0,0-.64,0,.86.86,0,0,0-.26.2,1.05,1.05,0,0,0-.17.29,1.15,1.15,0,0,0-.06.37Z" style="fill:#666"/><path d="M70.91,34a1.1,1.1,0,0,0-.55.16.83.83,0,0,0-.34.42v1.51h-.41V33.63H70v.57a1.2,1.2,0,0,1,.33-.41.9.9,0,0,1,.44-.18h.14V34Z" style="fill:#666"/><path d="M75,35.7v.38H72.76V32.74H75v.38h-1.8V34.2h1.57v.35H73.18V35.7Z" style="fill:#666"/><path d="M76.42,36.13a.68.68,0,0,1-.58-.26,1.24,1.24,0,0,1-.2-.77V33.63h.41V35c0,.5.17.75.52.75a.84.84,0,0,0,.48-.16,1,1,0,0,0,.33-.44V33.63h.41v1.94c0,.1,0,.15.13.15v.36h-.19a.25.25,0,0,1-.2-.06.31.31,0,0,1-.09-.18v-.29A1.18,1.18,0,0,1,77,36a1.2,1.2,0,0,1-.59.15Z" style="fill:#666"/><path d="M80,34a1.1,1.1,0,0,0-.55.16.83.83,0,0,0-.34.42v1.51h-.41V33.63h.38v.57a1.2,1.2,0,0,1,.33-.41.9.9,0,0,1,.44-.18H80V34Z" style="fill:#666"/><path d="M81.61,36.13a1.22,1.22,0,0,1-.9-.38,1.28,1.28,0,0,1-.25-.4,1.35,1.35,0,0,1,0-1,1.5,1.5,0,0,1,.25-.4,1.24,1.24,0,0,1,1.74,0l0,0a1.12,1.12,0,0,1,.25.4,1.35,1.35,0,0,1,0,1,1.28,1.28,0,0,1-.25.4,1.21,1.21,0,0,1-.39.28A1.09,1.09,0,0,1,81.61,36.13Zm-.81-1.26a1.13,1.13,0,0,0,.06.36,1.05,1.05,0,0,0,.17.29.7.7,0,0,0,.26.19.79.79,0,0,0,.64,0,.86.86,0,0,0,.26-.2.88.88,0,0,0,.18-.29,1.13,1.13,0,0,0,.06-.36,1,1,0,0,0-.06-.35.79.79,0,0,0-.18-.29.86.86,0,0,0-.26-.2.77.77,0,0,0-.64,0,.87.87,0,0,0-.43.49.93.93,0,0,0-.06.37Z" style="fill:#666"/><path d="M84.87,36.13a1,1,0,0,1-.54-.15A1.22,1.22,0,0,1,84,35.6v1.49h-.41V33.64h.37v.46a1.34,1.34,0,0,1,.38-.37,1,1,0,0,1,1,0,1.25,1.25,0,0,1,.37.28,1.37,1.37,0,0,1,.33.88,1.69,1.69,0,0,1-.08.5,1.13,1.13,0,0,1-.23.4,1,1,0,0,1-.35.27,1,1,0,0,1-.45.1Zm-.13-.36a.64.64,0,0,0,.33-.08.72.72,0,0,0,.25-.21.92.92,0,0,0,.16-.29,1,1,0,0,0,.06-.34,1,1,0,0,0-.24-.64A.9.9,0,0,0,85,34a.75.75,0,0,0-.33-.07.85.85,0,0,0-.23,0,1,1,0,0,0-.23.12,1,1,0,0,0-.18.17.58.58,0,0,0-.1.21v.7a1,1,0,0,0,.13.23.92.92,0,0,0,.4.3.7.7,0,0,0,.25,0Z" style="fill:#666"/><path d="M87.78,36.13a1.29,1.29,0,0,1-.51-.1,1.12,1.12,0,0,1-.4-.28,1.35,1.35,0,0,1-.26-1.39,1.22,1.22,0,0,1,1.16-.78,1.29,1.29,0,0,1,.51.1,1.19,1.19,0,0,1,.63.67,1.27,1.27,0,0,1,.09.47V35H87a.89.89,0,0,0,.08.33.93.93,0,0,0,.18.26.78.78,0,0,0,.26.17.77.77,0,0,0,.3.06.83.83,0,0,0,.22,0l.2-.08a.7.7,0,0,0,.17-.13.45.45,0,0,0,.11-.17l.36.1a.85.85,0,0,1-.17.25.91.91,0,0,1-.24.2,1.2,1.2,0,0,1-.31.13,1.34,1.34,0,0,1-.35,0Zm.84-1.44a.73.73,0,0,0-.09-.32.88.88,0,0,0-.18-.25.84.84,0,0,0-.88-.16.73.73,0,0,0-.26.17.85.85,0,0,0-.26.57h1.67Z" style="fill:#666"/><path d="M48.37,19.13a.92.92,0,0,0,.28-.75,1,1,0,0,0-.25-.73.79.79,0,0,0-.6-.26H45.55v2h2.17A1,1,0,0,0,48.37,19.13Zm-.27,2H45.55V23.2H48a1,1,0,0,0,.71-.28,1,1,0,0,0,.28-.74,1.14,1.14,0,0,0-.26-.75.8.8,0,0,0-.65-.31ZM59.32,19.7a1.46,1.46,0,0,0-1.12.51,1.63,1.63,0,0,0-.33.59,2.36,2.36,0,0,0-.12.75,2,2,0,0,0,.44,1.34,1.44,1.44,0,0,0,1.13.5,1.34,1.34,0,0,0,.62-.14,1.41,1.41,0,0,0,.49-.38,1.63,1.63,0,0,0,.33-.59,2.36,2.36,0,0,0,.12-.75,2,2,0,0,0-.44-1.34,1.42,1.42,0,0,0-1.12-.5ZM46.74,4.24A16.67,16.67,0,1,0,63.41,20.91,16.67,16.67,0,0,0,46.74,4.24Zm-12,8.54.55-1.64.55,1.64h1.74l-1.4,1.05.55,1.71-1.45-1.1-1.45,1.1.55-1.71L33,12.78Zm2,17.14-1.45-1.1-1.44,1,.55-1.69-1.39-1.05H34.8l.55-1.64.55,1.64h1.73l-1.39,1.09.56,1.71Zm2-7.18-1.41-1.11-1.48,1L36.41,21,35,20l1.74,0,.6-1.65.5,1.64h1.73L38.21,21Zm12.24,1a2.13,2.13,0,0,1-.7.76,3.34,3.34,0,0,1-1,.46,5.29,5.29,0,0,1-1.25.16H43.35V15.5h5.32a1.9,1.9,0,0,1,.9.22,2.33,2.33,0,0,1,.69.56,2.62,2.62,0,0,1,.44.78,2.5,2.5,0,0,1,.15.9,2.64,2.64,0,0,1-.34,1.29,2.19,2.19,0,0,1-1,.92,2.5,2.5,0,0,1,1.3.86,2.58,2.58,0,0,1,.48,1.59A2.34,2.34,0,0,1,51,23.69h0Zm3.55,1.38H52.4V18h2.15Zm0-7.88H52.4v-2h2.15Zm7.58,6.92a3.42,3.42,0,0,1-1.19.8,4.47,4.47,0,0,1-3.22,0,3.42,3.42,0,0,1-1.19-.8,3.58,3.58,0,0,1-.74-1.17,4.06,4.06,0,0,1,0-2.79A3.19,3.19,0,0,1,56.53,19a3.59,3.59,0,0,1,1.19-.81,4,4,0,0,1,1.61-.3,4,4,0,0,1,1.6.3,3.59,3.59,0,0,1,1.19.81,3.52,3.52,0,0,1,.74,1.17,3.89,3.89,0,0,1,.26,1.39,3.85,3.85,0,0,1-.25,1.39,3.4,3.4,0,0,1-.73,1.17h0Z" style="fill:#00a390"/></svg>