<?xml version="1.0" encoding="UTF-8"?><svg id="Layer_1" xmlns="http://www.w3.org/2000/svg" xmlns:xlink="http://www.w3.org/1999/xlink" viewBox="0 0 1362 408"><defs><style>.cls-1{fill:#fff;}.cls-2{clip-path:url(#clippath);}.cls-3{fill:none;}</style><clipPath id="clippath"><rect class="cls-3" x=".7" y=".09" width="1360.63" height="407.68"/></clipPath></defs><g class="cls-2"><g id="BiseDark"><path id="Vector" class="cls-1" d="M121.14,344.93l-6.6-20.46-6.6,20.46h-21.61l17.41,12.23-6.48,21.07,17.29-13.2,17.41,13.32-6.6-20.71,16.69-12.71h-20.89Z"/><path id="Vector_2" class="cls-1" d="M207.48,367.82l-6.61-19.98-6.6,19.98-21.49,.61,17.41,12.11-6.6,20.46,17.29-12.71,17.41,13.32-6.6-20.7,16.57-13.08h-20.77Z"/><path id="Vector_3" class="cls-1" d="M293.34,344.93l-6-20.46-7.08,20.46h-21.13l16.93,12.23-6.61,20.95,17.77-13.08,17.65,13.32-7.33-20.71,16.69-12.71h-20.89Z"/><path id="Vector_4" class="cls-1" d="M57.98,281.24l-6-19.98-7.2,19.98H23.88l16.69,12.59-6.48,20.46,17.77-12.59,17.53,13.44-7.33-20.83,16.69-13.08h-20.77Z"/><path id="Vector_5" class="cls-1" d="M28.68,214.65l17.53,13.44-7.2-20.83,16.57-13.08h-20.77l-6-19.98-7.2,19.98-20.89,.61,16.69,11.99-6.48,20.46,17.77-12.59Z"/><path id="Vector_6" class="cls-1" d="M114.54,24.43l-6.6,19.98h-21.49l17.29,12.59-6.6,20.7,17.41-13.32,17.41,13.32-6.6-20.7,16.69-12.59h-20.89l-6.6-19.98Z"/><path id="Vector_7" class="cls-1" d="M51.97,87.64l-7.2,19.98H23.88l16.69,12.59-6.6,20.58,17.89-13.2,17.53,13.44-7.32-20.83,16.81-12.59h-20.89l-6-19.98Z"/><path id="Vector_8" class="cls-1" d="M200.87,.09l-6.6,19.98-21.49,.61,17.41,11.99-6.6,20.46,17.29-12.59,17.41,13.32-6.6-20.7,16.57-13.2h-20.77L200.87,.09Z"/><path id="Vector_9" class="cls-1" d="M287.33,24.43l-7.08,19.98h-21.01l16.81,12.59-6.61,20.58,17.77-13.2,17.65,13.44-7.33-20.83,16.69-12.59h-20.89l-6-19.98Z"/><path id="Vector_10" class="cls-1" d="M738.59,257.88c-5.52,0-11.05-1.09-16.09-3.39-4.8-2.18-9.13-5.33-12.73-9.32-3.6-4.12-6.48-8.96-8.29-14.17-2.04-5.69-3-11.62-3-17.68s.84-11.87,2.76-17.44c1.68-5.21,4.32-9.93,7.8-14.17,3.24-3.87,7.33-7.14,11.89-9.32,4.68-2.3,9.85-3.51,15.13-3.39,5.64,0,11.17,1.33,16.09,4.24,4.68,2.66,8.53,6.66,11.05,11.38v-47.46h25.94v89.72c-.12,1.94,.24,3.75,1.2,5.45,1.08,1.21,2.64,1.82,4.32,1.94v22.04c-2.04,.49-4.08,.85-6.12,1.09-1.68,.12-3.36,.24-4.8,.24-3.84,.24-7.68-.73-11.05-2.78-2.76-1.82-4.56-4.84-4.8-8.23l-.48-4.36c-2.76,5.09-7.09,9.2-12.25,11.87-5.04,2.54-10.69,3.88-16.45,3.88l-.12-.12Zm6.96-22.04c3.6,0,7.2-1.09,10.21-3.15,3.24-2.06,5.88-5.09,7.57-8.72v-17.92c-1.56-4.24-4.32-7.99-7.8-10.65-3.24-2.66-7.21-4.12-11.29-4.12-2.64,0-5.28,.6-7.68,1.82-2.28,1.21-4.32,2.91-6,4.96-1.8,2.18-3.12,4.6-3.96,7.14-.96,2.79-1.44,5.69-1.44,8.6s.48,5.93,1.56,8.84c.96,2.54,2.4,4.96,4.2,7.02,1.8,1.94,3.96,3.51,6.48,4.6,2.52,1.09,5.28,1.7,8.17,1.57h0Z"/><path id="Vector_11" class="cls-1" d="M808.36,160.89v-23.61h25.82v23.61h-25.82Zm0,95.41v-85.6h25.82v85.6h-25.82Z"/><path id="Vector_12" class="cls-1" d="M872.24,256.3l-30.02-85.6h26.66l18.49,64.66,18.73-64.66h24.14l-29.9,85.6h-28.1Z"/><path id="Vector_13" class="cls-1" d="M975.99,257.88c-6.61,0-13.09-1.09-19.21-3.51-5.4-2.18-10.33-5.45-14.41-9.57-3.84-4-6.96-8.72-8.89-13.93-2.04-5.33-3.12-10.9-3.12-16.59s.96-11.87,3.12-17.56c1.92-5.33,5.04-10.29,8.89-14.41,4.08-4.24,8.89-7.63,14.29-9.81,6.12-2.54,12.73-3.75,19.33-3.63,6.6,0,13.09,1.09,19.21,3.63,5.4,2.18,10.2,5.57,14.17,9.69,3.84,4,6.84,8.84,8.76,14.04,2.04,5.33,3,11.02,3,16.83,0,1.57,0,3.03-.12,4.48,0,1.33-.24,2.54-.48,3.88h-62.68c0,5.09,2.4,9.81,6.24,13.08,3.6,2.91,8.04,4.48,12.73,4.48,3.84,0,7.57-.97,10.93-2.79,3.24-1.57,5.76-4.24,6.96-7.51l21.97,6.17c-3.48,6.9-8.88,12.59-15.49,16.47-7.68,4.48-16.45,6.66-25.22,6.42v.12Zm18.01-52.55c-.24-4.84-2.4-9.44-5.88-12.96-3.36-3.15-7.8-4.84-12.49-4.72-4.68-.12-9.13,1.57-12.49,4.84-3.36,3.39-5.4,7.99-5.76,12.83h36.62Z"/><path id="Vector_14" class="cls-1" d="M1086.11,192.98c-5.77,0-11.53,1.09-17.05,3.15-4.57,1.57-8.41,4.72-11.05,8.84v51.34h-25.82v-85.72h23.78v17.32c2.64-5.33,6.48-10.05,11.29-13.56,4.2-3.15,9.36-4.96,14.64-5.08h2.65s1.08,0,1.68,.12v23.49l-.12,.12Z"/><path id="Vector_15" class="cls-1" d="M1129.7,257.88c-7.21,0-14.41-1.21-21.38-3.51-6.6-2.06-12.61-5.57-17.77-10.17l9.25-15.98c4.68,3.39,9.72,6.18,15.13,8.35,4.44,1.82,9.24,2.91,14.17,2.91,2.76,.12,5.4-.48,7.8-1.82,1.8-1.09,2.88-3.15,2.76-5.21,0-2.3-1.32-4.48-3.48-5.45-3.84-1.94-8.04-3.39-12.25-4.36-5.76-1.57-10.56-3.15-14.41-4.72-3.36-1.21-6.6-2.91-9.6-5.09-2.28-1.57-4.09-3.87-5.29-6.42-1.08-2.66-1.68-5.57-1.56-8.48-.12-8.11,3.48-15.86,9.73-21.07,3.24-2.66,6.84-4.6,10.81-5.93,4.32-1.45,8.88-2.18,13.45-2.06,6,0,12.12,.85,17.89,2.66,6,1.94,11.4,5.21,16.09,9.44l-9.97,15.62c-4.08-2.91-8.4-5.33-12.97-7.39-3.48-1.45-7.2-2.18-11.04-2.3-2.53,0-4.93,.48-7.09,1.7-3,1.82-3.84,5.81-2.04,8.72,.6,.85,1.32,1.57,2.28,2.18,3.72,1.82,7.69,3.03,11.77,3.88,5.16,1.33,10.33,2.91,15.25,4.84,3.6,1.33,6.96,3.15,10.09,5.45,2.4,1.82,4.32,4.24,5.64,6.9,1.2,2.91,1.8,6.05,1.8,9.32,.24,7.87-3.24,15.38-9.37,20.22-7.44,5.33-16.45,7.99-25.45,7.51l-.24,.24Z"/><path id="Vector_16" class="cls-1" d="M1176.05,160.89v-23.61h25.94v23.61h-25.94Zm0,95.41v-85.6h25.94v85.6h-25.94Z"/><path id="Vector_17" class="cls-1" d="M1273.19,251.7c-3.96,1.7-8.04,3.03-12.24,4.24-4.45,1.33-9.13,1.94-13.81,1.94-3.13,0-6.13-.36-9.13-1.21-2.76-.73-5.28-2.06-7.57-3.88-2.28-1.94-3.96-4.36-5.04-7.14-1.32-3.39-1.92-7.02-1.8-10.65v-44.68h-10.81v-19.74h10.81v-27.24h25.94v27.24h17.29v19.74h-17.29v35.72c-.24,2.18,.6,4.48,2.04,6.05,1.44,1.33,3.36,1.94,5.28,1.94,2.04,0,4.09-.36,6.01-.97,1.8-.61,3.6-1.33,5.28-2.06l5.04,20.83v-.12Z"/><path id="Vector_18" class="cls-1" d="M1282.92,269.14c1.92,.73,3.96,1.21,6,1.7,1.68,.24,3.37,.48,5.17,.48,2.76,.12,5.52-1.09,7.32-3.27,2.28-3.51,3.84-7.51,4.69-11.74l-32.31-85.6h26.66l19.69,63.32,16.94-63.32h24.25l-32.3,99.53c-4.44,14.41-17.89,24.22-32.78,23.85-2.16,0-4.44-.24-6.61-.61-2.28-.36-4.56-1.09-6.72-1.94v-22.4Z"/><path id="Vector_19" class="cls-1" d="M705.33,329.07v-40.44h5.04v40.44h-5.04Z"/><path id="Vector_20" class="cls-1" d="M747.12,329.07h-4.92v-16.59c.12-2.42-.36-4.84-1.44-6.9-.96-1.45-2.64-2.3-4.32-2.18-1.08,0-2.04,.24-3,.6-1.08,.36-2.04,.97-2.88,1.57-.96,.73-1.68,1.45-2.4,2.42-.72,.97-1.2,2.06-1.56,3.15v17.92h-4.92v-29.67h4.56v6.42c1.2-2.06,3-3.88,5.04-4.96,2.16-1.21,4.68-1.94,7.2-1.94,1.44,0,2.88,.24,4.2,.97,1.08,.61,2.04,1.57,2.64,2.66,.72,1.21,1.2,2.54,1.44,4,.24,1.57,.48,3.27,.48,4.96v17.68l-.12-.12Z"/><path id="Vector_21" class="cls-1" d="M758.17,329.07v-25.79h-3.96v-3.88h3.96v-.61c-.12-3.03,.72-6.17,2.4-8.72,1.56-2.06,4.08-3.27,6.6-3.15,1.2,0,2.28,.12,3.48,.48,1.08,.36,2.04,.73,3,1.33l-1.2,3.63s-1.2-.73-1.92-.97c-.72-.24-1.56-.36-2.28-.36-1.44,0-2.88,.61-3.72,1.94-.96,1.69-1.44,3.51-1.32,5.45v.85h7.81v3.88h-7.81v25.79h-4.92l-.12,.12Z"/><path id="Vector_22" class="cls-1" d="M790.23,329.68c-4.08,0-7.92-1.7-10.69-4.6-1.32-1.45-2.28-3.03-3-4.84-1.44-3.75-1.44-7.99,0-11.74,.72-1.82,1.68-3.39,3-4.84,5.64-5.93,15.01-6.18,20.89-.61,.24,.24,.36,.36,.6,.61,1.32,1.45,2.28,3.03,3,4.84,1.44,3.75,1.44,7.99,0,11.74-1.44,3.63-4.2,6.66-7.81,8.23-1.92,.85-3.96,1.33-6,1.21h0Zm-9.73-15.26c0,1.45,.24,2.91,.72,4.36,.48,1.33,1.2,2.42,2.04,3.51,.84,.97,1.92,1.82,3.12,2.3,2.4,1.09,5.16,1.09,7.68,0,1.2-.61,2.28-1.45,3.12-2.42,.96-1.09,1.68-2.18,2.16-3.51,.48-1.45,.72-2.91,.72-4.36s-.24-2.91-.72-4.24c-.48-1.33-1.2-2.54-2.16-3.51-.84-.97-1.92-1.82-3.12-2.42-1.2-.6-2.52-.85-3.84-.85s-2.64,.24-3.84,.85c-1.2,.61-2.28,1.45-3.12,2.42-.84,1.09-1.56,2.18-2.04,3.51-.48,1.45-.72,2.91-.72,4.48v-.12Z"/><path id="Vector_23" class="cls-1" d="M829.26,303.77c-2.28,0-4.56,.73-6.6,1.94-1.92,1.21-3.24,2.91-4.08,5.09v18.28h-4.92v-29.67h4.56v6.9c.96-1.94,2.28-3.63,3.96-4.96,1.56-1.21,3.36-1.94,5.28-2.18h1.68v4.6h.12Z"/><path id="Vector_24" class="cls-1" d="M880.77,329.07h-4.92v-16.59c.12-2.42-.36-4.84-1.44-6.9-.96-1.45-2.64-2.3-4.44-2.18-2.04,0-3.96,.73-5.4,2.18-1.68,1.57-2.76,3.51-3.36,5.69v17.92h-4.92v-16.59c.24-2.42-.36-4.84-1.44-6.9-.96-1.45-2.64-2.3-4.44-2.18-2.04,0-3.96,.73-5.4,2.18-1.68,1.45-2.88,3.51-3.48,5.69v17.92h-4.92v-29.66h4.56v6.42c1.08-2.06,2.76-3.88,4.68-5.09,1.92-1.21,4.2-1.82,6.48-1.82,2.16,0,4.2,.61,5.88,2.06,1.44,1.33,2.4,3.27,2.64,5.21,2.04-4.48,6.36-7.26,11.17-7.26,1.44,0,3,.24,4.32,.97,1.08,.61,2.04,1.57,2.76,2.66,.72,1.21,1.2,2.54,1.44,4,.36,1.57,.48,3.27,.48,4.96v17.8l-.24-.48Z"/><path id="Vector_25" class="cls-1" d="M898.42,329.68c-1.32,0-2.64-.24-3.84-.73-1.2-.48-2.28-1.09-3.12-1.94-.84-.85-1.56-1.82-2.04-2.91-.48-1.09-.72-2.42-.72-3.63,0-1.33,.24-2.54,.84-3.75,.6-1.09,1.56-2.18,2.52-2.91,1.2-.85,2.52-1.45,3.96-1.82,1.68-.48,3.36-.73,5.04-.73,1.44,0,2.88,.12,4.32,.36,1.32,.24,2.64,.61,3.84,1.09v-2.42c.36-3.88-2.52-7.39-6.36-7.75h-1.44c-3.36,.12-6.72,1.33-9.37,3.51l-1.68-3.27c3.36-2.42,7.33-3.75,11.41-3.88,3.36-.24,6.6,.97,9.01,3.15,2.28,2.3,3.48,5.57,3.24,8.84v12.11c0,1.21,.48,1.82,1.56,1.82v4.36h-1.32s-.72,.24-1.08,.12c-.84,0-1.8-.24-2.4-.85-.6-.61-.96-1.33-1.08-2.18v-2.06c-1.44,1.82-3.12,3.15-5.16,4.12-2.04,.97-4.2,1.45-6.36,1.45l.24-.12Zm1.32-3.75c1.68,0,3.36-.36,4.92-.97,1.44-.48,2.64-1.45,3.48-2.66,.6-.61,1.08-1.33,1.08-2.18v-4.36c-2.4-.97-4.92-1.45-7.45-1.45-2.16,0-4.2,.48-6,1.57-1.44,.85-2.28,2.42-2.28,4.12,0,1.57,.6,3.15,1.8,4.24,.6,.48,1.32,.97,2.04,1.21,.84,.36,1.68,.48,2.52,.48h-.12Z"/><path id="Vector_26" class="cls-1" d="M939.13,327.62s-.72,.36-1.2,.6c-.48,.24-1.08,.36-1.68,.61-.72,.24-1.32,.36-2.04,.48-.72,.12-1.56,.24-2.28,.24-1.68,0-3.36-.48-4.68-1.45-1.32-1.09-2.16-2.91-1.92-4.72v-19.98h-3.96v-3.88h3.96v-9.93h4.92v9.93h6.6v3.88h-6.6v18.4c0,.97,.36,1.82,1.08,2.42,.6,.48,1.44,.73,2.28,.73,.96,0,1.8-.12,2.64-.48,.6-.24,1.08-.48,1.68-.73l1.2,4v-.12Z"/><path id="Vector_27" class="cls-1" d="M946.09,293.84v-6.3h4.92v6.3h-4.92Zm0,35.23v-29.67h4.92v29.67h-4.92Z"/><path id="Vector_28" class="cls-1" d="M974.43,329.68c-4.08,0-7.92-1.7-10.81-4.6-1.32-1.45-2.28-3.03-3-4.84-1.44-3.75-1.44-7.99,0-11.74,.72-1.82,1.68-3.39,3-4.84,1.32-1.45,2.88-2.54,4.68-3.39,1.92-.85,3.96-1.21,6-1.21,4.08,0,8.04,1.57,10.81,4.6,1.32,1.45,2.28,3.03,3,4.84,1.44,3.75,1.44,7.99,0,11.74-.72,1.82-1.68,3.39-3,4.84s-3,2.54-4.68,3.39c-1.92,.85-3.96,1.33-6,1.21Zm-9.73-15.38c0,1.45,.24,2.91,.72,4.36,.48,1.33,1.2,2.42,2.04,3.51,.84,.97,1.92,1.82,3.12,2.3,2.4,1.09,5.16,1.09,7.57,0,1.2-.61,2.28-1.45,3.12-2.42,.96-1.09,1.68-2.18,2.16-3.51,.48-1.45,.72-2.91,.72-4.36s-.24-2.91-.72-4.24c-.48-1.33-1.2-2.54-2.16-3.51-.84-.97-1.92-1.82-3.12-2.42-1.2-.6-2.52-.85-3.84-.85s-2.64,.24-3.84,.85c-1.2,.61-2.28,1.45-3.12,2.42-.84,1.09-1.56,2.18-2.04,3.51-.48,1.45-.84,2.91-.72,4.48l.12-.12Z"/><path id="Vector_29" class="cls-1" d="M1023.31,329.07h-4.93v-16.59c.12-2.42-.36-4.84-1.44-6.9-.96-1.45-2.64-2.3-4.32-2.18-1.08,0-2.04,.24-3,.6-1.08,.36-2.05,.97-2.89,1.57-.96,.73-1.68,1.45-2.4,2.42-.72,.97-1.2,2.06-1.56,3.15v17.92h-4.92v-29.67h4.56v6.42c1.2-2.06,2.88-3.87,5.04-4.96,2.17-1.21,4.69-1.94,7.21-1.94,1.44,0,2.88,.24,4.2,.97,1.08,.61,2.04,1.57,2.76,2.66,.72,1.21,1.21,2.54,1.45,4,.24,1.57,.48,3.27,.48,4.96v17.8l-.24-.24Z"/><path id="Vector_30" class="cls-1" d="M1071.94,297.11s-1.08-1.09-1.8-1.57c-.84-.49-1.68-.97-2.52-1.33-.96-.36-2.05-.73-3.13-.97-1.08-.24-2.28-.36-3.48-.36-2.4-.24-4.8,.36-6.84,1.82-1.44,1.21-2.28,3.03-2.16,4.84,0,.97,.24,1.94,.6,2.79,.48,.73,1.2,1.45,1.92,1.82,1.08,.61,2.16,.97,3.36,1.33,1.32,.36,2.88,.73,4.68,1.21,1.92,.36,3.72,.97,5.65,1.57,1.56,.49,3,1.21,4.32,2.18,1.2,.85,2.04,1.94,2.76,3.15,.6,1.45,.96,3.03,.96,4.6,0,1.69-.36,3.51-1.08,5.08-.72,1.45-1.8,2.66-3.12,3.51-1.44,.97-3,1.7-4.56,2.06-1.93,.48-3.85,.73-5.77,.73-3,0-6-.48-8.76-1.45-2.77-.97-5.29-2.42-7.57-4.24l2.4-4.36c.72,.73,1.44,1.33,2.28,1.94,1.08,.73,2.17,1.33,3.25,1.7,1.32,.48,2.64,.97,3.96,1.21,1.44,.36,2.88,.48,4.44,.48,2.28,.12,4.68-.36,6.61-1.57,1.56-.97,2.52-2.79,2.4-4.6,0-.97-.24-2.06-.72-2.91-.6-.85-1.32-1.57-2.16-2.06-1.08-.61-2.41-1.09-3.61-1.45-1.44-.48-3.12-.85-4.92-1.33-1.8-.48-3.6-.97-5.4-1.57-1.44-.48-2.65-1.21-3.85-2.06-.96-.73-1.8-1.82-2.28-2.91-.6-1.33-.84-2.66-.84-4.12,0-1.82,.36-3.51,1.08-5.09,.72-1.45,1.68-2.78,3-3.75,1.33-1.09,2.89-1.82,4.57-2.3,1.92-.48,3.84-.73,5.76-.73,2.52,0,4.92,.36,7.33,1.21,2.16,.73,4.08,1.94,5.76,3.39l-2.4,4.24-.12-.12Z"/><path id="Vector_31" class="cls-1" d="M1084.31,337.06s.96,.12,1.44,.12h1.08s.84,0,1.2-.36c.48-.36,.84-.73,1.08-1.21,.48-.85,.84-1.7,1.2-2.54,.48-1.09,.96-2.54,1.68-4.24l-12.49-29.67h5.17l10.08,25.18,9.13-25.18h4.8l-14.41,37.54c-.6,1.33-1.44,2.54-2.64,3.51-1.44,1.09-3.24,1.57-5.04,1.45h-1.08s-.84-.12-1.32-.24v-4.6l.12,.24Z"/><path id="Vector_32" class="cls-1" d="M1125.73,329.68c-2.4,0-4.68-.36-6.96-1.09-2.16-.61-4.2-1.7-5.88-3.27l2.16-3.39c1.56,1.21,3.36,2.3,5.16,3.03,1.8,.73,3.6,.97,5.52,.97,1.81,0,3.61-.36,5.17-1.21,1.2-.73,1.92-2.18,1.92-3.63,0-.61-.12-1.33-.48-1.82-.36-.61-.96-.97-1.56-1.33-.84-.49-1.68-.73-2.64-.97-1.09-.24-2.29-.61-3.73-.97-1.8-.48-3.36-.85-4.56-1.33-1.08-.36-2.16-.85-3.12-1.45-.72-.48-1.44-1.21-1.8-2.06-.36-.97-.6-1.94-.6-2.91,0-2.66,1.08-5.21,3.24-6.9,1.08-.85,2.28-1.45,3.6-1.82,1.44-.36,2.88-.61,4.44-.61,2.17,0,4.21,.36,6.25,1.09,1.8,.61,3.36,1.57,4.8,2.78l-2.28,3.03c-1.2-1.09-2.64-1.94-4.2-2.42-1.56-.61-3.13-.85-4.81-.85-1.56,0-3.24,.36-4.56,1.21-1.32,.85-2.04,2.18-1.92,3.75,0,.6,0,1.21,.36,1.69,.24,.48,.72,.97,1.2,1.21,.72,.36,1.44,.73,2.16,.97,.84,.24,1.92,.61,3.12,.85,1.93,.48,3.61,.97,5.17,1.33,1.32,.36,2.52,.97,3.6,1.7,1.92,1.09,3,3.27,2.88,5.45,0,2.54-1.08,5.09-3.12,6.66-2.52,1.7-5.4,2.54-8.41,2.3h-.12Z"/><path id="Vector_33" class="cls-1" d="M1161.04,327.62s-.72,.36-1.2,.6c-.48,.24-1.08,.36-1.68,.61-.72,.24-1.32,.36-2.05,.48-.72,.12-1.56,.24-2.28,.24-1.68,0-3.36-.48-4.68-1.45-1.32-1.09-2.16-2.91-1.92-4.72v-19.98h-3.96v-3.88h3.96v-9.93h4.92v9.93h6.61v3.88h-6.61v18.4c0,.97,.36,1.82,1.08,2.42,.6,.48,1.44,.73,2.28,.73,.96,0,1.81-.12,2.65-.48,.6-.24,1.08-.48,1.68-.73l1.2,4v-.12Z"/><path id="Vector_34" class="cls-1" d="M1180.37,329.68c-2.04,0-4.2-.36-6.12-1.21-1.8-.73-3.49-1.94-4.81-3.27-1.32-1.45-2.4-3.15-3.12-4.96-.72-1.94-1.08-3.87-1.08-5.93s.36-4,1.08-5.93c.72-1.82,1.8-3.39,3.12-4.84,1.32-1.45,3.01-2.54,4.81-3.27,1.92-.85,3.96-1.21,6.12-1.21,6.12,0,11.53,3.63,13.69,9.44,.72,1.82,1.08,3.75,1.08,5.69v1.94h-24.5c0,1.45,.48,2.78,.96,3.99,1.09,2.3,2.89,4.12,5.29,5.21,1.08,.48,2.4,.73,3.6,.73,.84,0,1.8-.12,2.64-.36s1.68-.61,2.4-.97c.72-.36,1.44-.97,2.05-1.57,.6-.61,1.08-1.33,1.32-2.06l4.32,1.21c-.48,1.09-1.2,2.18-2.04,3.03-.84,.97-1.8,1.7-2.88,2.3-1.2,.73-2.41,1.21-3.73,1.57-1.32,.36-2.76,.49-4.2,.49Zm10.09-17.44c0-1.33-.48-2.66-1.08-3.88-.48-1.09-1.32-2.18-2.16-3.03-1.81-1.69-4.33-2.66-6.85-2.66-1.32,0-2.52,.24-3.72,.73-1.2,.48-2.16,1.09-3.12,2.06-.84,.85-1.69,1.94-2.17,3.03-.6,1.21-.84,2.54-.96,3.88h19.94l.12-.12Z"/><path id="Vector_35" class="cls-1" d="M1247.74,329.07h-4.93v-16.59c.12-2.42-.36-4.84-1.44-6.9-.96-1.45-2.64-2.3-4.44-2.18-2.04,0-3.96,.73-5.4,2.18-1.69,1.57-2.89,3.51-3.49,5.69v17.92h-4.92v-16.59c.24-2.42-.36-4.84-1.44-6.9-.96-1.45-2.64-2.3-4.44-2.18-2.05,0-3.97,.73-5.41,2.18-1.68,1.45-2.88,3.51-3.48,5.69v17.92h-4.92v-29.66h4.56v6.42c1.08-2.06,2.64-3.88,4.68-5.09,1.92-1.21,4.21-1.82,6.49-1.82,2.16,0,4.32,.61,5.88,2.06,1.44,1.33,2.4,3.27,2.64,5.21,2.04-4.48,6.37-7.26,11.29-7.26,1.44,0,2.88,.24,4.2,.97,1.08,.61,2.04,1.45,2.77,2.66,.72,1.21,1.2,2.54,1.44,4,.36,1.57,.48,3.27,.48,4.96v17.8l-.12-.48Z"/><path id="Vector_36" class="cls-1" d="M706.05,389.61v-25.79h-3.96v-3.88h3.96v-.6c-.24-3.03,.6-6.18,2.4-8.72,1.56-2.06,4.08-3.27,6.61-3.15,1.2,0,2.28,.12,3.48,.48,1.08,.36,2.04,.73,3,1.33l-1.2,3.63s-1.2-.73-1.92-.97c-.72-.24-1.56-.36-2.28-.36-1.44,0-2.88,.61-3.72,1.82-.96,1.7-1.44,3.51-1.32,5.45v.85h7.8v3.87h-7.8v25.79h-4.92l-.12,.24Z"/><path id="Vector_37" class="cls-1" d="M738.11,390.22c-4.08,0-7.92-1.7-10.81-4.6-1.32-1.45-2.28-3.03-3-4.84-1.44-3.75-1.44-7.99,0-11.74,.72-1.82,1.68-3.39,3-4.84,5.64-5.93,15.01-6.18,20.89-.61,.24,.24,.36,.36,.6,.61,1.32,1.45,2.28,3.03,3,4.84,1.44,3.75,1.44,7.99,0,11.74-1.44,3.63-4.2,6.66-7.8,8.23-1.92,.85-3.96,1.33-6,1.21h.12Zm-9.73-15.26c0,1.45,.24,2.91,.72,4.36,.48,1.33,1.2,2.42,2.04,3.51,.84,.97,1.92,1.82,3.12,2.3,2.4,1.09,5.16,1.09,7.68,0,1.2-.61,2.28-1.45,3.12-2.42,.96-.97,1.68-2.18,2.16-3.51,.48-1.45,.72-2.91,.72-4.36s-.24-2.91-.72-4.24c-.48-1.33-1.2-2.54-2.16-3.51-.84-.97-1.92-1.82-3.12-2.42-1.2-.61-2.52-.85-3.84-.85s-2.64,.24-3.84,.85c-1.2,.6-2.28,1.45-3.12,2.42-.84,1.09-1.56,2.18-2.04,3.51-.48,1.45-.72,2.91-.72,4.48v-.12Z"/><path id="Vector_38" class="cls-1" d="M777.14,364.31c-2.28,0-4.56,.73-6.6,1.94-1.92,1.21-3.24,2.91-4.08,5.08v18.28h-4.92v-29.67h4.56v6.9c.96-1.94,2.28-3.63,3.96-4.96,1.56-1.21,3.36-1.94,5.28-2.18h1.68v4.6h.12Z"/><path id="Vector_39" class="cls-1" d="M826.61,385.01v4.6h-27.26v-40.44h26.66v4.6h-21.61v13.08h18.85v4.24h-18.85v13.92h22.22Z"/><path id="Vector_40" class="cls-1" d="M843.3,390.22c-2.76,.12-5.28-.97-6.96-3.15-1.8-2.79-2.64-6.05-2.4-9.32v-17.8h4.92v16.83c0,6.05,2.04,9.08,6.24,9.08,2.04,0,4.08-.73,5.76-1.94,1.8-1.33,3.24-3.27,3.96-5.33v-18.65h4.92v23.49c0,1.21,.48,1.82,1.56,1.82v4.36h-2.28c-.84,.12-1.68-.12-2.4-.73-.6-.61-.96-1.33-1.08-2.18v-3.51c-1.32,2.18-3.12,3.88-5.28,5.09-2.16,1.21-4.56,1.82-7.09,1.82l.12,.12Z"/><path id="Vector_41" class="cls-1" d="M886.17,364.31c-2.28,0-4.56,.73-6.61,1.94-1.92,1.21-3.24,2.91-4.08,5.08v18.28h-4.92v-29.67h4.56v6.9c.96-1.94,2.28-3.63,3.96-4.96,1.56-1.21,3.36-1.94,5.28-2.18h1.68v4.6h.12Z"/><path id="Vector_42" class="cls-1" d="M905.63,390.22c-4.08,0-8.04-1.57-10.81-4.6-1.32-1.45-2.28-3.03-3-4.84-1.44-3.75-1.44-7.99,0-11.74,.72-1.82,1.8-3.39,3-4.84,5.64-5.93,14.89-6.18,20.89-.61,.24,.24,.36,.36,.6,.61,1.32,1.45,2.4,3.03,3,4.84,1.44,3.75,1.44,7.99,0,11.74-.72,1.82-1.68,3.39-3,4.84-1.32,1.45-2.88,2.54-4.68,3.39-1.92,.85-3.96,1.33-6,1.21h0Zm-9.73-15.26c0,1.45,.24,2.91,.72,4.36,.48,1.33,1.2,2.42,2.04,3.51,.84,.97,1.92,1.82,3.12,2.3,2.4,1.09,5.16,1.09,7.68,0,1.2-.61,2.28-1.45,3.12-2.42,.96-1.09,1.68-2.18,2.16-3.51,.48-1.45,.72-2.91,.72-4.36s-.24-2.91-.72-4.24c-.48-1.33-1.2-2.54-2.16-3.51-.84-.97-1.92-1.82-3.12-2.42-1.2-.61-2.52-.85-3.84-.85s-2.64,.24-3.84,.85c-1.2,.6-2.28,1.45-3.12,2.42-.96,1.09-1.56,2.18-2.04,3.51-.48,1.45-.84,2.91-.72,4.48v-.12Z"/><path id="Vector_43" class="cls-1" d="M944.77,390.22c-2.28,0-4.56-.61-6.48-1.82-1.8-1.21-3.36-2.79-4.44-4.6v18.04h-4.92v-41.77h4.44v5.57c1.2-1.82,2.76-3.27,4.56-4.48,1.92-1.09,3.96-1.69,6.12-1.69,1.92,0,3.84,.36,5.52,1.21,1.68,.85,3.12,1.94,4.44,3.39,2.52,3.03,3.96,6.78,3.96,10.65,0,2.06-.36,4.12-.96,6.05-.6,1.82-1.56,3.51-2.76,4.84-1.2,1.33-2.52,2.54-4.2,3.27-1.68,.85-3.48,1.21-5.4,1.21l.12,.12Zm-1.56-4.36c1.32,0,2.76-.24,3.96-.97,1.2-.61,2.16-1.45,3-2.54,.84-1.09,1.56-2.3,1.92-3.51,.48-1.33,.72-2.66,.72-4.12,0-2.91-1.08-5.57-2.88-7.75-.84-.97-2.04-1.82-3.24-2.42-1.2-.61-2.64-.85-3.96-.85-.96,0-1.92,.24-2.76,.48-.96,.36-1.92,.85-2.76,1.45-.84,.61-1.56,1.33-2.16,2.06-.6,.73-.96,1.69-1.2,2.54v8.47c.36,.97,.96,1.94,1.56,2.79,1.2,1.57,2.88,2.91,4.8,3.63,.96,.36,1.92,.61,3,.61v.12Z"/><path id="Vector_44" class="cls-1" d="M979.72,390.22c-2.04,0-4.2-.36-6.12-1.21-1.8-.73-3.48-1.94-4.8-3.39s-2.4-3.15-3.12-4.96c-.72-1.94-1.08-3.88-1.08-5.93s.36-4,1.08-5.93c2.28-5.81,7.8-9.57,13.93-9.45,2.04,0,4.2,.36,6.12,1.21,3.48,1.57,6.24,4.48,7.57,8.11,.72,1.82,1.08,3.75,1.08,5.69v1.82h-24.38c0,1.45,.48,2.78,.96,3.99,.48,1.21,1.32,2.18,2.16,3.15,.84,.85,1.92,1.57,3.12,2.06,1.08,.48,2.4,.73,3.6,.73,.84,0,1.8-.12,2.64-.36,.84-.24,1.68-.61,2.4-.97,.72-.36,1.44-.97,2.04-1.57,.6-.61,1.08-1.33,1.32-2.06l4.32,1.21c-.48,1.09-1.2,2.18-2.04,3.03-.84,.97-1.8,1.82-2.88,2.42-1.2,.73-2.4,1.21-3.72,1.57-1.32,.36-2.76,.49-4.2,.49v.36Zm10.09-17.44c0-1.33-.48-2.66-1.08-3.87-.48-1.09-1.32-2.18-2.16-3.03-2.88-2.66-6.96-3.39-10.57-1.94-1.2,.49-2.16,1.09-3.12,2.06-.84,.85-1.68,1.94-2.16,3.03-.6,1.21-.84,2.54-.96,3.87h19.93l.12-.12Z"/><path id="Vector_45" class="cls-1" d="M506.48,184.38c2.4-2.42,3.72-5.69,3.36-9.08,.24-3.27-.84-6.42-3-8.84-1.8-2.06-4.44-3.15-7.2-3.15h-27.02v23.97h26.06c2.88,0,5.64-.97,7.8-2.91Zm-3.24,23.97h-30.62v25.31h29.42c3.24,0,6.36-1.09,8.53-3.39,2.28-2.42,3.48-5.69,3.36-8.96,0-3.27-.96-6.54-3.12-9.08-1.8-2.42-4.68-3.75-7.8-3.75l.24-.12Zm134.73-17.07c-5.16,0-10.09,2.18-13.45,6.17-1.8,2.06-3.12,4.48-3.96,7.14-.96,2.91-1.44,5.93-1.44,9.08-.24,5.93,1.68,11.62,5.28,16.23,3.36,3.99,8.41,6.17,13.57,6.05,2.52,0,5.16-.49,7.45-1.7,2.28-1.09,4.32-2.66,5.88-4.6,1.8-2.06,3.12-4.48,3.96-7.14,.96-2.91,1.44-5.93,1.44-9.08,.24-5.93-1.56-11.62-5.28-16.22-3.36-4-8.29-6.18-13.45-6.05v.12ZM486.91,4.09c-110.59,0-200.17,90.45-200.17,201.84s89.58,201.84,200.17,201.84,200.17-90.33,200.17-201.84S597.5,4.09,486.91,4.09h0Zm-143.5,103.4l6.6-19.86,6.6,19.86h20.89l-16.81,12.71,6.6,20.7-17.41-13.32-17.41,13.32,6.6-20.7-16.69-12.71h21.01Zm24.02,207.53l-17.41-13.32-17.29,12.59,6.6-20.46-16.69-12.71h20.89l6.6-19.86,6.61,19.86h20.77l-16.69,13.2,6.72,20.7h-.12Zm23.66-86.94l-16.93-13.44-17.77,12.59,6.48-20.34-16.69-12.11,20.89-.61,7.2-19.98,6,19.86h20.77l-16.57,13.2,6.61,20.82h0Zm146.98,11.5c-2.04,3.75-4.92,6.9-8.4,9.2-3.84,2.54-8.05,4.48-12.49,5.57-4.92,1.21-9.97,1.94-15.01,1.94h-55.96v-115.87h63.88c3.72,0,7.44,.85,10.81,2.66,3.12,1.69,6,3.99,8.29,6.78,2.28,2.79,4.08,6.05,5.28,9.44,1.2,3.51,1.92,7.14,1.8,10.9,0,5.45-1.44,10.9-4.08,15.62-2.76,4.96-7.2,8.84-12.37,11.14,6.12,1.7,11.65,5.33,15.61,10.41,3.96,5.57,6,12.35,5.76,19.25,0,4.48-.96,8.96-3,12.96h-.12Zm42.63,16.71h-25.82v-85.6h25.82v85.6Zm0-95.41h-25.82v-23.61h25.82v23.61Zm91.02,83.79c-4.08,4.24-8.89,7.51-14.29,9.69-12.49,4.84-26.18,4.84-38.67,0-5.4-2.18-10.21-5.45-14.29-9.69-3.84-4.12-6.85-8.84-8.89-14.17-3.96-10.9-3.96-22.88,0-33.78,1.92-5.33,4.92-10.17,8.89-14.17,4.08-4.24,8.89-7.51,14.29-9.81,6.12-2.54,12.73-3.75,19.33-3.63,6.61-.12,13.09,1.09,19.21,3.63,5.4,2.3,10.21,5.57,14.29,9.81,3.84,4.12,6.96,8.96,8.89,14.17,2.04,5.33,3.12,11.14,3.12,16.83s-.96,11.5-3,16.83c-1.92,5.33-4.92,10.05-8.77,14.17l-.12,.12Z"/></g></g></svg>