<svg id="Layer_1" data-name="Layer 1" xmlns="http://www.w3.org/2000/svg" viewBox="0 0 1200 630"><path d="M334.55,318a86,86,0,0,0-23.22-59.4,81.55,81.55,0,0,0-9.38-8.51l-12.42,22.07c13,11,22.26,26.88,22.26,45.84,0,33.08-25.3,59.9-56.5,59.9a53.44,53.44,0,0,1-20.68-4.17l-11.48,21.08a75.2,75.2,0,0,0,32.16,7.2c43.7,0,79.26-37.68,79.26-84" style="fill:#004b7f"/><path d="M312.07,164.94a127.58,127.58,0,0,0-2-21.78l-.43-2.29L308,142.43a123.85,123.85,0,0,0-14.18,16.33c-23.42,32-35.34,74.73-28.35,101.69l.2.79.76.16a35.55,35.55,0,0,1,4.17,1.12,37.15,37.15,0,0,1,4.53,1.86l.69.34.59-.49c21.2-17.5,36.2-59.25,35.7-99.29" style="fill:#007b6c"/><path d="M233.72,135.55l-1.34-1.85-.82,2.17a132.43,132.43,0,0,0-5.91,21.28c-7.67,39.64-.53,83.59,17,104.5l.51.62.75-.21a36.34,36.34,0,0,1,4.21-.95,37.4,37.4,0,0,1,4.83-.46l.77,0,.33-.72c11.7-25.6,7.75-70.08-9.4-105.76a121.11,121.11,0,0,0-10.91-18.6" style="fill:#007b6c"/><path d="M177.16,176.26a113.48,113.48,0,0,0-17.54-11.55l-2-1,.18,2.33a132.57,132.57,0,0,0,3.58,21.86c9.65,39.15,34.39,75.22,58.81,85.76l.72.31.58-.54a36.05,36.05,0,0,1,3.38-2.82,37.78,37.78,0,0,1,4.16-2.68l.67-.37v-.81c-.19-28.45-22.28-66.49-52.55-90.45" style="fill:#007b6c"/><path d="M116.56,245.53c25,30.59,62.21,51.35,88.52,49.36l.77-.06.29-.76A43,43,0,0,1,208,290a40.62,40.62,0,0,1,2.6-4.35L211,285l-.34-.72c-12-25.43-47.72-49.18-84.85-56.5a108.14,108.14,0,0,0-20.55-2.13h-2.2l1.13,2a128.28,128.28,0,0,0,12.34,17.93" style="fill:#007b6c"/><path d="M200.37,321l.67-.41,0-.82c-.1-1.62-.11-3.11-.06-4.56a44,44,0,0,1,.52-5.12l.13-.79-.6-.49c-21.4-17.17-63.32-21.76-99.68-10.91A110.57,110.57,0,0,0,82,305.65l-2,1L81.85,308a118.39,118.39,0,0,0,18.55,10.3c35.16,15.73,77.21,16.89,100,2.77" style="fill:#007b6c"/><path d="M206.54,347.22l.42-.69-.39-.7a42.43,42.43,0,0,1-1.95-4.06,45.31,45.31,0,0,1-1.67-4.84l-.21-.77L202,336c-26.35-5.37-65.86,10.16-93.95,36.93a119.56,119.56,0,0,0-14.11,16l-1.34,1.85,2.19.28a112.53,112.53,0,0,0,20.92.55c38.1-2.38,76.3-21.05,90.83-44.38" style="fill:#007b6c"/><path d="M219.22,363.38a38.06,38.06,0,0,1-3.51-3.56l-.51-.59-.74.21c-25.88,7.54-54.83,40-68.85,77.17a126.36,126.36,0,0,0-6,20.95l-.44,2.29,2.08-.78a116.64,116.64,0,0,0,19-9.31c33.19-20,59.66-54.65,63-82.38l.1-.81-.64-.45a41,41,0,0,1-3.46-2.74" style="fill:#007b6c"/><path d="M405.41,343.25a116.4,116.4,0,0,0,17-5.88c.65-6.36.6-22.7.55-24.52a116.9,116.9,0,0,0-16-7c-10.57-3.53-25.76-5.12-36.25-6-1.32-8.77-.43-4.11-2.75-13,9.35-5.47,22.66-13.61,30.91-21.59A117.57,117.57,0,0,0,410.74,252a180.54,180.54,0,0,0-10.23-22.37,110.19,110.19,0,0,0-16.9,2c-10.89,2.14-25,8.3-34.66,12.76-5.05-7.07-2.2-3.42-8.17-10.1,5.83-9.48,14-23.29,17.72-34.44a115.49,115.49,0,0,0,4.3-17.14,168.12,168.12,0,0,0-15.38-12.18L311.2,236.94A98,98,0,0,1,322.31,247a104.77,104.77,0,0,1,0,142.05c-17.89,19-41.69,29.42-67,29.42a89.84,89.84,0,0,1-38.3-8.57l-36.47,67a162.37,162.37,0,0,0,17.22,7.9,123.26,123.26,0,0,0,10.8-12.18c7-9.06,14.15-23.42,18.83-33.41,8.16,2,3.75,1.12,12.38,2.17,1.28,11.23,3.4,27.38,7.29,38.48a136.22,136.22,0,0,0,6.74,16.51c.5,0,16.79-.57,24.23-1.63a144.72,144.72,0,0,0,4.24-17.2c2.21-11.51,2.12-27.71,1.83-38.86,8.08-2.32,3.81-.89,11.89-4.26,6.11,9.28,15.13,22.49,23.47,30.35a120.59,120.59,0,0,0,13.7,11,167.45,167.45,0,0,0,20.43-13.35,137.35,137.35,0,0,0-4.07-17.24c-3.14-11.26-10.39-25.52-15.58-35.22,6.11-6.06,3-2.67,8.61-9.67,9.5,5.16,23.32,12.32,34.16,15.1A114.24,114.24,0,0,0,394,418.54a178.63,178.63,0,0,0,12-21.67,133.26,133.26,0,0,0-11.39-13.77c-7.77-8.38-20.48-17.35-29.37-23.34,2.72-8.4,1.44-3.84,3.33-12.83,10.69-.19,26.05-.74,36.86-3.68" style="fill:#004b7f"/><path d="M825.48,457.56l-.84,2.57a15.19,15.19,0,0,1-4.43,7,10.22,10.22,0,0,1-6.64,2.32,24.35,24.35,0,0,1-5.63-.61v11.35a32.66,32.66,0,0,0,7.27.8,22,22,0,0,0,13.2-4.08q5.65-4.08,8.7-12.29l22.19-59.15H844L834.25,435a40.64,40.64,0,0,0-2,9.1H832a40.43,40.43,0,0,0-1.74-9.1l-9.89-29.51H804.65ZM791.6,458a23.09,23.09,0,0,0,7-3V442.73a27.6,27.6,0,0,1-7,3.45,25.35,25.35,0,0,1-7.65,1.1q-11.17,0-11.16-15.38,0-15.86,11.16-15.86a20.11,20.11,0,0,1,5.81.87c1.94.57,4,1.32,6.29,2.22l4.22-11.07a36.47,36.47,0,0,0-16.32-3.56q-12.43,0-19.1,7.06T758.17,432q0,26.88,24.49,26.88a39,39,0,0,0,8.94-.85M748,423.73q0-9.33-4.74-14.28t-13.88-4.95a22.45,22.45,0,0,0-9.55,1.95,15.1,15.1,0,0,0-6.59,5.74h-.8l-1.92-6.71H699.55v52.45h14.31V433.26q0-9.28,2.67-13.3t8.68-4c2.94,0,5.08.94,6.42,2.84s2,4.73,2,8.51v30.63H748ZM678,458a33.54,33.54,0,0,0,8-2.79V444.09a45.23,45.23,0,0,1-8.82,3.15,39.75,39.75,0,0,1-9,1q-6.09,0-9.48-3.42t-3.61-9.53h33.82v-6.94q0-11.18-6.19-17.5t-17.31-6.33q-11.62,0-18.22,7.19t-6.59,20.38q0,12.81,7.13,19.8t19.79,7A49.84,49.84,0,0,0,678,458m-5.2-40.39c1.79,1.92,2.71,4.66,2.77,8.19H655.44c.25-3.53,1.24-6.27,2.95-8.19a9.09,9.09,0,0,1,7.13-2.88,9.38,9.38,0,0,1,7.23,2.88m-63.16-4.38q7.78,0,7.79,9.48a11,11,0,0,1-1.87,6.75c-1.25,1.66-3.23,2.49-5.91,2.49s-4.63-.83-5.93-2.49a10.63,10.63,0,0,1-1.95-6.75q0-9.48,7.87-9.48m-10.44,47.26a11.19,11.19,0,0,1,6.59-1.85h7.42q5.39,0,8,1.12a4.07,4.07,0,0,1,2.57,4.08q0,3.66-4.36,5.77t-12.05,2.11a15.66,15.66,0,0,1-7.95-1.69,5.19,5.19,0,0,1-2.84-4.65,5.73,5.73,0,0,1,2.65-4.89m19.54-55c-.56-.12-1.85-.31-3.87-.58a40.14,40.14,0,0,0-5.24-.4q-10.37,0-16,4.69t-5.58,13.27a17.3,17.3,0,0,0,2.42,9.28,14.06,14.06,0,0,0,6.54,5.72,19.9,19.9,0,0,0-5,3.92,7.54,7.54,0,0,0-.1,9.52,9.53,9.53,0,0,0,3.84,3.08,16.85,16.85,0,0,0-8.68,4.55,11.23,11.23,0,0,0-2.95,7.93,12.12,12.12,0,0,0,5.79,10.71q5.79,3.82,16.77,3.83,14.36,0,22-5.06a16.15,16.15,0,0,0,7.67-14.26q0-7.17-4.53-10.89t-13.15-3.7h-8.92q-7.87,0-7.87-3.1a4.76,4.76,0,0,1,2.2-3.75l2.11.24,2.58.14q10.46,0,16.34-4.71T631,422.75a14.3,14.3,0,0,0-2.25-7.88l8.2-2.11v-7.27H618.69ZM540,429.41q7.32-23.68,8.87-29.69c.25,1.12.66,2.65,1.24,4.6s3.17,10.3,7.77,25.09Zm42,28.52-24.3-68.86H539.9l-24.2,68.86h15.66l5-16.32h25l5,16.32Z"/><path d="M1106.47,339.84a5.59,5.59,0,0,1-1.71-4.51V310.05h14.68V299.31h-14.68V288.15h-9.15l-4.13,11.06L1083.6,304V310h6.84v25.28q0,8.69,3.92,13t12.5,4.33a32,32,0,0,0,13.13-2.39V339.63a31.12,31.12,0,0,1-9,1.64,6.63,6.63,0,0,1-4.52-1.43m-30.38-22.28q0-9.33-4.73-14.28t-13.89-4.95a22.4,22.4,0,0,0-9.54,1.95,15,15,0,0,0-6.59,5.74h-.79l-1.92-6.71H1027.7v52.45H1042V327.09q0-9.29,2.67-13.3t8.68-4c2.94,0,5.08.94,6.43,2.84s2,4.73,2,8.51v30.63h14.3v-34.2Zm-70,34.21a33.85,33.85,0,0,0,8-2.79V337.91a44.77,44.77,0,0,1-8.82,3.15,39.69,39.69,0,0,1-9,1q-6.09,0-9.47-3.42t-3.61-9.53h33.81v-6.94q0-11.17-6.19-17.5t-17.32-6.33q-11.62,0-18.22,7.2t-6.59,20.38q0,12.81,7.13,19.8t19.8,7a49.91,49.91,0,0,0,10.42-.92m-5.21-40.38c1.78,1.92,2.7,4.66,2.77,8.19H983.57c.24-3.53,1.23-6.27,2.95-8.19a9.07,9.07,0,0,1,7.13-2.88,9.31,9.31,0,0,1,7.23,2.88M926,325.44q0-8.16,2.6-11.92t7.86-3.75c2.72,0,4.71.94,6,2.84s1.9,4.73,1.9,8.51v30.63h14.35V317.56q0-10.08-4.57-14.66t-13.49-4.57a20.62,20.62,0,0,0-9.26,2,14.05,14.05,0,0,0-6.21,5.67h-1.27q-4.17-7.69-15.95-7.69a19.82,19.82,0,0,0-9.15,2,14.59,14.59,0,0,0-6.1,5.65h-.79L890,299.31H879.08v52.45h14.3V327.09q0-9.24,2.49-13.27t8-4c2.72,0,4.71.94,6,2.84s1.9,4.73,1.9,8.51v30.63H926V325.44Zm-59.88-7.88q0-9.33-4.73-14.28t-13.89-4.95a22.48,22.48,0,0,0-9.55,1.95,15.1,15.1,0,0,0-6.59,5.74h-.79l-1.92-6.71H817.74v52.45h14.31V327.09q0-9.29,2.67-13.3t8.68-4c2.94,0,5.08.94,6.43,2.84s2,4.73,2,8.51v30.63h14.3ZM804.34,311a21.93,21.93,0,0,0-8.87-9.43,26.47,26.47,0,0,0-13.32-3.28q-12.15,0-18.85,7.13t-6.71,20a31.87,31.87,0,0,0,3.1,14.45,22,22,0,0,0,8.87,9.5,26.32,26.32,0,0,0,13.32,3.3q12.06,0,18.81-7.22t6.76-20a31.9,31.9,0,0,0-3.11-14.4m-30.64,2.69c1.69-2.57,4.44-3.87,8.25-3.87s6.62,1.3,8.3,3.9,2.53,6.49,2.53,11.68-.84,9.15-2.51,11.79-4.41,4-8.23,4-6.62-1.32-8.32-4-2.55-6.59-2.55-11.77.85-9.13,2.53-11.71M737.91,301a19.75,19.75,0,0,0-6.59,7.11h-.7l-2.11-8.83H717.67v52.45H732V325.06q0-6.33,3.83-9.85t10.67-3.52a16.55,16.55,0,0,1,4.22.47l1.08-13.42a22.55,22.55,0,0,0-4.83-.42,16.41,16.41,0,0,0-9,2.7m-33.44-1.71h-14.3v52.45h14.3Zm-7.13-6.52c2.6,0,4.54-.62,5.84-1.85a6.82,6.82,0,0,0,2-5.19q0-7-7.78-7t-7.79,7q0,7,7.78,7m-34,59,20-52.45h-15l-10.08,29.88a47,47,0,0,0-2.12,10.74h-.28a53.51,53.51,0,0,0-2.11-10.74L643.64,299.3h-15l20,52.45Zm-39.25-34.19q0-9.33-4.73-14.28t-13.88-4.95a22.42,22.42,0,0,0-9.55,1.95,15,15,0,0,0-6.59,5.74h-.8l-1.92-6.71H575.69v52.45H590V327.09q0-9.29,2.67-13.3t8.68-4c2.94,0,5.09.94,6.43,2.84s2,4.73,2,8.51v30.63h14.3Zm-60.27,22.18h-25V322.05h23.22V310.14H538.87V295.08h25V283.16H524.33v68.58h39.49Z"/><path d="M956.53,211.38q0-9.33-4.73-14.28t-13.89-4.95a22.48,22.48,0,0,0-9.55,1.95,15.1,15.1,0,0,0-6.59,5.74H921l-1.92-6.71H908.12v52.45h14.31V220.9q0-9.28,2.67-13.3t8.68-4c2.94,0,5.08.94,6.43,2.84s2,4.73,2,8.51v30.63h14.3ZM881,225.59a10,10,0,0,1-3,7.6,11,11,0,0,1-7.95,2.86q-6.95,0-6.94-6.05a7.08,7.08,0,0,1,3.05-6.29q3-2.07,9.29-2.25l5.54-.19v4.32Zm14.21,20V210.63q0-9.39-5.63-14t-16.18-4.59a42.75,42.75,0,0,0-20.08,4.73l4.74,9.66q8.49-3.8,14.78-3.8,8.16,0,8.16,8v2.3l-9.1.29q-11.77.42-17.61,4.38t-5.84,12.31q0,8,4.34,12.29t11.89,4.31a24.07,24.07,0,0,0,10-1.76,21.16,21.16,0,0,0,7.44-6.31h.37l2.77,7.13h10Zm-64.55,0a33.85,33.85,0,0,0,8-2.79V231.74a44.77,44.77,0,0,1-8.82,3.15,39.69,39.69,0,0,1-9,1q-6.09,0-9.47-3.42t-3.62-9.53h33.82V216q0-11.17-6.19-17.5t-17.31-6.33q-11.62,0-18.22,7.2t-6.59,20.38q0,12.81,7.13,19.8t19.8,7a51.27,51.27,0,0,0,10.41-.92m-5.21-40.39c1.78,1.92,2.7,4.66,2.76,8.19H808.16c.25-3.53,1.24-6.27,3-8.19a9.07,9.07,0,0,1,7.13-2.88,9.38,9.38,0,0,1,7.23,2.88m-56.94,2.25q2.37,3.87,2.37,11.61,0,15.85-9.61,15.86-5.44,0-7.95-3.65t-2.51-12.1v-1.55q.09-7.5,2.53-10.76t7.74-3.26a8,8,0,0,1,7.43,3.85M776,243.28a20.56,20.56,0,0,0,7-9.43,39.39,39.39,0,0,0,2.46-14.58q0-12.77-5.26-19.94a17,17,0,0,0-14.54-7.17q-9.86,0-14.87,7.78h-.66l-2-6.8H736.52v75.52h14.3V247.41c0-.69-.25-3.23-.75-7.6h.75q5.25,6.72,14.5,6.71a18.1,18.1,0,0,0,10.7-3.24m-52.9-38.42a21.93,21.93,0,0,0-8.87-9.43,26.41,26.41,0,0,0-13.32-3.28q-12.15,0-18.86,7.13t-6.71,20a32,32,0,0,0,3.1,14.45,22.05,22.05,0,0,0,8.87,9.5,26.35,26.35,0,0,0,13.32,3.3q12.06,0,18.81-7.22t6.76-20a31.82,31.82,0,0,0-3.1-14.4m-30.63,2.69c1.69-2.57,4.44-3.87,8.26-3.87s6.61,1.3,8.3,3.9,2.54,6.49,2.54,11.68-.84,9.15-2.51,11.79-4.42,4-8.23,4-6.62-1.32-8.33-4S690,224.44,690,219.26s.83-9.12,2.52-11.71m-35.8-12.7A19.67,19.67,0,0,0,650.1,202h-.71l-2.11-8.83H636.44v52.45h14.3V218.89q0-6.33,3.83-9.85t10.67-3.52a16.44,16.44,0,0,1,4.22.47l1.08-13.42a22.49,22.49,0,0,0-4.83-.42,16.24,16.24,0,0,0-9,2.7m-33.38,50.72V193.12H609v24.67q0,9.28-2.67,13.3t-8.68,4q-4.41,0-6.42-2.83c-1.34-1.9-2-4.73-2-8.52V193.12H574.9v34.2q0,9.28,4.69,14.23t13.93,4.95a22.27,22.27,0,0,0,9.62-2,15.09,15.09,0,0,0,6.52-5.65h.75l1.92,6.71h11Zm-59.49-12h-25V215.88h23.22V204H538.87V188.91h25V177H524.33v68.58h39.49Z"/></svg>