<?xml version="1.0" encoding="UTF-8"?><svg id="Layer_1" xmlns="http://www.w3.org/2000/svg" viewBox="0 0 1276 399"><g id="FiseDark"><g id="Group_839"><g id="Group"><g id="Group_2"><path id="Vector" d="M364.84,147.32c2.97,3.94,5.64,7.95,8.13,12.08C352.58,104.18,311.08,49.08,239.41,.89c-21.3,13.29-39.87,27.37-55.95,41.99,84.9,13.35,143.7,54.25,181.39,104.44Z" style="fill:#fff; fill-rule:evenodd;"/></g><g id="Group_3"><path id="Vector_2" d="M278.18,104.66C198.68,83.3,100.31,96.71,0,184.65c39.75,129.62,121.19,187.27,201.17,208.63,79.5,21.36,161.42-26.34,182.78-105.77,21.42-79.5-26.28-161.48-105.77-182.84ZM117.73,245.27l10.92-.49,3.94-10.92,3.46,10.92h10.92l-8.92,6.98,3.94,10.92-9.47-6.98-9.47,6.98,3.46-10.92-8.8-6.49Zm38.78,72.03l-9.47-6.98-9.47,6.43,3.46-10.92-8.92-6.98h11.41l3.46-10.44,3.46,10.44h11.41l-8.92,7.46,3.58,10.98Zm-3.52-119.73l3.46,10.92-9.47-6.98-9.47,6.98,3.46-10.92-8.92-6.98h11.41l3.46-10.44,3.46,10.44h11.41l-8.8,6.98Zm39.75,148.01l3.46,10.92-9.47-6.98-9.47,6.98,3.46-10.92-9.47-6.98h11.89l3.46-10.92,3.46,10.92h11.41l-8.74,6.98Zm0-187.76l3.46,11.41-9.47-7.46-9.47,7.46,3.46-11.41-9.47-6.43h11.89l3.46-10.92,3.46,10.92h11.41l-8.74,6.43Zm57.65,213.61l-9.47-7.46-9.47,6.98,4-10.92-9.47-6.43,11.41-.48,3.46-10.44,3.46,10.44h11.41l-8.92,6.98,3.58,11.35Zm-3.46-228.48l3.46,11.41-9.47-7.46-9.47,6.98,4-10.92-9.47-6.43,11.41-.49,3.46-10.44,3.46,10.44h11.41l-8.8,6.92Zm58.07,213.55l-9.47-6.98-9.95,6.98,3.46-10.92-8.92-6.98h11.41l3.94-10.92,2.97,10.92h11.41l-8.92,6.98,4.07,10.92Zm-3.94-198.68l4.01,11.41-9.47-7.46-9.95,7.46,3.46-11.41-8.92-6.43h11.41l3.94-10.92,2.97,10.92h11.41l-8.86,6.43Zm43.21,159.48l-9.47-6.98-9.47,6.43,3.46-10.92-8.92-6.98h11.41l3.46-10.44,3.46,10.44h11.41l-8.92,7.46,3.58,10.98Zm8.92-72.52h11.41l-8.92,6.98,3.46,10.92-8.92-6.98-9.95,6.98,3.46-10.92-8.92-6.43,11.41-.49,4.01-10.92,2.97,10.86Zm-12.38-47.21l3.46,10.92-9.47-6.98-9.47,6.98,3.46-10.92-8.92-6.98h11.41l3.46-10.44,3.46,10.44h11.41l-8.8,6.98Z" style="fill:#fff;"/><path id="Vector_3" d="M444.51,210.56h25.24v-12.93h-25.24v-16.02h27.01v-13.05h-42.97v70.21h15.96v-28.22Z" style="fill:#fff;"/><path id="Vector_4" d="M504.65,186.71c-16.39,0-27.25,10.56-27.25,27.01s11.47,26.28,26.4,26.28c13.65,0,26.94-8.56,26.94-27.25-.06-15.29-10.5-26.03-26.09-26.03Zm-.43,41.93c-6.8,0-10.44-6.61-10.44-15.35,0-7.52,2.85-15.35,10.44-15.35s10.13,7.77,10.13,15.35c0,9.22-3.94,15.35-10.13,15.35Z" style="fill:#fff;"/><path id="Vector_5" d="M538.45,238.84h15.84v-25.85c0-1.21,.12-2.49,.3-3.52,1.03-4.92,4.98-8.07,10.8-8.07,1.76,0,3.16,.18,4.25,.43v-14.93c-1.15-.18-1.88-.18-3.34-.18-4.92,0-11.17,3.16-13.78,10.56h-.43l-.48-9.41h-13.65c.18,4.37,.42,9.29,.42,16.81v34.16h.06Z" style="fill:#fff;"/><path id="Vector_6" d="M601.56,239.87c6.92,0,13.29-1.03,18.45-3.16l-2.06-10.74c-4.25,1.34-8.62,2.06-14.08,2.06-7.4,0-13.9-3.15-14.38-9.71v-.06h32.89c.18-1.15,.49-3.52,.49-6.25,0-12.62-6.25-25.43-22.76-25.43-17.72,0-25.79,14.32-25.79,27.25,0,15.96,9.89,26.03,27.25,26.03Zm-2.43-42.66c7.28,0,8.98,6.43,8.98,10.32h-18.75c.36-4.25,3.1-10.32,9.77-10.32Z" style="fill:#fff;"/><path id="Vector_7" d="M645.92,228.88c-4.67,0-10.74-2.06-13.65-3.88l-2.85,11.35c3.88,2.06,9.83,3.52,16.51,3.52,14.62,0,22.09-6.98,22.09-16.51-.12-7.52-4.19-12.44-13.84-15.72-6.25-2.25-8.25-3.46-8.25-5.89,0-2.61,2.18-4.19,6.07-4.19,4.43,0,8.8,1.7,11.1,2.91l2.85-10.92c-3.16-1.58-8.43-2.91-14.38-2.91-12.62,0-20.75,7.22-20.75,16.69-.12,6.07,3.95,11.83,14.5,15.35,5.95,2,7.52,3.28,7.52,5.89-.18,2.61-2.12,4.31-6.92,4.31Z" style="fill:#fff;"/><path id="Vector_8" d="M679.79,220.45c0,7.16,1.46,12.08,4.37,15.11,2.49,2.61,6.74,4.37,11.89,4.37,4.49,0,8.25-.49,10.32-1.33l-.12-11.96c-1.15,.18-2.67,.43-4.67,.43-4.79,0-6.25-2.85-6.25-8.98v-18.45h11.35v-11.65h-11.35v-14.62l-15.53,3.58v11.11h-6.74v11.65h6.74v20.75h0Z" style="fill:#fff;"/><path id="Vector_9" d="M749.27,168.56h-15.96v70.27h15.96v-70.27Z" style="fill:#fff;"/><path id="Vector_10" d="M787.32,199.51c5.77,0,8.07,4.49,8.07,11.11v28.28h15.84v-30.22c0-14.99-7.83-21.91-18.21-21.91-8.44,0-13.66,4.92-15.78,8.13h-.3l-.73-6.98h-13.78c.18,4.49,.42,9.95,.42,16.26h-.06v34.71h15.84v-29.43c0-1.52,.24-3.03,.67-3.94,1.03-2.97,3.64-6.01,8.01-6.01Z" style="fill:#fff;"/><path id="Vector_11" d="M825.73,238.84h15.9v-39.32h10.13v-11.65h-10.26v-2.61c0-5.04,2.18-9.1,7.4-9.1,2.06,0,3.76,.36,5.1,.73l.67-12.2c-2.18-.67-4.91-1.03-8.43-1.03-4.55,0-10.07,1.33-14.08,5.1-4.55,4.19-6.43,10.92-6.43,17.11v2h-6.68v11.65h6.68v39.32Z" style="fill:#fff;"/><path id="Vector_12" d="M881.93,239.99c13.65,0,26.94-8.56,26.94-27.25,0-15.35-10.38-26.1-26.09-26.1s-27.25,10.56-27.25,27.01,11.47,26.34,26.4,26.34Zm.42-41.99c7.22,0,10.13,7.77,10.13,15.35,0,9.16-3.94,15.35-10.13,15.35-6.8,0-10.44-6.61-10.44-15.35,0-7.59,2.85-15.35,10.44-15.35Z" style="fill:#fff;"/><path id="Vector_13" d="M945.64,201.39c1.76,0,3.16,.18,4.25,.43v-14.93c-1.15-.18-1.88-.18-3.34-.18-4.85,0-11.11,3.16-13.78,10.56h-.42l-.48-9.41h-13.65c.18,4.37,.42,9.29,.42,16.81v34.23h15.84v-25.85c0-1.21,.12-2.49,.3-3.52,1.09-4.98,5.04-8.13,10.86-8.13Z" style="fill:#fff;"/><path id="Vector_14" d="M1004.45,238.84v-29.86c0-1.21,.24-2.91,.67-4.07,1.03-3.04,3.7-5.52,7.28-5.52,5.1,0,7.52,4.25,7.52,11.65v27.79h15.48v-30.04c0-15.17-7.41-22.09-17.18-22.09-3.7,0-6.85,.79-9.71,2.49-2.36,1.52-4.67,3.58-6.55,6.13h-.18c-2.19-5.34-7.41-8.62-13.96-8.62-8.8,0-13.29,4.79-15.47,8.07h-.3l-.73-6.92h-13.35c.18,4.49,.42,9.95,.42,16.26h-.12v34.71h15.47v-29.68c0-1.21,.12-2.73,.67-3.94,.97-2.61,3.34-5.7,7.4-5.7,5.04,0,7.28,4.37,7.28,10.8v28.58l15.36-.06Z" style="fill:#fff;"/><path id="Vector_15" d="M1075.82,233.74h.3l.97,5.1h14.32c-.54-2.85-.72-7.53-.72-12.44v-17.72c0-11.96-5.41-22.03-22.4-22.03-9.28,0-16.32,2.49-19.84,4.49l2.91,10.26c3.34-2.06,8.86-3.88,14.08-3.88,7.83,0,9.29,3.82,9.29,6.55v.73c-18.09-.12-29.98,6.25-29.98,19.54,0,8.13,6.13,15.66,16.5,15.66,6.01,0,11.23-2.19,14.57-6.25Zm-.67-18.99v5.52c0,.97-.12,1.88-.3,2.73-1.03,3.28-4.25,5.89-8.26,5.89-3.52,0-6.25-2-6.25-6.07,0-6.19,6.5-8.13,14.81-8.07Z" style="fill:#fff;"/><path id="Vector_16" d="M1104.46,220.45c0,7.16,1.45,12.08,4.37,15.11,2.49,2.61,6.73,4.37,11.89,4.37,4.49,0,8.25-.49,10.32-1.33l-.12-11.96c-1.16,.18-2.67,.43-4.68,.43-4.79,0-6.25-2.85-6.25-8.98v-18.45h11.35v-11.65h-11.35v-14.62l-15.53,3.58v11.11h-6.74v11.65h6.74v20.75Z" style="fill:#fff;"/><path id="Vector_17" d="M1148.4,181.61c5.22,0,8.55-3.58,8.55-7.95-.12-4.61-3.33-8.07-8.43-8.07s-8.44,3.46-8.38,8.07c-.12,4.43,3.22,7.95,8.26,7.95Z" style="fill:#fff;"/><path id="Vector_18" d="M1156.41,187.86h-15.84v51.04h15.84v-51.04Z" style="fill:#fff;"/><path id="Vector_19" d="M1193.42,186.71c-16.38,0-27.24,10.56-27.24,27.01s11.47,26.28,26.39,26.28c13.66,0,26.95-8.56,26.95-27.25,0-15.29-10.44-26.03-26.1-26.03Zm-.36,41.93c-6.74,0-10.44-6.61-10.44-15.35,0-7.52,2.85-15.35,10.44-15.35s10.13,7.77,10.13,15.35c0,9.22-4,15.35-10.13,15.35Z" style="fill:#fff;"/><path id="Vector_20" d="M1257.44,186.71c-8.43,0-13.65,4.92-15.72,8.13h-.3l-.73-6.98h-13.77c.18,4.49,.42,9.95,.42,16.26h-.06v34.71h15.84v-29.43c0-1.52,.24-3.03,.67-3.94,1.03-2.91,3.7-5.95,8.07-5.95,5.76,0,8.07,4.49,8.07,11.1v28.28h15.84v-30.22c-.12-15.05-7.89-21.97-18.33-21.97Z" style="fill:#fff;"/><path id="Vector_21" d="M455.92,286.47c-9.04-3.46-12.99-5.46-12.99-9.95,0-3.64,3.34-6.74,10.26-6.74s11.89,2,14.69,3.34l3.52-12.8c-4.19-1.82-10.01-3.52-17.96-3.52-16.57,0-26.58,9.16-26.58,21.18,0,10.26,7.59,16.69,19.3,20.75,8.43,3.03,11.77,5.58,11.77,9.95s-3.88,7.59-11.17,7.59c-6.8,0-13.35-2.18-17.66-4.37l-3.22,13.11c3.95,2.18,11.89,4.25,19.9,4.25,19.3,0,28.34-10.01,28.34-21.79,.06-9.89-5.77-16.39-18.21-21Z" style="fill:#fff;"/><path id="Vector_22" d="M507.39,302.31c-.73,2.91-1.52,6.74-2.31,9.47h-.3c-.61-2.67-1.64-6.43-2.49-9.47l-7.59-25.06h-17.66l18.69,46.67c.67,1.21,.73,2.06,.73,2.61,0,.73-.36,1.52-.85,2.31-1.52,2.61-4.19,5.1-6.55,6.37-2.43,1.52-4.92,2.43-6.92,2.73l3.34,13.47c3.94-.55,9.83-2.18,15.35-6.98,5.7-5.1,10.62-13.29,17.96-33.5l11.89-33.56h-16.99l-6.31,24.94Z" style="fill:#fff;"/><path id="Vector_23" d="M559.57,297.09c-6.25-2.18-8.25-3.46-8.25-5.89,0-2.61,2.19-4.19,6.07-4.19,4.43,0,8.8,1.7,11.1,2.91l2.85-10.92c-3.16-1.58-8.43-2.91-14.38-2.91-12.62,0-20.75,7.22-20.75,16.69-.12,6.07,3.94,11.83,14.5,15.35,5.95,2,7.53,3.28,7.53,5.89s-1.94,4.25-6.74,4.25-10.74-2.06-13.65-3.88l-3.03,11.41c3.88,2.06,9.83,3.52,16.51,3.52,14.62,0,22.09-6.98,22.09-16.51-.06-7.52-4.13-12.44-13.84-15.72Z" style="fill:#fff;"/><path id="Vector_24" d="M600.78,262.62l-15.54,3.58v11.11h-6.74v11.65h6.74v20.88c0,7.16,1.46,12.08,4.37,15.11,2.49,2.61,6.74,4.37,11.89,4.37,4.49,0,8.25-.48,10.32-1.33l-.12-11.95c-1.15,.18-2.67,.42-4.67,.42-4.79,0-6.25-2.85-6.25-8.98v-18.45h11.35v-11.65h-11.35v-14.75h0Z" style="fill:#fff;"/><path id="Vector_25" d="M645.74,276.04c-17.72,0-25.79,14.32-25.79,27.25,0,15.96,9.89,25.97,27.25,25.97,6.92,0,13.29-1.03,18.45-3.16l-2.06-10.74c-4.25,1.34-8.62,2.06-14.08,2.06-7.4,0-13.9-3.15-14.38-9.71v-.06h32.89c.18-1.15,.48-3.52,.48-6.25,0-12.5-6.25-25.37-22.76-25.37Zm-10.74,20.94c.42-4.25,3.16-10.32,9.77-10.32,7.28,0,8.98,6.43,8.98,10.32h-18.75Z" style="fill:#fff;"/><path id="Vector_26" d="M737.86,276.1c-3.7,0-6.86,.79-9.71,2.49-2.37,1.52-4.67,3.58-6.55,6.13h-.18c-2.18-5.34-7.4-8.62-13.96-8.62-8.8,0-13.29,4.79-15.47,8.07h-.3l-.73-6.92h-13.35c.18,4.49,.42,9.95,.42,16.26h-.12v34.71h15.47v-29.68c0-1.21,.12-2.73,.67-3.94,.97-2.61,3.34-5.7,7.4-5.7,5.04,0,7.28,4.37,7.28,10.8v28.58h15.47v-29.8c0-1.21,.24-2.91,.67-4.07,1.03-3.04,3.7-5.52,7.28-5.52,5.1,0,7.52,4.25,7.52,11.65v27.73h15.47v-30.04c-.12-15.23-7.52-22.15-17.29-22.15Z" style="fill:#fff;"/><path id="Vector_27" d="M794.91,258.2c-4.55,4.19-6.43,10.92-6.43,17.11v2h-6.68v11.65h6.68v39.32h15.9v-39.32h10.13v-11.65h-10.26v-2.61c0-5.04,2.18-9.1,7.4-9.1,2.06,0,3.76,.36,5.1,.73l.67-12.2c-2.18-.67-4.92-1.03-8.43-1.03-4.55-.06-10.07,1.27-14.08,5.1Z" style="fill:#fff;"/><path id="Vector_28" d="M845.57,276.1c-16.38,0-27.25,10.56-27.25,27s11.47,26.28,26.4,26.28c13.65,0,26.94-8.56,26.94-27.25-.06-15.29-10.44-26.03-26.09-26.03Zm-.48,41.99c-6.8,0-10.44-6.61-10.44-15.35,0-7.52,2.85-15.35,10.44-15.35s10.13,7.77,10.13,15.35c0,9.16-3.95,15.35-10.13,15.35Z" style="fill:#fff;"/><path id="Vector_29" d="M895.58,286.65h-.42l-.49-9.41h-13.65c.18,4.37,.42,9.29,.42,16.81v34.23h15.84v-25.85c0-1.21,.12-2.49,.3-3.52,1.03-4.92,4.98-8.07,10.8-8.07,1.76,0,3.15,.18,4.25,.42v-14.93c-1.15-.18-1.88-.18-3.34-.18-4.85-.06-11.1,3.1-13.71,10.5Z" style="fill:#fff;"/><path id="Vector_30" d="M952.38,298.55h25.85v-12.99h-25.85v-14.56h27.43v-13.05h-43.39v70.33h44.85v-13.05h-28.89v-16.69Z" style="fill:#fff;"/><path id="Vector_31" d="M1038.68,311.9v-34.65h-15.96v30.34c0,1.21-.12,2.49-.55,3.4-1.03,2.49-3.58,5.52-7.95,5.52-5.58,0-7.95-4.49-7.95-11.89v-27.43h-15.96v29.98c0,15.72,7.59,22.21,17.97,22.21,9.16,0,13.95-5.22,15.96-8.37h.3l.73,7.22h13.77c-.18-4.25-.36-9.71-.36-16.32Z" style="fill:#fff;"/><path id="Vector_32" d="M1067.63,286.65h-.43l-.48-9.41h-13.66c.18,4.37,.43,9.29,.43,16.81v34.23h15.84v-25.85c0-1.21,.12-2.49,.3-3.52,1.03-4.92,4.98-8.07,10.8-8.07,1.76,0,3.16,.18,4.25,.42v-14.93c-1.15-.18-1.88-.18-3.34-.18-4.85-.06-11.1,3.1-13.71,10.5Z" style="fill:#fff;"/><path id="Vector_33" d="M1116.53,276.1c-16.38,0-27.25,10.56-27.25,27s11.47,26.28,26.4,26.28c13.65,0,26.94-8.56,26.94-27.25,0-15.29-10.43-26.03-26.09-26.03Zm-.36,41.99c-6.74,0-10.44-6.61-10.44-15.35,0-7.52,2.85-15.35,10.44-15.35s10.13,7.77,10.13,15.35c0,9.16-4,15.35-10.13,15.35Z" style="fill:#fff;"/><path id="Vector_34" d="M1183.77,276.15c-7.41,0-13.23,2.85-17,8.25h-.18l-.73-7.1h-13.77c.18,4.67,.42,10.44,.42,17.11v54.56h15.84v-25.31h.18c2.31,3.4,7.1,5.89,13.29,5.89,11.35,0,23.12-8.74,23.12-27.31-.06-16.38-10.01-26.09-21.17-26.09Zm-5.89,41.02c-4.61,0-8.25-3.22-9.28-7.52-.19-.97-.31-2.06-.31-3.34h.06v-6.98c0-.97,.12-2,.31-2.85,1.03-4.73,5.03-8.07,9.46-8.07,7.1,0,10.74,6.13,10.74,14.32,0,8.68-4.06,14.44-10.98,14.44Z" style="fill:#fff;"/><path id="Vector_35" d="M1238.02,276.04c-17.72,0-25.79,14.32-25.79,27.25,0,15.96,9.89,25.97,27.25,25.97,6.92,0,13.29-1.03,18.45-3.16l-2.07-10.74c-4.24,1.34-8.61,2.06-14.07,2.06-7.41,0-13.84-3.15-14.39-9.71v-.06h32.83c.25-1.15,.55-3.52,.55-6.25,0-12.5-6.31-25.37-22.76-25.37Zm-10.74,20.94c.43-4.25,3.16-10.32,9.77-10.32,7.28,0,8.92,6.43,8.92,10.32h-18.69Z" style="fill:#fff;"/></g></g><path id="Vector_36" d="M88.91,46.1c-10.98,29.31-17.78,56.98-21.24,82.96,76.22-43.45,149.04-47.76,210.51-31.25,26.46,7.1,49.4,21,67.42,39.2C294.2,79.48,211.67,38.28,88.91,46.1Z" style="fill:#fff; fill-rule:evenodd;"/></g></g></svg>