<?xml version="1.0" encoding="UTF-8"?><svg id="Layer_1" xmlns="http://www.w3.org/2000/svg" xmlns:xlink="http://www.w3.org/1999/xlink" viewBox="0 0 872 378"><defs><style>.cls-1,.cls-2{fill:#fff;}.cls-2{fill-rule:evenodd;}.cls-3{clip-path:url(#clippath);}.cls-4{fill:none;}</style><clipPath id="clippath"><rect class="cls-4" y=".44" width="871.42" height="377.1"/></clipPath></defs><g class="cls-3"><g id="WiseFDark"><path id="Vector" class="cls-1" d="M869.84,.13V56h-109.57v35.1h88.61v53.72h-88.61v39.56h109.57v57.79h-182.68V.13h182.68Z"/><path id="Vector_2" class="cls-1" d="M423.86,242.12h-74.54V.09h74.54V242.12Z"/><path id="Vector_3" class="cls-1" d="M198.53,.13l36.02,139.59L268.59,.13h57.02l-64.42,242.03h-62.62l-33.96-133.48-32.07,133.48H67.28L2.82,.13H72.93l34,139.33L140.03,.13h58.5Z"/><path id="Vector_4" class="cls-1" d="M554.48,83.86c28.36,5.94,48.42,11.12,60.34,15.76,11.92,4.64,21.82,12.41,29.97,23.53,8.02,11.12,11.92,24.25,11.92,39.3,0,23.67-9.59,43.05-29.07,57.78-19.49,14.74-44.93,22.1-76.51,22.1-57.74,0-93.35-23.85-106.88-71.63l67.46-11.97c5.69,18.93,20.34,28.45,43.76,28.45,18.19,0,27.33-4.78,27.33-14.42,0-5.05-2.2-9.11-6.41-11.83-4.21-2.9-11.78-5.36-22.67-7.5-41.57-7.95-68.22-18.35-79.96-31.04-11.78-12.73-17.74-27.73-17.74-44.92,0-22.24,8.6-40.59,25.44-55.33C498.48,7.41,522.76,.04,554.61,.04c48.16,0,79.96,19.34,95.55,57.78l-60.21,18.04c-6.27-15.76-18.9-23.53-37.94-23.53-15.86,0-23.7,4.78-23.7,14.6,0,4.33,1.75,7.64,5.38,10.09,3.49,2.37,10.44,4.64,20.79,6.83h0Z"/><path id="Vector_5" class="cls-1" d="M67.28,342.77h25.8v-32.24h28.22v-19.38h-28.22v-14.02h36.69v-20.54h-62.53v86.18h.04Zm144.96-47.65c2.02-3.8,3.05-8.22,3.05-13.17,0-7.64-2.78-13.75-8.29-18.44-5.51-4.64-13.21-7.01-23.2-7.01h-45.15v86.19h26.56v-33h8.38l12.63,33h29.43l-15.68-37.6c6.14-2.81,10.26-6.16,12.27-9.96Zm-27.68-5.81c-2.02,1.39-4.75,2.05-8.02,2.05h-11.33v-16.48h12.23c6.81,0,10.21,2.77,10.21,8.26,0,2.72-1.08,4.73-3.09,6.16h0Zm40.94,53.45h65.09v-20.59h-39.02v-14.07h31.54v-19.11h-31.54v-12.5h39.02v-19.92h-65.09v86.18h0Zm130-51c-4.35-1.7-11.69-3.62-22.04-5.76-3.76-.8-6.32-1.65-7.62-2.55-1.34-.89-1.97-2.1-1.97-3.71,0-3.62,2.87-5.36,8.64-5.36,6.94,0,11.6,2.86,13.84,8.62l21.99-6.61c-5.69-14.07-17.34-21.17-34.9-21.17-11.65,0-20.52,2.68-26.7,8.08-6.18,5.4-9.27,12.15-9.27,20.27,0,6.3,2.2,11.79,6.49,16.48,4.3,4.64,14.02,8.48,29.21,11.39,3.99,.8,6.76,1.7,8.29,2.77,1.52,1.03,2.33,2.5,2.33,4.33,0,3.53-3.36,5.31-9.99,5.31-8.56,0-13.93-3.48-15.99-10.45l-24.64,4.38c4.93,17.51,17.96,26.26,39.02,26.26,11.51,0,20.83-2.68,27.95-8.08,7.12-5.4,10.62-12.5,10.62-21.17,0-5.49-1.43-10.32-4.35-14.42-2.96-4.06-6.58-6.92-10.93-8.62h0Zm69.93-3.48h-20.29v-31.71h-26.56v86.18h26.56v-33.54h20.29v33.54h26.56v-86.18h-26.56v31.71h0Zm130.71-31.71l-12.09,49.7-12.86-49.7h-20.83l-11.78,49.61-12.1-49.61h-24.95l22.98,86.18h23.25l11.42-47.56,12.1,47.56h22.31l22.85-86.18h-20.29Zm43.99,0l-26.7,86.18h21.55l5.2-17.01h23.16l4.88,17.01h27.1l-27.15-86.18h-28.04Zm4.57,50.42l7.03-25.01,7.03,25.01h-14.07Zm45.11-29.79h17.96v65.55h25.18v-65.55h17.96v-20.63h-61.01v20.63h-.09Zm66.39,65.55h65.09v-20.59h-39.02v-14.07h31.54v-19.11h-31.54v-12.5h39.02v-19.92h-65.09v86.18Zm137.84-37.6c6.18-2.9,10.26-6.25,12.27-10.05,2.02-3.8,3.05-8.22,3.05-13.17,0-7.64-2.78-13.75-8.29-18.44-5.51-4.64-13.22-7.01-23.2-7.01h-45.15v86.19h26.56v-33h8.38l12.63,33h29.43l-15.68-37.51Zm-15.41-15.85c-2.02,1.39-4.75,2.05-8.02,2.05h-11.33v-16.48h12.23c6.81,0,10.21,2.77,10.21,8.26,0,2.72-1.03,4.73-3.09,6.16h0Z"/><path id="Vector_6" class="cls-2" d="M361.46,149.06v-13.04c5.06,.85,15.27,2.14,24.77,2.14s20.52-1.65,25.98-2.68v13.62c-4.03-.8-13.26-2.1-25.98-2.1s-21.05,1.25-24.77,2.05h0Zm24.82-13.22c7.17,0,15.14-.94,20.87-1.83-.58-.09-1.16-.13-1.84-.22-4.35-.49-10.62-.89-19.08-.89s-14.51,.4-18.64,.89c-1.12,.13-2.06,.27-2.91,.4,5.46,.76,13.8,1.65,21.59,1.65h0Zm0-5.31c-8.56,0-14.69,.4-18.9,.89-2.11,.27-3.76,.54-4.97,.8-1.21,.27-2.06,.54-2.6,.8l-.67,.31v44.25c.18,8.04,.72,20.9,1.57,33.27,.85,12.32,2.11,24.29,3.76,30.54l.22,.85h43.68l.22-.85c1.43-5.05,4.52-24.74,5.96-63.81v-44.34l-.76-.31c-1.17-.45-3.81-1.07-8.24-1.56-4.39-.45-10.75-.85-19.26-.85h0Zm-24.82,20.01c2.69,1.47,11.83,4.65,25.98,4.65s22.53-3.17,24.77-4.65v1.52c-3.67,1.79-12.05,4.33-24.77,4.33s-22.08-2.63-25.98-4.42v-1.43Zm2.78,41.49c.81,14.33,2.02,36.3,4.35,40.9,1.17,2.37,11.2,3.53,15.95,1.79,2.06-.76,.72-1.83-1.7-3.75-2.87-2.28-7.26-5.81-9.5-11.52-2.06-5.23-4.52-16.39-6.45-25.01-1.97-8.84-3.36-14.96-3-9.11,.09,1.88,.22,4.15,.36,6.7h0Z"/><path id="Vector_7" class="cls-2" d="M181.6,175.41l16.98,66.76h55.32c1.7-6.79,4.43-18.62-5.6-36.31-2.6-4.6-5.82-8.75-8.87-12.73-6.9-8.93-13.04-16.93-10.03-26.7,4.7-15.32,14.47-25.9,17.11-25.9,.45,0,.54,.36,.76,1.03,.31,1.07,.81,2.9,3.4,5.45,4.12,4.11,21.9,16.61,24.19,17.06,2.69,.54,1.12-2.54,.22-4.29-.09-.18-.13-.31-.22-.45-1.61-2.68-3.94-6.03-6.09-9.07-2.6-3.71-4.88-6.97-5.15-7.99-.36-1.52,.45-3.26,1.25-4.96,.45-.94,.9-1.88,1.12-2.68,.04-.13,.04-.27,.09-.4,.72-2.72,2.55-9.82-3.05-13.71-5.33-3.71-14.96-3.13-22.44,1.79l-2.29,1.7-3.81,15.67-2.51-9.74c-9.23,10.36-16.8,20.59-18.54,36.48-1.39,12.73,2.46,26.97,8.91,37.96,3.67,6.25,9.99,16.97,4.66,20.85-6.5,4.69-12.41-7.64-15.37-14.69-2.91-7.1-12.36-29.7-30.06-35.14h0Zm78.35-38.72c0,.98-.81,1.79-1.79,1.79s-1.79-.8-1.79-1.79,.81-1.79,1.79-1.79,1.79,.8,1.79,1.79ZM118.48,242.12h14.07l16.62-69.26c-.81-.18-3.58-.22-5.96,1.16-2.96,1.79-1.79,3.53,1.79,5.31,1.16,.58,1.16,3.53-2.96,1.79-1.3-.54-2.29-1.12-3.14-1.56-1.84-1.03-2.91-1.61-4.57-.8-1.57,.8,.54,2.63,2.64,4.46,1.03,.89,2.1,1.83,2.69,2.63,2.28,2.99,0,5.31-2.96,2.95-2.96-2.37-5.11-3.57-7.66-2.95-2.37,.58-2.96,3.53,.58,6.48,5.11,4.24,6.5,9.42,.58,10-15.27,1.52-17.11,8.22-16.53,16.48,.54,7.46,10.71,11.03,16.13,12.95,.58,.22,1.12,.4,1.57,.58,3.54,1.79,.58,3.53-5.33,3.53s-7.66-1.79-8.87-2.95c-.22-.22-.49-.54-.72-.8-.9-1.07-1.61-1.96-1.61,.8,.09,2.81,2.46,7.32,3.63,9.2h0Z"/><path id="Vector_8" class="cls-2" d="M100.16,310.53c-11.78-3.53-21.5-6.88-28.49-9.56l-.85,2.19c5.73,2.19,13.26,4.87,22.26,7.68v-.31h7.08Zm38.44,10.14v2.41c8.47,1.92,17.34,3.8,26.56,5.45v-2.41c-9.18-1.7-18.1-3.53-26.56-5.45Zm42.29,8.13l.99,2.54c9.99,1.52,20.25,2.81,30.64,3.8l-1.03-2.46c-10.39-1.03-20.65-2.32-30.6-3.89h0Zm44.62,5v2.37c8.82,.58,17.74,.89,26.61,.89,14.16,0,26.88-.18,38.48-.49v-2.37c-11.56,.31-24.28,.49-38.48,.49-8.87,0-17.74-.31-26.61-.89Zm76.6,0c.81,.8,1.61,1.56,2.51,2.23,24.64-1.07,43.86-3.13,61.64-6.25,.63-.85,1.17-1.74,1.66-2.68-18.77,3.44-39.15,5.63-65.8,6.7h0Zm76.51-8.8v2.41c8.83-1.88,17.52-4.02,26.56-6.52v-2.46c-9.09,2.55-17.74,4.73-26.56,6.56h0Zm46.81-12.37v2.46c7.3-2.19,15.01-4.55,23.29-7.1,1.07-.31,2.15-.67,3.22-.98v-2.46c-1.34,.4-2.64,.8-3.94,1.21-8.02,2.46-15.5,4.73-22.58,6.88Zm47.17-14.51l.63,2.28c3.4-1.12,6.99-2.32,10.8-3.62,3.58-1.21,7.39-2.5,11.38-3.84l-.58-2.28c-4.08,1.34-7.93,2.68-11.6,3.89-3.76,1.25-7.3,2.46-10.62,3.57h0Zm30.33-10.14l-.63,2.68c10.44-3.39,22.09-6.97,35.08-10.36l-.58-2.28c-12.5,3.26-23.74,6.7-33.87,9.96h0Zm48.92-13.71l-.63,2.55c6.67-1.56,13.71-3.08,21.05-4.47l.67-2.5c-7.35,1.39-14.38,2.9-21.1,4.42h0Zm45.42-8.4l-.76,2.5c10.8-1.52,22.17-2.81,34.22-3.75l-.72-2.32c-11.51,.89-22.4,2.1-32.75,3.57Zm52.59-4.78v2.37c8.06-.36,16.4-.54,24.99-.54,12.01,0,24.1,.54,36.02,1.47v-2.37c-11.96-.94-24.01-1.43-36.02-1.43-8.6,0-16.93,.13-24.99,.49Zm66.34,1.34v2.37c22.62,2.01,44.71,5.4,65.09,9.38v-2.41c-20.38-3.98-42.47-7.32-65.09-9.33h0Zm76.47,11.7v2.41c9.36,2.01,18.28,4.11,26.61,6.25v-2.41c-8.33-2.14-17.25-4.24-26.61-6.25Zm48.47,12.19c-.31,.76-.76,1.43-1.39,2.06,9.99,2.9,18.68,5.67,25.71,8.17,.31-.45,.58-.94,.85-1.38,.14-.22,.22-.45,.36-.67-6.99-2.5-15.63-5.27-25.53-8.17h0Z"/><path id="Vector_9" class="cls-2" d="M806.68,51.62c.76,.94,1.21,2.37,1.43,4.33h-38.7c.18-1.96,.63-3.39,1.43-4.33,1.12-1.38,2.87-1.7,4.97-1.7h2.91c-.09-2.72,.85-5.18,2.06-7.14,1.21-1.96,2.73-3.48,3.85-4.33v-2.68c-5.47-1.65-9.5-6.47-9.99-12.32h-8.91c-1.57,2.37-6.27,7.06-12.41,7.06-7.66,0-11.83-4.11-11.83-10.58s5.91-9.42,11.83-9.42c4.7,0,10.21,3.93,12.41,5.89h10.12c2.24-4.87,7.17-8.22,12.9-8.22,7.03,0,12.86,5.09,13.98,11.74h9.05c1.57-2.37,6.27-7.06,12.41-7.06,7.66,0,11.83,4.11,11.83,10.58s-5.91,9.42-11.83,9.42c-4.7,0-10.21-3.93-12.41-5.89h-9.67c-1.48,4.2-4.93,7.5-9.23,8.8v2.68c1.12,.85,2.64,2.37,3.85,4.33,1.21,1.96,2.15,4.42,2.06,7.14h2.91c2.11,0,3.85,.31,4.97,1.7h0Zm-46.41,22.46h-27.01c-17.47,0-23.43,8.62-24.19,12.95v50.59c-2.96,0-5.33,.8-5.33,4.11s2.37,4.11,5.91,4.11h33.06c2.96,0,4.7-1.29,4.7-4.11s-1.79-4.11-4.7-4.11v-25.9h106.16v-20.63h-88.6v-17.01h0Zm-45.87,119.27c0-9.02,11.69-32.6,12.9-34.96,.04-.09,.14-.09,.18,0,1.21,2.37,12.9,25.99,12.9,34.96,0,9.51-5.82,17.19-12.99,17.19s-12.99-7.68-12.99-17.19h0ZM869.84,54.7v1.3h-13.35c1.61-3.26,3.99-6.61,6.63-6.61,2.33,0,4.84,2.55,6.72,5.31Zm-137.3,149.02c.9,.4,2.15-.53,2.78-2.01,.63-1.47,.45-3.04-.45-3.39-.9-.4-2.15,.54-2.78,2.01-.67,1.47-.45,2.99,.45,3.39Z"/><path id="Vector_10" class="cls-2" d="M545.03,151.6c-2.82-.58-5.6-1.21-8.24-1.83v-46.31h-11.2v-8.22h11.2v-5.31h8.24v5.31h56.71c5.11,1.52,9.45,2.95,13.08,4.38,2.87,1.12,5.6,2.41,8.24,3.89h-20.61l-7.17,13.04c4.61,.71,8.2,5.4,8.2,11.07,0,2.99-.98,5.72-2.6,7.73l2.51,47.02h13.66l-.22,1.79v.09l.14,.18c.04,.09,.09,.18,.18,.31,.13,.27,.31,.58,.49,.94,.67,1.3,1.48,3.04,1.93,4.73,.45,1.7,.63,3.53-.18,4.96-.72,1.29-2.11,2.14-4.34,2.32l-.94,7.1h28.31V120.17c.81,1.03,1.61,2.05,2.37,3.13,2.28,3.17,4.26,6.52,5.87,10.05v58.99c-4.79,10.67-12.45,20.01-23.03,28-19.49,14.74-44.93,22.11-76.51,22.11-4.97,0-9.77-.18-14.38-.54v-23h-8.87v-14.11h8.87v-20.1c2.6,.8,5.33,1.43,8.24,1.88v18.26h29.74l4.52-23.44c.58-.54,1.12-1.16,1.52-1.79l-4.84,25.19h17.43l-2.96-22.37h11.69l-2.46-45.82c-1.57,1.43-3.58,2.28-5.73,2.28-1.84,0-3.54-.62-5.02-1.7l-6.36,33.05c-.13-.94-.36-1.79-.67-2.63l6.05-31.3c-2.06-2.05-3.4-5.14-3.4-8.62,0-5.72,3.63-10.45,8.29-11.07l-5.91-13.04h-41.93v48.05h.09Zm43.23-48.14l5.78,12.82,7.03-12.82h-12.81Zm26.92,92.93c1.79-.18,2.69-.85,3.14-1.65,.54-1.03,.49-2.46,.04-4.06-.45-1.61-1.16-3.21-1.84-4.51l-1.34,10.23h0Z"/><path id="Vector_11" class="cls-1" d="M81.12,368.36h-9.86v10h-4.26v-23.62h15.59v3.3h-11.33v7.01h9.86v3.3h0Z"/><path id="Vector_12" class="cls-1" d="M94.97,369.26h-4.75v9.11h-4.26v-23.62h8.6c2.82,0,5.02,.62,6.54,1.83,1.52,1.2,2.28,2.99,2.28,5.31,0,1.56-.4,2.9-1.21,3.97-.81,1.07-1.88,1.88-3.32,2.46l5.51,9.87v.22h-4.57l-4.84-9.15h0Zm-4.75-3.31h4.39c1.43,0,2.55-.36,3.36-1.03,.81-.71,1.21-1.65,1.21-2.86s-.36-2.23-1.12-2.95c-.76-.67-1.84-1.03-3.31-1.07h-4.48v7.9h-.04Z"/><path id="Vector_13" class="cls-1" d="M121.85,367.83h-10.08v7.28h11.78v3.26h-16.04v-23.62h15.9v3.3h-11.65v6.52h10.08v3.26h0Z"/><path id="Vector_14" class="cls-1" d="M139.81,372.29c0-1.03-.4-1.83-1.17-2.41-.76-.58-2.1-1.12-4.08-1.7-1.97-.58-3.54-1.2-4.7-1.92-2.24-1.34-3.36-3.13-3.36-5.31,0-1.92,.81-3.48,2.42-4.69,1.61-1.25,3.72-1.83,6.27-1.83,1.7,0,3.23,.31,4.57,.89,1.34,.63,2.37,1.47,3.14,2.59,.76,1.12,1.17,2.37,1.17,3.71h-4.26c0-1.25-.4-2.19-1.21-2.9-.81-.71-1.93-1.07-3.45-1.07-1.39,0-2.46,.27-3.27,.85-.76,.58-1.16,1.38-1.16,2.41,0,.85,.4,1.61,1.25,2.19,.85,.58,2.19,1.12,4.12,1.7,1.93,.54,3.45,1.16,4.61,1.88,1.16,.67,2.02,1.47,2.55,2.41,.54,.89,.81,1.96,.81,3.17,0,1.97-.81,3.53-2.37,4.69-1.57,1.16-3.67,1.74-6.36,1.74-1.79,0-3.4-.31-4.88-.94-1.48-.63-2.64-1.52-3.45-2.64-.81-1.12-1.21-2.41-1.21-3.88h4.26c0,1.34,.45,2.37,1.39,3.13,.94,.71,2.24,1.12,3.94,1.12,1.48,0,2.6-.27,3.32-.85,.76-.63,1.12-1.38,1.12-2.32h0Z"/><path id="Vector_15" class="cls-1" d="M167.27,378.37h-4.26v-10.49h-10.98v10.49h-4.25v-23.62h4.25v9.82h10.98v-9.82h4.26v23.62Z"/><path id="Vector_16" class="cls-1" d="M191.55,372.52l3.76-17.77h4.21l-5.65,23.62h-4.08l-4.66-17.24-4.75,17.24h-4.08l-5.64-23.62h4.21l3.81,17.77,4.7-17.77h3.58l4.57,17.77h0Z"/><path id="Vector_17" class="cls-1" d="M215.65,372.87h-9.5l-1.97,5.49h-4.43l9.27-23.62h3.81l9.27,23.62h-4.43l-2.02-5.49h0Zm-8.29-3.3h7.12l-3.54-9.83-3.58,9.83Z"/><path id="Vector_18" class="cls-1" d="M240.6,358.05h-7.66v20.32h-4.21v-20.32h-7.57v-3.3h19.44v3.3h0Z"/><path id="Vector_19" class="cls-1" d="M258.16,367.83h-10.08v7.28h11.78v3.26h-16.04v-23.62h15.9v3.3h-11.65v6.52h10.08v3.26h0Z"/><path id="Vector_20" class="cls-1" d="M272.31,369.26h-4.75v9.11h-4.26v-23.62h8.6c2.82,0,5.02,.62,6.54,1.83,1.52,1.2,2.33,2.99,2.33,5.31,0,1.56-.4,2.9-1.21,3.97s-1.88,1.88-3.32,2.46l5.51,9.87v.22h-4.57l-4.88-9.15h0Zm-4.75-3.31h4.39c1.43,0,2.55-.36,3.36-1.03,.81-.71,1.21-1.65,1.21-2.86s-.36-2.23-1.12-2.95c-.76-.67-1.84-1.03-3.32-1.07h-4.48v7.9h-.04Z"/><path id="Vector_21" class="cls-1" d="M297.89,378.37h-4.26v-23.62h4.26v23.62Z"/><path id="Vector_22" class="cls-1" d="M322.57,378.37h-4.26l-10.93-16.75v16.75h-4.26v-23.62h4.26l10.98,16.83v-16.83h4.21v23.62Z"/><path id="Vector_23" class="cls-1" d="M341.74,368.36h-9.85v10h-4.26v-23.62h15.59v3.3h-11.33v7.01h9.85v3.3h0Z"/><path id="Vector_24" class="cls-1" d="M366.16,367.16c0,2.32-.4,4.33-1.25,6.12-.85,1.74-2.02,3.08-3.58,4.02-1.52,.94-3.31,1.38-5.33,1.38s-3.76-.45-5.33-1.38c-1.57-.94-2.73-2.28-3.58-4.02-.85-1.74-1.25-3.71-1.3-5.98v-1.34c0-2.32,.4-4.33,1.26-6.12,.85-1.79,2.06-3.13,3.58-4.06,1.57-.94,3.31-1.43,5.33-1.43s3.76,.45,5.29,1.38c1.57,.94,2.73,2.23,3.58,3.98,.85,1.74,1.26,3.75,1.3,6.07v1.38h.04Zm-4.25-1.21c0-2.63-.54-4.64-1.57-6.03s-2.46-2.1-4.35-2.1-3.27,.71-4.35,2.1c-1.03,1.38-1.57,3.35-1.57,5.89v1.39c0,2.59,.54,4.6,1.57,6.03,1.08,1.43,2.51,2.14,4.39,2.14s3.31-.67,4.35-2.05c1.03-1.39,1.52-3.39,1.52-6.07v-1.3h0Z"/><path id="Vector_25" class="cls-1" d="M379.42,369.26h-4.75v9.11h-4.26v-23.62h8.6c2.82,0,5.02,.62,6.54,1.83,1.52,1.2,2.29,2.99,2.29,5.31,0,1.56-.4,2.9-1.21,3.97-.81,1.07-1.88,1.88-3.32,2.46l5.51,9.87v.22h-4.57l-4.84-9.15h0Zm-4.75-3.31h4.39c1.43,0,2.55-.36,3.36-1.03,.81-.71,1.21-1.65,1.21-2.86s-.36-2.23-1.12-2.95c-.76-.67-1.84-1.03-3.32-1.07h-4.48v7.9h-.04Z"/><path id="Vector_26" class="cls-1" d="M397.43,354.74l7.08,18.13,7.03-18.13h5.51v23.62h-4.26v-7.77l.4-10.4-7.26,18.22h-3.05l-7.21-18.17,.4,10.4v7.77h-4.26v-23.67h5.6Z"/><path id="Vector_27" class="cls-1" d="M436.13,372.87h-9.5l-1.97,5.49h-4.43l9.27-23.62h3.81l9.27,23.62h-4.43l-2.02-5.49h0Zm-8.29-3.3h7.12l-3.54-9.83-3.58,9.83Z"/><path id="Vector_28" class="cls-1" d="M461.08,358.05h-7.66v20.32h-4.21v-20.32h-7.57v-3.3h19.44v3.3h0Z"/><path id="Vector_29" class="cls-1" d="M468.79,378.37h-4.26v-23.62h4.26v23.62Z"/><path id="Vector_30" class="cls-1" d="M493.6,367.16c0,2.32-.4,4.33-1.25,6.12-.85,1.74-2.02,3.08-3.58,4.02-1.52,.94-3.32,1.38-5.33,1.38s-3.76-.45-5.33-1.38c-1.57-.94-2.73-2.28-3.58-4.02-.85-1.74-1.25-3.71-1.3-5.98v-1.34c0-2.32,.4-4.33,1.25-6.12,.85-1.79,2.06-3.13,3.58-4.06,1.57-.94,3.31-1.43,5.33-1.43s3.76,.45,5.29,1.38c1.57,.94,2.73,2.23,3.58,3.98,.85,1.74,1.26,3.75,1.3,6.07v1.38h.04Zm-4.26-1.21c0-2.63-.54-4.64-1.57-6.03-1.03-1.38-2.46-2.1-4.35-2.1s-3.27,.71-4.35,2.1c-1.03,1.38-1.57,3.35-1.57,5.89v1.39c0,2.59,.54,4.6,1.57,6.03,1.08,1.43,2.51,2.14,4.39,2.14s3.32-.67,4.35-2.05c1.03-1.39,1.52-3.39,1.52-6.07v-1.3Z"/><path id="Vector_31" class="cls-1" d="M517.3,378.37h-4.26l-10.93-16.75v16.75h-4.26v-23.62h4.26l10.98,16.83v-16.83h4.21v23.62Z"/><path id="Vector_32" class="cls-1" d="M543.73,372.29c0-1.03-.4-1.83-1.16-2.41-.76-.58-2.11-1.12-4.08-1.7-1.97-.58-3.54-1.2-4.7-1.92-2.24-1.34-3.36-3.13-3.36-5.31,0-1.92,.81-3.48,2.42-4.69,1.61-1.25,3.72-1.83,6.27-1.83,1.7,0,3.23,.31,4.57,.89,1.34,.63,2.38,1.47,3.14,2.59,.76,1.12,1.17,2.37,1.17,3.71h-4.26c0-1.25-.4-2.19-1.21-2.9-.81-.71-1.93-1.07-3.45-1.07-1.39,0-2.46,.27-3.27,.85-.76,.58-1.16,1.38-1.16,2.41,0,.85,.4,1.61,1.25,2.19,.85,.58,2.2,1.12,4.12,1.7,1.93,.54,3.45,1.16,4.61,1.88,1.16,.67,2.02,1.47,2.55,2.41,.54,.89,.81,1.96,.81,3.17,0,1.97-.81,3.53-2.37,4.69-1.57,1.16-3.67,1.74-6.36,1.74-1.79,0-3.41-.31-4.88-.94-1.48-.63-2.64-1.52-3.45-2.64-.81-1.12-1.21-2.41-1.21-3.88h4.26c0,1.34,.45,2.37,1.39,3.13,.94,.71,2.24,1.12,3.94,1.12,1.48,0,2.6-.27,3.31-.85,.76-.63,1.12-1.38,1.12-2.32h0Z"/><path id="Vector_33" class="cls-1" d="M559.72,365.95l5.64-11.21h4.7l-8.2,14.91v8.71h-4.3v-8.71l-8.24-14.91h4.75l5.64,11.21h0Z"/><path id="Vector_34" class="cls-1" d="M585.3,372.29c0-1.03-.4-1.83-1.17-2.41-.76-.58-2.1-1.12-4.08-1.7-1.97-.58-3.54-1.2-4.7-1.92-2.24-1.34-3.36-3.13-3.36-5.31,0-1.92,.81-3.48,2.42-4.69,1.61-1.25,3.72-1.83,6.27-1.83,1.7,0,3.22,.31,4.57,.89,1.34,.63,2.37,1.47,3.13,2.59,.76,1.12,1.17,2.37,1.17,3.71h-4.26c0-1.25-.4-2.19-1.21-2.9-.81-.71-1.93-1.07-3.45-1.07-1.39,0-2.46,.27-3.27,.85-.76,.58-1.16,1.38-1.16,2.41,0,.85,.4,1.61,1.25,2.19,.85,.58,2.2,1.12,4.12,1.7,1.93,.54,3.45,1.16,4.61,1.88,1.17,.67,2.02,1.47,2.55,2.41,.54,.89,.81,1.96,.81,3.17,0,1.97-.81,3.53-2.37,4.69-1.57,1.16-3.67,1.74-6.36,1.74-1.79,0-3.4-.31-4.88-.94-1.48-.63-2.64-1.52-3.45-2.64-.81-1.12-1.21-2.41-1.21-3.88h4.26c0,1.34,.45,2.37,1.39,3.13,.94,.71,2.24,1.12,3.94,1.12,1.48,0,2.6-.27,3.32-.85,.72-.63,1.12-1.38,1.12-2.32h0Z"/><path id="Vector_35" class="cls-1" d="M611.01,358.05h-7.66v20.32h-4.21v-20.32h-7.57v-3.3h19.44v3.3Z"/><path id="Vector_36" class="cls-1" d="M628.57,367.83h-10.08v7.28h11.78v3.26h-16.04v-23.62h15.9v3.3h-11.65v6.52h10.08v3.26h0Z"/><path id="Vector_37" class="cls-1" d="M639.23,354.74l7.08,18.13,7.03-18.13h5.51v23.62h-4.26v-7.77l.4-10.4-7.26,18.22h-3.05l-7.21-18.17,.4,10.4v7.77h-4.17v-23.67h5.51Z"/><path id="Vector_38" class="cls-1" d="M686.63,368.36h-9.85v10h-4.26v-23.62h15.59v3.3h-11.33v7.01h9.85v3.3h0Z"/><path id="Vector_39" class="cls-1" d="M711.04,367.16c0,2.32-.4,4.33-1.25,6.12-.85,1.74-2.02,3.08-3.58,4.02-1.52,.94-3.32,1.38-5.33,1.38s-3.76-.45-5.33-1.38c-1.57-.94-2.73-2.28-3.58-4.02s-1.25-3.71-1.3-5.98v-1.34c0-2.32,.4-4.33,1.25-6.12,.85-1.79,2.06-3.13,3.58-4.06,1.57-.94,3.32-1.43,5.33-1.43s3.76,.45,5.29,1.38c1.57,.94,2.73,2.23,3.58,3.98,.85,1.74,1.26,3.75,1.3,6.07v1.38h.04Zm-4.26-1.21c0-2.63-.54-4.64-1.57-6.03-1.03-1.38-2.46-2.1-4.35-2.1s-3.27,.71-4.35,2.1c-1.03,1.38-1.57,3.35-1.57,5.89v1.39c0,2.59,.54,4.6,1.57,6.03,1.08,1.43,2.51,2.14,4.39,2.14s3.32-.67,4.35-2.05c1.03-1.39,1.52-3.39,1.52-6.07v-1.3Z"/><path id="Vector_40" class="cls-1" d="M724.3,369.26h-4.75v9.11h-4.26v-23.62h8.6c2.82,0,5.02,.62,6.54,1.83,1.52,1.2,2.28,2.99,2.28,5.31,0,1.56-.4,2.9-1.21,3.97-.81,1.07-1.88,1.88-3.32,2.46l5.51,9.87v.22h-4.57l-4.84-9.15h0Zm-4.75-3.31h4.39c1.43,0,2.55-.36,3.36-1.03,.81-.71,1.21-1.65,1.21-2.86s-.36-2.23-1.12-2.95c-.76-.67-1.84-1.03-3.32-1.07h-4.48v7.9h-.04Z"/><path id="Vector_41" class="cls-1" d="M759.73,367.83h-10.08v7.28h11.78v3.26h-16.04v-23.62h15.9v3.3h-11.65v6.52h10.08v3.26h0Z"/><path id="Vector_42" class="cls-1" d="M782.8,354.74v15.81c0,2.5-.85,4.51-2.51,5.98-1.66,1.47-3.9,2.19-6.63,2.19s-5.02-.71-6.67-2.14c-1.66-1.43-2.46-3.44-2.46-6.03v-15.81h4.26v15.81c0,1.56,.4,2.77,1.25,3.62,.85,.85,2.06,1.25,3.67,1.25,3.27,0,4.93-1.65,4.93-5v-15.67h4.17Z"/><path id="Vector_43" class="cls-1" d="M796.37,369.26h-4.75v9.11h-4.26v-23.62h8.6c2.82,0,5.02,.62,6.54,1.83,1.52,1.2,2.33,2.99,2.33,5.31,0,1.56-.4,2.9-1.21,3.97-.81,1.07-1.88,1.88-3.32,2.46l5.51,9.87v.22h-4.57l-4.88-9.15h0Zm-4.75-3.31h4.39c1.43,0,2.55-.36,3.36-1.03,.81-.71,1.21-1.65,1.21-2.86s-.36-2.23-1.12-2.95c-.76-.67-1.84-1.03-3.32-1.07h-4.48v7.9h-.05Z"/><path id="Vector_44" class="cls-1" d="M828.45,367.16c0,2.32-.4,4.33-1.25,6.12-.85,1.74-2.02,3.08-3.58,4.02-1.52,.94-3.32,1.38-5.33,1.38s-3.76-.45-5.33-1.38c-1.57-.94-2.73-2.28-3.58-4.02s-1.25-3.71-1.3-5.98v-1.34c0-2.32,.4-4.33,1.25-6.12,.85-1.79,2.06-3.13,3.58-4.06,1.57-.94,3.32-1.43,5.33-1.43s3.76,.45,5.29,1.38c1.57,.94,2.73,2.23,3.58,3.98,.85,1.74,1.25,3.75,1.3,6.07v1.38h.04Zm-4.26-1.21c0-2.63-.54-4.64-1.57-6.03-1.03-1.38-2.46-2.1-4.35-2.1s-3.27,.71-4.34,2.1c-1.03,1.38-1.57,3.35-1.57,5.89v1.39c0,2.59,.54,4.6,1.57,6.03,1.07,1.43,2.51,2.14,4.39,2.14s3.32-.67,4.35-2.05c1.03-1.39,1.52-3.39,1.52-6.07v-1.3Z"/><path id="Vector_45" class="cls-1" d="M836.96,369.57v8.8h-4.26v-23.62h9.36c2.73,0,4.93,.67,6.49,2.05,1.61,1.38,2.42,3.17,2.42,5.45s-.81,4.11-2.37,5.4c-1.57,1.29-3.76,1.92-6.63,1.92h-5.02Zm0-3.26h5.11c1.52,0,2.69-.36,3.45-1.03,.81-.67,1.21-1.7,1.21-2.99s-.4-2.28-1.21-3.04c-.81-.76-1.93-1.16-3.32-1.21h-5.24v8.26h0Z"/><path id="Vector_46" class="cls-1" d="M869.08,367.83h-10.08v7.28h11.78v3.26h-16.04v-23.62h15.9v3.3h-11.65v6.52h10.08v3.26h0Z"/></g></g></svg>