<?xml version="1.0" encoding="UTF-8"?><svg id="Layer_1" xmlns="http://www.w3.org/2000/svg" xmlns:xlink="http://www.w3.org/1999/xlink" viewBox="0 0 984 511"><defs><style>.cls-1,.cls-2{fill:#fff;}.cls-2{fill-rule:evenodd;}.cls-3{clip-path:url(#clippath);}.cls-4{fill:none;}</style><clipPath id="clippath"><rect class="cls-4" y=".72" width="983.53" height="509.6"/></clipPath></defs><g class="cls-3"><g id="WiseMDark"><path id="Vector" class="cls-1" d="M982,290.99v38.22h-76.49v23.9h62.12v38.22h-62.12v26.29h76.49v40.62h-126.64v-167.3h126.64v.05Z"/><path id="Vector_2" class="cls-2" d="M325.58,458.24l10.24-32.97h45.56l9.63,32.97h53.3l-53.41-167.3h-55.19l-63.5,167.3h53.37Zm19.11-69.46l13.81-48.51,6.88,24.26,6.88,24.26h-27.57Z"/><path id="Vector_3" class="cls-1" d="M81.03,458.24v-167.3h65.28l23.49,86.22,23.49-86.22h64.62v167.3h-43.72v-116.7l-29.35,116.7h-30.68l-28.69-116.7v116.7h-44.44Z"/><path id="Vector_4" class="cls-1" d="M673.69,458.24h-50.2v-167.3h50.2v167.3Z"/><path id="Vector_5" class="cls-2" d="M601.02,365.9c3.92-7.39,5.86-15.95,5.86-25.58,0-14.78-5.35-26.7-16.05-35.77-10.7-9.02-25.58-13.55-44.9-13.55h-87.35v167.3h50.2v-64.52h17.43l24.46,64.52h56.92l-30.32-72.97c11.92-5.55,19.87-12.03,23.75-19.42h0Zm-53.51-11.32c-3.92,2.65-9.12,3.31-15.49,3.31h-23.13v-31.09h24.92c13.15,0,19.72,5.15,19.72,15.85-.15,5.25-2.14,9.17-6.01,11.93h0Z"/><path id="Vector_6" class="cls-1" d="M692.8,290.99v167.3h43.06v-99.88l57.23,99.83h43.06v-167.3h-41.17v88.16l-51.42-88.16h-50.76v.05Z"/><path id="Vector_7" class="cls-2" d="M379.3,425.27c.15-.82,.51-1.53,1.43-2.09,1.17-.71,1.58-.26,2.14,.36h.05c5.5,6.06,13.1,6.01,15.49,6.01h.31c.87,0,1.22,.76,1.63,1.63,.51,1.12,1.12,2.4,2.95,2.4,2.65,0,2.39-4.43,1.99-6.68,2.45-1.63,3.11-3.06,3.62-4.03,.31-.61,.51-1.02,1.02-1.27,.46-.26,1.12,.05,1.78,.36,1.22,.51,2.6,1.12,3.46-1.02,1.33-3.31-2.65-4.64-5.25-5.35-1.58-.41-2.9-2.19-4.13-3.87-.87-1.17-1.63-2.24-2.45-2.75-1.99-1.32-3.92-3.31-.66-3.31s7.9-2.65,2.65-3.98c-5.25-1.33-9.89,0-12.49,1.32-1.38,.71-1.68,.66-2.34,.56-.56-.1-1.43-.2-3.57,.1-2.5,.36-4.03,.92-5.2,1.38-1.02,.36-1.78,.66-2.65,.66s-1.33-.26-1.89-.56c-.71-.36-1.53-.82-3.36-.82-3.67,0-7.9,1.99-5.91,4.64,.76,1.02,2.7,1.73,4.54,2.45,1.27,.51,2.55,.97,3.36,1.53,1.99,1.33,1.48,4.13-.66,6.68-.92,1.12-2.19,3.31-2.04,5.66h6.18Z"/><path id="Vector_8" class="cls-2" d="M345.31,386.64l-.61,2.14h.1c-.41,.56-1.02,.71-2.04,.15-3.52-1.94-6.12-7.34-6.93-9.78-.51-3.82,1.48-7.59,2.96-9.43,3.16-3.92,3.92-8.21,.97-10.29-1.22-.82-3.06-1.58-4.99-2.34-2.8-1.12-5.66-2.29-6.78-3.82-2.96-4.13,3.41-7.18,8.82-7.18,2.75,0,3.97,.66,4.99,1.22,.82,.46,1.53,.82,2.8,.82s2.5-.41,3.97-1.02c1.78-.66,4.08-1.53,7.8-2.09,.31-.05,.56-.1,.81-.1l-8.46,29.81c-.41,0-.92,.15-1.58,.56-1.58,1.02-2.14,2.29-2.24,3.87-.1,.41,0,1.43,.15,2.7,.15,1.53,.3,3.36,.26,4.79h0Zm25.94-1.49c.92,.05,1.68,0,2.24,0h.46c1.27,0,1.83,1.17,2.45,2.5,.77,1.73,1.68,3.67,4.43,3.67,3.92,0,3.62-6.83,2.95-10.29,3.67-2.55,4.64-4.69,5.35-6.22,.41-.92,.76-1.63,1.48-1.99,.71-.36,1.68,.05,2.7,.51,1.83,.82,3.87,1.73,5.15-1.53,1.94-5.15-3.92-7.18-7.85-8.2-2.34-.61-4.33-3.41-6.17-6.01-1.27-1.78-2.45-3.47-3.62-4.28-2.96-2.04-5.86-5.15-.97-5.15s11.77-4.13,3.92-6.17c-7.85-2.04-14.68,0-18.6,2.04-2.09,1.07-2.5,1.02-3.46,.87-.46-.05-1.02-.15-1.94-.15l5.61,19.77,5.86,20.64h.01Z"/><path id="Vector_9" class="cls-2" d="M139.38,398.21l-1.12-4.54c.31-.2,.71-.41,1.17-.51,1.38-.36,2.4,.71,3.52,1.83,1.12,1.12,2.29,2.34,4.03,2.34,3.47,.05,2.75-2.04,.05-4.13-.41-.31-.82-.61-1.22-.92-2.24-1.63-4.13-3.01-3.52-5.3,.71-2.75,4.13-2.04,5.5-.66,1.38,1.38,2.09,0,2.75-2.75,.71-2.75,2.8-4.79,4.84-4.08,2.04,.71,2.7,5.55,1.99,8.97-.46,2.29,.31,2.14,2.09,1.78,.92-.15,2.04-.41,3.41-.36,4.13,.05,4.79,1.43,4.79,2.09,0,.97-1.73,1.27-4.13,.66-2.75-.71-6.88,1.99-8.97,4.74s4.13,2.09,6.88,1.43,3.42,2.8-.71,2.75-8.26,1.33-9.68,4.03c-1.38,2.75,6.17,1.43,7.54,.76,1.38-.66,5.5-.66,4.13,1.43-.76,1.12-4.23,1.89-8.1,2.7-1.89,.41-3.87,.82-5.71,1.33-1.73,.46-3.46,1.89-5.25,3.77l-2.04-8.26c.97,.15,1.78-.05,1.83-1.78,0-2.75,.05-4.84-3.36-6.93-.31-.1-.51-.25-.71-.41h0v.02Zm6.47,26.35c1.17-.51,2.6-.76,3.72-.82,2.5-.15,6.01-2.09,5.25-4.89-.76-2.8-4.74-2.8-6.01-1.94-.87,.56-3.01,1.48-4.43,1.43l1.48,6.22h-.01Z"/><path id="Vector_10" class="cls-2" d="M102.58,458.24h22.83v-6.98c-2.19,2.34-4.89,4.33-7.75,4.74-7.14,1.02-5.45-5.2-2.19-8.31,.15-.15,.31-.31,.46-.46,3.11-2.95,5.86-5.55,3.92-7.9-2.19-2.6-5.45-1.02-6.57,1.02-1.78,3.36-4.38,1.58-2.75-1.02,.41-.61,.87-1.27,1.38-1.94,1.58-2.14,3.26-4.38,2.45-6.37-1.07-2.6-4.38-1.58-5.45-1.02-1.07,.51-4.38,1.58-2.19-3.11,2.19-4.69,0-6.78-1.07-7.29s-4.38-.51-6.01,1.58c-1.63,2.09-3.06-.77-1.63-2.09,1.63-1.58,2.19-3.62,1.07-4.18s-3.01,.1-3.82,2.09c-1.07,2.6-3.82,3.11-4.94-.51-1.07-3.62-4.38-4.69-6.57-2.6-1.07,1.02-2.19,3.11-.56,5.2,1.43,1.78,1.63,3.16-2.14,3.21v7.49c.61-.05,1.32-.15,2.14-.31,4.79-.82,4.43,1.58,3.82,3.62-.56,1.89-.56,5.2,2.19,6.78,1.02,.61,2.34,.41,3.47,.26,1.07-.15,1.99-.26,2.55,.25,.76,.76,.1,1.83-.51,2.85-.92,1.48-1.73,2.85,2.14,2.85h2.5c5.4-.05,9.33-.1,7.9,2.6-.66,1.27-2.14,1.94-3.57,2.6-2.14,.97-4.18,1.89-3.57,4.69,.25,.97,1.17,1.68,2.5,2.24l-.03,.02Z"/><path id="Vector_11" class="cls-2" d="M214.18,364.83c1.17-1.43,1.53-2.09,1.99-3.26,.51-1.43,1.02-4.33,1.02-6.06s-.41-3.77-1.43-6.42l-.1-.31c-.15-.41-.31-.82-.36-1.02-.25-.71-.61-1.88-.71-2.34-.31-1.22-.1-3.31,.51-5.2,.15-.56,.36-1.12,.61-1.68,1.17,2.19,1.83,3.72,2.34,5.55,.46,1.68,.71,3.06,.82,4.99,.15,2.8-.05,5.04-.61,6.83-.15,.46-.46,1.27-.71,1.78-.56,1.22-.76,1.94-.76,2.75-.05,1.84,.26,3.57,.87,4.84,.41,.92,.92,1.58,1.99,2.7,.51,.51,.82,.71,1.02,.66,.15-.05,.26-.26,.31-.51,0-.46-.15-.76-.97-1.63-.92-1.02-1.32-1.53-1.63-2.4-.26-.71-.46-2.14-.41-3.26,0-.61,.15-1.02,.71-2.24,.71-1.63,1.17-3.21,1.32-5.1,.1,.1,.25,.1,.36-.05,.1-.15,.15-.36,.2-1.43,0-.46,.15-1.43,.31-2.6,.15-1.02,.31-2.09,.31-2.34,.15-2.09-.1-4.03-.82-5.45-.56-1.12-.71-1.58-.76-2.45-.15-1.38-.05-2.45,.36-3.36,.1,.1,.2,.2,.3,.3,.77,.82,1.43,1.63,1.78,2.19,.61,.97,.87,2.09,.87,3.67,0,.87-.1,1.33-.56,2.5-.56,1.53-.66,3.46-.31,5.55,.05,.26,.31,1.33,.51,2.35,.25,1.17,.46,2.09,.56,2.55,.15,1.07,.2,1.27,.31,1.38,.15,.15,.36,.1,.41-.1,.05-.15,0-1.07-.15-1.89-.05-.26-.31-1.33-.51-2.29-.26-.97-.46-2.09-.51-2.45-.31-1.78-.15-3.16,.41-4.79v1.27c.1,3.98,.76,6.68,2.24,9.28,.66,1.17,.82,1.53,.92,2.14,.15,1.07,.1,2.55-.1,3.26-.26,.87-.56,1.43-1.38,2.55-.76,.97-.87,1.22-.81,1.73,.05,.2,.2,.46,.3,.46,.2,.05,.46-.2,.92-.76,.97-1.17,1.38-1.89,1.73-2.85,.1-.31,.2-.66,.31-1.07,.31,1.17,.66,2.34,1.02,3.11,.61,1.33,1.12,1.99,3.01,3.77,1.48,1.43,1.53,1.48,1.73,1.43,.2-.05,.31-.2,.31-.51,.05-.61-.26-.97-2.09-2.7-.87-.82-1.07-1.07-1.43-1.58-.66-.92-1.12-2.19-1.58-3.98-.41-1.63-.46-2.34-.46-3.46,.05-.87,.1-1.43,.3-2.55,.05-.36,.1-.56,.15-.76,.1-.36,.2-.76,.46-1.78v-.2c.82-2.96,.92-3.82,.76-5.35-.2-1.89-.71-3.46-1.68-5.5-.56-1.17-1.02-1.89-2.19-3.72,.31-.92,.71-1.89,1.27-3.11,0,.1,.05,.2,.1,.31,.31,1.07,.71,1.83,1.63,2.9-.31,1.43-.26,2.75,.15,3.57,.66,1.27,.87,2.09,1.07,3.67,.26,2.34,.05,4.74-.51,6.17-.25,.66-.25,.92,0,.97,.15,.05,.2,0,.31-.15,.41-.56,.82-2.09,.92-3.52,.05-.41,.05-.92,.05-1.38,.1,.25,.31,.51,.51,.87,1.38,2.34,1.89,4.28,1.38,5.66-.1,.26-.26,.56-.36,.71-.2,.3-.31,.56-.25,.76,0,.05,.05,.15,.1,.2-.2,.61-.36,1.22-.46,1.94-.26,1.63-.15,2.7,.41,4.08,.2,.46,.46,1.17,.61,1.68,.15,.51,.36,1.12,.46,1.43,.3,.87,.56,1.07,.92,.71,.26-.26,.31-.66,.2-1.12-.1-.46-.92-2.75-1.27-3.57-.36-.87-.51-1.68-.41-2.6,.1-1.12,.56-2.5,1.22-3.67,.82-1.43,.87-1.48,.92-1.99,.15-.92,.1-1.94-.2-2.75-.2-.56-.56-1.17-1.17-1.99-1.32-1.73-1.58-2.5-1.43-3.72,.1-.87,.41-1.63,1.02-2.65,1.58,2.14,2.45,3.72,2.65,4.99,.05,.26,.05,.51,.1,.97,0,.46,0,.92,.05,1.38v.61c.05,1.48,0,1.94-.2,3.11-.26,1.48-.51,3.67-.56,4.49-.05,1.73,.41,2.9,1.99,5.35,.51,.82,1.07,1.73,1.32,2.34,.31,.71,.61,1.78,.71,2.6,.15,.92,.26,1.22,.46,1.43,.36,.31,.66,.05,.71-.51,0-.51-.15-1.48-.46-2.5-.46-1.63-.76-2.29-2.14-4.43-1.02-1.58-1.22-2.04-1.43-2.75-.1-.41-.15-.66-.1-1.02,0-.66,.31-2.96,.51-4.28,.1-.46,.15-.97,.2-1.33,.05,.1,.15,.15,.2,.26,.3,.36,.56,.46,.71,.25,.25-.25,.2-.61-.26-1.07-.26-.26-.46-.61-.66-1.02,0-1.22-.1-2.9-.15-3.41-.05-.36-.1-.77-.25-1.17,.05-.31,.15-.56,.2-.76,.05-.15,.41-.92,.82-1.63,.61-1.17,.92-1.83,1.07-2.5,.1,.56,.1,1.12-.05,1.99-.2,1.78-.2,3.47,0,4.59,.1,.66,.2,.87,.71,1.78,.31,.61,.46,.87,.66,1.58,.41,1.38,.56,2.39,.51,5.1-.05,.2-.15,.46-.2,.66-.25,1.07-.1,1.89,.61,2.9,.41,.61,.51,.87,.61,1.38,.1,.56,.41,.71,.71,.41,.2-.2,.2-.25,.3-.66,.05-.41,.05-.51-.05-.92-.1-.36-.2-.61-.56-1.12-.51-.82-.61-1.02-.61-1.43,0-.36,0-.41,.56-1.83,1.27-3.26,1.53-6.47,.87-9.53-.26-1.22-.61-2.29-1.33-4.18-.66-1.68-.82-2.39-.82-3.06,0-.15,.05-.36,.1-.61,.31,1.12,.92,2.4,3.31,6.78,2.34,4.28,2.9,6.27,2.4,8.51-.15,.66-.26,.92-.87,2.24-.71,1.48-.97,2.7-1.02,4.74v2.09c.05,.82,.1,1.02,.31,1.89,.41,1.58,.87,2.55,1.73,3.57,.26,.31,.61,.77,.87,1.07,.61,.76,.87,.97,1.07,.92,.46-.1,.36-.87-.1-1.58-.15-.2-.51-.66-.82-1.02-.82-.97-1.07-1.38-1.43-2.29-.25-.66-.46-1.63-.51-2.45-.05-.97,.05-2.8,.15-3.62,.15-.92,.31-1.43,.92-2.6,.87-1.83,1.17-3.26,.97-4.99-.05-.51-.1-.82-.41-1.73-.51-1.83-1.07-3.01-3.62-7.64-1.27-2.34-1.58-2.96-1.83-3.87-.15-.56-.26-.92-.26-1.22-.05-.97,.05-1.89,.36-3.11,.15-.56,.31-1.02,.41-1.48l.25-.87h.31c3.11-2.04,4.59-6.11,2.09-13.2-2.5-7.08-12.38-13.2-24.71-12.59-14.47,.66-19.42,7.39-22.78,12.84-2.5,4.08-1.89,10.19-.15,12.23l.15-.1c.31-.15,.46-.26,.61-.31,.05,.05,.1,.05,.2,.1-.1,.51-.15,1.48-.1,2.19,.1,1.33,.51,2.55,1.78,5.86-.2,.61-.56,1.43-1.12,2.75-2.09,4.84-2.55,6.07-2.9,7.95-.15,.92-.2,1.27-.2,1.78,0,1.78,.41,3.16,1.43,4.89,.66,1.12,.87,1.58,1.12,2.5,.2,.76,.46,2.6,.51,3.57,.05,.76-.1,1.78-.26,2.45-.26,.92-.46,1.38-1.22,2.39-.25,.41-.61,.87-.71,1.07-.41,.76-.41,1.53,.05,1.63,.26,.05,.46-.2,1.02-1.02,.2-.31,.51-.82,.76-1.12,.76-1.07,1.12-2.09,1.38-3.72,.15-.87,.15-1.07,.1-1.89,0-.51-.1-1.43-.15-2.09-.25-2.04-.61-3.21-1.48-4.64-.76-1.27-.87-1.48-1.07-2.14-.71-2.19-.36-4.18,1.58-8.66,.81-1.89,1.38-3.21,1.78-4.23,.97,2.5,1.22,3.21,1.33,3.67,.1,.66-.05,1.38-.51,3.11-.51,1.94-.76,3.01-.92,4.28-.36,3.11,.2,6.32,1.78,9.43,.66,1.33,.71,1.43,.71,1.78,.05,.41-.05,.61-.51,1.48-.31,.56-.41,.82-.46,1.17-.05,.41-.05,.56,.05,.92,.1,.41,.15,.46,.36,.61,.36,.3,.61,.1,.66-.46s.15-.82,.51-1.43c.61-1.12,.66-1.89,.31-2.96-.1-.3-.31-.76-.41-.97-1.43-2.6-2.09-5.15-2.04-7.59,.05-1.53,.25-2.7,.87-4.94,.61-2.19,.76-3.06,.71-3.98-.05-.87-.25-1.48-1.88-5.61,.26-.71,.31-1.22,.36-1.78,.15-1.78-.1-3.41-.97-5.45l-.41-1.02,.46-.26s.1-.05,.15-.1c.26,.05,.51,.1,.76,.15,.51,.26,1.02,.46,1.48,.56,.61,.2,.66,.2,.71,.46,.05,.15,.2,.51,.31,.76,.25,.56,.66,1.94,.87,2.8-.15,.41-.31,.82-.56,1.33-1.32,3.01-1.48,4.03-.97,6.42,.05,.26,.1,.51,.15,.82,0,.51,.05,.97,.2,1.48,.05,.71,.05,1.38,.05,1.83-.05,.31-.1,.51-.36,1.17-.15,.46-.41,1.07-.51,1.38-.36,1.22-.46,2.8-.36,4.38,.1,1.27,.41,4.33,.51,4.43,.1,.15,.26,.15,.41,.05,.2-.2,.2-.66,0-2.5-.31-3.11-.31-4.18,0-5.66,.15-.71,.2-.97,.51-1.63,.36-.87,.46-1.17,.51-1.73,.2,.46,.51,.97,.97,1.63,.46,.71,.87,1.38,.97,1.53,.05,.1,.1,.2,.1,.31,0,.2,.05,.36,.05,.46,.05,.25,.2,.92,.36,1.48,.05,.15,.1,.31,.15,.51,.1,1.43-.25,2.8-.87,3.62-.36,.51-.41,.82-.15,1.07,.2,.15,.41,.05,.66-.31,.41-.56,.71-1.27,.87-2.09,.15,.61,.25,1.17,.25,1.43,.05,.36,.05,.61,0,1.07-.1,.71-.31,1.22-1.12,2.85-1.12,2.24-1.43,2.95-1.73,4.59-.2,1.07-.31,2.04-.2,2.55,.1,.56,.41,.76,.76,.46,.2-.25,.31-.51,.36-1.48,.05-.82,.26-1.94,.51-2.65,.2-.66,.61-1.63,1.07-2.45,1.22-2.29,1.63-3.52,1.53-4.94,.05,.31,.1,.56,.15,.82,.15,.51,.15,.56,1.12,1.89,.05,.05,.05,.1,.1,.15l.36-1.48c-.56-.82-.66-1.07-.66-1.53-.05-.77,.15-1.43,.87-2.55,.2,.36,.51,.66,.61,.71h.05l.2-.87s-.1-.15-.2-.26c-.05-.1-.15-.2-.26-.36,.41-.71,.61-1.12,.76-1.68,.36-1.22,.31-2.45-.25-3.82,.05-.15,.15-.31,.2-.51,.61-1.27,.71-1.53,.82-2.24,.15-.92,.05-1.38-.56-2.85-.46-1.12-.61-1.58-.56-2.09,.92,1.38,1.32,2.29,1.63,3.52,.15,.56,.2,.92,.2,1.27,0,.1,0,.26-.05,.36-.05,.36-.2,.76-.41,1.43-.25,.71-.46,2.19-.51,3.36v.61l1.78-7.08v6.93s.2,.56,.31,.87v.2c.41,1.02,.56,1.38,.66,1.73,.05,.2,.15,.41,.2,.76,.31,1.07,.46,1.63,.56,2.5,.15,1.12,.1,1.83-.1,3.52-.26,1.78-.61,3.11-1.17,4.08-.15,.31-.31,.51-.51,.76v1.94h.33Zm0-9.64s.1,0,.15-.05c.26-.1,.2-.36-.1-.97,0,0,0-.05-.05-.05v1.07h0Zm-8.26-23.75c.2-.87,.25-1.58,.2-2.19,.41,.05,.82,.05,1.27,.1-.1,.61-.26,1.48-.31,2.09-.41,3.21-.31,5.91,.31,8.31-.2,.41-.41,.77-.51,1.12-.51,1.27-.82,2.45-.82,3.52,0,.36,.05,1.53,.1,2.65-.15-.2-.31-.46-.51-.82-.87-1.27-1.12-1.83-1.32-2.6,0-.05-.05-.1-.05-.2-.05-.51-.1-1.12-.2-1.68v-.15c.05-1.02,.2-1.53,.97-3.52,.56-1.43,.66-2.19,.56-3.57-.05-.31-.1-.71-.15-1.12,.15-.71,.31-1.32,.46-1.94h0Zm2.24,6.83c-.36-2.6-.2-5.61,.46-8.87h.61c.51,.76,.76,1.33,.97,1.89,.05,.15,.1,.31,.1,.51-.36,1.27-.41,2.39-.2,3.36,0,0-.36,.61-.56,.97-.51,.66-.97,1.43-1.38,2.14h0Zm2.75-8.51s-.1-.2-.15-.31h.31l-.1,.2s-.05,.1-.05,.15v-.05h0Zm.76,.32c.1-.31,.2-.51,.25-.71h1.78c-.46,.87-.66,1.63-.66,2.34-.05,.71,0,1.27,.2,1.99-.1,.2-.26,.36-.41,.56-.87,1.12-1.27,1.73-1.53,2.19-.15-.26-.25-.46-.36-.61,.1-.15,.15-.31,.2-.41,.1-.26,.1-.46,.15-.87,.2-1.38,.2-2.55-.05-3.62,.15-.25,.26-.56,.41-.87h.02Zm3.16,.21s.36-.56,.56-.97c.61,0,1.27-.05,1.94-.1h.1c.1,.41,.15,.76,.15,1.12,.05,.41,0,.61-.15,1.38l-.15,.87-.97,1.84c-.31,.61-.61,1.12-.82,1.53-.81-1.48-1.12-2.09-1.27-2.7,.2-.46,.36-.92,.46-1.48,.1-.41,.15-.92,.15-1.48h0Zm4.79-1.13h.1c.97-.05,1.88-.05,2.7-.1,0,.51-.05,.82-.25,1.38-.26,.66-.56,1.17-1.17,1.99-.66,.82-1.17,1.53-1.53,2.14-.26-.36-.46-.66-.66-1.02-.26-.56-.36-.87-.36-1.38v-.15c.05-.36,.1-.71,.15-1.02,.05-.25,.15-.51,.25-.76,.15-.36,.31-.76,.31-.87,0,0,.15-.07,.46-.2h0Zm4.18,1.42c.15-.61,.2-1.12,.3-1.58,.97,0,1.89,0,2.7-.05l-.1,.46c-.2,.76-.36,1.48-.41,2.14-.15,.31-.31,.66-.46,1.12-.56,1.27-1.02,2.29-1.38,3.21l-.41-.61-.25-.87c-.2-.71-.26-.97-.26-1.38,0-.71,.05-1.43,.26-2.45h.01Zm4.18-1.42c.56,.1,1.07,.05,1.48-.15h.82c.2,.56,.3,1.12,.3,1.53-.2,.46-.36,.76-.46,1.22-.15,.46-.2,.92-.26,1.38l-.15,.3c-.61,1.17-.97,1.99-1.22,2.85-.97-1.12-1.38-2.09-1.48-3.41,.56-1.32,.77-1.83,.92-2.6,0-.41,.05-.76,.05-1.12h0Zm3.16,.36s-.05-.3-.1-.46h.36l-.2,.36v.1h-.06Zm.97,1.12c.31-.56,.66-1.22,.76-1.48h.1c.36,2.09,.46,3.98,.31,5.76-.1,1.32-.41,2.5-.92,3.47-.1-.1-.2-.2-.26-.36-.26-.31-.56-.71-.66-.87-.51-.76-.71-2.55-.46-3.87,.15-.77,.46-1.48,1.12-2.65h.01Zm4.13-1.02s.36-.15,.56-.3c1.43,.1,2.29,.1,3.06-.05,.25,.1,.51,.26,.61,.3l.51,.2-.31,1.07c-.31,.97-.46,1.84-.56,2.65-.92,3.11-1.02,3.67-.97,4.48,0,.92,.25,1.73,1.07,3.87,.82,2.14,1.12,3.31,1.32,4.84,.26,2.04,0,4.18-.76,6.37-.05-1.58-.3-3.06-.76-4.18-.1-.3-.41-.92-.61-1.32-.31-.61-.41-.82-.46-1.12-.2-.97-.2-2.7,0-4.18,.2-1.58,.15-2.6-.36-3.87,.1-.92,0-1.78-.26-2.65-.15-.66-.41-1.17-1.12-2.55-.81-1.48-1.02-2.24-.97-3.57h0Zm-36.13,5.56s.05-.46,.05-.66c-.05-1.27-.36-2.45-1.12-4.28-.05,.51-.05,.92,0,1.53,.1,.76,.31,1.48,1.07,3.41h0Zm5.25-5.86c-.46,.1-.92,.15-1.22,.1-.1,0-.05,.05,.1,.41,.26,.61,.56,1.43,.76,2.29,.1-.25,.15-.56,.2-.82,.15-.66,.2-.92,.2-1.33,0-.26,0-.46-.05-.66h.01Zm-.51,5.16s-.15,.36-.2,.51c-.66,1.58-.92,2.14-1.02,2.8-.1,.56-.1,1.02-.05,1.63,.1-.46,.31-.97,.66-1.89,.51-1.27,.71-1.99,.61-3.06h0Zm2.9,6.89c-.41,.97-.66,1.73-.71,2.45-.05,.46,0,1.12,.1,2.96,.1,1.48,.15,1.89,.46,3.06,.36,1.43,.87,3.62,.97,4.43v.1c0-.51,.05-1.02,.15-1.43,.15-.61,.46-1.22,.97-2.09,.1-.15,.2-.31,.25-.46-.05-.61-.05-1.22,.1-1.99,.1-.66,.31-1.27,.51-1.99-.26-.71-.66-1.43-1.32-2.24-.66-.97-1.12-1.73-1.48-2.8h0Zm3.41,3.57c-.36-.71-.82-1.43-1.22-1.88-.66-.82-1.22-1.84-1.53-3.11,.46-.87,1.07-1.83,1.78-2.9h.05s.2-.36,.26-.46c.1,.2,.25,.46,.46,.76,0,.05-.05,.15-.05,.26-.1,.44-.12,.87-.05,1.27,.05,.56,.15,.82,.56,1.83,.56,1.38,.61,1.73,.51,2.4-.05,.36-.15,.61-.51,1.32-.1,.15-.15,.36-.25,.51h0Zm-.56,4.18c.05-.46,.1-.97,.26-1.53,.05,.46,0,.92-.26,1.53Zm3.01-8.15c.2-.82,.46-1.63,.82-2.55,.15-.41,.31-.76,.46-1.17-.05-.1-.1-.2-.2-.36-.66-1.17-.97-1.78-1.22-2.34-.15,.2-.31,.46-.51,.71-.71,.92-1.07,1.48-1.27,1.89h.05c.76,1.22,1.22,2.04,1.58,2.95,.1,.31,.2,.61,.31,.87h-.02Zm2.5-3.72c1.53,2.75,2.09,4.18,2.75,6.52,.56,2.04,.76,3.06,.92,5.45,0,.36,.05,.71,.05,1.07,.05-.31,.1-.66,.15-1.02,.15-1.02,.25-2.09,.31-2.45,.1-1.83-.15-3.26-.92-4.84-.2-.46-.46-1.02-.51-1.33-.15-.66-.31-1.68-.25-2.45,0-.87,.25-2.04,.51-2.7,.05-.05,.05-.15,.1-.2-.46-.56-.71-1.07-.97-1.73,0-.05-.05-.1-.05-.15-.15,.41-.41,.82-.76,1.53-.56,.82-.97,1.58-1.33,2.29h0Zm3.87-2.08s.15,.15,.25,.26c1.12,1.17,1.84,2.09,2.24,2.85,.25,.51,.56,1.43,.66,2.24,.2-1.22,.46-2.19,.82-3.21-.66-.97-.82-1.33-1.12-2.14-.36-1.12-.51-2.19-.41-3.46-.25,.46-.56,.92-1.02,1.48-.61,.71-1.12,1.48-1.43,1.99h0Zm4.74,3.25c-.25,.82-.41,1.58-.56,2.4-.31,1.73-.41,3.11-.36,5.04,.1,2.8,.51,5.05,1.27,6.78,.15,.41,.56,1.22,.87,1.73,.15,.31,.31,.56,.41,.82,.15-1.07,.36-2.29,.76-3.67l.1-.31c.1-.41,.2-.87,.31-1.07,.2-.71,.46-1.94,.51-2.39,.15-1.27-.2-3.31-.97-5.1-.56-1.27-1.38-2.7-2.34-4.23h0Zm5.05-3.77c-.41,.87-.71,1.53-.87,2.24,1.38,1.53,1.58,1.83,1.83,2.7,.14,.44,.2,.87,.2,1.27v.15c.2-.56,.51-1.17,.82-1.63-.1-.15-.2-.26-.31-.41h-.05c-.61-.82-.87-1.12-1.02-1.43-.1-.2-.15-.46-.25-.87-.2-.71-.31-1.38-.36-2.04v.02Zm3.37,4.69c.87,1.17,1.63,2.29,2.04,3.11,.2,.41,.41,.82,.56,1.17,.15-.46,.41-.92,.87-1.83,.71-1.38,.97-1.94,1.12-2.75,.05-.2,.05-.41,.1-.61-.2-.46-.51-1.02-1.02-1.99-.87-1.53-1.27-2.4-1.58-3.46-.41-1.22-.46-2.24-.25-3.06l.1-.36-.36-.15s-.26-.1-.46-.2c.36,2.4,.41,4.54,.05,6.52-.3,1.58-.61,2.6-1.17,3.62h0Zm2.5-8.98c-.1,.31-.15,.71-.1,1.17,.05,.36,.1,.66,.31,1.27,.31,.97,.66,1.78,1.43,3.11,.2,.31,.36,.61,.51,.92-.15-.92-.36-1.48-1.27-3.26-.66-1.27-.87-1.99-.87-3.21h0Zm-5.3,13.1c-.25,.87-.2,1.17-.05,1.73,.1,.36,.2,.61,.61,1.27,.87,1.48,1.38,2.55,1.73,3.77,.15,.61,.26,1.17,.31,1.68,.36-.66,.41-.87,.36-1.27,0-.76-.31-1.43-1.17-2.55-.82-1.12-1.12-1.58-1.38-2.29-.31-.76-.46-1.53-.41-2.34h0Zm-1.63-5.71v.15c-.2,1.27-.15,1.53,.56,3.01,.2,.41,.36,1.07,.56,1.73,.05-.1,.05-.26,.1-.41,.41-1.38,.46-1.78,.31-2.45-.2-.51-.51-.92-1.53-2.04h0Z"/><path id="Vector_12" class="cls-2" d="M623.49,358.72c4.59,1.48,7.85,3.26,10.24,4.54,1.73,.97,3.06,1.68,4.13,1.89,1.99,.36,6.01-.71,9.07-1.53,1.78-.46,3.26-.87,3.82-.87,1.58,.05,2.09,1.02-1.22,3.77-.31,.25-.61,.51-.92,.76-2.5,2.04-2.8,2.29-1.43,4.94,1.48,2.96,2.96,6.37-.2,4.79-1.17-.56-2.5-1.58-3.82-2.6-2.24-1.68-4.59-3.52-6.57-3.57-1.02-.05-2.29,.46-3.92,1.12-2.24,.92-5.2,2.09-9.12,2.55v-15.8h-.06Z"/><path id="Vector_13" class="cls-2" d="M633.69,323.45c1.63,3.77,20.59,14.78,40,19.42v-30.52c-13.91-.26-27.26,2.45-33.23,4.23-4.79,1.22-8.66,2.55-6.78,6.88h.01Zm13.71-1.44c1.33,0,2.4-1.07,2.4-2.4s-1.07-2.39-2.4-2.39-2.4,1.07-2.4,2.39,1.07,2.4,2.4,2.4Z"/><path id="Vector_14" class="cls-2" d="M870.34,458.24h-15.03v-30.37c2.14,2.8,4.84,5.3,15.14,1.68,15.19-5.3,11.21-14.52,7.29-18.5-.82-.82-1.89-1.78-3.11-2.8-4.79-4.23-11.06-9.73-4.18-9.73,4.59,0,8.2,1.89,11.82,3.72,3.16,1.63,6.27,3.26,9.99,3.57,3.26,.25,8.77,1.12,13.25,2.39v9.48h1.43c-10.34,5.45-16.46,10.75-22.63,21.2-6.62,11.21-15.85,12.54-19.82,12.54-2.34-.05,1.73,3.62,5.86,6.83h0Z"/><path id="Vector_15" class="cls-2" d="M855.31,334.56c6.52-.41,11.11-2.7,14.47-4.38,1.99-1.02,3.57-1.78,4.79-1.78,2.45,0,5.45,2.29,8.26,4.54,1.68,1.32,3.36,2.6,4.79,3.31,3.92,1.99,1.99-2.6,0-6.52-1.78-3.52-1.43-3.87,1.53-6.78,.3-.31,.66-.66,1.07-1.07,3.92-3.92,3.26-5.25,1.33-5.25-.71,0-2.5,.61-4.64,1.38-3.72,1.27-8.56,2.95-11.06,2.55-1.33-.2-2.96-1.12-5.15-2.34-3.47-1.89-8.31-4.59-15.39-6.42v22.78h0v-.02Z"/><path id="Vector_16" class="cls-2" d="M601.02,365.9c1.58-3.01,2.85-6.17,3.77-9.53-5.35,.25-10.04,1.07-12.49,1.73-2.7,.61-4.84,1.27-3.87,3.67,.51,1.33,4.84,4.43,10.65,7.24,.76-1.02,1.38-2.04,1.94-3.11h0Zm-6.01-4.79c.71,0,1.33-.61,1.33-1.33s-.61-1.33-1.33-1.33-1.32,.61-1.32,1.33,.61,1.33,1.32,1.33Z"/><path id="Vector_17" class="cls-2" d="M527.18,388.17c-1.68,1.17-3.82,3.26-4.08,5.61h-5.76c-.31-.36-.71-.66-1.22-.92-4.43-2.34-5.86-4.64-4.43-6.98,1.48-2.34,4.43-1.53,5.86,0,1.48,1.53,4.43-2.34,5.15-3.87,.71-1.53,4.43-3.87,6.62-1.53,2.29,2.24,.1,6.12-2.14,7.7h0Zm-18.4,8.96c-.3-.3-.82-.56-1.38-.71-1.02-.25-1.48,.26-2.14,1.07,0,0-.41,.51-.71,.82-1.12,1.17-2.29,2.4-4.03,2.4-3.41,0-2.75-2.14,0-4.28,.26-.2,.51-.41,.76-.61l.46-.36c2.24-1.68,4.13-3.06,3.52-5.5-.66-2.85-4.08-2.14-5.45-.71-1.38,1.43-2.04,0-2.75-2.85-.66-2.85-2.75-4.99-4.79-4.28s-2.75,5.71-2.04,9.33c.46,2.39-.31,2.24-2.09,1.83-.87-.2-2.04-.41-3.36-.41-4.08,0-4.79,1.43-4.79,2.14,0,1.02,1.68,1.32,4.08,.71,2.75-.71,6.83,2.14,8.87,4.99,2.04,2.85-4.08,2.14-6.83,1.43-2.75-.71-3.41,2.85,.66,2.85s8.2,1.43,9.53,4.28c1.32,2.85-6.17,1.43-7.49,.71-1.38-.71-5.45-.71-4.08,1.43,.77,1.17,4.18,1.99,8,2.85,.97,.2,1.94,.46,2.9,.71,.92,.26,1.83,.46,2.7,.71,3.41,1.02,7.08,6.12,10.24,11.06v-6.01c-1.12-2.39-.87-4.74,0-6.27v-4.13c-.46,.1-.92,.26-1.38,.36,0,0-.36,.1-.56,.15-1.33,.41-2.85,.87-2.85-1.58v-1.22c-.1-2.29-.15-4.13,2.75-5.91,.97-.61,1.63-1.22,2.09-1.88v-3.11h.16Zm0,40.81c-.46-.05-.92-.3-1.38-.76-1.32-1.43-1.17-2.8-1.02-4.43,.15-1.63,.36-3.41-1.02-5.61-1.78-2.8-2.39-1.94-3.36-.61-.51,.71-1.12,1.58-2.09,2.04-2.75,1.43-3.41,.71-2.75-2.14s-2.04-9.33-4.08-3.57c-2.04,5.71,.66,10.04,6.83,12.18,6.17,2.14,3.42,8.56,0,8.56s-4.08,.71-4.79,2.14c-.87,1.83,.66,5.71,6.17,4.99,5.45-.71,6.83,3.57,2.04,4.99-1.63,.51-2.14,1.43-2.09,2.45h7.59v-20.23h-.05Zm36.44,5.86c3.26-.66,2.29-4.18-1.12-4.84-.26-.05-.51-.1-.76-.15l1.89,4.99h-.01Zm-3.87-10.19c1.07-.77,3.06-1.12,6.52-.26,8.36,2.09,9.12-3.52,6.06-6.37-3.06-2.8-3.06-5.66-1.53-5.66,.51,0,1.07,.46,1.73,.97,1.43,1.12,3.31,2.55,5.86,1.12,3.82-2.09,1.53-7.03,0-9.89-1.53-2.8,1.53-3.52,3.06-1.43,1.53,2.14,5.3,4.94,6.83,2.8s1.53-4.23-1.53-4.94c-3.06-.71-5.3-1.43-3.82-2.14,1.53-.71,6.06-2.8,2.29-5.66-3.82-2.8-6.06-.71-6.83,0-.2,.15-.41,.56-.66,1.07-.87,1.53-2.14,3.92-3.87,1.78-2.29-2.8-3.82-3.52-5.3-3.52s-2.29,2.8,0,5.66c2.29,2.8,2.29,4.94,.76,4.23-.41-.2-.87-.76-1.43-1.48-1.53-1.94-3.82-4.84-7.75-2.75-5.3,2.8-1.53,7.74,.77,9.17,2.29,1.43,1.53,3.52,0,3.52-.46,0-.92-.51-1.48-1.12-1.17-1.32-2.85-3.11-5.96-1.58l6.27,16.46h0v.02Z"/><path id="Vector_18" class="cls-2" d="M692.8,344.81c9.53-.56,16.26-3.52,21.15-5.66,2.96-1.32,5.2-2.29,7.03-2.29,3.62,0,7.95,3.11,12.13,6.01,2.5,1.73,4.89,3.46,7.03,4.43,5.76,2.6,2.9-3.47,.05-8.66-2.55-4.69-2.04-5.15,2.29-8.97,.46-.41,1.02-.87,1.58-1.38,5.81-5.15,4.84-6.88,1.94-6.93-1.07,0-3.67,.82-6.83,1.78-5.45,1.68-12.59,3.87-16.21,3.31-1.94-.31-4.33-1.53-7.54-3.11-5.1-2.55-12.13-6.11-22.63-8.61v30.07h0Z"/><path id="Vector_19" class="cls-2" d="M836.2,419.31c-13.25-3.52-32.31-7.75-48.36-10.19-12.13-1.89-18.75-.61-22.12,1.38l18.91,33.02c14.68,5.71,34.45,11.57,47.6,14.78h3.92v-38.99h.05Z"/><path id="Vector_20" class="cls-2" d="M819.64,313.42c3.21-1.07,9.48-2.6,16.56-3.11v20.94c-10.85-3.92-20.23-10.19-21.15-12.59-1.33-3.31,1.27-4.33,4.59-5.25h0Zm3.77,4.85c.71,0,1.33-.61,1.33-1.33s-.61-1.33-1.33-1.33-1.33,.61-1.33,1.33,.56,1.33,1.33,1.33Z"/><path id="Vector_21" class="cls-1" d="M982-.55V61.57h-124.29v40.62l100.39-.15v59.88h-100.39v45.41h124.29v64.51h-205.52V-.6h205.52v.05Z"/><path id="Vector_22" class="cls-1" d="M629.92,93.78c31.75,6.68,54.27,12.49,67.62,17.68,13.35,5.2,24.46,13.96,33.58,26.45,8.97,12.49,13.35,27.26,13.35,44.18,0,26.65-10.75,48.36-32.56,64.92-21.81,16.56-50.35,24.82-85.71,24.82-64.67,0-104.62-26.81-119.76-80.52l75.62-13.45c6.37,21.25,22.83,32,49.02,32,20.38,0,30.63-5.35,30.63-16.26,0-5.71-2.45-10.24-7.19-13.3-4.74-3.26-13.2-6.01-25.43-8.46-46.58-8.92-76.44-20.64-89.64-34.91s-19.88-31.19-19.88-50.5c0-25.02,9.63-45.61,28.54-62.17C567.18,7.71,594.4-.55,630.07-.55c53.91,0,89.64,21.76,107.07,64.92l-67.47,20.28c-6.98-17.68-21.2-26.45-42.5-26.45-17.78,0-26.55,5.35-26.55,16.41,0,4.89,1.94,8.61,6.01,11.36,3.92,2.75,11.72,5.35,23.29,7.8h0Z"/><path id="Vector_23" class="cls-1" d="M480.15,271.88h-83.63V-.55h83.63V271.88h0Z"/><path id="Vector_24" class="cls-1" d="M229.07-.55l40.41,157.11L307.7-.55h64.06l-72.31,272.43h-70.27l-38.12-150.23-36.03,150.23H81.08L9.38-.55H88.06l38.17,156.8L163.38-.55h65.69Z"/><path id="Vector_25" class="cls-2" d="M776.48,166.8v-4.28l3.16-2.24v-14.12c.2-1.12,.66-3.31,2.65-3.31,1.58,0,1.99,2.19,1.99,3.31v14.37l53,46.78,20.54-14.37v5.35l-16.87,12.23,45.86,40.51h4.38c2.65,0,5.96,.66,2.65,5.3-2.34,3.26-4.48,10.96-5.61,15.54h-111.7v-56.46h3.16v-50.65l-3.21,2.04h0Zm82.96,40.56h2.65v.36c1.53,.56,2.65,1.99,2.65,3.72s-1.12,3.21-2.65,3.72v.92c1.12,.15,2.65,.87,2.65,2.6v.66c.05,1.83,.15,3.97-3.97,3.97-.87,0-2.65-.25-2.65-1.32,0-1.32,1.33-1.32,2.65-1.32s2.65-1.32,.66-2.65c-1.12-.71-1.58-1.07-1.78-1.33h-.15v-1.53c-1.53-.56-2.65-1.99-2.65-3.72s1.12-3.21,2.65-3.72v-.36h-.06Zm-73.59,8.56s.26,.51,.36,.76c1.07,3.16-.46,5.71-1.33,6.57v20.59l11.21-7.85v-35.52l-10.24,15.44h0Zm-1.63-2.69l11.87-18.75v-6.17c.2-1.12,.66-3.31,2.65-3.31,1.58,0,1.99,2.19,1.99,3.31v3.26l30.83,19.62,2.34-1.63-49.69-45.1v48.77h0Zm43.98,.36l-27.47-17.17v36.39l27.47-19.21h0Zm-37.1,33.06l4.99-3.62v3.98l-4.99-.36h0Zm58.3,4.38h30.17l-41.99-38.12-36.84,26.75v7.7l48.67,3.67h0Z"/><path id="Vector_26" class="cls-2" d="M744.47,181.89l-72.72,41.64,34.6,6.06v-17.17c-.87-.66-2.65-2.5-2.65-4.64s3.06-3.06,4.64-3.31h33.28c-.46,1.78-1.02,3.57-1.63,5.3h-4.59v6.57h1.94c-5.4,11.67-13.86,21.86-25.43,30.68-8.71,6.57-18.45,11.87-29.25,15.85-10.7-7.95-20.38-28.79-22.17-32.72-.15-.31-.25-.51-.25-.61-.2-.36-.61-.82-1.12-1.27-1.27-1.22-2.91-2.75-1.48-4.69,1.58-2.09,5.5-1.78,7.24-1.32l1.27,.2,78.33-45.15c-.05,1.53,0,3.06,0,4.59h-.01Zm-31.54,27.87h6.57v6.57h-6.57v-6.57Zm18.5,0h-6.57v6.57h6.57v-6.57Z"/><path id="Vector_27" class="cls-2" d="M480.15,100.3h-6.17c-1.33-.2-4.08-.25-4.64,1.32-.66,1.99-1.99,2.65-5.96,2.65h-7.24v1.99l3.21,165.62h-16.31l3.87-170.26c-.87-.66-2.9-1.58-3.98,0-.66,1.02-.51,2.85-.31,4.59,.15,1.73,.31,3.31-.36,3.97-1.02,1.02-30.32,48.41-45.81,73.54v-15.54l29.96-58.65c1.33-2.85,5.15-8.71,9.89-9.22,4.74-.51,4.18-4.18,3.31-5.96-.46-1.99-1.07-6.57,0-9.22,.66-1.63,.51-1.63-.3-1.78-.82-.15-2.29-.46-4.33-2.8-2.96-3.41-25.28-41.38-38.53-64.11V7.15l42.5,58.2c1.99,2.65,5.66,9.12,4.64,13.86-1.32,5.96,5.3,8.56,7.24,9.22,1.27,.41,17.12,.87,29.25,1.17v10.7h.07Z"/><path id="Vector_28" class="cls-2" d="M163.28,237.38l-8.26,34.5h-.46v-26.55h-5.3v-5.3h2.65v-2.65h11.37Zm12.49-52.23l-3.67,15.39-16.21-25.17h-3.97v40.26h2.65v1.99h-6.62v-1.99h2.65v-42.25h5.96l1.32-1.32h2.65l15.24,13.1h0Zm140.29,23.84h-3.16v-2.65h2.65v-35.62h-4.64l-23.9,39.6v10.55l4.64,2.65v6.57h5.3c1.99,.2,5.96,2.4,5.96,9.22v10.55h-3.98v21.96h-18.6v-21.96h-18.6v21.96h-9.27v-21.96h-11.98v21.96h-11.41l-13.2-51.98,19.93-113.79,8.46-4.53v-11.31h1.32v11.87l6.83,3.97,11.98,112.16h1.32v-9.89h2.65l4.64-13.86,37.86-27.72,5.96,1.32v37.92l-.76,3.01h0Z"/><path id="Vector_29" class="cls-2" d="M520.3,97.04c-.31-2.4-.56-4.84-.61-7.29h25.02c-.66,1.53-3.41,4.89-9.22,5.96-3.16,.51-9.17,.97-15.19,1.32h0Z"/><path id="Vector_30" class="cls-1" d="M87.65,475.62l8.92,24.87,8.92-24.87h6.93v32.41h-5.35v-10.7l.51-14.27-9.12,24.97h-3.82l-9.12-24.97,.51,14.27v10.7h-5.35v-32.41h6.97Z"/><path id="Vector_31" class="cls-1" d="M136.52,500.49h-11.98l-2.5,7.54h-5.61l11.67-32.41h4.84l11.72,32.41h-5.6l-2.55-7.54h.01Zm-10.5-4.54h8.97l-4.49-13.45-4.48,13.45h0Z"/><path id="Vector_32" class="cls-1" d="M159.51,495.55h-6.01v12.49h-5.35v-32.41h10.85c3.57,0,6.32,.82,8.26,2.5,1.94,1.68,2.9,4.13,2.9,7.29,0,2.14-.51,3.98-1.53,5.45-.97,1.48-2.4,2.6-4.18,3.36l6.93,13.51v.3h-5.76l-6.11-12.49Zm-5.96-4.54h5.5c1.83,0,3.21-.46,4.23-1.43,1.02-.97,1.53-2.29,1.53-3.92,0-1.73-.46-3.06-1.43-4.03-.92-.97-2.34-1.43-4.23-1.48h-5.66v10.85h.06Z"/><path id="Vector_33" class="cls-1" d="M180.96,508.03h-5.35v-32.41h5.35v32.41Z"/><path id="Vector_34" class="cls-1" d="M212.1,508.03h-5.35l-13.76-22.98v22.98h-5.35v-32.41h5.35l13.81,23.08v-23.08h5.35v32.41h-.05Z"/><path id="Vector_35" class="cls-1" d="M236.56,493.56h-12.69v9.99h14.83v4.48h-20.23v-32.41h20.08v4.54h-14.68v8.97h12.69v4.43Z"/><path id="Vector_36" class="cls-1" d="M259.54,508.03h-5.35v-32.41h5.35v32.41Z"/><path id="Vector_37" class="cls-1" d="M290.68,508.03h-5.35l-13.76-22.98v22.98h-5.35v-32.41h5.35l13.81,23.08v-23.08h5.35v32.41h-.05Z"/><path id="Vector_38" class="cls-1" d="M314.88,494.27h-12.43v13.71h-5.35v-32.36h19.67v4.54h-14.27v9.63h12.44v4.48h-.06Z"/><path id="Vector_39" class="cls-1" d="M345.66,492.64c0,3.16-.51,5.96-1.58,8.36-1.07,2.4-2.55,4.23-4.49,5.5s-4.18,1.94-6.73,1.94-4.74-.61-6.73-1.94c-1.94-1.27-3.47-3.11-4.54-5.5s-1.58-5.1-1.63-8.2v-1.83c0-3.16,.51-5.96,1.58-8.36,1.07-2.39,2.6-4.28,4.53-5.55,1.94-1.27,4.18-1.94,6.73-1.94s4.74,.66,6.67,1.94c1.94,1.27,3.47,3.11,4.54,5.45,1.07,2.4,1.58,5.15,1.63,8.31v1.83h.02Zm-5.4-1.69c0-3.57-.66-6.32-1.94-8.26-1.27-1.94-3.11-2.85-5.5-2.85s-4.13,.97-5.45,2.85c-1.33,1.89-1.99,4.59-1.99,8.1v1.88c0,3.57,.66,6.32,1.99,8.26,1.32,1.94,3.16,2.9,5.5,2.9s4.23-.97,5.5-2.85c1.27-1.89,1.94-4.69,1.94-8.31v-1.73h-.05Z"/><path id="Vector_40" class="cls-1" d="M362.38,495.55h-6.01v12.49h-5.35v-32.41h10.86c3.57,0,6.32,.82,8.26,2.5s2.9,4.13,2.9,7.29c0,2.14-.51,3.98-1.53,5.45-.97,1.48-2.39,2.6-4.18,3.36l6.93,13.51v.3h-5.76l-6.11-12.49h0Zm-6.01-4.54h5.5c1.83,0,3.21-.46,4.23-1.43,1.02-.97,1.53-2.29,1.53-3.92,0-1.73-.46-3.06-1.43-4.03-.92-.97-2.34-1.43-4.23-1.48h-5.66v10.85h.06Z"/><path id="Vector_41" class="cls-1" d="M385.11,475.62l8.92,24.87,8.92-24.87h6.93v32.41h-5.35v-10.7l.51-14.27-9.12,24.97h-3.82l-9.12-24.97,.51,14.27v10.7h-5.35v-32.41h6.97Z"/><path id="Vector_42" class="cls-1" d="M433.92,500.49h-11.98l-2.5,7.54h-5.6l11.67-32.41h4.84l11.72,32.41h-5.61l-2.55-7.54h0Zm-10.45-4.54h8.97l-4.48-13.45-4.49,13.45h0Z"/><path id="Vector_43" class="cls-1" d="M465.37,480.16h-9.63v27.88h-5.35v-27.88h-9.58v-4.54h24.51v4.54h.05Z"/><path id="Vector_44" class="cls-1" d="M475.15,508.03h-5.35v-32.41h5.35v32.41Z"/><path id="Vector_45" class="cls-1" d="M506.44,492.64c0,3.16-.51,5.96-1.58,8.36-1.07,2.4-2.55,4.23-4.48,5.5-1.94,1.27-4.18,1.94-6.73,1.94s-4.74-.61-6.73-1.94c-1.94-1.27-3.46-3.11-4.54-5.5-1.07-2.39-1.58-5.1-1.63-8.2v-1.83c0-3.16,.51-5.96,1.58-8.36,1.07-2.39,2.6-4.28,4.54-5.55s4.18-1.94,6.73-1.94,4.74,.66,6.67,1.94c1.94,1.27,3.47,3.11,4.54,5.45,1.07,2.4,1.58,5.15,1.63,8.31v1.83h0Zm-5.4-1.69c0-3.57-.66-6.32-1.94-8.26-1.27-1.94-3.11-2.85-5.5-2.85s-4.13,.97-5.45,2.85c-1.32,1.89-1.99,4.59-1.99,8.1v1.88c0,3.57,.66,6.32,1.99,8.26s3.16,2.9,5.5,2.9,4.23-.97,5.5-2.85c1.27-1.89,1.94-4.69,1.94-8.31v-1.73h-.05Z"/><path id="Vector_46" class="cls-1" d="M536.3,508.03h-5.35l-13.76-22.98v22.98h-5.35v-32.41h5.35l13.81,23.08v-23.08h5.35v32.41h-.05Z"/><path id="Vector_47" class="cls-1" d="M569.63,499.67c0-1.43-.46-2.55-1.43-3.31-.97-.77-2.65-1.53-5.15-2.35-2.5-.76-4.48-1.68-5.96-2.65-2.8-1.83-4.23-4.28-4.23-7.24,0-2.6,1.02-4.79,3.06-6.47s4.69-2.55,7.9-2.55c2.14,0,4.08,.41,5.76,1.22,1.68,.82,3.01,2.04,3.97,3.57,.97,1.53,1.43,3.21,1.43,5.1h-5.35c0-1.68-.51-3.01-1.53-3.97-1.02-.97-2.45-1.43-4.33-1.43-1.73,0-3.11,.41-4.08,1.17-.97,.76-1.43,1.89-1.43,3.31,0,1.17,.51,2.19,1.58,3.01,1.07,.76,2.75,1.58,5.2,2.29,2.4,.76,4.33,1.58,5.81,2.55s2.55,2.04,3.21,3.31c.66,1.22,1.02,2.7,1.02,4.33,0,2.7-.97,4.84-2.96,6.47-1.99,1.58-4.64,2.39-8.05,2.39-2.24,0-4.28-.41-6.17-1.27-1.88-.87-3.31-2.09-4.38-3.62-1.02-1.53-1.53-3.31-1.53-5.35h5.35c0,1.83,.56,3.26,1.73,4.28s2.8,1.53,4.99,1.53c1.89,0,3.26-.41,4.23-1.17,.87-.82,1.32-1.83,1.32-3.16h.02Z"/><path id="Vector_48" class="cls-1" d="M589.81,490.96l7.13-15.34h5.96l-10.35,20.49v11.92h-5.4v-11.92l-10.4-20.49h5.96l7.08,15.34h.02Z"/><path id="Vector_49" class="cls-1" d="M622.07,499.67c0-1.43-.46-2.55-1.43-3.31-.97-.77-2.65-1.53-5.15-2.35-2.5-.76-4.48-1.68-5.96-2.65-2.8-1.83-4.23-4.28-4.23-7.24,0-2.6,1.02-4.79,3.06-6.47s4.69-2.55,7.9-2.55c2.14,0,4.08,.41,5.76,1.22,1.68,.82,3.01,2.04,3.97,3.57,.97,1.53,1.43,3.21,1.43,5.1h-5.35c0-1.68-.51-3.01-1.53-3.97-1.02-.97-2.45-1.43-4.33-1.43-1.73,0-3.11,.41-4.08,1.17-.97,.76-1.43,1.89-1.43,3.31,0,1.17,.51,2.19,1.58,3.01,1.07,.76,2.75,1.58,5.2,2.29,2.4,.76,4.33,1.58,5.81,2.55s2.55,2.04,3.21,3.31c.66,1.22,1.02,2.7,1.02,4.33,0,2.7-.97,4.84-2.96,6.47-1.99,1.58-4.64,2.39-8.05,2.39-2.24,0-4.28-.41-6.17-1.27-1.89-.87-3.31-2.09-4.38-3.62-1.02-1.53-1.53-3.31-1.53-5.35h5.35c0,1.83,.56,3.26,1.73,4.28s2.8,1.53,4.99,1.53c1.89,0,3.26-.41,4.23-1.17,.87-.82,1.32-1.83,1.32-3.16h.02Z"/><path id="Vector_50" class="cls-1" d="M654.48,480.16h-9.63v27.88h-5.35v-27.88h-9.58v-4.54h24.51v4.54h.05Z"/><path id="Vector_51" class="cls-1" d="M676.65,493.56h-12.69v9.99h14.83v4.48h-20.23v-32.41h20.08v4.54h-14.68v8.97h12.69v4.43h0Z"/><path id="Vector_52" class="cls-1" d="M690.15,475.62l8.92,24.87,8.92-24.87h6.93v32.41h-5.35v-10.7l.51-14.27-9.12,24.97h-3.82l-9.12-24.97,.51,14.27v10.7h-5.35v-32.41h6.97Z"/><path id="Vector_53" class="cls-1" d="M749.93,494.27h-12.43v13.71h-5.35v-32.36h19.67v4.54h-14.27v9.63h12.43v4.48h-.05Z"/><path id="Vector_54" class="cls-1" d="M780.71,492.64c0,3.16-.51,5.96-1.58,8.36s-2.55,4.23-4.48,5.5c-1.94,1.27-4.18,1.94-6.73,1.94s-4.74-.61-6.73-1.94c-1.94-1.27-3.47-3.11-4.54-5.5s-1.58-5.1-1.63-8.2v-1.83c0-3.16,.51-5.96,1.58-8.36,1.07-2.39,2.6-4.28,4.54-5.55s4.18-1.94,6.73-1.94,4.74,.66,6.68,1.94c1.94,1.27,3.46,3.11,4.54,5.45,1.07,2.4,1.58,5.15,1.63,8.31v1.83h-.01Zm-5.4-1.69c0-3.57-.66-6.32-1.94-8.26-1.27-1.94-3.11-2.85-5.5-2.85s-4.13,.97-5.45,2.85c-1.33,1.89-1.99,4.59-1.99,8.1v1.88c0,3.57,.66,6.32,1.99,8.26,1.32,1.94,3.16,2.9,5.5,2.9s4.23-.97,5.5-2.85c1.27-1.89,1.94-4.69,1.94-8.31v-1.73h-.05Z"/><path id="Vector_55" class="cls-1" d="M797.42,495.55h-6.01v12.49h-5.35v-32.41h10.85c3.57,0,6.32,.82,8.26,2.5s2.9,4.13,2.9,7.29c0,2.14-.51,3.98-1.53,5.45-.97,1.48-2.4,2.6-4.18,3.36l6.93,13.51v.3h-5.76l-6.11-12.49Zm-6.01-4.54h5.5c1.84,0,3.21-.46,4.23-1.43,1.02-.97,1.53-2.29,1.53-3.92,0-1.73-.46-3.06-1.43-4.03-.92-.97-2.34-1.43-4.23-1.48h-5.66v10.85h.06Z"/><path id="Vector_56" class="cls-1" d="M842.11,493.56h-12.69v9.99h14.83v4.48h-20.23v-32.41h20.08v4.54h-14.68v8.97h12.69v4.43h0Z"/><path id="Vector_57" class="cls-1" d="M871.26,475.62v21.66c0,3.46-1.07,6.17-3.16,8.2-2.09,1.99-4.89,3.01-8.41,3.01s-6.37-.97-8.41-2.96c-2.09-1.99-3.11-4.74-3.11-8.26v-21.66h5.35v21.66c0,2.19,.51,3.82,1.58,4.94s2.6,1.73,4.64,1.73c4.13,0,6.22-2.29,6.22-6.88v-21.45h5.3Z"/><path id="Vector_58" class="cls-1" d="M888.33,495.55h-6.01v12.49h-5.35v-32.41h10.86c3.57,0,6.32,.82,8.26,2.5s2.9,4.13,2.9,7.29c0,2.14-.51,3.98-1.53,5.45-.97,1.48-2.4,2.6-4.18,3.36l6.93,13.51v.3h-5.76l-6.12-12.49Zm-5.96-4.54h5.5c1.83,0,3.21-.46,4.23-1.43,1.02-.97,1.53-2.29,1.53-3.92,0-1.73-.46-3.06-1.43-4.03-.92-.97-2.34-1.43-4.23-1.48h-5.66v10.85h.06Z"/><path id="Vector_59" class="cls-1" d="M928.8,492.64c0,3.16-.51,5.96-1.58,8.36s-2.55,4.23-4.48,5.5c-1.94,1.27-4.18,1.94-6.73,1.94s-4.74-.61-6.73-1.94c-1.94-1.27-3.46-3.11-4.54-5.5-1.07-2.39-1.58-5.1-1.63-8.2v-1.83c0-3.16,.51-5.96,1.58-8.36,1.07-2.39,2.6-4.28,4.54-5.55s4.18-1.94,6.73-1.94,4.74,.66,6.67,1.94c1.94,1.27,3.47,3.11,4.54,5.45,1.07,2.4,1.58,5.15,1.63,8.31v1.83h0Zm-5.35-1.69c0-3.57-.66-6.32-1.94-8.26-1.27-1.94-3.11-2.85-5.5-2.85s-4.13,.97-5.45,2.85c-1.32,1.89-1.99,4.59-1.99,8.1v1.88c0,3.57,.66,6.32,1.99,8.26s3.16,2.9,5.5,2.9,4.23-.97,5.5-2.85c1.27-1.89,1.94-4.69,1.94-8.31v-1.73h-.05Z"/><path id="Vector_60" class="cls-1" d="M939.55,495.95v12.03h-5.35v-32.36h11.82c3.47,0,6.22,.92,8.2,2.8,2.04,1.88,3.06,4.38,3.06,7.49s-1.02,5.66-3.01,7.39c-1.99,1.78-4.79,2.65-8.36,2.65h-6.36Zm0-4.49h6.47c1.94,0,3.36-.46,4.38-1.43s1.53-2.29,1.53-4.08-.51-3.16-1.53-4.18c-1.02-1.07-2.45-1.58-4.23-1.63h-6.62v11.31h0Z"/><path id="Vector_61" class="cls-1" d="M980.06,493.56h-12.69v9.99h14.83v4.48h-20.23v-32.41h20.08v4.54h-14.68v8.97h12.69v4.43h0Z"/></g></g></svg>