<svg width="50" height="50" viewBox="0 0 50 50" fill="none" xmlns="http://www.w3.org/2000/svg">
<g clip-path="url(#clip0_1258_6786)">
<path d="M1.38906 31.988H6.94427C7.71128 31.988 8.33333 32.6096 8.33333 33.3766V47.2656C8.33333 48.0327 7.71128 48.6547 6.94427 48.6547H1.38906C0.62205 48.6547 0 48.0327 0 47.2656V33.3766C0 32.6096 0.62205 31.988 1.38906 31.988Z" fill="#00928F"/>
<path d="M15.2777 20.8766H20.8334C21.6004 20.8766 22.2225 21.4986 22.2225 22.2656V47.2656C22.2225 48.0327 21.6004 48.6547 20.8334 48.6547H15.2777C14.5107 48.6547 13.8892 48.0327 13.8892 47.2656V22.2656C13.8892 21.4986 14.5107 20.8766 15.2777 20.8766Z" fill="#00928F"/>
<path d="M29.1664 26.4323H34.7221C35.4891 26.4323 36.1107 27.0543 36.1107 27.8213V47.2656C36.1107 48.0326 35.4891 48.6546 34.7221 48.6546H29.1664C28.3994 48.6546 27.7773 48.0326 27.7773 47.2656V27.8213C27.7773 27.0543 28.3994 26.4323 29.1664 26.4323Z" fill="#00928F"/>
<path d="M43.0556 18.0989H48.6108C49.3778 18.0989 49.9998 18.7209 49.9998 19.4879V47.2656C49.9998 48.0326 49.3778 48.6546 48.6108 48.6546H43.0556C42.2886 48.6546 41.6665 48.0326 41.6665 47.2656V19.4879C41.6665 18.7209 42.2886 18.0989 43.0556 18.0989Z" fill="#00928F"/>
<path d="M45.8333 1.43225C43.5333 1.43479 41.6692 3.29891 41.6667 5.59892C41.6723 6.05261 41.7526 6.50224 41.9047 6.92948L34.9518 11.0626C34.0393 10.0947 32.7164 9.62571 31.398 9.80221C30.0791 9.9787 28.9266 10.7793 28.3005 11.9532L22.168 8.91567C22.198 8.73714 22.2158 8.55709 22.2224 8.37653C22.2254 6.68992 21.2118 5.16811 19.6543 4.52063C18.0969 3.87366 16.303 4.22919 15.1103 5.42141C13.917 6.61363 13.5605 8.40704 14.2069 9.96497L6.25203 15.9017C5.62134 15.5258 4.90112 15.3254 4.16667 15.3213C1.86564 15.3213 0 17.1864 0 19.488C0 21.789 1.86564 23.6546 4.16667 23.6546C6.46769 23.6546 8.33333 21.789 8.33333 19.488C8.32977 18.9865 8.23517 18.4906 8.0541 18.0231L16.0884 12.0269C17.66 12.9033 19.6203 12.6464 20.9127 11.3942L27.8865 14.8483C28.3513 16.9189 30.2999 18.3085 32.4092 18.0735C34.5184 17.8385 36.1135 16.0547 36.1109 13.9323C36.1109 13.8265 36.0875 13.7268 36.0799 13.623L43.6422 9.12726C44.2978 9.54179 45.0572 9.76304 45.8333 9.76558C48.1344 9.76558 50 7.89994 50 5.59892C50 3.29789 48.1344 1.43225 45.8333 1.43225Z" fill="#00928F"/>
</g>
<defs>
<clipPath id="clip0_1258_6786">
<rect width="50" height="50" fill="white"/>
</clipPath>
</defs>
</svg>
