<svg width="51" height="50" viewBox="0 0 51 50" fill="none" xmlns="http://www.w3.org/2000/svg">
<path d="M50.2147 5.82732C49.4917 3.55559 48.5119 1.929 48.4704 1.86064C48.3098 1.59606 47.979 1.45842 47.6794 1.52709C47.6018 1.54479 45.7516 1.97631 43.6173 3.04137C40.736 4.47875 38.7232 6.39769 37.796 8.58977C37.0242 10.4153 36.9133 12.6471 37.4609 15.1126C36.2945 13.811 34.9825 12.6724 33.5522 11.7139C33.1154 10.8517 31.9606 8.72924 30.1553 6.51091C29.5606 5.78063 28.4168 6.69707 29.0176 7.43468C30.2341 8.92974 31.1497 10.4001 31.7224 11.4102L25.045 10.1095L18.7008 1.463C19.3169 1.47155 19.935 1.53105 20.5501 1.6516C22.5002 2.03307 24.4265 3.0255 26.2765 4.60082C27.0012 5.21819 27.9425 4.09453 27.2272 3.48571C25.1837 1.74559 23.032 0.644519 20.8317 0.213915C17.473 -0.442823 13.5557 0.419299 9.50219 2.70812C6.48098 4.41405 4.46062 6.28783 4.37633 6.36657C4.10603 6.61895 4.06297 7.07732 4.28928 7.37212C4.58554 7.97942 5.70826 10.1703 7.57713 12.529C8.67878 13.9197 9.84059 15.1099 11.0424 16.0879C10.701 16.3739 10.3687 16.673 10.0471 16.9876C8.32938 18.6664 7.01424 20.6467 6.15082 22.8116C5.38757 24.7244 4.97709 26.7822 4.95418 28.9032C4.91631 32.3715 5.92206 35.7166 7.86331 38.5773C9.75966 41.3715 12.4107 43.5168 15.5297 44.7812C16.4025 45.1343 16.9544 43.7778 16.0809 43.4238C14.9509 42.9657 13.8892 42.3788 12.9101 41.6809C13.0353 40.9869 13.3257 38.4894 11.6655 35.9039C11.4331 35.5423 12.1279 34.122 12.5426 33.2736C12.9708 32.3993 13.4128 31.4954 13.6192 30.6442C13.8385 29.74 13.5918 28.981 12.9061 28.4485C12.4028 28.0576 11.744 27.8552 11.1634 27.6767C10.7862 27.5607 10.3586 27.4295 10.2059 27.3022C9.89129 27.0389 9.37758 26.0657 8.96465 25.2841C8.50652 24.4171 8.07038 23.5919 7.62508 23.0838C8.62716 20.7059 10.2367 18.6017 12.2525 16.9919C14.0939 18.2452 16.1955 19.1101 18.4293 19.2853C15.8387 21.2909 15.0007 23.8522 16.1985 26.3126C17.5973 29.1855 20.4765 28.7265 23.0167 28.3221C23.4562 28.2519 23.911 28.1796 24.3465 28.1253C24.5099 28.1049 24.5591 28.1494 24.5921 28.1784C25.1482 28.6728 25.1317 31.0339 25.1198 32.7582C25.1036 35.1431 25.0884 37.3959 25.9775 38.5526C26.431 39.1422 27.0696 39.4437 27.8182 39.4437C28.2669 39.4437 28.7543 39.3356 29.2656 39.1165C31.4765 38.1705 33.7748 35.3232 33.4242 33.0704C33.1179 31.1008 32.9151 29.7995 33.393 28.7506C33.835 27.7798 34.9034 26.8811 37.0074 25.7342C37.2594 26.868 37.3864 28.0475 37.3733 29.2575C37.3284 33.3878 35.6761 37.2534 32.7211 40.1419C29.4186 43.3701 24.7772 44.9643 20.1858 44.4586C19.2503 44.3573 19.0887 45.8118 20.0254 45.9149C25.0511 46.4679 30.1324 44.7223 33.7461 41.1893C36.9814 38.0267 38.7901 33.7952 38.8393 29.2731C38.9047 23.2773 35.8257 17.9654 31.1387 14.9054C32.1072 14.2154 32.8286 13.6188 33.2287 13.2724C34.9376 14.4974 36.4534 16.0065 37.7144 17.7646C40.7418 21.9861 41.9424 27.1323 41.0957 32.2562C39.3472 42.8333 29.3133 50.018 18.7259 48.2703C13.5976 47.424 9.10637 44.6335 6.07904 40.412C3.05142 36.1908 1.85081 31.044 2.69774 25.9204C2.84984 24.9985 1.40429 24.7565 1.25158 25.6818C0.340508 31.1917 1.63213 36.7261 4.88699 41.2656C8.14246 45.8044 12.9727 48.8055 18.487 49.7159C19.6403 49.906 20.7948 50 21.9413 50C26.2752 50 30.4913 48.6554 34.0839 46.0831C38.6276 42.8302 41.6314 38.0048 42.5419 32.4948C43.2092 28.4573 42.6928 24.4067 41.0887 20.744C41.8291 20.5258 43.0889 20.1022 44.4688 19.4137C47.3495 17.9764 49.3625 16.0574 50.2895 13.8653C51.2174 11.6727 51.1914 8.89312 50.2147 5.82732ZM7.66784 25.9677C8.21332 27.001 8.72917 27.9776 9.26518 28.4256C9.64482 28.7427 10.1732 28.905 10.7324 29.0768C12.1651 29.5169 12.3316 29.733 12.1942 30.2991C12.0256 30.9952 11.6187 31.8265 11.2257 32.63C10.4685 34.1779 9.75355 35.639 10.4313 36.6949C11.3924 38.1915 11.5571 39.6649 11.5406 40.5814C7.17428 36.6473 5.39643 30.4337 7.02279 24.7861C7.23842 25.1553 7.46504 25.5844 7.66784 25.9677ZM43.1347 11.5735L41.0515 6.52892C42.0651 5.58165 43.2413 4.86876 44.2431 4.36675C45.0964 3.93889 45.9082 3.61907 46.5594 3.39232L43.1347 11.5735ZM47.9109 3.96025C48.2019 4.58525 48.5394 5.39122 48.8278 6.30217C49.1439 7.30193 49.434 8.54094 49.4917 9.83336L44.6096 11.846L47.9109 3.96025ZM39.1462 9.16015C39.3625 8.64928 39.6419 8.17565 39.9648 7.73833L42.3364 13.4802L40.2082 18.5651C39.9092 17.9312 39.557 17.0987 39.2583 16.1529C38.6588 14.2593 38.153 11.5085 39.1462 9.16015ZM43.8427 18.0884C43.0214 18.5004 42.2377 18.8122 41.5994 19.0372L43.8079 13.7616L49.4294 11.4438C49.3479 12.073 49.1924 12.6968 48.9392 13.295C47.9463 15.6433 45.6196 17.1982 43.8427 18.0884ZM17.4095 17.6715C17.1505 17.6208 16.8949 17.5589 16.6429 17.4884L24.7561 11.546L31.4365 12.847C29.0029 14.7629 23.0805 18.7817 17.4095 17.6715ZM9.99483 13.0887C8.25974 11.2201 6.98797 9.2221 6.25771 7.9428L14.7591 9.59899L9.99483 13.0887ZM11.4963 3.31603L15.0532 8.16375L6.49686 6.49718C7.57407 5.64727 9.35223 4.37133 11.4963 3.31603ZM17.174 8.57695L12.8618 2.69957C14.1528 2.16948 15.5385 1.75231 16.959 1.56676L22.9245 9.69664L17.174 8.57695ZM16.7177 9.98046L22.7977 11.1645L14.9946 16.8796C13.523 16.2006 12.1987 15.2243 11.04 14.1391L16.7177 9.98046ZM36.6091 24.2841C33.9663 25.6909 32.6723 26.796 32.0584 28.1439C31.399 29.5914 31.6406 31.145 31.975 33.2953C32.1726 34.5633 30.6644 36.9244 28.6884 37.7701C27.9572 38.0829 27.4364 38.046 27.1399 37.6599C26.5574 36.9025 26.5733 34.61 26.5858 32.7682C26.6033 30.22 26.6185 28.0194 25.5664 27.084C25.1879 26.7477 24.7039 26.6055 24.166 26.6714C23.7051 26.7288 23.2375 26.8033 22.7858 26.8753C20.0911 27.3044 18.3954 27.4762 17.517 25.6717C16.0938 22.749 18.9748 20.5841 20.2795 19.7891C20.5453 19.6274 20.7917 19.4366 21.0208 19.2242C24.1743 18.8476 27.1539 17.4957 29.8093 15.8023C32.993 17.7029 35.4369 20.7107 36.6091 24.2841Z" fill="#00928F"/>
</svg>
