<svg width="51" height="50" viewBox="0 0 51 50" fill="none" xmlns="http://www.w3.org/2000/svg">
<path d="M47.8373 44.3215H46.5501C45.6572 42.0078 45.6568 39.7501 46.5492 37.448H47.8373C49.2728 37.448 50.4407 36.1743 50.4407 34.6087C50.4407 33.0432 49.2728 31.7695 47.8373 31.7695H42.6578C43.317 30.9482 43.7178 29.8744 43.7178 28.6996V19.8038C43.7178 17.2302 41.798 15.1364 39.4381 15.1364H37.332C37.5107 14.7479 37.6119 14.3099 37.6119 13.8464C37.6119 12.2525 36.4242 10.9556 34.9642 10.9556H34.2397C33.5931 9.2126 33.5927 7.51012 34.2386 5.77825H34.9642C36.4242 5.77825 37.6119 4.48143 37.6119 2.88748C37.6119 1.29533 36.4242 0 34.9642 0H10.2569C6.02563 0 2.58325 3.75267 2.58325 8.3653C2.58325 10.596 3.38267 12.6962 4.83403 14.2791C5.12261 14.5938 5.43062 14.8791 5.75386 15.1363H5.18667C3.75112 15.1363 2.58325 16.4099 2.58325 17.9756C2.58325 19.5412 3.75112 20.8148 5.18667 20.8148H6.47476C7.36714 23.1167 7.36685 25.3745 6.47378 27.6883H5.18667C3.75112 27.6883 2.58325 28.9619 2.58325 30.5275C2.58325 31.1265 2.75464 31.6823 3.04605 32.1407C1.51597 32.8527 0.440674 34.5102 0.440674 36.4369V45.3327C0.440674 47.9064 2.35923 50 4.71743 50H47.8372C49.2727 50 50.4406 48.7264 50.4406 47.1608C50.4407 45.5952 49.2728 44.3215 47.8373 44.3215ZM47.8373 33.367C48.4651 33.367 48.9758 33.924 48.9758 34.6087C48.9758 35.2934 48.4651 35.8505 47.8373 35.8505H34.6188C34.2142 35.8505 33.8864 36.2081 33.8864 36.6492C33.8864 37.0903 34.2142 37.448 34.6188 37.448H44.978C44.6917 38.3246 44.5167 39.2047 44.4506 40.086C44.4506 40.086 44.1581 41.667 44.9795 44.3215H5.85962C5.74478 44.3215 5.64771 44.2157 5.64771 44.0903V37.6792C5.64771 37.5539 5.74478 37.4481 5.85962 37.4481H13.1156L13.1161 40.0713C13.0699 40.8566 13.4215 41.1661 13.6375 41.2811C13.8563 41.3979 14.3059 41.5108 14.8591 40.9594C14.8629 40.9556 14.8667 40.9517 14.8705 40.9479L16.9177 38.8185L18.965 40.9479C18.9687 40.9518 18.9725 40.9557 18.9763 40.9594C19.3001 41.2822 19.5884 41.3775 19.8161 41.3775C19.9787 41.3775 20.1103 41.3288 20.2017 41.2797C20.4179 41.1637 20.7691 40.8527 20.7194 40.0692L20.7204 37.4481H31.0125C31.4171 37.4481 31.745 37.0904 31.745 36.6493C31.745 36.2082 31.4171 35.8506 31.0125 35.8506H20.7208L20.7218 33.3671H47.8373V33.367ZM8.57368 23.4531C8.50767 22.5718 8.32925 21.6918 8.04321 20.815H38.2991C38.414 20.815 38.5111 20.9209 38.5111 21.0461V27.4573C38.5111 27.5825 38.414 27.6884 38.2991 27.6884H20.724L20.725 25.0503H25.8508C26.2554 25.0503 26.5833 24.6927 26.5833 24.2516C26.5833 23.8105 26.2554 23.4529 25.8508 23.4529H8.57368V23.4531ZM13.1137 27.6885H8.04155C8.32739 26.8105 8.5061 25.9305 8.5729 25.0504H13.1132L13.1137 27.6885ZM19.2601 25.0505L19.2548 39.0418L17.4231 37.1366C17.1402 36.8422 16.6951 36.8422 16.4121 37.1366L14.5806 39.0416L14.578 25.0504H19.2601V25.0505ZM4.0481 8.36541C4.0481 4.63362 6.83335 1.59757 10.2569 1.59757H34.9642C35.6165 1.59757 36.147 2.17628 36.147 2.88758C36.147 3.60069 35.6164 4.18089 34.9642 4.18089H21.4625C21.058 4.18089 20.73 4.53851 20.73 4.97963C20.73 5.42074 21.058 5.77836 21.4625 5.77836H32.678C32.161 7.4966 32.1617 9.23006 32.6799 10.9558H10.2569C9.627 10.9558 9.03061 10.6851 8.58042 10.1966C8.12983 9.7027 7.88169 9.05243 7.88169 8.36541C7.88169 6.93887 8.94722 5.77836 10.2569 5.77836H17.8562C18.2607 5.77836 18.5886 5.42074 18.5886 4.97963C18.5886 4.53851 18.2607 4.18089 17.8562 4.18089H10.2569C8.1395 4.18089 6.41685 6.05802 6.41685 8.36541C6.41685 9.47756 6.81646 10.5281 7.54458 11.3262C8.27388 12.1174 9.23706 12.5532 10.2569 12.5532H34.9642C35.6165 12.5532 36.147 13.1334 36.147 13.8465C36.147 14.5578 35.6164 15.1365 34.9642 15.1365H10.2569C8.60268 15.1365 7.04468 14.431 5.86987 13.1497C4.69507 11.8685 4.0481 10.1695 4.0481 8.36541ZM5.18667 19.2175C4.55884 19.2175 4.0481 18.6606 4.0481 17.9758C4.0481 17.2911 4.55884 16.734 5.18667 16.734H39.4381C40.9903 16.734 42.253 18.1111 42.253 19.8039V28.6997C42.253 30.3925 40.9902 31.7696 39.4381 31.7696H20.7224L20.7234 29.2861H38.299C39.2236 29.2861 39.9758 28.4657 39.9758 27.4575V21.0463C39.9758 20.038 39.2236 19.2178 38.299 19.2178H5.18667V19.2175ZM5.18667 29.286H13.114L13.1145 31.7695H5.18677C4.55894 31.7695 4.04819 31.2124 4.04819 30.5277C4.0481 29.843 4.55884 29.286 5.18667 29.286ZM47.8373 48.4025H4.71743C3.16694 48.4025 1.90552 47.0254 1.90552 45.3327V36.4369C1.90552 34.7441 3.16694 33.367 4.71743 33.367H13.1147L13.1152 35.8505H5.85962C4.93501 35.8505 4.18286 36.6708 4.18286 37.6791V44.0902C4.18286 45.0985 4.93511 45.9189 5.85962 45.9189H47.8373C48.4651 45.9189 48.9758 46.476 48.9758 47.1607C48.9758 47.8453 48.4651 48.4025 47.8373 48.4025Z" fill="#00928F"/>
</svg>
