<svg width="51" height="50" viewBox="0 0 51 50" fill="none" xmlns="http://www.w3.org/2000/svg">
<path d="M45.6349 29.878C44.5102 29.878 43.3855 30.2846 42.363 31.0976L34.7965 24.8984L42.363 18.6992C43.181 19.4106 44.3057 19.9187 45.6349 19.9187C48.3957 19.9187 50.4407 17.7846 50.4407 15.1423C50.4407 12.3984 48.2934 10.3659 45.6349 10.3659C44.1012 10.3659 42.5675 11.0772 41.7495 12.2967L29.9908 6.30081C30.1953 5.79268 30.1953 5.38618 30.1953 4.87805C30.1953 2.13415 28.048 0 25.3895 0C22.7311 0 20.5838 2.13415 20.5838 4.87805C20.5838 5.89431 20.8906 6.80894 21.5041 7.72358L16.4938 12.7033L9.84763 9.24797C9.94988 8.84146 10.0521 8.43496 10.0521 8.02845C10.0521 5.28455 7.90489 3.15041 5.2464 3.15041C2.48566 3.15041 0.440674 5.28455 0.440674 8.02845C0.440674 9.24797 0.951921 10.4675 1.87217 11.4837C2.79241 12.3984 3.91716 12.9065 5.34865 12.9065C6.98464 12.9065 8.51838 12.0935 9.43863 10.874L15.4713 14.0244L8.31388 21.1382C7.49589 20.5285 6.57564 20.2236 5.4509 20.2236C2.69016 20.2236 0.645173 22.3577 0.645173 25C0.645173 27.7439 2.79241 29.878 5.4509 29.878C6.47339 29.878 7.39364 29.5732 8.31388 28.9634L15.3691 35.9756L9.33638 39.126C8.41613 37.9065 7.08689 37.1951 5.4509 37.1951C4.12166 37.1951 2.99691 37.7033 1.97442 38.6179C0.951921 39.5325 0.542923 40.752 0.542923 42.0732C0.542923 44.8171 2.69016 46.8496 5.34865 46.8496C8.10939 46.8496 10.1544 44.7155 10.1544 42.0732C10.1544 41.565 10.0521 41.0569 9.94987 40.6504L16.3916 37.2967L21.5041 42.378C20.8906 43.1911 20.5838 44.1057 20.5838 45.2236C20.5838 47.9675 22.7311 50 25.3895 50C28.048 50 30.1953 47.8659 30.1953 45.2236C30.1953 44.7154 30.093 44.2073 29.9908 43.8008L41.6472 37.9065C42.5675 39.126 43.8967 39.8374 45.5327 39.8374C48.2934 39.8374 50.3384 37.7033 50.3384 35.061C50.4407 32.0122 48.1912 29.878 45.6349 29.878ZM6.78014 8.84146C6.47339 9.45122 5.8599 9.85772 5.14415 9.85772C4.6329 9.85772 4.22391 9.65447 3.81491 9.34959C3.61041 8.94309 3.40591 8.53658 3.40591 8.02845C3.40591 7.01219 4.22391 6.19919 5.2464 6.19919C6.2689 6.19919 7.08689 7.01219 7.08689 8.02845C6.98464 8.33333 6.88239 8.63821 6.78014 8.84146ZM6.78014 42.5813C6.47339 43.1911 5.8599 43.5976 5.14415 43.5976C4.6329 43.5976 4.22391 43.3943 3.81491 43.0894C3.50816 42.7846 3.30366 42.2764 3.30366 41.8699C3.30366 40.8537 4.12166 40.0407 5.14415 40.0407C6.16665 40.0407 6.98464 40.8537 6.98464 41.8699C6.98464 42.0732 6.88239 42.3781 6.78014 42.5813ZM45.6349 13.313C46.6574 13.313 47.4754 14.126 47.4754 15.1423C47.4754 15.4472 47.3732 15.752 47.2709 15.9553C46.9642 16.565 46.3507 16.9715 45.6349 16.9715C45.1237 16.9715 44.7147 16.7683 44.3057 16.4634C43.999 16.1585 43.7945 15.6504 43.7945 15.2439C43.7945 14.126 44.6124 13.313 45.6349 13.313ZM25.3895 3.04878C26.412 3.04878 27.23 3.86179 27.23 4.87805C27.23 5.18293 27.1278 5.4878 27.0255 5.69106C26.7188 6.30081 26.1053 6.70732 25.3895 6.70732C24.8783 6.70732 24.4693 6.50407 24.0603 6.19919C23.7536 5.89431 23.5491 5.38618 23.5491 4.97967C23.5491 3.86179 24.3671 3.04878 25.3895 3.04878ZM22.5266 8.73984C23.4468 9.34959 24.3671 9.65447 25.3895 9.65447C26.9233 9.65447 28.457 8.94309 29.275 7.72358L40.9315 13.6179C40.8292 14.0244 40.727 14.5325 40.727 15.0407C40.727 15.8537 40.9315 16.6667 41.3405 17.378L33.5695 23.8821L29.5818 20.6301C29.9908 19.9187 30.1953 19.1057 30.1953 18.2927C30.1953 15.5488 28.048 13.5163 25.3895 13.5163C23.8558 13.5163 22.4243 14.2276 21.5041 15.3455L17.8231 13.5163L22.5266 8.73984ZM28.6615 28.0488C27.8435 27.3374 26.7188 26.8293 25.3895 26.8293C23.5491 26.8293 21.8108 27.8455 21.0951 29.4715L9.94987 25.813C10.0521 25.5081 10.0521 25.2033 10.0521 24.8984C10.0521 24.5935 10.0521 24.2886 9.94987 23.9837L21.0951 20.4268C21.9131 21.9512 23.5491 23.0691 25.3895 23.0691C26.5143 23.0691 27.639 22.6626 28.6615 21.9512L32.4448 25.1016L28.6615 28.0488ZM27.23 31.6057C27.23 31.9106 27.1278 32.2155 27.0255 32.4187C26.7188 33.0285 26.1053 33.435 25.3895 33.435C24.8783 33.435 24.4693 33.2317 24.0603 32.9268C23.7536 32.622 23.5491 32.1138 23.5491 31.6057C23.5491 30.5894 24.3671 29.7764 25.3895 29.7764C26.412 29.7764 27.23 30.5894 27.23 31.6057ZM23.5491 18.2927C23.5491 17.2764 24.3671 16.4634 25.3895 16.4634C26.412 16.4634 27.23 17.2764 27.23 18.2927C27.23 18.5976 27.1278 18.9024 27.0255 19.1057C26.7188 19.7154 26.1053 20.122 25.3895 20.122C24.8783 20.122 24.4693 19.9187 24.0603 19.6138C23.7536 19.2073 23.5491 18.6992 23.5491 18.2927ZM20.7883 16.6667C20.5838 17.1748 20.5838 17.5813 20.5838 18.1911V18.9024L9.43863 22.561C9.33638 22.4594 9.23413 22.2561 9.23413 22.1545L16.8006 14.6341L20.7883 16.6667ZM6.78014 25.7114C6.47339 26.3211 5.8599 26.7276 5.14415 26.7276C4.6329 26.7276 4.22391 26.5244 3.81491 26.2195C3.50816 25.9146 3.30366 25.4065 3.30366 25C3.30366 23.9837 4.12166 23.1707 5.14415 23.1707C6.16665 23.1707 6.98464 23.9837 6.98464 25C6.98464 25.2033 6.88239 25.5081 6.78014 25.7114ZM9.13188 27.7439C9.23413 27.6423 9.33638 27.5406 9.43863 27.3374L20.5838 30.9959C20.5838 31.1992 20.4816 31.4024 20.4816 31.7073C20.4816 32.2154 20.5838 32.7236 20.6861 33.1301L16.4938 35.1626L9.13188 27.7439ZM21.5041 34.4512C22.3221 35.5691 23.7536 36.3821 25.3895 36.3821C28.1503 36.3821 30.1953 34.248 30.1953 31.6057C30.1953 30.7927 29.9908 29.9797 29.5818 29.2683L33.5695 26.0163L41.4427 32.4187C40.9315 33.2317 40.727 34.0447 40.727 34.8577C40.727 35.3659 40.8292 35.874 40.9315 36.2805L29.275 42.1748C28.3548 40.9553 27.0255 40.2439 25.3895 40.2439C24.3671 40.2439 23.4468 40.5488 22.5266 41.1585L17.7208 36.3821L21.5041 34.4512ZM27.0255 45.8333C26.7188 46.4431 26.1053 46.8496 25.3895 46.8496C24.8783 46.8496 24.4693 46.6463 24.0603 46.3415C23.7536 46.0366 23.5491 45.5285 23.5491 45.122C23.5491 44.1057 24.3671 43.2927 25.3895 43.2927C26.412 43.2927 27.23 44.1057 27.23 45.122C27.23 45.2236 27.1278 45.5285 27.0255 45.8333ZM47.1687 35.5691C46.8619 36.1789 46.2484 36.5854 45.5327 36.5854C45.0215 36.5854 44.6125 36.3821 44.2035 36.0772C43.7945 35.7724 43.6922 35.2642 43.6922 34.8577C43.6922 33.8415 44.5102 33.0285 45.5327 33.0285C46.5552 33.0285 47.3732 33.8415 47.3732 34.8577C47.3732 35.061 47.2709 35.3659 47.1687 35.5691Z" fill="#00928F"/>
</svg>
