<svg width="51" height="50" viewBox="0 0 51 50" fill="none" xmlns="http://www.w3.org/2000/svg">
<g clip-path="url(#clip0_1258_6754)">
<path d="M1.74829 47.6564H50.1858V49.2189H1.74829V47.6564Z" fill="#00928F"/>
<path d="M20.7084 6.1845C22.4116 5.71028 24.1811 5.46887 25.967 5.46887C30.717 5.46887 35.2436 7.17122 38.8022 10.279L36.9389 12.1423L45.7905 14.3548L43.578 5.50325L42.1202 6.96106C37.6694 2.97043 31.9631 0.781372 25.967 0.781372C23.7764 0.781372 21.6045 1.07434 19.5092 1.65168L18.9358 1.8095V6.28684L20.535 6.21184L20.7084 6.1845ZM20.4983 3.00872C22.2795 2.56731 24.117 2.34387 25.967 2.34387C31.8139 2.34387 37.367 4.56965 41.6022 8.61028L42.1545 9.13684L42.7311 8.56028L43.6436 12.2087L39.9952 11.2962L41.053 10.2384L40.4702 9.68684C36.5381 5.95872 31.3866 3.90637 25.967 3.90637C24.1124 3.90637 22.2733 4.14778 20.4983 4.622V3.00872Z" fill="#00928F"/>
<path d="M2.6186 31.4579L2.77642 32.0313H7.25376L7.17876 30.4321L7.15064 30.2587C6.6772 28.5555 6.43579 26.786 6.43579 25.0001C6.43579 20.2509 8.13814 15.7235 11.2459 12.1641L13.1092 14.0282L15.3217 5.17664L6.47017 7.38914L7.92798 8.84695C3.93735 13.2977 1.74829 19.004 1.74829 25.0001C1.74829 27.1907 2.04126 29.3626 2.6186 31.4579ZM9.5772 9.36492L10.1038 8.81257L9.5272 8.23601L13.1756 7.32351L12.2631 10.9719L11.2053 9.91335L10.6538 10.4962C6.92564 14.4298 4.87329 19.5805 4.87329 25.0001C4.87329 26.8548 5.1147 28.6938 5.58892 30.4688H3.97564C3.53423 28.6876 3.31079 26.8501 3.31079 25.0001C3.31079 19.1532 5.53657 13.6001 9.5772 9.36492Z" fill="#00928F"/>
<path d="M44.7545 17.2243L44.7826 17.3978C45.2568 19.1009 45.4982 20.8704 45.4982 22.6564C45.4982 27.4056 43.7959 31.9329 40.6881 35.4923L38.8248 33.6282L36.6123 42.4798L45.4639 40.2673L44.006 38.8095C47.9967 34.3587 50.1857 28.6525 50.1857 22.6564C50.1857 20.4657 49.8928 18.2939 49.3154 16.1986L49.1576 15.6251H44.6803L44.7545 17.2243ZM47.9584 17.1876C48.3998 18.9689 48.6232 20.8064 48.6232 22.6564C48.6232 28.5032 46.3975 34.0564 42.3568 38.2915L41.8303 38.8439L42.4068 39.4204L38.7584 40.3329L39.6709 36.6845L40.7287 37.7431L41.2803 37.1603C45.0084 33.2267 47.0607 28.0767 47.0607 22.6564C47.0607 20.8017 46.8193 18.9626 46.3451 17.1876H47.9584Z" fill="#00928F"/>
<path d="M18.1545 30.4689H19.717V32.0314H18.1545V30.4689Z" fill="#00928F"/>
<path d="M11.9045 30.4689H13.467V32.0314H11.9045V30.4689Z" fill="#00928F"/>
<path d="M15.0295 30.4689H16.592V32.0314H15.0295V30.4689Z" fill="#00928F"/>
<path d="M15.0295 33.5939H16.592V35.1564H15.0295V33.5939Z" fill="#00928F"/>
<path d="M11.9045 33.5939H13.467V35.1564H11.9045V33.5939Z" fill="#00928F"/>
<path d="M18.1545 33.5939H19.717V35.1564H18.1545V33.5939Z" fill="#00928F"/>
<path d="M15.0295 36.7189H16.592V38.2814H15.0295V36.7189Z" fill="#00928F"/>
<path d="M18.1545 36.7189H19.717V38.2814H18.1545V36.7189Z" fill="#00928F"/>
<path d="M11.9045 36.7189H13.467V38.2814H11.9045V36.7189Z" fill="#00928F"/>
<path d="M11.9045 39.8439H13.467V41.4064H11.9045V39.8439Z" fill="#00928F"/>
<path d="M18.1545 39.8439H19.717V41.4064H18.1545V39.8439Z" fill="#00928F"/>
<path d="M15.0295 39.8438H16.592V41.4062H15.0295V39.8438Z" fill="#00928F"/>
<path d="M13.467 24.2189H15.0295V25.7814H13.467V24.2189Z" fill="#00928F"/>
<path d="M19.7168 24.2189H21.2793V25.7814H19.7168V24.2189Z" fill="#00928F"/>
<path d="M16.5918 24.2189H18.1543V25.7814H16.5918V24.2189Z" fill="#00928F"/>
<path d="M22.842 24.2189H24.4045V25.7814H22.842V24.2189Z" fill="#00928F"/>
<path d="M19.7168 21.0939H21.2793V22.6564H19.7168V21.0939Z" fill="#00928F"/>
<path d="M22.842 21.0939H24.4045V22.6564H22.842V21.0939Z" fill="#00928F"/>
<path d="M16.5918 21.0939H18.1543V22.6564H16.5918V21.0939Z" fill="#00928F"/>
<path d="M13.467 21.0939H15.0295V22.6564H13.467V21.0939Z" fill="#00928F"/>
<path d="M13.467 17.9688H15.0295V19.5312H13.467V17.9688Z" fill="#00928F"/>
<path d="M19.7168 17.9688H21.2793V19.5312H19.7168V17.9688Z" fill="#00928F"/>
<path d="M16.5918 17.9689H18.1543V19.5314H16.5918V17.9689Z" fill="#00928F"/>
<path d="M22.842 17.9689H24.4045V19.5314H22.842V17.9689Z" fill="#00928F"/>
<path d="M35.342 33.5939H37.6858C40.7006 33.5939 43.1545 31.14 43.1545 28.1251V27.3439H39.2483C37.7186 27.3439 36.3358 27.9767 35.342 28.9931V25.7814H37.6858C40.7006 25.7814 43.1545 23.3275 43.1545 20.3126V19.5314H39.2483C37.6959 19.5314 36.2967 20.1845 35.2998 21.2267C34.978 18.5165 32.6686 16.4064 29.8733 16.4064H27.5295V14.8439H10.342V27.3439H8.77954V42.9689H1.74829V44.5314H50.1858V42.9689H35.342V33.5939ZM39.2483 28.9064H41.5131C41.1498 30.6868 39.5725 32.0314 37.6858 32.0314H35.4209C35.7834 30.2509 37.3616 28.9064 39.2483 28.9064ZM39.2483 21.0939H41.5131C41.1498 22.8743 39.5725 24.2189 37.6858 24.2189H35.4209C35.7834 22.4384 37.3616 21.0939 39.2483 21.0939ZM33.7795 42.9689H27.5295V28.8197C28.5233 29.8361 29.9061 30.4689 31.4358 30.4689H33.7795V32.8126V33.5939V42.9689ZM27.6084 25.7814H29.8733C31.76 25.7814 33.3381 27.1259 33.7006 28.9064H31.4358C29.5491 28.9064 27.9709 27.5618 27.6084 25.7814ZM29.8733 17.9689C31.76 17.9689 33.3381 19.3134 33.7006 21.0939H31.4358C29.5491 21.0939 27.9709 19.7493 27.6084 17.9689H29.8733ZM31.4358 22.6564H33.7795V25.0001V25.7814V25.8681C32.7858 24.8517 31.403 24.2189 29.8733 24.2189H27.5295V21.0072C28.5233 22.0236 29.9061 22.6564 31.4358 22.6564ZM11.9045 16.4064H25.967V17.1876V24.2189V25.0001V42.9689H22.842V27.3439H11.9045V16.4064ZM10.342 28.9064H21.2795V42.9689H10.342V28.9064Z" fill="#00928F"/>
</g>
<defs>
<clipPath id="clip0_1258_6754">
<rect width="50" height="50" fill="white" transform="translate(0.966797)"/>
</clipPath>
</defs>
</svg>
