<?xml version="1.0" encoding="utf-8"?>
<!-- Generator: Adobe Illustrator 27.9.1, SVG Export Plug-In . SVG Version: 6.00 Build 0)  -->
<svg version="1.1" id="Layer_1" xmlns="http://www.w3.org/2000/svg" xmlns:xlink="http://www.w3.org/1999/xlink" x="0px" y="0px"
	 viewBox="0 0 205.7 34.1" style="enable-background:new 0 0 205.7 34.1;" xml:space="preserve">
<style type="text/css">
	.st0{fill-rule:evenodd;clip-rule:evenodd;fill:#FFFFFF;}
	.st1{fill:#FFFFFF;}
</style>
<g>
	<g>
		<path class="st0" d="M15.8,7.9c1.7,1.6,1.9,1.6,3.6-0.1l4.3-4.6c2,1.8,3.2,2.7,1.1,4.9L23,10C19.5,12.2,15.8,7.9,15.8,7.9z"/>
		<path class="st0" d="M19.4,4.5c1-1.1,0.9-2.8-0.1-3.8c-1.1-1-2.8-0.9-3.8,0.1c-1,1.1-0.9,2.8,0.1,3.8C16.7,5.6,18.4,5.6,19.4,4.5z
			"/>
		<path class="st0" d="M15.8,8.2L15.8,8.2c-0.2-0.2-0.4-0.4-0.5-0.7c-1.4-2.6-4.5-5-9.7-3.9c3,1.1,1.3,5.3,5.9,7
			c0.8,0.3,1.5,0.7,2.1,1.3l1.2,1.1c2.1,2,4.5,1.1,5.8-0.3l2.3-2.5C19.5,12.5,15.8,8.2,15.8,8.2z M13.5,9.2
			c-1.8-2.4-3.2-3.8-6.2-5.1l0,0c2.2,0.7,3.6,1.7,4.9,3.1c1,1,1.8,2.2,2.5,3.5L13.5,9.2z"/>
	</g>
	<g>
		<path class="st0" d="M18.3,26.2c-1.7-1.6-1.9-1.6-3.6,0.1L10.5,31c-2-1.8-3.2-2.7-1.1-4.9l1.8-1.9C14.6,21.9,18.3,26.2,18.3,26.2z
			"/>
		<path class="st0" d="M14.8,29.6c-1,1.1-0.9,2.8,0.1,3.8c1.1,1,2.8,0.9,3.8-0.1c1-1.1,0.9-2.8-0.1-3.8
			C17.5,28.5,15.8,28.6,14.8,29.6z"/>
		<path class="st0" d="M22.6,23.6c-0.8-0.3-1.5-0.7-2.1-1.3l-1.2-1.1c-2.1-2-4.5-1.1-5.8,0.3l-2.3,2.5c3.5-2.3,7.2,2.1,7.2,2.1l0,0
			c0.2,0.2,0.4,0.4,0.5,0.7c1.4,2.6,4.5,5,9.7,3.9C25.6,29.5,27.3,25.3,22.6,23.6z M26.9,30c-2.2-0.7-3.6-1.7-4.9-3.1
			c-1-1-1.8-2.2-2.5-3.5l1.2,1.5C22.5,27.3,23.9,28.7,26.9,30L26.9,30z"/>
	</g>
	<g>
		<path class="st0" d="M26.2,15.8c-1.6,1.7-1.6,1.9,0.1,3.6l4.6,4.3c-1.8,2-2.7,3.2-4.9,1.1L24.2,23C21.9,19.5,26.2,15.8,26.2,15.8z
			"/>
		<path class="st0" d="M29.6,19.4c1.1,1,2.8,0.9,3.8-0.1c1-1.1,0.9-2.8-0.1-3.8c-1.1-1-2.8-0.9-3.8,0.1
			C28.5,16.7,28.6,18.4,29.6,19.4z"/>
		<path class="st1" d="M30.5,5.6c-1.1,3-5.3,1.3-7,5.9c-0.3,0.8-0.7,1.5-1.3,2.1l-1.1,1.2c-2,2.1-1.1,4.5,0.3,5.8l2.5,2.3
			c-2.3-3.5,2.1-7.2,2.1-7.2l0,0c0.2-0.2,0.4-0.4,0.7-0.5C29.3,13.9,31.7,10.8,30.5,5.6z M26.9,12.2c-1,1-2.2,1.8-3.5,2.5l1.5-1.2
			c2.4-1.8,3.8-3.2,5.1-6.2l0,0C29.3,9.5,28.3,10.8,26.9,12.2z"/>
	</g>
	<g>
		<path class="st0" d="M7.9,18.3c1.6-1.7,1.6-1.9-0.1-3.6l-4.6-4.3C5,8.5,5.9,7.3,8,9.3l1.9,1.8C12.2,14.6,7.9,18.3,7.9,18.3z"/>
		<path class="st0" d="M4.5,14.8c-1.1-1-2.8-0.9-3.8,0.1c-1,1.1-0.9,2.8,0.1,3.8c1.1,1,2.8,0.9,3.8-0.1C5.6,17.5,5.6,15.8,4.5,14.8z
			"/>
		<path class="st0" d="M12.8,13.5l-2.5-2.3c2.3,3.5-2.1,7.2-2.1,7.2l0,0v0c-0.2,0.2-0.4,0.4-0.7,0.5c-2.6,1.4-5,4.5-3.9,9.7
			c1.1-3,5.3-1.3,7-5.9c0.3-0.8,0.7-1.5,1.3-2.1l1.1-1.2C15,17.2,14.1,14.7,12.8,13.5z M9.2,20.7c-2.4,1.8-3.8,3.2-5.1,6.2l0,0
			c0.7-2.2,1.7-3.6,3.1-4.9c1-1,2.2-1.8,3.5-2.5L9.2,20.7z"/>
	</g>
	<g>
		<g>
			<path class="st1" d="M53.3,10.3c0,0.9-0.3,1.8-0.8,2.5c-0.5,0.7-1.1,1.3-2,1.7c-0.8,0.4-1.8,0.6-2.9,0.6c-1.8,0-3.2-0.6-4.2-1.7
				c-1-1.2-1.5-2.8-1.5-4.9V7.8c0-1.3,0.2-2.5,0.7-3.5c0.5-1,1.1-1.8,2-2.3c0.9-0.5,1.9-0.8,3-0.8c1.6,0,3,0.4,4,1.3
				c1,0.9,1.6,2.1,1.7,3.6H50c0-0.8-0.2-1.4-0.6-1.8c-0.4-0.4-1-0.5-1.8-0.5c-0.8,0-1.4,0.3-1.8,0.9c-0.4,0.6-0.6,1.6-0.6,2.9v1
				c0,1.4,0.2,2.5,0.5,3.1c0.4,0.6,1,0.9,1.9,0.9c0.7,0,1.3-0.2,1.7-0.5c0.4-0.4,0.6-0.9,0.6-1.7H53.3z"/>
			<path class="st1" d="M58.4,14.9h-3.1V0.6h3.1V14.9z"/>
			<path class="st1" d="M60.8,2.2c0-0.4,0.2-0.8,0.5-1.1c0.3-0.3,0.7-0.4,1.3-0.4c0.5,0,0.9,0.1,1.3,0.4c0.3,0.3,0.5,0.7,0.5,1.1
				S64.1,3,63.8,3.3c-0.3,0.3-0.7,0.4-1.3,0.4c-0.5,0-0.9-0.1-1.3-0.4C61,3,60.8,2.7,60.8,2.2z M64.2,14.9H61V4.8h3.1V14.9z"/>
			<path class="st1" d="M69.5,4.8L69.6,6c0.7-0.9,1.7-1.4,2.9-1.4c1.3,0,2.1,0.5,2.6,1.5c0.7-1,1.7-1.5,3-1.5c2,0,3.1,1.2,3.1,3.7
				v6.5H78V8.5c0-0.5-0.1-0.9-0.3-1.1c-0.2-0.2-0.5-0.4-0.9-0.4c-0.6,0-1.1,0.3-1.4,0.8l0,0.1v6.9h-3.1V8.6c0-0.5-0.1-0.9-0.3-1.1
				c-0.2-0.2-0.5-0.4-1-0.4c-0.6,0-1.1,0.3-1.4,0.8v7h-3.1V4.8H69.5z"/>
			<path class="st1" d="M89.1,14.9c-0.1-0.2-0.2-0.5-0.3-0.9c-0.6,0.7-1.4,1.1-2.4,1.1c-0.9,0-1.8-0.3-2.4-0.9c-0.7-0.6-1-1.3-1-2.2
				c0-1.1,0.4-1.9,1.2-2.5c0.8-0.6,2-0.8,3.5-0.8h1V8.2c0-0.9-0.4-1.4-1.2-1.4c-0.7,0-1.1,0.4-1.1,1.1h-3.1c0-1,0.4-1.8,1.2-2.4
				c0.8-0.6,1.9-0.9,3.2-0.9c1.3,0,2.3,0.3,3,0.9c0.7,0.6,1.1,1.5,1.1,2.6v4.5c0,0.9,0.2,1.6,0.4,2.1v0.2H89.1z M87.1,12.8
				c0.4,0,0.7-0.1,1-0.3c0.3-0.2,0.4-0.4,0.6-0.6v-1.6h-0.9c-1.1,0-1.6,0.5-1.6,1.5c0,0.3,0.1,0.5,0.3,0.7
				C86.6,12.8,86.8,12.8,87.1,12.8z"/>
			<path class="st1" d="M97.6,2.3v2.5h1.7V7h-1.7v4.6c0,0.4,0.1,0.6,0.2,0.8c0.1,0.1,0.4,0.2,0.8,0.2c0.3,0,0.6,0,0.8-0.1v2.2
				c-0.6,0.2-1.2,0.3-1.8,0.3c-1.1,0-1.9-0.3-2.4-0.8c-0.5-0.5-0.8-1.3-0.8-2.3V7h-1.3V4.8h1.3V2.3H97.6z"/>
			<path class="st1" d="M105.9,15.1c-1.5,0-2.8-0.5-3.7-1.4c-1-0.9-1.4-2.1-1.4-3.6V9.8c0-1,0.2-1.9,0.6-2.7
				c0.4-0.8,0.9-1.4,1.7-1.8c0.7-0.4,1.6-0.6,2.6-0.6c1.4,0,2.5,0.4,3.3,1.3c0.8,0.9,1.2,2.1,1.2,3.7v1.2h-6.2
				c0.1,0.6,0.4,1,0.7,1.3c0.4,0.3,0.9,0.5,1.5,0.5c1,0,1.8-0.3,2.3-1l1.4,1.7c-0.4,0.5-0.9,1-1.7,1.3
				C107.5,14.9,106.7,15.1,105.9,15.1z M105.5,7.1c-0.9,0-1.5,0.6-1.6,1.8h3.2V8.6c0-0.5-0.1-0.9-0.4-1.2
				C106.4,7.2,106,7.1,105.5,7.1z"/>
			<path class="st1" d="M56.5,31.4H52l-0.8,2.5h-3.5l5-13.5h3.1l5,13.5h-3.5L56.5,31.4z M52.8,28.9h2.9l-1.5-4.7L52.8,28.9z"/>
			<path class="st1" d="M61.8,33.9V20.4h4.4c1.2,0,2.3,0.3,3.2,0.8c1,0.5,1.7,1.3,2.2,2.3c0.5,1,0.8,2.1,0.8,3.3v0.6
				c0,1.2-0.3,2.3-0.8,3.3c-0.5,1-1.3,1.7-2.2,2.3c-1,0.6-2,0.8-3.2,0.8H61.8z M65.1,22.9v8.5h1.1c0.9,0,1.7-0.3,2.2-1
				c0.5-0.7,0.8-1.7,0.8-3v-0.6c0-1.3-0.3-2.3-0.8-3c-0.5-0.7-1.2-1-2.2-1H65.1z"/>
			<path class="st1" d="M81.9,31.4h-4.5l-0.8,2.5h-3.5l5-13.5h3.1l5,13.5h-3.5L81.9,31.4z M78.2,28.9h2.9l-1.5-4.7L78.2,28.9z"/>
			<path class="st1" d="M90.5,29.3v4.6h-3.3V20.4h5.4c1,0,1.9,0.2,2.7,0.6c0.8,0.4,1.4,0.9,1.8,1.6c0.4,0.7,0.7,1.5,0.7,2.4
				c0,1.3-0.5,2.4-1.4,3.2c-0.9,0.8-2.2,1.2-3.9,1.2H90.5z M90.5,26.8h2.1c0.6,0,1.1-0.2,1.4-0.5c0.3-0.3,0.5-0.8,0.5-1.3
				c0-0.6-0.2-1.1-0.5-1.5c-0.3-0.4-0.8-0.6-1.4-0.6h-2.2V26.8z"/>
			<path class="st1" d="M110.3,22.9h-4.1v11h-3.3v-11h-4v-2.5h11.3V22.9z"/>
		</g>
	</g>
	<g>
		<path class="st1" d="M124.7,5.1c0-0.2-0.1-0.4-0.2-0.5c-0.2-0.1-0.4-0.2-0.8-0.4c-0.4-0.1-0.7-0.3-1-0.4c-0.6-0.3-1-0.8-1-1.4
			c0-0.3,0.1-0.6,0.3-0.8c0.2-0.2,0.4-0.4,0.7-0.6c0.3-0.1,0.7-0.2,1.1-0.2c0.4,0,0.8,0.1,1.1,0.2c0.3,0.1,0.6,0.4,0.7,0.6
			c0.2,0.3,0.3,0.6,0.3,0.9h-1.2c0-0.3-0.1-0.5-0.2-0.6c-0.2-0.1-0.4-0.2-0.7-0.2c-0.3,0-0.5,0.1-0.7,0.2c-0.2,0.1-0.2,0.3-0.2,0.5
			c0,0.2,0.1,0.3,0.3,0.5c0.2,0.1,0.5,0.2,0.8,0.3c0.7,0.2,1.1,0.4,1.4,0.7c0.3,0.3,0.5,0.7,0.5,1.1c0,0.5-0.2,0.9-0.6,1.2
			c-0.4,0.3-0.9,0.4-1.5,0.4c-0.4,0-0.8-0.1-1.2-0.2c-0.4-0.2-0.6-0.4-0.8-0.7c-0.2-0.3-0.3-0.6-0.3-1h1.2c0,0.6,0.4,0.9,1.1,0.9
			c0.3,0,0.5-0.1,0.6-0.2C124.6,5.5,124.7,5.3,124.7,5.1z"/>
		<path class="st1" d="M131.2,6.6h-1.2V4.2h-2.3v2.4h-1.2V0.9h1.2v2.3h2.3V0.9h1.2V6.6z"/>
		<path class="st1" d="M135.5,5.4h-2l-0.4,1.2h-1.2l2.1-5.7h1.1l2.1,5.7h-1.2L135.5,5.4z M133.8,4.5h1.4l-0.7-2.1L133.8,4.5z"/>
		<path class="st1" d="M139.7,4.5h-0.9v2.1h-1.2V0.9h2.1c0.7,0,1.2,0.1,1.5,0.4c0.4,0.3,0.5,0.7,0.5,1.3c0,0.4-0.1,0.7-0.3,1
			c-0.2,0.3-0.4,0.5-0.8,0.6l1.2,2.3v0.1h-1.2L139.7,4.5z M138.8,3.6h0.9c0.3,0,0.5-0.1,0.7-0.2c0.2-0.1,0.2-0.4,0.2-0.6
			c0-0.3-0.1-0.5-0.2-0.6c-0.2-0.2-0.4-0.2-0.7-0.2h-0.9V3.6z"/>
		<path class="st1" d="M144,6.6h-1.2V0.9h1.2V6.6z"/>
		<path class="st1" d="M149.6,6.6h-1.2l-2.3-3.7v3.7H145V0.9h1.2l2.3,3.7V0.9h1.2V6.6z"/>
		<path class="st1" d="M155.1,5.9c-0.2,0.3-0.5,0.4-0.9,0.6c-0.4,0.1-0.8,0.2-1.3,0.2c-0.5,0-0.9-0.1-1.3-0.3
			c-0.4-0.2-0.7-0.5-0.9-0.9s-0.3-0.9-0.3-1.4V3.6c0-0.6,0.1-1.1,0.3-1.5c0.2-0.4,0.5-0.7,0.8-0.9c0.4-0.2,0.8-0.3,1.3-0.3
			c0.7,0,1.2,0.2,1.6,0.5c0.4,0.3,0.6,0.8,0.7,1.4H154c-0.1-0.3-0.2-0.6-0.3-0.7c-0.2-0.2-0.4-0.2-0.7-0.2c-0.4,0-0.7,0.1-0.9,0.4
			c-0.2,0.3-0.3,0.7-0.3,1.3v0.4c0,0.6,0.1,1,0.3,1.3c0.2,0.3,0.6,0.5,1,0.5c0.4,0,0.7-0.1,0.9-0.3v-1h-1.1V3.6h2.2V5.9z"/>
		<path class="st1" d="M161.2,5.4h-2l-0.4,1.2h-1.2l2.1-5.7h1.1l2.1,5.7h-1.2L161.2,5.4z M159.5,4.5h1.4l-0.7-2.1L159.5,4.5z"/>
		<path class="st1" d="M163.4,6.6V0.9h1.7c0.5,0,0.9,0.1,1.3,0.3s0.7,0.5,0.9,1c0.2,0.4,0.3,0.9,0.3,1.4v0.3c0,0.5-0.1,1-0.3,1.4
			c-0.2,0.4-0.5,0.7-0.9,1c-0.4,0.2-0.8,0.3-1.3,0.3H163.4z M164.6,1.9v3.8h0.6c0.5,0,0.8-0.1,1-0.4c0.2-0.3,0.4-0.7,0.4-1.3V3.6
			c0-0.6-0.1-1-0.4-1.3c-0.2-0.3-0.6-0.4-1-0.4H164.6z"/>
		<path class="st1" d="M171.8,5.4h-2l-0.4,1.2h-1.2l2.1-5.7h1.1l2.1,5.7h-1.2L171.8,5.4z M170,4.5h1.4l-0.7-2.1L170,4.5z"/>
		<path class="st1" d="M175.1,4.6v2h-1.2V0.9h2.2c0.4,0,0.8,0.1,1.1,0.2c0.3,0.2,0.6,0.4,0.7,0.7c0.2,0.3,0.3,0.6,0.3,1
			c0,0.6-0.2,1-0.6,1.3c-0.4,0.3-0.9,0.5-1.6,0.5H175.1z M175.1,3.6h1c0.3,0,0.5-0.1,0.7-0.2c0.2-0.1,0.2-0.4,0.2-0.6
			c0-0.3-0.1-0.5-0.2-0.7c-0.2-0.2-0.4-0.3-0.7-0.3h-1.1V3.6z"/>
		<path class="st1" d="M183.3,1.9h-1.7v4.7h-1.2V1.9h-1.7V0.9h4.6V1.9z"/>
		<path class="st1" d="M186.7,5.4h-2l-0.4,1.2H183l2.1-5.7h1.1l2.1,5.7h-1.2L186.7,5.4z M185,4.5h1.4l-0.7-2.1L185,4.5z"/>
		<path class="st1" d="M192.6,1.9h-1.7v4.7h-1.2V1.9H188V0.9h4.6V1.9z"/>
		<path class="st1" d="M194.5,6.6h-1.2V0.9h1.2V6.6z"/>
		<path class="st1" d="M200.3,3.9c0,0.6-0.1,1-0.3,1.5c-0.2,0.4-0.5,0.7-0.8,1c-0.4,0.2-0.8,0.3-1.3,0.3c-0.5,0-0.9-0.1-1.3-0.3
			c-0.4-0.2-0.7-0.5-0.9-1c-0.2-0.4-0.3-0.9-0.3-1.4V3.6c0-0.6,0.1-1,0.3-1.5c0.2-0.4,0.5-0.7,0.9-1c0.4-0.2,0.8-0.3,1.3-0.3
			s0.9,0.1,1.3,0.3c0.4,0.2,0.6,0.6,0.8,1c0.2,0.4,0.3,0.9,0.3,1.5V3.9z M199.1,3.6c0-0.6-0.1-1-0.3-1.4c-0.2-0.3-0.5-0.5-0.9-0.5
			c-0.4,0-0.7,0.2-0.9,0.5c-0.2,0.3-0.3,0.7-0.3,1.3v0.3c0,0.6,0.1,1,0.3,1.3c0.2,0.3,0.5,0.5,0.9,0.5c0.4,0,0.7-0.2,0.9-0.5
			c0.2-0.3,0.3-0.8,0.3-1.3V3.6z"/>
		<path class="st1" d="M205.7,6.6h-1.2l-2.3-3.7v3.7h-1.2V0.9h1.2l2.3,3.7V0.9h1.2V6.6z"/>
		<path class="st1" d="M123.5,13.4l-0.6,0.7v1.6h-1.2V10h1.2v2.6l0.5-0.7l1.4-1.9h1.4l-2,2.5l2.1,3.1H125L123.5,13.4z"/>
		<path class="st1" d="M131.4,15.7h-1.2l-2.3-3.7v3.7h-1.2V10h1.2l2.3,3.7V10h1.2V15.7z"/>
		<path class="st1" d="M137,13c0,0.6-0.1,1-0.3,1.5c-0.2,0.4-0.5,0.7-0.8,1c-0.4,0.2-0.8,0.3-1.3,0.3c-0.5,0-0.9-0.1-1.3-0.3
			c-0.4-0.2-0.7-0.5-0.9-1c-0.2-0.4-0.3-0.9-0.3-1.4v-0.3c0-0.6,0.1-1,0.3-1.5c0.2-0.4,0.5-0.7,0.8-1s0.8-0.3,1.3-0.3
			s0.9,0.1,1.3,0.3c0.4,0.2,0.6,0.6,0.8,1s0.3,0.9,0.3,1.5V13z M135.9,12.7c0-0.6-0.1-1-0.3-1.4c-0.2-0.3-0.5-0.5-0.9-0.5
			c-0.4,0-0.7,0.2-0.9,0.5c-0.2,0.3-0.3,0.7-0.3,1.3V13c0,0.6,0.1,1,0.3,1.3c0.2,0.3,0.5,0.5,0.9,0.5c0.4,0,0.7-0.2,0.9-0.5
			c0.2-0.3,0.3-0.8,0.3-1.3V12.7z"/>
		<path class="st1" d="M142.3,14.1l0.8-4h1.2l-1.3,5.7h-1.2l-0.9-3.8l-0.9,3.8h-1.2l-1.3-5.7h1.2l0.8,4l0.9-4h1L142.3,14.1z"/>
		<path class="st1" d="M146,14.8h2.5v0.9h-3.6V10h1.2V14.8z"/>
		<path class="st1" d="M152.5,13.2h-2.2v1.5h2.6v0.9h-3.8V10h3.8V11h-2.6v1.3h2.2V13.2z"/>
		<path class="st1" d="M153.6,15.7V10h1.7c0.5,0,0.9,0.1,1.3,0.3s0.7,0.5,0.9,1c0.2,0.4,0.3,0.9,0.3,1.4V13c0,0.5-0.1,1-0.3,1.4
			c-0.2,0.4-0.5,0.7-0.9,1s-0.8,0.3-1.3,0.3H153.6z M154.8,11v3.8h0.6c0.5,0,0.8-0.1,1-0.4c0.2-0.3,0.4-0.7,0.4-1.3v-0.3
			c0-0.6-0.1-1-0.4-1.3c-0.2-0.3-0.6-0.4-1-0.4H154.8z"/>
		<path class="st1" d="M163.2,15c-0.2,0.3-0.5,0.4-0.9,0.6c-0.4,0.1-0.8,0.2-1.3,0.2c-0.5,0-0.9-0.1-1.3-0.3
			c-0.4-0.2-0.7-0.5-0.9-0.9c-0.2-0.4-0.3-0.9-0.3-1.4v-0.4c0-0.6,0.1-1.1,0.3-1.5c0.2-0.4,0.5-0.7,0.8-0.9c0.4-0.2,0.8-0.3,1.3-0.3
			c0.7,0,1.2,0.2,1.6,0.5c0.4,0.3,0.6,0.8,0.7,1.4h-1.1c-0.1-0.3-0.2-0.6-0.3-0.7c-0.2-0.2-0.4-0.2-0.7-0.2c-0.4,0-0.7,0.1-0.9,0.4
			c-0.2,0.3-0.3,0.7-0.3,1.3V13c0,0.6,0.1,1,0.3,1.3c0.2,0.3,0.6,0.5,1,0.5c0.4,0,0.7-0.1,0.9-0.3v-1H161v-0.9h2.2V15z"/>
		<path class="st1" d="M167.6,13.2h-2.2v1.5h2.6v0.9h-3.8V10h3.8V11h-2.6v1.3h2.2V13.2z"/>
		<path class="st1" d="M174,13.4h-2.2v2.3h-1.2V10h3.7V11h-2.5v1.5h2.2V13.4z"/>
		<path class="st1" d="M179.6,13c0,0.6-0.1,1-0.3,1.5c-0.2,0.4-0.5,0.7-0.8,1c-0.4,0.2-0.8,0.3-1.3,0.3c-0.5,0-0.9-0.1-1.3-0.3
			c-0.4-0.2-0.7-0.5-0.9-1c-0.2-0.4-0.3-0.9-0.3-1.4v-0.3c0-0.6,0.1-1,0.3-1.5c0.2-0.4,0.5-0.7,0.8-1c0.4-0.2,0.8-0.3,1.3-0.3
			c0.5,0,0.9,0.1,1.3,0.3c0.4,0.2,0.6,0.6,0.9,1c0.2,0.4,0.3,0.9,0.3,1.5V13z M178.5,12.7c0-0.6-0.1-1-0.3-1.4
			c-0.2-0.3-0.5-0.5-0.9-0.5c-0.4,0-0.7,0.2-0.9,0.5c-0.2,0.3-0.3,0.7-0.3,1.3V13c0,0.6,0.1,1,0.3,1.3c0.2,0.3,0.5,0.5,0.9,0.5
			c0.4,0,0.7-0.2,0.9-0.5c0.2-0.3,0.3-0.8,0.3-1.3V12.7z"/>
		<path class="st1" d="M182.6,13.6h-0.9v2.1h-1.2V10h2.1c0.7,0,1.2,0.1,1.5,0.4c0.4,0.3,0.5,0.7,0.5,1.3c0,0.4-0.1,0.7-0.3,1
			c-0.2,0.3-0.4,0.5-0.8,0.6l1.2,2.3v0.1h-1.2L182.6,13.6z M181.6,12.7h0.9c0.3,0,0.5-0.1,0.7-0.2c0.2-0.1,0.2-0.4,0.2-0.6
			c0-0.3-0.1-0.5-0.2-0.6c-0.2-0.2-0.4-0.2-0.7-0.2h-0.9V12.7z"/>
		<path class="st1" d="M124.9,23.6h-2l-0.4,1.2h-1.2l2.1-5.7h1.1l2.1,5.7h-1.2L124.9,23.6z M123.2,22.7h1.4l-0.7-2.1L123.2,22.7z"/>
		<path class="st1" d="M133.5,22.9c0,0.6-0.3,1.1-0.7,1.4c-0.4,0.3-0.9,0.5-1.6,0.5c-0.7,0-1.3-0.2-1.7-0.7c-0.4-0.5-0.6-1.2-0.6-2
			v-0.3c0-0.5,0.1-1,0.3-1.4c0.2-0.4,0.5-0.7,0.8-1c0.4-0.2,0.8-0.3,1.2-0.3c0.7,0,1.2,0.2,1.6,0.5c0.4,0.3,0.6,0.8,0.7,1.5h-1.2
			c0-0.4-0.1-0.6-0.3-0.8c-0.2-0.2-0.4-0.2-0.8-0.2c-0.4,0-0.7,0.1-0.9,0.4c-0.2,0.3-0.3,0.7-0.3,1.3v0.4c0,0.6,0.1,1.1,0.3,1.3
			c0.2,0.3,0.5,0.4,0.9,0.4c0.4,0,0.6-0.1,0.8-0.2c0.2-0.2,0.3-0.4,0.3-0.8H133.5z"/>
		<path class="st1" d="M135.4,23.9h2.5v0.9h-3.6v-5.7h1.2V23.9z"/>
		<path class="st1" d="M139.8,24.8h-1.2v-5.7h1.2V24.8z"/>
		<path class="st1" d="M142.4,19.2l1.5,4.1l1.4-4.1h1.5v5.7h-1.2v-1.5l0.1-2.7l-1.5,4.2h-0.8l-1.5-4.2l0.1,2.7v1.5h-1.2v-5.7H142.4z
			"/>
		<path class="st1" d="M151,23.6h-2l-0.4,1.2h-1.2l2.1-5.7h1.1l2.1,5.7h-1.2L151,23.6z M149.3,22.7h1.4l-0.7-2.1L149.3,22.7z"/>
		<path class="st1" d="M157,20.1h-1.7v4.7h-1.2v-4.7h-1.7v-0.9h4.6V20.1z"/>
		<path class="st1" d="M161,22.4h-2.2v1.5h2.6v0.9h-3.8v-5.7h3.8v0.9h-2.6v1.3h2.2V22.4z"/>
		<path class="st1" d="M164.2,22.8H162v-0.9h2.2V22.8z"/>
		<path class="st1" d="M167.3,22.7h-0.9v2.1h-1.2v-5.7h2.1c0.7,0,1.2,0.1,1.5,0.4c0.4,0.3,0.5,0.7,0.5,1.3c0,0.4-0.1,0.7-0.3,1
			c-0.2,0.3-0.4,0.5-0.8,0.6l1.2,2.3v0.1h-1.2L167.3,22.7z M166.4,21.8h0.9c0.3,0,0.5-0.1,0.7-0.2c0.2-0.1,0.2-0.4,0.2-0.6
			c0-0.3-0.1-0.5-0.2-0.6c-0.2-0.2-0.4-0.2-0.7-0.2h-0.9V21.8z"/>
		<path class="st1" d="M173.7,22.4h-2.2v1.5h2.6v0.9h-3.8v-5.7h3.8v0.9h-2.6v1.3h2.2V22.4z"/>
		<path class="st1" d="M177.7,23.3c0-0.2-0.1-0.4-0.2-0.5c-0.2-0.1-0.4-0.2-0.8-0.4c-0.4-0.1-0.7-0.3-1-0.4c-0.6-0.3-1-0.8-1-1.4
			c0-0.3,0.1-0.6,0.3-0.8c0.2-0.2,0.4-0.4,0.7-0.6c0.3-0.1,0.7-0.2,1.1-0.2c0.4,0,0.8,0.1,1.1,0.2c0.3,0.1,0.6,0.4,0.7,0.6
			c0.2,0.3,0.3,0.6,0.3,0.9h-1.2c0-0.3-0.1-0.5-0.2-0.6c-0.2-0.1-0.4-0.2-0.7-0.2c-0.3,0-0.5,0.1-0.7,0.2c-0.2,0.1-0.2,0.3-0.2,0.5
			c0,0.2,0.1,0.3,0.3,0.5c0.2,0.1,0.5,0.2,0.8,0.3c0.7,0.2,1.1,0.4,1.4,0.7c0.3,0.3,0.5,0.7,0.5,1.1c0,0.5-0.2,0.9-0.6,1.2
			c-0.4,0.3-0.9,0.4-1.5,0.4c-0.4,0-0.8-0.1-1.2-0.2c-0.4-0.2-0.6-0.4-0.8-0.7c-0.2-0.3-0.3-0.6-0.3-1h1.2c0,0.6,0.4,0.9,1.1,0.9
			c0.3,0,0.5-0.1,0.6-0.2C177.6,23.7,177.7,23.5,177.7,23.3z"/>
		<path class="st1" d="M180.9,24.8h-1.2v-5.7h1.2V24.8z"/>
		<path class="st1" d="M183.1,23.9h2.5v0.9h-3.6v-5.7h1.2V23.9z"/>
		<path class="st1" d="M187.5,24.8h-1.2v-5.7h1.2V24.8z"/>
		<path class="st1" d="M192,22.4h-2.2v1.5h2.6v0.9h-3.8v-5.7h3.8v0.9h-2.6v1.3h2.2V22.4z"/>
		<path class="st1" d="M197.6,24.8h-1.2l-2.3-3.7v3.7H193v-5.7h1.2l2.3,3.7v-3.7h1.2V24.8z"/>
		<path class="st1" d="M202.9,20.1h-1.7v4.7H200v-4.7h-1.7v-0.9h4.6V20.1z"/>
		<path class="st1" d="M125.1,31.5h-2.2V33h2.6v0.9h-3.8v-5.7h3.8v0.9h-2.6v1.3h2.2V31.5z"/>
		<path class="st1" d="M130.5,28.3V32c0,0.6-0.2,1.1-0.6,1.5c-0.4,0.4-0.9,0.5-1.6,0.5c-0.7,0-1.2-0.2-1.6-0.5
			c-0.4-0.3-0.6-0.8-0.6-1.4v-3.8h1.2V32c0,0.4,0.1,0.6,0.3,0.8c0.2,0.2,0.4,0.3,0.7,0.3c0.7,0,1-0.3,1-1v-3.8H130.5z"/>
		<path class="st1" d="M133.5,31.9h-0.9v2.1h-1.2v-5.7h2.1c0.7,0,1.2,0.1,1.5,0.4c0.4,0.3,0.5,0.7,0.5,1.3c0,0.4-0.1,0.7-0.3,1
			c-0.2,0.3-0.4,0.5-0.8,0.6l1.2,2.3v0.1h-1.2L133.5,31.9z M132.6,30.9h0.9c0.3,0,0.5-0.1,0.7-0.2c0.2-0.1,0.2-0.4,0.2-0.6
			c0-0.3-0.1-0.5-0.2-0.6c-0.2-0.2-0.4-0.2-0.7-0.2h-0.9V30.9z"/>
		<path class="st1" d="M141.2,31.2c0,0.6-0.1,1-0.3,1.5s-0.5,0.7-0.8,1c-0.4,0.2-0.8,0.3-1.3,0.3c-0.5,0-0.9-0.1-1.3-0.3
			c-0.4-0.2-0.7-0.5-0.9-1c-0.2-0.4-0.3-0.9-0.3-1.4V31c0-0.6,0.1-1,0.3-1.5c0.2-0.4,0.5-0.7,0.8-1c0.4-0.2,0.8-0.3,1.3-0.3
			c0.5,0,0.9,0.1,1.3,0.3c0.4,0.2,0.6,0.6,0.9,1c0.2,0.4,0.3,0.9,0.3,1.5V31.2z M140,31c0-0.6-0.1-1-0.3-1.4
			c-0.2-0.3-0.5-0.5-0.9-0.5c-0.4,0-0.7,0.2-0.9,0.5c-0.2,0.3-0.3,0.7-0.3,1.3v0.3c0,0.6,0.1,1,0.3,1.3c0.2,0.3,0.5,0.5,0.9,0.5
			c0.4,0,0.7-0.2,0.9-0.5c0.2-0.3,0.3-0.8,0.3-1.3V31z"/>
		<path class="st1" d="M143.2,31.9v2H142v-5.7h2.2c0.4,0,0.8,0.1,1.1,0.2c0.3,0.2,0.6,0.4,0.7,0.7c0.2,0.3,0.3,0.6,0.3,1
			c0,0.6-0.2,1-0.6,1.3c-0.4,0.3-0.9,0.5-1.6,0.5H143.2z M143.2,31h1c0.3,0,0.5-0.1,0.7-0.2c0.2-0.1,0.2-0.4,0.2-0.6
			c0-0.3-0.1-0.5-0.2-0.7c-0.2-0.2-0.4-0.3-0.7-0.3h-1.1V31z"/>
		<path class="st1" d="M150.5,31.5h-2.2V33h2.6v0.9h-3.8v-5.7h3.8v0.9h-2.6v1.3h2.2V31.5z"/>
	</g>
</g>
</svg>
