<?xml version="1.0" encoding="utf-8"?>
<!-- Generator: Adobe Illustrator 27.9.1, SVG Export Plug-In . SVG Version: 6.00 Build 0)  -->
<svg version="1.1" id="Layer_1" xmlns="http://www.w3.org/2000/svg" xmlns:xlink="http://www.w3.org/1999/xlink" x="0px" y="0px"
	 viewBox="0 0 164.7 35.6" style="enable-background:new 0 0 164.7 35.6;" xml:space="preserve">
<style type="text/css">
	.st0{fill:#FFFFFF;}
</style>
<g>
	<path class="st0" d="M48.8,4.9h-3.2v2h3.7v1.5h-5.7V0.1h5.8v1.6h-3.7v1.8h3.2V4.9z"/>
	<path class="st0" d="M56.7,0.1v5.5c0,0.6-0.1,1.2-0.4,1.6c-0.3,0.5-0.6,0.8-1.1,1c-0.5,0.2-1.1,0.4-1.7,0.4c-1,0-1.8-0.3-2.4-0.8
		c-0.6-0.5-0.9-1.2-0.9-2.2V0.1h2v5.5c0,0.9,0.4,1.4,1.3,1.4c0.4,0,0.7-0.1,0.9-0.3c0.2-0.2,0.3-0.6,0.3-1.1V0.1H56.7z"/>
	<path class="st0" d="M61,5.5H60v3h-2V0.1h3.3c1,0,1.8,0.2,2.3,0.7c0.6,0.4,0.8,1.1,0.8,1.9c0,0.6-0.1,1.1-0.4,1.4
		c-0.2,0.4-0.6,0.7-1.1,0.9l1.7,3.4v0.1h-2.2L61,5.5z M60,4h1.3c0.4,0,0.7-0.1,0.9-0.3s0.3-0.5,0.3-0.8c0-0.4-0.1-0.6-0.3-0.8
		s-0.5-0.3-0.9-0.3H60V4z"/>
	<path class="st0" d="M72.7,4.5c0,0.8-0.2,1.5-0.5,2.2c-0.3,0.6-0.7,1.1-1.3,1.4S69.7,8.6,69,8.6s-1.3-0.2-1.9-0.5
		c-0.6-0.3-1-0.8-1.3-1.4c-0.3-0.6-0.5-1.3-0.5-2.1V4.1c0-0.8,0.1-1.5,0.4-2.2c0.3-0.6,0.7-1.1,1.3-1.4S68.3,0,69,0
		c0.7,0,1.3,0.2,1.9,0.5s1,0.8,1.3,1.4c0.3,0.6,0.5,1.3,0.5,2.1V4.5z M70.6,4.1c0-0.8-0.1-1.5-0.4-1.9S69.5,1.6,69,1.6
		c-1,0-1.5,0.8-1.6,2.3l0,0.6c0,0.8,0.1,1.4,0.4,1.9C68.1,6.8,68.5,7,69,7c0.5,0,0.9-0.2,1.2-0.6s0.4-1.1,0.4-1.9V4.1z"/>
	<path class="st0" d="M75.7,5.6v2.8h-2V0.1H77c0.6,0,1.2,0.1,1.7,0.4c0.5,0.2,0.9,0.6,1.1,1c0.3,0.4,0.4,0.9,0.4,1.5
		c0,0.8-0.3,1.5-0.9,2C78.8,5.4,78,5.6,77,5.6H75.7z M75.7,4.1H77c0.4,0,0.7-0.1,0.9-0.3c0.2-0.2,0.3-0.5,0.3-0.8
		c0-0.4-0.1-0.7-0.3-0.9c-0.2-0.2-0.5-0.4-0.9-0.4h-1.3V4.1z"/>
	<path class="st0" d="M86.5,4.9h-3.2v2h3.7v1.5h-5.7V0.1h5.8v1.6h-3.7v1.8h3.2V4.9z"/>
	<path class="st0" d="M92.6,6.9h-2.8l-0.5,1.6h-2.1l3.1-8.3h1.9l3.1,8.3h-2.2L92.6,6.9z M90.4,5.3h1.8l-0.9-2.9L90.4,5.3z"/>
	<path class="st0" d="M102.9,8.5h-2l-3-5.2v5.2h-2V0.1h2l3,5.2V0.1h2V8.5z"/>
</g>
<g>
	<path class="st0" d="M50.3,19.2c0,0.6-0.2,1.1-0.5,1.5c-0.3,0.4-0.7,0.8-1.2,1c-0.5,0.2-1.1,0.4-1.8,0.4c-1.1,0-2-0.4-2.6-1.1
		c-0.6-0.7-0.9-1.7-0.9-3v-0.4c0-0.8,0.1-1.5,0.4-2.1c0.3-0.6,0.7-1.1,1.2-1.4c0.5-0.3,1.2-0.5,1.9-0.5c1,0,1.8,0.3,2.4,0.8
		c0.6,0.5,1,1.3,1,2.2h-2c0-0.5-0.1-0.9-0.4-1.1c-0.2-0.2-0.6-0.3-1.1-0.3c-0.5,0-0.9,0.2-1.1,0.6c-0.2,0.4-0.4,1-0.4,1.8V18
		c0,0.9,0.1,1.5,0.3,1.9c0.2,0.4,0.6,0.6,1.2,0.6c0.5,0,0.8-0.1,1.1-0.3c0.2-0.2,0.4-0.6,0.4-1H50.3z"/>
	<path class="st0" d="M53.3,20.4h3.5V22h-5.5v-8.3h2V20.4z"/>
	<path class="st0" d="M59.8,22h-2v-8.3h2V22z"/>
	<path class="st0" d="M63.8,13.6l1.9,5.8l1.9-5.8h2.6V22h-2V20l0.2-4l-2,5.9H65L63,16l0.2,4V22h-2v-8.3H63.8z"/>
	<path class="st0" d="M76.2,20.4h-2.8L73,22h-2.1l3.1-8.3h1.9l3.1,8.3h-2.2L76.2,20.4z M73.9,18.9h1.8L74.8,16L73.9,18.9z"/>
	<path class="st0" d="M85.3,15.2h-2.5V22h-2v-6.8h-2.5v-1.6h7V15.2z"/>
	<path class="st0" d="M91.3,18.4h-3.2v2h3.7V22h-5.7v-8.3h5.8v1.6h-3.7V17h3.2V18.4z"/>
	<path class="st0" d="M100.4,20.4h-2.8L97.2,22H95l3.1-8.3h1.9L103,22h-2.2L100.4,20.4z M98.1,18.9h1.8L99,16L98.1,18.9z"/>
	<path class="st0" d="M110.6,22h-2l-3-5.2V22h-2v-8.3h2l3,5.2v-5.2h2V22z"/>
	<path class="st0" d="M111.9,22v-8.3h2.7c0.7,0,1.4,0.2,2,0.5c0.6,0.3,1,0.8,1.4,1.4c0.3,0.6,0.5,1.3,0.5,2V18
		c0,0.8-0.2,1.4-0.5,2.1c-0.3,0.6-0.8,1.1-1.4,1.4c-0.6,0.3-1.2,0.5-2,0.5H111.9z M113.9,15.2v5.2h0.7c0.6,0,1-0.2,1.3-0.6
		c0.3-0.4,0.5-1,0.5-1.8v-0.4c0-0.8-0.2-1.4-0.5-1.8c-0.3-0.4-0.8-0.6-1.4-0.6H113.9z"/>
	<path class="st0" d="M129.4,22h-2v-3.5h-3V22h-2v-8.3h2V17h3v-3.3h2V22z"/>
	<path class="st0" d="M135.8,18.4h-3.2v2h3.7V22h-5.7v-8.3h5.8v1.6h-3.7V17h3.2V18.4z"/>
	<path class="st0" d="M141.9,20.4h-2.8l-0.5,1.6h-2.1l3.1-8.3h1.9l3.1,8.3h-2.2L141.9,20.4z M139.7,18.9h1.8l-0.9-2.9L139.7,18.9z"
		/>
	<path class="st0" d="M147.2,20.4h3.5V22h-5.5v-8.3h2V20.4z"/>
	<path class="st0" d="M156.9,15.2h-2.5V22h-2v-6.8h-2.5v-1.6h7V15.2z"/>
	<path class="st0" d="M164.7,22h-2v-3.5h-3V22h-2v-8.3h2V17h3v-3.3h2V22z"/>
</g>
<g>
	<path class="st0" d="M50.7,31.5c0,0.8-0.2,1.5-0.5,2.2c-0.3,0.6-0.7,1.1-1.3,1.4s-1.2,0.5-1.9,0.5s-1.3-0.2-1.9-0.5
		c-0.6-0.3-1-0.8-1.3-1.4c-0.3-0.6-0.5-1.3-0.5-2.1v-0.5c0-0.8,0.1-1.5,0.4-2.2c0.3-0.6,0.7-1.1,1.3-1.4S46.3,27,47,27
		c0.7,0,1.3,0.2,1.9,0.5s1,0.8,1.3,1.4c0.3,0.6,0.5,1.3,0.5,2.1V31.5z M48.6,31.2c0-0.8-0.1-1.5-0.4-1.9s-0.7-0.6-1.2-0.6
		c-1,0-1.5,0.8-1.6,2.3l0,0.6c0,0.8,0.1,1.4,0.4,1.9c0.3,0.4,0.7,0.7,1.2,0.7c0.5,0,0.9-0.2,1.2-0.6s0.4-1.1,0.4-1.9V31.2z"/>
	<path class="st0" d="M51.7,35.6v-8.3h3c1.1,0,1.9,0.2,2.4,0.6c0.6,0.4,0.8,1,0.8,1.7c0,0.4-0.1,0.8-0.3,1.1
		c-0.2,0.3-0.5,0.5-0.9,0.7c0.4,0.1,0.8,0.3,1,0.6c0.2,0.3,0.3,0.7,0.3,1.1c0,0.8-0.3,1.4-0.8,1.8c-0.5,0.4-1.3,0.6-2.3,0.6H51.7z
		 M53.7,30.8h1c0.4,0,0.8-0.1,0.9-0.2s0.3-0.4,0.3-0.7c0-0.4-0.1-0.6-0.3-0.8c-0.2-0.2-0.5-0.2-1-0.2h-1V30.8z M53.7,32.1v2H55
		c0.4,0,0.6-0.1,0.8-0.2s0.3-0.4,0.3-0.7c0-0.7-0.3-1-1-1H53.7z"/>
	<path class="st0" d="M63.6,33.3c0-0.3-0.1-0.5-0.3-0.7c-0.2-0.2-0.6-0.3-1.1-0.5c-0.5-0.2-1-0.3-1.3-0.5c-1.1-0.5-1.6-1.3-1.6-2.2
		c0-0.5,0.1-0.9,0.4-1.2s0.7-0.6,1.1-0.8c0.5-0.2,1-0.3,1.7-0.3c0.6,0,1.1,0.1,1.6,0.3s0.8,0.5,1.1,0.9s0.4,0.8,0.4,1.4h-2
		c0-0.3-0.1-0.6-0.3-0.8s-0.5-0.3-0.8-0.3c-0.4,0-0.6,0.1-0.9,0.2c-0.2,0.2-0.3,0.4-0.3,0.6c0,0.2,0.1,0.4,0.3,0.6s0.6,0.4,1.2,0.5
		c0.6,0.2,1,0.4,1.4,0.6c0.9,0.5,1.4,1.2,1.4,2.1c0,0.7-0.3,1.3-0.8,1.7c-0.5,0.4-1.3,0.6-2.3,0.6c-0.7,0-1.3-0.1-1.8-0.4
		c-0.5-0.2-1-0.6-1.2-1S59,33.3,59,32.8h2c0,0.4,0.1,0.8,0.3,1s0.6,0.3,1.1,0.3c0.3,0,0.6-0.1,0.8-0.2
		C63.5,33.7,63.6,33.5,63.6,33.3z"/>
	<path class="st0" d="M71.8,32.1h-3.2v2h3.7v1.5h-5.7v-8.3h5.8v1.6h-3.7v1.8h3.2V32.1z"/>
	<path class="st0" d="M76.3,32.7h-1.1v3h-2v-8.3h3.3c1,0,1.8,0.2,2.3,0.7c0.6,0.4,0.8,1.1,0.8,1.9c0,0.6-0.1,1.1-0.4,1.4
		c-0.2,0.4-0.6,0.7-1.1,0.9l1.7,3.4v0.1h-2.2L76.3,32.7z M75.2,31.1h1.3c0.4,0,0.7-0.1,0.9-0.3s0.3-0.5,0.3-0.8
		c0-0.4-0.1-0.6-0.3-0.8s-0.5-0.3-0.9-0.3h-1.3V31.1z"/>
	<path class="st0" d="M83.9,33.3l1.7-6.1h2.2L85,35.6h-2.2l-2.8-8.3h2.2L83.9,33.3z"/>
	<path class="st0" d="M92.8,34.1H90l-0.5,1.6h-2.1l3.1-8.3h1.9l3.1,8.3h-2.2L92.8,34.1z M90.5,32.5h1.8l-0.9-2.9L90.5,32.5z"/>
	<path class="st0" d="M101.9,28.8h-2.5v6.8h-2v-6.8h-2.5v-1.6h7V28.8z"/>
	<path class="st0" d="M109.6,31.5c0,0.8-0.2,1.5-0.5,2.2c-0.3,0.6-0.7,1.1-1.3,1.4s-1.2,0.5-1.9,0.5s-1.3-0.2-1.9-0.5
		c-0.6-0.3-1-0.8-1.3-1.4c-0.3-0.6-0.5-1.3-0.5-2.1v-0.5c0-0.8,0.1-1.5,0.4-2.2c0.3-0.6,0.7-1.1,1.3-1.4s1.2-0.5,1.9-0.5
		c0.7,0,1.3,0.2,1.9,0.5s1,0.8,1.3,1.4c0.3,0.6,0.5,1.3,0.5,2.1V31.5z M107.6,31.2c0-0.8-0.1-1.5-0.4-1.9s-0.7-0.6-1.2-0.6
		c-1,0-1.5,0.8-1.6,2.3l0,0.6c0,0.8,0.1,1.4,0.4,1.9c0.3,0.4,0.7,0.7,1.2,0.7c0.5,0,0.9-0.2,1.2-0.6s0.4-1.1,0.4-1.9V31.2z"/>
	<path class="st0" d="M113.8,32.7h-1.1v3h-2v-8.3h3.3c1,0,1.8,0.2,2.3,0.7c0.6,0.4,0.8,1.1,0.8,1.9c0,0.6-0.1,1.1-0.4,1.4
		c-0.2,0.4-0.6,0.7-1.1,0.9l1.7,3.4v0.1h-2.2L113.8,32.7z M112.7,31.1h1.3c0.4,0,0.7-0.1,0.9-0.3s0.3-0.5,0.3-0.8
		c0-0.4-0.1-0.6-0.3-0.8s-0.5-0.3-0.9-0.3h-1.3V31.1z"/>
	<path class="st0" d="M121.1,30.9l1.5-3.6h2.2l-2.7,5.3v3h-2v-3l-2.7-5.3h2.2L121.1,30.9z"/>
</g>
<path class="st0" d="M24.2,30.7c-6.9,1.3-9.3-2.7-9.7-8.4c0.3,3,1.8,5.2,5.5,4.7c6.7-1.2,10.4-8,10.2-13.1
	c-1.2,5.7-5.4,9.7-12.1,10.4c-0.4-0.6-0.5-2.6-0.5-3.8C17.5,14.1,28,8.3,30,5.3C38.3,12.2,33.5,26.9,24.2,30.7z"/>
<path class="st0" d="M2.7,8.8c0.6-0.9,1.2-1.8,2-2.7c5.9,4.1,9.3,8.6,11,12.4c1.8,5.4-0.9,13.7,8.4,12.3c-9.7,3-16.6-5.1-18.9-15
	c-0.6,10,5.5,16.2,15.2,19.9C2.8,35.6-4.4,20.3,2.7,8.8z"/>
<circle class="st0" cx="17.2" cy="4.4" r="4.4"/>
</svg>
