<svg width="202" height="49" viewBox="0 0 202 49" fill="none" xmlns="http://www.w3.org/2000/svg">
<g clip-path="url(#clip0_1078_53470)">
<path d="M4.00762 25.6346H12.7047L15.3912 20.8922C15.5092 20.6813 15.6814 20.5054 15.8902 20.3822C16.099 20.2591 16.337 20.1933 16.5798 20.1914C16.8261 20.1888 17.0685 20.2526 17.2812 20.376C17.4939 20.4994 17.6689 20.6778 17.7877 20.8922L22.001 28.2938L27.6541 12.9338C27.7497 12.6716 27.9244 12.4451 28.1545 12.2853C28.3845 12.1255 28.6586 12.0401 28.9394 12.041C29.2189 12.0394 29.4922 12.1233 29.7221 12.2813C29.952 12.4393 30.1274 12.6637 30.2246 12.9242L34.95 25.6154H47.3579C47.7895 24.873 48.189 24.1114 48.5562 23.3306C49.2324 21.8818 49.6758 20.3366 49.8704 18.7514C49.8901 18.6559 49.9192 18.5627 49.9574 18.473V14.5082C49.8136 13.5865 49.62 12.6732 49.3776 11.7722C47.6188 6.34817 43.995 2.96897 38.4868 2.02817C33.4618 1.16417 29.2582 2.90177 25.8567 6.82817L25.7214 7.02977C25.074 6.37697 24.4942 5.70497 23.8467 5.10977C16.2416 -1.61023 4.01728 2.47937 1.81401 12.5306C0.77561 16.9652 1.53583 21.6276 3.93031 25.5098L4.00762 25.6346Z" fill="white"/>
<path d="M33.9749 28.3515C33.6953 28.3531 33.422 28.2692 33.1921 28.1112C32.9622 27.9532 32.7868 27.7288 32.6896 27.4683L28.9305 17.3403L23.5287 31.9803C23.439 32.2231 23.2813 32.4353 23.0741 32.5919C22.8669 32.7484 22.6188 32.8427 22.3594 32.8635C22.0995 32.8827 21.8394 32.8289 21.6088 32.7084C21.3781 32.5879 21.1862 32.4055 21.0548 32.1819L16.5903 24.3387L14.7542 27.6123C14.6362 27.8253 14.4627 28.0027 14.2519 28.126C14.041 28.2493 13.8006 28.314 13.556 28.3131H5.8252C7.54973 30.6746 9.51187 32.8555 11.6813 34.8219C15.8815 38.6853 20.4515 42.1321 25.3261 45.1131C25.4289 45.1949 25.5567 45.2395 25.6884 45.2395C25.8202 45.2395 25.948 45.1949 26.0508 45.1131C32.1456 41.4161 37.7325 36.9501 42.672 31.8267C43.7225 30.7368 44.6914 29.5721 45.571 28.3419L33.9749 28.3515Z" fill="white"/>
<path d="M71.4006 11.5122V12.741H63.9404V1.83545H71.2557V3.06425H65.332V6.59705H70.4826V7.74905H65.332V11.5122H71.4006Z" fill="white"/>
<path d="M75.2273 12.8947C74.8603 12.9207 74.4924 12.8574 74.1556 12.7102C73.8188 12.5629 73.5233 12.3363 73.2946 12.0499C72.8108 11.303 72.5837 10.4206 72.6472 9.5347V4.7347H74.0097V9.2659C74.0097 10.9043 74.5831 11.7235 75.7298 11.7235C76.2952 11.7194 76.8442 11.5342 77.2953 11.1955C77.7951 10.8297 78.175 10.3254 78.3873 9.7459V4.7251H79.7498V11.0803C79.7498 11.4003 79.8948 11.5635 80.1847 11.5699V12.7411H79.8174H79.5662C79.318 12.7504 79.0758 12.6645 78.8898 12.5011C78.8018 12.4279 78.7305 12.337 78.6806 12.2344C78.6306 12.1318 78.6031 12.0198 78.5998 11.9059V10.9459C78.262 11.5291 77.771 12.0103 77.1793 12.3379C76.5889 12.6901 75.9158 12.8821 75.2273 12.8947Z" fill="white"/>
<path d="M86.2342 5.90669C85.6087 5.91928 84.998 6.0983 84.4658 6.42509C83.955 6.74374 83.5669 7.22391 83.3642 7.78829V12.7323H81.9727V4.72589H83.2386V6.57869C83.4961 6.05202 83.8732 5.59194 84.3402 5.23469C84.7568 4.90685 85.2605 4.70669 85.7897 4.65869H86.0506H86.2342V5.90669Z" fill="white"/>
<path d="M90.8048 12.8955C90.2613 12.8962 89.7234 12.7857 89.2247 12.571C88.7259 12.3563 88.277 12.042 87.9058 11.6475C87.5325 11.2695 87.2371 10.8228 87.0361 10.3323C86.8408 9.82692 86.7425 9.28968 86.7462 8.74834C86.743 8.20303 86.8447 7.66214 87.0458 7.15474C87.2367 6.66527 87.5186 6.21586 87.8768 5.82994C88.2551 5.43371 88.7107 5.11816 89.2158 4.90253C89.7208 4.68689 90.2648 4.57568 90.8145 4.57568C91.3642 4.57568 91.9082 4.68689 92.4133 4.90253C92.9183 5.11816 93.3739 5.43371 93.7522 5.82994C94.1104 6.21586 94.3923 6.66527 94.5833 7.15474C94.7843 7.66214 94.886 8.20303 94.8828 8.74834C94.8863 9.28966 94.7879 9.82686 94.5929 10.3323C94.4044 10.8248 94.1194 11.2752 93.7545 11.6575C93.3896 12.0398 92.952 12.3464 92.467 12.5595C91.9437 12.7891 91.3768 12.9037 90.8048 12.8955ZM88.1281 8.76754C88.1231 9.16385 88.1919 9.55767 88.331 9.92914C88.4581 10.2821 88.6515 10.6079 88.9011 10.8891C89.1393 11.1545 89.4284 11.3699 89.7515 11.5227C90.0782 11.6745 90.4345 11.7531 90.7952 11.7531C91.1558 11.7531 91.5121 11.6745 91.8388 11.5227C92.1649 11.3701 92.4572 11.1548 92.6989 10.8891C92.9517 10.6086 93.1485 10.2828 93.2787 9.92914C93.421 9.55492 93.493 9.15796 93.4913 8.75794C93.4927 8.36106 93.4207 7.9673 93.2787 7.59634C93.1483 7.24278 92.9515 6.91701 92.6989 6.63634C92.4572 6.37071 92.1649 6.15536 91.8388 6.00274C91.5128 5.84884 91.1561 5.77008 90.7952 5.77234C90.4333 5.77104 90.076 5.85319 89.7515 6.01234C89.4285 6.16951 89.1396 6.38803 88.9011 6.65554C88.6532 6.93794 88.4599 7.26339 88.331 7.61554C88.1954 7.9813 88.1267 8.36817 88.1281 8.75794V8.76754Z" fill="white"/>
<path d="M100.816 12.8952C100.191 12.9077 99.5763 12.7375 99.0479 12.4056C98.5491 12.0902 98.132 11.6627 97.8303 11.1576V16.0056H96.4678V4.7256H97.6757V6.22319C98.0029 5.73062 98.4434 5.32256 98.9609 5.0328C99.4602 4.73473 100.031 4.57557 100.613 4.572C101.142 4.56607 101.664 4.68104 102.14 4.908C102.604 5.14387 103.015 5.47041 103.348 5.868C103.691 6.25835 103.959 6.70722 104.141 7.1928C104.332 7.69254 104.43 8.22282 104.43 8.75759C104.435 9.30905 104.347 9.85739 104.17 10.38C104.008 10.8642 103.755 11.3137 103.425 11.7048C103.11 12.0763 102.722 12.3801 102.285 12.5976C101.826 12.8093 101.323 12.9112 100.816 12.8952ZM100.401 11.724C100.78 11.7315 101.155 11.6458 101.493 11.4744C101.813 11.3088 102.096 11.0801 102.324 10.8024C102.557 10.5166 102.737 10.1914 102.855 9.84239C102.978 9.48704 103.04 9.11396 103.039 8.7384C103.039 7.96673 102.753 7.22199 102.237 6.6456C101.992 6.37681 101.697 6.15829 101.367 6.0024C101.026 5.8416 100.653 5.75955 100.275 5.7624C100.014 5.76467 99.7555 5.81345 99.5118 5.9064C99.2486 6.00306 98.9986 6.13206 98.7677 6.2904C98.5393 6.44685 98.3372 6.63798 98.1685 6.8568C98.0072 7.06275 97.8948 7.30234 97.84 7.5576V9.83279C97.9531 10.0994 98.0992 10.3509 98.2748 10.5816C98.4455 10.8069 98.6471 11.0073 98.874 11.1768C99.0953 11.3444 99.3393 11.4801 99.5987 11.58C99.855 11.6763 100.127 11.7251 100.401 11.724Z" fill="white"/>
<path d="M109.648 12.8946C109.074 12.9026 108.505 12.7914 107.976 12.5682C107.488 12.3572 107.047 12.0502 106.681 11.6658C106.318 11.2822 106.032 10.8323 105.841 10.341C105.64 9.83025 105.538 9.28624 105.541 8.73784C105.538 8.19253 105.64 7.65164 105.841 7.14424C106.142 6.3754 106.676 5.7177 107.367 5.26074C108.059 4.80378 108.876 4.56978 109.706 4.59064C110.518 4.5755 111.315 4.81118 111.987 5.26514C112.658 5.7191 113.171 6.36897 113.455 7.12504C113.647 7.6181 113.745 8.1421 113.745 8.67064C113.745 8.78584 113.745 8.88184 113.745 8.97784C113.75 9.04817 113.75 9.11871 113.745 9.18904H107.049C107.074 9.56777 107.169 9.93868 107.329 10.2834C107.474 10.5994 107.677 10.8858 107.928 11.1282C108.172 11.3632 108.457 11.552 108.769 11.685C109.074 11.8151 109.403 11.8836 109.735 11.8866C109.98 11.888 110.224 11.8557 110.46 11.7906C110.692 11.7269 110.915 11.6367 111.127 11.5218C111.33 11.4125 111.516 11.2734 111.677 11.109C111.836 10.9495 111.961 10.7602 112.045 10.5522L113.224 10.8786C113.087 11.1793 112.901 11.4552 112.673 11.6946C112.437 11.9425 112.167 12.1558 111.871 12.3282C111.568 12.5097 111.243 12.6516 110.904 12.7506C110.495 12.8596 110.072 12.9081 109.648 12.8946ZM112.412 8.19064C112.384 7.82346 112.286 7.46499 112.122 7.13464C111.974 6.82553 111.771 6.54576 111.523 6.30904C111.139 5.95825 110.663 5.72252 110.15 5.62909C109.637 5.53566 109.108 5.58834 108.624 5.78104C108.312 5.90536 108.026 6.08784 107.783 6.31864C107.536 6.55487 107.336 6.8349 107.194 7.14424C107.041 7.47414 106.949 7.82856 106.923 8.19064H112.412Z" fill="white"/>
<path d="M117.254 12.8956C116.89 12.8983 116.53 12.8332 116.191 12.7036C115.872 12.5843 115.58 12.405 115.331 12.1756C115.091 11.9528 114.897 11.6853 114.76 11.3884C114.622 11.0868 114.55 10.7597 114.548 10.4284C114.552 10.0929 114.638 9.76349 114.799 9.4684C114.971 9.15846 115.212 8.89227 115.505 8.6908C115.835 8.4629 116.2 8.29097 116.587 8.182C117.033 8.05607 117.495 7.99464 117.959 7.9996C118.358 7.99994 118.755 8.03528 119.148 8.1052C119.511 8.16566 119.867 8.26214 120.211 8.3932V7.6732C120.226 7.39139 120.185 7.1093 120.089 6.84376C119.992 6.57822 119.843 6.33466 119.65 6.1276C119.443 5.9265 119.196 5.7699 118.925 5.66752C118.654 5.56513 118.365 5.51914 118.075 5.5324C117.139 5.57935 116.24 5.91489 115.505 6.4924L115.06 5.6188C115.976 4.96253 117.071 4.59768 118.201 4.5724C119.108 4.51682 120.001 4.82056 120.684 5.4172C120.991 5.73064 121.229 6.10432 121.382 6.51431C121.535 6.92429 121.6 7.36153 121.573 7.798V11.0716C121.573 11.3916 121.718 11.5548 122.008 11.5612V12.7324H121.65H121.361C121.243 12.7371 121.127 12.7183 121.017 12.6771C120.907 12.6359 120.807 12.573 120.723 12.4924C120.562 12.3393 120.46 12.1358 120.433 11.9164V11.35C120.077 11.8253 119.605 12.2021 119.061 12.4444C118.5 12.7275 117.882 12.8817 117.254 12.8956ZM117.611 11.878C118.076 11.882 118.537 11.7905 118.964 11.6092C119.346 11.4651 119.68 11.2193 119.93 10.8988C120.097 10.754 120.201 10.5512 120.22 10.3324V9.1132C119.565 8.85786 118.866 8.72758 118.162 8.7292C117.577 8.70305 116.997 8.85366 116.5 9.1612C116.305 9.27754 116.143 9.44222 116.032 9.63911C115.92 9.83599 115.861 10.0583 115.862 10.2844C115.861 10.5028 115.907 10.7188 115.997 10.918C116.082 11.1114 116.207 11.2848 116.365 11.4268C116.529 11.5723 116.719 11.6862 116.925 11.7628C117.145 11.8421 117.377 11.8811 117.611 11.878Z" fill="white"/>
<path d="M130.657 12.7414H129.304V8.25817C129.361 7.59357 129.224 6.92659 128.907 6.33817C128.776 6.14523 128.597 5.98968 128.387 5.88696C128.177 5.78423 127.943 5.7379 127.709 5.75257C127.424 5.75493 127.142 5.81029 126.878 5.91577C126.595 6.02603 126.328 6.17463 126.086 6.35737C125.837 6.5444 125.619 6.76773 125.438 7.01977C125.254 7.27686 125.114 7.56226 125.023 7.86457V12.6646H123.66V4.72537H124.897V6.44377C125.222 5.87402 125.701 5.40537 126.279 5.09017C126.869 4.75882 127.534 4.58361 128.212 4.58137C128.613 4.56586 129.012 4.65174 129.371 4.83097C129.68 4.99639 129.937 5.24195 130.115 5.54137C130.311 5.86977 130.446 6.23085 130.512 6.60697C130.591 7.0473 130.63 7.49398 130.628 7.94137L130.657 12.7414Z" fill="white"/>
<path d="M63.2061 23.2051C63.2126 22.5502 63.3302 21.9011 63.5539 21.2851C63.7825 20.6442 64.13 20.0516 64.5783 19.5379C65.0355 19.016 65.5943 18.5915 66.2211 18.2899C66.9114 17.962 67.6689 17.7977 68.434 17.8099C69.3213 17.7853 70.197 18.0153 70.9562 18.4723C71.6332 18.884 72.1766 19.4805 72.5216 20.1907L71.4393 20.8915C71.2901 20.5691 71.0876 20.2738 70.8402 20.0179C70.6199 19.7915 70.3657 19.6004 70.0864 19.4515C69.8217 19.3113 69.5388 19.208 69.2457 19.1443C68.9664 19.0828 68.6814 19.0506 68.3953 19.0483C67.8343 19.037 67.2795 19.1657 66.7815 19.4227C66.3261 19.6584 65.9247 19.9853 65.6026 20.3827C65.2829 20.7902 65.0405 21.2521 64.8875 21.7459C64.7292 22.2395 64.6477 22.7542 64.6459 23.2723C64.645 23.829 64.7431 24.3815 64.9358 24.9043C65.1165 25.4047 65.3847 25.8694 65.7282 26.2771C66.0616 26.6747 66.4725 27.0012 66.9362 27.2371C67.4059 27.4747 67.9262 27.5965 68.4533 27.5923C68.7528 27.5914 69.0511 27.556 69.3424 27.4867C69.6475 27.4138 69.9405 27.2974 70.2121 27.1411C70.4985 26.9782 70.7618 26.7781 70.9948 26.5459C71.2461 26.2968 71.4492 26.0039 71.5939 25.6819L72.7536 26.3155C72.5817 26.7209 72.3323 27.0893 72.0191 27.4003C71.7045 27.7118 71.3465 27.9769 70.9562 28.1875C70.5595 28.4018 70.1375 28.5663 69.6999 28.6771C69.2772 28.7882 68.8422 28.8463 68.405 28.8499C67.6857 28.8576 66.9755 28.6894 66.337 28.3603C65.7152 28.0386 65.1609 27.602 64.7039 27.0739C63.7795 26.004 63.2661 24.6437 63.2544 23.2339L63.2061 23.2051Z" fill="white"/>
<path d="M74.0869 17.522H75.4495V26.6516C75.441 26.7785 75.458 26.9058 75.4995 27.0261C75.5409 27.1464 75.6061 27.2573 75.691 27.3524C75.7796 27.4391 75.8857 27.5063 76.0023 27.5493C76.1189 27.5923 76.2434 27.6103 76.3675 27.602C76.5045 27.5981 76.6407 27.5787 76.7734 27.5444C76.9212 27.5095 77.0665 27.4646 77.2082 27.41L77.4208 28.5044C77.1614 28.6062 76.8928 28.6833 76.6187 28.7348C76.3488 28.7935 76.0736 28.8257 75.7973 28.8308C75.5704 28.8437 75.3431 28.8112 75.129 28.7354C74.9149 28.6595 74.7183 28.5418 74.5508 28.3892C74.3932 28.223 74.2717 28.0266 74.1936 27.8119C74.1154 27.5973 74.0824 27.369 74.0966 27.1412L74.0869 17.522Z" fill="white"/>
<path d="M78.4941 19.2116V17.522H79.8567V19.2116H78.4941ZM78.4941 28.7348V20.7188H79.8567V28.7348H78.4941Z" fill="white"/>
<path d="M94.1289 28.7351H92.7373V24.2519C92.7858 23.6052 92.6449 22.9584 92.3315 22.3895C92.1979 22.1939 92.0154 22.0362 91.8019 21.9319C91.5885 21.8275 91.3514 21.7801 91.1139 21.7943C90.5594 21.796 90.0267 22.0091 89.6257 22.3895C89.1653 22.7977 88.8303 23.3268 88.6594 23.9159V28.7159H87.3645V24.2519C87.4221 23.5862 87.2809 22.9183 86.9586 22.3319C86.8254 22.1389 86.6441 21.9835 86.4324 21.8808C86.2207 21.7782 85.9858 21.7318 85.7507 21.7463C85.1996 21.7466 84.6686 21.9521 84.2625 22.3223C83.7966 22.7259 83.4605 23.2567 83.2961 23.8487V28.6487H81.9336V20.7191H83.1705V22.4375C83.4735 21.875 83.9201 21.4016 84.4654 21.0647C85.0005 20.741 85.6171 20.5745 86.2435 20.5847C86.8323 20.5539 87.4103 20.7499 87.8573 21.1319C88.2568 21.5015 88.5162 21.9964 88.5917 22.5335C88.8654 21.9549 89.3003 21.4665 89.845 21.1262C90.3897 20.7858 91.0213 20.6079 91.6647 20.6135C92.0693 20.5988 92.4712 20.6846 92.834 20.8631C93.1458 21.0271 93.4065 21.2728 93.5877 21.5735C93.7849 21.9023 93.9222 22.263 93.9936 22.6391C94.0809 23.0689 94.1262 23.5062 94.1289 23.9447V28.7351Z" fill="white"/>
<path d="M98.2263 28.8887C97.863 28.8914 97.5024 28.8263 97.1633 28.6967C96.845 28.5774 96.553 28.3981 96.3032 28.1687C96.0632 27.9459 95.8695 27.6784 95.7331 27.3815C95.595 27.08 95.5225 26.7528 95.5205 26.4215C95.5248 26.086 95.6111 25.7566 95.7718 25.4615C95.9434 25.1518 96.1849 24.8856 96.4772 24.6839C96.8072 24.456 97.1729 24.2841 97.5595 24.1751C98.0057 24.0492 98.4679 23.9878 98.9317 23.9927C99.3303 23.9926 99.7281 24.0279 100.12 24.0983C100.483 24.1585 100.84 24.255 101.183 24.3863V23.7431C101.212 23.4582 101.177 23.1704 101.08 22.9009C100.982 22.6313 100.826 22.3868 100.621 22.1852C100.416 21.9837 100.169 21.8301 99.8964 21.7359C99.6242 21.6417 99.3342 21.6092 99.0477 21.6407C98.1113 21.6877 97.2128 22.0232 96.4772 22.6007L96.0617 21.6215C96.9779 20.9652 98.073 20.6004 99.2023 20.5751C100.11 20.5206 101.002 20.8242 101.686 21.4199C101.993 21.7333 102.23 22.107 102.383 22.517C102.537 22.927 102.602 23.3642 102.575 23.8007V27.0743C102.575 27.3943 102.72 27.5575 103.01 27.5639V28.7351H102.652H102.362C102.245 28.7399 102.128 28.721 102.019 28.6798C101.909 28.6386 101.809 28.5757 101.724 28.4951C101.564 28.342 101.462 28.1385 101.435 27.9191V27.3527C101.079 27.828 100.606 28.2048 100.062 28.4471C99.4921 28.7311 98.8641 28.8821 98.2263 28.8887ZM98.5838 27.8711C99.0447 27.8768 99.5018 27.7886 99.927 27.6119C100.309 27.4678 100.643 27.222 100.893 26.9015C100.979 26.8264 101.049 26.7351 101.099 26.6329C101.148 26.5307 101.177 26.4197 101.183 26.3063V25.1159C100.528 24.8606 99.8293 24.7303 99.125 24.7319C98.5397 24.7058 97.9602 24.8564 97.4629 25.1639C97.2678 25.2803 97.1064 25.4449 96.9946 25.6418C96.8828 25.8387 96.8244 26.0611 96.8251 26.2871C96.824 26.5055 96.8702 26.7216 96.9604 26.9207C97.0453 27.1141 97.1705 27.2875 97.3276 27.4295C97.4919 27.575 97.6819 27.6889 97.8881 27.7655C98.1109 27.846 98.3468 27.885 98.5838 27.8807V27.8711Z" fill="white"/>
<path d="M108.624 28.3418L108.295 28.4858L107.841 28.6586C107.658 28.7169 107.471 28.7618 107.281 28.793C107.074 28.8307 106.863 28.8499 106.653 28.8506C106.191 28.8626 105.738 28.7206 105.367 28.4474C105.181 28.2951 105.035 28.1003 104.94 27.8797C104.846 27.6591 104.807 27.4191 104.826 27.1802V21.7754H103.725V20.7194H104.826V18.0122H106.189V20.681H107.996V21.737H106.189V26.7098C106.187 26.8315 106.212 26.9522 106.262 27.0633C106.312 27.1744 106.386 27.2733 106.479 27.353C106.655 27.4892 106.874 27.5605 107.097 27.5546C107.348 27.5577 107.598 27.512 107.832 27.4202C107.988 27.362 108.14 27.2914 108.286 27.209L108.624 28.3418Z" fill="white"/>
<path d="M113.156 28.8889C112.596 28.8946 112.04 28.7868 111.523 28.5721C111.035 28.3611 110.594 28.0542 110.228 27.6697C109.865 27.2861 109.579 26.8362 109.388 26.3449C109.187 25.8342 109.085 25.2901 109.088 24.7417C109.085 24.1964 109.186 23.6555 109.388 23.1481C109.689 22.3793 110.222 21.7216 110.914 21.2646C111.606 20.8077 112.422 20.5737 113.253 20.5945C113.796 20.5927 114.333 20.7016 114.832 20.9146C115.331 21.1277 115.78 21.4402 116.152 21.8329C116.505 22.2119 116.781 22.6553 116.964 23.1385C117.155 23.6317 117.253 24.1556 117.254 24.6841C117.254 24.7993 117.254 24.8953 117.254 24.9913C117.258 25.0617 117.258 25.1322 117.254 25.2025H110.557C110.582 25.5813 110.677 25.9522 110.837 26.2969C110.982 26.613 111.185 26.8995 111.436 27.1417C111.68 27.3768 111.965 27.5655 112.277 27.6985C112.582 27.8286 112.911 27.8971 113.243 27.9001C113.488 27.9015 113.732 27.8692 113.968 27.8041C114.2 27.7404 114.424 27.6502 114.635 27.5353C114.838 27.426 115.024 27.2869 115.186 27.1225C115.344 26.963 115.469 26.7737 115.553 26.5657L116.732 26.8921C116.595 27.1928 116.409 27.4687 116.181 27.7081C115.945 27.956 115.675 28.1694 115.379 28.3417C115.076 28.5232 114.752 28.6651 114.413 28.7641C114.002 28.8666 113.579 28.9087 113.156 28.8889ZM115.92 24.1849C115.892 23.8178 115.794 23.4593 115.63 23.1289C115.481 22.8206 115.278 22.541 115.031 22.3033C114.647 21.9526 114.171 21.7168 113.658 21.6234C113.145 21.53 112.616 21.5826 112.132 21.7753C111.82 21.8999 111.535 22.0823 111.291 22.3129C111.045 22.5493 110.845 22.8293 110.702 23.1385C110.549 23.4685 110.458 23.8229 110.431 24.1849H115.92Z" fill="white"/>
<path d="M124.704 28.8886C124.341 28.8913 123.98 28.8262 123.641 28.6966C123.323 28.5773 123.031 28.398 122.781 28.1686C122.541 27.9457 122.347 27.6783 122.211 27.3814C122.073 27.0798 122 26.7527 121.998 26.4214C122.002 26.0859 122.089 25.7565 122.249 25.4614C122.421 25.1516 122.662 24.8855 122.955 24.6838C123.285 24.4559 123.65 24.2839 124.037 24.175C124.483 24.049 124.945 23.9876 125.409 23.9926C125.808 23.9925 126.206 24.0278 126.598 24.0982C126.961 24.1584 127.317 24.2549 127.661 24.3862V23.743C127.69 23.4581 127.655 23.1703 127.557 22.9007C127.46 22.6312 127.303 22.3867 127.098 22.1851C126.894 21.9835 126.646 21.83 126.374 21.7358C126.102 21.6416 125.812 21.609 125.525 21.6406C124.589 21.6875 123.69 22.0231 122.955 22.6006L122.51 21.727C123.426 21.0707 124.522 20.7059 125.651 20.6806C126.558 20.6261 127.451 20.9297 128.134 21.5254C128.423 21.8238 128.649 22.1759 128.8 22.5614C128.951 22.9469 129.023 23.3582 129.014 23.7718V27.0454C129.014 27.3654 129.159 27.5286 129.449 27.535V28.7062H129.091H128.801C128.684 28.7109 128.567 28.6921 128.458 28.6509C128.348 28.6096 128.248 28.5468 128.163 28.4662C128.003 28.3131 127.9 28.1096 127.873 27.8902V27.3238C127.518 27.7991 127.045 28.1759 126.501 28.4182C125.945 28.7066 125.331 28.8673 124.704 28.8886ZM125.061 27.871C125.526 27.8749 125.987 27.7834 126.414 27.6022C126.796 27.4581 127.13 27.2123 127.381 26.8918C127.466 26.8167 127.536 26.7254 127.586 26.6232C127.636 26.521 127.664 26.4099 127.671 26.2966V25.1158C127.015 24.8604 126.316 24.7302 125.612 24.7318C125.027 24.7056 124.447 24.8562 123.95 25.1638C123.755 25.2801 123.594 25.4448 123.482 25.6417C123.37 25.8386 123.312 26.0609 123.312 26.287C123.311 26.5054 123.357 26.7214 123.448 26.9206C123.533 27.114 123.658 27.2874 123.815 27.4294C123.979 27.5749 124.169 27.6888 124.375 27.7654C124.592 27.8436 124.821 27.8826 125.052 27.8806L125.061 27.871Z" fill="white"/>
<path d="M138.108 28.7356H136.745V24.2524C136.803 23.5878 136.665 22.9208 136.349 22.3324C136.218 22.1395 136.038 21.9839 135.828 21.8812C135.618 21.7785 135.384 21.7321 135.151 21.7468C134.866 21.7496 134.584 21.8049 134.319 21.91C134.036 22.0206 133.77 22.1692 133.527 22.3516C133.279 22.5385 133.06 22.7619 132.88 23.014C132.695 23.2705 132.554 23.5561 132.464 23.8588V28.6588H131.102V20.7196H132.338V22.438C132.673 21.8675 133.162 21.4019 133.749 21.094C134.339 20.7622 135.005 20.587 135.682 20.5852C136.084 20.5701 136.482 20.656 136.842 20.8348C137.15 21.0002 137.407 21.2458 137.586 21.5452C137.782 21.8736 137.916 22.2347 137.982 22.6108C138.062 23.0511 138.101 23.4978 138.098 23.9452L138.108 28.7356Z" fill="white"/>
<path d="M143.491 28.8884C142.956 28.8942 142.428 28.7793 141.944 28.5524C141.483 28.3345 141.069 28.0278 140.727 27.65C140.382 27.2609 140.114 26.8117 139.934 26.3252C139.742 25.8191 139.643 25.2823 139.645 24.7412C139.642 24.1954 139.734 23.6532 139.915 23.138C140.082 22.6542 140.338 22.2051 140.669 21.8132C140.989 21.4365 141.384 21.1293 141.829 20.9108C142.289 20.6894 142.795 20.5777 143.307 20.5844C143.925 20.5757 144.532 20.7531 145.046 21.0932C145.538 21.4096 145.953 21.829 146.264 22.322V17.522H147.627V27.122C147.627 27.442 147.772 27.6052 148.061 27.6116V28.7828H147.714H147.462C147.201 28.7858 146.949 28.6896 146.757 28.514C146.664 28.4381 146.589 28.3429 146.537 28.2351C146.486 28.1272 146.458 28.0094 146.457 27.89V27.218C146.148 27.7228 145.714 28.1405 145.197 28.4313C144.679 28.722 144.095 28.8761 143.5 28.8788L143.491 28.8884ZM143.819 27.7172C144.08 27.716 144.338 27.6705 144.583 27.5828C144.848 27.4903 145.098 27.361 145.327 27.1988C145.554 27.0375 145.756 26.8434 145.926 26.6228C146.088 26.4172 146.2 26.1774 146.254 25.922V23.618C146.158 23.3535 146.017 23.107 145.839 22.8884C145.657 22.6633 145.446 22.4631 145.211 22.2932C144.983 22.1253 144.732 21.9896 144.467 21.89C144.217 21.7956 143.951 21.7468 143.684 21.746C143.305 21.7393 142.93 21.825 142.592 21.9956C142.272 22.1619 141.99 22.3904 141.761 22.6676C141.527 22.9534 141.347 23.2785 141.229 23.6276C141.107 23.9863 141.045 24.3625 141.046 24.7412C141.043 25.1319 141.115 25.5196 141.258 25.8836C141.392 26.2378 141.592 26.5636 141.848 26.8436C142.094 27.1082 142.389 27.3233 142.718 27.4772C143.061 27.6427 143.438 27.7281 143.819 27.7268V27.7172Z" fill="white"/>
<path d="M162.845 17.8296V28.7352H161.454V23.772H155.414V28.7352H154.042V17.8296H155.434V22.5432H161.473V17.8296H162.845Z" fill="white"/>
<path d="M168.779 28.8888C168.205 28.8967 167.635 28.7855 167.107 28.5624C166.619 28.3513 166.178 28.0444 165.812 27.66C165.449 27.2763 165.163 26.8265 164.972 26.3352C164.771 25.8244 164.669 25.2804 164.672 24.732C164.669 24.1867 164.77 23.6458 164.972 23.1384C165.273 22.3695 165.806 21.7118 166.498 21.2549C167.19 20.7979 168.006 20.5639 168.837 20.5848C169.38 20.5829 169.917 20.6918 170.416 20.9049C170.915 21.1179 171.364 21.4305 171.736 21.8232C172.089 22.2022 172.365 22.6455 172.548 23.1288C172.739 23.6219 172.837 24.1459 172.838 24.6744C172.838 24.7896 172.838 24.8856 172.838 24.9816C172.842 25.0519 172.842 25.1224 172.838 25.1928H166.141C166.166 25.5715 166.261 25.9424 166.421 26.2872C166.566 26.6032 166.769 26.8897 167.02 27.132C167.264 27.367 167.549 27.5557 167.861 27.6888C168.166 27.8188 168.495 27.8873 168.827 27.8904C169.072 27.8917 169.316 27.8594 169.552 27.7944C169.784 27.7306 170.008 27.6404 170.219 27.5256C170.422 27.4163 170.608 27.2771 170.77 27.1128C170.928 26.9532 171.053 26.7639 171.137 26.556L172.316 26.8824C172.179 27.1831 171.993 27.4589 171.765 27.6984C171.529 27.9463 171.259 28.1596 170.963 28.332C170.66 28.5134 170.336 28.6554 169.997 28.7544C169.599 28.8564 169.189 28.9017 168.779 28.8888ZM171.543 24.1848C171.515 23.8176 171.416 23.4591 171.253 23.1288C171.104 22.8204 170.901 22.5409 170.654 22.3032C170.27 21.9524 169.794 21.7167 169.281 21.6232C168.768 21.5298 168.239 21.5825 167.755 21.7752C167.443 21.8997 167.157 22.0822 166.914 22.3128C166.667 22.5492 166.467 22.8292 166.324 23.1384C166.172 23.4683 166.08 23.8227 166.054 24.1848H171.543Z" fill="white"/>
<path d="M176.394 28.8892C176.031 28.8919 175.67 28.8268 175.331 28.6972C175.013 28.5779 174.721 28.3986 174.471 28.1692C174.231 27.9464 174.037 27.6789 173.901 27.382C173.763 27.0804 173.69 26.7533 173.688 26.422C173.693 26.0865 173.779 25.7571 173.94 25.462C174.111 25.1523 174.353 24.8861 174.645 24.6844C174.975 24.4565 175.341 24.2846 175.727 24.1756C176.174 24.0497 176.636 23.9882 177.1 23.9932C177.498 23.9931 177.896 24.0284 178.288 24.0988C178.651 24.159 179.008 24.2555 179.351 24.3868V23.7436C179.393 23.4545 179.367 23.1599 179.276 22.8822C179.186 22.6044 179.033 22.3508 178.829 22.1407C178.625 21.9306 178.375 21.7695 178.099 21.6696C177.823 21.5698 177.527 21.5338 177.235 21.5644C176.299 21.6114 175.4 21.9469 174.664 22.5244L174.22 21.6508C175.136 20.9945 176.231 20.6297 177.361 20.6044C178.268 20.5499 179.161 20.8535 179.844 21.4492C180.151 21.7626 180.389 22.1363 180.542 22.5463C180.695 22.9563 180.76 23.3935 180.733 23.83V27.1036C180.733 27.4236 180.878 27.5868 181.168 27.5932V28.7644H180.81H180.521C180.403 28.7691 180.287 28.7503 180.177 28.7091C180.067 28.6679 179.967 28.605 179.883 28.5244C179.722 28.3713 179.62 28.1678 179.593 27.9484V27.382C179.237 27.874 178.757 28.2646 178.201 28.5148C177.634 28.7714 177.017 28.8993 176.394 28.8892ZM176.752 27.8716C177.217 27.8756 177.677 27.7841 178.105 27.6028C178.486 27.4587 178.821 27.2129 179.071 26.8924C179.157 26.8173 179.226 26.726 179.276 26.6238C179.326 26.5216 179.355 26.4106 179.361 26.2972V25.1164C178.705 24.8611 178.007 24.7308 177.303 24.7324C176.717 24.7063 176.138 24.8569 175.64 25.1644C175.445 25.2807 175.284 25.4454 175.172 25.6423C175.06 25.8392 175.002 26.0615 175.003 26.2876C175.002 26.506 175.048 26.722 175.138 26.9212C175.223 27.1146 175.348 27.288 175.505 27.43C175.669 27.5755 175.86 27.6894 176.066 27.766C176.285 27.8453 176.518 27.8843 176.752 27.8812V27.8716Z" fill="white"/>
<path d="M182.762 17.522H184.124V26.6516C184.116 26.7785 184.133 26.9058 184.174 27.0261C184.216 27.1464 184.281 27.2573 184.366 27.3524C184.454 27.4391 184.56 27.5063 184.677 27.5493C184.794 27.5923 184.918 27.6103 185.042 27.602C185.179 27.5981 185.315 27.5787 185.448 27.5444C185.596 27.5095 185.741 27.4646 185.883 27.41L186.096 28.5044C185.836 28.6062 185.568 28.6833 185.294 28.7348C185.024 28.7935 184.748 28.8257 184.472 28.8308C184.245 28.8437 184.018 28.8112 183.804 28.7354C183.59 28.6595 183.393 28.5418 183.226 28.3892C183.068 28.223 182.946 28.0266 182.868 27.8119C182.79 27.5973 182.757 27.369 182.771 27.1412L182.762 17.522Z" fill="white"/>
<path d="M191.054 28.3418L190.725 28.4858L190.271 28.6586C190.088 28.7169 189.9 28.7618 189.71 28.793C189.503 28.8307 189.293 28.8499 189.082 28.8506C188.621 28.8626 188.168 28.7206 187.797 28.4474C187.611 28.2951 187.464 28.1003 187.37 27.8797C187.276 27.6591 187.237 27.4191 187.256 27.1802V21.7754H186.154V20.7194H187.256V18.0122H188.618V20.681H190.426V21.737H188.618V26.7098C188.617 26.8315 188.642 26.9522 188.692 27.0633C188.742 27.1744 188.816 27.2733 188.908 27.353C189.085 27.4892 189.303 27.5605 189.527 27.5546C189.778 27.5577 190.028 27.512 190.261 27.4202C190.418 27.362 190.57 27.2914 190.715 27.209L191.054 28.3418Z" fill="white"/>
<path d="M199.238 28.7348H197.876V24.2516C197.922 23.6046 197.77 22.9589 197.441 22.3988C197.298 22.2003 197.107 22.0408 196.886 21.9351C196.665 21.8294 196.42 21.7808 196.175 21.794C195.9 21.7967 195.627 21.8521 195.373 21.9572C195.102 22.0672 194.848 22.2159 194.619 22.3988C194.382 22.5891 194.174 22.8122 194.001 23.0612C193.82 23.3189 193.683 23.6043 193.595 23.906V28.706H192.232V17.522H193.595V22.4372C193.896 21.8755 194.343 21.4046 194.89 21.074C195.432 20.7482 196.054 20.5787 196.687 20.5844C197.105 20.5707 197.52 20.6598 197.895 20.8436C198.216 21.0089 198.489 21.2535 198.688 21.554C198.895 21.8797 199.039 22.2411 199.113 22.6196C199.204 23.0554 199.249 23.4993 199.248 23.9444L199.238 28.7348Z" fill="white"/>
<path d="M68.3953 44.8155C67.6658 44.8244 66.9443 44.6633 66.2887 44.3451C65.666 44.0415 65.1107 43.6172 64.6556 43.0971C64.1977 42.5744 63.8407 41.9723 63.6023 41.3211C63.3494 40.6715 63.2152 39.9823 63.2061 39.2859C63.2156 38.5743 63.3599 37.8709 63.6312 37.2123C63.8847 36.5627 64.2547 35.9643 64.7232 35.4459C65.1846 34.9359 65.7429 34.5216 66.366 34.2267C67.0119 33.9222 67.7191 33.7679 68.434 33.7755C69.165 33.7636 69.8879 33.9283 70.5406 34.2555C71.159 34.5699 71.7103 35.0002 72.1641 35.5227C73.0846 36.5927 73.5886 37.9551 73.5846 39.3627C73.584 40.7798 73.0576 42.147 72.1061 43.2027C71.6445 43.71 71.0861 44.1211 70.4633 44.4123C69.8135 44.7003 69.1065 44.8381 68.3953 44.8155ZM64.6363 39.2859C64.6352 39.8316 64.7266 40.3736 64.9068 40.8891C65.0766 41.3884 65.3352 41.8533 65.6702 42.2619C65.9945 42.6609 66.3994 42.988 66.8588 43.2219C67.3379 43.4622 67.8683 43.5841 68.405 43.5771C68.951 43.5819 69.4895 43.4498 69.9705 43.1931C70.4237 42.954 70.8245 42.6277 71.1494 42.2331C71.4843 41.8153 71.7397 41.3403 71.9032 40.8315C72.0704 40.3299 72.1552 39.8047 72.1544 39.2763C72.1614 38.7317 72.0764 38.1898 71.9032 37.6731C71.7322 37.1753 71.4701 36.7132 71.1301 36.3099C70.8023 35.9143 70.3982 35.5879 69.9415 35.3499C69.4595 35.1122 68.9286 34.9885 68.3905 34.9885C67.8524 34.9885 67.3215 35.1122 66.8395 35.3499C66.3853 35.5875 65.9842 35.914 65.6606 36.3099C65.3301 36.7164 65.0749 37.178 64.9068 37.6731C64.7245 38.1914 64.6329 38.7369 64.6363 39.2859Z" fill="white"/>
<path d="M79.4602 44.8923C78.8418 44.9072 78.2319 44.7474 77.7014 44.4315C77.2016 44.138 76.7832 43.7256 76.4838 43.2315V44.7387H75.3242V33.5259H76.6868V38.3259C77.0102 37.8222 77.4385 37.3934 77.943 37.0683C78.4269 36.7792 78.9765 36.6162 79.5407 36.5944C80.1049 36.5725 80.6656 36.6926 81.1706 36.9435C81.6126 37.1829 82.0007 37.5096 82.3109 37.9035C82.6319 38.301 82.8775 38.7531 83.0357 39.2379C83.2034 39.7394 83.2882 40.2646 83.2869 40.7931C83.2909 41.3376 83.1926 41.878 82.997 42.3867C82.8135 42.8704 82.5416 43.3163 82.1949 43.7019C81.8523 44.0763 81.4385 44.3797 80.9773 44.5947C80.5003 44.8051 79.9819 44.9068 79.4602 44.8923ZM79.122 43.7211C79.5067 43.7232 79.8868 43.6378 80.2333 43.4715C80.5677 43.3108 80.8666 43.0856 81.1126 42.8091C81.3613 42.5272 81.5547 42.2016 81.6828 41.8491C81.818 41.4932 81.8868 41.1158 81.8857 40.7355C81.8869 40.3497 81.8215 39.9665 81.6924 39.6027C81.5715 39.253 81.3882 38.9278 81.1513 38.6427C80.9216 38.3664 80.6391 38.138 80.3202 37.9707C79.9886 37.8016 79.6203 37.7159 79.2476 37.7211C78.9664 37.7195 78.6876 37.7716 78.4262 37.8747C78.1704 37.976 77.9298 38.1117 77.7111 38.2779C77.488 38.4484 77.2897 38.6487 77.1216 38.8731C76.9502 39.0981 76.8014 39.3393 76.6771 39.5931V41.9163C76.7282 42.1757 76.8408 42.4192 77.0057 42.6267C77.1759 42.8412 77.3779 43.029 77.6048 43.1835C77.835 43.3406 78.0852 43.4665 78.3489 43.5579C78.5951 43.6566 78.8567 43.7118 79.122 43.7211Z" fill="white"/>
<path d="M87.6353 44.8917C86.9793 44.8937 86.3271 44.7932 85.7026 44.5941C85.1096 44.4146 84.558 44.1211 84.0791 43.7301L84.6686 42.8277C85.1007 43.1628 85.5791 43.4344 86.0891 43.6341C86.5675 43.8143 87.0753 43.9054 87.5869 43.9029C88.0782 43.9287 88.5661 43.8083 88.9881 43.5573C89.1514 43.4559 89.2853 43.3141 89.3768 43.1458C89.4682 42.9775 89.5141 42.7885 89.51 42.5973C89.5166 42.4211 89.4694 42.2471 89.3747 42.0981C89.2679 41.9449 89.1253 41.8197 88.9592 41.7333C88.7321 41.614 88.4922 41.5206 88.2441 41.4549L87.2777 41.1957C86.7945 41.0741 86.3758 40.9557 86.0215 40.8405C85.7139 40.7475 85.4211 40.6117 85.1517 40.4373C84.9401 40.299 84.7699 40.1067 84.6589 39.8805C84.5484 39.6296 84.4956 39.3574 84.5043 39.0837C84.4984 38.7145 84.5813 38.3492 84.7459 38.0181C84.9011 37.709 85.126 37.4396 85.403 37.2309C85.6927 37.0133 86.0203 36.8506 86.3693 36.7509C86.7654 36.6396 87.1754 36.5847 87.5869 36.5877C88.1667 36.5815 88.7428 36.6791 89.2877 36.8757C89.7761 37.0478 90.2282 37.3082 90.6213 37.6437L90.0028 38.4597C89.6696 38.1651 89.2825 37.937 88.8625 37.7877C88.4467 37.6412 88.0088 37.5665 87.5676 37.5669C87.1274 37.5548 86.6925 37.6645 86.3114 37.8837C86.1475 37.9844 86.013 38.126 85.9214 38.2945C85.8299 38.4629 85.7844 38.6523 85.7895 38.8437C85.7828 39.0029 85.816 39.1612 85.8862 39.3045C85.9639 39.4409 86.0774 39.5537 86.2147 39.6309C86.4032 39.7385 86.6045 39.8223 86.8139 39.8805L87.6836 40.1109C88.2183 40.2325 88.6854 40.3573 89.0848 40.4853C89.4254 40.593 89.7503 40.7447 90.0511 40.9365C90.2952 41.0903 90.4976 41.3013 90.6406 41.5509C90.7774 41.8181 90.8439 42.1153 90.8339 42.4149C90.8455 42.7603 90.7724 43.1033 90.6209 43.4143C90.4694 43.7254 90.244 43.9952 89.9642 44.2005C89.287 44.6821 88.4674 44.9253 87.6353 44.8917Z" fill="white"/>
<path d="M95.9453 44.8915C95.3712 44.8995 94.8018 44.7883 94.2735 44.5651C93.7851 44.3541 93.3446 44.0471 92.9786 43.6627C92.615 43.2791 92.3296 42.8292 92.1379 42.3379C91.9369 41.8271 91.8353 41.2831 91.8383 40.7347C91.8308 40.1868 91.9292 39.6426 92.1282 39.1315C92.43 38.3627 92.9631 37.705 93.6548 37.248C94.3465 36.7911 95.1632 36.5571 95.9936 36.5779C96.5364 36.5761 97.0739 36.685 97.5726 36.898C98.0713 37.1111 98.5206 37.4236 98.8926 37.8163C99.2456 38.1953 99.5213 38.6387 99.7043 39.1219C99.8958 39.6151 99.994 40.139 99.9943 40.6675C99.9943 40.7827 99.9943 40.8787 99.9943 40.9747C99.9987 41.0451 99.9987 41.1156 99.9943 41.1859H93.2685C93.2939 41.5647 93.3889 41.9356 93.5487 42.2803C93.694 42.5964 93.8972 42.8829 94.1479 43.1251C94.3916 43.3601 94.6765 43.5489 94.9886 43.6819C95.2941 43.812 95.6226 43.8805 95.9549 43.8835C96.1998 43.8849 96.4437 43.8526 96.6797 43.7875C96.9116 43.7238 97.1354 43.6336 97.3465 43.5187C97.5499 43.4094 97.7356 43.2703 97.8973 43.1059C98.0556 42.9464 98.1805 42.7571 98.2645 42.5491L99.4434 42.8755C99.3071 43.1762 99.1209 43.4521 98.8926 43.6915C98.6568 43.9394 98.3868 44.1527 98.0906 44.3251C97.788 44.5066 97.4632 44.6485 97.1242 44.7475C96.7398 44.8492 96.343 44.8977 95.9453 44.8915ZM98.709 40.1875C98.6812 39.8204 98.5828 39.4619 98.4191 39.1315C98.2703 38.8232 98.0674 38.5436 97.82 38.3059C97.4361 37.9552 96.9602 37.7194 96.4472 37.626C95.9342 37.5326 95.4051 37.5852 94.9209 37.7779C94.6089 37.9025 94.3235 38.0849 94.0802 38.3155C93.8337 38.5519 93.6338 38.8319 93.4907 39.1411C93.3383 39.471 93.2466 39.8255 93.2202 40.1875H98.709Z" fill="white"/>
<path d="M105.725 37.903C105.09 37.9108 104.469 38.09 103.928 38.4213C103.417 38.74 103.029 39.2202 102.826 39.7846V44.7286H101.464V36.7222H102.73V38.5846C102.987 38.0579 103.364 37.5978 103.831 37.2405C104.248 36.9127 104.752 36.7126 105.281 36.6646H105.542H105.725V37.903Z" fill="white"/>
<path d="M109.716 44.7382L106.527 36.7222H107.938L110.489 43.5574L113.06 36.7222H114.355L111.166 44.7382H109.716Z" fill="white"/>
<path d="M117.573 44.8915C117.21 44.8942 116.849 44.8291 116.51 44.6995C116.192 44.5802 115.9 44.4009 115.65 44.1715C115.41 43.9487 115.216 43.6812 115.08 43.3843C114.942 43.0827 114.869 42.7556 114.867 42.4243C114.872 42.0888 114.958 41.7594 115.118 41.4643C115.29 41.1546 115.532 40.8884 115.824 40.6867C116.154 40.4588 116.52 40.2869 116.906 40.1779C117.352 40.052 117.815 39.9905 118.278 39.9955C118.677 39.9954 119.075 40.0307 119.467 40.1011C119.83 40.1613 120.186 40.2578 120.53 40.3891V39.7459C120.559 39.461 120.524 39.1732 120.426 38.9037C120.329 38.6341 120.172 38.3896 119.968 38.188C119.763 37.9864 119.515 37.8329 119.243 37.7387C118.971 37.6445 118.681 37.612 118.394 37.6435C117.458 37.6905 116.56 38.026 115.824 38.6035L115.379 37.7299C116.296 37.0736 117.391 36.7088 118.52 36.6835C119.428 36.629 120.32 36.9326 121.003 37.5283C121.31 37.8417 121.548 38.2154 121.701 38.6254C121.854 39.0354 121.919 39.4726 121.893 39.9091V43.1827C121.893 43.5027 122.037 43.6659 122.327 43.6723V44.8435H121.97H121.68C121.563 44.8482 121.446 44.8294 121.336 44.7882C121.227 44.7469 121.127 44.6841 121.042 44.6035C120.882 44.4504 120.779 44.2469 120.752 44.0275V43.4611C120.396 43.9364 119.924 44.3132 119.38 44.5555C118.81 44.7989 118.193 44.9136 117.573 44.8915ZM117.931 43.8739C118.395 43.8779 118.856 43.7864 119.283 43.6051C119.665 43.461 119.999 43.2152 120.25 42.8947C120.335 42.8196 120.405 42.7283 120.455 42.6261C120.505 42.5239 120.534 42.4129 120.54 42.2995V41.1091C119.884 40.8538 119.186 40.7235 118.481 40.7251C117.896 40.699 117.317 40.8496 116.819 41.1571C116.624 41.2734 116.463 41.4381 116.351 41.635C116.239 41.8319 116.181 42.0542 116.181 42.2803C116.18 42.4987 116.227 42.7147 116.317 42.9139C116.402 43.1073 116.527 43.2807 116.684 43.4227C116.848 43.5682 117.038 43.6821 117.244 43.7587C117.464 43.838 117.697 43.877 117.931 43.8739Z" fill="white"/>
<path d="M127.952 44.3356L127.623 44.4796L127.169 44.6524C126.986 44.7107 126.798 44.7556 126.609 44.7868C126.401 44.8245 126.191 44.8438 125.981 44.8444C125.519 44.8564 125.066 44.7144 124.695 44.4412C124.509 44.2889 124.363 44.0942 124.268 43.8735C124.174 43.6529 124.135 43.4129 124.154 43.174V37.7788H123.12V36.7228H124.222V34.0444H125.584V36.7132H127.391V37.7692H125.536V42.742C125.534 42.8638 125.559 42.9844 125.609 43.0955C125.659 43.2066 125.733 43.3055 125.826 43.3852C126.002 43.5215 126.221 43.5927 126.444 43.5868C126.696 43.5899 126.945 43.5442 127.179 43.4524C127.336 43.3942 127.488 43.3236 127.633 43.2412L127.952 44.3356Z" fill="white"/>
<path d="M132.455 44.8915C131.911 44.8922 131.373 44.7817 130.875 44.567C130.376 44.3523 129.927 44.038 129.556 43.6435C129.195 43.2593 128.913 42.8095 128.725 42.3187C128.529 41.8133 128.431 41.2761 128.435 40.7347C128.431 40.1894 128.533 39.6485 128.734 39.1411C128.925 38.6517 129.207 38.2023 129.565 37.8163C129.929 37.4334 130.366 37.1266 130.851 36.9139C131.367 36.6856 131.928 36.571 132.493 36.5779C133.037 36.5795 133.574 36.691 134.072 36.9056C134.571 37.1201 135.02 37.4333 135.392 37.8259C135.751 38.2119 136.032 38.6613 136.223 39.1507C136.425 39.6581 136.526 40.199 136.523 40.7443C136.526 41.2857 136.428 41.8229 136.233 42.3283C136.045 42.8208 135.76 43.2712 135.395 43.6535C135.03 44.0358 134.592 44.3424 134.107 44.5555C133.587 44.7838 133.023 44.8984 132.455 44.8915ZM129.778 40.7635C129.775 41.1637 129.847 41.5609 129.99 41.9347C130.117 42.2878 130.311 42.6137 130.561 42.8947C130.799 43.1601 131.088 43.3755 131.411 43.5283C131.738 43.6801 132.094 43.7587 132.455 43.7587C132.815 43.7587 133.172 43.6801 133.498 43.5283C133.824 43.3757 134.117 43.1604 134.358 42.8947C134.611 42.6141 134.808 42.2883 134.938 41.9347C135.08 41.5605 135.152 41.1635 135.151 40.7635C135.152 40.3667 135.08 39.9729 134.938 39.6019C134.808 39.2484 134.611 38.9226 134.358 38.6419C134.116 38.3767 133.824 38.1614 133.498 38.0083C133.172 37.8544 132.816 37.7757 132.455 37.7779C132.093 37.7766 131.736 37.8588 131.411 38.0179C131.088 38.1753 130.799 38.3938 130.561 38.6611C130.313 38.9435 130.119 39.269 129.99 39.6211C129.853 39.9833 129.781 40.3668 129.778 40.7539V40.7635Z" fill="white"/>
<path d="M142.389 37.9034C141.753 37.9113 141.132 38.0905 140.591 38.4218C140.08 38.7405 139.692 39.2206 139.49 39.785V44.729H138.127V36.7226H139.393V38.585C139.652 38.0459 140.036 37.5754 140.514 37.2122C140.93 36.8844 141.434 36.6842 141.963 36.6362H142.224H142.408L142.389 37.9034Z" fill="white"/>
<path d="M144.379 46.9173H144.785H145.094C145.209 46.9181 145.323 46.8883 145.423 46.8309C145.545 46.7473 145.644 46.6352 145.712 46.5045C145.837 46.2847 145.947 46.057 146.041 45.8229C146.163 45.5285 146.318 45.1477 146.505 44.6805L143.084 36.6646H144.495L147.278 43.5189L149.781 36.7126H151.143L147.181 46.8117C147.03 47.1878 146.784 47.5185 146.466 47.7717C146.066 48.061 145.578 48.2036 145.084 48.1749H144.794L144.427 48.1173L144.379 46.9173Z" fill="white"/>
</g>
<defs>
<clipPath id="clip0_1078_53470">
<rect width="201" height="48" fill="white" transform="translate(0.393555 0.731934)"/>
</clipPath>
</defs>
</svg>
