<svg width="207" height="56" viewBox="0 0 207 56" fill="none" xmlns="http://www.w3.org/2000/svg">
<g filter="url(#filter0_d_273_8448)">
<path d="M7.61406 24.9026H16.3112L18.9976 20.1602C19.1156 19.9494 19.2878 19.7734 19.4966 19.6503C19.7054 19.5272 19.9434 19.4613 20.1862 19.4594C20.4325 19.4569 20.6749 19.5207 20.8876 19.6441C21.1003 19.7675 21.2754 19.9459 21.3942 20.1602L25.6074 27.5618L31.2606 12.2018C31.3561 11.9396 31.5309 11.7131 31.7609 11.5533C31.991 11.3935 32.2651 11.3082 32.5458 11.309C32.8254 11.3075 33.0986 11.3914 33.3285 11.5494C33.5585 11.7074 33.7339 11.9318 33.831 12.1922L38.5565 24.8834H50.9644C51.396 24.141 51.7954 23.3794 52.1626 22.5986C52.8388 21.1498 53.2823 19.6047 53.4769 18.0194C53.4965 17.924 53.5257 17.8308 53.5638 17.741V13.7762C53.42 12.8546 53.2265 11.9413 52.984 11.0402C51.2253 5.61623 47.6015 2.23703 42.0933 1.29623C37.0683 0.432233 32.8647 2.16983 29.4632 6.09623L29.3279 6.29783C28.6804 5.64503 28.1006 4.97303 27.4531 4.37783C19.848 -2.34217 7.62373 1.74743 5.42046 11.7986C4.38206 16.2332 5.14228 20.8957 7.53675 24.7778L7.61406 24.9026Z" fill="white"/>
<path d="M37.5813 27.6196C37.3017 27.6212 37.0285 27.5372 36.7986 27.3792C36.5686 27.2212 36.3932 26.9968 36.2961 26.7364L32.537 16.6084L27.1351 31.2484C27.0455 31.4912 26.8877 31.7034 26.6805 31.8599C26.4733 32.0165 26.2253 32.1107 25.9658 32.1316C25.7059 32.1507 25.4459 32.097 25.2152 31.9765C24.9846 31.856 24.7926 31.6736 24.6613 31.45L20.1967 23.6068L18.3607 26.8804C18.2427 27.0933 18.0692 27.2708 17.8583 27.3941C17.6475 27.5174 17.4071 27.582 17.1624 27.5812H9.43164C11.1562 29.9427 13.1183 32.1235 15.2877 34.09C19.488 37.9534 24.0579 41.4002 28.9325 44.3812C29.0353 44.463 29.1632 44.5076 29.2949 44.5076C29.4266 44.5076 29.5544 44.463 29.6573 44.3812C35.752 40.6841 41.3389 36.2182 46.2784 31.0948C47.3289 30.0049 48.2979 28.8402 49.1775 27.61L37.5813 27.6196Z" fill="white"/>
<path d="M75.0071 10.7803V12.0091H67.5469V1.10352H74.8621V2.33232H68.9384V5.86512H74.089V7.01712H68.9384V10.7803H75.0071Z" fill="white"/>
<path d="M78.8338 12.1628C78.4667 12.1888 78.0989 12.1254 77.7621 11.9782C77.4253 11.831 77.1297 11.6044 76.9011 11.318C76.4173 10.5711 76.1901 9.68864 76.2536 8.80276V4.00276H77.6162V8.53396C77.6162 10.1724 78.1895 10.9916 79.3363 10.9916C79.9017 10.9874 80.4507 10.8023 80.9017 10.4636C81.4015 10.0978 81.7814 9.59349 81.9937 9.01396V3.99316H83.3562V10.3484C83.3562 10.6684 83.5012 10.8316 83.7911 10.838V12.0092H83.4239H83.1726C82.9245 12.0185 82.6823 11.9325 82.4962 11.7692C82.4083 11.6959 82.337 11.605 82.287 11.5024C82.237 11.3998 82.2095 11.2879 82.2063 11.174V10.214C81.8684 10.7972 81.3774 11.2783 80.7858 11.606C80.1954 11.9581 79.5223 12.1501 78.8338 12.1628Z" fill="white"/>
<path d="M89.8407 5.17476C89.2152 5.18734 88.6045 5.36636 88.0723 5.69316C87.5614 6.01181 87.1734 6.49198 86.9706 7.05636V12.0004H85.5791V3.99396H86.845V5.84676C87.1026 5.32009 87.4797 4.86001 87.9466 4.50276C88.3632 4.17492 88.8669 3.97476 89.3962 3.92676H89.6571H89.8407V5.17476Z" fill="white"/>
<path d="M94.4113 12.1636C93.8677 12.1643 93.3299 12.0538 92.8311 11.8391C92.3324 11.6244 91.8835 11.3101 91.5122 10.9156C91.139 10.5376 90.8436 10.0908 90.6425 9.6004C90.4473 9.09499 90.349 8.55774 90.3526 8.0164C90.3494 7.4711 90.4511 6.9302 90.6522 6.4228C90.8431 5.93334 91.1251 5.48392 91.4833 5.098C91.8616 4.70177 92.3171 4.38623 92.8222 4.17059C93.3273 3.95496 93.8712 3.84375 94.4209 3.84375C94.9707 3.84375 95.5146 3.95496 96.0197 4.17059C96.5248 4.38623 96.9803 4.70177 97.3586 5.098C97.7168 5.48392 97.9988 5.93334 98.1897 6.4228C98.3908 6.9302 98.4925 7.4711 98.4893 8.0164C98.4927 8.55772 98.3944 9.09493 98.1994 9.6004C98.0108 10.0928 97.7259 10.5433 97.3609 10.9256C96.996 11.3079 96.5584 11.6145 96.0734 11.8276C95.5502 12.0572 94.9832 12.1718 94.4113 12.1636ZM91.7345 8.0356C91.7295 8.43192 91.7983 8.82573 91.9374 9.1972C92.0645 9.55022 92.258 9.876 92.5076 10.1572C92.7457 10.4226 93.0349 10.638 93.358 10.7908C93.6847 10.9426 94.041 11.0212 94.4016 11.0212C94.7623 11.0212 95.1186 10.9426 95.4453 10.7908C95.7713 10.6382 96.0636 10.4228 96.3053 10.1572C96.5582 9.87666 96.755 9.55086 96.8851 9.1972C97.0274 8.82299 97.0995 8.42603 97.0977 8.026C97.0992 7.62912 97.0271 7.23537 96.8851 6.8644C96.7547 6.51084 96.558 6.18508 96.3053 5.9044C96.0636 5.63878 95.7713 5.42342 95.4453 5.2708C95.1193 5.11691 94.7625 5.03815 94.4016 5.0404C94.0397 5.0391 93.6825 5.12126 93.358 5.2804C93.035 5.43758 92.746 5.65609 92.5076 5.9236C92.2597 6.206 92.0664 6.53146 91.9374 6.8836C91.8019 7.24936 91.7332 7.63624 91.7345 8.026V8.0356Z" fill="white"/>
<path d="M104.423 12.1633C103.798 12.1758 103.183 12.0055 102.654 11.6737C102.156 11.3583 101.738 10.9308 101.437 10.4257V15.2737H100.074V3.99366H101.282V5.49126C101.609 4.99869 102.05 4.59062 102.567 4.30086C103.067 4.0028 103.637 3.84364 104.22 3.84006C104.748 3.83414 105.27 3.94911 105.747 4.17606C106.21 4.41194 106.621 4.73847 106.955 5.13606C107.297 5.52642 107.566 5.97529 107.747 6.46086C107.939 6.96061 108.037 7.49089 108.037 8.02566C108.041 8.57712 107.953 9.12546 107.776 9.64806C107.614 10.1323 107.362 10.5817 107.032 10.9729C106.717 11.3444 106.329 11.6482 105.892 11.8657C105.432 12.0773 104.929 12.1792 104.423 12.1633ZM104.007 10.9921C104.386 10.9996 104.762 10.9138 105.099 10.7425C105.419 10.5768 105.702 10.3482 105.93 10.0705C106.164 9.78468 106.344 9.45951 106.462 9.11046C106.584 8.75511 106.646 8.38203 106.645 8.00646C106.645 7.23479 106.36 6.49006 105.843 5.91366C105.598 5.64488 105.303 5.42636 104.974 5.27046C104.632 5.10966 104.259 5.02761 103.882 5.03046C103.621 5.03274 103.362 5.08151 103.118 5.17446C102.855 5.27112 102.605 5.40012 102.374 5.55846C102.146 5.71492 101.944 5.90605 101.775 6.12486C101.614 6.33081 101.501 6.57041 101.446 6.82566V9.10086C101.56 9.36742 101.706 9.61896 101.881 9.84966C102.052 10.075 102.254 10.2754 102.48 10.4449C102.702 10.6125 102.946 10.7482 103.205 10.8481C103.461 10.9443 103.733 10.9931 104.007 10.9921Z" fill="white"/>
<path d="M113.255 12.1627C112.68 12.1706 112.111 12.0595 111.583 11.8363C111.094 11.6253 110.654 11.3183 110.288 10.9339C109.924 10.5502 109.639 10.1004 109.447 9.6091C109.246 9.09831 109.145 8.55431 109.148 8.0059C109.144 7.4606 109.246 6.91971 109.447 6.4123C109.749 5.64347 110.282 4.98576 110.974 4.5288C111.665 4.07184 112.482 3.83785 113.312 3.8587C114.125 3.84357 114.922 4.07924 115.593 4.53321C116.265 4.98717 116.778 5.63704 117.062 6.3931C117.254 6.88617 117.352 7.41016 117.352 7.9387C117.352 8.0539 117.352 8.1499 117.352 8.2459C117.356 8.31623 117.356 8.38677 117.352 8.4571H110.655C110.68 8.83584 110.775 9.20675 110.935 9.5515C111.081 9.86745 111.284 10.1539 111.534 10.3963C111.778 10.6313 112.063 10.82 112.375 10.9531C112.681 11.0831 113.009 11.1517 113.341 11.1547C113.586 11.156 113.83 11.1237 114.066 11.0587C114.298 10.9949 114.522 10.9047 114.733 10.7899C114.936 10.6806 115.122 10.5414 115.284 10.3771C115.442 10.2175 115.567 10.0283 115.651 9.8203L116.83 10.1467C116.694 10.4474 116.507 10.7232 116.279 10.9627C116.043 11.2106 115.773 11.4239 115.477 11.5963C115.175 11.7777 114.85 11.9197 114.511 12.0187C114.101 12.1277 113.678 12.1762 113.255 12.1627ZM116.018 7.4587C115.99 7.09153 115.892 6.73306 115.728 6.4027C115.581 6.0936 115.378 5.81382 115.129 5.5771C114.745 5.22632 114.269 4.99059 113.756 4.89716C113.243 4.80372 112.714 4.8564 112.23 5.0491C111.918 5.17343 111.633 5.3559 111.389 5.5867C111.143 5.82294 110.943 6.10296 110.8 6.4123C110.647 6.74221 110.556 7.09663 110.529 7.4587H116.018Z" fill="white"/>
<path d="M120.86 12.1637C120.497 12.1664 120.136 12.1013 119.797 11.9717C119.479 11.8524 119.187 11.6731 118.937 11.4437C118.697 11.2208 118.503 10.9534 118.367 10.6565C118.229 10.3549 118.156 10.0278 118.154 9.69646C118.159 9.36098 118.245 9.03156 118.406 8.73646C118.577 8.42652 118.818 8.16034 119.111 7.95886C119.441 7.73097 119.807 7.55904 120.193 7.45006C120.64 7.32414 121.102 7.26271 121.566 7.26766C121.964 7.26801 122.362 7.30334 122.754 7.37326C123.117 7.43373 123.473 7.53021 123.817 7.66126V6.94126C123.833 6.65945 123.791 6.37737 123.695 6.11182C123.599 5.84628 123.45 5.60272 123.257 5.39566C123.049 5.19457 122.802 5.03797 122.531 4.93559C122.26 4.8332 121.971 4.78721 121.681 4.80046C120.745 4.84742 119.847 5.18296 119.111 5.76046L118.666 4.88686C119.583 4.2306 120.678 3.86575 121.807 3.84046C122.715 3.78489 123.608 4.08863 124.291 4.68526C124.598 4.9987 124.835 5.37239 124.988 5.78237C125.141 6.19236 125.207 6.62959 125.18 7.06606V10.3397C125.18 10.6597 125.325 10.8229 125.614 10.8293V12.0005H125.257H124.967C124.85 12.0052 124.733 11.9864 124.623 11.9452C124.514 11.9039 124.414 11.8411 124.329 11.7605C124.169 11.6073 124.066 11.4039 124.039 11.1845V10.6181C123.684 11.0934 123.211 11.4701 122.667 11.7125C122.106 11.9956 121.489 12.1498 120.86 12.1637ZM121.218 11.1461C121.682 11.15 122.143 11.0585 122.57 10.8773C122.952 10.7331 123.287 10.4874 123.537 10.1669C123.703 10.0221 123.807 9.81927 123.827 9.60046V8.38126C123.171 8.12592 122.473 7.99565 121.768 7.99726C121.183 7.97112 120.604 8.12173 120.106 8.42926C119.911 8.54561 119.75 8.71029 119.638 8.90717C119.526 9.10406 119.468 9.32641 119.469 9.55246C119.467 9.77084 119.514 9.98691 119.604 10.1861C119.689 10.3795 119.814 10.5529 119.971 10.6949C120.135 10.8404 120.325 10.9543 120.532 11.0309C120.751 11.1102 120.984 11.1492 121.218 11.1461Z" fill="white"/>
<path d="M134.263 12.0094H132.91V7.52624C132.968 6.86163 132.83 6.19466 132.514 5.60624C132.383 5.4133 132.203 5.25775 131.993 5.15502C131.783 5.0523 131.549 5.00597 131.316 5.02064C131.031 5.023 130.749 5.07835 130.485 5.18384C130.201 5.2941 129.935 5.4427 129.692 5.62544C129.444 5.81246 129.226 6.0358 129.045 6.28784C128.861 6.54492 128.72 6.83033 128.629 7.13264V11.9326H127.267V3.99344H128.504V5.71184C128.829 5.14209 129.307 4.67344 129.885 4.35824C130.475 4.02689 131.141 3.85168 131.818 3.84944C132.22 3.83393 132.619 3.9198 132.978 4.09904C133.286 4.26446 133.543 4.51002 133.722 4.80944C133.918 5.13784 134.052 5.49891 134.118 5.87504C134.198 6.31537 134.237 6.76205 134.234 7.20944L134.263 12.0094Z" fill="white"/>
<path d="M66.8125 22.4731C66.819 21.8183 66.9366 21.1692 67.1604 20.5531C67.389 19.9123 67.7364 19.3197 68.1847 18.8059C68.6419 18.2841 69.2007 17.8596 69.8275 17.5579C70.5179 17.2301 71.2754 17.0658 72.0404 17.0779C72.9278 17.0534 73.8034 17.2834 74.5626 17.7403C75.2396 18.152 75.7831 18.7486 76.1281 19.4587L75.0458 20.1595C74.8966 19.8372 74.694 19.5419 74.4466 19.2859C74.2264 19.0596 73.9721 18.8685 73.6929 18.7195C73.4281 18.5794 73.1452 18.476 72.8522 18.4123C72.5729 18.3509 72.2878 18.3187 72.0018 18.3163C71.4408 18.305 70.8859 18.4338 70.388 18.6907C69.9325 18.9265 69.5311 19.2533 69.209 19.6507C68.8893 20.0582 68.647 20.5202 68.4939 21.0139C68.3357 21.5076 68.2542 22.0223 68.2524 22.5403C68.2514 23.0971 68.3496 23.6496 68.5423 24.1723C68.7229 24.6727 68.9912 25.1375 69.3347 25.5451C69.6681 25.9427 70.079 26.2693 70.5426 26.5051C71.0123 26.7427 71.5327 26.8646 72.0598 26.8603C72.3592 26.8595 72.6576 26.824 72.9488 26.7547C73.254 26.6819 73.5469 26.5655 73.8185 26.4091C74.105 26.2463 74.3682 26.0461 74.6013 25.8139C74.8525 25.5648 75.0556 25.272 75.2004 24.9499L76.36 25.5835C76.1882 25.989 75.9388 26.3574 75.6256 26.6683C75.3109 26.9799 74.953 27.245 74.5626 27.4555C74.1659 27.6699 73.7439 27.8344 73.3063 27.9451C72.8837 28.0563 72.4487 28.1144 72.0114 28.1179C71.2921 28.1256 70.582 27.9575 69.9435 27.6283C69.3216 27.3067 68.7673 26.8701 68.3103 26.3419C67.386 25.2721 66.8725 23.9118 66.8608 22.5019L66.8125 22.4731Z" fill="white"/>
<path d="M77.6934 16.79H79.0559V25.9196C79.0474 26.0465 79.0644 26.1738 79.1059 26.2941C79.1474 26.4144 79.2125 26.5253 79.2975 26.6204C79.3861 26.7072 79.4921 26.7743 79.6088 26.8173C79.7254 26.8604 79.8498 26.8783 79.9739 26.87C80.111 26.8661 80.2471 26.8468 80.3798 26.8124C80.5277 26.7775 80.6729 26.7326 80.8146 26.678L81.0272 27.7724C80.7678 27.8742 80.4993 27.9514 80.2252 28.0028C79.9552 28.0616 79.6801 28.0937 79.4038 28.0988C79.1768 28.1117 78.9496 28.0793 78.7355 28.0034C78.5214 27.9276 78.3247 27.8099 78.1572 27.6572C77.9997 27.4911 77.8781 27.2946 77.8 27.08C77.7219 26.8653 77.6889 26.6371 77.703 26.4092L77.6934 16.79Z" fill="white"/>
<path d="M82.1006 18.4796V16.79H83.4631V18.4796H82.1006ZM82.1006 28.0028V19.9868H83.4631V28.0028H82.1006Z" fill="white"/>
<path d="M97.7353 28.0032H96.3438V23.52C96.3923 22.8732 96.2513 22.2264 95.9379 21.6576C95.8043 21.462 95.6218 21.3043 95.4084 21.2C95.1949 21.0956 94.9578 21.0482 94.7203 21.0624C94.1658 21.0641 93.6332 21.2771 93.2322 21.6576C92.7717 22.0658 92.4368 22.5949 92.2658 23.184V27.984H90.9709V23.52C91.0286 22.8542 90.8874 22.1864 90.565 21.6C90.4318 21.4069 90.2505 21.2515 90.0388 21.1489C89.8271 21.0463 89.5922 20.9999 89.3571 21.0144C88.806 21.0147 88.275 21.2202 87.8689 21.5904C87.4031 21.9939 87.067 22.5248 86.9026 23.1168V27.9168H85.54V19.9872H86.777V21.7056C87.08 21.1431 87.5266 20.6697 88.0719 20.3328C88.607 20.009 89.2235 19.8426 89.8499 19.8528C90.4387 19.822 91.0168 20.018 91.4637 20.4C91.8633 20.7695 92.1226 21.2644 92.1982 21.8016C92.4718 21.223 92.9068 20.7346 93.4515 20.3942C93.9962 20.0539 94.6277 19.876 95.2711 19.8816C95.6757 19.8669 96.0776 19.9527 96.4404 20.1312C96.7522 20.2952 97.0129 20.5408 97.1942 20.8416C97.3913 21.1704 97.5287 21.5311 97.6 21.9072C97.6874 22.337 97.7327 22.7742 97.7353 23.2128V28.0032Z" fill="white"/>
<path d="M101.833 28.1568C101.469 28.1595 101.109 28.0944 100.77 27.9648C100.451 27.8455 100.159 27.6662 99.9097 27.4368C99.6697 27.2139 99.476 26.9465 99.3396 26.6496C99.2014 26.348 99.129 26.0209 99.127 25.6896C99.1313 25.3541 99.2175 25.0247 99.3782 24.7296C99.5499 24.4198 99.7913 24.1537 100.084 23.952C100.414 23.7241 100.779 23.5521 101.166 23.4432C101.612 23.3172 102.074 23.2558 102.538 23.2608C102.937 23.2607 103.335 23.296 103.727 23.3664C104.09 23.4266 104.446 23.5231 104.79 23.6544V23.0112C104.819 22.7263 104.783 22.4385 104.686 22.1689C104.589 21.8994 104.432 21.6549 104.227 21.4533C104.023 21.2517 103.775 21.0982 103.503 21.004C103.231 20.9098 102.941 20.8772 102.654 20.9088C101.718 20.9557 100.819 21.2913 100.084 21.8688L99.6681 20.8896C100.584 20.2333 101.679 19.8685 102.809 19.8432C103.716 19.7887 104.609 20.0923 105.292 20.688C105.599 21.0014 105.837 21.3751 105.99 21.7851C106.143 22.1951 106.208 22.6323 106.181 23.0688V26.3424C106.181 26.6624 106.326 26.8256 106.616 26.832V28.0032H106.259H105.969C105.852 28.0079 105.735 27.9891 105.625 27.9479C105.516 27.9066 105.415 27.8438 105.331 27.7632C105.17 27.6101 105.068 27.4066 105.041 27.1872V26.6208C104.685 27.0961 104.213 27.4729 103.669 27.7152C103.099 27.9992 102.471 28.1502 101.833 28.1568ZM102.19 27.1392C102.651 27.1449 103.108 27.0566 103.533 26.88C103.915 26.7359 104.25 26.4901 104.5 26.1696C104.586 26.0945 104.655 26.0032 104.705 25.901C104.755 25.7988 104.784 25.6877 104.79 25.5744V24.384C104.134 24.1286 103.436 23.9984 102.731 24C102.146 23.9738 101.567 24.1244 101.069 24.432C100.874 24.5483 100.713 24.713 100.601 24.9099C100.489 25.1068 100.431 25.3291 100.432 25.5552C100.43 25.7736 100.477 25.9896 100.567 26.1888C100.652 26.3822 100.777 26.5556 100.934 26.6976C101.098 26.8431 101.288 26.957 101.494 27.0336C101.717 27.114 101.953 27.1531 102.19 27.1488V27.1392Z" fill="white"/>
<path d="M112.23 27.6099L111.902 27.7539L111.448 27.9267C111.264 27.9849 111.077 28.0299 110.887 28.0611C110.68 28.0987 110.47 28.118 110.259 28.1187C109.797 28.1306 109.345 27.9887 108.974 27.7155C108.788 27.5632 108.641 27.3684 108.547 27.1478C108.453 26.9271 108.413 26.6872 108.433 26.4483V21.0435H107.331V19.9875H108.433V17.2803H109.795V19.9491H111.602V21.0051H109.795V25.9779C109.793 26.0996 109.818 26.2202 109.869 26.3313C109.919 26.4424 109.993 26.5413 110.085 26.6211C110.262 26.7573 110.48 26.8285 110.704 26.8227C110.955 26.8257 111.204 26.7801 111.438 26.6883C111.595 26.6301 111.747 26.5595 111.892 26.4771L112.23 27.6099Z" fill="white"/>
<path d="M116.763 28.157C116.202 28.1627 115.647 28.0549 115.13 27.8402C114.641 27.6292 114.201 27.3222 113.835 26.9378C113.471 26.5541 113.186 26.1043 112.994 25.613C112.793 25.1022 112.691 24.5582 112.694 24.0098C112.691 23.4645 112.793 22.9236 112.994 22.4162C113.296 21.6474 113.829 20.9897 114.521 20.5327C115.212 20.0757 116.029 19.8418 116.859 19.8626C117.402 19.8607 117.94 19.9697 118.438 20.1827C118.937 20.3957 119.386 20.7083 119.758 21.101C120.111 21.48 120.387 21.9234 120.57 22.4066C120.762 22.8997 120.86 23.4237 120.86 23.9522C120.86 24.0674 120.86 24.1634 120.86 24.2594C120.864 24.3297 120.864 24.4003 120.86 24.4706H114.163C114.189 24.8493 114.284 25.2203 114.443 25.565C114.589 25.8811 114.792 26.1675 115.043 26.4098C115.286 26.6448 115.571 26.8335 115.883 26.9666C116.189 27.0967 116.517 27.1652 116.85 27.1682C117.095 27.1695 117.338 27.1372 117.574 27.0722C117.806 27.0084 118.03 26.9182 118.241 26.8034C118.445 26.6941 118.63 26.5549 118.792 26.3906C118.95 26.231 119.075 26.0418 119.159 25.8338L120.338 26.1602C120.202 26.4609 120.016 26.7367 119.787 26.9762C119.552 27.2241 119.282 27.4374 118.985 27.6098C118.683 27.7912 118.358 27.9332 118.019 28.0322C117.609 28.1347 117.185 28.1768 116.763 28.157ZM119.526 23.453C119.499 23.0858 119.4 22.7274 119.237 22.397C119.088 22.0887 118.885 21.8091 118.637 21.5714C118.254 21.2206 117.778 20.9849 117.265 20.8915C116.752 20.798 116.223 20.8507 115.738 21.0434C115.426 21.1679 115.141 21.3504 114.898 21.581C114.651 21.8174 114.451 22.0974 114.308 22.4066C114.156 22.7365 114.064 23.0909 114.038 23.453H119.526Z" fill="white"/>
<path d="M128.31 28.1566C127.947 28.1594 127.586 28.0942 127.247 27.9646C126.929 27.8454 126.637 27.6661 126.387 27.4366C126.147 27.2138 125.954 26.9463 125.817 26.6494C125.679 26.3479 125.607 26.0207 125.604 25.6894C125.609 25.354 125.695 25.0245 125.856 24.7294C126.027 24.4197 126.269 24.1536 126.561 23.9518C126.891 23.7239 127.257 23.552 127.643 23.443C128.09 23.3171 128.552 23.2557 129.016 23.2606C129.414 23.2605 129.812 23.2959 130.204 23.3662C130.567 23.4264 130.924 23.5229 131.267 23.6542V23.011C131.296 22.7261 131.261 22.4384 131.164 22.1688C131.066 21.8992 130.91 21.6547 130.705 21.4532C130.5 21.2516 130.253 21.0981 129.98 21.0039C129.708 20.9096 129.418 20.8771 129.132 20.9086C128.195 20.9556 127.297 21.2911 126.561 21.8686L126.117 20.995C127.033 20.3388 128.128 19.9739 129.257 19.9486C130.165 19.8941 131.057 20.1977 131.741 20.7934C132.029 21.0919 132.255 21.4439 132.406 21.8295C132.557 22.215 132.63 22.6263 132.62 23.0398V26.3134C132.62 26.6334 132.765 26.7966 133.055 26.803V27.9742H132.697H132.408C132.29 27.979 132.174 27.9602 132.064 27.9189C131.954 27.8777 131.854 27.8149 131.77 27.7342C131.609 27.5811 131.507 27.3777 131.48 27.1582V26.5918C131.124 27.0671 130.652 27.4439 130.108 27.6862C129.551 27.9746 128.937 28.1354 128.31 28.1566ZM128.668 27.139C129.133 27.143 129.593 27.0515 130.021 26.8702C130.402 26.7261 130.737 26.4803 130.987 26.1598C131.073 26.0847 131.143 25.9934 131.192 25.8912C131.242 25.789 131.271 25.678 131.277 25.5646V24.3838C130.621 24.1285 129.923 23.9982 129.219 23.9998C128.633 23.9737 128.054 24.1243 127.557 24.4318C127.361 24.5482 127.2 24.7129 127.088 24.9098C126.976 25.1066 126.918 25.329 126.919 25.555C126.918 25.7734 126.964 25.9895 127.054 26.1886C127.139 26.382 127.264 26.5554 127.421 26.6974C127.586 26.8429 127.776 26.9569 127.982 27.0334C128.198 27.1116 128.428 27.1506 128.658 27.1486L128.668 27.139Z" fill="white"/>
<path d="M141.714 28.0037H140.351V23.5205C140.409 22.8559 140.272 22.1889 139.955 21.6005C139.824 21.4075 139.645 21.252 139.435 21.1492C139.224 21.0465 138.991 21.0002 138.757 21.0149C138.472 21.0177 138.19 21.073 137.926 21.1781C137.643 21.2886 137.376 21.4372 137.134 21.6197C136.885 21.8066 136.667 22.0299 136.486 22.2821C136.301 22.5386 136.161 22.8242 136.071 23.1269V27.9269H134.708V19.9877H135.945V21.7061C136.279 21.1356 136.768 20.6699 137.356 20.3621C137.945 20.0303 138.611 19.8551 139.288 19.8533C139.69 19.8382 140.089 19.924 140.448 20.1029C140.756 20.2683 141.014 20.5138 141.192 20.8133C141.388 21.1417 141.522 21.5027 141.588 21.8789C141.668 22.3192 141.707 22.7659 141.704 23.2133L141.714 28.0037Z" fill="white"/>
<path d="M147.097 28.1564C146.563 28.1622 146.034 28.0474 145.551 27.8204C145.089 27.6026 144.675 27.2959 144.333 26.918C143.989 26.529 143.72 26.0798 143.541 25.5932C143.348 25.0872 143.25 24.5504 143.251 24.0092C143.249 23.4634 143.34 22.9213 143.522 22.406C143.689 21.9222 143.944 21.4731 144.275 21.0812C144.595 20.7045 144.99 20.3974 145.435 20.1788C145.896 19.9575 146.402 19.8457 146.913 19.8524C147.532 19.8438 148.138 20.0211 148.653 20.3612C149.144 20.6776 149.56 21.0971 149.87 21.59V16.79H151.233V26.39C151.233 26.71 151.378 26.8732 151.668 26.8796V28.0508H151.32H151.069C150.808 28.0538 150.555 27.9577 150.363 27.782C150.27 27.7062 150.195 27.6109 150.144 27.5031C150.092 27.3953 150.065 27.2775 150.064 27.158V26.486C149.755 26.9909 149.321 27.4086 148.803 27.6994C148.285 27.9901 147.701 28.1442 147.107 28.1468L147.097 28.1564ZM147.426 26.9852C147.686 26.9841 147.944 26.9386 148.189 26.8508C148.454 26.7584 148.705 26.6291 148.933 26.4668C149.161 26.3056 149.363 26.1114 149.532 25.8908C149.694 25.6852 149.807 25.4455 149.861 25.19V22.886C149.764 22.6216 149.624 22.375 149.445 22.1564C149.263 21.9313 149.052 21.7312 148.817 21.5612C148.589 21.3933 148.339 21.2577 148.073 21.158C147.823 21.0636 147.558 21.0149 147.29 21.014C146.911 21.0073 146.536 21.093 146.198 21.2636C145.879 21.4299 145.596 21.6585 145.367 21.9356C145.134 22.2214 144.954 22.5466 144.836 22.8956C144.714 23.2543 144.652 23.6306 144.652 24.0092C144.65 24.4 144.722 24.7877 144.865 25.1516C144.998 25.5058 145.198 25.8316 145.454 26.1116C145.701 26.3763 145.996 26.5914 146.324 26.7452C146.667 26.9108 147.044 26.9962 147.426 26.9948V26.9852Z" fill="white"/>
<path d="M166.452 17.0977V28.0033H165.06V23.0401H159.021V28.0033H157.648V17.0977H159.04V21.8113H165.08V17.0977H166.452Z" fill="white"/>
<path d="M172.385 28.1568C171.811 28.1648 171.242 28.0536 170.714 27.8304C170.225 27.6194 169.785 27.3125 169.419 26.928C169.055 26.5444 168.77 26.0945 168.578 25.6032C168.377 25.0925 168.275 24.5484 168.278 24C168.275 23.4547 168.377 22.9138 168.578 22.4064C168.88 21.6376 169.413 20.9799 170.105 20.5229C170.796 20.066 171.613 19.832 172.443 19.8528C172.986 19.851 173.524 19.9599 174.022 20.1729C174.521 20.386 174.97 20.6985 175.342 21.0912C175.695 21.4702 175.971 21.9136 176.154 22.3968C176.346 22.89 176.444 23.4139 176.444 23.9424C176.444 24.0576 176.444 24.1536 176.444 24.2496C176.448 24.32 176.448 24.3905 176.444 24.4608H169.747C169.773 24.8396 169.868 25.2105 170.027 25.5552C170.173 25.8713 170.376 26.1578 170.627 26.4C170.87 26.6351 171.155 26.8238 171.467 26.9568C171.773 27.0869 172.101 27.1554 172.434 27.1584C172.679 27.1598 172.922 27.1275 173.158 27.0624C173.39 26.9987 173.614 26.9085 173.825 26.7936C174.029 26.6843 174.214 26.5452 174.376 26.3808C174.534 26.2213 174.659 26.032 174.743 25.824L175.922 26.1504C175.786 26.4511 175.6 26.727 175.371 26.9664C175.136 27.2143 174.866 27.4277 174.569 27.6C174.267 27.7815 173.942 27.9234 173.603 28.0224C173.206 28.1245 172.796 28.1697 172.385 28.1568ZM175.149 23.4528C175.121 23.0857 175.023 22.7272 174.859 22.3968C174.71 22.0885 174.508 21.8089 174.26 21.5712C173.876 21.2205 173.4 20.9847 172.887 20.8913C172.374 20.7979 171.845 20.8505 171.361 21.0432C171.049 21.1678 170.764 21.3502 170.52 21.5808C170.274 21.8172 170.074 22.0972 169.931 22.4064C169.778 22.7364 169.687 23.0908 169.66 23.4528H175.149Z" fill="white"/>
<path d="M180.001 28.1573C179.637 28.16 179.277 28.0949 178.938 27.9653C178.619 27.846 178.327 27.6667 178.078 27.4373C177.838 27.2144 177.644 26.947 177.508 26.6501C177.369 26.3485 177.297 26.0214 177.295 25.6901C177.299 25.3546 177.385 25.0252 177.546 24.7301C177.718 24.4203 177.959 24.1542 178.252 23.9525C178.582 23.7246 178.947 23.5526 179.334 23.4437C179.78 23.3177 180.242 23.2563 180.706 23.2613C181.105 23.2612 181.502 23.2965 181.895 23.3669C182.258 23.4271 182.614 23.5236 182.958 23.6549V23.0117C182.999 22.7226 182.973 22.428 182.883 22.1502C182.792 21.8725 182.639 21.6189 182.435 21.4088C182.231 21.1987 181.981 21.0376 181.705 20.9377C181.429 20.8378 181.134 20.8018 180.841 20.8325C179.905 20.8794 179.007 21.215 178.271 21.7925L177.826 20.9189C178.743 20.2626 179.838 19.8978 180.967 19.8725C181.875 19.8179 182.767 20.1216 183.451 20.7173C183.757 21.0307 183.995 21.4044 184.148 21.8144C184.301 22.2244 184.366 22.6616 184.34 23.0981V26.3717C184.34 26.6917 184.485 26.8549 184.774 26.8613V28.0325H184.417H184.127C184.01 28.0372 183.893 28.0184 183.783 27.9772C183.674 27.9359 183.574 27.8731 183.489 27.7925C183.329 27.6393 183.226 27.4359 183.199 27.2165V26.6501C182.843 27.142 182.363 27.5326 181.808 27.7829C181.241 28.0394 180.624 28.1673 180.001 28.1573ZM180.358 27.1397C180.823 27.1436 181.284 27.0521 181.711 26.8709C182.093 26.7267 182.427 26.481 182.677 26.1605C182.763 26.0854 182.833 25.994 182.883 25.8919C182.932 25.7897 182.961 25.6786 182.967 25.5653V24.3845C182.312 24.1291 181.613 23.9989 180.909 24.0005C180.324 23.9743 179.744 24.1249 179.247 24.4325C179.052 24.5488 178.891 24.7135 178.779 24.9104C178.667 25.1073 178.608 25.3296 178.609 25.5557C178.608 25.774 178.654 25.9901 178.744 26.1893C178.829 26.3827 178.955 26.5561 179.112 26.6981C179.276 26.8436 179.466 26.9575 179.672 27.0341C179.892 27.1134 180.124 27.1524 180.358 27.1493V27.1397Z" fill="white"/>
<path d="M186.368 16.79H187.731V25.9196C187.722 26.0465 187.739 26.1738 187.781 26.2941C187.822 26.4144 187.887 26.5253 187.972 26.6204C188.061 26.7072 188.167 26.7743 188.284 26.8173C188.4 26.8604 188.525 26.8783 188.649 26.87C188.786 26.8661 188.922 26.8468 189.055 26.8124C189.202 26.7775 189.348 26.7326 189.489 26.678L189.702 27.7724C189.443 27.8742 189.174 27.9514 188.9 28.0028C188.63 28.0616 188.355 28.0937 188.079 28.0988C187.852 28.1117 187.624 28.0793 187.41 28.0034C187.196 27.9276 187 27.8099 186.832 27.6572C186.674 27.4911 186.553 27.2946 186.475 27.08C186.397 26.8653 186.364 26.6371 186.378 26.4092L186.368 16.79Z" fill="white"/>
<path d="M194.66 27.6099L194.332 27.7539L193.877 27.9267C193.694 27.9849 193.507 28.0299 193.317 28.0611C193.11 28.0987 192.899 28.118 192.689 28.1187C192.227 28.1306 191.775 27.9887 191.404 27.7155C191.217 27.5632 191.071 27.3684 190.977 27.1478C190.882 26.9271 190.843 26.6872 190.862 26.4483V21.0435H189.761V19.9875H190.862V17.2803H192.225V19.9491H194.032V21.0051H192.225V25.9779C192.223 26.0996 192.248 26.2202 192.298 26.3313C192.348 26.4424 192.422 26.5413 192.515 26.6211C192.691 26.7573 192.91 26.8285 193.133 26.8227C193.385 26.8257 193.634 26.7801 193.868 26.6883C194.025 26.6301 194.176 26.5595 194.322 26.4771L194.66 27.6099Z" fill="white"/>
<path d="M202.845 28.0028H201.482V23.5196C201.528 22.8727 201.377 22.227 201.047 21.6668C200.905 21.4684 200.714 21.3089 200.493 21.2032C200.271 21.0974 200.027 21.0489 199.782 21.062C199.506 21.0648 199.234 21.1202 198.98 21.2252C198.708 21.3352 198.454 21.484 198.226 21.6668C197.989 21.8572 197.781 22.0802 197.607 22.3292C197.427 22.587 197.289 22.8723 197.201 23.174V27.974H195.839V16.79H197.201V21.7052C197.502 21.1436 197.949 20.6727 198.496 20.342C199.038 20.0163 199.66 19.8467 200.294 19.8524C200.712 19.8388 201.127 19.9278 201.502 20.1116C201.823 20.2769 202.096 20.5216 202.294 20.822C202.501 21.1478 202.646 21.5092 202.719 21.8876C202.81 22.3235 202.855 22.7674 202.855 23.2124L202.845 28.0028Z" fill="white"/>
<path d="M72.0018 44.0836C71.2722 44.0925 70.5507 43.9314 69.8951 43.6132C69.2724 43.3096 68.7171 42.8852 68.262 42.3652C67.8042 41.8424 67.4471 41.2404 67.2087 40.5892C66.9559 39.9396 66.8217 39.2504 66.8125 38.554C66.8221 37.8424 66.9663 37.139 67.2377 36.4804C67.4912 35.8308 67.8611 35.2323 68.3297 34.714C68.791 34.204 69.3493 33.7897 69.9724 33.4948C70.6183 33.1903 71.3256 33.036 72.0404 33.0436C72.7714 33.0317 73.4944 33.1964 74.1471 33.5236C74.7655 33.8379 75.3168 34.2683 75.7705 34.7908C76.6911 35.8608 77.1951 37.2232 77.1911 38.6308C77.1905 40.0479 76.6641 41.415 75.7125 42.4708C75.251 42.978 74.6926 43.3892 74.0698 43.6804C73.42 43.9683 72.7129 44.1062 72.0018 44.0836ZM68.2427 38.554C68.2416 39.0997 68.3331 39.6417 68.5133 40.1572C68.6831 40.6564 68.9416 41.1214 69.2767 41.53C69.601 41.929 70.0059 42.2561 70.4653 42.49C70.9444 42.7303 71.4748 42.8521 72.0114 42.8452C72.5575 42.85 73.0959 42.7179 73.5769 42.4612C74.0302 42.2221 74.4309 41.8957 74.7559 41.5012C75.0907 41.0833 75.3461 40.6084 75.5096 40.0996C75.6768 39.5979 75.7616 39.0728 75.7609 38.5444C75.7678 37.9998 75.6829 37.4579 75.5096 36.9412C75.3386 36.4434 75.0765 35.9812 74.7365 35.578C74.4088 35.1824 74.0046 34.856 73.5479 34.618C73.0659 34.3803 72.5351 34.2566 71.9969 34.2566C71.4588 34.2566 70.928 34.3803 70.446 34.618C69.9917 34.8555 69.5907 35.1821 69.267 35.578C68.9366 35.9845 68.6814 36.446 68.5133 36.9412C68.3309 37.4594 68.2394 38.005 68.2427 38.554Z" fill="white"/>
<path d="M83.0666 44.1603C82.4483 44.1753 81.8384 44.0155 81.3079 43.6995C80.8081 43.4061 80.3896 42.9937 80.0903 42.4995V44.0067H78.9307V32.7939H80.2932V37.5939C80.6166 37.0903 81.045 36.6615 81.5495 36.3363C82.0334 36.0473 82.5829 35.8842 83.1471 35.8624C83.7114 35.8406 84.272 35.9607 84.7771 36.2115C85.2191 36.451 85.6071 36.7776 85.9174 37.1715C86.2383 37.569 86.4839 38.0212 86.6421 38.5059C86.8098 39.0075 86.8947 39.5327 86.8934 40.0611C86.8973 40.6056 86.799 41.1461 86.6035 41.6547C86.42 42.1385 86.148 42.5844 85.8014 42.9699C85.4587 43.3443 85.0449 43.6477 84.5838 43.8627C84.1068 44.0731 83.5884 44.1748 83.0666 44.1603ZM82.7284 42.9891C83.1132 42.9912 83.4933 42.9059 83.8397 42.7395C84.1741 42.5788 84.473 42.3537 84.7191 42.0771C84.9677 41.7953 85.1611 41.4697 85.2892 41.1171C85.4244 40.7613 85.4932 40.3839 85.4922 40.0035C85.4933 39.6177 85.4279 39.2346 85.2989 38.8707C85.1779 38.5211 84.9946 38.1959 84.7577 37.9107C84.528 37.6345 84.2456 37.4061 83.9267 37.2387C83.595 37.0697 83.2267 36.984 82.854 36.9891C82.5729 36.9876 82.294 37.0397 82.0326 37.1427C81.7769 37.2441 81.5363 37.3797 81.3175 37.5459C81.0945 37.7165 80.8961 37.9168 80.7281 38.1411C80.5567 38.3662 80.4078 38.6074 80.2836 38.8611V41.1843C80.3346 41.4437 80.4472 41.6873 80.6121 41.8947C80.7824 42.1093 80.9844 42.297 81.2112 42.4515C81.4414 42.6086 81.6916 42.7346 81.9553 42.8259C82.2015 42.9246 82.4631 42.9798 82.7284 42.9891Z" fill="white"/>
<path d="M91.2417 44.1597C90.5858 44.1617 89.9336 44.0613 89.309 43.8621C88.7161 43.6827 88.1644 43.3891 87.6855 42.9981L88.275 42.0957C88.7071 42.4309 89.1855 42.7025 89.6955 42.9021C90.174 43.0824 90.6817 43.1735 91.1934 43.1709C91.6847 43.1967 92.1725 43.0764 92.5946 42.8253C92.7578 42.7239 92.8917 42.5821 92.9832 42.4139C93.0747 42.2456 93.1206 42.0566 93.1164 41.8653C93.1231 41.6892 93.0759 41.5152 92.9811 41.3661C92.8744 41.2129 92.7318 41.0878 92.5656 41.0013C92.3386 40.882 92.0987 40.7886 91.8505 40.7229L90.8842 40.4637C90.401 40.3421 89.9822 40.2237 89.6279 40.1085C89.3203 40.0155 89.0275 39.8798 88.7582 39.7053C88.5466 39.5671 88.3763 39.3747 88.2654 39.1485C88.1549 38.8977 88.1021 38.6255 88.1107 38.3517C88.1049 37.9825 88.1877 37.6172 88.3523 37.2861C88.5075 36.977 88.7324 36.7077 89.0094 36.4989C89.2992 36.2813 89.6267 36.1186 89.9758 36.0189C90.3719 35.9077 90.7818 35.8528 91.1934 35.8557C91.7731 35.8496 92.3492 35.9472 92.8942 36.1437C93.3825 36.3159 93.8346 36.5763 94.2277 36.9117L93.6093 37.7277C93.276 37.4332 92.8889 37.2051 92.469 37.0557C92.0532 36.9093 91.6152 36.8346 91.1741 36.8349C90.7339 36.8229 90.2989 36.9326 89.9178 37.1517C89.7539 37.2524 89.6195 37.3941 89.5279 37.5625C89.4363 37.731 89.3908 37.9204 89.396 38.1117C89.3892 38.2709 89.4224 38.4293 89.4926 38.5725C89.5703 38.7089 89.6839 38.8218 89.8212 38.8989C90.0097 39.0065 90.2109 39.0904 90.4203 39.1485L91.29 39.3789C91.8247 39.5005 92.2918 39.6253 92.6912 39.7533C93.0319 39.861 93.3568 40.0127 93.6576 40.2045C93.9017 40.3584 94.1041 40.5694 94.247 40.8189C94.3838 41.0861 94.4503 41.3834 94.4403 41.6829C94.4519 42.0283 94.3788 42.3713 94.2273 42.6824C94.0758 42.9935 93.8504 43.2633 93.5706 43.4685C92.8934 43.9501 92.0738 44.1934 91.2417 44.1597Z" fill="white"/>
<path d="M99.5517 44.1596C98.9777 44.1675 98.4083 44.0564 97.8799 43.8332C97.3915 43.6222 96.951 43.3152 96.585 42.9308C96.2215 42.5471 95.936 42.0973 95.7443 41.606C95.5434 41.0952 95.4417 40.5512 95.4447 40.0028C95.4372 39.4549 95.5356 38.9107 95.7346 38.3996C96.0364 37.6308 96.5695 36.9731 97.2612 36.5161C97.9529 36.0591 98.7696 35.8252 99.6 35.846C100.143 35.8441 100.68 35.9531 101.179 36.1661C101.678 36.3791 102.127 36.6917 102.499 37.0844C102.852 37.4634 103.128 37.9068 103.311 38.39C103.502 38.8831 103.6 39.4071 103.601 39.9356C103.601 40.0508 103.601 40.1468 103.601 40.2428C103.605 40.3131 103.605 40.3837 103.601 40.454H96.8749C96.9003 40.8327 96.9953 41.2036 97.1552 41.5484C97.3005 41.8645 97.5036 42.1509 97.7543 42.3932C97.998 42.6282 98.2829 42.8169 98.595 42.95C98.9005 43.08 99.229 43.1486 99.5614 43.1516C99.8063 43.1529 100.05 43.1206 100.286 43.0556C100.518 42.9918 100.742 42.9016 100.953 42.7868C101.156 42.6775 101.342 42.5383 101.504 42.374C101.662 42.2144 101.787 42.0252 101.871 41.8172L103.05 42.1436C102.914 42.4443 102.727 42.7201 102.499 42.9596C102.263 43.2075 101.993 43.4208 101.697 43.5932C101.394 43.7746 101.07 43.9166 100.731 44.0156C100.346 44.1173 99.9495 44.1658 99.5517 44.1596ZM102.315 39.4556C102.288 39.0884 102.189 38.73 102.026 38.3996C101.877 38.0913 101.674 37.8117 101.426 37.574C101.043 37.2232 100.567 36.9875 100.054 36.8941C99.5407 36.8006 99.0115 36.8533 98.5274 37.046C98.2153 37.1705 97.93 37.353 97.6867 37.5836C97.4402 37.82 97.2403 38.1 97.0972 38.4092C96.9447 38.7391 96.8531 39.0935 96.8266 39.4556H102.315Z" fill="white"/>
<path d="M109.332 37.171C108.697 37.1789 108.075 37.3581 107.534 37.6894C107.024 38.0081 106.636 38.4882 106.433 39.0526V43.9966H105.07V35.9902H106.336V37.8526C106.594 37.3259 106.971 36.8659 107.438 36.5086C107.854 36.1808 108.358 35.9806 108.887 35.9326H109.148H109.332V37.171Z" fill="white"/>
<path d="M113.323 44.0062L110.134 35.9902H111.545L114.096 42.8254L116.666 35.9902H117.961L114.772 44.0062H113.323Z" fill="white"/>
<path d="M121.179 44.1596C120.816 44.1623 120.456 44.0972 120.116 43.9676C119.798 43.8483 119.506 43.669 119.256 43.4396C119.016 43.2167 118.823 42.9493 118.686 42.6524C118.548 42.3508 118.476 42.0237 118.474 41.6924C118.478 41.3569 118.564 41.0275 118.725 40.7324C118.897 40.4226 119.138 40.1565 119.43 39.9548C119.76 39.7269 120.126 39.5549 120.513 39.446C120.959 39.32 121.421 39.2586 121.885 39.2636C122.283 39.2635 122.681 39.2988 123.073 39.3692C123.437 39.4294 123.793 39.5259 124.136 39.6572V39.014C124.166 38.7291 124.13 38.4413 124.033 38.1717C123.936 37.9022 123.779 37.6577 123.574 37.4561C123.369 37.2545 123.122 37.101 122.849 37.0068C122.577 36.9126 122.287 36.88 122.001 36.9116C121.064 36.9585 120.166 37.2941 119.43 37.8716L118.986 36.998C119.902 36.3417 120.997 35.9769 122.126 35.9516C123.034 35.897 123.926 36.2007 124.61 36.7964C124.917 37.1098 125.154 37.4835 125.308 37.8935C125.461 38.3035 125.526 38.7407 125.499 39.1772V42.4508C125.499 42.7708 125.644 42.934 125.934 42.9404V44.1116H125.576H125.286C125.169 44.1163 125.052 44.0975 124.943 44.0563C124.833 44.015 124.733 43.9522 124.649 43.8716C124.488 43.7185 124.386 43.515 124.359 43.2956V42.7292C124.003 43.2045 123.53 43.5812 122.986 43.8236C122.417 44.067 121.799 44.1817 121.179 44.1596ZM121.537 43.142C122.002 43.1459 122.462 43.0544 122.89 42.8732C123.272 42.729 123.606 42.4832 123.856 42.1628C123.942 42.0877 124.012 41.9963 124.061 41.8942C124.111 41.792 124.14 41.6809 124.146 41.5676V40.3772C123.49 40.1218 122.792 39.9916 122.088 39.9932C121.503 39.967 120.923 40.1176 120.426 40.4252C120.231 40.5415 120.069 40.7062 119.957 40.9031C119.846 41.1 119.787 41.3223 119.788 41.5484C119.787 41.7667 119.833 41.9828 119.923 42.182C120.008 42.3754 120.133 42.5488 120.29 42.6908C120.455 42.8363 120.645 42.9502 120.851 43.0268C121.071 43.1061 121.303 43.1451 121.537 43.142Z" fill="white"/>
<path d="M131.558 43.6037L131.23 43.7477L130.776 43.9205C130.592 43.9788 130.405 44.0237 130.215 44.0549C130.008 44.0925 129.798 44.1118 129.587 44.1125C129.125 44.1245 128.673 43.9825 128.302 43.7093C128.115 43.557 127.969 43.3622 127.875 43.1416C127.781 42.921 127.741 42.681 127.761 42.4421V37.0469H126.727V35.9909H127.828V33.3125H129.191V35.9813H130.998V37.0373H129.142V42.0101C129.141 42.1318 129.166 42.2525 129.216 42.3636C129.266 42.4747 129.34 42.5736 129.432 42.6533C129.609 42.7895 129.827 42.8608 130.051 42.8549C130.302 42.858 130.552 42.8123 130.785 42.7205C130.942 42.6623 131.094 42.5917 131.239 42.5093L131.558 43.6037Z" fill="white"/>
<path d="M136.061 44.1596C135.518 44.1603 134.98 44.0498 134.481 43.8351C133.982 43.6204 133.533 43.3061 133.162 42.9116C132.802 42.5274 132.519 42.0775 132.331 41.5868C132.136 41.0814 132.037 40.5441 132.041 40.0028C132.038 39.4575 132.14 38.9166 132.341 38.4092C132.532 37.9197 132.814 37.4703 133.172 37.0844C133.535 36.7014 133.972 36.3946 134.457 36.182C134.974 35.9537 135.534 35.8391 136.1 35.846C136.643 35.8476 137.18 35.9591 137.679 36.1737C138.177 36.3882 138.626 36.7014 138.999 37.094C139.357 37.4799 139.639 37.9293 139.83 38.4188C140.031 38.9262 140.133 39.4671 140.129 40.0124C140.133 40.5537 140.035 41.0909 139.84 41.5964C139.651 42.0889 139.366 42.5393 139.001 42.9216C138.636 43.3039 138.199 43.6105 137.714 43.8236C137.193 44.0518 136.63 44.1664 136.061 44.1596ZM133.384 40.0316C133.381 40.4317 133.453 40.8289 133.597 41.2028C133.724 41.5559 133.917 41.8817 134.167 42.1628C134.405 42.4282 134.694 42.6436 135.017 42.7964C135.344 42.9482 135.7 43.0268 136.061 43.0268C136.422 43.0268 136.778 42.9482 137.105 42.7964C137.431 42.6438 137.723 42.4284 137.965 42.1628C138.217 41.8821 138.414 41.5564 138.545 41.2028C138.687 40.8285 138.759 40.4316 138.757 40.0316C138.759 39.6347 138.687 39.241 138.545 38.87C138.414 38.5164 138.217 38.1907 137.965 37.91C137.723 37.6448 137.431 37.4295 137.105 37.2764C136.779 37.1225 136.422 37.0438 136.061 37.046C135.699 37.0447 135.342 37.1269 135.017 37.286C134.695 37.4434 134.406 37.6619 134.167 37.9292C133.919 38.2116 133.726 38.5371 133.597 38.8892C133.459 39.2513 133.387 39.6349 133.384 40.022V40.0316Z" fill="white"/>
<path d="M145.995 37.1715C145.36 37.1794 144.738 37.3586 144.198 37.6899C143.687 38.0085 143.299 38.4887 143.096 39.0531V43.9971H141.733V35.9907H142.999V37.8531C143.259 37.314 143.643 36.8435 144.12 36.4803C144.537 36.1525 145.041 35.9523 145.57 35.9043H145.831H146.014L145.995 37.1715Z" fill="white"/>
<path d="M147.985 46.1854H148.391H148.7C148.816 46.1862 148.929 46.1564 149.029 46.099C149.151 46.0153 149.251 45.9033 149.319 45.7726C149.443 45.5528 149.553 45.3251 149.647 45.091C149.77 44.7966 149.924 44.4158 150.111 43.9486L146.69 35.9326H148.101L150.884 42.787L153.387 35.9806H154.75L150.788 46.0798C150.637 46.4558 150.391 46.7866 150.073 47.0398C149.673 47.3291 149.184 47.4716 148.691 47.443H148.401L148.034 47.3854L147.985 46.1854Z" fill="white"/>
</g>
<defs>
<filter id="filter0_d_273_8448" x="0" y="0" width="209" height="56" filterUnits="userSpaceOnUse" color-interpolation-filters="sRGB">
<feFlood flood-opacity="0" result="BackgroundImageFix"/>
<feColorMatrix in="SourceAlpha" type="matrix" values="0 0 0 0 0 0 0 0 0 0 0 0 0 0 0 0 0 0 127 0" result="hardAlpha"/>
<feOffset dy="4"/>
<feGaussianBlur stdDeviation="2"/>
<feComposite in2="hardAlpha" operator="out"/>
<feColorMatrix type="matrix" values="0 0 0 0 0 0 0 0 0 0 0 0 0 0 0 0 0 0 0.25 0"/>
<feBlend mode="normal" in2="BackgroundImageFix" result="effect1_dropShadow_273_8448"/>
<feBlend mode="normal" in="SourceGraphic" in2="effect1_dropShadow_273_8448" result="shape"/>
</filter>
</defs>
</svg>
