<svg xmlns="http://www.w3.org/2000/svg" width="2260" height="646" fill="none" viewBox="0 0 2260 646">
  <g clip-path="url(#a)">
    <path fill="#fff" d="M809.386 146.374V164h-58.378v-17.626h58.378Zm-50.996-92.05V164h-22.598V54.325h22.598Zm43.388 44.67v17.174h-50.77V98.993h50.77Zm7.533-44.67v17.702h-58.303V54.325h58.303Zm56.441 90.166V82.497h21.694V164h-20.414l-1.28-19.51Zm2.41-16.722 6.403-.151c0 5.424-.628 10.471-1.883 15.141-1.256 4.62-3.139 8.637-5.65 12.052-2.511 3.365-5.674 6.001-9.491 7.909-3.816 1.859-8.311 2.788-13.483 2.788-3.968 0-7.633-.553-10.998-1.658-3.314-1.155-6.177-2.937-8.587-5.348-2.36-2.46-4.218-5.599-5.574-9.416-1.306-3.866-1.959-8.512-1.959-13.935V82.497h21.694V135.3c0 2.41.276 4.444.829 6.101.602 1.657 1.431 3.013 2.486 4.068a9.066 9.066 0 0 0 3.691 2.259c1.456.452 3.063.678 4.82.678 4.47 0 7.985-.904 10.546-2.711 2.611-1.808 4.444-4.269 5.499-7.382 1.105-3.164 1.657-6.679 1.657-10.546Zm55.236-27.494V164h-21.694V82.497h20.413l1.281 17.777Zm24.556-18.305-.377 20.113a51.942 51.942 0 0 0-3.841-.377 38.972 38.972 0 0 0-3.993-.226c-3.063 0-5.724.402-7.984 1.205-2.21.754-4.068 1.883-5.574 3.39-1.457 1.506-2.561 3.339-3.315 5.499-.703 2.159-1.104 4.62-1.205 7.382l-4.369-1.356c0-5.273.527-10.119 1.582-14.538 1.055-4.47 2.586-8.361 4.595-11.676 2.059-3.314 4.57-5.875 7.533-7.683 2.962-1.808 6.352-2.712 10.169-2.712 1.205 0 2.435.1 3.691.302 1.255.15 2.285.376 3.088.677Zm2.206 42.108v-1.582c0-5.976.853-11.475 2.561-16.496 1.707-5.072 4.193-9.466 7.457-13.182 3.264-3.717 7.282-6.604 12.052-8.663 4.771-2.11 10.245-3.164 16.421-3.164 6.177 0 11.679 1.055 16.499 3.164 4.82 2.059 8.86 4.946 12.13 8.663 3.31 3.716 5.82 8.11 7.53 13.182 1.71 5.021 2.56 10.52 2.56 16.496v1.582c0 5.926-.85 11.424-2.56 16.496-1.71 5.022-4.22 9.416-7.53 13.183-3.27 3.716-7.29 6.603-12.06 8.662-4.77 2.059-10.241 3.089-16.418 3.089s-11.676-1.03-16.496-3.089c-4.771-2.059-8.814-4.946-12.128-8.662-3.264-3.767-5.75-8.161-7.457-13.183-1.708-5.072-2.561-10.57-2.561-16.496Zm21.694-1.582v1.582c0 3.415.301 6.604.904 9.566.602 2.963 1.556 5.575 2.862 7.834 1.356 2.21 3.113 3.942 5.273 5.198 2.159 1.255 4.796 1.883 7.909 1.883 3.013 0 5.599-.628 7.759-1.883 2.159-1.256 3.889-2.988 5.199-5.198 1.3-2.259 2.26-4.871 2.86-7.834.65-2.962.98-6.151.98-9.566v-1.582c0-3.314-.33-6.428-.98-9.34-.6-2.963-1.58-5.575-2.94-7.834-1.3-2.31-3.035-4.118-5.195-5.424-2.159-1.306-4.77-1.958-7.834-1.958-3.063 0-5.674.653-7.834 1.958-2.109 1.306-3.841 3.114-5.197 5.424-1.306 2.259-2.26 4.871-2.862 7.834-.603 2.912-.904 6.026-.904 9.34Zm88.226-24.33v97.171h-21.69V82.496h20.11l1.58 15.669Zm51.6 24.179v1.582c0 5.926-.7 11.425-2.11 16.497-1.35 5.072-3.36 9.491-6.02 13.257-2.67 3.716-5.98 6.629-9.95 8.738-3.91 2.059-8.43 3.089-13.56 3.089-4.97 0-9.29-1.005-12.95-3.014-3.67-2.008-6.76-4.82-9.27-8.436-2.46-3.666-4.44-7.909-5.95-12.73-1.51-4.821-2.66-9.994-3.46-15.518v-4.142c.8-5.926 1.95-11.35 3.46-16.271 1.51-4.972 3.49-9.265 5.95-12.88 2.51-3.667 5.58-6.504 9.19-8.513 3.67-2.008 7.96-3.013 12.88-3.013 5.18 0 9.72.98 13.64 2.938 3.96 1.958 7.28 4.77 9.94 8.437 2.71 3.665 4.75 8.034 6.1 13.106 1.41 5.072 2.11 10.697 2.11 16.873Zm-21.77 1.582v-1.582c0-3.465-.3-6.653-.9-9.566-.56-2.963-1.46-5.549-2.71-7.759-1.21-2.209-2.82-3.917-4.83-5.122-1.95-1.255-4.34-1.883-7.15-1.883-2.96 0-5.5.477-7.61 1.431a12.73 12.73 0 0 0-5.05 4.143c-1.3 1.808-2.28 3.967-2.93 6.478-.66 2.511-1.06 5.348-1.21 8.512v10.471c.25 3.716.96 7.055 2.11 10.018 1.16 2.913 2.94 5.223 5.35 6.93 2.41 1.707 5.57 2.561 9.49 2.561 2.86 0 5.27-.628 7.23-1.883 1.96-1.306 3.54-3.088 4.75-5.348 1.25-2.26 2.13-4.871 2.63-7.834.56-2.963.83-6.152.83-9.567Zm70.45 41.581c-6.32 0-12-1.005-17.02-3.014-5.02-2.058-9.29-4.896-12.81-8.511-3.46-3.616-6.12-7.809-7.98-12.58-1.86-4.821-2.79-9.943-2.79-15.367v-3.013c0-6.176.88-11.826 2.64-16.948 1.76-5.122 4.27-9.567 7.53-13.333 3.32-3.766 7.33-6.654 12.05-8.662 4.72-2.06 10.05-3.089 15.97-3.089 5.78 0 10.9.954 15.37 2.863 4.47 1.908 8.21 4.62 11.22 8.135 3.07 3.515 5.38 7.733 6.93 12.655 1.56 4.871 2.34 10.294 2.34 16.27v9.039h-64.78V115.49h43.46v-1.657c0-3.014-.55-5.7-1.66-8.06-1.05-2.411-2.66-4.319-4.82-5.725-2.16-1.406-4.92-2.11-8.28-2.11-2.87 0-5.33.628-7.39 1.884-2.05 1.255-3.74 3.013-5.04 5.273-1.26 2.259-2.21 4.921-2.87 7.984-.6 3.013-.9 6.328-.9 9.943v3.013c0 3.265.45 6.278 1.36 9.04.95 2.762 2.28 5.147 3.99 7.156a18.272 18.272 0 0 0 6.33 4.67c2.51 1.105 5.34 1.657 8.51 1.657 3.92 0 7.56-.753 10.92-2.26 3.42-1.556 6.35-3.892 8.81-7.005l10.55 11.45c-1.71 2.46-4.04 4.82-7.01 7.08-2.91 2.26-6.42 4.118-10.54 5.574-4.12 1.406-8.81 2.11-14.09 2.11Zm87.48-19.887v-36.307c0-2.611-.43-4.846-1.28-6.704-.86-1.908-2.19-3.39-4-4.444-1.75-1.055-4.04-1.582-6.85-1.582-2.41 0-4.49.427-6.25 1.28-1.76.804-3.12 1.984-4.07 3.541-.95 1.506-1.43 3.289-1.43 5.348h-21.69c0-3.465.8-6.754 2.41-9.868 1.6-3.113 3.94-5.85 7-8.21 3.06-2.41 6.71-4.294 10.92-5.65 4.27-1.356 9.04-2.034 14.32-2.034 6.32 0 11.95 1.055 16.87 3.164 4.92 2.11 8.79 5.273 11.6 9.491 2.86 4.218 4.29 9.491 4.29 15.819v34.876c0 4.469.28 8.135.83 10.997.55 2.813 1.36 5.273 2.41 7.382V164H1251c-1.05-2.21-1.86-4.972-2.41-8.286-.5-3.364-.75-6.729-.75-10.094Zm2.86-31.26.15 12.278h-12.13c-2.86 0-5.34.326-7.45.979-2.11.653-3.85 1.582-5.2 2.787-1.36 1.155-2.36 2.511-3.01 4.068-.61 1.557-.91 3.264-.91 5.122s.43 3.541 1.28 5.047c.86 1.456 2.09 2.611 3.69 3.465 1.61.804 3.49 1.205 5.65 1.205 3.27 0 6.1-.652 8.51-1.958s4.27-2.913 5.58-4.821c1.35-1.908 2.06-3.716 2.11-5.424l5.72 9.19c-.8 2.059-1.91 4.193-3.31 6.403-1.36 2.21-3.09 4.294-5.2 6.252-2.11 1.908-4.64 3.49-7.61 4.746-2.96 1.205-6.48 1.808-10.54 1.808-5.18 0-9.87-1.03-14.09-3.089-4.17-2.109-7.48-4.997-9.94-8.662-2.41-3.717-3.62-7.935-3.62-12.655 0-4.269.81-8.06 2.41-11.375 1.61-3.314 3.97-6.101 7.08-8.361 3.17-2.31 7.11-4.042 11.83-5.197 4.72-1.206 10.19-1.808 16.42-1.808h12.58Zm54.63-14.463V164h-21.69V82.497h20.34l1.35 17.4Zm-3.16 20.489h-5.88c0-6.026.78-11.45 2.34-16.271 1.56-4.87 3.74-9.014 6.55-12.428 2.81-3.465 6.15-6.102 10.02-7.91 3.92-1.858 8.29-2.787 13.11-2.787 3.81 0 7.3.553 10.47 1.657 3.16 1.105 5.87 2.863 8.13 5.273 2.31 2.41 4.07 5.6 5.28 9.567 1.25 3.967 1.88 8.813 1.88 14.538V164h-21.85v-52.051c0-3.615-.5-6.427-1.5-8.436-1.01-2.009-2.49-3.415-4.45-4.219-1.9-.853-4.26-1.28-7.08-1.28-2.91 0-5.45.578-7.6 1.733-2.11 1.155-3.87 2.761-5.28 4.82-1.35 2.009-2.38 4.369-3.09 7.081-.7 2.712-1.05 5.624-1.05 8.738Zm177.13 25.988V164h-58.37v-17.626h58.37Zm-50.99-92.05V164h-22.6V54.325h22.6Zm43.39 44.67v17.174h-50.77V98.993h50.77Zm7.53-44.67v17.702h-58.3V54.325h58.3Zm30.83 45.573V164h-21.7V82.497h20.34l1.36 17.4Zm-3.17 20.489h-5.87c0-6.026.78-11.45 2.33-16.271 1.56-4.87 3.75-9.014 6.56-12.428 2.81-3.465 6.15-6.102 10.02-7.91 3.91-1.858 8.28-2.787 13.1-2.787 3.82 0 7.31.553 10.47 1.657 3.17 1.105 5.88 2.863 8.14 5.273 2.31 2.41 4.07 5.6 5.27 9.567 1.26 3.967 1.88 8.813 1.88 14.538V164h-21.84v-52.051c0-3.615-.5-6.427-1.51-8.436-1-2.009-2.48-3.415-4.44-4.219-1.91-.853-4.27-1.28-7.08-1.28-2.91 0-5.45.578-7.61 1.733-2.11 1.155-3.87 2.761-5.27 4.82-1.36 2.009-2.39 4.369-3.09 7.081-.7 2.712-1.06 5.624-1.06 8.738Zm93.81 27.795 18.08-65.684h22.67L1613.95 164h-13.7l.45-15.819Zm-12.43-65.684 18.15 65.76.38 15.743h-13.79l-27.49-81.503h22.75Zm83.48 0V164h-21.77V82.497h21.77Zm-23.12-21.242c0-3.164 1.1-5.775 3.31-7.834 2.21-2.06 5.17-3.089 8.89-3.089 3.66 0 6.6 1.03 8.81 3.089 2.26 2.059 3.39 4.67 3.39 7.834 0 3.163-1.13 5.775-3.39 7.834-2.21 2.058-5.15 3.088-8.81 3.088-3.72 0-6.68-1.03-8.89-3.088-2.21-2.06-3.31-4.67-3.31-7.834Zm60.43 39.019V164h-21.7V82.497h20.42l1.28 17.777Zm24.56-18.305-.38 20.113a52.579 52.579 0 0 0-3.84-.377 39.086 39.086 0 0 0-4-.226c-3.06 0-5.72.402-7.98 1.205-2.21.754-4.07 1.883-5.57 3.39-1.46 1.506-2.57 3.339-3.32 5.499-.7 2.159-1.1 4.62-1.2 7.382l-4.37-1.356c0-5.273.52-10.119 1.58-14.538 1.05-4.47 2.59-8.361 4.59-11.676 2.06-3.314 4.57-5.875 7.54-7.683 2.96-1.808 6.35-2.712 10.17-2.712 1.2 0 2.43.1 3.69.302 1.25.15 2.28.376 3.09.677Zm2.2 42.108v-1.582c0-5.976.85-11.475 2.56-16.496 1.71-5.072 4.2-9.466 7.46-13.182 3.26-3.717 7.28-6.604 12.05-8.663 4.77-2.11 10.25-3.164 16.42-3.164 6.18 0 11.68 1.055 16.5 3.164 4.82 2.059 8.86 4.946 12.13 8.663 3.31 3.716 5.82 8.11 7.53 13.182 1.71 5.021 2.56 10.52 2.56 16.496v1.582c0 5.926-.85 11.424-2.56 16.496-1.71 5.022-4.22 9.416-7.53 13.183-3.27 3.716-7.28 6.603-12.06 8.662-4.77 2.059-10.24 3.089-16.42 3.089-6.17 0-11.67-1.03-16.49-3.089-4.77-2.059-8.82-4.946-12.13-8.662-3.26-3.767-5.75-8.161-7.46-13.183-1.71-5.072-2.56-10.57-2.56-16.496Zm21.69-1.582v1.582c0 3.415.31 6.604.91 9.566.6 2.963 1.56 5.575 2.86 7.834 1.36 2.21 3.11 3.942 5.27 5.198 2.16 1.255 4.8 1.883 7.91 1.883 3.02 0 5.6-.628 7.76-1.883 2.16-1.256 3.89-2.988 5.2-5.198 1.31-2.259 2.26-4.871 2.86-7.834.65-2.962.98-6.151.98-9.566v-1.582c0-3.314-.33-6.428-.98-9.34-.6-2.963-1.58-5.575-2.94-7.834-1.3-2.31-3.03-4.118-5.19-5.424-2.16-1.306-4.77-1.958-7.84-1.958-3.06 0-5.67.653-7.83 1.958-2.11 1.306-3.84 3.114-5.2 5.424-1.3 2.259-2.26 4.871-2.86 7.834-.6 2.912-.91 6.026-.91 9.34Zm87.78-22.598V164h-21.69V82.497h20.34l1.35 17.4Zm-3.16 20.489h-5.88c0-6.026.78-11.45 2.34-16.271 1.55-4.87 3.74-9.014 6.55-12.428 2.81-3.465 6.15-6.102 10.02-7.91 3.92-1.858 8.28-2.787 13.11-2.787 3.81 0 7.3.553 10.47 1.657 3.16 1.105 5.87 2.863 8.13 5.273 2.31 2.41 4.07 5.6 5.27 9.567 1.26 3.967 1.89 8.813 1.89 14.538V164h-21.85v-52.051c0-3.615-.5-6.427-1.5-8.436-1.01-2.009-2.49-3.415-4.45-4.219-1.91-.853-4.27-1.28-7.08-1.28-2.91 0-5.45.578-7.61 1.733-2.11 1.155-3.86 2.761-5.27 4.82-1.36 2.009-2.38 4.369-3.09 7.081-.7 2.712-1.05 5.624-1.05 8.738Zm87.77-21.016V164h-21.77V82.497h20.42l1.35 16.873Zm-3.01 21.016h-6.03c0-5.675.68-10.897 2.04-15.668 1.4-4.82 3.44-8.989 6.1-12.504 2.71-3.566 6.05-6.328 10.02-8.286 3.97-1.959 8.56-2.938 13.78-2.938 3.62 0 6.93.553 9.95 1.657 3.01 1.055 5.6 2.737 7.76 5.047 2.2 2.26 3.91 5.223 5.12 8.889 1.2 3.615 1.81 7.959 1.81 13.031V164h-21.7v-51.975c0-3.716-.5-6.579-1.51-8.587-1-2.009-2.43-3.415-4.29-4.219-1.81-.803-3.99-1.205-6.55-1.205-2.81 0-5.28.578-7.38 1.733-2.06 1.155-3.77 2.761-5.13 4.82-1.35 2.009-2.36 4.369-3.01 7.081-.65 2.712-.98 5.624-.98 8.738Zm48.51-2.486-7.76.979c0-5.323.66-10.269 1.96-14.839 1.36-4.57 3.34-8.587 5.95-12.052a27.402 27.402 0 0 1 9.87-8.06c3.92-1.959 8.44-2.938 13.56-2.938 3.92 0 7.48.578 10.69 1.733 3.22 1.105 5.96 2.887 8.22 5.348 2.31 2.41 4.06 5.574 5.27 9.491 1.25 3.917 1.88 8.713 1.88 14.387V164h-21.77v-52.051c0-3.766-.5-6.628-1.5-8.587-.96-2.009-2.36-3.39-4.22-4.143-1.81-.803-3.97-1.205-6.48-1.205-2.61 0-4.9.527-6.86 1.582a13.647 13.647 0 0 0-4.89 4.218c-1.31 1.808-2.29 3.917-2.94 6.328-.65 2.36-.98 4.946-.98 7.758Zm101.64 47.607c-6.33 0-12-1.005-17.03-3.014-5.02-2.058-9.29-4.896-12.8-8.511-3.47-3.616-6.13-7.809-7.99-12.58-1.85-4.821-2.78-9.943-2.78-15.367v-3.013c0-6.176.88-11.826 2.63-16.948 1.76-5.122 4.27-9.567 7.54-13.333 3.31-3.766 7.33-6.654 12.05-8.662 4.72-2.06 10.04-3.089 15.97-3.089 5.77 0 10.89.954 15.36 2.863 4.47 1.908 8.21 4.62 11.23 8.135 3.06 3.515 5.37 7.733 6.93 12.655 1.55 4.871 2.33 10.294 2.33 16.27v9.039h-64.78V115.49h43.47v-1.657c0-3.014-.56-5.7-1.66-8.06-1.06-2.411-2.66-4.319-4.82-5.725-2.16-1.406-4.92-2.11-8.29-2.11-2.86 0-5.32.628-7.38 1.884-2.06 1.255-3.74 3.013-5.05 5.273-1.25 2.259-2.21 4.921-2.86 7.984-.6 3.013-.9 6.328-.9 9.943v3.013c0 3.265.45 6.278 1.35 9.04.96 2.762 2.29 5.147 3.99 7.156a18.272 18.272 0 0 0 6.33 4.67c2.51 1.105 5.35 1.657 8.51 1.657 3.92 0 7.56-.753 10.93-2.26 3.41-1.556 6.35-3.892 8.81-7.005l10.54 11.45c-1.7 2.46-4.04 4.82-7 7.08-2.91 2.26-6.43 4.118-10.55 5.574-4.11 1.406-8.81 2.11-14.08 2.11Zm64.72-65.61V164h-21.69V82.497h20.34l1.35 17.4Zm-3.16 20.489h-5.87c0-6.026.77-11.45 2.33-16.271 1.56-4.87 3.74-9.014 6.55-12.428 2.82-3.465 6.16-6.102 10.02-7.91 3.92-1.858 8.29-2.787 13.11-2.787 3.82 0 7.31.553 10.47 1.657 3.16 1.105 5.87 2.863 8.13 5.273 2.31 2.41 4.07 5.6 5.28 9.567 1.25 3.967 1.88 8.813 1.88 14.538V164h-21.84v-52.051c0-3.615-.51-6.427-1.51-8.436-1-2.009-2.49-3.415-4.44-4.219-1.91-.853-4.27-1.28-7.09-1.28-2.91 0-5.44.578-7.6 1.733-2.11 1.155-3.87 2.761-5.28 4.82-1.35 2.009-2.38 4.369-3.08 7.081-.71 2.712-1.06 5.624-1.06 8.738Zm106.01-37.89v15.367h-47.46V82.497h47.46Zm-35.71-20.111h21.7v77.059c0 2.36.3 4.168.9 5.423.65 1.256 1.61 2.134 2.86 2.636 1.26.452 2.84.678 4.75.678 1.35 0 2.56-.05 3.61-.15a46.65 46.65 0 0 0 2.79-.452l.08 15.969c-1.86.603-3.87 1.08-6.03 1.431-2.16.352-4.55.528-7.16.528-4.77 0-8.94-.779-12.5-2.336-3.52-1.607-6.23-4.168-8.14-7.683-1.9-3.515-2.86-8.135-2.86-13.86V62.385ZM759.822 266.325V376h-22.523V266.325h22.523Zm38.738 45.572V376h-21.694v-81.503h20.339l1.355 17.4Zm-3.163 20.489h-5.876c0-6.026.779-11.45 2.335-16.271 1.557-4.871 3.742-9.014 6.554-12.428 2.812-3.465 6.152-6.102 10.018-7.91 3.917-1.858 8.286-2.787 13.107-2.787 3.817 0 7.307.553 10.47 1.657 3.164 1.105 5.876 2.863 8.136 5.273 2.31 2.411 4.067 5.6 5.273 9.567 1.255 3.967 1.883 8.813 1.883 14.538V376h-21.845v-52.051c0-3.615-.502-6.427-1.506-8.436-1.005-2.009-2.486-3.415-4.445-4.218-1.908-.854-4.268-1.281-7.08-1.281-2.913 0-5.449.578-7.608 1.733-2.11 1.155-3.867 2.761-5.273 4.82-1.356 2.009-2.386 4.369-3.089 7.081-.703 2.712-1.054 5.624-1.054 8.738ZM889.124 376h-21.845v-88.735c0-6.176 1.206-11.374 3.616-15.592 2.461-4.269 5.901-7.483 10.32-9.642 4.469-2.21 9.767-3.314 15.894-3.314 2.008 0 3.942.15 5.8.452 1.858.251 3.666.577 5.423.979l-.226 16.346a18.907 18.907 0 0 0-3.013-.528 39.65 39.65 0 0 0-3.691-.15c-2.611 0-4.846.452-6.704 1.356-1.808.853-3.189 2.134-4.143 3.841-.954 1.708-1.431 3.792-1.431 6.252V376Zm16.271-81.503v15.366h-50.243v-15.366h50.243Zm5.595 41.58v-1.582c0-5.976.853-11.475 2.561-16.496 1.707-5.072 4.193-9.466 7.457-13.183 3.264-3.716 7.282-6.603 12.052-8.662 4.771-2.109 10.245-3.164 16.422-3.164 6.176 0 11.675 1.055 16.496 3.164 4.821 2.059 8.864 4.946 12.128 8.662 3.314 3.717 5.825 8.111 7.532 13.183 1.708 5.021 2.561 10.52 2.561 16.496v1.582c0 5.926-.853 11.424-2.561 16.496-1.707 5.022-4.218 9.416-7.532 13.183-3.264 3.716-7.282 6.603-12.053 8.662-4.77 2.059-10.244 3.089-16.421 3.089-6.176 0-11.675-1.03-16.496-3.089-4.771-2.059-8.813-4.946-12.128-8.662-3.264-3.767-5.75-8.161-7.457-13.183-1.708-5.072-2.561-10.57-2.561-16.496Zm21.694-1.582v1.582c0 3.415.301 6.604.904 9.566.602 2.963 1.556 5.575 2.862 7.834 1.356 2.21 3.114 3.942 5.273 5.198 2.159 1.255 4.796 1.883 7.909 1.883 3.013 0 5.6-.628 7.759-1.883 2.159-1.256 3.892-2.988 5.197-5.198 1.306-2.259 2.26-4.871 2.863-7.834.653-2.962.979-6.151.979-9.566v-1.582c0-3.314-.326-6.428-.979-9.34-.603-2.963-1.582-5.575-2.938-7.834-1.306-2.31-3.038-4.118-5.197-5.424-2.16-1.305-4.771-1.958-7.834-1.958-3.064 0-5.675.653-7.834 1.958-2.109 1.306-3.842 3.114-5.198 5.424-1.306 2.259-2.26 4.871-2.862 7.834-.603 2.912-.904 6.026-.904 9.34Zm88.226-22.221V376h-21.692v-81.503h20.412l1.28 17.777Zm24.56-18.305-.38 20.113a51.471 51.471 0 0 0-3.84-.377 39.056 39.056 0 0 0-3.99-.226c-3.07 0-5.73.402-7.99 1.205-2.21.754-4.06 1.883-5.57 3.39-1.46 1.506-2.56 3.339-3.32 5.499-.7 2.159-1.1 4.62-1.2 7.382l-4.37-1.356c0-5.273.53-10.119 1.58-14.538 1.06-4.469 2.59-8.361 4.6-11.676 2.06-3.314 4.57-5.875 7.53-7.683 2.96-1.808 6.35-2.712 10.17-2.712 1.2 0 2.43.101 3.69.302 1.26.15 2.29.376 3.09.677Zm29.62 17.401V376h-21.77v-81.503h20.42l1.35 16.873Zm-3.01 21.016h-6.03c0-5.675.68-10.897 2.04-15.668 1.4-4.821 3.44-8.989 6.1-12.504 2.71-3.566 6.05-6.328 10.02-8.286 3.96-1.959 8.56-2.938 13.78-2.938 3.62 0 6.93.553 9.95 1.657a19.097 19.097 0 0 1 7.75 5.047c2.21 2.26 3.92 5.223 5.13 8.889 1.2 3.615 1.8 7.959 1.8 13.031V376h-21.69v-51.975c0-3.716-.5-6.579-1.51-8.587-1-2.009-2.43-3.415-4.29-4.219-1.81-.803-3.99-1.205-6.55-1.205-2.82 0-5.28.578-7.39 1.733-2.05 1.155-3.76 2.761-5.12 4.82-1.35 2.009-2.36 4.369-3.01 7.081-.65 2.712-.98 5.624-.98 8.738Zm48.51-2.486-7.76.979c0-5.323.65-10.269 1.96-14.839 1.36-4.57 3.34-8.587 5.95-12.052a27.4 27.4 0 0 1 9.87-8.06c3.92-1.959 8.44-2.938 13.56-2.938 3.91 0 7.48.578 10.69 1.733 3.22 1.105 5.95 2.887 8.21 5.348 2.31 2.41 4.07 5.574 5.28 9.491 1.25 3.917 1.88 8.713 1.88 14.387V376h-21.77v-52.051c0-3.766-.5-6.628-1.51-8.587-.95-2.009-2.36-3.39-4.21-4.143-1.81-.803-3.97-1.205-6.48-1.205-2.61 0-4.9.527-6.86 1.582a13.563 13.563 0 0 0-4.89 4.218c-1.31 1.808-2.29 3.917-2.94 6.328-.65 2.36-.98 4.946-.98 7.758Zm108.11 27.72v-36.307c0-2.611-.42-4.846-1.28-6.704a9.495 9.495 0 0 0-3.99-4.444c-1.76-1.055-4.04-1.582-6.85-1.582-2.41 0-4.5.427-6.25 1.28-1.76.804-3.12 1.984-4.07 3.541-.96 1.506-1.43 3.289-1.43 5.348h-21.7c0-3.465.81-6.754 2.41-9.868 1.61-3.113 3.94-5.85 7.01-8.21 3.06-2.411 6.7-4.294 10.92-5.65 4.27-1.356 9.04-2.034 14.31-2.034 6.33 0 11.95 1.055 16.88 3.164 4.92 2.109 8.78 5.273 11.6 9.491 2.86 4.218 4.29 9.491 4.29 15.819v34.876c0 4.469.28 8.135.83 10.997.55 2.813 1.35 5.273 2.41 7.382V376h-21.92c-1.06-2.21-1.86-4.972-2.41-8.286-.5-3.364-.76-6.729-.76-10.094Zm2.87-31.26.15 12.278h-12.13c-2.86 0-5.35.326-7.46.979-2.11.653-3.84 1.582-5.19 2.787-1.36 1.155-2.36 2.511-3.02 4.068-.6 1.557-.9 3.264-.9 5.122s.43 3.541 1.28 5.047c.85 1.456 2.08 2.611 3.69 3.465 1.61.804 3.49 1.205 5.65 1.205 3.26 0 6.1-.652 8.51-1.958s4.27-2.913 5.58-4.821c1.35-1.908 2.05-3.716 2.1-5.424l5.73 9.19c-.8 2.059-1.91 4.193-3.31 6.403-1.36 2.21-3.09 4.294-5.2 6.252-2.11 1.908-4.65 3.49-7.61 4.746-2.96 1.205-6.48 1.808-10.55 1.808-5.17 0-9.86-1.03-14.08-3.089-4.17-2.109-7.48-4.997-9.95-8.662-2.41-3.717-3.61-7.935-3.61-12.655 0-4.269.8-8.06 2.41-11.375 1.61-3.314 3.97-6.101 7.08-8.361 3.16-2.31 7.11-4.042 11.83-5.197 4.72-1.206 10.19-1.808 16.42-1.808h12.58Zm73.31-31.863v15.366h-47.45v-15.366h47.45Zm-35.7-20.112h21.69v77.059c0 2.36.3 4.168.9 5.423.66 1.256 1.61 2.134 2.87 2.636 1.25.452 2.83.678 4.74.678 1.36 0 2.56-.05 3.62-.15 1.1-.151 2.03-.302 2.78-.452l.08 15.969c-1.86.603-3.87 1.08-6.03 1.431-2.16.352-4.54.528-7.15.528-4.77 0-8.94-.779-12.51-2.336-3.51-1.607-6.22-4.168-8.13-7.683-1.91-3.515-2.86-8.135-2.86-13.86v-79.243Zm68.64 20.112V376h-21.77v-81.503h21.77Zm-23.13-21.242c0-3.164 1.11-5.775 3.32-7.834 2.21-2.059 5.17-3.089 8.89-3.089 3.66 0 6.6 1.03 8.81 3.089 2.26 2.059 3.39 4.67 3.39 7.834 0 3.163-1.13 5.775-3.39 7.834-2.21 2.059-5.15 3.088-8.81 3.088-3.72 0-6.68-1.029-8.89-3.088-2.21-2.059-3.32-4.671-3.32-7.834Zm35.28 62.822v-1.582c0-5.976.85-11.475 2.56-16.496 1.71-5.072 4.19-9.466 7.46-13.183 3.26-3.716 7.28-6.603 12.05-8.662 4.77-2.109 10.24-3.164 16.42-3.164 6.18 0 11.68 1.055 16.5 3.164 4.82 2.059 8.86 4.946 12.12 8.662 3.32 3.717 5.83 8.111 7.54 13.183 1.7 5.021 2.56 10.52 2.56 16.496v1.582c0 5.926-.86 11.424-2.56 16.496-1.71 5.022-4.22 9.416-7.54 13.183-3.26 3.716-7.28 6.603-12.05 8.662-4.77 2.059-10.24 3.089-16.42 3.089-6.18 0-11.67-1.03-16.5-3.089-4.77-2.059-8.81-4.946-12.12-8.662-3.27-3.767-5.75-8.161-7.46-13.183-1.71-5.072-2.56-10.57-2.56-16.496Zm21.69-1.582v1.582c0 3.415.3 6.604.91 9.566.6 2.963 1.55 5.575 2.86 7.834 1.35 2.21 3.11 3.942 5.27 5.198 2.16 1.255 4.8 1.883 7.91 1.883 3.01 0 5.6-.628 7.76-1.883 2.16-1.256 3.89-2.988 5.2-5.198 1.3-2.259 2.26-4.871 2.86-7.834.65-2.962.98-6.151.98-9.566v-1.582c0-3.314-.33-6.428-.98-9.34-.6-2.963-1.58-5.575-2.94-7.834-1.3-2.31-3.04-4.118-5.2-5.424-2.16-1.305-4.77-1.958-7.83-1.958-3.06 0-5.67.653-7.83 1.958-2.11 1.306-3.85 3.114-5.2 5.424-1.31 2.259-2.26 4.871-2.86 7.834-.61 2.912-.91 6.026-.91 9.34Zm87.78-22.598V376h-21.7v-81.503h20.34l1.36 17.4Zm-3.16 20.489h-5.88c0-6.026.78-11.45 2.33-16.271 1.56-4.871 3.75-9.014 6.56-12.428 2.81-3.465 6.15-6.102 10.02-7.91 3.91-1.858 8.28-2.787 13.1-2.787 3.82 0 7.31.553 10.47 1.657 3.17 1.105 5.88 2.863 8.14 5.273 2.31 2.411 4.07 5.6 5.27 9.567 1.26 3.967 1.89 8.813 1.89 14.538V376h-21.85v-52.051c0-3.615-.5-6.427-1.51-8.436-1-2.009-2.48-3.415-4.44-4.218-1.91-.854-4.27-1.281-7.08-1.281-2.91 0-5.45.578-7.61 1.733-2.11 1.155-3.87 2.761-5.27 4.82-1.36 2.009-2.39 4.369-3.09 7.081-.7 2.712-1.05 5.624-1.05 8.738Zm146.17 25.234v-36.307c0-2.611-.43-4.846-1.28-6.704a9.495 9.495 0 0 0-3.99-4.444c-1.76-1.055-4.04-1.582-6.86-1.582-2.41 0-4.49.427-6.25 1.28-1.76.804-3.11 1.984-4.07 3.541-.95 1.506-1.43 3.289-1.43 5.348h-21.69c0-3.465.8-6.754 2.41-9.868 1.61-3.113 3.94-5.85 7-8.21 3.07-2.411 6.71-4.294 10.93-5.65 4.26-1.356 9.04-2.034 14.31-2.034 6.33 0 11.95 1.055 16.87 3.164 4.92 2.109 8.79 5.273 11.6 9.491 2.86 4.218 4.3 9.491 4.3 15.819v34.876c0 4.469.27 8.135.82 10.997.56 2.813 1.36 5.273 2.41 7.382V376h-21.92c-1.05-2.21-1.85-4.972-2.41-8.286-.5-3.364-.75-6.729-.75-10.094Zm2.86-31.26.15 12.278h-12.12c-2.87 0-5.35.326-7.46.979-2.11.653-3.84 1.582-5.2 2.787-1.35 1.155-2.36 2.511-3.01 4.068-.6 1.557-.91 3.264-.91 5.122s.43 3.541 1.29 5.047c.85 1.456 2.08 2.611 3.69 3.465 1.6.804 3.49 1.205 5.65 1.205 3.26 0 6.1-.652 8.51-1.958s4.27-2.913 5.57-4.821c1.36-1.908 2.06-3.716 2.11-5.424l5.73 9.19c-.81 2.059-1.91 4.193-3.32 6.403-1.35 2.21-3.09 4.294-5.2 6.252-2.11 1.908-4.64 3.49-7.6 4.746-2.97 1.205-6.48 1.808-10.55 1.808-5.17 0-9.87-1.03-14.09-3.089-4.16-2.109-7.48-4.997-9.94-8.662-2.41-3.717-3.61-7.935-3.61-12.655 0-4.269.8-8.06 2.41-11.375 1.6-3.314 3.96-6.101 7.08-8.361 3.16-2.31 7.1-4.042 11.82-5.197 4.72-1.206 10.2-1.808 16.42-1.808h12.58Zm54.64-14.463V376h-21.7v-81.503h20.34l1.36 17.4Zm-3.17 20.489h-5.87c0-6.026.78-11.45 2.33-16.271 1.56-4.871 3.74-9.014 6.56-12.428 2.81-3.465 6.15-6.102 10.01-7.91 3.92-1.858 8.29-2.787 13.11-2.787 3.82 0 7.31.553 10.47 1.657 3.16 1.105 5.88 2.863 8.14 5.273 2.31 2.411 4.06 5.6 5.27 9.567 1.25 3.967 1.88 8.813 1.88 14.538V376h-21.84v-52.051c0-3.615-.5-6.427-1.51-8.436-1-2.009-2.48-3.415-4.44-4.218-1.91-.854-4.27-1.281-7.08-1.281-2.92 0-5.45.578-7.61 1.733-2.11 1.155-3.87 2.761-5.27 4.82-1.36 2.009-2.39 4.369-3.09 7.081-.71 2.712-1.06 5.624-1.06 8.738ZM1771 358.223v-97.924h21.84V376h-19.66l-2.18-17.777Zm-51.52-21.995v-1.582c0-6.227.7-11.877 2.1-16.949 1.41-5.122 3.47-9.516 6.18-13.182 2.71-3.666 6.05-6.503 10.02-8.512 3.97-2.008 8.49-3.013 13.56-3.013 4.77 0 8.94 1.005 12.5 3.013 3.62 2.009 6.68 4.871 9.19 8.587 2.56 3.666 4.62 8.01 6.18 13.032 1.56 4.972 2.69 10.42 3.39 16.346v3.465c-.7 5.674-1.83 10.947-3.39 15.818-1.56 4.872-3.62 9.14-6.18 12.806-2.51 3.616-5.57 6.428-9.19 8.436-3.61 2.009-7.83 3.014-12.65 3.014-5.07 0-9.59-1.03-13.56-3.089-3.92-2.059-7.23-4.946-9.94-8.662-2.67-3.717-4.7-8.085-6.11-13.107-1.4-5.022-2.1-10.496-2.1-16.421Zm21.69-1.582v1.582c0 3.364.25 6.503.75 9.415.55 2.913 1.43 5.499 2.64 7.759 1.25 2.21 2.86 3.942 4.82 5.198 2.01 1.205 4.44 1.807 7.31 1.807 3.71 0 6.78-.828 9.19-2.485 2.41-1.708 4.24-4.043 5.49-7.006 1.31-2.963 2.06-6.377 2.26-10.244v-9.868c-.15-3.164-.6-6.001-1.35-8.512-.7-2.561-1.76-4.745-3.16-6.553a13.997 13.997 0 0 0-5.13-4.218c-2.01-1.005-4.39-1.507-7.15-1.507-2.82 0-5.23.653-7.23 1.958-2.01 1.256-3.65 2.988-4.9 5.198-1.21 2.21-2.11 4.821-2.71 7.834-.55 2.963-.83 6.177-.83 9.642ZM825.883 530.601v5.198c0 8.336-1.13 15.818-3.39 22.447-2.26 6.629-5.448 12.278-9.566 16.948-4.118 4.621-9.039 8.161-14.764 10.622-5.675 2.46-11.977 3.691-18.907 3.691-6.88 0-13.182-1.231-18.907-3.691-5.675-2.461-10.596-6.001-14.764-10.622-4.168-4.67-7.407-10.319-9.717-16.948-2.26-6.629-3.39-14.111-3.39-22.447v-5.198c0-8.386 1.13-15.869 3.39-22.447 2.26-6.629 5.448-12.278 9.566-16.949 4.168-4.67 9.09-8.235 14.764-10.696 5.725-2.461 12.027-3.691 18.907-3.691 6.93 0 13.233 1.23 18.907 3.691 5.725 2.461 10.646 6.026 14.764 10.696 4.168 4.671 7.382 10.32 9.642 16.949 2.31 6.578 3.465 14.061 3.465 22.447Zm-22.824 5.198v-5.348c0-5.826-.527-10.948-1.582-15.367-1.054-4.419-2.611-8.135-4.67-11.148-2.059-3.013-4.57-5.273-7.533-6.78-2.963-1.556-6.352-2.335-10.169-2.335-3.816 0-7.206.779-10.169 2.335-2.913 1.507-5.398 3.767-7.457 6.78-2.009 3.013-3.541 6.729-4.595 11.148-1.055 4.419-1.582 9.541-1.582 15.367v5.348c0 5.775.527 10.897 1.582 15.366 1.054 4.42 2.611 8.161 4.67 11.224 2.059 3.013 4.57 5.298 7.533 6.855 2.963 1.556 6.352 2.335 10.169 2.335 3.816 0 7.206-.779 10.169-2.335 2.963-1.557 5.449-3.842 7.457-6.855 2.009-3.063 3.541-6.804 4.595-11.224 1.055-4.469 1.582-9.591 1.582-15.366Zm35.425-63.5h21.694v97.02L857.993 588h-19.509V472.299Zm73.292 74.121v1.582c0 6.076-.653 11.65-1.958 16.722-1.256 5.072-3.214 9.466-5.876 13.182-2.661 3.666-5.976 6.529-9.943 8.587-3.917 2.009-8.537 3.014-13.86 3.014-4.971 0-9.29-1.005-12.956-3.014-3.616-2.008-6.654-4.846-9.115-8.511-2.46-3.666-4.444-7.96-5.95-12.881-1.507-4.922-2.637-10.295-3.39-16.12v-3.465c.753-5.825 1.883-11.199 3.39-16.12 1.506-4.921 3.49-9.215 5.95-12.881 2.461-3.666 5.499-6.503 9.115-8.512 3.616-2.008 7.884-3.013 12.805-3.013 5.374 0 10.044 1.03 14.011 3.089 4.018 2.008 7.332 4.871 9.943 8.587 2.662 3.666 4.62 8.035 5.876 13.107 1.305 5.021 1.958 10.57 1.958 16.647Zm-21.694 1.582v-1.582c0-3.315-.251-6.428-.753-9.341-.452-2.963-1.256-5.549-2.411-7.758-1.155-2.26-2.736-4.043-4.745-5.349-1.959-1.305-4.495-1.958-7.608-1.958-2.963 0-5.474.502-7.533 1.507a13.947 13.947 0 0 0-5.122 4.218c-1.306 1.808-2.285 3.967-2.938 6.478-.652 2.461-1.054 5.172-1.205 8.135v9.868c.151 3.967.804 7.482 1.959 10.546 1.205 3.013 3.013 5.398 5.423 7.156 2.461 1.707 5.65 2.561 9.567 2.561 3.063 0 5.599-.603 7.608-1.808 2.008-1.205 3.565-2.913 4.67-5.122 1.155-2.21 1.958-4.796 2.41-7.759.452-3.013.678-6.277.678-9.792Zm76.93 17.475a7.049 7.049 0 0 0-1.356-4.218c-.904-1.255-2.586-2.41-5.047-3.465-2.411-1.105-5.901-2.109-10.471-3.013-4.117-.904-7.959-2.034-11.524-3.39-3.516-1.406-6.579-3.088-9.19-5.047-2.561-1.958-4.57-4.268-6.026-6.93-1.457-2.711-2.185-5.8-2.185-9.265 0-3.415.728-6.628 2.185-9.642 1.506-3.013 3.64-5.674 6.402-7.984 2.813-2.36 6.227-4.193 10.245-5.499 4.067-1.356 8.637-2.034 13.709-2.034 7.081 0 13.157 1.13 18.229 3.39 5.122 2.26 9.039 5.373 11.751 9.34 2.762 3.917 4.143 8.387 4.143 13.409h-21.694c0-2.11-.452-3.993-1.356-5.65-.854-1.707-2.209-3.038-4.067-3.992-1.808-1.005-4.169-1.507-7.081-1.507-2.411 0-4.495.427-6.252 1.281-1.758.803-3.114 1.908-4.068 3.314-.904 1.356-1.356 2.863-1.356 4.52 0 1.255.251 2.385.753 3.389.553.955 1.432 1.833 2.637 2.637 1.205.803 2.762 1.557 4.67 2.26 1.959.652 4.369 1.255 7.232 1.807 5.875 1.206 11.123 2.788 15.743 4.746 4.62 1.908 8.286 4.52 10.997 7.834 2.712 3.264 4.068 7.558 4.068 12.881 0 3.615-.803 6.93-2.41 9.943-1.607 3.013-3.917 5.649-6.93 7.909-3.014 2.21-6.629 3.942-10.847 5.198-4.169 1.205-8.864 1.808-14.087 1.808-7.582 0-14.01-1.356-19.283-4.068-5.223-2.712-9.19-6.152-11.902-10.32-2.661-4.218-3.992-8.537-3.992-12.956h20.564c.101 2.963.854 5.348 2.26 7.156 1.456 1.808 3.289 3.114 5.499 3.917 2.26.803 4.695 1.205 7.306 1.205 2.813 0 5.148-.376 7.006-1.13 1.858-.803 3.264-1.858 4.218-3.163 1.004-1.356 1.507-2.913 1.507-4.671Zm70.378 24.03c-6.33 0-12-1.005-17.03-3.014-5.02-2.058-9.29-4.896-12.8-8.511-3.47-3.616-6.13-7.809-7.986-12.58-1.858-4.821-2.787-9.943-2.787-15.367v-3.013c0-6.176.878-11.826 2.636-16.948 1.757-5.122 4.267-9.567 7.537-13.333 3.31-3.766 7.33-6.654 12.05-8.662 4.72-2.059 10.04-3.089 15.97-3.089 5.77 0 10.89.954 15.36 2.863 4.47 1.908 8.21 4.62 11.23 8.135 3.06 3.515 5.37 7.733 6.93 12.655 1.55 4.871 2.33 10.294 2.33 16.27v9.039h-64.78V539.49h43.47v-1.657c0-3.014-.56-5.7-1.66-8.06-1.06-2.411-2.66-4.319-4.82-5.725-2.16-1.406-4.92-2.109-8.29-2.109-2.86 0-5.32.627-7.38 1.883-2.06 1.255-3.74 3.013-5.05 5.273-1.25 2.259-2.21 4.921-2.86 7.984-.6 3.013-.9 6.328-.9 9.943v3.013c0 3.265.45 6.278 1.35 9.04.96 2.762 2.29 5.147 3.99 7.156a18.272 18.272 0 0 0 6.33 4.67c2.51 1.105 5.35 1.657 8.51 1.657 3.92 0 7.56-.753 10.93-2.26 3.41-1.556 6.35-3.892 8.81-7.005l10.54 11.45c-1.7 2.46-4.04 4.82-7 7.08-2.91 2.26-6.43 4.118-10.55 5.574-4.11 1.406-8.81 2.11-14.08 2.11Zm65.18-65.233V588h-21.7v-81.503h20.42l1.28 17.777Zm24.55-18.305-.37 20.113a52.352 52.352 0 0 0-3.85-.377 38.748 38.748 0 0 0-3.99-.226c-3.06 0-5.72.402-7.98 1.205-2.21.754-4.07 1.883-5.58 3.39-1.45 1.506-2.56 3.339-3.31 5.499-.7 2.159-1.11 4.62-1.21 7.382l-4.37-1.356c0-5.273.53-10.119 1.59-14.538 1.05-4.469 2.58-8.361 4.59-11.676 2.06-3.314 4.57-5.875 7.53-7.683 2.97-1.808 6.36-2.712 10.17-2.712 1.21 0 2.44.101 3.69.302 1.26.15 2.29.376 3.09.677Zm37.01 66.212 18.08-65.684h22.67L1177.39 588h-13.71l.45-15.819Zm-12.43-65.684 18.15 65.76.38 15.743h-13.78l-27.5-81.503h22.75Zm103.37 63.123v-36.307c0-2.611-.43-4.846-1.28-6.704-.86-1.908-2.19-3.39-3.99-4.444-1.76-1.055-4.05-1.582-6.86-1.582-2.41 0-4.49.427-6.25 1.28-1.76.804-3.11 1.984-4.07 3.541-.95 1.506-1.43 3.289-1.43 5.348h-21.69c0-3.465.8-6.754 2.41-9.868 1.6-3.113 3.94-5.85 7-8.21 3.07-2.411 6.71-4.294 10.92-5.65 4.27-1.356 9.04-2.034 14.32-2.034 6.32 0 11.95 1.055 16.87 3.164 4.92 2.109 8.79 5.273 11.6 9.491 2.86 4.218 4.29 9.491 4.29 15.819v34.876c0 4.469.28 8.135.83 10.997.55 2.813 1.36 5.273 2.41 7.382V588h-21.92c-1.05-2.21-1.86-4.972-2.41-8.286-.5-3.364-.75-6.729-.75-10.094Zm2.86-31.26.15 12.278h-12.13c-2.86 0-5.34.326-7.45.979-2.11.653-3.84 1.582-5.2 2.787-1.36 1.155-2.36 2.511-3.01 4.068-.61 1.557-.91 3.264-.91 5.122s.43 3.541 1.28 5.047c.86 1.456 2.09 2.611 3.69 3.465 1.61.804 3.49 1.205 5.65 1.205 3.27 0 6.11-.652 8.52-1.958 2.41-1.306 4.26-2.913 5.57-4.821 1.36-1.908 2.06-3.716 2.11-5.424l5.72 9.19c-.8 2.059-1.9 4.193-3.31 6.403-1.36 2.21-3.09 4.294-5.2 6.252-2.11 1.908-4.64 3.49-7.61 4.746-2.96 1.205-6.47 1.808-10.54 1.808-5.17 0-9.87-1.03-14.09-3.089-4.17-2.109-7.48-4.997-9.94-8.662-2.41-3.717-3.62-7.935-3.62-12.655 0-4.269.81-8.06 2.41-11.375 1.61-3.314 3.97-6.101 7.08-8.361 3.17-2.31 7.11-4.042 11.83-5.197 4.72-1.206 10.2-1.808 16.42-1.808h12.58Zm73.32-31.863v15.366h-47.46v-15.366h47.46Zm-35.71-20.112h21.69v77.059c0 2.36.31 4.168.91 5.423.65 1.256 1.61 2.134 2.86 2.636 1.26.452 2.84.678 4.75.678 1.35 0 2.56-.05 3.61-.15a46.65 46.65 0 0 0 2.79-.452l.07 15.969c-1.85.603-3.86 1.08-6.02 1.431-2.16.352-4.55.528-7.16.528-4.77 0-8.94-.779-12.5-2.336-3.52-1.607-6.23-4.168-8.14-7.683-1.91-3.515-2.86-8.135-2.86-13.86v-79.243Zm68.64 20.112V588h-21.77v-81.503h21.77Zm-23.12-21.242c0-3.164 1.1-5.775 3.31-7.834 2.21-2.059 5.18-3.089 8.89-3.089 3.67 0 6.61 1.03 8.81 3.089 2.26 2.059 3.39 4.67 3.39 7.834 0 3.163-1.13 5.775-3.39 7.834-2.2 2.059-5.14 3.088-8.81 3.088-3.71 0-6.68-1.029-8.89-3.088-2.21-2.059-3.31-4.671-3.31-7.834Zm35.27 62.822v-1.582c0-5.976.86-11.475 2.56-16.496 1.71-5.072 4.2-9.466 7.46-13.183 3.27-3.716 7.28-6.603 12.05-8.662 4.77-2.109 10.25-3.164 16.42-3.164 6.18 0 11.68 1.055 16.5 3.164 4.82 2.059 8.86 4.946 12.13 8.662 3.31 3.717 5.82 8.111 7.53 13.183 1.71 5.021 2.56 10.52 2.56 16.496v1.582c0 5.926-.85 11.424-2.56 16.496-1.71 5.022-4.22 9.416-7.53 13.183-3.27 3.716-7.28 6.603-12.05 8.662-4.77 2.059-10.25 3.089-16.42 3.089-6.18 0-11.68-1.03-16.5-3.089-4.77-2.059-8.81-4.946-12.13-8.662-3.26-3.767-5.75-8.161-7.46-13.183-1.7-5.072-2.56-10.57-2.56-16.496Zm21.7-1.582v1.582c0 3.415.3 6.604.9 9.566.6 2.963 1.56 5.575 2.86 7.834 1.36 2.21 3.12 3.942 5.28 5.198 2.16 1.255 4.79 1.883 7.91 1.883 3.01 0 5.59-.628 7.75-1.883 2.16-1.256 3.9-2.988 5.2-5.198 1.31-2.259 2.26-4.871 2.86-7.834.66-2.962.98-6.151.98-9.566v-1.582c0-3.314-.32-6.428-.98-9.34-.6-2.963-1.58-5.575-2.93-7.834-1.31-2.31-3.04-4.118-5.2-5.424-2.16-1.305-4.77-1.958-7.84-1.958-3.06 0-5.67.653-7.83 1.958-2.11 1.306-3.84 3.114-5.2 5.424-1.3 2.259-2.26 4.871-2.86 7.834-.6 2.912-.9 6.026-.9 9.34Zm87.77-22.598V588h-21.69v-81.503h20.34l1.35 17.4Zm-3.16 20.489h-5.88c0-6.026.78-11.45 2.34-16.271 1.56-4.871 3.74-9.014 6.55-12.428 2.81-3.465 6.15-6.102 10.02-7.91 3.92-1.858 8.29-2.787 13.11-2.787 3.81 0 7.3.553 10.47 1.657 3.16 1.105 5.87 2.863 8.13 5.273 2.31 2.411 4.07 5.6 5.28 9.567 1.25 3.967 1.88 8.813 1.88 14.538V588h-21.85v-52.051c0-3.615-.5-6.427-1.5-8.436-1.01-2.009-2.49-3.415-4.45-4.218-1.9-.854-4.26-1.281-7.08-1.281-2.91 0-5.45.578-7.6 1.733-2.11 1.155-3.87 2.761-5.28 4.82-1.35 2.009-2.38 4.369-3.09 7.081-.7 2.712-1.05 5.624-1.05 8.738Zm192.8-66.061V588h-22.6l-44.06-73.519V588h-22.6V478.325h22.6l44.14 73.594v-73.594h22.52Zm53.51 111.182c-6.33 0-12.01-1.005-17.03-3.014-5.02-2.058-9.29-4.896-12.8-8.511-3.47-3.616-6.13-7.809-7.99-12.58-1.86-4.821-2.79-9.943-2.79-15.367v-3.013c0-6.176.88-11.826 2.64-16.948 1.76-5.122 4.27-9.567 7.53-13.333 3.32-3.766 7.33-6.654 12.06-8.662 4.72-2.059 10.04-3.089 15.96-3.089 5.78 0 10.9.954 15.37 2.863 4.47 1.908 8.21 4.62 11.22 8.135 3.07 3.515 5.38 7.733 6.93 12.655 1.56 4.871 2.34 10.294 2.34 16.27v9.039h-64.78V539.49h43.46v-1.657c0-3.014-.55-5.7-1.65-8.06-1.06-2.411-2.67-4.319-4.83-5.725-2.15-1.406-4.92-2.109-8.28-2.109-2.86 0-5.32.627-7.38 1.883-2.06 1.255-3.74 3.013-5.05 5.273-1.26 2.259-2.21 4.921-2.86 7.984-.61 3.013-.91 6.328-.91 9.943v3.013c0 3.265.46 6.278 1.36 9.04.95 2.762 2.28 5.147 3.99 7.156a18.272 18.272 0 0 0 6.33 4.67c2.51 1.105 5.35 1.657 8.51 1.657 3.92 0 7.56-.753 10.92-2.26 3.42-1.556 6.36-3.892 8.82-7.005l10.54 11.45c-1.71 2.46-4.04 4.82-7 7.08-2.92 2.26-6.43 4.118-10.55 5.574-4.12 1.406-8.81 2.11-14.08 2.11Zm83.4-83.01v15.366h-47.45v-15.366h47.45Zm-35.7-20.112h21.69v77.059c0 2.36.3 4.168.91 5.423.65 1.256 1.6 2.134 2.86 2.636 1.25.452 2.84.678 4.74.678 1.36 0 2.56-.05 3.62-.15 1.1-.151 2.03-.302 2.79-.452l.07 15.969c-1.86.603-3.86 1.08-6.02 1.431-2.16.352-4.55.528-7.16.528-4.77 0-8.94-.779-12.5-2.336-3.52-1.607-6.23-4.168-8.14-7.683-1.91-3.515-2.86-8.135-2.86-13.86v-79.243Zm69.02 80.524 16.95-60.412h13.78l-4.44 23.728L1855.01 588h-11.53l2.19-21.091Zm-8.59-60.412 12.13 60.336 1.13 21.167h-13.56l-20.64-81.503h20.94Zm54.84 59.357 11.82-59.357h21.02L1904.12 588h-13.48l1.28-22.146Zm-13.64-59.357 16.88 59.96 2.33 21.543h-11.6l-16.95-57.7-4.29-23.803h13.63Zm51.62 41.58v-1.582c0-5.976.86-11.475 2.57-16.496 1.7-5.072 4.19-9.466 7.45-13.183 3.27-3.716 7.28-6.603 12.05-8.662 4.78-2.109 10.25-3.164 16.43-3.164 6.17 0 11.67 1.055 16.49 3.164 4.82 2.059 8.87 4.946 12.13 8.662 3.31 3.717 5.83 8.111 7.53 13.183 1.71 5.021 2.56 10.52 2.56 16.496v1.582c0 5.926-.85 11.424-2.56 16.496-1.7 5.022-4.22 9.416-7.53 13.183-3.26 3.716-7.28 6.603-12.05 8.662-4.77 2.059-10.25 3.089-16.42 3.089-6.18 0-11.68-1.03-16.5-3.089-4.77-2.059-8.81-4.946-12.13-8.662-3.26-3.767-5.75-8.161-7.45-13.183-1.71-5.072-2.57-10.57-2.57-16.496Zm21.7-1.582v1.582c0 3.415.3 6.604.9 9.566.6 2.963 1.56 5.575 2.86 7.834 1.36 2.21 3.12 3.942 5.28 5.198 2.16 1.255 4.79 1.883 7.91 1.883 3.01 0 5.6-.628 7.76-1.883 2.15-1.256 3.89-2.988 5.19-5.198 1.31-2.259 2.26-4.871 2.87-7.834.65-2.962.97-6.151.97-9.566v-1.582c0-3.314-.32-6.428-.97-9.34-.61-2.963-1.59-5.575-2.94-7.834-1.31-2.31-3.04-4.118-5.2-5.424-2.16-1.305-4.77-1.958-7.83-1.958-3.07 0-5.68.653-7.84 1.958-2.11 1.306-3.84 3.114-5.2 5.424-1.3 2.259-2.26 4.871-2.86 7.834-.6 2.912-.9 6.026-.9 9.34Zm88.23-22.221V588h-21.7v-81.503h20.42l1.28 17.777Zm24.55-18.305-.37 20.113a52.352 52.352 0 0 0-3.85-.377 38.748 38.748 0 0 0-3.99-.226c-3.06 0-5.72.402-7.98 1.205-2.21.754-4.07 1.883-5.58 3.39-1.45 1.506-2.56 3.339-3.31 5.499-.7 2.159-1.11 4.62-1.21 7.382l-4.36-1.356c0-5.273.52-10.119 1.58-14.538 1.05-4.469 2.58-8.361 4.59-11.676 2.06-3.314 4.57-5.875 7.53-7.683 2.97-1.808 6.36-2.712 10.17-2.712 1.21 0 2.44.101 3.69.302 1.26.15 2.29.376 3.09.677Zm29.63-33.746V588h-21.7V472.223h21.7Zm51.37 34.274-35.4 40.375-18.99 19.208-7.91-15.668 15.07-19.133 21.17-24.782h26.06ZM2122.86 588l-24.11-37.663 14.99-13.107 34.13 50.77h-25.01Zm-1827.2 8.674h-70.052v-85.316h70.052v14.826h-50.484v18.731h48.148v14.826h-48.148v21.997h50.484v14.936Zm12.829 0v-65.61h15.046v65.61h-15.046Zm93.366-32.898c0 10.864-2.912 19.205-8.736 25.04-5.823 5.836-14.181 8.749-25.053 8.749-10.872 0-19.229-2.913-25.053-8.749-5.823-5.835-8.735-14.213-8.735-25.132 0-10.92 2.922-19.261 8.765-25.022 5.843-5.761 14.221-8.637 25.123-8.637 10.901 0 19.249 2.904 25.023 8.702 5.774 5.817 8.666 14.157 8.666 25.049Zm-51.806 0c0 7.33 1.501 12.85 4.512 16.561 3.011 3.711 7.513 5.566 13.495 5.566 12.005 0 18.008-7.375 18.008-22.127 0-14.779-5.973-22.173-17.918-22.173-5.993 0-10.504 1.865-13.545 5.585-3.041 3.72-4.552 9.259-4.552 16.588Zm119.899 32.898h-13.525l-29.883-43.706h-.437c.616 8.767.924 9.092.924 12.831v30.875h-13.446V530.98h14.629l28.114 44.588c-.487-8.526 0-14.556 0-18.082V530.98h13.624v65.694Zm67.339 0h-52.8v-65.61h52.8v11.402h-37.754v14.408h35.955v11.402h-35.955v16.922h37.754v11.476Zm43.179 0h-15.045v-54.032h-19.28v-11.578h53.595v11.578h-19.27v54.032ZM384.404 245.177c0-30.151-12.303-58.504-34.663-79.823-4.392-4.203-9.083-7.997-13.992-11.439l-18.534 29.66c19.388 14.76 33.222 36.117 33.222 61.602 0 44.458-37.764 80.492-84.352 80.492a87.652 87.652 0 0 1-30.867-5.594l-17.143 28.324c14.927 6.327 31.195 9.686 48.01 9.686 65.241-.01 118.319-50.655 118.319-112.908Zm-33.55-205.691c-.139-10.326-1.163-20.179-3.051-29.27l-.646-3.09-2.435 2.097c-7.324 6.308-14.449 13.693-21.157 21.941-34.961 42.955-52.76 100.429-42.335 136.658l.308 1.057 1.133.214c2.226.417 4.273.918 6.231 1.493a63.371 63.371 0 0 1 6.758 2.496l1.033.455.895-.659c31.602-23.481 54.011-79.582 53.266-133.392ZM233.876-.008l-1.997-2.496-1.212 2.913c-3.658 8.758-6.629 18.379-8.835 28.603-11.448 53.28-.785 112.341 25.351 140.424l.765.826 1.113-.288c2.207-.557 4.274-.993 6.281-1.271a60.992 60.992 0 0 1 7.225-.622l1.143-.018.487-.974c17.47-34.411 11.567-94.176-14.033-142.132-4.899-9.194-10.394-17.608-16.288-24.965Zm-84.451 54.7c-8.675-6.188-17.48-11.402-26.186-15.522l-2.941-1.4.258 3.126c.785 9.398 2.574 19.279 5.346 29.382 14.41 52.622 51.339 101.088 87.811 115.254l1.063.418.875-.733c1.719-1.429 3.359-2.672 5.038-3.794a58.418 58.418 0 0 1 6.201-3.6l.994-.51v-1.077c-.288-38.223-33.272-89.342-78.459-121.544Zm-90.473 93.09c37.306 41.109 92.888 69.006 132.162 66.325l1.153-.083.437-1.021a55.309 55.309 0 0 1 2.763-5.529 54.657 54.657 0 0 1 3.886-5.836l.666-.872-.497-.965c-17.968-34.169-71.254-66.102-126.687-75.927-10.643-1.883-20.969-2.839-30.688-2.876h-3.3l1.69 2.7c5.058 8.071 11.25 16.18 18.415 24.084ZM184.078 249.25l.994-.556-.079-1.095a55.658 55.658 0 0 1-.09-6.123c.109-2.301.378-4.62.785-6.893l.189-1.058-.894-.649c-31.94-23.074-94.538-29.243-148.819-14.659-10.414 2.793-20.124 6.29-28.849 10.372l-2.951 1.373 2.762 1.717c8.278 5.112 17.6 9.769 27.687 13.842 52.501 21.125 115.288 22.702 149.265 3.729Zm9.213 35.19.636-.919-.577-.946a55.871 55.871 0 0 1-2.921-5.464 54.761 54.761 0 0 1-2.485-6.513l-.328-1.03-1.113-.204c-39.344-7.218-98.334 13.657-140.262 49.635-8.05 6.921-15.135 14.139-21.058 21.486l-2.017 2.487 3.27.371c9.798 1.104 20.302 1.354 31.234.742 56.894-3.21 113.926-28.296 135.621-59.645Zm18.941 21.719a57.871 57.871 0 0 1-5.247-4.788l-.765-.798-1.103.288c-38.629 10.131-81.868 53.735-102.797 103.704-4.015 9.593-7.036 19.056-8.944 28.148l-.646 3.08 3.09-1.048c9.313-3.145 18.853-7.357 28.363-12.516 49.55-26.877 89.073-73.431 94.002-110.699l.149-1.095-.964-.612c-1.888-1.215-3.578-2.412-5.138-3.664Z"/>
    <path fill="#fff" d="M490.212 279.096c8.924-2.189 17.987-4.871 25.361-7.895.974-8.554.894-30.505.815-32.963-7.116-3.303-15.354-6.763-23.94-9.352-15.772-4.75-38.46-6.893-54.132-8.053-1.967-11.782-.636-5.52-4.084-17.441 13.953-7.357 33.828-18.296 46.141-29.011 6.827-5.956 12.75-11.987 17.789-17.98a233.203 233.203 0 0 0-15.285-30.068c-7.93.278-16.337 1.132-25.222 2.699-16.268 2.876-37.346 11.152-51.746 17.145-7.542-9.509-3.279-4.583-12.203-13.563 8.705-12.738 20.879-31.312 26.464-46.286 3.101-8.285 4.939-15.503 6.42-23.027-7.304-5.872-14.976-11.318-22.966-16.375l-54.092 89.297c5.824 4.063 11.379 8.553 16.587 13.498 26.712 25.495 41.43 59.395 41.43 95.438 0 36.052-14.718 69.952-41.43 95.438-26.723 25.494-62.241 39.531-100.024 39.531-20.035 0-39.394-4.008-57.182-11.504l-54.449 89.992a260.165 260.165 0 0 0 25.709 10.613c5.426-4.796 10.822-10.242 16.119-16.365 10.514-12.191 21.118-31.479 28.114-44.913 12.184 2.672 5.605 1.494 18.494 2.913 1.898 15.095 5.068 36.814 10.882 51.722 3.011 7.738 6.41 15.828 10.067 22.183.745 0 25.083-.761 36.173-2.199 2.495-6.754 4.641-15.168 6.331-23.11 3.309-15.456 3.17-37.231 2.733-52.232 12.084-3.108 5.694-1.179 17.768-5.706 9.113 12.478 22.579 30.217 35.041 40.775 6.628 5.603 13.963 10.762 20.452 14.797 10.633-5.306 20.849-11.291 30.519-17.933-1.133-7.237-3.598-15.206-6.082-23.166-4.691-15.141-15.513-34.29-23.264-47.334 9.122-8.146 4.442-3.6 12.859-12.998 14.191 6.931 34.802 16.561 51.011 20.299 8.805 2.032 17.898 3.646 25.778 4.277 6.649-9.249 12.651-18.972 17.898-29.103-4.621-6.012-10.772-12.451-16.993-18.509-11.598-11.263-30.569-23.314-43.846-31.358 4.055-11.29 2.147-5.167 4.969-17.247 15.94-.222 38.877-.974 55.016-4.926ZM185.917 600.747h-59.011c-60.998 0-110.617-46.323-110.617-103.268V379.943h7.95v117.536c0 52.854 46.062 95.846 102.667 95.846h59.011v7.422Z"/>
    <path fill="#fff" d="M581.44 501.478h-7.95v-396.79c0-52.854-46.061-95.846-102.667-95.846h-89.818V1.42h89.818c60.998 0 110.617 46.323 110.617 103.268v396.79Z"/>
  </g>
  <defs>
    <clipPath id="a">
      <path fill="#fff" d="M0 0h2346v646H0z"/>
    </clipPath>
  </defs>
</svg>
