<svg width="384" height="117" viewBox="0 0 128 39" fill="none" xmlns="http://www.w3.org/2000/svg">
<g clip-path="url(#clip0_23_965)">
<path d="M34.6498 0.450195H22.8998V-0.0498047H35.1498V30.0002H34.6498V0.450195Z" fill="white"/>
<path d="M1.24982 37.9502V24.2002H0.749817V38.4502H12.2998V37.9502H1.24982Z" fill="white"/>
<path d="M20.9998 10.8002C22.2998 12.1002 23.0998 14.0002 23.0998 15.9002C23.0998 19.9002 19.8998 23.1002 15.7998 23.1002C14.7998 23.1002 13.7998 22.9002 12.8998 22.5002L13.8998 20.7002C14.4998 21.0002 15.0998 21.1002 15.7998 21.1002C18.6998 21.1002 20.9998 18.7002 20.9998 15.9002C20.9998 14.3002 20.1998 12.9002 18.9998 12.0002L20.0998 10.1002C20.3998 10.3002 20.6999 10.5002 20.9998 10.8002Z" fill="white"/>
<path d="M21.2998 2.80017C21.2998 2.10017 21.1998 1.50018 21.0998 0.900177V0.700195L20.9998 0.800171C20.5998 1.20017 20.0998 1.7002 19.6998 2.2002C17.5998 5.0002 16.4998 8.60018 17.0998 11.0002V11.1002H17.1998C17.2498 11.1002 17.3248 11.1252 17.3998 11.1502C17.4748 11.1752 17.5498 11.2002 17.5998 11.2002C17.6998 11.2002 17.8998 11.3002 17.9998 11.4002H18.1998C19.8998 9.80018 21.2998 6.20017 21.2998 2.80017Z" fill="white"/>
<path d="M13.7998 0.000183105L13.8998 0.200195C14.2998 0.600195 14.5998 1.20017 14.8998 1.80017C16.4998 4.90017 16.8998 8.70018 15.7998 10.9002V11.0002H15.2998C15.2498 11.0002 15.1748 11.0252 15.0998 11.0502C15.0248 11.0752 14.9498 11.1002 14.8998 11.1002H14.7998V11.0002C13.1998 9.20018 12.4998 5.40018 13.1998 2.00018C13.2998 1.40021 13.4998 0.800256 13.6998 0.200286L13.7998 0.000183105Z" fill="white"/>
<path d="M8.69983 3.7002C8.33297 3.40671 7.91228 3.16706 7.51675 2.94174C7.37321 2.85997 7.23296 2.78008 7.09982 2.7002L6.89981 2.60019V2.80017C6.89981 3.17425 6.97756 3.54834 7.06034 3.94666C7.11034 4.18721 7.16218 4.43662 7.19983 4.7002C8.09983 8.10019 10.2998 11.2002 12.5998 12.1002H12.7998C12.8998 12.0002 12.9998 11.9002 13.0998 11.9002C13.1998 11.8002 13.2998 11.7002 13.4998 11.7002H13.5998V11.6002C13.4998 9.00019 11.4998 5.7002 8.69983 3.7002Z" fill="white"/>
<path d="M11.2998 13.9002C8.89981 14.0002 5.49983 12.2002 3.19983 9.60019C2.79983 9.10019 2.39982 8.60018 2.09982 7.90018L1.99982 7.7002H2.19983C2.72369 7.7002 3.24754 7.77641 3.83795 7.86231C3.92377 7.8748 4.01099 7.88749 4.09982 7.90018C7.39982 8.60018 10.6998 10.6002 11.7998 12.8002V13.0002C11.7998 13.1002 11.6998 13.3002 11.5998 13.4002C11.5616 13.4766 11.538 13.5384 11.5179 13.5911C11.4852 13.6766 11.4616 13.7384 11.3998 13.8002V13.9002H11.2998Z" fill="white"/>
<path d="M10.8998 16.1002L10.9998 16.0002V15.1002H10.8998C8.89981 13.6002 5.0998 13.2002 1.7998 14.2002C1.19989 14.4002 0.599733 14.6002 -0.000183105 14.9002L-0.200195 15.0002L-0.000183105 15.1002C0.499699 15.4001 1.09955 15.7 1.6994 16C4.8994 17.3 8.79981 17.4002 10.8998 16.1002Z" fill="white"/>
<path d="M11.3998 18.3002V18.4002C10.0998 20.4002 6.59982 22.0002 2.99982 22.3002C2.29982 22.4002 1.69982 22.4002 1.09982 22.3002H0.899811L0.999817 22.1002C1.3998 21.6002 1.79983 21.1002 2.2998 20.7002C4.8998 18.4002 8.49981 17.0002 10.8998 17.5002H10.9998V17.6002C11.0498 17.6502 11.0748 17.7252 11.0998 17.8002C11.1248 17.8752 11.1498 17.9502 11.1998 18.0002C11.2498 18.0502 11.2748 18.1002 11.2998 18.1502C11.3248 18.2002 11.3498 18.2502 11.3998 18.3002Z" fill="white"/>
<path d="M12.5998 19.8002L12.2998 19.5002V19.4002H12.1998C9.79983 20.0002 7.19981 22.8002 5.89981 26.0002C5.69982 26.6002 5.49981 27.2002 5.39981 27.8002V28.0002L5.59982 27.9002C6.19982 27.7002 6.7998 27.4002 7.2998 27.1002C10.2998 25.4002 12.6998 22.4002 12.9998 20.0002V19.9002H12.8998C12.7998 19.9002 12.6998 19.9002 12.5998 19.8002Z" fill="white"/>
<path d="M31.1998 17.6002C30.6998 17.8002 30.0998 18.0002 29.5998 18.1002C28.5998 18.3002 27.1998 18.4002 26.4998 18.4002L26.4994 18.4018C26.3957 18.8166 26.3729 18.9079 26.3468 18.9983C26.3394 19.0237 26.3318 19.0491 26.322 19.0817C26.2998 19.1558 26.2665 19.2669 26.1998 19.5002C26.9998 20.0002 28.1998 20.8002 28.8998 21.5002C29.0498 21.7002 29.2248 21.9002 29.3998 22.1001C29.5748 22.3001 29.7498 22.5002 29.8998 22.7002C29.5998 23.4001 29.1999 24.0001 28.7999 24.6001C28.5499 24.5501 28.2748 24.5002 27.9998 24.4502C27.7248 24.4002 27.4498 24.3502 27.1998 24.3002C26.4752 24.1552 25.6455 23.7477 24.901 23.3821C24.6182 23.2432 24.3476 23.1103 24.0998 23.0002C23.9855 23.1374 23.9129 23.2276 23.8619 23.291C23.8015 23.3661 23.7712 23.4038 23.7373 23.4377C23.7034 23.4716 23.6659 23.5018 23.5908 23.5622C23.5273 23.6132 23.4372 23.6857 23.2998 23.8002C23.7998 24.6002 24.3998 25.8002 24.6998 26.8002C24.8998 27.3001 24.9998 27.8001 25.0998 28.3001C24.4998 28.7 23.8998 29.1002 23.1998 29.4002C22.7998 29.2002 22.2998 28.9002 21.8998 28.5002C21.2753 27.8757 20.5713 26.9329 20.0006 26.1687C19.9316 26.0763 19.8645 25.9865 19.7998 25.9002C19.47 26.0239 19.3441 26.0796 19.2611 26.1163C19.1427 26.1687 19.1112 26.1826 18.6998 26.3002C18.6998 27.2002 18.6998 28.6002 18.4998 29.6002C18.4875 29.6618 18.4752 29.7248 18.4627 29.7889C18.3737 30.2449 18.2752 30.7495 18.0998 31.1002C17.3998 31.2002 15.8998 31.2002 15.8998 31.2002C15.6998 30.8002 15.4998 30.3003 15.2999 29.8003C14.8999 28.9003 14.6998 27.5002 14.5998 26.5002C14.3445 26.4683 14.2114 26.4567 14.1258 26.4493C14.0725 26.4447 14.0376 26.4416 14.003 26.4363C13.9374 26.4261 13.8731 26.4076 13.6866 26.3538C13.6347 26.3389 13.5733 26.3212 13.4998 26.3002C13.0998 27.2002 12.3998 28.4002 11.7998 29.2002C11.4999 29.6001 11.1 30 10.8 30.3C10.2 30.1 9.69983 29.9002 9.19983 29.6002L12.4998 23.8002C13.5998 24.2002 14.7998 24.5002 15.9998 24.5002C18.2998 24.5002 20.4998 23.6002 22.0998 22.0002C23.6998 20.4002 24.5998 18.2002 24.5998 15.9002C24.5998 13.6002 23.6998 11.4002 22.0998 9.80017C21.834 9.44578 21.5682 9.24839 21.2329 8.99934C21.1898 8.9673 21.1454 8.93437 21.0998 8.90018L24.3998 3.2002C24.8998 3.5002 25.3998 3.8002 25.7998 4.2002C25.6998 4.70016 25.5998 5.20023 25.3998 5.7002C25.1335 6.58774 24.4734 7.63284 23.9787 8.41599L23.9768 8.41898C23.9148 8.51712 23.8555 8.61114 23.7998 8.7002C24.0498 9.0002 24.0998 9.07519 24.1498 9.15019C24.1998 9.22519 24.2498 9.30019 24.4998 9.60019C25.3998 9.20019 26.6998 8.70018 27.6998 8.50018C28.1998 8.40019 28.6999 8.30017 29.1998 8.30017C29.4998 8.90017 29.7998 9.5002 30.0998 10.2002C29.7999 10.6001 29.4 11 29.0001 11.3999C28.3001 12.0999 27.0998 12.8002 26.1998 13.3002C26.2722 13.469 26.3213 13.5738 26.3555 13.647C26.3911 13.7229 26.4106 13.7647 26.4236 13.8084C26.4394 13.8616 26.4453 13.9178 26.4587 14.0424C26.4675 14.1251 26.4795 14.238 26.4998 14.4002C26.6564 14.4176 26.8281 14.435 27.0102 14.4534C27.8748 14.541 28.9738 14.6524 29.7998 14.9002C30.3998 15.1002 30.8998 15.3002 31.2998 15.5002C31.2998 15.6008 31.2998 17.1003 31.1998 17.6002Z" fill="white"/>
<path d="M15.5902 38.0082V32.8627H18.6955V33.4155H16.2133V35.1541H18.5348V35.7068H16.2133V37.4554H18.7357V38.0082H15.5902Z" fill="white"/>
<path d="M19.7382 38.0082V34.1491H20.3311V38.0082H19.7382Z" fill="white"/>
<path d="M20.0397 33.5059C19.9241 33.5059 19.8245 33.4665 19.7407 33.3878C19.6586 33.3091 19.6176 33.2145 19.6176 33.1039C19.6176 32.9934 19.6586 32.8987 19.7407 32.82C19.8245 32.7413 19.9241 32.7019 20.0397 32.7019C20.1553 32.7019 20.2541 32.7413 20.3362 32.82C20.4199 32.8987 20.4618 32.9934 20.4618 33.1039C20.4618 33.2145 20.4199 33.3091 20.3362 33.3878C20.2541 33.4665 20.1553 33.5059 20.0397 33.5059Z" fill="white"/>
<path fill-rule="evenodd" clip-rule="evenodd" d="M22.9849 38.0886C22.6365 38.0886 22.3308 38.0057 22.0679 37.8398C21.8066 37.674 21.6022 37.442 21.4548 37.1439C21.3091 36.8458 21.2362 36.4974 21.2362 36.0987C21.2362 35.6967 21.3091 35.3458 21.4548 35.046C21.6022 34.7462 21.8066 34.5134 22.0679 34.3476C22.3308 34.1818 22.6365 34.0988 22.9849 34.0988C23.3333 34.0988 23.6381 34.1818 23.8994 34.3476C24.1624 34.5134 24.3667 34.7462 24.5124 35.046C24.6598 35.3458 24.7335 35.6967 24.7335 36.0987C24.7335 36.4974 24.6598 36.8458 24.5124 37.1439C24.3667 37.442 24.1624 37.674 23.8994 37.8398C23.6381 38.0057 23.3333 38.0886 22.9849 38.0886ZM22.9849 37.5559C23.2495 37.5559 23.4673 37.4881 23.6381 37.3524C23.809 37.2168 23.9354 37.0384 24.0175 36.8173C24.0996 36.5962 24.1406 36.3567 24.1406 36.0987C24.1406 35.8408 24.0996 35.6004 24.0175 35.3777C23.9354 35.1549 23.809 34.9748 23.6381 34.8375C23.4673 34.7001 23.2495 34.6315 22.9849 34.6315C22.7202 34.6315 22.5025 34.7001 22.3317 34.8375C22.1608 34.9748 22.0344 35.1549 21.9523 35.3777C21.8702 35.6004 21.8292 35.8408 21.8292 36.0987C21.8292 36.3567 21.8702 36.5962 21.9523 36.8173C22.0344 37.0384 22.1608 37.2168 22.3317 37.3524C22.5025 37.4881 22.7202 37.5559 22.9849 37.5559Z" fill="white"/>
<path d="M26.2316 35.6867V38.0082H25.6386V34.1491H26.2115V34.7521H26.2617C26.3522 34.5561 26.4895 34.3987 26.6738 34.2797C26.858 34.1591 27.0959 34.0988 27.3873 34.0988C27.6486 34.0988 27.8772 34.1524 28.0732 34.2596C28.2692 34.3652 28.4216 34.526 28.5304 34.742C28.6393 34.9564 28.6938 35.2278 28.6938 35.556V38.0082H28.1008V35.5962C28.1008 35.2931 28.0221 35.0569 27.8647 34.8877C27.7072 34.7169 27.4911 34.6315 27.2164 34.6315C27.0272 34.6315 26.858 34.6725 26.7089 34.7546C26.5615 34.8367 26.4451 34.9564 26.3597 35.1139C26.2743 35.2713 26.2316 35.4622 26.2316 35.6867Z" fill="white"/>
<path fill-rule="evenodd" clip-rule="evenodd" d="M31.3952 38.0886C31.0234 38.0886 30.7027 38.0065 30.433 37.8424C30.165 37.6765 29.9581 37.4454 29.8124 37.1489C29.6684 36.8508 29.5963 36.5041 29.5963 36.1088C29.5963 35.7135 29.6684 35.3651 29.8124 35.0636C29.9581 34.7604 30.1608 34.5243 30.4204 34.3551C30.6817 34.1843 30.9866 34.0988 31.3349 34.0988C31.5359 34.0988 31.7344 34.1323 31.9304 34.1993C32.1264 34.2663 32.3047 34.3752 32.4655 34.526C32.6263 34.675 32.7545 34.8727 32.8499 35.1189C32.9454 35.3651 32.9932 35.6683 32.9932 36.0284V36.2796H30.1906C30.1991 36.5364 30.2489 36.7566 30.34 36.9404C30.4422 37.1414 30.5837 37.2946 30.7646 37.4002C30.9455 37.504 31.1557 37.5559 31.3952 37.5559C31.551 37.5559 31.6917 37.5342 31.8173 37.4906C31.9446 37.4454 32.0543 37.3784 32.1465 37.2896C32.2386 37.1992 32.3098 37.087 32.36 36.953L32.9329 37.1138C32.8726 37.308 32.7712 37.4789 32.6288 37.6263C32.4865 37.772 32.3106 37.8859 32.1012 37.968C31.8919 38.0484 31.6565 38.0886 31.3952 38.0886ZM30.3275 35.2596C30.2485 35.4189 30.2034 35.5881 30.1921 35.7671H32.3902C32.3902 35.5493 32.3466 35.3551 32.2595 35.1842C32.1741 35.0134 32.0518 34.8785 31.8927 34.7797C31.7353 34.6809 31.5493 34.6315 31.3349 34.6315C31.0988 34.6315 30.8944 34.6901 30.7219 34.8073C30.5511 34.9229 30.4196 35.0737 30.3275 35.2596Z" fill="white"/>
<path d="M35.5734 34.1491V34.6516H34.7493V36.9027C34.7493 37.0702 34.7736 37.1958 34.8222 37.2796C34.8724 37.3616 34.9361 37.4169 35.0131 37.4454C35.0919 37.4722 35.1748 37.4856 35.2619 37.4856C35.3272 37.4856 35.3808 37.4822 35.4227 37.4755L35.5232 37.4554L35.6438 37.9881C35.6036 38.0032 35.5475 38.0182 35.4754 38.0333C35.4034 38.0501 35.3121 38.0584 35.2016 38.0584C35.0341 38.0584 34.8699 38.0224 34.7091 37.9504C34.55 37.8784 34.4177 37.7687 34.3122 37.6213C34.2083 37.4739 34.1564 37.2879 34.1564 37.0635V34.6516H33.5735V34.1491H34.1564V33.2245H34.7493V34.1491H35.5734Z" fill="white"/>
<path d="M43.1999 7.1001H45.4999V6.1001H43.0999V4.7001H45.8999V3.7001H41.8999V9.7001H45.9999V8.7001H43.1999V7.1001Z" fill="white"/>
<path d="M49.1999 9.2001C48.8999 9.6001 48.4999 9.7001 47.9999 9.7001C47.4999 9.7001 47.1999 9.60008 46.8999 9.30008C46.5999 9.00008 46.4999 8.6001 46.4999 8.1001V5.2001H47.6999V8.1001C47.6999 8.6001 47.8999 8.80008 48.2999 8.80008C48.6999 8.80008 48.9999 8.70009 49.0999 8.40009V5.2001H50.2999V9.7001H49.1999V9.2001Z" fill="white"/>
<path d="M53.3999 6.30008H53.7999V5.2001C53.6999 5.1001 53.4999 5.1001 53.3999 5.1001C52.9999 5.1001 52.5999 5.3001 52.3999 5.7001V5.2001H51.2999V9.7001H52.4999V6.80008C52.5999 6.50008 52.8999 6.30008 53.3999 6.30008Z" fill="white"/>
<path fill-rule="evenodd" clip-rule="evenodd" d="M54.0999 7.40009C54.0999 7.00009 54.1999 6.6001 54.3999 6.2001C54.5999 5.8001 54.7999 5.60009 55.0999 5.40009C55.3999 5.20009 55.7999 5.1001 56.1999 5.1001C56.7999 5.1001 57.2999 5.3001 57.6999 5.7001C58.0999 6.1001 58.2999 6.6001 58.2999 7.2001V7.50009C58.2999 8.20009 58.0999 8.7001 57.6999 9.2001C57.2999 9.7001 56.7999 9.80008 56.1999 9.80008C55.5999 9.80008 54.9999 9.6001 54.5999 9.2001C54.2999 8.7001 54.0999 8.20009 54.0999 7.40009ZM55.2999 7.50009C55.2999 7.90009 55.3999 8.30009 55.4999 8.50009C55.6999 8.70009 55.8999 8.80008 56.1999 8.80008C56.4999 8.80008 56.6999 8.70009 56.8999 8.50009C57.0999 8.30009 57.0999 7.90009 57.0999 7.40009C57.0999 7.00013 56.9999 6.70016 56.8999 6.40019C56.6999 6.20019 56.4999 6.1001 56.1999 6.1001C55.8999 6.1001 55.6999 6.20009 55.4999 6.40009C55.3999 6.70006 55.2999 7.00013 55.2999 7.50009Z" fill="white"/>
<path fill-rule="evenodd" clip-rule="evenodd" d="M62.5999 9.2001C62.8999 8.7001 63.0999 8.20009 63.0999 7.50009C63.0999 6.70009 62.7999 6.1001 62.4999 5.7001C62.1999 5.3001 61.7999 5.1001 61.1999 5.1001C60.7999 5.1001 60.3999 5.3001 60.0999 5.6001V5.2001H58.9999V11.4001H60.1999V9.30008C60.4999 9.60008 60.7999 9.80008 61.2999 9.80008C61.8999 9.80008 62.2999 9.7001 62.5999 9.2001ZM61.6999 6.40009C61.7999 6.70009 61.8999 7.00009 61.8999 7.40009C61.8999 8.30009 61.5999 8.8001 61.0999 8.7001C60.6999 8.7001 60.3999 8.60008 60.2999 8.30008V6.50009C60.4999 6.20009 60.6999 6.1001 61.0999 6.1001C61.2999 6.1001 61.5999 6.20009 61.6999 6.40009Z" fill="white"/>
<path fill-rule="evenodd" clip-rule="evenodd" d="M65.8999 9.80008C65.1999 9.80008 64.6999 9.6001 64.2999 9.2001C63.8999 8.8001 63.6999 8.3001 63.6999 7.6001V7.50009C63.6999 7.00009 63.7999 6.60008 63.9999 6.30008C64.1999 5.90008 64.3999 5.70009 64.6999 5.50009C64.9999 5.30009 65.3999 5.2001 65.7999 5.2001C66.3999 5.2001 66.8999 5.40008 67.2999 5.80008C67.6999 6.20008 67.7999 6.70009 67.7999 7.40009V7.90009H64.8999C64.8999 8.20009 65.0999 8.4001 65.2999 8.6001C65.4999 8.8001 65.6999 8.90009 65.9999 8.90009C66.4999 8.90009 66.7999 8.70009 67.0999 8.40009L67.6999 9.1001C67.4999 9.4001 67.2999 9.6001 66.9999 9.7001C66.7999 9.7001 66.6249 9.7251 66.4499 9.75009C66.2749 9.77509 66.0999 9.80008 65.8999 9.80008ZM65.7999 6.1001C65.5999 6.1001 65.3999 6.20008 65.1999 6.30008C65.0575 6.3713 65.0165 6.54399 64.9685 6.74587C64.9492 6.82742 64.9287 6.91379 64.8999 7.00009H66.5999V6.90009C66.5999 6.60009 66.4999 6.40008 66.3999 6.30008C66.2999 6.20008 65.9999 6.1001 65.7999 6.1001Z" fill="white"/>
<path fill-rule="evenodd" clip-rule="evenodd" d="M70.8999 9.30008C70.8999 9.50008 70.8999 9.6001 70.9999 9.7001V9.6001H72.1999V9.50009C72.1 9.20015 71.9999 8.90001 71.9999 8.50009V6.6001C71.9999 6.1001 71.7999 5.70009 71.4999 5.40009C71.1999 5.10009 70.7999 5.00009 70.1999 5.00009C69.8 5.00009 69.5 5.10008 69.2 5.20007C68.9 5.30007 68.6999 5.5001 68.4999 5.7001C68.3999 5.90007 68.2999 6.10013 68.2999 6.40009H69.4999C69.4999 6.20009 69.5999 6.10009 69.6999 6.00009C69.7999 5.90009 69.9999 5.90009 70.1999 5.90009C70.3999 5.90009 70.5999 6.0001 70.6999 6.1001C70.7999 6.2001 70.8999 6.4001 70.8999 6.6001V6.90009H70.2999C69.6999 6.90009 69.1999 7.00008 68.7999 7.30008C68.4999 7.60008 68.2999 7.90009 68.2999 8.40009C68.2999 8.80009 68.3999 9.10009 68.6999 9.40009C68.9999 9.70009 69.3999 9.80008 69.7999 9.80008C70.1999 9.80008 70.5999 9.60008 70.8999 9.30008ZM70.5999 8.80008C70.3999 8.90008 70.2999 8.90009 70.0999 8.90009C69.8999 8.90009 69.6999 8.80008 69.6999 8.80008C69.5999 8.70008 69.4999 8.50009 69.4999 8.40009V8.30008C69.5999 7.90008 69.8999 7.7001 70.4999 7.7001H70.8999V8.50009C70.8999 8.56676 70.811 8.63342 70.7221 8.70008C70.6777 8.73339 70.6332 8.76677 70.5999 8.80008Z" fill="white"/>
<path d="M74.0999 5.7001C74.3999 5.3001 74.8999 5.1001 75.3999 5.1001C75.8999 5.1001 76.1999 5.20009 76.4999 5.50009C76.6999 5.80009 76.8999 6.20008 76.8999 6.80008V9.7001H75.6999V6.80008C75.6999 6.56271 75.6373 6.45057 75.5616 6.31502C75.5417 6.27934 75.5207 6.24176 75.4999 6.2001C75.3999 6.0001 75.1999 6.00009 74.8999 6.00009C74.5999 6.00009 74.2999 6.10009 74.0999 6.40009V9.6001H72.9999V5.1001H74.0999V5.7001Z" fill="white"/>
<path d="M81.1999 7.1001H83.5999V6.1001H81.1999V4.7001H83.9999V3.7001H79.9999V9.7001H83.9999V8.7001H81.1999V7.1001Z" fill="white"/>
<path d="M85.7999 5.7001C86.0999 5.3001 86.5999 5.1001 87.0999 5.1001C87.5999 5.1001 87.8999 5.20009 88.1999 5.50009C88.3999 5.80009 88.5999 6.20008 88.5999 6.80008V9.7001H87.3999V6.80008C87.3999 6.56269 87.3373 6.45055 87.2616 6.31499C87.2417 6.27923 87.2208 6.24185 87.1999 6.2001C87.0999 6.0001 86.8999 6.00009 86.5999 6.00009C86.2999 6.00009 85.9999 6.10009 85.7999 6.40009V9.6001H84.5999V5.1001H85.7999V5.7001Z" fill="white"/>
<path d="M91.8999 5.2001L91.0999 8.2001L90.3999 5.2001H89.0999L90.5999 9.7001H91.6999L93.1999 5.2001H91.8999Z" fill="white"/>
<path d="M93.6999 4.00009C93.6999 3.80009 93.7999 3.7001 93.8999 3.6001C93.9999 3.5001 94.1999 3.40009 94.3999 3.40009C94.5999 3.40009 94.7999 3.5001 94.8999 3.6001C94.9999 3.7001 95.0999 3.90009 95.0999 4.00009C95.0999 4.20009 94.9999 4.30009 94.8999 4.40009C94.7999 4.50009 94.5999 4.6001 94.3999 4.6001C94.1999 4.6001 93.9999 4.50009 93.8999 4.40009C93.7999 4.30009 93.6999 4.20009 93.6999 4.00009Z" fill="white"/>
<path d="M93.7999 9.7001V5.2001H94.9999V9.7001H93.7999Z" fill="white"/>
<path d="M98.0999 6.30008H98.4999V5.2001C98.3999 5.1001 98.1999 5.1001 98.0999 5.1001C97.6999 5.1001 97.2999 5.3001 97.0999 5.7001V5.2001H95.9999V9.7001H97.1999V6.80008C97.2999 6.50008 97.5999 6.30008 98.0999 6.30008Z" fill="white"/>
<path fill-rule="evenodd" clip-rule="evenodd" d="M98.6999 7.40009C98.6999 7.00009 98.7999 6.6001 98.9999 6.2001C99.1999 5.8001 99.3999 5.60009 99.6999 5.40009C99.9999 5.20009 100.4 5.1001 100.8 5.1001C101.4 5.1001 101.9 5.3001 102.3 5.7001C102.7 6.1001 102.9 6.6001 102.9 7.2001V7.50009C102.9 8.20009 102.7 8.7001 102.3 9.2001C101.9 9.7001 101.4 9.80008 100.8 9.80008C100.2 9.80008 99.5999 9.6001 99.1999 9.2001C98.8999 8.7001 98.6999 8.20009 98.6999 7.40009ZM99.8999 7.50009C99.8999 7.90009 99.9999 8.30009 100.1 8.50009C100.3 8.70009 100.5 8.80008 100.8 8.80008C101.1 8.80008 101.3 8.70009 101.5 8.50009C101.7 8.30009 101.7 7.90009 101.7 7.40009C101.7 7.00013 101.6 6.70016 101.5 6.40019C101.3 6.20019 101.1 6.1001 100.8 6.1001C100.5 6.1001 100.3 6.20009 100.1 6.40009C99.9999 6.70006 99.8999 7.00013 99.8999 7.50009Z" fill="white"/>
<path d="M104.8 5.7001V5.1001H103.6V9.6001H104.8V6.40009C105 6.10009 105.3 6.00009 105.6 6.00009C105.9 6.00009 106.1 6.0001 106.2 6.2001C106.221 6.24185 106.242 6.27923 106.262 6.31499C106.337 6.45055 106.4 6.56269 106.4 6.80008V9.7001H107.6V6.80008C107.6 6.20008 107.4 5.80009 107.2 5.50009C106.9 5.20009 106.6 5.1001 106.1 5.1001C105.6 5.1001 105.1 5.3001 104.8 5.7001Z" fill="white"/>
<path d="M109.6 5.7001C109.9 5.3001 110.3 5.1001 110.9 5.1001C111.5 5.1001 111.9 5.30008 112.1 5.80008C112.4 5.30008 112.9 5.1001 113.4 5.1001C113.9 5.1001 114.2 5.20009 114.5 5.50009C114.8 5.80009 114.9 6.20008 114.9 6.80008V9.7001H113.7V6.80008C113.7 6.50008 113.7 6.4001 113.6 6.2001C113.5 6.0001 113.3 6.00009 113.1 6.00009C112.7 6.00009 112.5 6.20009 112.4 6.50009V9.6001H111.2V6.7001C111.2 6.46273 111.137 6.35056 111.062 6.215C111.042 6.17924 111.021 6.14185 111 6.1001C110.9 5.9001 110.7 5.90009 110.5 5.90009C110.2 5.90009 109.9 6.00008 109.8 6.30008V9.50009H108.6V5.00009H109.6V5.7001Z" fill="white"/>
<path fill-rule="evenodd" clip-rule="evenodd" d="M116.3 9.2001C116.7 9.6001 117.2 9.80008 117.9 9.80008C118.1 9.80008 118.275 9.77509 118.45 9.75009C118.625 9.7251 118.8 9.7001 119 9.7001C119.3 9.6001 119.5 9.4001 119.7 9.1001L119.1 8.40009C118.8 8.70009 118.5 8.90009 118 8.90009C117.7 8.90009 117.5 8.8001 117.3 8.6001C117.1 8.4001 116.9 8.20009 116.9 7.90009H119.8V7.40009C119.8 6.70009 119.7 6.20008 119.3 5.80008C118.9 5.40008 118.4 5.2001 117.8 5.2001C117.4 5.2001 117 5.30009 116.7 5.50009C116.4 5.70009 116.2 5.90008 116 6.30008C115.8 6.60008 115.7 7.00009 115.7 7.50009V7.6001C115.7 8.3001 115.9 8.8001 116.3 9.2001ZM117.2 6.30008C117.4 6.20008 117.6 6.1001 117.8 6.1001C118 6.1001 118.3 6.20008 118.4 6.30008C118.5 6.40008 118.6 6.60009 118.6 6.90009V7.00009H116.9C116.929 6.91379 116.949 6.82748 116.969 6.74594C117.016 6.54406 117.057 6.3713 117.2 6.30008Z" fill="white"/>
<path d="M121.5 5.7001C121.8 5.3001 122.3 5.1001 122.8 5.1001C123.3 5.1001 123.6 5.20009 123.9 5.50009C124.1 5.80009 124.3 6.20008 124.3 6.80008V9.7001H123.1V6.80008C123.1 6.56271 123.037 6.45057 122.962 6.31502C122.942 6.27934 122.921 6.24176 122.9 6.2001C122.8 6.0001 122.6 6.00009 122.3 6.00009C122 6.00009 121.7 6.10009 121.5 6.40009V9.6001H120.3V5.1001H121.5V5.7001Z" fill="white"/>
<path d="M126.6 5.2001V4.1001H125.5V5.2001H124.8V6.1001H125.5V8.50009C125.5 9.40009 126 9.80008 126.8 9.80008C127 9.80008 127.3 9.80008 127.5 9.7001V8.80008H127.1C126.9 8.80008 126.8 8.80008 126.7 8.7001C126.6 8.6001 126.6 8.50008 126.6 8.30008V6.1001H127.4V5.2001H126.6Z" fill="white"/>
<path d="M43.1999 23.7001H41.9999V17.7001H43.1999V23.7001Z" fill="white"/>
<path d="M45.3999 19.7001V19.1001H44.1999V23.6001H45.3999V20.4001C45.5999 20.1001 45.8999 20.0001 46.1999 20.0001C46.4999 20.0001 46.6999 20.1001 46.7999 20.2001C46.8208 20.2419 46.8417 20.2793 46.8616 20.315C46.9373 20.4506 46.9999 20.5627 46.9999 20.8001V23.7001H48.1999V20.8001C48.1999 20.2001 47.9999 19.8001 47.7999 19.5001C47.4999 19.2001 47.1999 19.1001 46.6999 19.1001C46.1999 19.1001 45.6999 19.3001 45.3999 19.7001Z" fill="white"/>
<path d="M49.3999 23.7001V20.1001H48.6999V19.2001H49.3999V18.8001C49.3999 18.3001 49.4999 17.9001 49.7999 17.6001C50.0999 17.3001 50.4999 17.2001 50.9999 17.2001C51.1999 17.2001 51.4 17.2001 51.5999 17.3001V18.2001H51.1999C50.6999 18.2001 50.4999 18.4001 50.4999 18.8001V19.2001H51.3999V20.1001H50.4999V23.7001H49.3999Z" fill="white"/>
<path fill-rule="evenodd" clip-rule="evenodd" d="M52.1999 20.2001C51.9999 20.6001 51.8999 21.0001 51.8999 21.4001C51.8999 22.2001 52.0999 22.7001 52.3999 23.2001C52.7999 23.6001 53.3999 23.8001 53.9999 23.8001C54.5999 23.8001 55.0999 23.6001 55.4999 23.2001C55.8999 22.7001 56.0999 22.2001 56.0999 21.5001V21.2001C56.0999 20.6001 55.8999 20.1001 55.4999 19.7001C55.0999 19.3001 54.5999 19.1001 53.9999 19.1001C53.5999 19.1001 53.1999 19.2001 52.8999 19.4001C52.6 19.6 52.3999 19.9002 52.1999 20.2001ZM53.2999 22.5001C53.1999 22.3001 53.0999 21.9001 53.0999 21.5001C53.0999 21.0001 53.1999 20.7001 53.2999 20.4001C53.4999 20.2001 53.6999 20.1001 53.9999 20.1001C54.2999 20.1001 54.4999 20.2001 54.6999 20.4001C54.7999 20.7001 54.8999 21.0001 54.8999 21.4001C54.8999 21.9 54.8999 22.3001 54.6999 22.5001C54.4999 22.7001 54.2999 22.8001 53.9999 22.8001C53.6999 22.8001 53.4999 22.7001 53.2999 22.5001Z" fill="white"/>
<path d="M59.4999 20.3001H59.0999C58.5999 20.3001 58.2999 20.5001 58.1999 20.8001V23.7001H56.9999V19.2001H58.0999V19.7001C58.2999 19.3001 58.6999 19.1001 59.0999 19.1001C59.1999 19.1001 59.3999 19.1001 59.4999 19.2001V20.3001Z" fill="white"/>
<path d="M61.1999 19.7001V19.0001H59.9999V23.5001H61.3999V20.3001C61.4999 20.0001 61.7999 19.9001 62.0999 19.9001C62.2999 19.9001 62.4999 19.9001 62.5999 20.1001C62.6208 20.1418 62.6416 20.1792 62.6616 20.215C62.7373 20.3505 62.7999 20.4627 62.7999 20.7001V23.6001H63.9999V20.5001C64.0999 20.2001 64.2999 20.0001 64.6999 20.0001C64.8999 20.0001 65.0999 20.0001 65.1999 20.2001C65.2999 20.4001 65.2999 20.5 65.2999 20.7999V23.7001H66.4999V20.8001C66.4999 20.2001 66.3999 19.8001 66.0999 19.5001C65.7999 19.2001 65.4999 19.1001 64.9999 19.1001C64.4999 19.1001 63.9999 19.3001 63.6999 19.8001C63.4999 19.3001 63.0999 19.1001 62.4999 19.1001C61.8999 19.1001 61.4999 19.3001 61.1999 19.7001Z" fill="white"/>
<path fill-rule="evenodd" clip-rule="evenodd" d="M69.9999 23.7001C69.8999 23.6001 69.8999 23.5001 69.8999 23.3001C69.5999 23.6001 69.1999 23.8001 68.7999 23.8001C68.3999 23.8001 67.9999 23.7001 67.6999 23.4001C67.3999 23.1001 67.2999 22.8001 67.2999 22.4001C67.2999 21.9001 67.4999 21.6001 67.7999 21.3001C68.1999 21.0001 68.6999 20.9001 69.2999 20.9001H69.8999V20.6001C69.8999 20.4001 69.7999 20.2001 69.6999 20.1001C69.5999 20.0001 69.3999 19.9001 69.1999 19.9001C68.9999 19.9001 68.7999 19.9001 68.6999 20.0001C68.5999 20.1001 68.4999 20.2001 68.4999 20.4001H67.2999C67.2999 20.1001 67.3999 19.9002 67.4999 19.7002C67.6999 19.5002 67.8999 19.3001 68.1999 19.2001C68.4999 19.1001 68.8 19.0001 69.1999 19.0001C69.7999 19.0001 70.1999 19.1001 70.4999 19.4001C70.7999 19.7001 70.9999 20.1001 70.9999 20.6001V22.5001C70.9999 22.9 71.0999 23.2 71.1999 23.5L71.1999 23.6001H69.9999V23.7001ZM68.9999 22.9001C69.1999 22.9001 69.2999 22.9001 69.4999 22.8001C69.5332 22.7668 69.5776 22.7335 69.622 22.7001C69.7109 22.6335 69.7999 22.5668 69.7999 22.5001V21.7001H69.3999C68.7999 21.7001 68.4999 21.9001 68.3999 22.3001V22.4001C68.3999 22.5001 68.4999 22.7001 68.5999 22.8001C68.6413 22.8001 68.6828 22.8172 68.7313 22.8373C68.7999 22.8658 68.8828 22.9001 68.9999 22.9001Z" fill="white"/>
<path d="M73.3999 19.2001V18.1001H72.2999V19.2001H71.5999V20.1001H72.2999V22.5001C72.2999 23.4001 72.7999 23.8001 73.5999 23.8001C73.7999 23.8001 74.0999 23.8001 74.2999 23.7001V22.8001H73.8999C73.7 22.8001 73.5999 22.8001 73.4999 22.7001C73.3999 22.6001 73.3999 22.5001 73.3999 22.3001V20.1001H74.1999V19.2001H73.3999Z" fill="white"/>
<path d="M74.7999 18.0001C74.7999 17.8001 74.8999 17.7001 74.9999 17.6001C75.0999 17.5001 75.2999 17.4001 75.4999 17.4001C75.6999 17.4001 75.8999 17.5001 75.9999 17.6001C76.0999 17.7001 76.1999 17.9001 76.1999 18.0001C76.1999 18.2001 76.0999 18.3001 76 18.4001C75.9 18.5001 75.6999 18.6001 75.4999 18.6001C75.2999 18.6001 75.0999 18.5001 74.9999 18.4001C74.8999 18.3001 74.7999 18.2001 74.7999 18.0001Z" fill="white"/>
<path d="M74.8999 23.7001V19.2001H76.0999V23.7001H74.8999Z" fill="white"/>
<path fill-rule="evenodd" clip-rule="evenodd" d="M77.1999 20.2001C76.9999 20.6001 76.8999 21.0001 76.8999 21.4001C76.8999 22.2001 77.0999 22.7001 77.3999 23.2001C77.7999 23.6001 78.3999 23.8001 78.9999 23.8001C79.5999 23.8001 80.0999 23.6001 80.4999 23.2001C80.8999 22.7001 81.0999 22.2001 81.0999 21.5001V21.2001C81.0999 20.6001 80.8999 20.1001 80.4999 19.7001C80.0999 19.3001 79.5999 19.1001 78.9999 19.1001C78.5999 19.1001 78.1999 19.2001 77.8999 19.4001C77.6 19.6001 77.3999 19.9002 77.1999 20.2001ZM78.2999 22.5001C78.1999 22.3001 78.0999 21.9001 78.0999 21.5001C78.0999 21.0001 78.1999 20.7001 78.2999 20.4001C78.4999 20.2001 78.6999 20.1001 78.9999 20.1001C79.2999 20.1001 79.4999 20.2001 79.6999 20.4001C79.7999 20.7001 79.8999 21.0001 79.8999 21.4001C79.8999 21.9 79.8999 22.3001 79.6999 22.5001C79.4999 22.7001 79.2999 22.8001 78.9999 22.8001C78.6999 22.8001 78.4999 22.7001 78.2999 22.5001Z" fill="white"/>
<path d="M82.9999 19.7001C83.2999 19.3001 83.7999 19.1001 84.2999 19.1001C84.7999 19.1001 85.0999 19.2001 85.3999 19.5001C85.5999 19.8001 85.7999 20.2001 85.7999 20.8001V23.7001H84.5999V20.8001C84.5999 20.5627 84.5373 20.4506 84.4616 20.315C84.4417 20.2793 84.4208 20.2419 84.3999 20.2001C84.2999 20.1001 84.0999 20.0001 83.7999 20.0001C83.4999 20.0001 83.1999 20.1001 82.9999 20.4001V23.6001H81.7999V19.1001H82.9999V19.7001Z" fill="white"/>
<path fill-rule="evenodd" clip-rule="evenodd" d="M91.2999 23.3001C91.2999 23.5001 91.2999 23.6001 91.3999 23.7001V23.6001H92.5999V23.5001C92.4999 23.2001 92.3999 22.9 92.3999 22.5001V20.6001C92.3999 20.1001 92.1999 19.7001 91.8999 19.4001C91.5999 19.1001 91.1999 19.0001 90.5999 19.0001C90.2 19.0001 89.9 19.1001 89.6 19.2001C89.3 19.3001 89.0999 19.5001 88.8999 19.7001C88.7999 19.9001 88.6999 20.1001 88.6999 20.4001H89.8999C89.8999 20.2001 89.9999 20.1001 90.0999 20.0001C90.1999 19.9001 90.3999 19.9001 90.5999 19.9001C90.7999 19.9001 90.9999 20.0001 91.0999 20.1001C91.1999 20.2001 91.2999 20.4001 91.2999 20.6001V20.9001H90.6999C90.0999 20.9001 89.5999 21.0001 89.1999 21.3001C88.8999 21.6001 88.6999 21.9001 88.6999 22.4001C88.6999 22.8001 88.7999 23.1001 89.0999 23.4001C89.3999 23.7001 89.7999 23.8001 90.1999 23.8001C90.5999 23.8001 90.9999 23.6001 91.2999 23.3001ZM90.8999 22.8001C90.6999 22.9001 90.5999 22.9001 90.3999 22.9001C90.1999 22.9001 89.9999 22.8001 89.9999 22.8001C89.8999 22.7001 89.7999 22.5001 89.7999 22.4001V22.3001C89.8999 21.9001 90.1999 21.7001 90.7999 21.7001H91.1999V22.5001C91.1999 22.5668 91.111 22.6334 91.0221 22.7001C90.9777 22.7334 90.9332 22.7667 90.8999 22.8001Z" fill="white"/>
<path d="M94.3999 19.7001C94.6999 19.3001 95.1999 19.1001 95.6999 19.1001C96.1999 19.1001 96.4999 19.2001 96.7999 19.5001C96.9999 19.8001 97.1999 20.2001 97.1999 20.8001V23.7001H95.9999V20.8001C95.9999 20.5627 95.9373 20.4506 95.8616 20.315C95.8417 20.2793 95.8207 20.2418 95.7999 20.2001C95.6999 20.1001 95.4999 20.0001 95.1999 20.0001C94.8999 20.0001 94.5999 20.1001 94.3999 20.4001V23.6001H93.1999V19.1001H94.3999V19.7001Z" fill="white"/>
<path fill-rule="evenodd" clip-rule="evenodd" d="M98.3999 19.7001C98.0999 20.1001 97.8999 20.7001 97.8999 21.4001C97.8999 22.2001 97.9999 22.7001 98.2999 23.2001C98.5999 23.6001 99.0999 23.8001 99.5999 23.8001C100.1 23.8001 100.5 23.6001 100.8 23.2001L100.9 23.7001H102V17.3001H100.8V19.6001C100.5 19.3001 100.1 19.1001 99.6999 19.1001C99.0999 19.1001 98.6999 19.3001 98.3999 19.7001ZM99.2999 22.5001C99.1999 22.2001 99.0999 21.9001 99.0999 21.5001C99.0999 20.6001 99.3999 20.1001 99.8999 20.0001C100.3 20.0001 100.6 20.2001 100.7 20.5001V22.3001C100.5 22.6001 100.3 22.8001 99.8999 22.8001C99.6999 22.8001 99.3999 22.8001 99.2999 22.5001Z" fill="white"/>
<path fill-rule="evenodd" clip-rule="evenodd" d="M46.8999 34.8001C46.8999 35.4001 46.7999 35.9001 46.5999 36.4001C46.3999 36.8001 46.0999 37.2001 45.6999 37.4001C45.2999 37.6001 44.8999 37.8001 44.3999 37.8001C43.8999 37.8001 43.4999 37.7001 43.0999 37.4001C42.6999 37.2001 42.3999 36.8001 42.1999 36.4001C41.9999 36.0001 41.8999 35.4001 41.8999 34.9001V34.6001C41.8999 34.0001 41.9999 33.5001 42.1999 33.0001C42.3999 32.5001 42.6999 32.2001 43.0999 32.0001C43.4999 31.8001 43.8999 31.6001 44.3999 31.6001C44.8999 31.6001 45.3999 31.7001 45.6999 32.0001C45.7734 32.0736 45.8529 32.1471 45.934 32.2221C46.1839 32.4531 46.4489 32.6981 46.5999 33.0001C46.7999 33.5001 46.8999 34.0001 46.8999 34.6001V34.8001ZM45.5999 34.5001C45.5999 33.9001 45.4999 33.4001 45.2999 33.1001C45.0999 32.8001 44.6999 32.6001 44.2999 32.6001C43.8999 32.6001 43.5999 32.8001 43.2999 33.1001C43.0999 33.4001 42.9999 33.9001 42.9999 34.5001V34.8001C42.9999 35.4001 43.0999 35.9001 43.2999 36.2001C43.4999 36.5001 43.8999 36.7001 44.2999 36.7001C44.6999 36.7001 44.9999 36.5001 45.2999 36.2001C45.4999 35.9001 45.5999 35.4001 45.5999 34.8001V34.5001Z" fill="white"/>
<path fill-rule="evenodd" clip-rule="evenodd" d="M51.2999 37.2001C51.5999 36.8001 51.7999 36.2001 51.7999 35.5001C51.7999 34.7001 51.5999 34.1001 51.1999 33.7001C50.8999 33.3001 50.3999 33.1001 49.8999 33.1001C49.3999 33.1001 49.0999 33.3001 48.7999 33.6001V31.3001H47.5999V37.7001H48.6999L48.7999 37.2001C49.0999 37.6001 49.4999 37.8001 49.9999 37.8001C50.5999 37.8001 50.9999 37.6001 51.2999 37.2001ZM50.3999 34.4001C50.4999 34.6001 50.5999 34.9001 50.5999 35.4001C50.5999 35.5469 50.5864 35.6802 50.5743 35.8C50.5535 36.0068 50.5366 36.1735 50.5999 36.3001C50.3999 36.7001 50.1999 36.9001 49.7999 36.9001C49.3999 36.9001 49.0999 36.7001 48.9999 36.4001V34.6001C49.1999 34.3001 49.3999 34.1001 49.7999 34.1001C49.9999 34.1001 50.2999 34.2001 50.3999 34.4001Z" fill="white"/>
<path d="M54.8999 36.5001C54.8999 36.4001 54.7999 36.2001 54.6999 36.2001C54.5999 36.1001 54.2999 36.0001 53.9999 36.0001C52.8999 35.8001 52.3999 35.3001 52.3999 34.6001C52.3999 34.2001 52.5999 33.9001 52.8999 33.6001C53.1999 33.3001 53.6999 33.2001 54.1999 33.2001C54.7999 33.2001 55.1999 33.3001 55.5999 33.6001C55.8999 33.9001 56.0999 34.2001 56.0999 34.6001H54.8999C54.8999 34.4001 54.7999 34.3001 54.6999 34.2001C54.5999 34.1001 54.3999 34.0001 54.1999 34.0001C53.9999 34.0001 53.7999 34.0001 53.6999 34.1001C53.5999 34.2001 53.4999 34.3001 53.4999 34.4001C53.4999 34.5001 53.5999 34.6001 53.6999 34.7001C53.7999 34.8001 53.9999 34.9001 54.2999 34.9001C54.4375 34.9459 54.5751 34.9708 54.703 34.9939C54.854 35.0211 54.9916 35.046 55.0999 35.1001C55.6999 35.3001 56.0999 35.7001 56.0999 36.3001C56.0999 36.7001 55.8999 37.0001 55.5999 37.3001C55.1999 37.6001 54.7999 37.7001 54.1999 37.7001C53.8 37.7001 53.5 37.6001 53.2 37.5001C52.9 37.4001 52.6999 37.2001 52.4999 36.9001C52.2999 36.7001 52.2999 36.4001 52.2999 36.1001H53.3999C53.3999 36.3001 53.4999 36.5001 53.5999 36.6001C53.6999 36.7001 53.8999 36.8001 54.1999 36.8001C54.3999 36.8001 54.5999 36.8001 54.6999 36.7001C54.7381 36.6619 54.7763 36.6383 54.8089 36.6181C54.8617 36.5855 54.8999 36.5619 54.8999 36.5001Z" fill="white"/>
<path fill-rule="evenodd" clip-rule="evenodd" d="M57.2999 37.2001C57.6999 37.6001 58.1999 37.8001 58.8999 37.8001C59.0999 37.8001 59.2749 37.7751 59.4499 37.7501C59.6249 37.7251 59.7999 37.7001 59.9999 37.7001C60.2999 37.6001 60.4999 37.4001 60.6999 37.1001L60.0999 36.4001C59.7999 36.7001 59.4999 36.9001 58.9999 36.9001C58.6999 36.9001 58.4999 36.8001 58.2999 36.6001C58.0999 36.4001 57.8999 36.2001 57.8999 35.9001H60.7999V35.4001C60.7999 34.7001 60.6999 34.2001 60.2999 33.8001C59.8999 33.4001 59.3999 33.2001 58.7999 33.2001C58.3999 33.2001 57.9999 33.3001 57.6999 33.5001C57.3999 33.7001 57.1999 33.9001 56.9999 34.3001C56.7999 34.6001 56.6999 35.0001 56.6999 35.5001V35.6001C56.6999 36.3001 56.8999 36.8001 57.2999 37.2001ZM58.1999 34.3001C58.3999 34.2001 58.5999 34.1001 58.7999 34.1001C59.0999 34.1001 59.2999 34.2001 59.3999 34.3001C59.4999 34.4001 59.5999 34.6001 59.5999 34.9001V35.0001H57.8999C57.9999 34.7002 58.1 34.5 58.1999 34.3001Z" fill="white"/>
<path d="M63.9999 34.3001H63.5999C63.0999 34.3001 62.7999 34.5001 62.6999 34.8001V37.7001H61.4999V33.2001H62.5999V33.7001C62.7999 33.3001 63.1999 33.1001 63.5999 33.1001C63.6999 33.1001 63.8999 33.1001 63.9999 33.2001V34.3001Z" fill="white"/>
<path d="M68.3999 33.2001H67.0999L66.2999 36.2001L65.5999 33.2001H64.2999L65.7999 37.7001H66.8999L68.3999 33.2001Z" fill="white"/>
<path fill-rule="evenodd" clip-rule="evenodd" d="M71.4999 37.7001C71.3999 37.6001 71.3999 37.5001 71.3999 37.3001C71.0999 37.6001 70.6999 37.8001 70.2999 37.8001C69.8999 37.8001 69.4999 37.7001 69.1999 37.4001C68.8999 37.1001 68.7999 36.8001 68.7999 36.4001C68.7999 35.9001 68.9999 35.6001 69.2999 35.3001C69.6999 35.0001 70.1999 34.9001 70.7999 34.9001H71.3999V34.6001C71.3999 34.4001 71.2999 34.2001 71.1999 34.1001C71.0999 34.0001 70.8999 33.9001 70.6999 33.9001C70.4999 33.9001 70.2999 33.9001 70.1999 34.0001C70.0999 34.1001 69.9999 34.2001 69.9999 34.4001H68.7999C68.7999 34.1001 68.8999 33.9002 68.9999 33.7002C69.1999 33.5002 69.3999 33.3001 69.6999 33.2001C69.9999 33.1001 70.3 33.0001 70.6999 33.0001C71.2999 33.0001 71.6999 33.1001 71.9999 33.4001C72.2999 33.7001 72.4999 34.1001 72.4999 34.6001V36.5001C72.4999 36.9 72.5999 37.2 72.6999 37.4999L72.6999 37.6001H71.4999V37.7001ZM70.4999 36.9001C70.6999 36.9001 70.7999 36.9001 70.9999 36.8001C71.0332 36.7667 71.0777 36.7334 71.1221 36.7001C71.211 36.6334 71.2999 36.5668 71.2999 36.5001V35.7001H70.8999C70.2999 35.7001 69.9999 35.9001 69.8999 36.3001V36.4001C69.8999 36.5001 69.9999 36.7001 70.0999 36.8001C70.1413 36.8001 70.1828 36.8172 70.2313 36.8373C70.2999 36.8658 70.3828 36.9001 70.4999 36.9001Z" fill="white"/>
<path d="M74.8999 33.2001V32.1001H73.6999V33.2001H72.9999V34.1001H73.7999V36.5001C73.7999 37.4001 74.2999 37.8001 75.0999 37.8001C75.2999 37.8001 75.5999 37.8001 75.7999 37.7001V36.8001H75.3999C75.2 36.8001 75.0999 36.8001 74.9999 36.7001C74.8999 36.6001 74.8999 36.5001 74.8999 36.3001V34.1001H75.6999V33.2001H74.8999Z" fill="white"/>
<path d="M76.2999 32.0001C76.2999 31.8001 76.3999 31.7001 76.4999 31.6001C76.5999 31.5001 76.7999 31.4001 76.9999 31.4001C77.1999 31.4001 77.3999 31.5001 77.4999 31.6001C77.5999 31.7001 77.6999 31.9001 77.6999 32.0001C77.6999 32.2001 77.5999 32.3001 77.4999 32.4001C77.3999 32.5001 77.1999 32.6001 76.9999 32.6001C76.7999 32.6001 76.5999 32.5001 76.4999 32.4001C76.3999 32.4001 76.2999 32.2001 76.2999 32.0001Z" fill="white"/>
<path d="M76.3999 37.7001V33.2001H77.5999V37.7001H76.3999Z" fill="white"/>
<path fill-rule="evenodd" clip-rule="evenodd" d="M78.6999 34.2001C78.4999 34.6001 78.3999 35.0001 78.3999 35.4001C78.3999 36.2001 78.5999 36.7001 78.8999 37.2001C79.2999 37.6001 79.8999 37.8001 80.4999 37.8001C81.0999 37.8001 81.5999 37.6001 81.9999 37.2001C82.3999 36.7001 82.5999 36.2001 82.5999 35.5001V35.2001C82.5999 34.6001 82.3999 34.1001 81.9999 33.7001C81.5999 33.3001 81.0999 33.1001 80.4999 33.1001C80.0999 33.1001 79.6999 33.2001 79.3999 33.4001C79.1 33.6001 78.8999 33.9002 78.6999 34.2001ZM79.7999 36.5001C79.6999 36.3001 79.5999 35.9001 79.5999 35.5001C79.5999 35.0002 79.5999 34.7001 79.7999 34.4001C79.9999 34.2001 80.1999 34.1001 80.4999 34.1001C80.7999 34.1001 80.9999 34.2001 81.1999 34.4001C81.2999 34.7001 81.3999 35.0001 81.3999 35.4001C81.3999 35.9 81.3999 36.3001 81.1999 36.5001C80.9999 36.7001 80.7999 36.8001 80.4999 36.8001C80.1999 36.8001 79.9999 36.7001 79.7999 36.5001Z" fill="white"/>
<path d="M84.4999 33.7001C84.7999 33.3001 85.2999 33.1001 85.7999 33.1001C86.2999 33.1001 86.5999 33.2001 86.8999 33.5001C87.0999 33.8001 87.2999 34.2001 87.2999 34.8001V37.7001H85.9999V34.8001C85.9999 34.5627 85.9373 34.4506 85.8616 34.315C85.8418 34.2795 85.8206 34.2415 85.7999 34.2001C85.6999 34.1001 85.4999 34.0001 85.1999 34.0001C84.8999 34.0001 84.5999 34.1001 84.3999 34.4001V37.6001H83.1999V33.1001H84.4999V33.7001Z" fill="white"/>
<path d="M93.9999 37.7001H95.1999V31.7001H93.9999V35.7001L91.5999 31.7001H90.3999V37.7001H91.5999V33.7001L93.9999 37.7001Z" fill="white"/>
<path fill-rule="evenodd" clip-rule="evenodd" d="M98.2999 37.8001C97.5999 37.8001 97.0999 37.6001 96.6999 37.2001C96.2999 36.8001 96.0999 36.3001 96.0999 35.6001V35.5001C96.0999 35.0001 96.1999 34.6001 96.3999 34.3001C96.5999 33.9001 96.7999 33.7001 97.0999 33.5001C97.3999 33.3001 97.7999 33.2001 98.1999 33.2001C98.7999 33.2001 99.2999 33.4001 99.6999 33.8001C100.1 34.2001 100.2 34.7001 100.2 35.4001V35.9001H97.2999C97.2999 36.2001 97.4999 36.4001 97.6999 36.6001C97.8999 36.8001 98.0999 36.9001 98.3999 36.9001C98.8999 36.9001 99.1999 36.7001 99.4999 36.4001L100.1 37.1001C99.8999 37.4001 99.6999 37.6001 99.3999 37.7001C99.1999 37.7001 99.0249 37.7251 98.8499 37.7501C98.6749 37.7751 98.4999 37.8001 98.2999 37.8001ZM98.1999 34.1001C97.9999 34.1001 97.7999 34.2001 97.5999 34.3001C97.4999 34.5 97.3999 34.7002 97.2999 35.0001H98.9999V34.9001C98.9999 34.6001 98.8999 34.4001 98.7999 34.3001C98.6999 34.2001 98.3999 34.1001 98.1999 34.1001Z" fill="white"/>
<path d="M102.3 33.2001V32.1001H101.2V33.2001H100.5V34.1001H101.2V36.5001C101.2 37.4001 101.7 37.8001 102.5 37.8001C102.7 37.8001 103 37.8001 103.2 37.7001V36.8001H102.8C102.6 36.8001 102.5 36.8001 102.4 36.7001C102.3 36.6001 102.3 36.5001 102.3 36.3001V34.1001H103.1V33.2001H102.3Z" fill="white"/>
<path d="M107.6 36.1001L108.2 33.2001H109.4L108.3 37.7001H107.3L106.4 34.9001L105.5 37.7001H104.5L103.4 33.2001H104.6L105.2 36.1001L106 33.2001H106.9L107.6 36.1001Z" fill="white"/>
<path fill-rule="evenodd" clip-rule="evenodd" d="M110.1 34.2001C109.9 34.6001 109.8 35.0001 109.8 35.4001C109.8 36.2001 110 36.7001 110.3 37.2001C110.7 37.6001 111.3 37.8001 111.9 37.8001C112.5 37.8001 113 37.6001 113.4 37.2001C113.8 36.7001 114 36.2001 114 35.5001V35.2001C114 34.6001 113.8 34.1001 113.4 33.7001C113 33.3001 112.5 33.1001 111.9 33.1001C111.5 33.1001 111.1 33.2001 110.8 33.4001C110.5 33.6001 110.3 33.9002 110.1 34.2001ZM111.2 36.5001C111.1 36.3001 111 35.9001 111 35.5001C111 35.0001 111 34.7001 111.2 34.4001C111.4 34.2001 111.6 34.1001 111.9 34.1001C112.2 34.1001 112.4 34.2001 112.6 34.4001C112.7 34.7001 112.8 35.0001 112.8 35.4001C112.8 35.9 112.8 36.3001 112.6 36.5001C112.4 36.7001 112.2 36.8001 111.9 36.8001C111.6 36.8001 111.4 36.7001 111.2 36.5001Z" fill="white"/>
<path d="M117.3 34.3001H116.9C116.4 34.3001 116.1 34.5001 116 34.8001V37.7001H114.8V33.2001H115.9V33.7001C116.1 33.3001 116.5 33.1001 116.9 33.1001C117 33.1001 117.2 33.1001 117.3 33.2001V34.3001Z" fill="white"/>
<path d="M119.1 36.3001L119.5 35.9001L120.6 37.7001H122L120.2 35.1001L121.8 33.2001H120.4L119.3 34.5001L119.1 34.8001V31.3001H117.9V37.7001H119.1V36.3001Z" fill="white"/>
</g>
<defs>
<clipPath id="clip0_23_965">
<rect width="128" height="39" fill="white"/>
</clipPath>
</defs>
</svg>
