<svg width="193" height="60" viewBox="0 0 193 60" fill="none" xmlns="http://www.w3.org/2000/svg">
<path fill-rule="evenodd" clip-rule="evenodd" d="M55.0722 22.1035C55.521 22.6989 55.9241 23.3035 56.2996 23.9264C53.2218 15.5906 46.9562 7.27318 36.1381 0C32.9228 2.00608 30.1198 4.13123 27.6924 6.33883C40.5075 8.35407 49.3837 14.528 55.0722 22.1035Z" fill="white"/>
<path d="M41.9903 15.6643C29.9904 12.44 15.1418 14.4644 0 27.7375C5.99992 47.3036 18.2929 56.0058 30.366 59.2302C42.3658 62.4546 54.7321 55.2546 57.9565 43.264C61.19 31.2641 53.9901 18.8887 41.9903 15.6643ZM17.7707 36.8885L19.4196 36.8152L20.015 35.1664L20.5371 36.8152H22.1859L20.8394 37.8686L21.4348 39.5175L20.0058 38.464L18.5768 39.5175L19.099 37.8686L17.7707 36.8885ZM23.6241 47.7616L22.1951 46.7082L20.7661 47.6792L21.2883 46.0304L19.9417 44.9769H21.6638L22.1859 43.4014L22.7081 44.9769H24.4302L23.0836 46.1036L23.6241 47.7616ZM23.0928 29.6886L23.6149 31.3374L22.1859 30.284L20.757 31.3374L21.2791 29.6886L19.9325 28.6352H21.6547L22.1768 27.0596L22.6989 28.6352H24.421L23.0928 29.6886ZM29.0927 52.0303L29.6149 53.6791L28.1859 52.6257L26.7569 53.6791L27.279 52.0303L25.85 50.9769H27.6454L28.1676 49.328L28.6897 50.9769H30.4118L29.0927 52.0303ZM29.0927 23.6887L29.6149 25.4108L28.1859 24.2841L26.7569 25.4108L27.279 23.6887L25.85 22.7177H27.6454L28.1676 21.0689L28.6897 22.7177H30.4118L29.0927 23.6887ZM37.7949 55.9325L36.3659 54.8058L34.9369 55.8592L35.5415 54.2104L34.1125 53.2394L35.8346 53.1661L36.3567 51.5906L36.8789 53.1661H38.601L37.2544 54.2196L37.7949 55.9325ZM37.2728 21.4444L37.7949 23.1665L36.3659 22.0399L34.9369 23.0933L35.5415 21.4444L34.1125 20.4734L35.8346 20.4002L36.3567 18.8246L36.8789 20.4002H38.601L37.2728 21.4444ZM46.0391 53.6791L44.6101 52.6257L43.1078 53.6791L43.6299 52.0303L42.2834 50.9769H44.0055L44.6009 49.328L45.0498 50.9769H46.7719L45.4253 52.0303L46.0391 53.6791ZM45.4436 23.6887L46.0482 25.4108L44.6192 24.2841L43.117 25.4108L43.6391 23.6887L42.2925 22.7177H44.0147L44.6101 21.0689L45.0589 22.7177H46.781L45.4436 23.6887ZM51.9657 47.7616L50.5367 46.7082L49.1077 47.6792L49.6299 46.0304L48.2833 44.9769H50.0054L50.5275 43.4014L51.0497 44.9769H52.7718L51.4252 46.1036L51.9657 47.7616ZM53.3122 36.8152H55.0344L53.6878 37.8686L54.2099 39.5175L52.8634 38.464L51.3611 39.5175L51.8832 37.8686L50.5367 36.8977L52.2588 36.8244L52.8634 35.1755L53.3122 36.8152ZM51.4436 29.6886L51.9657 31.3374L50.5367 30.284L49.1077 31.3374L49.6299 29.6886L48.2833 28.6352H50.0054L50.5275 27.0596L51.0497 28.6352H52.7718L51.4436 29.6886Z" fill="white"/>
<path d="M67.0986 31.6484H70.9092V29.6973H67.0986V27.279H71.1749V25.3096H64.6895V35.9079H67.0986V31.6484Z" fill="white"/>
<path d="M76.1764 28.0488C73.7032 28.0488 72.0635 29.6427 72.0635 32.1251C72.0635 34.6167 73.7948 36.0915 76.0482 36.0915C78.1092 36.0915 80.1153 34.7999 80.1153 31.9786C80.1061 29.6702 78.5306 28.0488 76.1764 28.0488ZM76.1123 34.3785C75.0863 34.3785 74.5367 33.3801 74.5367 32.061C74.5367 30.9251 74.9673 29.7435 76.1123 29.7435C77.2023 29.7435 77.642 30.916 77.642 32.061C77.642 33.4533 77.0466 34.3785 76.1123 34.3785Z" fill="white"/>
<path d="M81.2784 35.9174H83.6692V32.0152C83.6692 31.832 83.6875 31.6396 83.715 31.4839C83.8707 30.7419 84.4661 30.2656 85.3455 30.2656C85.6111 30.2656 85.8218 30.2931 85.9867 30.3297V28.0763C85.8126 28.0488 85.7027 28.0488 85.4829 28.0488C84.7409 28.0488 83.7974 28.5251 83.4035 29.6427H83.3394L83.2661 28.2229H81.2051C81.2326 28.8824 81.2692 29.6244 81.2692 30.7602V35.9174H81.2784Z" fill="white"/>
<path d="M90.8043 36.0729C91.8486 36.0729 92.8104 35.9172 93.589 35.5966L93.2776 33.9752C92.6364 34.1768 91.9768 34.2867 91.1524 34.2867C90.0349 34.2867 89.0547 33.8104 88.9815 32.8211V32.8119H93.9463C93.9737 32.6378 94.0195 32.2806 94.0195 31.8684C94.0195 29.9631 93.0761 28.0303 90.5845 28.0303C87.9097 28.0303 86.6914 30.1921 86.6914 32.1432C86.6914 34.5523 88.1845 36.0729 90.8043 36.0729ZM90.4379 29.6333C91.5372 29.6333 91.7936 30.6043 91.7936 31.1905H88.9631C89.0181 30.5493 89.4303 29.6333 90.4379 29.6333Z" fill="white"/>
<path d="M97.5004 34.4155C96.795 34.4155 95.879 34.1041 95.4393 33.8293L95.0088 35.5422C95.595 35.8537 96.4927 36.0735 97.5004 36.0735C99.708 36.0735 100.835 35.0201 100.835 33.582C100.816 32.4461 100.203 31.7041 98.7461 31.2095C97.8026 30.8705 97.5004 30.6873 97.5004 30.3209C97.5004 29.927 97.8301 29.6889 98.4164 29.6889C99.0851 29.6889 99.7446 29.9454 100.093 30.1286L100.523 28.4797C100.047 28.2416 99.25 28.04 98.3523 28.04C96.4469 28.04 95.2195 29.1301 95.2195 30.5591C95.2012 31.4751 95.8149 32.3453 97.4088 32.8766C98.3065 33.1789 98.5446 33.3713 98.5446 33.7652C98.5171 34.159 98.224 34.4155 97.5004 34.4155Z" fill="white"/>
<path d="M102.612 33.1425C102.612 34.2234 102.832 34.9654 103.272 35.4234C103.648 35.8173 104.289 36.0829 105.067 36.0829C105.745 36.0829 106.313 36.0096 106.625 35.8814L106.606 34.0768C106.432 34.1043 106.203 34.1409 105.901 34.1409C105.177 34.1409 104.957 33.7104 104.957 32.7852V30.0006H106.67V28.2418H104.957V26.0342L102.612 26.5746V28.251H101.596V30.0097H102.612V33.1425Z" fill="white"/>
<path d="M113.101 25.3096H110.691V35.917H113.101V25.3096Z" fill="white"/>
<path d="M118.844 29.9812C119.714 29.9812 120.062 30.6591 120.062 31.6576V35.9262H122.453V31.3644C122.453 29.1019 121.271 28.0576 119.705 28.0576C118.431 28.0576 117.644 28.7996 117.323 29.2851H117.277L117.167 28.2316H115.088C115.115 28.9095 115.152 29.7339 115.152 30.6866H115.143V35.9262H117.534V31.4835C117.534 31.2545 117.57 31.0255 117.634 30.8881C117.79 30.4393 118.184 29.9812 118.844 29.9812Z" fill="white"/>
<path d="M124.642 35.9178H127.042V29.982H128.572V28.2233H127.024V27.8294C127.024 27.0691 127.354 26.4554 128.142 26.4554C128.453 26.4554 128.71 26.5103 128.911 26.5653L129.012 24.7241C128.682 24.6233 128.27 24.5684 127.739 24.5684C127.052 24.5684 126.218 24.7699 125.613 25.3378C124.926 25.9699 124.642 26.9867 124.642 27.921V28.2233H123.635V29.982H124.642V35.9178Z" fill="white"/>
<path d="M133.125 36.0918C135.186 36.0918 137.192 34.8003 137.192 31.9789C137.192 29.6614 135.626 28.04 133.254 28.04C130.78 28.04 129.141 29.6339 129.141 32.1163C129.141 34.6171 130.872 36.0918 133.125 36.0918ZM133.189 29.753C134.279 29.753 134.719 30.9255 134.719 32.0705C134.719 33.4537 134.124 34.388 133.189 34.388C132.163 34.388 131.614 33.3896 131.614 32.0705C131.614 30.9255 132.044 29.753 133.189 29.753Z" fill="white"/>
<path d="M142.743 30.2656C143.009 30.2656 143.219 30.2931 143.384 30.3297V28.0763C143.21 28.0488 143.1 28.0488 142.88 28.0488C142.148 28.0488 141.204 28.5251 140.801 29.6427H140.737L140.664 28.2229H138.603C138.63 28.8824 138.667 29.6244 138.667 30.7602V35.9266H141.057V32.0243C141.057 31.8411 141.076 31.6488 141.103 31.4931C141.268 30.7419 141.864 30.2656 142.743 30.2656Z" fill="white"/>
<path d="M151.619 35.9174V31.4106C151.619 31.2274 151.656 30.9709 151.72 30.7969C151.876 30.3389 152.279 29.9633 152.819 29.9633C153.589 29.9633 153.955 30.6045 153.955 31.7221V35.9174H156.291V31.3831C156.291 29.0931 155.173 28.0488 153.699 28.0488C153.14 28.0488 152.663 28.1679 152.233 28.4244C151.876 28.6534 151.528 28.9648 151.244 29.3496H151.216C150.886 28.5435 150.099 28.0488 149.109 28.0488C147.781 28.0488 147.103 28.7725 146.774 29.2671H146.728L146.618 28.2229H144.603C144.63 28.9007 144.667 29.7251 144.667 30.6778H144.648V35.9174H146.984V31.4381C146.984 31.2549 147.003 31.0259 147.085 30.8427C147.232 30.4488 147.589 29.9816 148.202 29.9816C148.963 29.9816 149.302 30.6411 149.302 31.6121V35.9266L151.619 35.9174Z" fill="white"/>
<path d="M162.392 35.1483H162.438L162.585 35.9178H164.746C164.664 35.4873 164.636 34.7819 164.636 34.04V31.3652C164.636 29.5606 163.821 28.04 161.256 28.04C159.855 28.04 158.792 28.4156 158.261 28.7179L158.701 30.266C159.204 29.9545 160.038 29.6797 160.826 29.6797C162.007 29.6797 162.227 30.2568 162.227 30.669V30.7789C159.498 30.7606 157.702 31.7224 157.702 33.7285C157.702 34.956 158.627 36.0918 160.194 36.0918C161.101 36.0918 161.888 35.7621 162.392 35.1483ZM162.291 32.2812V33.1148C162.291 33.2613 162.273 33.3987 162.246 33.527C162.09 34.0216 161.604 34.4155 161 34.4155C160.469 34.4155 160.056 34.1132 160.056 33.4995C160.056 32.5652 161.036 32.272 162.291 32.2812Z" fill="white"/>
<path d="M166.715 33.1425C166.715 34.2234 166.935 34.9654 167.375 35.4234C167.75 35.8173 168.391 36.0829 169.17 36.0829C169.848 36.0829 170.416 36.0096 170.727 35.8814L170.709 34.0768C170.535 34.1043 170.306 34.1409 170.004 34.1409C169.28 34.1409 169.06 33.7104 169.06 32.7852V30.0006H170.773V28.2418H169.06V26.0342L166.715 26.5746V28.251H165.698V30.0097H166.715V33.1425Z" fill="white"/>
<path d="M173.348 27.2796C174.136 27.2796 174.639 26.7392 174.639 26.0796C174.621 25.3835 174.136 24.8613 173.366 24.8613C172.597 24.8613 172.093 25.3835 172.102 26.0796C172.084 26.7483 172.588 27.2796 173.348 27.2796Z" fill="white"/>
<path d="M174.557 28.2227H172.166V35.9264H174.557V28.2227Z" fill="white"/>
<path d="M180.144 28.0488C177.671 28.0488 176.031 29.6427 176.031 32.1251C176.031 34.6167 177.763 36.0915 180.016 36.0915C182.077 36.0915 184.083 34.7999 184.083 31.9786C184.083 29.6702 182.507 28.0488 180.144 28.0488ZM180.089 34.3785C179.072 34.3785 178.514 33.3801 178.514 32.061C178.514 30.9251 178.944 29.7435 180.089 29.7435C181.179 29.7435 181.619 30.916 181.619 32.061C181.619 33.4533 181.014 34.3785 180.089 34.3785Z" fill="white"/>
<path d="M189.808 28.0488C188.534 28.0488 187.747 28.7908 187.435 29.2763H187.389L187.28 28.2229H185.2C185.228 28.9007 185.264 29.7251 185.264 30.6778H185.255V35.9174H187.646V31.4747C187.646 31.2457 187.683 31.0167 187.747 30.8793C187.902 30.4396 188.306 29.9816 188.965 29.9816C189.835 29.9816 190.183 30.6595 190.183 31.6579V35.9266H192.574V31.3648C192.556 29.0931 191.383 28.0488 189.808 28.0488Z" fill="white"/>
<path d="M68.8204 43.1082C67.4556 42.5861 66.8601 42.2838 66.8601 41.606C66.8601 41.0564 67.364 40.5892 68.4082 40.5892C69.4525 40.5892 70.2036 40.8915 70.625 41.093L71.1563 39.1602C70.5242 38.8854 69.6448 38.6289 68.4448 38.6289C65.9441 38.6289 64.4327 40.0121 64.4327 41.8258C64.4327 43.3739 65.5777 44.3449 67.3456 44.9586C68.6189 45.4166 69.1227 45.8013 69.1227 46.4609C69.1227 47.1479 68.5365 47.6059 67.4372 47.6059C66.4113 47.6059 65.422 47.2761 64.7716 46.9464L64.2861 48.925C64.8815 49.2547 66.0815 49.5662 67.2907 49.5662C70.2036 49.5662 71.5685 48.0547 71.5685 46.2777C71.5776 44.7846 70.6983 43.8044 68.8204 43.1082Z" fill="white"/>
<path d="M76.5889 45.499C76.479 45.9387 76.3599 46.5158 76.2408 46.928H76.195C76.1034 46.5249 75.9477 45.957 75.8194 45.499L74.6744 41.7158H72.0088L74.8301 48.76C74.9309 48.9432 74.94 49.0715 74.94 49.1539C74.94 49.2638 74.8851 49.3829 74.8118 49.502C74.5828 49.8959 74.1798 50.2714 73.8225 50.4638C73.4561 50.6928 73.0805 50.8302 72.7783 50.876L73.2821 52.9096C73.8775 52.8271 74.766 52.5798 75.5996 51.8561C76.4606 51.0867 77.2026 49.8501 78.311 46.7997L80.1064 41.7342H77.5415L76.5889 45.499Z" fill="white"/>
<path d="M84.4659 44.7114C83.5224 44.3817 83.2201 44.1893 83.2201 43.8229C83.2201 43.429 83.5499 43.1908 84.1361 43.1908C84.8048 43.1908 85.4643 43.4473 85.8124 43.6305L86.2429 41.9817C85.7666 41.7435 84.9697 41.542 84.072 41.542C82.1667 41.542 80.9392 42.6321 80.9392 44.061C80.9209 44.9771 81.5346 45.8473 83.1285 46.3786C84.0262 46.6809 84.2643 46.8732 84.2643 47.2671C84.2643 47.661 83.9712 47.9083 83.2476 47.9083C82.5422 47.9083 81.6262 47.5969 81.1865 47.3221L80.7285 49.0442C81.3148 49.3556 82.2125 49.5755 83.2201 49.5755C85.4277 49.5755 86.5544 48.5221 86.5544 47.0839C86.5452 45.9481 85.9315 45.2061 84.4659 44.7114Z" fill="white"/>
<path d="M90.686 39.5078L88.341 40.0483V41.7246H87.3242V43.4833H88.341V46.6344C88.341 47.7153 88.5608 48.4573 89.0005 48.9153C89.3761 49.3092 90.0173 49.5748 90.7959 49.5748C91.4738 49.5748 92.0417 49.5016 92.3532 49.3733L92.3348 47.5688C92.1608 47.5962 91.9318 47.6329 91.6295 47.6329C90.9058 47.6329 90.686 47.2023 90.686 46.2772V43.4925H92.399V41.7337H90.686V39.5078Z" fill="white"/>
<path d="M97.4732 41.5322C94.7984 41.5322 93.5801 43.694 93.5801 45.6451C93.5801 48.0543 95.0732 49.5657 97.693 49.5657C98.7373 49.5657 99.6991 49.41 100.478 49.0894L100.166 47.468C99.525 47.6695 98.8655 47.7795 98.0411 47.7795C96.9235 47.7795 95.9434 47.3031 95.8701 46.3138V46.3047H100.835C100.862 46.1306 100.908 45.7734 100.908 45.3612C100.908 43.4742 99.9647 41.5322 97.4732 41.5322ZM95.8518 44.6925C95.9159 44.0513 96.3281 43.1353 97.3266 43.1353C98.4258 43.1353 98.6823 44.1062 98.6823 44.6925H95.8518Z" fill="white"/>
<path d="M111.378 41.542C110.82 41.542 110.343 41.6611 109.913 41.9176C109.555 42.1466 109.207 42.458 108.923 42.8427H108.896C108.566 42.0367 107.778 41.542 106.789 41.542C105.461 41.542 104.783 42.2657 104.453 42.7603H104.407L104.297 41.716H102.282C102.31 42.3939 102.346 43.2183 102.346 44.171H102.328V49.4106H104.664V44.9313C104.664 44.7481 104.682 44.5191 104.765 44.3359C104.911 43.942 105.268 43.4748 105.882 43.4748C106.642 43.4748 106.981 44.1343 106.981 45.1053V49.4198H109.317V44.9221C109.317 44.7389 109.354 44.4824 109.418 44.3084C109.574 43.8504 109.977 43.4748 110.517 43.4748C111.287 43.4748 111.653 44.116 111.653 45.2336V49.4198H113.989V44.8855C113.971 42.5863 112.853 41.542 111.378 41.542Z" fill="white"/>
<path d="M119.989 38.8401C119.302 39.4721 119.018 40.4889 119.018 41.4232V41.7255H118.011V43.4843H119.018V49.4201H121.418V43.4843H122.948V41.7255H121.4V41.3316C121.4 40.5713 121.73 39.9576 122.518 39.9576C122.829 39.9576 123.085 40.0126 123.287 40.0675L123.388 38.2263C123.058 38.1256 122.646 38.0706 122.114 38.0706C121.427 38.0614 120.594 38.263 119.989 38.8401Z" fill="white"/>
<path d="M127.637 41.542C125.164 41.542 123.524 43.1359 123.524 45.6183C123.524 48.1099 125.256 49.5847 127.509 49.5847C129.57 49.5847 131.576 48.2931 131.576 45.4717C131.567 43.1634 130.001 41.542 127.637 41.542ZM127.564 47.8808C126.538 47.8808 125.989 46.8824 125.989 45.5633C125.989 44.4275 126.419 43.2458 127.564 43.2458C128.654 43.2458 129.094 44.4183 129.094 45.5633C129.094 46.9465 128.498 47.8808 127.564 47.8808Z" fill="white"/>
<path d="M135.186 43.1356H135.122L135.048 41.7158H132.987C133.015 42.3753 133.051 43.1173 133.051 44.2532V49.4195H135.442V45.5173C135.442 45.3341 135.461 45.1417 135.488 44.986C135.644 44.244 136.239 43.7677 137.119 43.7677C137.384 43.7677 137.595 43.7951 137.76 43.8318V41.5784C137.586 41.5509 137.476 41.5509 137.256 41.5509C136.523 41.5418 135.58 42.0181 135.186 43.1356Z" fill="white"/>
<path d="M143.76 44.9309H147.662V42.9706H143.76V40.7722H147.9V38.8027H141.351V49.4194H148.12V47.4499H143.76V44.9309Z" fill="white"/>
<path d="M156.786 46.9467V41.7162H154.377V46.2963C154.377 46.4795 154.359 46.6718 154.294 46.8092C154.139 47.1848 153.754 47.6428 153.094 47.6428C152.252 47.6428 151.894 46.965 151.894 45.8474V41.707H149.485V46.2322C149.485 48.6046 150.63 49.5848 152.197 49.5848C153.58 49.5848 154.304 48.797 154.606 48.3207H154.652L154.762 49.4107H156.841C156.813 48.7695 156.786 47.9451 156.786 46.9467Z" fill="white"/>
<path d="M161.155 43.1356H161.091L161.018 41.7158H158.957C158.985 42.3753 159.021 43.1173 159.021 44.2532V49.4195H161.412V45.5173C161.412 45.3341 161.43 45.1417 161.458 44.986C161.613 44.244 162.209 43.7677 163.088 43.7677C163.354 43.7677 163.565 43.7951 163.729 43.8318V41.5784C163.555 41.5509 163.446 41.5509 163.226 41.5509C162.493 41.5418 161.549 42.0181 161.155 43.1356Z" fill="white"/>
<path d="M168.538 41.542C166.064 41.542 164.425 43.1359 164.425 45.6183C164.425 48.1099 166.156 49.5847 168.409 49.5847C170.471 49.5847 172.477 48.2931 172.477 45.4717C172.477 43.1634 170.901 41.542 168.538 41.542ZM168.483 47.8808C167.466 47.8808 166.907 46.8824 166.907 45.5633C166.907 44.4275 167.338 43.2458 168.483 43.2458C169.573 43.2458 170.013 44.4183 170.013 45.5633C170.013 46.9465 169.408 47.8808 168.483 47.8808Z" fill="white"/>
<path d="M178.687 41.5508C177.569 41.5508 176.69 41.9813 176.122 42.7966H176.095L175.985 41.7248H173.905C173.933 42.4302 173.969 43.3004 173.969 44.308V52.543H176.36V48.7232H176.388C176.736 49.2362 177.459 49.6118 178.394 49.6118C180.107 49.6118 181.884 48.2927 181.884 45.4897C181.875 43.0164 180.372 41.5508 178.687 41.5508ZM177.798 47.7431C177.102 47.7431 176.553 47.2576 176.397 46.6072C176.369 46.4607 176.351 46.2958 176.351 46.1034H176.36V45.05C176.36 44.9034 176.379 44.7477 176.406 44.6194C176.562 43.905 177.166 43.4012 177.835 43.4012C178.907 43.4012 179.456 44.3263 179.456 45.5629C179.456 46.8728 178.843 47.7431 177.798 47.7431Z" fill="white"/>
<path d="M186.876 41.5322C184.202 41.5322 182.983 43.694 182.983 45.6451C182.983 48.0543 184.476 49.5657 187.096 49.5657C188.141 49.5657 189.102 49.41 189.881 49.0894L189.57 47.468C188.928 47.6695 188.269 47.7795 187.444 47.7795C186.327 47.7795 185.356 47.3031 185.273 46.3138V46.3047H190.229C190.266 46.1306 190.312 45.7734 190.312 45.3612C190.312 43.4742 189.359 41.5322 186.876 41.5322ZM185.255 44.6925C185.319 44.0513 185.731 43.1353 186.73 43.1353C187.829 43.1353 188.076 44.1062 188.076 44.6925H185.255Z" fill="white"/>
<path fill-rule="evenodd" clip-rule="evenodd" d="M13.4199 6.82477C11.7619 11.2491 10.736 15.4262 10.2139 19.3468C21.7191 12.7881 32.7113 12.1377 41.9905 14.6293C45.9844 15.701 49.4469 17.7987 52.1675 20.5467C44.4088 11.8629 31.951 5.64311 13.4199 6.82477Z" fill="white"/>
</svg>
