<?xml version="1.0" encoding="utf-8"?>
<!-- Generator: Adobe Illustrator 24.2.0, SVG Export Plug-In . SVG Version: 6.00 Build 0)  -->
<svg width="150" height="45" version="1.1" id="Layer_1" xmlns="http://www.w3.org/2000/svg" xmlns:xlink="http://www.w3.org/1999/xlink" x="0px" y="0px"
	 viewBox="0 0 1280 203.3" style="enable-background:new 0 0 1280 203.3;" xml:space="preserve">
<style type="text/css">
	.st0{fill:#FFFFFF;}
</style>
<g id="Layer_1_1_">
</g>
<g id="Text_labels">
	<g>
		<path class="st0" d="M124.5,121.8H47.7v78.8H0V2.8h132.3v36.8H47.7v45.5h76.9v36.7H124.5z"/>
		<path class="st0" d="M202.9,200.5h-47.5V2.8h47.5V200.5z"/>
		<path class="st0" d="M338,148c0-7-2.5-12.4-7.4-16.3s-13.6-7.9-26-12.1s-22.5-8.2-30.4-12.1c-25.6-12.6-38.4-29.9-38.4-51.9
			c0-11,3.2-20.6,9.6-29c6.4-8.4,15.4-14.9,27.1-19.6s24.8-7,39.4-7c14.2,0,27,2.5,38.2,7.6s20,12.3,26.3,21.7
			c6.2,9.4,9.4,20.1,9.4,32.1h-47.5c0-8.1-2.5-14.3-7.4-18.7s-11.6-6.7-20-6.7c-8.5,0-15.2,1.9-20.2,5.6s-7.4,8.5-7.4,14.3
			c0,5.1,2.7,9.7,8.1,13.8c5.4,4.1,15,8.4,28.7,12.8s24.9,9.1,33.7,14.2c21.4,12.3,32,29.3,32,50.9c0,17.3-6.5,30.9-19.6,40.7
			c-13,9.9-30.9,14.8-53.6,14.8c-16,0-30.5-2.9-43.5-8.6c-13-5.8-22.8-13.6-29.3-23.6c-6.6-10-9.8-21.5-9.8-34.6h47.8
			c0,10.6,2.7,18.4,8.2,23.4s14.4,7.5,26.7,7.5c7.9,0,14.1-1.7,18.7-5.1C335.7,158.9,338,154.2,338,148z"/>
		<path class="st0" d="M532.7,116.6h-75v47.3h88.5v36.7H410.1V2.8h136.5v36.8h-88.8v41.7h75L532.7,116.6L532.7,116.6z"/>
	</g>
	<g>
		<g>
			<path class="st0" d="M618.7,184.6h-17.6v18h-10.9v-45.3h30.3v8.4h-19.4v10.4h17.6L618.7,184.6L618.7,184.6z"/>
			<path class="st0" d="M663.4,180.9c0,4.4-0.8,8.3-2.5,11.7c-1.6,3.4-4,6-7,7.9c-3,1.8-6.5,2.8-10.3,2.8c-3.9,0-7.3-0.9-10.3-2.7
				s-5.3-4.3-7-7.6c-1.7-3.3-2.5-7.1-2.6-11.4V179c0-4.4,0.8-8.4,2.4-11.7c1.6-3.4,4-6,7-7.9c3-1.8,6.5-2.8,10.4-2.8
				c3.8,0,7.3,0.9,10.3,2.7c3,1.8,5.3,4.4,7,7.8s2.5,7.2,2.5,11.6L663.4,180.9L663.4,180.9z M652.3,179c0-4.5-0.8-7.9-2.3-10.3
				c-1.5-2.3-3.7-3.5-6.5-3.5c-5.5,0-8.4,4.1-8.7,12.3v3.3c0,4.4,0.7,7.9,2.2,10.2c1.5,2.4,3.7,3.6,6.6,3.6c2.8,0,4.9-1.2,6.4-3.5
				s2.3-5.7,2.3-10.1V179z"/>
			<path class="st0" d="M685.8,186.6h-5.9v16H669v-45.3h17.8c5.4,0,9.6,1.2,12.6,3.6s4.5,5.8,4.5,10.1c0,3.2-0.6,5.8-1.9,7.8
				c-1.3,2.1-3.3,3.7-6,5l9.5,18.3v0.5h-11.7L685.8,186.6z M679.9,178.2h6.9c2.1,0,3.6-0.5,4.7-1.6c1-1.1,1.6-2.6,1.6-4.6
				s-0.5-3.5-1.6-4.6s-2.6-1.7-4.7-1.7h-6.9V178.2z"/>
			<path class="st0" d="M754.5,183.4h-17.2v10.8h20.3v8.4h-31.2v-45.3h31.3v8.4h-20.3v9.6h17.2L754.5,183.4L754.5,183.4z"/>
			<path class="st0" d="M797.6,157.3v29.6c0,3.4-0.7,6.3-2.1,8.7c-1.4,2.5-3.5,4.3-6.2,5.6s-5.8,1.9-9.5,1.9c-5.5,0-9.9-1.4-13-4.3
				c-3.2-2.9-4.8-6.8-4.9-11.8v-29.9h11v30.1c0.1,5,2.4,7.4,6.9,7.4c2.3,0,4-0.6,5.1-1.9c1.2-1.2,1.7-3.3,1.7-6.1V157h11V157.3z"/>
			<path class="st0" d="M821.3,186.6h-5.9v16h-10.9v-45.3h17.8c5.4,0,9.6,1.2,12.6,3.6s4.5,5.8,4.5,10.1c0,3.2-0.6,5.8-1.9,7.8
				c-1.3,2.1-3.3,3.7-6,5l9.5,18.3v0.5h-11.7L821.3,186.6z M815.4,178.2h6.9c2.1,0,3.6-0.5,4.7-1.6c1-1.1,1.6-2.6,1.6-4.6
				s-0.5-3.5-1.6-4.6s-2.6-1.7-4.7-1.7h-6.9V178.2z"/>
			<path class="st0" d="M884.4,180.9c0,4.4-0.8,8.3-2.5,11.7c-1.6,3.4-4,6-7,7.9c-3,1.8-6.5,2.8-10.3,2.8c-3.9,0-7.3-0.9-10.3-2.7
				s-5.3-4.3-7-7.6c-1.7-3.3-2.5-7.1-2.6-11.4V179c0-4.4,0.8-8.4,2.4-11.7c1.6-3.4,4-6,7-7.9c3-1.8,6.5-2.8,10.4-2.8
				c3.8,0,7.3,0.9,10.3,2.7c3,1.8,5.3,4.4,7,7.8s2.5,7.2,2.5,11.6L884.4,180.9L884.4,180.9z M873.3,179c0-4.5-0.8-7.9-2.3-10.3
				c-1.5-2.3-3.7-3.5-6.5-3.5c-5.5,0-8.4,4.1-8.7,12.3v3.3c0,4.4,0.7,7.9,2.2,10.2c1.5,2.4,3.7,3.6,6.6,3.6c2.8,0,4.9-1.2,6.4-3.5
				s2.3-5.7,2.3-10.1V179z"/>
			<path class="st0" d="M900.9,187.3v15.4H890v-45.3h18.1c3.5,0,6.5,0.6,9.2,1.9s4.7,3.1,6.2,5.4c1.5,2.4,2.2,5,2.2,8
				c0,4.4-1.6,7.9-4.7,10.6c-3.2,2.6-7.5,4-13,4L900.9,187.3L900.9,187.3z M900.9,178.8h7.2c2.1,0,3.7-0.5,4.8-1.6s1.7-2.6,1.7-4.5
				c0-2.1-0.6-3.8-1.7-5.1c-1.1-1.3-2.7-1.9-4.7-1.9h-7.3V178.8z"/>
			<path class="st0" d="M959.6,183.4h-17.2v10.8h20.3v8.4h-31.2v-45.3h31.3v8.4h-20.3v9.6h17.2L959.6,183.4L959.6,183.4z"/>
		</g>
		<g>
			<path class="st0" d="M601.8,124.3h-10.9V79h10.9V124.3z"/>
			<path class="st0" d="M647.2,124.3h-10.9l-16.1-28.2v28.2h-10.9V79h10.9l16,28.2V79h10.9L647.2,124.3L647.2,124.3z"/>
			<path class="st0" d="M682.7,106.3h-17.6v18h-10.9V79h30.3v8.4h-19.4v10.4h17.6L682.7,106.3L682.7,106.3z"/>
			<path class="st0" d="M727.3,102.6c0,4.4-0.8,8.3-2.5,11.7c-1.6,3.4-4,6-7,7.9c-3,1.8-6.5,2.8-10.3,2.8c-3.9,0-7.3-0.9-10.3-2.7
				c-3-1.8-5.3-4.3-7-7.6c-1.7-3.3-2.5-7.1-2.6-11.4v-2.5c0-4.4,0.8-8.4,2.4-11.7c1.6-3.4,4-6,7-7.9c3-1.8,6.5-2.8,10.4-2.8
				c3.8,0,7.3,0.9,10.3,2.7c3,1.8,5.3,4.4,7,7.8s2.5,7.2,2.5,11.6L727.3,102.6L727.3,102.6z M716.2,100.7c0-4.5-0.8-7.9-2.3-10.3
				c-1.5-2.3-3.7-3.5-6.5-3.5c-5.5,0-8.4,4.1-8.7,12.3v3.3c0,4.4,0.7,7.9,2.2,10.2c1.5,2.4,3.7,3.6,6.6,3.6c2.8,0,4.9-1.2,6.4-3.5
				s2.3-5.7,2.3-10.1V100.7z"/>
			<path class="st0" d="M749.8,108.3h-5.9v16H733V79h17.8c5.4,0,9.6,1.2,12.6,3.6s4.5,5.8,4.5,10.1c0,3.2-0.6,5.8-1.9,7.8
				c-1.3,2.1-3.3,3.7-6,5l9.5,18.3v0.5h-11.7L749.8,108.3z M743.9,99.9h6.9c2.1,0,3.6-0.5,4.7-1.6c1-1.1,1.6-2.6,1.6-4.6
				s-0.5-3.5-1.6-4.6s-2.6-1.7-4.7-1.7h-6.9V99.9z"/>
			<path class="st0" d="M788.9,79l10.1,31.5L809.1,79h14.4v45.3h-11v-10.5l1.1-21.7l-11,32.2h-7.2l-11-32.3l1.1,21.7v10.6h-10.9V79
				L788.9,79L788.9,79z"/>
			<path class="st0" d="M856.1,115.9h-15l-2.6,8.5h-11.7l16.6-45.3h10.3l16.7,45.3h-11.7L856.1,115.9z M843.8,107.4h9.7l-4.9-15.7
				L843.8,107.4z"/>
			<path class="st0" d="M905.6,87.5H892v36.9h-10.9V87.5h-13.3v-8.4h37.9v8.4H905.6z"/>
			<path class="st0" d="M921.8,124.3H911V79h10.9v45.3H921.8z"/>
			<path class="st0" d="M967.8,102.6c0,4.4-0.8,8.3-2.5,11.7c-1.6,3.4-4,6-7,7.9c-3,1.8-6.5,2.8-10.3,2.8c-3.9,0-7.3-0.9-10.3-2.7
				c-3-1.8-5.3-4.3-7-7.6c-1.7-3.3-2.5-7.1-2.6-11.4v-2.5c0-4.4,0.8-8.4,2.4-11.7c1.6-3.4,4-6,7-7.9c3-1.8,6.5-2.8,10.4-2.8
				c3.8,0,7.3,0.9,10.3,2.7c3,1.8,5.3,4.4,7,7.8s2.5,7.2,2.5,11.6L967.8,102.6L967.8,102.6z M956.7,100.7c0-4.5-0.8-7.9-2.3-10.3
				c-1.5-2.3-3.7-3.5-6.5-3.5c-5.5,0-8.4,4.1-8.7,12.3v3.3c0,4.4,0.7,7.9,2.2,10.2c1.5,2.4,3.7,3.6,6.6,3.6c2.8,0,4.9-1.2,6.4-3.5
				s2.3-5.7,2.3-10.1V100.7z"/>
			<path class="st0" d="M1011.3,124.3h-10.9l-16.1-28.2v28.2h-10.9V79h10.9l16,28.2V79h10.9L1011.3,124.3L1011.3,124.3z"/>
			<path class="st0" d="M1057.4,112.3c0-1.6-0.6-2.8-1.7-3.7c-1.1-0.9-3.1-1.8-6-2.8c-2.8-1-5.2-1.9-7-2.8
				c-5.9-2.9-8.8-6.8-8.8-11.9c0-2.5,0.7-4.7,2.2-6.6s3.5-3.4,6.2-4.5s5.7-1.6,9-1.6s6.2,0.6,8.8,1.7s4.6,2.8,6,5
				c1.4,2.1,2.1,4.6,2.1,7.4h-10.9c0-1.8-0.6-3.3-1.7-4.3s-2.7-1.5-4.6-1.5s-3.5,0.4-4.6,1.3s-1.7,2-1.7,3.3c0,1.2,0.6,2.2,1.9,3.2
				c1.2,0.9,3.4,1.9,6.6,2.9c3.1,1,5.7,2.1,7.7,3.3c4.9,2.8,7.3,6.7,7.3,11.7c0,4-1.5,7.1-4.5,9.3c-3,2.3-7.1,3.4-12.3,3.4
				c-3.7,0-7-0.7-10-2s-5.2-3.1-6.7-5.4s-2.3-4.9-2.3-7.9h11c0,2.4,0.6,4.2,1.9,5.4c1.3,1.2,3.3,1.7,6.1,1.7c1.8,0,3.2-0.4,4.3-1.2
				C1056.9,114.8,1057.4,113.7,1057.4,112.3z"/>
			<path class="st0" d="M1090.5,98.7l8.3-19.7h11.8l-14.6,29v16.3h-11V108l-14.6-29h11.7L1090.5,98.7z"/>
			<path class="st0" d="M1136.8,112.3c0-1.6-0.6-2.8-1.7-3.7c-1.1-0.9-3.1-1.8-6-2.8c-2.8-1-5.2-1.9-7-2.8
				c-5.9-2.9-8.8-6.8-8.8-11.9c0-2.5,0.7-4.7,2.2-6.6s3.5-3.4,6.2-4.5s5.7-1.6,9-1.6s6.2,0.6,8.8,1.7s4.6,2.8,6,5
				c1.4,2.1,2.1,4.6,2.1,7.4h-10.9c0-1.8-0.6-3.3-1.7-4.3s-2.7-1.5-4.6-1.5s-3.5,0.4-4.6,1.3s-1.7,2-1.7,3.3c0,1.2,0.6,2.2,1.9,3.2
				c1.2,0.9,3.4,1.9,6.6,2.9c3.1,1,5.7,2.1,7.7,3.3c4.9,2.8,7.3,6.7,7.3,11.7c0,4-1.5,7.1-4.5,9.3c-3,2.3-7.1,3.4-12.3,3.4
				c-3.7,0-7-0.7-10-2s-5.2-3.1-6.7-5.4s-2.3-4.9-2.3-7.9h11c0,2.4,0.6,4.2,1.9,5.4c1.3,1.2,3.3,1.7,6.1,1.7c1.8,0,3.2-0.4,4.3-1.2
				C1136.3,114.8,1136.8,113.7,1136.8,112.3z"/>
			<path class="st0" d="M1188.9,87.5h-13.6v36.9h-10.9V87.5H1151v-8.4h37.9V87.5z"/>
			<path class="st0" d="M1221.6,105.1h-17.2v10.8h20.3v8.4h-31.2V79h31.3v8.4h-20.3V97h17.2v8.1H1221.6z"/>
			<path class="st0" d="M1243.5,79l10.1,31.5l10.1-31.5h14.4v45.3h-11v-10.5l1.1-21.7l-11,32.2h-7.2L1239,92l1.1,21.7v10.6h-10.9V79
				L1243.5,79L1243.5,79z"/>
		</g>
	</g>
	<g>
		<path class="st0" d="M620.1,29.3h-18.5v18.9h-11.4V0.8H622v8.8h-20.3v10.9h18.5L620.1,29.3L620.1,29.3z"/>
		<path class="st0" d="M666.9,25.5c0,4.6-0.9,8.7-2.6,12.3s-4.2,6.3-7.3,8.2c-3.2,1.9-6.8,2.9-10.8,2.9s-7.6-0.9-10.8-2.8
			s-5.6-4.5-7.3-8s-2.7-7.4-2.8-11.9v-2.7c0-4.7,0.9-8.8,2.6-12.3c1.7-3.6,4.2-6.3,7.3-8.2c3.2-1.9,6.8-2.9,10.9-2.9
			c4,0,7.6,1,10.8,2.9s5.6,4.6,7.4,8.2c1.7,3.5,2.6,7.6,2.7,12.1v2.2H666.9z M655.2,23.5c0-4.7-0.8-8.3-2.4-10.7S649,9.1,646,9.1
			c-5.7,0-8.8,4.3-9.1,12.9v3.5c0,4.7,0.8,8.2,2.3,10.7s3.8,3.7,6.9,3.7c2.9,0,5.1-1.2,6.7-3.7s2.4-6,2.4-10.6L655.2,23.5
			L655.2,23.5z"/>
		<path class="st0" d="M690.4,31.4h-6.2v16.8h-11.4V0.8h18.7c5.6,0,10,1.2,13.2,3.7s4.8,6,4.8,10.6c0,3.3-0.7,6-2,8.2
			s-3.4,3.9-6.3,5.3l9.9,19.2v0.5h-12.3L690.4,31.4z M684.2,22.6h7.2c2.2,0,3.8-0.6,4.9-1.7c1.1-1.1,1.6-2.7,1.6-4.8
			c0-2-0.6-3.7-1.7-4.8c-1.1-1.2-2.7-1.7-4.9-1.7h-7.2v13H684.2z"/>
		<path class="st0" d="M745.8,28.1h-18v11.3H749v8.8h-32.7V0.8h32.8v8.8h-21.3v10h18V28.1z"/>
		<path class="st0" d="M778.2,35.6c0-1.7-0.6-3-1.8-3.9s-3.3-1.9-6.2-2.9s-5.4-2-7.3-2.9c-6.1-3-9.2-7.2-9.2-12.5c0-2.6,0.8-5,2.3-7
			s3.7-3.6,6.5-4.7s6-1.7,9.5-1.7c3.4,0,6.5,0.6,9.2,1.8c2.7,1.2,4.8,3,6.3,5.2s2.2,4.8,2.2,7.7h-11.4c0-1.9-0.6-3.4-1.8-4.5
			s-2.8-1.6-4.8-1.6s-3.7,0.5-4.8,1.4s-1.8,2-1.8,3.4c0,1.2,0.7,2.3,2,3.3s3.6,2,6.9,3.1s6,2.2,8.1,3.4c5.1,3,7.7,7,7.7,12.2
			c0,4.2-1.6,7.4-4.7,9.8s-7.4,3.6-12.9,3.6c-3.8,0-7.3-0.7-10.4-2.1c-3.1-1.4-5.5-3.3-7-5.7s-2.4-5.2-2.4-8.3h11.5
			c0,2.5,0.7,4.4,2,5.6s3.5,1.8,6.4,1.8c1.9,0,3.4-0.4,4.5-1.2C777.6,38.2,778.2,37.1,778.2,35.6z"/>
		<path class="st0" d="M832.7,9.6h-14.2v38.6h-11.4V9.6h-14V0.8h39.7L832.7,9.6L832.7,9.6z"/>
	</g>
</g>
</svg>
